<?xml version="1.0" encoding="utf-8"?>
<!-- Generator: Adobe Illustrator 24.2.3, SVG Export Plug-In . SVG Version: 6.00 Build 0)  -->
<svg version="1.1" id="Ebene_1" xmlns="http://www.w3.org/2000/svg" xmlns:xlink="http://www.w3.org/1999/xlink" x="0px" y="0px"
	 viewBox="0 0 1920 1080" style="enable-background:new 0 0 1920 1080;" xml:space="preserve">
<style type="text/css">
	.st0{fill:#3A2A78;}
	.st1{opacity:0.4;}
	.st2{fill:url(#SVGID_1_);}
	.st3{opacity:0.2;}
	.st4{fill:#6DBBD0;}
	.st5{fill:#1A9869;}
	.st6{fill:#A280AD;}
</style>
<g>
	<g id="ff78a7da-3be6-4a4d-9df6-7afdd7fd3ec7">
		<rect class="st0" width="1920.1" height="1080"/>
		<g class="st1">
			
				<linearGradient id="SVGID_1_" gradientUnits="userSpaceOnUse" x1="1710.0547" y1="1290.0183" x2="210.0182" y2="-210.0182" gradientTransform="matrix(1 0 0 -1 0 1080)">
				<stop  offset="5.455416e-02" style="stop-color:#3A2A78"/>
				<stop  offset="1" style="stop-color:#000000"/>
			</linearGradient>
			<rect class="st2" width="1920.1" height="1080"/>
		</g>
		<g class="st3">
			<circle class="st4" cx="629.5" cy="738.5" r="61"/>
		</g>
		<path class="st4" d="M911.7,425.3C853,345.7,774.6,282.9,684.1,243l10.1-22.9c94.5,41.6,176.4,107.2,237.7,190.3L911.7,425.3z"/>
		<path class="st4" d="M141.3,291.9l-14-20.7c72-48.8,153.9-80.9,239.9-93.9L371,202C288.7,214.5,210.2,245.2,141.3,291.9z"/>
		<g class="st1">
			<path class="st4" d="M1014.9,1080c18.6-32.4,34.4-66.4,47.1-101.6l4.7,1.7c-12.5,34.5-27.9,67.9-46.1,99.9 M1099.8,843.8l-5-0.6
				c3.5-27.3,5.3-54.8,5.3-82.3c0-18.9-0.8-38-2.5-56.8l5-0.4c1.7,19,2.5,38.2,2.5,57.3C1105.1,788.6,1103.4,816.3,1099.8,843.8
				L1099.8,843.8z M1070.5,567.5c-13.9-44.4-32.6-87.2-55.7-127.5l4.3-2.5c23.3,40.7,42.1,83.8,56.2,128.5L1070.5,567.5z
				 M932.9,327.5c-31.3-34.4-66.3-65.3-104.3-92.1l2.9-4.1c38.3,27.1,73.6,58.2,105.2,92.8L932.9,327.5z M50.1,262.2l-3.2-3.9
				c36.3-29.7,75.8-55.3,117.6-76.4l2.3,4.5C125.2,207.3,86.1,232.8,50.1,262.2z M706.9,167.6c-42.8-18.1-87.5-31.5-133.3-39.9
				l0.9-4.9c46.1,8.5,91.2,22,134.3,40.3L706.9,167.6z M297.1,137.4l-1.2-4.8c45.4-11.7,92-18.4,138.8-20.1l0.2,5
				C388.3,119.2,342.1,125.9,297.1,137.4L297.1,137.4z"/>
		</g>
		<g class="st1">
			<path class="st4" d="M979.1,1080l-1.3-0.8c3.5-5.6,6.9-11.4,10.2-17.2l4.3,2.5c-3,5.2-6,10.4-9.1,15.5 M1001.9,1046.9l-4.4-2.3
				c3.1-5.9,6.1-11.8,9-17.8l4.5,2.2C1008.1,1034.9,1005,1040.9,1001.9,1046.9L1001.9,1046.9z M1019.5,1010.7l-4.6-2
				c2.7-6,5.3-12.2,7.8-18.4l4.6,1.9C1024.9,998.3,1022.2,1004.6,1019.5,1010.7z M1034.7,973.4l-4.7-1.7c2.3-6.2,4.5-12.6,6.6-18.8
				l4.7,1.6C1039.2,960.7,1037,967.1,1034.7,973.4z M1047.3,935.2l-4.8-1.4c1.9-6.3,3.7-12.8,5.3-19.2l4.8,1.3
				C1051,922.3,1049.2,928.8,1047.3,935.2z M1057.5,896.4l-4.9-1.1c1.5-6.4,2.8-13,4.1-19.5l4.9,0.9
				C1060.3,883.3,1058.9,889.9,1057.5,896.4L1057.5,896.4z M1065,856.9l-4.9-0.8c1-6.5,2-13.1,2.8-19.7l5,0.6
				C1067,843.7,1066.1,850.4,1065,856.9L1065,856.9z M1070,817.1l-5-0.5c0.6-6.6,1.1-13.2,1.5-19.9l5,0.3
				C1071.1,803.8,1070.6,810.5,1070,817.1L1070,817.1z M1072.3,777l-5-0.1c0.1-5.5,0.2-11.1,0.2-16.7c0-1.1,0-2.2,0-3.2l5,0
				c0,1.1,0,2.2,0,3.3C1072.6,765.8,1072.5,771.5,1072.3,777L1072.3,777z M1067.1,737.1c-0.2-6.6-0.6-13.3-1.1-19.9l5-0.3
				c0.5,6.7,0.8,13.4,1.1,20L1067.1,737.1z M1064.4,697.4c-0.7-6.6-1.5-13.2-2.3-19.8l5-0.7c0.9,6.6,1.7,13.3,2.4,19.9L1064.4,697.4
				z M1059,657.9c-1.1-6.5-2.3-13.1-3.6-19.6l4.9-1c1.3,6.5,2.6,13.2,3.7,19.7L1059,657.9z M1051.1,618.9
				c-1.5-6.5-3.2-12.9-4.9-19.3l4.8-1.3c1.7,6.4,3.4,13,5,19.5L1051.1,618.9z M1040.7,580.5c-1.9-6.3-4-12.7-6.2-18.9l4.7-1.6
				c2.2,6.3,4.3,12.7,6.2,19.1L1040.7,580.5z M1027.7,542.8c-2.4-6.2-4.8-12.4-7.4-18.4l4.6-1.9c2.6,6.1,5.1,12.4,7.4,18.6
				L1027.7,542.8z M1012.4,506.2c-2.7-6-5.6-12-8.6-17.9l4.5-2.2c3,6,5.9,12,8.6,18.1L1012.4,506.2z M994.7,470.6
				c-3.1-5.8-6.4-11.6-9.7-17.3l4.3-2.5c3.3,5.7,6.6,11.6,9.8,17.5L994.7,470.6z M974.7,436.3c-3.5-5.6-7.1-11.2-10.8-16.7l4.1-2.8
				c3.7,5.5,7.4,11.2,10.9,16.8L974.7,436.3z M952.4,403.3c-3.9-5.4-7.9-10.7-11.9-15.9l4-3.1c4.1,5.3,8.1,10.7,12,16.1L952.4,403.3
				z M928.1,371.8c-4.2-5.1-8.5-10.2-12.9-15.1l3.8-3.3c4.4,5,8.8,10.1,13,15.3L928.1,371.8z M901.8,342c-4.5-4.8-9.2-9.6-13.9-14.3
				l3.5-3.5c4.7,4.7,9.4,9.5,14,14.4L901.8,342z M17.7,336.4l-3.6-3.5c4.6-4.8,9.4-9.6,14.2-14.2l3.5,3.6
				C27,326.9,22.3,331.6,17.7,336.4z M873.6,313.9c-4.8-4.5-9.8-9-14.8-13.4l3.3-3.8c5,4.4,10,8.9,14.9,13.5L873.6,313.9z
				 M46.2,308.6l-3.4-3.7c4.9-4.5,10-8.9,15.1-13.3l3.2,3.8C56.1,299.7,51.1,304.2,46.2,308.6z M843.6,287.6
				c-5.1-4.2-10.4-8.4-15.6-12.4l3-4c5.3,4.1,10.6,8.2,15.7,12.5L843.6,287.6z M76.5,282.8l-3.1-3.9c5.2-4.1,10.5-8.3,15.9-12.3l3,4
				C87,274.6,81.7,278.7,76.5,282.8L76.5,282.8z M812,263.4c-5.4-3.9-10.9-7.7-16.4-11.3l2.8-4.2c5.5,3.7,11.1,7.5,16.5,11.4
				L812,263.4z M108.4,259l-2.9-4.1c5.5-3.8,11-7.6,16.6-11.2l2.7,4.2C119.4,251.5,113.8,255.2,108.4,259L108.4,259z M778.8,241.3
				c-5.6-3.5-11.4-6.9-17.1-10.2l2.5-4.3c5.8,3.3,11.6,6.8,17.2,10.3L778.8,241.3z M141.7,237.3l-2.6-4.3
				c5.7-3.4,11.5-6.8,17.3-10.1l2.4,4.4C153.2,230.6,147.4,233.9,141.7,237.3L141.7,237.3z M744.3,221.3c-5.8-3.1-11.8-6.2-17.7-9.1
				l2.2-4.5c6,2.9,12,6,17.9,9.2L744.3,221.3z M176.4,217.9l-2.3-4.4c5.9-3.1,11.9-6.1,17.9-8.9l2.2,4.5
				C188.2,211.9,182.3,214.9,176.4,217.9z M708.5,203.7c-6-2.7-12.2-5.4-18.3-7.9l1.9-4.6c6.2,2.6,12.4,5.2,18.5,8L708.5,203.7z
				 M212.2,200.8l-2-4.6c6.1-2.7,12.3-5.3,18.5-7.7l1.9,4.6C224.4,195.6,218.3,198.1,212.2,200.8L212.2,200.8z M671.6,188.5
				c-6.2-2.3-12.5-4.6-18.8-6.7l1.6-4.7c6.3,2.1,12.7,4.4,19,6.8L671.6,188.5z M249.2,186l-1.7-4.7c6.3-2.3,12.7-4.5,19-6.5l1.5,4.8
				C261.7,181.6,255.4,183.8,249.2,186L249.2,186z M633.7,175.7c-6.3-1.9-12.8-3.7-19.2-5.4l1.3-4.8c6.4,1.7,12.9,3.6,19.3,5.5
				L633.7,175.7z M287,173.7l-1.4-4.8c6.4-1.9,12.9-3.6,19.4-5.3l1.2,4.8C299.8,170.1,293.4,171.9,287,173.7z M595.3,165.4
				c-6.4-1.5-13-2.9-19.5-4.2l1-4.9c6.5,1.3,13.1,2.7,19.6,4.2L595.3,165.4z M325.6,163.9l-1.1-4.9c6.5-1.4,13.1-2.8,19.7-4l0.9,4.9
				C338.6,161.1,332.1,162.5,325.6,163.9L325.6,163.9z M556.2,157.7c-6.5-1.1-13.1-2-19.7-2.9l0.6-5c6.6,0.9,13.3,1.8,19.9,2.9
				L556.2,157.7z M364.8,156.6l-0.8-4.9c6.6-1,13.3-1.9,19.9-2.7l0.6,5C377.9,154.8,371.3,155.6,364.8,156.6L364.8,156.6z
				 M516.7,152.6c-6.6-0.6-13.3-1.2-19.8-1.6l0.3-5c6.6,0.4,13.4,1,20,1.6L516.7,152.6z M404.3,152l-0.4-5c6.6-0.6,13.4-1,20-1.4
				l0.3,5C417.6,150.9,410.9,151.4,404.3,152L404.3,152z M477,150c-11-0.4-22.2-0.4-32.9-0.2l-0.1-5c10.8-0.2,22.1-0.2,33.2,0.2
				L477,150z"/>
		</g>
		<g class="st1">
			<path class="st4" d="M250.8,1094.4c-5.7-3.5-11.4-7.2-16.9-11l3.4-4.9c5.4,3.7,11,7.4,16.6,10.9L250.8,1094.4z M687.4,1078.2
				l-3.5-4.9c5.3-3.9,10.6-7.9,15.7-12.1l3.8,4.7C698.2,1070.2,692.8,1074.3,687.4,1078.2z M217.6,1071.4
				c-5.3-4.1-10.5-8.3-15.6-12.7l3.9-4.6c5,4.3,10.2,8.5,15.4,12.5L217.6,1071.4z M718.8,1052.9l-4-4.5c4.9-4.4,9.8-9,14.4-13.6
				l4.2,4.3C728.7,1043.8,723.7,1048.5,718.8,1052.9L718.8,1052.9z M187,1045.2c-4.9-4.6-9.6-9.4-14.3-14.2l4.3-4.1
				c4.5,4.8,9.3,9.5,14,14L187,1045.2z M747.4,1024.6l-4.4-4c4.4-4.9,8.8-9.9,13-15l4.6,3.8C756.3,1014.5,751.9,1019.6,747.4,1024.6
				L747.4,1024.6z M159.2,1016.1c-4.4-5.1-8.7-10.3-12.7-15.6l4.7-3.7c4,5.2,8.2,10.4,12.5,15.4L159.2,1016.1z M773,993.4l-4.8-3.6
				c3.9-5.3,7.7-10.8,11.4-16.3l5,3.3C780.8,982.5,776.9,988.1,773,993.4L773,993.4z M134.6,984.3c-3.8-5.5-7.5-11.1-11.1-16.8
				l5.1-3.2c3.5,5.6,7.1,11.1,10.9,16.6L134.6,984.3z M795.2,959.8l-5.2-3.1c3.4-5.7,6.6-11.5,9.7-17.4l5.3,2.8
				C802,948.2,798.7,954.1,795.2,959.8L795.2,959.8z M113.3,950.1c-3.2-5.8-6.4-11.8-9.3-17.8l5.4-2.6c2.9,5.9,6,11.8,9.1,17.6
				L113.3,950.1z M814,924.1l-5.5-2.5c2.8-6,5.4-12.1,7.8-18.3l5.6,2.2C819.4,911.8,816.8,918,814,924.1L814,924.1z M95.7,914
				c-2.6-6.1-5.1-12.4-7.4-18.7l5.6-2.1c2.3,6.2,4.7,12.4,7.3,18.4L95.7,914z M828.9,886.6l-5.7-1.9c2.1-6.2,4.1-12.6,5.9-18.9
				l5.8,1.6C833.1,873.8,831.1,880.3,828.9,886.6z M81.8,876.2c-2-6.4-3.8-12.9-5.4-19.4l5.8-1.5c1.6,6.4,3.4,12.8,5.4,19.1
				L81.8,876.2z M839.9,847.9l-5.8-1.3c1.5-6.4,2.8-13,3.9-19.4l5.9,1C842.7,834.7,841.4,841.4,839.9,847.9L839.9,847.9z
				 M71.9,837.1c-1.3-6.5-2.4-13.2-3.4-19.9l5.9-0.9c0.9,6.5,2.1,13.1,3.4,19.5L71.9,837.1z M846.8,808.2l-6-0.7
				c0.8-6.5,1.4-13.2,1.9-19.7l6,0.4C848.3,794.8,847.6,801.6,846.8,808.2z M66.1,797.3c-0.6-6.6-1.1-13.4-1.4-20.1l6-0.3
				c0.3,6.6,0.7,13.3,1.3,19.8L66.1,797.3z M849.6,768l-6-0.1c0-2.6,0.1-5.1,0.1-7.7c0-4-0.1-8.1-0.2-12.2l6-0.2
				c0.1,4.1,0.2,8.3,0.2,12.4C849.7,762.8,849.7,765.4,849.6,768z M70.4,757.1l-6,0c0.1-6.7,0.3-13.5,0.7-20.1l6,0.4
				C70.7,743.8,70.5,750.5,70.4,757.1L70.4,757.1z M842.4,728.2c-0.5-6.6-1.2-13.2-2.1-19.7l5.9-0.8c0.9,6.6,1.6,13.4,2.2,20
				L842.4,728.2z M72.7,717.5l-6-0.7c0.7-6.6,1.6-13.4,2.7-20l5.9,1C74.4,704.3,73.5,710.9,72.7,717.5z M837.1,688.9
				c-1.2-6.5-2.6-13-4.1-19.4l5.8-1.4c1.6,6.5,3,13.1,4.2,19.7L837.1,688.9z M79.1,678.3l-5.9-1.3c1.4-6.5,3-13.1,4.8-19.6l5.8,1.6
				C82.1,665.4,80.5,671.9,79.1,678.3z M827.9,650.4c-1.9-6.3-3.9-12.7-6.1-18.9l5.7-2c2.2,6.3,4.3,12.7,6.2,19.2L827.9,650.4z
				 M89.4,640.1l-5.7-1.9c2.1-6.4,4.4-12.8,6.8-19l5.6,2.2C93.7,627.5,91.5,633.8,89.4,640.1z M814.7,613c-2.5-6.1-5.2-12.2-8-18.1
				l5.4-2.6c2.9,6,5.6,12.2,8.1,18.4L814.7,613z M103.7,603l-5.5-2.4c2.7-6.1,5.6-12.2,8.7-18.2l5.3,2.7
				C109.3,590.9,106.4,597,103.7,603z M797.7,577.2c-3.1-5.8-6.4-11.6-9.8-17.2l5.1-3.1c3.5,5.7,6.8,11.6,10,17.5L797.7,577.2z
				 M121.8,567.6l-5.2-3c3.3-5.8,6.9-11.6,10.5-17.2l5,3.3C128.5,556.2,125,561.9,121.8,567.6L121.8,567.6z M777.2,543.3
				c-3.7-5.4-7.6-10.9-11.5-16.1l4.8-3.6c4,5.3,8,10.8,11.7,16.4L777.2,543.3z M143.3,534.2l-4.9-3.5c3.9-5.4,8-10.8,12.2-16
				l4.7,3.8C151.2,523.6,147.2,528.9,143.3,534.2z M753.3,511.7c-4.2-5-8.7-10-13.1-14.9l4.4-4.1c4.6,4.9,9,10,13.3,15.1
				L753.3,511.7z M168.1,503.3l-4.5-4c4.4-5,9.1-9.9,13.8-14.7l4.3,4.2C177.1,493.5,172.5,498.4,168.1,503.3L168.1,503.3z
				 M726.2,482.7c-4.7-4.6-9.6-9.1-14.6-13.4l4-4.5c5,4.4,10,9,14.8,13.7L726.2,482.7z M196,475l-4.1-4.4c4.9-4.5,10-9,15.2-13.2
				l3.8,4.6C205.9,466.2,200.8,470.6,196,475L196,475z M696.4,456.5c-5.2-4.1-10.5-8.1-15.9-11.9l3.5-4.9
				c5.4,3.9,10.9,7.9,16.1,12.1L696.4,456.5z M226.5,449.8L223,445c5.4-4,10.9-7.9,16.5-11.6l3.3,5
				C237.3,442,231.8,445.8,226.5,449.8L226.5,449.8z M664,433.6c-5.6-3.5-11.3-7-17-10.2l3-5.2c5.8,3.3,11.6,6.8,17.3,10.4
				L664,433.6z M259.5,427.8l-3.1-5.2c5.7-3.4,11.6-6.7,17.5-9.8l2.8,5.3C271,421.2,265.2,424.4,259.5,427.8L259.5,427.8z
				 M629.4,414c-5.9-2.9-12-5.8-18-8.4l2.4-5.5c6.1,2.7,12.3,5.6,18.3,8.5L629.4,414z M294.5,409.3l-2.5-5.4c6-2.8,12.3-5.5,18.5-8
				l2.2,5.6C306.6,403.9,300.5,406.5,294.5,409.3L294.5,409.3z M593,398.2c-6.2-2.3-12.5-4.5-18.8-6.5l1.8-5.7
				c6.4,2,12.8,4.3,19.1,6.6L593,398.2z M331.3,394.5l-2-5.7c6.3-2.2,12.8-4.2,19.2-6.1l1.7,5.8
				C343.9,390.3,337.5,392.3,331.3,394.5L331.3,394.5z M555.2,386.1c-6.4-1.7-12.9-3.2-19.3-4.5l1.2-5.9c6.6,1.4,13.2,2.9,19.6,4.6
				L555.2,386.1z M369.4,383.6l-1.4-5.8c6.5-1.5,13.2-2.9,19.7-4l1.1,5.9C382.4,380.7,375.8,382.1,369.4,383.6L369.4,383.6z
				 M516.4,378.1c-6.5-1-13.1-1.8-19.7-2.5l0.6-6c6.7,0.7,13.4,1.5,20,2.6L516.4,378.1z M408.5,376.6l-0.7-6c6.6-0.8,13.4-1.5,20-2
				l0.4,6C421.6,375.1,415,375.8,408.5,376.6z M476.9,374.1c-9.5-0.5-19.3-0.6-28.9-0.4l-0.1-6c9.7-0.2,19.6-0.1,29.3,0.4
				L476.9,374.1z"/>
		</g>
		<polygon class="st4" points="228.5,227.2 347.5,500 339.7,503.8 194.5,244.1 		"/>
		<polygon class="st4" points="818.5,309.3 700.5,446 695.7,442.5 787.7,287.1 		"/>
		<polygon class="st4" points="780.1,877.9 1013.4,949.4 1000.4,985.1 775.9,889.4 		"/>
		<path class="st4" d="M328.6,527.5c-2.8-12.2,4.8-24.3,17-27.1c9.2-2.1,18.8,1.8,24,9.7l-3.5,2.3c-5.6-8.5-17-11-25.5-5.4
			c-6.5,4.2-9.6,12-7.9,19.6L328.6,527.5z"/>
		<path class="st4" d="M761.8,896.6c-2.5,0-5-0.4-7.3-1.2l1.4-4c9.6,3.3,20.1-1.8,23.4-11.5c2.5-7.3,0.2-15.4-5.8-20.3l2.6-3.3
			c9.7,7.9,11.2,22.1,3.3,31.8C775,893.5,768.6,896.6,761.8,896.6z"/>
		<path class="st4" d="M705.9,469.9l-3.8-1.8c4.3-9.2,0.3-20.2-8.9-24.5c-7-3.3-15.3-1.8-20.8,3.6l-3-3c8.9-8.8,23.2-8.7,32,0.1
			C708.1,451.1,709.9,461.3,705.9,469.9L705.9,469.9z"/>
		<polygon class="st5" points="374.3,991.6 332.7,885.5 335.5,884.4 375.8,987.2 479.8,926.5 481.3,929.1 		"/>
		<polygon class="st5" points="646.4,892.3 438.7,882.3 438.3,882.1 261,785.3 127.6,773.7 166,680.6 176,672.9 210.7,600.7 
			317.2,632.5 355.6,560.1 358.3,561.5 318.7,636.1 212.3,604.3 178.4,674.8 168.5,682.4 132,771.1 261.9,782.3 439.5,879.3 
			646,889.3 731.7,863 709.4,750.9 712.3,750.4 735.2,865.1 		"/>
		<polygon class="st5" points="371.8,745.3 516,531.3 464.9,469.8 467.2,467.9 519.8,531.1 378.2,741.1 556,709.6 562.8,586.6 
			563.2,586.2 668.9,484.3 742,602.7 646.2,707.4 644,705.4 738.3,602.4 668.3,489.1 565.7,588 558.9,712.1 557.7,712.3 		"/>
		
			<rect x="588.5" y="582" transform="matrix(0.9184 -0.3956 0.3956 0.9184 -207.8282 286.1922)" class="st5" width="3" height="130"/>
		<polygon class="st5" points="645.3,896.4 631.9,774.3 634.9,774 647.1,885.3 709.5,750 712.2,751.3 		"/>
		<polygon class="st5" points="426.6,881.7 374.1,745.1 258.9,786.3 315.5,636.7 170,682.2 259.2,779.4 257,781.4 164.6,680.8 
			320.5,632 264,781.3 375.9,741.3 427.5,875.6 556.2,709.9 558.6,711.8 		"/>
		<circle class="st5" cx="564.3" cy="587.3" r="12.2"/>
		
			<ellipse transform="matrix(0.9239 -0.3827 0.3827 0.9239 -163.8448 238.6261)" class="st5" cx="517.9" cy="531.2" rx="12.2" ry="12.2"/>
		<circle class="st5" cx="466" cy="468.9" r="12.2"/>
		<circle class="st5" cx="740.2" cy="602.5" r="12.2"/>
		<circle class="st6" cx="362.8" cy="553.4" r="12.2"/>
		<circle class="st5" cx="557.4" cy="710.8" r="12.2"/>
		<circle class="st5" cx="646.2" cy="890.8" r="12.2"/>
		<circle class="st5" cx="375" cy="989.4" r="12.2"/>
		<circle class="st5" cx="330.2" cy="873.5" r="12.2"/>
		<circle class="st5" cx="375" cy="741.3" r="12.2"/>
		<circle class="st5" cx="427.1" cy="878.7" r="12.2"/>
		<circle class="st5" cx="258.1" cy="780.4" r="12.2"/>
		<circle class="st5" cx="129.8" cy="772.4" r="12.2"/>
		<circle class="st5" cx="169.8" cy="679.2" r="12.2"/>
		<circle class="st5" cx="211.5" cy="602.5" r="12.2"/>
		<circle class="st5" cx="318" cy="634.3" r="12.2"/>
		<circle class="st5" cx="490.4" cy="920.6" r="12.2"/>
		<circle class="st6" cx="733.5" cy="864.1" r="12.2"/>
		<circle class="st5" cx="564.3" cy="470.7" r="12.2"/>
		<polygon class="st5" points="636.3,704.3 633.4,703.9 666.9,487.9 573.5,472.2 574,469.2 670.3,485.5 670.1,486.9 		"/>
		<circle class="st6" cx="668.6" cy="486.7" r="12.2"/>
		<polygon class="st5" points="374,990.5 127.4,772.3 317.1,633.1 318.9,635.5 132.2,772.5 376,988.3 		"/>
		<circle class="st5" cx="710.8" cy="750.7" r="12.2"/>
		<g class="st1">
			<path class="st4" d="M1525.8,771c-171.4-0.2-310.1-139.3-309.8-310.7c0.2-171.4,139.3-310.1,310.7-309.8s310.1,139.3,309.8,310.7
				c-0.1,57.9-16.4,114.6-47,163.7l-1.3-0.8l1.3,0.8c-43.4,69.9-112.9,119.6-193.1,138C1573.2,768.2,1549.6,770.9,1525.8,771z
				 M1527,153.5c-23.5,0-47,2.7-69.9,8C1291.8,199.9,1189,365,1227.4,530.3c32.3,138.9,155.9,237.3,298.4,237.7
				c23.5,0,47-2.7,69.9-8c165.3-38.4,268.1-203.5,229.7-368.7C1793.1,252.3,1669.6,153.9,1527,153.5L1527,153.5z"/>
		</g>
		<g class="st1">
			<path class="st4" d="M1526.2,752L1526.2,752c-42.5,0.1-84.5-9.3-122.9-27.3l1.3-2.7c38,17.9,79.5,27.1,121.6,27
				c4.6,0,9.2-0.1,13.7-0.3l0.1,3C1535.4,751.8,1530.7,752,1526.2,752z M1673.6,712l-1.5-2.6c40.2-23.6,74.1-56.6,98.8-96.2l2.5,1.6
				C1748.5,654.8,1714.2,688.2,1673.6,712L1673.6,712z M1294.7,637.3c-28.5-37.5-47.5-81.4-55.4-127.9l3-0.5
				c7.8,46,26.7,89.4,54.9,126.5L1294.7,637.3z M1773.8,614.3l-2.5-1.6c24.6-39.6,39.2-84.6,42.6-131.1l3,0.2
				C1813.4,528.8,1798.7,574.3,1773.8,614.3z M1252.3,371.4l-2.9-0.9c14.7-44.8,40-85.4,73.6-118.3l2.1,2.1
				C1291.9,286.9,1266.9,327.1,1252.3,371.4L1252.3,371.4z M1790.6,345.6c-18.6-42.8-47.3-80.4-83.7-109.6l1.9-2.3
				c36.7,29.5,65.8,67.5,84.6,110.7L1790.6,345.6z M1444.1,184.5l-0.9-2.9c45.2-13.5,92.9-15.8,139.2-6.7l-0.6,2.9
				C1536.1,168.9,1488.9,171.2,1444.1,184.5z"/>
		</g>
		<g class="st1">
			<path class="st4" d="M1526.4,735c-0.9,0-1.8,0-2.7,0l0-3c6.6,0.1,13.3-0.1,19.9-0.5l0.2,3C1538,734.8,1532.2,735,1526.4,735z
				 M1503.6,734.1c-6.7-0.5-13.4-1.3-20-2.4l0.5-3c6.5,1,13.2,1.8,19.7,2.4L1503.6,734.1z M1563.8,732.5l-0.4-3
				c6.5-0.9,13.1-2,19.6-3.4l0.6,2.9C1577.1,730.4,1570.4,731.6,1563.8,732.5L1563.8,732.5z M1463.9,727.9c-6.5-1.5-13-3.3-19.4-5.3
				l0.9-2.9c6.3,2,12.8,3.7,19.2,5.2L1463.9,727.9z M1603.1,724.1l-0.8-2.9c6.3-1.8,12.7-3.9,18.9-6.2l1,2.8
				C1615.9,720.1,1609.5,722.3,1603.1,724.1L1603.1,724.1z M1425.6,715.9c-6.2-2.5-12.4-5.2-18.4-8.1l1.3-2.7c6,2.9,12.1,5.6,18.2,8
				L1425.6,715.9z M1640.7,710.1l-1.3-2.7c6-2.8,12-5.8,17.7-8.9l1.4,2.6C1652.8,704.3,1646.8,707.3,1640.7,710.1L1640.7,710.1z
				 M1389.4,698.4c-5.8-3.3-11.5-6.9-17-10.7l1.7-2.5c5.5,3.7,11.1,7.3,16.8,10.6L1389.4,698.4z M1675.9,690.7l-1.6-2.5
				c5.5-3.6,11-7.5,16.2-11.4l1.8,2.4C1687,683.2,1681.5,687.1,1675.9,690.7L1675.9,690.7z M1356.1,675.8
				c-5.2-4.1-10.4-8.5-15.3-13.1l2-2.2c4.9,4.5,10,8.8,15.1,12.9L1356.1,675.8z M1707.8,666.4l-2-2.2c4.9-4.4,9.8-9,14.4-13.7
				l2.1,2.1C1717.7,657.3,1712.8,662,1707.8,666.4L1707.8,666.4z M1326.6,648.6c-4.6-4.9-9-10-13.2-15.1l2.3-1.9
				c4.2,5.1,8.6,10.2,13.1,15L1326.6,648.6z M1735.9,637.7l-2.3-1.9c4.3-5,8.4-10.3,12.3-15.6l2.4,1.8
				C1744.4,627.3,1740.2,632.6,1735.9,637.7z M1301.2,617.4c-3.8-5.5-7.5-11.2-10.9-16.9l2.6-1.5c3.4,5.7,7,11.3,10.8,16.7
				L1301.2,617.4z M1759.6,605.2l-2.5-1.6c3.5-5.6,6.8-11.4,9.9-17.3l2.7,1.4C1766.5,593.6,1763.1,599.5,1759.6,605.2L1759.6,605.2z
				 M1280.7,582.9c-3-6-5.8-12.1-8.3-18.3l2.8-1.1c2.5,6.1,5.3,12.2,8.2,18.1L1280.7,582.9z M1778.2,569.6l-2.8-1.2
				c2.6-6.1,5.1-12.3,7.2-18.5l2.8,1C1783.3,557.1,1780.9,563.4,1778.2,569.6L1778.2,569.6z M1265.5,545.7
				c-2.1-6.4-3.9-12.9-5.5-19.3l2.9-0.7c1.6,6.4,3.4,12.8,5.5,19.1L1265.5,545.7z M1791.4,531.6l-2.9-0.8c1.7-6.4,3.2-12.9,4.4-19.4
				l2.9,0.6C1794.6,518.6,1793.1,525.2,1791.4,531.6L1791.4,531.6z M1255.9,506.7c-1.1-6.6-2-13.3-2.6-19.9l3-0.3
				c0.6,6.6,1.5,13.2,2.6,19.7L1255.9,506.7z M1798.9,492.1l-3-0.3c0.7-6.5,1.3-13.2,1.5-19.8l3,0.1
				C1800.2,478.8,1799.6,485.5,1798.9,492.1L1798.9,492.1z M1252.2,466.7c0-2-0.1-4-0.1-6c0-4.7,0.1-9.4,0.4-14.1l3,0.2
				c-0.2,4.6-0.4,9.3-0.4,13.9c0,2,0,4,0.1,5.9L1252.2,466.7z M1797.5,452.1c-0.2-6.6-0.7-13.3-1.3-19.8l3-0.3
				c0.7,6.6,1.1,13.4,1.4,20L1797.5,452.1z M1257.2,427l-3-0.4c0.8-6.6,1.9-13.3,3.2-19.8l2.9,0.6
				C1259.1,413.8,1258,420.4,1257.2,427z M1793.4,412.6c-1.2-6.5-2.6-13-4.2-19.4l2.9-0.7c1.7,6.5,3.1,13.1,4.3,19.6L1793.4,412.6z
				 M1265,388l-2.9-0.8c1.8-6.4,3.8-12.9,6.1-19.2l2.8,1C1268.8,375.3,1266.7,381.6,1265,388z M1783.6,374.1
				c-2.1-6.2-4.5-12.5-7-18.6l2.8-1.2c2.6,6.1,5,12.5,7.1,18.8L1783.6,374.1z M1278.4,350.6l-2.7-1.2c2.7-6.1,5.7-12.2,8.8-18.1
				l2.6,1.4C1284,338.5,1281.1,344.6,1278.4,350.6L1278.4,350.6z M1768.2,337.5c-3-5.9-6.3-11.7-9.7-17.4l2.6-1.6
				c3.5,5.7,6.8,11.6,9.8,17.5L1768.2,337.5z M1297.2,315.5l-2.5-1.6c3.6-5.6,7.4-11.2,11.4-16.6l2.4,1.8
				C1304.5,304.5,1300.7,310,1297.2,315.5L1297.2,315.5z M1747.6,303.6c-3.8-5.4-7.9-10.7-12.1-15.8l2.3-1.9
				c4.3,5.1,8.4,10.5,12.2,15.9L1747.6,303.6z M1320.9,283.6l-2.3-2c4.4-5.1,9-10,13.7-14.7l2.1,2.1
				C1329.7,273.7,1325.2,278.6,1320.9,283.6L1320.9,283.6z M1722.2,273c-4.6-4.8-9.4-9.4-14.3-13.8l2-2.2c5,4.5,9.8,9.2,14.4,14
				L1722.2,273z M1349,255.5l-2-2.3c5-4.4,10.3-8.6,15.7-12.6l1.8,2.4C1359.2,247,1353.9,251.2,1349,255.5L1349,255.5z
				 M1692.7,246.4c-5.2-4.1-10.6-8-16.1-11.6l1.7-2.5c5.6,3.7,11,7.7,16.3,11.7L1692.7,246.4z M1380.8,231.8l-1.6-2.5
				c5.6-3.6,11.5-7,17.3-10.2l1.4,2.6C1392.1,224.8,1386.4,228.2,1380.8,231.8z M1659.6,224.3c-5.7-3.2-11.7-6.3-17.7-9.1l1.3-2.7
				c6,2.9,12.1,6,17.9,9.2L1659.6,224.3z M1415.8,212.9l-1.2-2.7c6.1-2.7,12.4-5.3,18.6-7.5l1,2.8
				C1428,207.7,1421.8,210.2,1415.8,212.9L1415.8,212.9z M1623.6,207.4c-6.2-2.4-12.5-4.5-18.8-6.4l0.9-2.9c6.4,1.9,12.8,4.1,19,6.5
				L1623.6,207.4z M1453.1,199.4l-0.8-2.9c6.4-1.8,13-3.4,19.5-4.7l0.6,2.9C1466,196.1,1459.5,197.7,1453.1,199.4L1453.1,199.4z
				 M1585.6,195.9c-6.4-1.4-13-2.6-19.5-3.6l0.4-3c6.6,1,13.3,2.2,19.8,3.6L1585.6,195.9z M1492,191.6l-0.4-3
				c6.6-0.8,13.3-1.4,20-1.8l0.2,3C1505.2,190.2,1498.6,190.8,1492,191.6L1492,191.6z M1546.3,190.2c-6.6-0.5-13.3-0.7-19.9-0.7v-3
				c6.7,0,13.4,0.2,20.1,0.7L1546.3,190.2z"/>
		</g>
		<path class="st4" d="M1526.2,821.3c-200.2,0.2-362.6-161.9-362.8-362.1c-0.2-200.2,161.9-362.6,362.1-362.8
			c200.2-0.2,362.6,161.9,362.8,362.1c0.2,168.7-116.1,315.3-280.5,353.4C1581,818.1,1553.6,821.3,1526.2,821.3z M1526.6,101.2
			c-198.6-0.3-359.8,160.6-360.1,359.2c-0.3,198.6,160.6,359.8,359.2,360.1c124.3,0.2,239.9-63.9,305.7-169.5l0.4,0.3l-0.4-0.3
			c105.1-168.4,53.9-390.1-114.5-495.3C1659.8,120.1,1593.9,101.2,1526.6,101.2z"/>
		<polygon class="st4" points="1618.6,236.7 1561.7,383.9 1557.8,382.6 1601.6,231 		"/>
		<polygon class="st4" points="1767.8,435.9 1692.4,440.6 1692,437.8 1764.9,418.2 		"/>
		<polygon class="st4" points="1584.9,583.2 1637.1,681.1 1620.8,688.6 1579.6,585.6 		"/>
		<polygon class="st4" points="1372.3,558.8 1324.7,589.6 1317.1,573.2 1371.4,556.8 		"/>
		<path class="st4" d="M1544.3,707.8l-0.8-12c56.8-3.8,110.2-28.1,150.4-68.3l8.5,8.5C1660.1,678.3,1603.9,703.8,1544.3,707.8z"/>
		<path class="st4" d="M1772,498.3l-11.9-1.8c6.1-40.7,1.5-82.3-13.4-120.7l11.2-4.4C1773.6,411.8,1778.5,455.6,1772,498.3z"/>
		<path class="st4" d="M1666.7,271.7c-27.9-20.6-60.1-34.6-94.1-41.1l2.3-11.8c35.8,6.9,69.6,21.6,98.9,43.3L1666.7,271.7z"/>
		<path class="st4" d="M1353,636c-31.1-31.1-53.3-69.9-64.4-112.4l11.6-3c10.5,40.5,31.7,77.4,61.3,107L1353,636z"/>
		<polygon class="st4" points="1398.9,358.3 1337.2,316.2 1348.9,302.5 1400.3,356.6 		"/>
		<path class="st4" d="M1396.9,377.4c-5.8-7.3-4.5-18,2.8-23.7c5.6-4.4,13.3-4.8,19.3-1.1l-2.2,3.6c-6-3.7-13.8-1.8-17.5,4.2
			c-2.8,4.5-2.5,10.3,0.8,14.5L1396.9,377.4z"/>
		<path class="st4" d="M1570.8,401l-4.1-0.7c1.2-6.9-3.4-13.5-10.3-14.8c-5.2-0.9-10.5,1.5-13.2,6.1l-3.6-2.1
			c4.7-8.1,15.1-10.8,23.1-6.1C1568.8,387,1572.1,394,1570.8,401L1570.8,401z"/>
		<path class="st4" d="M1683.2,456l-1.6-3.9c6.5-2.7,9.5-10.2,6.8-16.7c-2.1-4.9-7-8-12.3-7.8l-0.2-4.2c9.3-0.4,17.2,6.8,17.7,16.1
			C1693.8,446.7,1689.7,453.3,1683.2,456L1683.2,456z"/>
		<path class="st4" d="M1575.8,586.5c-5.9,0-11.4-3.1-14.4-8.1l3.6-2.2c3.6,6,11.5,7.9,17.5,4.3c4.6-2.8,6.9-8.1,5.9-13.3l4.1-0.8
			c1.8,9.2-4.2,18.1-13.4,19.8C1577.9,586.4,1576.9,586.5,1575.8,586.5L1575.8,586.5z"/>
		<path class="st4" d="M1383.9,568.9c-9.3,0-16.9-7.6-16.9-16.9c0-5.6,2.8-10.9,7.5-14l2.3,3.5c-5.8,3.9-7.4,11.8-3.5,17.6
			c3,4.4,8.4,6.5,13.6,5.3l1,4.1C1386.6,568.7,1385.3,568.9,1383.9,568.9z"/>
		<path class="st4" d="M1313.9,363.5l-10.9-5c18.3-40,46.9-74.4,82.9-99.6l6.9,9.8C1358.5,292.7,1331.3,325.4,1313.9,363.5z"/>
		<path class="st4" d="M1456.3,769.2l-8-0.2l0.1-3l8,0.2L1456.3,769.2z M1436.3,768.7l-8-0.2l0.1-3l8,0.2L1436.3,768.7z
			 M1416.4,768.2l-8-0.2l0.1-3l8,0.2L1416.4,768.2z M1396.4,767.8l-8-0.2l0.1-3l8,0.2L1396.4,767.8z M1376.4,767.3l-8-0.2l0.1-3
			l8,0.2L1376.4,767.3z M1356.4,766.9l-8-0.2l0.1-3l8,0.2L1356.4,766.9z M1336.4,766.4l-8-0.2l0.1-3l8,0.2L1336.4,766.4z
			 M1316.4,765.9l-8-0.2l0.1-3l8,0.2L1316.4,765.9z M1296.4,765.5l-8-0.2l0.1-3l8,0.2L1296.4,765.5z M1276.4,765l-8-0.2l0.1-3l8,0.2
			L1276.4,765z M1256.4,764.5l-8-0.2l0.1-3l8,0.2L1256.4,764.5z M1236.4,764.1l-8-0.2l0.1-3l8,0.2L1236.4,764.1z M1216.4,763.6
			l-8-0.2l0.1-3l8,0.2L1216.4,763.6z M1196.4,763.2l-8-0.2l0.1-3l8,0.2L1196.4,763.2z M1176.4,762.7l-8-0.2l0.1-3l8,0.2
			L1176.4,762.7z M1156.4,762.2l-8-0.2l0.1-3l8,0.2L1156.4,762.2z M1136.4,761.8l-8-0.2l0.1-3l8,0.2L1136.4,761.8z M1116.4,761.3
			l-8-0.2l0.1-3l8,0.2L1116.4,761.3z M1096.4,760.9l-8-0.2l0.1-3l8,0.2L1096.4,760.9z M1076.4,760.4l-8-0.2l0.1-3l8,0.2
			L1076.4,760.4z M1056.4,759.9l-8-0.2l0.1-3l8,0.2L1056.4,759.9z M1036.4,759.5l-8-0.2l0.1-3l8,0.2L1036.4,759.5z M1016.5,759
			l-8-0.2l0.1-3l8,0.2L1016.5,759z M996.5,758.5l-8-0.2l0.1-3l8,0.2L996.5,758.5z M976.5,758.1l-8-0.2l0.1-3l8,0.2L976.5,758.1z
			 M956.5,757.6l-8-0.2l0.1-3l8,0.2L956.5,757.6z M936.5,757.2l-8-0.2l0.1-3l8,0.2L936.5,757.2z M916.5,756.7l-8-0.2l0.1-3l8,0.2
			L916.5,756.7z M896.5,756.2l-8-0.2l0.1-3l8,0.2L896.5,756.2z M876.5,755.8l-8-0.2l0.1-3l8,0.2L876.5,755.8z M856.5,755.3l-8-0.2
			l0.1-3l8,0.2L856.5,755.3z M836.5,754.8l-8-0.2l0.1-3l8,0.2L836.5,754.8z M816.5,754.4l-8-0.2l0.1-3l8,0.2L816.5,754.4z
			 M796.5,753.9l-8-0.2l0.1-3l8,0.2L796.5,753.9z M776.5,753.5l-8-0.2l0.1-3l8,0.2L776.5,753.5z M756.5,753l-8-0.2l0.1-3l8,0.2
			L756.5,753z M736.5,752.5l-8-0.2l0.1-3l8,0.2L736.5,752.5z M716.5,752.1l-8-0.2l0.1-3l8,0.2L716.5,752.1z M696.5,751.6l-8-0.2
			l0.1-3l8,0.2L696.5,751.6z M676.5,751.1l-8-0.2l0.1-3l8,0.2L676.5,751.1z"/>
		<path class="st4" d="M663.1,709.8l-1.8-2.4l6.5-4.7l1.8,2.4L663.1,709.8z M679.3,698l-1.8-2.4l6.5-4.7l1.8,2.4L679.3,698z
			 M695.4,686.2l-1.8-2.4l6.5-4.7l1.8,2.4L695.4,686.2z M711.6,674.5l-1.8-2.4l6.5-4.7l1.8,2.4L711.6,674.5z M727.8,662.7l-1.8-2.4
			l6.5-4.7l1.8,2.4L727.8,662.7z M743.9,650.9l-1.8-2.4l6.5-4.7l1.8,2.4L743.9,650.9z M760.1,639.1l-1.8-2.4l6.5-4.7l1.8,2.4
			L760.1,639.1z M776.2,627.3l-1.8-2.4l6.5-4.7l1.8,2.4L776.2,627.3z M792.4,615.6l-1.8-2.4l6.5-4.7l1.8,2.4L792.4,615.6z
			 M808.6,603.8l-1.8-2.4l6.5-4.7l1.8,2.4L808.6,603.8z M824.7,592l-1.8-2.4l6.5-4.7l1.8,2.4L824.7,592z M840.9,580.2l-1.8-2.4
			l6.5-4.7l1.8,2.4L840.9,580.2z M857,568.4l-1.8-2.4l6.5-4.7l1.8,2.4L857,568.4z M873.2,556.7l-1.8-2.4l6.5-4.7l1.8,2.4
			L873.2,556.7z M889.4,544.9l-1.8-2.4l6.5-4.7l1.8,2.4L889.4,544.9z M905.5,533.1l-1.8-2.4l6.5-4.7l1.8,2.4L905.5,533.1z
			 M921.7,521.3l-1.8-2.4l6.5-4.7l1.8,2.4L921.7,521.3z M937.9,509.5l-1.8-2.4l6.5-4.7l1.8,2.4L937.9,509.5z M954,497.8l-1.8-2.4
			l6.5-4.7l1.8,2.4L954,497.8z M970.2,486l-1.8-2.4l6.5-4.7l1.8,2.4L970.2,486z M986.3,474.2l-1.8-2.4l6.5-4.7l1.8,2.4L986.3,474.2z
			 M1002.5,462.4l-1.8-2.4l6.5-4.7l1.8,2.4L1002.5,462.4z M1018.7,450.6l-1.8-2.4l6.5-4.7l1.8,2.4L1018.7,450.6z M1034.8,438.9
			l-1.8-2.4l6.5-4.7l1.8,2.4L1034.8,438.9z M1051,427.1l-1.8-2.4l6.5-4.7l1.8,2.4L1051,427.1z M1067.2,415.3l-1.8-2.4l6.5-4.7
			l1.8,2.4L1067.2,415.3z M1083.3,403.5l-1.8-2.4l6.5-4.7l1.8,2.4L1083.3,403.5z M1099.5,391.7l-1.8-2.4l6.5-4.7l1.8,2.4
			L1099.5,391.7z M1115.6,380l-1.8-2.4l6.5-4.7l1.8,2.4L1115.6,380z M1131.8,368.2l-1.8-2.4l6.5-4.7l1.8,2.4L1131.8,368.2z
			 M1148,356.4l-1.8-2.4l6.5-4.7l1.8,2.4L1148,356.4z M1164.1,344.6l-1.8-2.4l6.5-4.7l1.8,2.4L1164.1,344.6z M1180.3,332.8l-1.8-2.4
			l6.5-4.7l1.8,2.4L1180.3,332.8z M1196.5,321.1l-1.8-2.4l6.5-4.7l1.8,2.4L1196.5,321.1z M1212.6,309.3l-1.8-2.4l6.5-4.7l1.8,2.4
			L1212.6,309.3z M1228.8,297.5l-1.8-2.4l6.5-4.7l1.8,2.4L1228.8,297.5z M1245,285.7l-1.8-2.4l6.5-4.7l1.8,2.4L1245,285.7z
			 M1261.1,273.9l-1.8-2.4l6.5-4.7l1.8,2.4L1261.1,273.9z M1277.3,262.2l-1.8-2.4l6.5-4.7l1.8,2.4L1277.3,262.2z M1293.4,250.4
			l-1.8-2.4l6.5-4.7l1.8,2.4L1293.4,250.4z"/>
		<circle class="st6" cx="629.5" cy="738.5" r="12.2"/>
		<path class="st6" d="M630.6,775.6l-0.1-3c1.6,0,3.2-0.2,4.8-0.5l0.5,3C634.1,775.4,632.3,775.6,630.6,775.6z M625.4,775.4
			c-1.7-0.2-3.4-0.5-5.1-0.9l0.7-2.9c1.5,0.4,3.1,0.7,4.7,0.9L625.4,775.4z M640.8,773.9l-0.9-2.9c1.5-0.5,3-1.1,4.4-1.8l1.3,2.7
			C644.1,772.7,642.5,773.4,640.8,773.9L640.8,773.9z M615.3,772.8c-1.6-0.7-3.2-1.4-4.7-2.3l1.5-2.6c1.4,0.8,2.8,1.5,4.3,2.1
			L615.3,772.8z M650.2,769.4l-1.7-2.5c1.3-0.9,2.6-1.9,3.8-2.9l2,2.2C653,767.3,651.6,768.4,650.2,769.4L650.2,769.4z M606.4,767.5
			c-1.4-1.1-2.6-2.3-3.8-3.5l2.2-2.1c1.1,1.2,2.3,2.2,3.5,3.2L606.4,767.5z M657.9,762.4l-2.3-1.9c1-1.2,2-2.5,2.8-3.9l2.5,1.6
			C660.1,759.7,659,761.1,657.9,762.4L657.9,762.4z M599.2,760c-1-1.4-1.9-2.9-2.7-4.4l2.7-1.4c0.7,1.4,1.6,2.8,2.5,4.1L599.2,760z
			 M663.4,753.7l-2.7-1.2c0.7-1.5,1.2-3,1.6-4.5l2.9,0.8C664.7,750.4,664.2,752.1,663.4,753.7L663.4,753.7z M594.5,750.8
			c-0.6-1.6-1-3.3-1.4-5l2.9-0.6c0.3,1.6,0.7,3.1,1.3,4.6L594.5,750.8z M666.3,743.7l-3-0.4c0.4-2.9,0.4-5.8,0.1-8.6l3-0.3
			C666.8,737.4,666.7,740.6,666.3,743.7z M592.4,740.6c0-0.7-0.1-1.4-0.1-2.1c0-1,0-2.1,0.1-3.1l3,0.2c-0.1,0.9-0.1,1.9-0.1,2.8
			c0,0.6,0,1.3,0.1,1.9L592.4,740.6z M596.2,730.9l-2.9-0.7c0.4-1.7,0.9-3.4,1.5-5l2.8,1.1C597,727.8,596.6,729.3,596.2,730.9
			L596.2,730.9z M662.6,729.9c-0.4-1.5-0.9-3.1-1.5-4.5l2.8-1.2c0.7,1.6,1.2,3.3,1.7,4.9L662.6,729.9z M599.6,722l-2.6-1.5
			c0.8-1.5,1.8-3,2.8-4.4l2.4,1.8C601.3,719.2,600.4,720.6,599.6,722L599.6,722z M658.9,721.1c-0.8-1.4-1.7-2.7-2.7-3.9l2.3-1.9
			c1.1,1.4,2.1,2.8,3,4.3L658.9,721.1z M605.4,714.4l-2.1-2.1c1.2-1.2,2.5-2.4,3.9-3.4l1.8,2.4C607.7,712.2,606.5,713.2,605.4,714.4
			L605.4,714.4z M653,713.6c-1.2-1.1-2.4-2.1-3.7-3l1.7-2.4c1.4,1,2.8,2.1,4,3.3L653,713.6z M613,708.6l-1.5-2.6
			c1.5-0.8,3.1-1.6,4.7-2.2l1.1,2.8C615.8,707.1,614.4,707.8,613,708.6z M645.2,708.1c-1.4-0.7-2.9-1.4-4.4-1.9l1-2.8
			c1.6,0.6,3.2,1.3,4.8,2.1L645.2,708.1z M621.9,705.2l-0.7-2.9c1.7-0.4,3.4-0.7,5.1-0.8l0.3,3C625,704.6,623.5,704.8,621.9,705.2z
			 M636.2,705c-1.6-0.3-3.2-0.5-4.7-0.6l0.2-3c1.7,0.1,3.5,0.3,5.2,0.6L636.2,705z"/>
		<circle class="st6" cx="1536.3" cy="420.3" r="15.1"/>
		<circle class="st6" cx="1536.3" cy="518.9" r="15.1"/>
		<circle class="st6" cx="1626.3" cy="420.3" r="15.1"/>
		<circle class="st6" cx="1626.3" cy="518.9" r="15.1"/>
		<circle class="st6" cx="1426.4" cy="558.6" r="15.1"/>
		<circle class="st6" cx="1426.4" cy="469.6" r="15.1"/>
		<circle class="st6" cx="1426.4" cy="380.6" r="15.1"/>
		<polygon class="st6" points="1439,560.9 1520.3,419.8 1522,420.8 1444,556.2 1520.7,518 1521.6,519.8 		"/>
		<polygon class="st6" points="1611.3,519.9 1549.6,519.9 1610.4,419.8 1612.1,420.8 1553.1,517.9 1611.3,517.9 		"/>
		<path class="st6" d="M1524,521.8l-84.4-52.2l38.3-23.7l-39-67.6l84.2,42l-42.6,26.3L1524,521.8z M1443.4,469.6l74.9,46.3
			l-39.4-68.3L1443.4,469.6z M1444,383l35.6,61.8l39.5-24.4L1444,383z"/>
		<polygon class="st6" points="1610.4,519.4 1549.6,419.3 1611.3,419.3 1611.3,421.3 1553.1,421.3 1612.1,518.4 		"/>
		<rect x="1489.1" y="818.9" class="st6" width="2" height="261.1"/>
		<rect x="1550.6" y="819.8" class="st6" width="2" height="260.2"/>
		<rect x="1612.2" y="810.1" class="st6" width="2" height="269.9"/>
		<rect x="1489.1" class="st6" width="2" height="102.6"/>
		<rect x="1550.6" class="st6" width="2" height="101.6"/>
		<rect x="1612.2" class="st6" width="2" height="111.3"/>
		<rect x="465" y="-1.7" class="st6" width="2" height="86.6"/>
		<rect x="1613.2" y="949.1" class="st6" width="310.1" height="2"/>
		<rect x="466" y="67.4" class="st6" width="1024.1" height="2"/>
		<rect x="1204" y="68.4" class="st6" width="12.4" height="8.8"/>
		<rect x="1180.5" y="68.4" class="st6" width="12.4" height="8.8"/>
		<rect x="1157" y="68.4" class="st6" width="12.4" height="8.8"/>
		<rect x="1133.5" y="68.4" class="st6" width="12.4" height="8.8"/>
		<rect x="1110" y="68.4" class="st6" width="12.4" height="8.8"/>
		<rect x="1886.3" y="469.7" class="st6" width="33.7" height="2"/>
		<rect x="1481.3" y="1008.1" class="st6" width="8.8" height="12.4"/>
		<rect x="1481.3" y="984.6" class="st6" width="8.8" height="12.4"/>
		<rect x="1481.3" y="961.1" class="st6" width="8.8" height="12.4"/>
		<rect x="1481.3" y="937.6" class="st6" width="8.8" height="12.4"/>
		<rect x="1481.3" y="914.1" class="st6" width="8.8" height="12.4"/>
		<path class="st4" d="M952.6,1080c61.6-95.3,94.3-206.3,94.1-319.8h-25c0.2,114.2-34.4,225.7-99.2,319.8H952.6z"/>
		<path class="st4" d="M305.2,104.8c362.2-83.7,723.7,142.1,807.4,504.4c19.5,84.3,22.5,171.6,9,257
			c-11.9,74.9-36.4,147.2-72.6,213.8h5.7c168.7-314.6,64.1-706.1-238.9-894.8C558,24.3,224.5,54.6,0,259.5v6.8
			C85.9,186.8,191.2,131.1,305.2,104.8z"/>
	</g>
</g>
</svg>
