<?xml version="1.0" encoding="utf-8"?>
<!-- Generator: Adobe Illustrator 24.2.3, SVG Export Plug-In . SVG Version: 6.00 Build 0)  -->
<svg version="1.1" id="Ebene_1" xmlns="http://www.w3.org/2000/svg" xmlns:xlink="http://www.w3.org/1999/xlink" x="0px" y="0px"
	 viewBox="0 0 1920 1080" style="enable-background:new 0 0 1920 1080;" xml:space="preserve">
<style type="text/css">
	.st0{fill:#EDE8DF;}
	.st1{fill:#A180AC;}
	.st2{fill:#1A9469;}
	.st3{opacity:0.4;fill:url(#SVGID_1_);enable-background:new    ;}
	.st4{fill:#1EBB80;}
	.st5{fill:#FFFFFF;}
	.st6{fill:#1A9169;}
	.st7{fill:#C6B698;}
	.st8{fill:#3A2A78;}
	.st9{opacity:0.2;fill:url(#SVGID_2_);enable-background:new    ;}
	.st10{fill:#A280AD;}
	.st11{opacity:0.4;fill:#1A9869;enable-background:new    ;}
	.st12{fill:#1A9869;}
	.st13{clip-path:url(#SVGID_4_);}
	.st14{fill:#3A2B78;}
	.st15{clip-path:url(#SVGID_6_);}
	.st16{clip-path:url(#SVGID_8_);}
	.st17{clip-path:url(#SVGID_10_);}
	.st18{clip-path:url(#SVGID_12_);}
	.st19{clip-path:url(#SVGID_14_);}
	.st20{clip-path:url(#SVGID_16_);}
	.st21{clip-path:url(#SVGID_18_);}
	.st22{clip-path:url(#SVGID_20_);}
	.st23{fill:#D6D200;}
	.st24{fill:#D5737E;}
	.st25{fill:#E78600;}
	.st26{clip-path:url(#SVGID_22_);}
	.st27{fill:#EEBFB7;}
	.st28{fill:#A380AE;}
	.st29{fill:#1A9369;}
	.st30{fill:#A080AB;}
	.st31{fill:#9B80A6;}
	.st32{fill:#41377C;}
	.st33{fill:#262049;}
	.st34{fill:#352D64;}
	.st35{fill:#6DBBD0;}
</style>
<g>
	<polyline class="st0" points="1920.2,0 0.2,0 0.2,1080 1920.2,1080 1920.2,0 	"/>
</g>
<path class="st1" d="M1227.4,612.4h-222.9V471h222.9V612.4z M1006.6,610.4h218.9V473h-218.9V610.4z"/>
<path class="st1" d="M1018.9,483.9h194.2v115.7h-194.2L1018.9,483.9z"/>
<path class="st2" d="M1187.6,419.3H641.2V87.5h546.4L1187.6,419.3L1187.6,419.3z M643.2,417.3h542.4V89.5H643.2V417.3z"/>
<path class="st2" d="M1714.5,600.5L1244.2,419V87.4l1.1,0.1l473.9,31.8l-0.1,2l-472.8-31.7v328.1l469,181L1714.5,600.5z"/>
<path class="st2" d="M117.5,600.5l-0.7-1.9l469-181V89.5H117.1v-2h470.7V419l-0.6,0.2L117.5,600.5z"/>
<path class="st2" d="M591.9,535.1h201.6v125.7H591.9V535.1z"/>
<linearGradient id="SVGID_1_" gradientUnits="userSpaceOnUse" x1="745.1148" y1="572.8352" x2="640.2852" y2="391.2648" gradientTransform="matrix(1 0 0 -1 0 1080)">
	<stop  offset="7.418342e-02" style="stop-color:#1A9469"/>
	<stop  offset="1" style="stop-color:#000000"/>
</linearGradient>
<path class="st3" d="M591.9,535.1h201.6v125.7H591.9V535.1z"/>
<path class="st4" d="M793.5,648.1H605.9v-113h1v112h186.5L793.5,648.1L793.5,648.1z"/>
<path class="st5" d="M623.6,583.3h3.7v3.7h-3.7V583.3z"/>
<path class="st5" d="M629.8,599.2h3.7v3.7h-3.7V599.2z"/>
<path class="st4" d="M640,599h3.7v3.7H640V599z"/>
<path class="st4" d="M658.5,610.5h3.7v3.7h-3.7V610.5z"/>
<path class="st5" d="M672.4,625.9h3.7v3.7h-3.7V625.9z"/>
<path class="st5" d="M615.9,549.2h3.7v3.7h-3.7V549.2z"/>
<path class="st5" d="M619.6,566.2h3.7v3.7h-3.7V566.2z"/>
<path class="st4" d="M634.6,587.4h3.7v3.7h-3.7V587.4z"/>
<path class="st4" d="M626.2,574.7h3.7v3.7h-3.7V574.7z"/>
<path class="st4" d="M634.4,574.8h3.7v3.7h-3.7V574.8z"/>
<path class="st4" d="M650,601.1h3.7v3.7H650V601.1z"/>
<path class="st5" d="M691.9,629.1h3.7v3.7h-3.7V629.1z"/>
<path class="st4" d="M683.9,616.1h3.7v3.7h-3.7V616.1z"/>
<path class="st5" d="M717.5,634h3.7v3.7h-3.7V634z"/>
<path class="st5" d="M744.4,637.7h3.7v3.7h-3.7V637.7z"/>
<path class="st4" d="M714.9,622.3h3.7v3.7h-3.7V622.3z"/>
<path class="st4" d="M734.3,623.4h3.7v3.7h-3.7V623.4z"/>
<path class="st4" d="M695.5,596.2h3.7v3.7h-3.7V596.2z"/>
<path class="st4" d="M713.9,609.7h3.7v3.7h-3.7V609.7z"/>
<path class="st4" d="M735.4,607.9h3.7v3.7h-3.7V607.9z"/>
<path class="st4" d="M695,579.4h3.7v3.7H695V579.4z"/>
<path class="st4" d="M705.1,622.3h3.7v3.7h-3.7V622.3z"/>
<path class="st5" d="M706.1,631.8h3.7v3.7h-3.7V631.8z"/>
<path class="st4" d="M699.4,626.4h3.7v3.7h-3.7V626.4z"/>
<path class="st4" d="M681.6,610.4h3.7v3.7h-3.7V610.4z"/>
<path class="st4" d="M712.2,627.2h3.7v3.7h-3.7V627.2z"/>
<path class="st4" d="M721.1,623.9h3.7v3.7h-3.7V623.9z"/>
<path class="st4" d="M727.8,626.2h3.7v3.7h-3.7V626.2z"/>
<path class="st4" d="M737.9,630h3.7v3.7h-3.7V630z"/>
<path class="st4" d="M753,633.7h3.7v3.7H753V633.7z"/>
<path class="st4" d="M742.5,618.4h3.7v3.7h-3.7V618.4z"/>
<path class="st4" d="M750,626.9h3.7v3.7H750V626.9z"/>
<path class="st4" d="M689.9,615h3.7v3.7h-3.7V615z"/>
<path class="st4" d="M719.2,603.1h3.7v3.7h-3.7V603.1z"/>
<path class="st5" d="M730.6,635.8h3.7v3.7h-3.7V635.8z"/>
<path class="st5" d="M758.9,638.9h3.7v3.7h-3.7V638.9z"/>
<g>
	<path class="st4" d="M667.2,608.9h3.7v3.7h-3.7V608.9z"/>
	<path class="st4" d="M674.8,617.9h3.7v3.7h-3.7V617.9z"/>
	<path class="st4" d="M675.6,608.6h3.7v3.7h-3.7V608.6z"/>
	<path class="st4" d="M659.7,603.6h3.7v3.7h-3.7V603.6z"/>
	<path class="st4" d="M651.8,593.3h3.7v3.7h-3.7V593.3z"/>
	<path class="st4" d="M667.3,603.3h3.7v3.7h-3.7V603.3z"/>
	<path class="st4" d="M650.9,608.5h3.7v3.7h-3.7V608.5z"/>
	<path class="st4" d="M658.6,616.3h3.7v3.7h-3.7V616.3z"/>
	<path class="st4" d="M684.5,625.2h3.7v3.7h-3.7V625.2z"/>
	<path class="st4" d="M692.4,621.3h3.7v3.7h-3.7V621.3z"/>
	<path class="st4" d="M696.6,612h3.7v3.7h-3.7V612z"/>
	<path class="st4" d="M664.5,596.7h3.7v3.7h-3.7V596.7z"/>
	<path class="st4" d="M643.9,591.5h3.7v3.7h-3.7V591.5z"/>
	<path class="st4" d="M642.9,582.1h3.7v3.7h-3.7V582.1z"/>
	<path class="st4" d="M657.8,587.3h3.7v3.7h-3.7V587.3z"/>
	<path class="st4" d="M624.6,557h3.7v3.7h-3.7V557z"/>
	<path class="st4" d="M631.5,563.5h3.7v3.7h-3.7V563.5z"/>
	<path class="st4" d="M667.3,616.5h3.7v3.7h-3.7V616.5z"/>
	<path class="st4" d="M653.9,575.3h3.7v3.7h-3.7V575.3z"/>
	<path class="st4" d="M677.3,588.8h3.7v3.7h-3.7V588.8z"/>
	<path class="st4" d="M642.3,647.6c0-0.4,0.3-0.8,0.8-0.8l0,0c0.4,0,0.8,0.3,0.8,0.8l0,0c0,0.4-0.3,0.8-0.8,0.8l0,0
		C642.7,648.4,642.3,648.1,642.3,647.6L642.3,647.6z M642.3,644.6c0-0.4,0.3-0.8,0.8-0.8l0,0c0.4,0,0.8,0.3,0.8,0.8l0,0
		c0,0.4-0.3,0.8-0.8,0.8l0,0C642.7,645.3,642.3,645,642.3,644.6L642.3,644.6z M642.3,641.5c0-0.4,0.3-0.8,0.8-0.8l0,0
		c0.4,0,0.8,0.3,0.8,0.8l0,0c0,0.4-0.3,0.8-0.8,0.8l0,0C642.7,642.3,642.3,641.9,642.3,641.5L642.3,641.5z M642.3,638.4
		c0-0.4,0.3-0.8,0.8-0.8l0,0c0.4,0,0.8,0.3,0.8,0.8l0,0c0,0.4-0.3,0.8-0.8,0.8l0,0C642.7,639.2,642.3,638.8,642.3,638.4L642.3,638.4
		z M642.3,635.4c0-0.4,0.3-0.8,0.8-0.8l0,0c0.4,0,0.8,0.3,0.8,0.8l0,0c0,0.4-0.3,0.8-0.8,0.8l0,0
		C642.7,636.1,642.3,635.8,642.3,635.4L642.3,635.4z M642.3,632.3c0-0.4,0.3-0.8,0.8-0.8l0,0c0.4,0,0.8,0.3,0.8,0.8l0,0
		c0,0.4-0.3,0.8-0.8,0.8l0,0C642.7,633.1,642.3,632.7,642.3,632.3L642.3,632.3z M642.3,629.2c0-0.4,0.3-0.8,0.8-0.8l0,0
		c0.4,0,0.8,0.3,0.8,0.8l0,0c0,0.4-0.3,0.8-0.8,0.8l0,0C642.7,630,642.3,629.6,642.3,629.2L642.3,629.2z M642.3,626.1
		c0-0.4,0.3-0.8,0.8-0.8l0,0c0.4,0,0.8,0.3,0.8,0.8l0,0c0,0.4-0.3,0.8-0.8,0.8l0,0C642.7,626.9,642.3,626.6,642.3,626.1L642.3,626.1
		z M642.3,623.1c0-0.4,0.3-0.8,0.8-0.8l0,0c0.4,0,0.8,0.3,0.8,0.8l0,0c0,0.4-0.3,0.8-0.8,0.8l0,0
		C642.7,623.8,642.3,623.5,642.3,623.1L642.3,623.1z M642.3,620c0-0.4,0.3-0.8,0.8-0.8l0,0c0.4,0,0.8,0.3,0.8,0.8l0,0
		c0,0.4-0.3,0.8-0.8,0.8l0,0C642.7,620.8,642.3,620.4,642.3,620L642.3,620z M642.3,616.9c0-0.4,0.3-0.8,0.8-0.8l0,0
		c0.4,0,0.8,0.3,0.8,0.8l0,0c0,0.4-0.3,0.8-0.8,0.8l0,0C642.7,617.7,642.3,617.4,642.3,616.9L642.3,616.9z M642.3,613.9
		c0-0.4,0.3-0.8,0.8-0.8l0,0c0.4,0,0.8,0.3,0.8,0.8l0,0c0,0.4-0.3,0.8-0.8,0.8l0,0C642.7,614.6,642.3,614.3,642.3,613.9L642.3,613.9
		z M642,611.1c0-0.4,0.3-0.8,0.8-0.8l0,0c0.4,0,0.8,0.3,0.8,0.8l0,0c0,0.4-0.3,0.8-0.8,0.8l0,0C642.3,611.9,642,611.6,642,611.1
		L642,611.1z M642.2,611.1c0-0.4,0.3-0.8,0.8-0.8l0,0c0.4,0,0.8,0.3,0.8,0.8l0,0c0,0.4-0.3,0.8-0.8,0.8l0,0
		C642.5,611.9,642.2,611.6,642.2,611.1L642.2,611.1z M639.1,611.1c0-0.4,0.3-0.8,0.8-0.8l0,0c0.4,0,0.8,0.3,0.8,0.8l0,0
		c0,0.4-0.3,0.8-0.8,0.8l0,0C639.4,611.9,639.1,611.6,639.1,611.1L639.1,611.1z M636,611.1c0-0.4,0.3-0.8,0.8-0.8l0,0
		c0.4,0,0.8,0.3,0.8,0.8l0,0c0,0.4-0.3,0.8-0.8,0.8l0,0C636.4,611.9,636,611.6,636,611.1L636,611.1z M633,611.1
		c0-0.4,0.3-0.8,0.8-0.8l0,0c0.4,0,0.8,0.3,0.8,0.8l0,0c0,0.4-0.3,0.8-0.8,0.8l0,0C633.3,611.9,633,611.6,633,611.1L633,611.1z
		 M629.9,611.1c0-0.4,0.3-0.8,0.8-0.8l0,0c0.4,0,0.8,0.3,0.8,0.8l0,0c0,0.4-0.3,0.8-0.8,0.8l0,0
		C630.2,611.9,629.9,611.6,629.9,611.1L629.9,611.1z M626.8,611.1c0-0.4,0.3-0.8,0.8-0.8l0,0c0.4,0,0.8,0.3,0.8,0.8l0,0
		c0,0.4-0.3,0.8-0.8,0.8l0,0C627.2,611.9,626.8,611.6,626.8,611.1L626.8,611.1z M623.8,611.1c0-0.4,0.3-0.8,0.8-0.8l0,0
		c0.4,0,0.8,0.3,0.8,0.8l0,0c0,0.4-0.3,0.8-0.8,0.8l0,0C624.1,611.9,623.8,611.6,623.8,611.1L623.8,611.1z M620.7,611.1
		c0-0.4,0.3-0.8,0.8-0.8l0,0c0.4,0,0.8,0.3,0.8,0.8l0,0c0,0.4-0.3,0.8-0.8,0.8l0,0C621,611.9,620.7,611.6,620.7,611.1L620.7,611.1z
		 M617.6,611.1c0-0.4,0.3-0.8,0.8-0.8l0,0c0.4,0,0.8,0.3,0.8,0.8l0,0c0,0.4-0.3,0.8-0.8,0.8l0,0C618,611.9,617.6,611.6,617.6,611.1
		L617.6,611.1z M614.5,611.1c0-0.4,0.3-0.8,0.8-0.8l0,0c0.4,0,0.8,0.3,0.8,0.8l0,0c0,0.4-0.3,0.8-0.8,0.8l0,0
		C614.9,611.9,614.6,611.6,614.5,611.1L614.5,611.1z M611.5,611.1c0-0.4,0.3-0.8,0.8-0.8l0,0c0.4,0,0.8,0.3,0.8,0.8l0,0
		c0,0.4-0.3,0.8-0.8,0.8l0,0C611.8,611.9,611.5,611.6,611.5,611.1L611.5,611.1z M608.4,611.1c0-0.4,0.3-0.8,0.8-0.8l0,0
		c0.4,0,0.8,0.3,0.8,0.8l0,0c0,0.4-0.3,0.8-0.8,0.8l0,0C608.8,611.9,608.4,611.6,608.4,611.1L608.4,611.1z"/>
</g>
<path class="st5" d="M641.1,609.3h3.7v3.7h-3.7V609.3z"/>
<path class="st4" d="M654.9,647.6c0-0.4,0.3-0.8,0.8-0.8l0,0c0.4,0,0.8,0.3,0.8,0.8l0,0c0,0.4-0.3,0.8-0.8,0.8l0,0
	C655.2,648.4,654.9,648.1,654.9,647.6L654.9,647.6z M654.9,644.6c0-0.4,0.3-0.8,0.8-0.8l0,0c0.4,0,0.8,0.3,0.8,0.8l0,0
	c0,0.4-0.3,0.8-0.8,0.8l0,0C655.2,645.3,654.9,645,654.9,644.6L654.9,644.6z M654.9,641.5c0-0.4,0.3-0.8,0.8-0.8l0,0
	c0.4,0,0.8,0.3,0.8,0.8l0,0c0,0.4-0.3,0.8-0.8,0.8l0,0C655.2,642.3,654.9,641.9,654.9,641.5L654.9,641.5z M654.9,638.4
	c0-0.4,0.3-0.8,0.8-0.8l0,0c0.4,0,0.8,0.3,0.8,0.8l0,0c0,0.4-0.3,0.8-0.8,0.8l0,0C655.2,639.2,654.9,638.8,654.9,638.4L654.9,638.4z
	 M654.9,635.4c0-0.4,0.3-0.8,0.8-0.8l0,0c0.4,0,0.8,0.3,0.8,0.8l0,0c0,0.4-0.3,0.8-0.8,0.8l0,0C655.2,636.1,654.9,635.8,654.9,635.4
	L654.9,635.4z M654.9,632.3c0-0.4,0.3-0.8,0.8-0.8l0,0c0.4,0,0.8,0.3,0.8,0.8l0,0c0,0.4-0.3,0.8-0.8,0.8l0,0
	C655.2,633.1,654.9,632.7,654.9,632.3L654.9,632.3z M654.9,629.2c0-0.4,0.3-0.8,0.8-0.8l0,0c0.4,0,0.8,0.3,0.8,0.8l0,0
	c0,0.4-0.3,0.8-0.8,0.8l0,0C655.2,630,654.9,629.6,654.9,629.2L654.9,629.2z M654.9,626.1c0-0.4,0.3-0.8,0.8-0.8l0,0
	c0.4,0,0.8,0.3,0.8,0.8l0,0c0,0.4-0.3,0.8-0.8,0.8l0,0C655.2,626.9,654.9,626.6,654.9,626.1L654.9,626.1z M654.1,623.9
	c0-0.4,0.3-0.8,0.8-0.8l0,0c0.4,0,0.8,0.3,0.8,0.8l0,0c0,0.4-0.3,0.8-0.8,0.8l0,0C654.4,624.7,654.1,624.3,654.1,623.9L654.1,623.9
	L654.1,623.9z M651,623.9c0-0.4,0.3-0.8,0.8-0.8l0,0c0.4,0,0.8,0.3,0.8,0.8l0,0c0,0.4-0.3,0.8-0.8,0.8l0,0
	C651.3,624.7,651,624.3,651,623.9L651,623.9L651,623.9z M647.9,623.9c0-0.4,0.3-0.8,0.8-0.8l0,0c0.4,0,0.8,0.3,0.8,0.8l0,0
	c0,0.4-0.3,0.8-0.8,0.8l0,0C648.3,624.7,647.9,624.3,647.9,623.9L647.9,623.9L647.9,623.9z M644.9,623.9c0-0.4,0.3-0.8,0.8-0.8l0,0
	c0.4,0,0.8,0.3,0.8,0.8l0,0c0,0.4-0.3,0.8-0.8,0.8l0,0C645.2,624.7,644.9,624.3,644.9,623.9L644.9,623.9L644.9,623.9z M641.8,623.9
	c0-0.4,0.3-0.8,0.8-0.8l0,0c0.4,0,0.8,0.3,0.8,0.8l0,0c0,0.4-0.3,0.8-0.8,0.8l0,0C642.1,624.7,641.8,624.3,641.8,623.9L641.8,623.9
	L641.8,623.9z M638.7,623.9c0-0.4,0.3-0.8,0.8-0.8l0,0c0.4,0,0.8,0.3,0.8,0.8l0,0c0,0.4-0.3,0.8-0.8,0.8l0,0
	C639.1,624.7,638.7,624.3,638.7,623.9L638.7,623.9L638.7,623.9z M635.6,623.9c0-0.4,0.3-0.8,0.8-0.8l0,0c0.4,0,0.8,0.3,0.8,0.8l0,0
	c0,0.4-0.3,0.8-0.8,0.8l0,0C636,624.7,635.6,624.3,635.6,623.9L635.6,623.9L635.6,623.9z M632.6,623.9c0-0.4,0.3-0.8,0.8-0.8l0,0
	c0.4,0,0.8,0.3,0.8,0.8l0,0c0,0.4-0.3,0.8-0.8,0.8l0,0C632.9,624.7,632.6,624.3,632.6,623.9L632.6,623.9L632.6,623.9z M629.5,623.9
	c0-0.4,0.3-0.8,0.8-0.8l0,0c0.4,0,0.8,0.3,0.8,0.8l0,0c0,0.4-0.3,0.8-0.8,0.8l0,0C629.9,624.7,629.5,624.3,629.5,623.9L629.5,623.9
	L629.5,623.9z M626.4,623.9c0-0.4,0.3-0.8,0.8-0.8l0,0c0.4,0,0.8,0.3,0.8,0.8l0,0c0,0.4-0.3,0.8-0.8,0.8l0,0
	C626.8,624.7,626.4,624.3,626.4,623.9L626.4,623.9L626.4,623.9z M623.4,623.9c0-0.4,0.3-0.8,0.8-0.8l0,0c0.4,0,0.8,0.3,0.8,0.8l0,0
	c0,0.4-0.3,0.8-0.8,0.8l0,0C623.7,624.7,623.4,624.3,623.4,623.9L623.4,623.9L623.4,623.9z M620.3,623.9c0-0.4,0.3-0.8,0.8-0.8l0,0
	c0.4,0,0.8,0.3,0.8,0.8l0,0c0,0.4-0.3,0.8-0.8,0.8l0,0C620.6,624.7,620.3,624.3,620.3,623.9L620.3,623.9L620.3,623.9z M617.2,623.9
	c0-0.4,0.3-0.8,0.8-0.8l0,0c0.4,0,0.8,0.3,0.8,0.8l0,0c0,0.4-0.3,0.8-0.8,0.8l0,0C617.6,624.7,617.2,624.3,617.2,623.9L617.2,623.9
	L617.2,623.9z M614.2,623.9c0-0.4,0.3-0.8,0.8-0.8l0,0c0.4,0,0.8,0.3,0.8,0.8l0,0c0,0.4-0.3,0.8-0.8,0.8l0,0
	C614.5,624.7,614.2,624.3,614.2,623.9L614.2,623.9L614.2,623.9z M611.1,623.9c0-0.4,0.3-0.8,0.8-0.8l0,0c0.4,0,0.8,0.3,0.8,0.8l0,0
	c0,0.4-0.3,0.8-0.8,0.8l0,0C611.4,624.7,611.1,624.3,611.1,623.9L611.1,623.9L611.1,623.9z M608,623.9c0-0.4,0.3-0.8,0.8-0.8l0,0
	c0.4,0,0.8,0.3,0.8,0.8l0,0c0,0.4-0.3,0.8-0.8,0.8l0,0C608.4,624.7,608,624.3,608,623.9L608,623.9L608,623.9z"/>
<path class="st5" d="M653.8,622.1h3.7v3.7h-3.7V622.1z"/>
<path class="st1" d="M1096.5,472.3h-2v-17.9l-33-35.9l1.5-1.4l33.5,36.4V472.3z"/>
<path class="st1" d="M1108.7,472.3h-2v-18l-31.2-35.9l1.5-1.3l31.6,36.4L1108.7,472.3L1108.7,472.3z"/>
<path class="st1" d="M1120.9,472.3h-2v-18l-30.1-35.9l1.5-1.3l30.6,36.4V472.3z"/>
<path class="st2" d="M707.3,521.4h-2v-28.6l0.3-0.3l72.5-75.4l1.4,1.4l-72.2,75.1V521.4z"/>
<path class="st2" d="M695.1,521.4h-2v-28.6l0.3-0.3l70.6-75.4l1.5,1.4l-70.4,75.1L695.1,521.4L695.1,521.4z"/>
<path class="st2" d="M682.8,521.4h-2v-28.6l69.8-75.7l1.5,1.4l-69.3,75.1V521.4z"/>
<path class="st2" d="M586.8,229.5h55.3v2h-55.3V229.5z"/>
<path class="st2" d="M586.8,246.4h55.3v2h-55.3V246.4z"/>
<path class="st2" d="M586.8,263.3h55.3v2h-55.3V263.3z"/>
<path class="st2" d="M586.8,280.2h55.3v2h-55.3V280.2z"/>
<path class="st2" d="M1186.6,229.5h58.6v2h-58.6V229.5z"/>
<path class="st2" d="M1186.6,246.4h58.6v2h-58.6V246.4z"/>
<path class="st2" d="M1186.6,263.3h58.6v2h-58.6V263.3z"/>
<path class="st2" d="M1186.6,280.2h58.6v2h-58.6V280.2z"/>
<path class="st2" d="M1422.5,333.3l-98.6-26v-41.4l98.6,26V333.3z M1325.9,305.8l94.6,24.9v-37.3l-94.6-24.9V305.8z"/>
<path class="st6" d="M1423,233.6l-13-2.2l0.3-2l10.6,1.8l-0.2-8.7h2L1423,233.6z M1398.1,229.4l-11.8-2l0.3-2l11.8,2L1398.1,229.4z
	 M1374.4,225.5l-11.8-2l0.3-2l11.8,2L1374.4,225.5z M1350.8,221.5l-11.8-2l0.3-2l11.8,2L1350.8,221.5z M1327.1,217.5l-3.4-0.6v-10.2
	h2v8.6l1.7,0.3L1327.1,217.5z M1420.5,210.5l-0.3-12h2l0.3,12H1420.5z M1323.6,194.7l-0.1-12h2l0.1,12H1323.6z M1414.6,192.9
	l-11.9-1.8l0.3-2l11.9,1.8L1414.6,192.9z M1390.9,189.2l-11.9-1.8l0.3-2l11.9,1.8L1390.9,189.2z M1367.1,185.5l-11.9-1.8l0.3-2
	l11.9,1.8L1367.1,185.5z M1343.4,181.9l-11.9-1.8l0.3-2l11.9,1.8L1343.4,181.9z"/>
<path class="st2" d="M1581.1,374.1l-96.6-25.5v-39.4l96.6,25.5V374.1z"/>
<path class="st1" d="M1582.5,258.3L1484,243l-0.9-41.6l98.5,15.3L1582.5,258.3z M1485.9,241.3l94.5,14.7l-0.8-37.5l-94.5-14.7
	L1485.9,241.3z"/>
<path class="st2" d="M1741.7,417.5l-98.6-26v-41.4l98.6,26V417.5z M1645.1,389.9l94.6,24.9v-37.3l-94.6-24.9V389.9z"/>
<path class="st2" d="M1372.2,223.9h2v56h-2V223.9z"/>
<path class="st2" d="M1531.8,249.7h2V322h-2V249.7z"/>
<path class="st2" d="M1421.2,313.3l0.5-1.9l63,16.6l-0.5,1.9L1421.2,313.3z"/>
<path class="st2" d="M1580.9,355.4l0.5-1.9l63,16.6l-0.5,1.9L1580.9,355.4z"/>
<path class="st7" d="M888,552c0,0-5.7,5.1-7.5,9.7l-4.6,11.9l8.7,2.7l5.3-20.7L888,552z"/>
<circle class="st8" cx="1146.3" cy="249" r="25.1"/>
<path class="st8" d="M794.7,121.1h250.1v250.1H794.7V121.1z"/>
<radialGradient id="SVGID_2_" cx="919.75" cy="833.85" r="125.05" gradientTransform="matrix(1 0 0 -1 0 1080)" gradientUnits="userSpaceOnUse">
	<stop  offset="0.6092" style="stop-color:#3A2A78"/>
	<stop  offset="1" style="stop-color:#000000"/>
</radialGradient>
<path class="st9" d="M794.7,121.1h250.1v250.1H794.7V121.1z"/>
<path class="st10" d="M850.2,121.1h1.7v78.2h-1.7V121.1z"/>
<path class="st11" d="M894.4,142.3h51.9v42.3h-51.9V142.3z"/>
<path class="st10" d="M940.7,185.4h-53.6v-44h53.6V185.4z M888.8,183.7H939v-40.5h-50.2V183.7z"/>
<path class="st10" d="M853,329.6h40.6v1.7H853V329.6z"/>
<path class="st10" d="M851.1,163.3H887v1.7h-35.9V163.3z"/>
<path class="st10" d="M915.6,121.1h1.7v21.1h-1.7V121.1z"/>
<path class="st10" d="M850.2,296.1h1.7v75.1h-1.7V296.1z"/>
<path class="st10" d="M939.7,329.6h40.6v1.7h-40.6V329.6z"/>
<path class="st10" d="M946.3,163.3h35.9v1.7h-35.9V163.3z"/>
<path class="st10" d="M981.3,296.1h1.7v75.1h-1.7V296.1z"/>
<path class="st11" d="M953.8,353.5H893l30.4-49.6L953.8,353.5z"/>
<path class="st10" d="M941.9,354.4h-64l32-52.1L941.9,354.4z M881,352.7h57.7l-28.9-47L881,352.7z"/>
<path class="st12" d="M875.6,242.1l-2-0.1c1.4-25.5,23.2-45,48.6-43.6c6.3,0.3,12.4,2,18.1,4.8l-0.9,1.8c-6.1-3.1-12.9-4.7-19.7-4.6
	C896.3,200.3,876.9,218.7,875.6,242.1L875.6,242.1z"/>
<path class="st12" d="M919.7,290.7c-9.5,0-18.7-2.9-26.5-8.4l1.2-1.6c20,14,47.5,9.2,61.5-10.8c3.5-4.9,5.9-10.5,7.1-16.5l2,0.4
	C960.5,275.2,941.6,290.6,919.7,290.7z"/>
<path class="st12" d="M872.1,243.4l-3-0.1c0.6-28,23.8-50.1,51.8-49.5c26.7,0.6,48.4,21.9,49.4,48.6l-3,0.1
	c-1.1-26.3-23.2-46.7-49.5-45.7C892.7,197.9,872.7,218.3,872.1,243.4L872.1,243.4z"/>
<path class="st12" d="M919.7,295.1c-24,0-44.7-16.9-49.5-40.4l2.9-0.6c5.4,25.8,30.6,42.3,56.4,37c18.5-3.8,32.9-18.2,36.9-36.6
	l2.9,0.6C964.2,278.5,943.5,295.1,919.7,295.1L919.7,295.1z"/>
<path class="st11" d="M919.7,294.2c-20.4,0.1-38.7-12.3-46.2-31.3l4.6-1.9c6.7,17,23.2,28.2,41.5,28.1c20.9-0.1,39-14.6,43.6-34.9
	l4.9,1.1C963,278,942.9,294.1,919.7,294.2z M964.4,243.3c-0.4-14.5-7.8-27.9-19.8-36l2.8-4.2c13.4,9,21.6,23.9,22,40L964.4,243.3z"
	/>
<path class="st12" d="M901.9,203.4l1.9-0.7l10.8,27.1l-1.9,0.7L901.9,203.4z"/>
<path class="st12" d="M911.6,235.9l-1.8-0.9l3.3-6.3l6.3,2.3l-0.7,1.9l-4.6-1.7L911.6,235.9z"/>
<g>
	<g>
		<defs>
			<line id="SVGID_3_" x1="902.8" y1="202.8" x2="906.2" y2="211.2"/>
		</defs>
		<clipPath id="SVGID_4_">
			<use xlink:href="#SVGID_3_"  style="overflow:visible;"/>
		</clipPath>
		<g class="st13">
			<path class="st14" d="M902.8,202.8h2.5v8.5h-2.5V202.8z"/>
			<path class="st14" d="M905.4,202.8h0.8v8.5h-0.8V202.8z"/>
			<path class="st14" d="M906.2,202.8L906.2,202.8v8.5l0,0V202.8z"/>
		</g>
	</g>
</g>
<path class="st12" d="M901,203.5l3.7-1.5l3.4,8.5l-3.7,1.5L901,203.5z"/>
<g>
	<g>
		<defs>
			<line id="SVGID_5_" x1="902.8" y1="202.8" x2="903.6" y2="204.7"/>
		</defs>
		<clipPath id="SVGID_6_">
			<use xlink:href="#SVGID_5_"  style="overflow:visible;"/>
		</clipPath>
		<g class="st15">
			<path class="st14" d="M902.8,202.8h0.6v1.9h-0.6V202.8z"/>
			<path class="st14" d="M903.4,202.8h0.2v1.9h-0.2V202.8z"/>
			<path class="st14" d="M903.6,202.8L903.6,202.8v1.9l0,0V202.8z"/>
		</g>
	</g>
</g>
<path class="st12" d="M899.5,204.1l6.6-2.6l0.8,1.9l-6.6,2.6L899.5,204.1z"/>
<path class="st12" d="M937.6,219.1l8.4-11.3l1.6,1.2l-8.4,11.3L937.6,219.1z"/>
<path class="st12" d="M937.8,224.2l-0.3-3.3l-3.5,0.6l-0.3-2l5.6-1l0.5,5.4L937.8,224.2z"/>
<g>
	<g>
		<defs>
			<line id="SVGID_7_" x1="946.8" y1="208.4" x2="944.1" y2="211.9"/>
		</defs>
		<clipPath id="SVGID_8_">
			<use xlink:href="#SVGID_7_"  style="overflow:visible;"/>
		</clipPath>
		<g class="st16">
			<path class="st14" d="M944.1,208.4h2v3.6h-2V208.4z"/>
			<path class="st14" d="M946.1,208.4h0.7v3.6h-0.7V208.4z"/>
			<path class="st14" d="M946.8,208.4L946.8,208.4v3.6l0,0V208.4z"/>
		</g>
	</g>
</g>
<path class="st12" d="M942.5,210.8l2.7-3.6l3.2,2.4l-2.7,3.6L942.5,210.8z"/>
<g>
	<g>
		<defs>
			<line id="SVGID_9_" x1="946.8" y1="208.4" x2="945.6" y2="210"/>
		</defs>
		<clipPath id="SVGID_10_">
			<use xlink:href="#SVGID_9_"  style="overflow:visible;"/>
		</clipPath>
		<g class="st17">
			<path class="st14" d="M945.6,208.4h0.9v1.6h-0.9V208.4z"/>
			<path class="st14" d="M946.5,208.4h0.3v1.6h-0.3V208.4z"/>
			<path class="st14" d="M946.8,208.4L946.8,208.4v1.6l0,0V208.4z"/>
		</g>
	</g>
</g>
<path class="st12" d="M944.4,209.1l1.2-1.6l2.4,1.8l-1.2,1.6L944.4,209.1z"/>
<path class="st12" d="M942.9,254.5l0.7-1.9l19.5,7.1l-0.7,1.9L942.9,254.5z"/>
<path class="st12" d="M939.2,256.4l-0.8-1.8l3.6-1.5l-1.1-3.6l1.9-0.6l1.7,5.3L939.2,256.4z"/>
<g>
	<g>
		<defs>
			<line id="SVGID_11_" x1="962" y1="260.4" x2="954.1" y2="257.5"/>
		</defs>
		<clipPath id="SVGID_12_">
			<use xlink:href="#SVGID_11_"  style="overflow:visible;"/>
		</clipPath>
		<g class="st18">
			<path class="st14" d="M954,257.5h6v2.9h-6V257.5z"/>
			<path class="st14" d="M960,257.5h1.9v2.9H960V257.5z"/>
			<path class="st14" d="M962,257.5L962,257.5v2.9l0,0V257.5z"/>
		</g>
	</g>
</g>
<path class="st12" d="M953.4,259.4l1.4-3.8l7.9,2.9l-1.4,3.8L953.4,259.4z"/>
<g>
	<g>
		<defs>
			<line id="SVGID_13_" x1="962" y1="260.4" x2="959.9" y2="259.6"/>
		</defs>
		<clipPath id="SVGID_14_">
			<use xlink:href="#SVGID_13_"  style="overflow:visible;"/>
		</clipPath>
		<g class="st19">
			<path class="st14" d="M959.9,259.6h1.6v0.8h-1.6V259.6z"/>
			<path class="st14" d="M961.5,259.6h0.5v0.8h-0.5V259.6z"/>
			<path class="st14" d="M962,259.6L962,259.6v0.8l0,0V259.6z"/>
		</g>
	</g>
</g>
<path class="st12" d="M958.6,263l2.5-6.7l2.1,0.8l-2.5,6.7L958.6,263z"/>
<path class="st12" d="M876.1,256.3l10.6-3l0.5,1.9l-10.6,3L876.1,256.3z"/>
<path class="st12" d="M891.8,257.5l-6.2-2.9l3.4-6l1.7,1l-2.3,4.2l4.3,2L891.8,257.5z"/>
<g>
	<g>
		<defs>
			<line id="SVGID_15_" x1="876.4" y1="257.2" x2="882.8" y2="255.3"/>
		</defs>
		<clipPath id="SVGID_16_">
			<use xlink:href="#SVGID_15_"  style="overflow:visible;"/>
		</clipPath>
		<g class="st20">
			<path class="st14" d="M876.4,255.3h4.9v1.9h-4.9V255.3z"/>
			<path class="st14" d="M881.2,255.3h1.6v1.9h-1.6V255.3z"/>
			<path class="st14" d="M882.8,255.3L882.8,255.3v1.9l0,0V255.3z"/>
		</g>
	</g>
</g>
<path class="st12" d="M875.8,255.3l6.4-1.9l1.1,3.8l-6.4,1.9L875.8,255.3z"/>
<g>
	<g>
		<defs>
			<line id="SVGID_17_" x1="876.4" y1="257.2" x2="878.9" y2="256.5"/>
		</defs>
		<clipPath id="SVGID_18_">
			<use xlink:href="#SVGID_17_"  style="overflow:visible;"/>
		</clipPath>
		<g class="st21">
			<path class="st14" d="M876.4,256.5h1.9v0.7h-1.9V256.5z"/>
			<path class="st14" d="M878.3,256.5h0.6v0.7h-0.6V256.5z"/>
			<path class="st14" d="M878.9,256.5L878.9,256.5v0.7l0,0V256.5z"/>
		</g>
	</g>
</g>
<path class="st12" d="M875.8,255.3l2.6-0.7l1.1,3.8l-2.6,0.7L875.8,255.3z"/>
<g>
	<g>
		<defs>
			<circle id="SVGID_19_" cx="919.7" cy="244.2" r="34.9"/>
		</defs>
		<clipPath id="SVGID_20_">
			<use xlink:href="#SVGID_19_"  style="overflow:visible;"/>
		</clipPath>
		<g class="st22">
			<path class="st12" d="M886.7,202.1h2v2h-2V202.1z"/>
			<path class="st12" d="M893.1,202.1h2v2h-2V202.1z"/>
			<path class="st12" d="M896.3,202.1h2v2h-2V202.1z"/>
			<path class="st12" d="M899.6,202.1h2v2h-2V202.1z"/>
			<path class="st12" d="M902.8,202.1h2v2h-2V202.1z"/>
			<path class="st12" d="M906,202.1h2v2h-2V202.1z"/>
			<path class="st12" d="M909.2,202.1h2v2h-2V202.1z"/>
			<path class="st12" d="M915.7,202.1h2v2h-2V202.1z"/>
			<path class="st12" d="M918.9,202.1h2v2h-2V202.1z"/>
			<path class="st23" d="M889.9,205.1h2v2h-2V205.1z"/>
			<path class="st10" d="M893.1,205.1h2v2h-2V205.1z"/>
			<path class="st12" d="M896.3,205.1h2v2h-2V205.1z"/>
			<path class="st12" d="M909.2,205.1h2v2h-2V205.1z"/>
			<path class="st12" d="M912.4,205.1h2v2h-2V205.1z"/>
			<path class="st12" d="M918.9,205.1h2v2h-2V205.1z"/>
			<path class="st10" d="M886.7,208.2h2v2h-2V208.2z"/>
			<path class="st23" d="M889.9,208.2h2v2h-2V208.2z"/>
			<path class="st12" d="M896.3,208.2h2v2h-2V208.2z"/>
			<path class="st24" d="M899.6,208.2h2v2h-2V208.2z"/>
			<path class="st12" d="M902.8,208.2h2v2h-2V208.2z"/>
			<path class="st12" d="M906,208.2h2v2h-2V208.2z"/>
			<path class="st25" d="M886.7,211.2h2v2h-2V211.2z"/>
			<path class="st24" d="M893.1,211.2h2v2h-2V211.2z"/>
			<path class="st12" d="M896.3,211.2h2v2h-2V211.2z"/>
			<path class="st24" d="M899.6,211.2h2v2h-2V211.2z"/>
			<path class="st10" d="M886.7,214.2h2v2h-2V214.2z"/>
			<path class="st12" d="M893.1,214.2h2v2h-2V214.2z"/>
			<path class="st23" d="M896.3,214.2h2v2h-2V214.2z"/>
			<path class="st12" d="M886.7,217.3h2v2h-2V217.3z"/>
			<path class="st24" d="M891.5,217L891.5,217c0.5,0,1,0.4,1,1l0,0c0,0.5-0.4,1-1,1l0,0c-0.5,0-1-0.4-1-1l0,0
				C890.6,217.5,891,217,891.5,217z"/>
			<path class="st23" d="M887.7,220.3L887.7,220.3c0.5,0,1,0.4,1,1l0,0c0,0.5-0.4,1-1,1l0,0c-0.5,0-1-0.4-1-1l0,0
				C886.7,220.8,887.1,220.3,887.7,220.3z"/>
			<path class="st24" d="M886.7,223.4h2v2h-2V223.4z"/>
			<path class="st12" d="M893.1,232.5h2v2h-2V232.5z"/>
			<path class="st10" d="M896.3,232.5h2v2h-2V232.5z"/>
			<path class="st12" d="M902.8,232.5h2v2h-2V232.5z"/>
			<path class="st10" d="M906,232.5h2v2h-2V232.5z"/>
			<path class="st12" d="M915.7,235.6h2v2h-2V235.6z"/>
			<path class="st12" d="M877.4,239.8h2v2h-2V239.8z"/>
			<path class="st10" d="M890.2,239.8h2v2h-2V239.8z"/>
			<path class="st12" d="M893.5,239.8h2v2h-2V239.8z"/>
			<path class="st12" d="M899.9,239.8h2v2h-2V239.8z"/>
			<path class="st12" d="M906.3,239.8h2v2h-2V239.8z"/>
			<path class="st10" d="M909.6,239.8h2v2h-2V239.8z"/>
			<path class="st23" d="M880.6,242.9h2v2h-2V242.9z"/>
			<path class="st10" d="M877.4,245.9h2v2h-2V245.9z"/>
			<path class="st23" d="M880.6,245.9h2v2h-2V245.9z"/>
			<path class="st10" d="M890.2,245.9h2v2h-2V245.9z"/>
			<path class="st12" d="M893.5,245.9h2v2h-2V245.9z"/>
			<path class="st12" d="M896.7,245.9h2v2h-2V245.9z"/>
			<path class="st12" d="M903.1,245.9h2v2h-2V245.9z"/>
			<path class="st10" d="M906.3,245.9h2v2h-2V245.9z"/>
			<path class="st25" d="M877.4,249h2v2h-2V249z"/>
			<path class="st12" d="M896.7,249h2v2h-2V249z"/>
			<path class="st12" d="M899.9,249h2v2h-2V249z"/>
			<path class="st10" d="M877.4,252h2v2h-2V252z"/>
			<path class="st12" d="M893.5,252h2v2h-2V252z"/>
			<path class="st12" d="M903.1,252h2v2h-2V252z"/>
			<path class="st12" d="M906.3,252h2v2h-2V252z"/>
			<path class="st12" d="M877.4,255.1h2v2h-2V255.1z"/>
			<path class="st24" d="M882.2,254.8L882.2,254.8c0.5,0,1,0.4,1,1l0,0c0,0.5-0.4,1-1,1l0,0c-0.5,0-1-0.4-1-1l0,0
				C881.2,255.2,881.7,254.8,882.2,254.8z"/>
			<path class="st23" d="M878.3,258.1L878.3,258.1c0.5,0,1,0.4,1,1l0,0c0,0.5-0.4,1-1,1l0,0c-0.5,0-1-0.4-1-1l0,0
				C877.4,258.5,877.8,258.1,878.3,258.1z"/>
			<path class="st25" d="M883.8,258.1h2v2h-2V258.1z"/>
			<path class="st10" d="M894.5,258.1L894.5,258.1c0.5,0,1,0.4,1,1l0,0c0,0.5-0.4,1-1,1l0,0c-0.5,0-1-0.4-1-1l0,0
				C893.5,258.5,893.9,258.1,894.5,258.1z"/>
			<path class="st12" d="M906.4,257.3l1.4,1.4l-1.4,1.4l-1.4-1.4L906.4,257.3z"/>
			<path class="st12" d="M909.6,258.1h2v2h-2V258.1z"/>
			<path class="st24" d="M877.4,261.2h2v2h-2V261.2z"/>
			<path class="st12" d="M883.8,261.2h2v2h-2V261.2z"/>
			<path class="st12" d="M887,261.2h2v2h-2V261.2z"/>
			<path class="st10" d="M896.7,261.2h2v2h-2V261.2z"/>
			<path class="st23" d="M877.4,264.2h2v2h-2V264.2z"/>
			<path class="st10" d="M880.6,264.2h2v2h-2V264.2z"/>
			<path class="st23" d="M887,264.2h2v2h-2V264.2z"/>
			<path class="st12" d="M906.3,264.2h2v2h-2V264.2z"/>
			<path class="st23" d="M880.6,267.2h2v2h-2V267.2z"/>
			<path class="st12" d="M890.2,267.2h2v2h-2V267.2z"/>
			<path class="st12" d="M909.6,267.2h2v2h-2V267.2z"/>
			<path class="st12" d="M883.8,270.3h2v2h-2V270.3z"/>
			<path class="st10" d="M887,270.3h2v2h-2V270.3z"/>
			<path class="st10" d="M890.2,270.3h2v2h-2V270.3z"/>
			<path class="st12" d="M893.5,270.3h2v2h-2V270.3z"/>
			<path class="st12" d="M877.4,273.3h2v2h-2V273.3z"/>
			<path class="st12" d="M880.6,273.3h2v2h-2V273.3z"/>
			<path class="st12" d="M890.2,273.3h2v2h-2V273.3z"/>
			<path class="st24" d="M893.5,273.3h2v2h-2V273.3z"/>
			<path class="st12" d="M896.7,273.3h2v2h-2V273.3z"/>
			<path class="st12" d="M913,239.8h2v2h-2V239.8z"/>
			<path class="st12" d="M922.6,239.8h2v2h-2V239.8z"/>
			<path class="st10" d="M925.9,239.8h2v2h-2V239.8z"/>
			<path class="st10" d="M929.1,239.8h2v2h-2V239.8z"/>
			<path class="st12" d="M932.3,239.8h2v2h-2V239.8z"/>
			<path class="st12" d="M935.5,239.8h2v2h-2V239.8z"/>
			<path class="st12" d="M942,239.8h2v2h-2V239.8z"/>
			<path class="st12" d="M935.5,242.9h2v2h-2V242.9z"/>
			<path class="st12" d="M938.8,242.9h2v2h-2V242.9z"/>
			<path class="st12" d="M913,245.9h2v2h-2V245.9z"/>
			<path class="st12" d="M925.9,245.9h2v2h-2V245.9z"/>
			<path class="st12" d="M929.1,245.9h2v2h-2V245.9z"/>
			<path class="st12" d="M929.1,249h2v2h-2V249z"/>
			<path class="st10" d="M926.4,251h2v2h-2V251z"/>
			<path class="st12" d="M935.9,249.6h2v2h-2V249.6z"/>
			<path class="st12" d="M931.3,242.9h2v2h-2V242.9z"/>
			<path class="st12" d="M932.3,245.9h2v2h-2V245.9z"/>
			<path class="st12" d="M938.8,245.9h2v2h-2V245.9z"/>
			<path class="st12" d="M942,245.9h2v2h-2V245.9z"/>
			<path class="st12" d="M948,246.4h2v2h-2V246.4z"/>
			<path class="st10" d="M950.5,249.5h2v2h-2V249.5z"/>
			<path class="st10" d="M945.2,249.5h2v2h-2V249.5z"/>
			<path class="st10" d="M932.3,249h2v2h-2V249z"/>
			<path class="st12" d="M922.6,252h2v2h-2V252z"/>
			<path class="st12" d="M930.1,263.2L930.1,263.2c0.5,0,1,0.4,1,1l0,0c0,0.5-0.4,1-1,1l0,0c-0.5,0-1-0.4-1-1l0,0
				C929.1,263.7,929.5,263.2,930.1,263.2z"/>
			<path class="st10" d="M933.5,260.8L933.5,260.8c0.5,0,1,0.4,1,1l0,0c0,0.5-0.4,1-1,1l0,0c-0.5,0-1-0.4-1-1l0,0
				C932.5,261.2,933,260.8,933.5,260.8z"/>
			<path class="st10" d="M922.6,255.1h2v2h-2V255.1z"/>
			<path class="st10" d="M926.9,254.6l1.4,1.4l-1.4,1.4l-1.4-1.4L926.9,254.6z"/>
			<g>
				<path class="st12" d="M929.1,255.1h2v2h-2V255.1z"/>
				<path class="st12" d="M932.3,255.1h2v2h-2V255.1z"/>
				<path class="st12" d="M935.5,255.1h2v2h-2V255.1z"/>
				<path class="st12" d="M914,258.1L914,258.1c0.5,0,1,0.4,1,1l0,0c0,0.5-0.4,1-1,1l0,0c-0.5,0-1-0.4-1-1l0,0
					C913,258.5,913.4,258.1,914,258.1z"/>
				<path class="st12" d="M925.9,258.1h2v2h-2V258.1z"/>
				<path class="st12" d="M930.1,258.1L930.1,258.1c0.5,0,1,0.4,1,1l0,0c0,0.5-0.4,1-1,1l0,0c-0.5,0-1-0.4-1-1l0,0
					C929.1,258.5,929.5,258.1,930.1,258.1z"/>
				<path class="st12" d="M922.6,264.2h2v2h-2V264.2z"/>
				<path class="st12" d="M932.3,264.2h2v2h-2V264.2z"/>
				<path class="st12" d="M935.5,264.2h2v2h-2V264.2z"/>
				<path class="st12" d="M942,264.2h2v2h-2V264.2z"/>
				<path class="st12" d="M929.1,267.2h2v2h-2V267.2z"/>
				<path class="st12" d="M919.4,270.3h2v2h-2V270.3z"/>
				<path class="st12" d="M945.2,270.3h2v2h-2V270.3z"/>
				<path class="st12" d="M942,273.3h2v2h-2V273.3z"/>
				<path class="st12" d="M945.2,273.3h2v2h-2V273.3z"/>
				<path class="st12" d="M949.4,240.4h2v2h-2V240.4z"/>
				<path class="st12" d="M955.8,240.4h2v2h-2V240.4z"/>
				<path class="st12" d="M959.1,240.4h2v2h-2V240.4z"/>
				<path class="st12" d="M962.3,240.4h2v2h-2V240.4z"/>
				<path class="st12" d="M965.5,240.4h2v2h-2V240.4z"/>
				<path class="st12" d="M968.7,240.4h2v2h-2V240.4z"/>
				<path class="st12" d="M971.9,240.4h2v2h-2V240.4z"/>
				<path class="st12" d="M978.4,240.4h2v2h-2V240.4z"/>
				<path class="st12" d="M981.6,240.4h2v2h-2V240.4z"/>
				<path class="st12" d="M955.8,243.5h2v2h-2V243.5z"/>
				<path class="st12" d="M959.1,243.5h2v2h-2V243.5z"/>
				<path class="st12" d="M971.9,243.5h2v2h-2V243.5z"/>
				<path class="st12" d="M975.2,243.5h2v2h-2V243.5z"/>
				<path class="st12" d="M981.6,243.5h2v2h-2V243.5z"/>
				<path class="st12" d="M959.1,246.5h2v2h-2V246.5z"/>
				<path class="st12" d="M962.3,246.5h2v2h-2V246.5z"/>
				<path class="st12" d="M965.5,246.5h2v2h-2V246.5z"/>
				<path class="st12" d="M968.7,246.5h2v2h-2V246.5z"/>
				<path class="st12" d="M975.2,246.5h2v2h-2V246.5z"/>
				<path class="st12" d="M978.4,246.5h2v2h-2V246.5z"/>
				<path class="st12" d="M955.8,249.5h2v2h-2V249.5z"/>
				<path class="st12" d="M959.1,249.5h2v2h-2V249.5z"/>
				<path class="st12" d="M962.3,249.5h2v2h-2V249.5z"/>
				<path class="st12" d="M965.5,249.5h2v2h-2V249.5z"/>
				<path class="st12" d="M968.7,249.5h2v2h-2V249.5z"/>
				<path class="st12" d="M971.9,249.5h2v2h-2V249.5z"/>
				<path class="st12" d="M978.4,249.5h2v2h-2V249.5z"/>
				<path class="st12" d="M955.8,252.6h2v2h-2V252.6z"/>
				<path class="st12" d="M959.1,252.6h2v2h-2V252.6z"/>
				<path class="st12" d="M962.3,252.6h2v2h-2V252.6z"/>
				<path class="st12" d="M965.5,252.6h2v2h-2V252.6z"/>
				<path class="st12" d="M968.7,252.6h2v2h-2V252.6z"/>
				<path class="st12" d="M971.9,252.6h2v2h-2V252.6z"/>
				<path class="st12" d="M975.2,252.6h2v2h-2V252.6z"/>
				<path class="st12" d="M978.4,252.6h2v2h-2V252.6z"/>
				<path class="st12" d="M981.6,252.6h2v2h-2V252.6z"/>
				<path class="st12" d="M954.3,255.4L954.3,255.4c0.5,0,1,0.4,1,1l0,0c0,0.5-0.4,1-1,1l0,0c-0.5,0-1-0.4-1-1l0,0
					C953.3,255.8,953.7,255.4,954.3,255.4z"/>
				<path class="st12" d="M959.1,255.6h2v2h-2V255.6z"/>
				<path class="st12" d="M963.3,255.2l1.4,1.4l-1.4,1.4l-1.4-1.4L963.3,255.2z"/>
				<path class="st12" d="M965.5,255.6h2v2h-2V255.6z"/>
				<path class="st12" d="M968.7,255.6h2v2h-2V255.6z"/>
				<path class="st12" d="M971.9,255.6h2v2h-2V255.6z"/>
				<path class="st12" d="M975.2,255.6h2v2h-2V255.6z"/>
				<path class="st12" d="M981.6,255.6h2v2h-2V255.6z"/>
				<path class="st12" d="M955.8,258.7h2v2h-2V258.7z"/>
				<path class="st12" d="M959.1,258.7h2v2h-2V258.7z"/>
				<path class="st12" d="M962.3,258.7h2v2h-2V258.7z"/>
				<path class="st12" d="M966.5,258.7L966.5,258.7c0.5,0,1,0.4,1,1l0,0c0,0.5-0.4,1-1,1l0,0c-0.5,0-1-0.4-1-1l0,0
					C965.5,259.1,965.9,258.7,966.5,258.7z"/>
				<path class="st12" d="M968.7,258.7h2v2h-2V258.7z"/>
				<path class="st12" d="M971.9,258.7h2v2h-2V258.7z"/>
				<path class="st12" d="M978.5,257.9l1.4,1.4l-1.4,1.4l-1.4-1.4L978.5,257.9z"/>
				<path class="st12" d="M981.6,258.7h2v2h-2V258.7z"/>
				<path class="st12" d="M955.8,261.7h2v2h-2V261.7z"/>
				<path class="st12" d="M959.1,261.7h2v2h-2V261.7z"/>
				<path class="st12" d="M962.3,261.7h2v2h-2V261.7z"/>
				<path class="st12" d="M965.5,261.7h2v2h-2V261.7z"/>
				<path class="st12" d="M968.7,261.7h2v2h-2V261.7z"/>
				<path class="st12" d="M971.9,261.7h2v2h-2V261.7z"/>
				<path class="st12" d="M975.2,261.7h2v2h-2V261.7z"/>
				<path class="st12" d="M978.4,261.7h2v2h-2V261.7z"/>
				<path class="st12" d="M949.4,264.8h2v2h-2V264.8z"/>
				<path class="st12" d="M952.6,264.8h2v2h-2V264.8z"/>
				<path class="st12" d="M959.1,264.8h2v2h-2V264.8z"/>
				<path class="st12" d="M962.3,264.8h2v2h-2V264.8z"/>
				<path class="st12" d="M965.5,264.8h2v2h-2V264.8z"/>
				<path class="st12" d="M968.7,264.8h2v2h-2V264.8z"/>
				<path class="st12" d="M971.9,264.8h2v2h-2V264.8z"/>
				<path class="st12" d="M978.4,264.8h2v2h-2V264.8z"/>
				<path class="st12" d="M952.6,267.8h2v2h-2V267.8z"/>
				<path class="st12" d="M962.3,267.8h2v2h-2V267.8z"/>
				<path class="st12" d="M965.5,267.8h2v2h-2V267.8z"/>
				<path class="st12" d="M968.7,267.8h2v2h-2V267.8z"/>
				<path class="st12" d="M975.2,267.8h2v2h-2V267.8z"/>
				<path class="st12" d="M978.4,267.8h2v2h-2V267.8z"/>
				<path class="st12" d="M981.6,267.8h2v2h-2V267.8z"/>
				<path class="st12" d="M955.8,270.9h2v2h-2V270.9z"/>
				<path class="st12" d="M959.1,270.9h2v2h-2V270.9z"/>
				<path class="st12" d="M962.3,270.9h2v2h-2V270.9z"/>
				<path class="st12" d="M965.5,270.9h2v2h-2V270.9z"/>
				<path class="st12" d="M968.7,270.9h2v2h-2V270.9z"/>
				<path class="st12" d="M971.9,270.9h2v2h-2V270.9z"/>
				<path class="st12" d="M975.2,270.9h2v2h-2V270.9z"/>
				<path class="st12" d="M978.4,270.9h2v2h-2V270.9z"/>
				<path class="st12" d="M981.6,270.9h2v2h-2V270.9z"/>
				<path class="st12" d="M949.4,273.9h2v2h-2V273.9z"/>
				<path class="st12" d="M952.6,273.9h2v2h-2V273.9z"/>
				<path class="st12" d="M962.3,273.9h2v2h-2V273.9z"/>
				<path class="st12" d="M965.5,273.9h2v2h-2V273.9z"/>
				<path class="st12" d="M968.7,273.9h2v2h-2V273.9z"/>
				<path class="st12" d="M971.9,273.9h2v2h-2V273.9z"/>
				<path class="st12" d="M975.2,273.9h2v2h-2V273.9z"/>
				<path class="st12" d="M978.4,273.9h2v2h-2V273.9z"/>
				<path class="st12" d="M981.6,273.9h2v2h-2V273.9z"/>
				<path class="st12" d="M922.3,202.7h2v2h-2V202.7z"/>
				<path class="st12" d="M928.7,202.7h2v2h-2V202.7z"/>
				<path class="st12" d="M931.9,202.7h2v2h-2V202.7z"/>
				<path class="st12" d="M935.1,202.7h2v2h-2V202.7z"/>
				<path class="st12" d="M938.4,202.7h2v2h-2V202.7z"/>
				<path class="st12" d="M941.6,202.7h2v2h-2V202.7z"/>
				<path class="st12" d="M944.8,202.7h2v2h-2V202.7z"/>
				<path class="st12" d="M951.2,202.7h2v2h-2V202.7z"/>
				<path class="st12" d="M954.5,202.7h2v2h-2V202.7z"/>
				<path class="st12" d="M925.5,205.7h2v2h-2V205.7z"/>
				<path class="st12" d="M928.7,205.7h2v2h-2V205.7z"/>
				<path class="st12" d="M931.9,205.7h2v2h-2V205.7z"/>
				<path class="st12" d="M944.8,205.7h2v2h-2V205.7z"/>
				<path class="st12" d="M948,205.7h2v2h-2V205.7z"/>
				<path class="st12" d="M954.5,205.7h2v2h-2V205.7z"/>
				<path class="st12" d="M931.9,208.8h2v2h-2V208.8z"/>
				<path class="st12" d="M935.1,208.8h2v2h-2V208.8z"/>
				<path class="st12" d="M938.4,208.8h2v2h-2V208.8z"/>
				<path class="st12" d="M941.6,208.8h2v2h-2V208.8z"/>
				<path class="st12" d="M948,208.8h2v2h-2V208.8z"/>
				<path class="st12" d="M951.2,208.8h2v2h-2V208.8z"/>
				<path class="st12" d="M938.4,211.8h2v2h-2V211.8z"/>
				<path class="st12" d="M941.6,211.8h2v2h-2V211.8z"/>
				<path class="st12" d="M944.8,211.8h2v2h-2V211.8z"/>
				<path class="st12" d="M951.2,211.8h2v2h-2V211.8z"/>
				<path class="st12" d="M941.6,214.9h2v2h-2V214.9z"/>
				<path class="st12" d="M944.8,214.9h2v2h-2V214.9z"/>
				<path class="st12" d="M948,214.9h2v2h-2V214.9z"/>
				<path class="st12" d="M951.2,214.9h2v2h-2V214.9z"/>
				<path class="st12" d="M954.5,214.9h2v2h-2V214.9z"/>
				<path class="st12" d="M944.8,217.9h2v2h-2V217.9z"/>
				<path class="st12" d="M948,217.9h2v2h-2V217.9z"/>
				<path class="st12" d="M954.5,217.9h2v2h-2V217.9z"/>
				<path class="st12" d="M951.4,220.2l1.4,1.4l-1.4,1.4l-1.4-1.4L951.4,220.2z"/>
				<path class="st12" d="M954.5,221h2v2h-2V221z"/>
				<path class="st12" d="M951.2,224h2v2h-2V224z"/>
				<path class="st12" d="M931.9,227.1h2v2h-2V227.1z"/>
				<path class="st12" d="M938.4,227.1h2v2h-2V227.1z"/>
				<path class="st12" d="M951.2,227.1h2v2h-2V227.1z"/>
				<path class="st12" d="M925.5,230.1h2v2h-2V230.1z"/>
				<path class="st12" d="M954.5,230.1h2v2h-2V230.1z"/>
				<path class="st12" d="M928.7,233.2h2v2h-2V233.2z"/>
				<path class="st12" d="M935.1,233.2h2v2h-2V233.2z"/>
				<path class="st12" d="M941.6,233.2h2v2h-2V233.2z"/>
				<path class="st12" d="M954.5,233.2h2v2h-2V233.2z"/>
				<path class="st12" d="M925.5,236.2h2v2h-2V236.2z"/>
			</g>
			<path class="st10" d="M935.1,236.2h2v2h-2V236.2z"/>
			<path class="st12" d="M944.8,236.2h2v2h-2V236.2z"/>
			<path class="st12" d="M954.5,236.2h2v2h-2V236.2z"/>
		</g>
	</g>
</g>
<path class="st10" d="M913,353.5h1.7v17.7H913V353.5z"/>
<path class="st12" d="M968.5,237.3H1163v1.7H968.5V237.3z"/>
<path class="st12" d="M967.8,254.6H1163v1.7H967.8V254.6z"/>
<path class="st12" d="M968.1,254.6H1163v1.7H968.1V254.6z"/>
<path class="st12" d="M968.8,245.9H1163v1.7H968.8V245.9z"/>
<path class="st12" d="M965.1,263.2H1163v1.7H965.1V263.2z"/>
<path class="st12" d="M1066.9,236h1.3v4.3h-1.3V236z"/>
<path class="st12" d="M1006.4,261.9h1.3v4.3h-1.3V261.9z"/>
<path class="st12" d="M1048.6,244.7h1.3v4.3h-1.3V244.7z"/>
<path class="st10" d="M819.9,233h46.3v1.7h-46.3V233z"/>
<path class="st10" d="M819.9,241.6h46.2v1.7h-46.2V241.6z"/>
<path class="st10" d="M819.9,254.6h50v1.7h-50V254.6z"/>
<path class="st10" d="M819.9,263.2h52.6v1.7h-52.6V263.2z"/>
<path class="st10" d="M1015.2,121.1h1.7v123h-1.7V121.1z"/>
<path class="st10" d="M1015.2,254.5h1.7v116.8h-1.7V254.5z"/>
<path class="st10" d="M819,121.1h1.7v107H819V121.1z"/>
<path class="st10" d="M819,269h1.7v102.3H819V269z"/>
<path class="st10" d="M1016.1,186.9h28.7v1.7h-28.7L1016.1,186.9L1016.1,186.9z"/>
<path class="st12" d="M962,249.5h2v2h-2V249.5z"/>
<path class="st12" d="M952.1,245.4h2v2h-2V245.4z"/>
<path class="st12" d="M958.9,246.4h2v2h-2V246.4z"/>
<path class="st10" d="M957.2,249.5h2v2h-2V249.5z"/>
<path class="st10" d="M955.8,246.4h2v2h-2V246.4z"/>
<g>
	<g>
		<defs>
			<circle id="SVGID_21_" cx="1146.3" cy="249" r="25.1"/>
		</defs>
		<clipPath id="SVGID_22_">
			<use xlink:href="#SVGID_21_"  style="overflow:visible;"/>
		</clipPath>
		<g class="st26">
			<path class="st12" d="M967.6,238.2l202.7-2v4L967.6,238.2z"/>
			<path class="st12" d="M966.8,255.4l201.5-2v4L966.8,255.4z"/>
			<path class="st12" d="M965,264l202.8-2v4L965,264z"/>
			<path class="st12" d="M967.2,255.4l204.9-2v4L967.2,255.4z"/>
			<path class="st12" d="M967.9,246.8l205.3-2v4L967.9,246.8z"/>
			<path class="st12" d="M963.9,264l204.4-2v4L963.9,264z"/>
		</g>
	</g>
</g>
<path class="st10" d="M852.3,247.5h3.9v3.9h-3.9V247.5z"/>
<path class="st10" d="M842.3,247.5h3.9v3.9h-3.9V247.5z"/>
<path class="st10" d="M832.3,247.5h3.9v3.9h-3.9V247.5z"/>
<path class="st10" d="M822.3,247.5h3.9v3.9h-3.9V247.5z"/>
<path class="st10" d="M812.4,247.5h3.9v3.9h-3.9V247.5z"/>
<path class="st10" d="M802.4,247.5h3.9v3.9h-3.9V247.5z"/>
<path class="st10" d="M792.4,247.5h3.9v3.9h-3.9V247.5z"/>
<path class="st10" d="M782.5,247.5h3.9v3.9h-3.9V247.5z"/>
<path class="st10" d="M772.5,247.5h3.9v3.9h-3.9V247.5z"/>
<path class="st10" d="M762.5,247.5h3.9v3.9h-3.9V247.5z"/>
<path class="st10" d="M752.6,247.5h3.9v3.9h-3.9V247.5z"/>
<path class="st10" d="M742.6,247.5h3.9v3.9h-3.9V247.5z"/>
<path class="st10" d="M732.6,247.5h3.9v3.9h-3.9V247.5z"/>
<path class="st10" d="M722.6,247.5h3.9v3.9h-3.9V247.5z"/>
<path class="st10" d="M712.7,247.5h3.9v3.9h-3.9V247.5z"/>
<path class="st10" d="M702.7,247.5h3.9v3.9h-3.9V247.5z"/>
<path class="st10" d="M692.7,247.5h3.9v3.9h-3.9V247.5z"/>
<path class="st10" d="M682.8,247.5h3.9v3.9h-3.9V247.5z"/>
<path class="st10" d="M672.8,247.5h3.9v3.9h-3.9V247.5z"/>
<path class="st10" d="M662.8,247.5h3.9v3.9h-3.9V247.5z"/>
<path class="st10" d="M652.9,247.5h3.9v3.9h-3.9V247.5z"/>
<path class="st5" d="M1107.2,499h1v84.3h-1V499z"/>
<path class="st5" d="M1119.4,499h1v84.3h-1V499z"/>
<path class="st5" d="M1131.7,499h1v84.3h-1V499z"/>
<path class="st5" d="M1143.9,499h1v84.3h-1V499z"/>
<path class="st5" d="M1156.2,499h1v84.3h-1V499z"/>
<path class="st5" d="M1168.4,499h1v84.3h-1V499z"/>
<path class="st5" d="M1030.6,508.6h26.7v3.4h-26.7V508.6z"/>
<path class="st5" d="M1030.6,523.4h36.5v3.4h-36.5V523.4z"/>
<path class="st5" d="M1030.6,531.3h23v3.4h-23V531.3z"/>
<path class="st5" d="M1030.6,539.2h42.9v3.4h-42.9V539.2z"/>
<path class="st5" d="M1030.6,547.1h27.8v3.4h-27.8V547.1z"/>
<path class="st5" d="M1030.6,555h27.8v3.4h-27.8V555z"/>
<path class="st5" d="M1102.1,564.2h11.3v3.4h-11.3V564.2z"/>
<path class="st5" d="M1114.3,539h11.3v3.4h-11.3V539z"/>
<path class="st5" d="M1095,499h1v84.3h-1V499z"/>
<path class="st5" d="M1089.8,510.3h11.3v3.4h-11.3V510.3z"/>
<path class="st5" d="M1126.5,557.6h11.3v3.4h-11.3V557.6z"/>
<path class="st5" d="M1138.8,508.6h11.3v3.4h-11.3V508.6z"/>
<path class="st5" d="M1151,525.9h11.3v3.4H1151V525.9z"/>
<path class="st2" d="M808.3,674.7h-233V520.4h233V674.7z M577.3,672.7h229V522.4h-229V672.7z"/>
<path class="st5" d="M1168.9,541.9h44.2v1h-44.2V541.9z"/>
<path class="st27" d="M819.2,699.9c0,0,0.9,0.5-1.1,4.4s-5.8,10.7-5.8,10.7l-2.7-0.9l-0.7-5.3l-5.3,8.1c0,0-6.1,2.9-7.4,2.5
	c-3.2-1.1,1.6-13.7,6.9-18.8s6.5-5.5,13.3-8.1"/>
<path class="st8" d="M796.5,720c-0.2,0-0.3,0-0.5-0.1c-0.7-0.3-1.2-0.9-1.3-1.7c-0.9-3.9,3.5-13.7,8-18.1c5.2-5,6.5-5.5,12.9-8.1
	l0.6-0.2l0.5,1.2l-0.6,0.2c-6.3,2.5-7.4,2.9-12.5,7.8c-4.5,4.3-8.4,13.7-7.7,16.9c0.1,0.7,0.4,0.8,0.5,0.8c0.6,0.2,4-1.1,6.8-2.4
	l5.2-8c0.2-0.3,0.6-0.4,0.9-0.2c0.2,0.1,0.3,0.3,0.3,0.4l0.6,4.9l1.9,0.6c0.9-1.6,3.8-7,5.5-10.2c1.5-2.9,1.2-3.7,1.2-3.7
	c0,0.1,0.1,0.1,0.1,0.1l0.6-1.1c0.5,0.3,1.1,1.4-0.9,5.2s-5.7,10.6-5.8,10.7c-0.1,0.3-0.5,0.4-0.7,0.3l-2.7-0.9
	c-0.2-0.1-0.4-0.3-0.4-0.5l-0.5-3.6l-4.4,6.7c-0.1,0.1-0.2,0.2-0.3,0.2C802.1,718.3,798.2,720,796.5,720L796.5,720z"/>
<path class="st7" d="M889.9,548.7c0,0-12.3,10.8-34.2,51.3c-5.1,9.4-10.5,19.5-15.7,29.3c-17.2,32.3-32.9,62.5-32.9,62.5l16.7,13.2
	c0,0,18.1-22.6,34.6-47.4c14.4-21.7,22.5-33.4,28.2-47.2s-5.7-17.7-5.3-26.9"/>
<path class="st8" d="M824,705.9l-17.6-14l0.2-0.5c0.2-0.3,15.9-30.5,32.9-62.5c5.8-10.8,11-20.7,15.7-29.3
	c21.7-40.1,33.8-51,34.3-51.5l0.8,0.9c-0.1,0.1-12.5,11.3-34,51.1c-4.6,8.6-9.9,18.5-15.7,29.3c-15.9,29.8-30.7,58.1-32.7,62
	l15.9,12.5c2.7-3.4,19.2-24.4,34.2-46.9l2.7-4c12.6-18.8,20.2-30.2,25.5-43.1c3.3-8.1,0.6-12.6-2-17c-1.7-2.9-3.5-5.9-3.3-9.7
	l1.2,0.1c-0.1,3.5,1.5,6.2,3.2,9c2.6,4.4,5.6,9.5,2.1,18.1c-5.4,13-13,24.4-25.6,43.3l-2.7,4c-16.3,24.5-34.4,47.2-34.6,47.5
	L824,705.9z"/>
<path class="st8" d="M937.5,1019.3h70.8v1.2h-70.8V1019.3z"/>
<path class="st8" d="M771.5,1018.5h86.6v1.2h-86.6V1018.5z"/>
<path class="st8" d="M896,1018.5h22.4v1.2H896V1018.5z"/>
<path class="st27" d="M984.1,999.5l-2.2-13.2H964l2.5,15.5l7.5,5.2h7.1l2.2-5.4L984.1,999.5z"/>
<path class="st8" d="M981,1007.6h-7.1c-0.1,0-0.2,0-0.4-0.1l-7.5-5.2c-0.1-0.1-0.2-0.2-0.3-0.4l-2.5-15.5c-0.1-0.3,0.2-0.7,0.5-0.7
	h0.1h17.9c0.3,0,0.6,0.2,0.6,0.5l2.2,13.2c0,0.1,0,0.2,0,0.4l-0.9,2.1l-2.1,5.4C981.5,1007.5,981.3,1007.6,981,1007.6L981,1007.6z
	 M974.1,1006.4h6.5l2-5l0.9-1.9l-2.1-12.5h-16.7l2.3,14.5L974.1,1006.4z"/>
<path class="st8" d="M984.2,1000c0,0,12.5,6.4,20.7,8.7s7,6.4,7,6.4v4.8h-47v-5.7l0.5-14.5L984.2,1000z"/>
<path class="st8" d="M1011.9,1020.4h-47c-0.2,0-0.4-0.2-0.4-0.4v-5.7l0.5-14.5c0-0.2,0.2-0.4,0.4-0.4l0,0l18.8,0.3
	c0.1,0,0.1,0,0.2,0c0.1,0.1,12.5,6.4,20.6,8.7c3.5,1,5.8,2.4,6.8,4.3c0.5,0.8,0.6,1.7,0.4,2.6v4.8
	C1012.3,1020.2,1012.2,1020.4,1011.9,1020.4L1011.9,1020.4z M965.3,1019.6h46.2v-4.4v-0.1c0.1-0.7,0-1.5-0.4-2.1
	c-0.6-1.1-2.2-2.7-6.3-3.8c-7.9-2.2-19.6-8.1-20.7-8.7l-18.3-0.3l-0.5,14.1V1019.6z"/>
<path class="st28" d="M964.9,1014.2h47v5.7h-47V1014.2z"/>
<path class="st8" d="M1012.5,1020.6h-48.3v-7h48.3V1020.6z M965.5,1019.3h45.8v-4.5h-45.8V1019.3z"/>
<path class="st8" d="M964.9,989.8v3.7l18.5-2.6L964.9,989.8z"/>
<path class="st8" d="M964.9,994c-0.2,0-0.4-0.2-0.4-0.4l0,0v-3.7c0-0.1,0-0.2,0.1-0.3s0.2-0.1,0.3-0.1l18.5,1.1
	c0.2,0,0.4,0.2,0.4,0.4s-0.2,0.4-0.4,0.4L964.9,994L964.9,994L964.9,994z M965.3,990.3v2.8l14-2L965.3,990.3z"/>
<path class="st27" d="M849.5,998.7l0.4-13.2H832l-0.2,15.5l7.5,5.2h7.1l2.2-5.4L849.5,998.7z"/>
<path class="st8" d="M846.4,1006.8h-7.1c-0.1,0-0.2,0-0.4-0.1l-7.5-5.2c-0.2-0.1-0.3-0.3-0.3-0.5l0.2-15.5c0-0.3,0.3-0.6,0.6-0.6
	h17.9c0.3,0,0.6,0.3,0.6,0.6l0,0l-0.4,13.2c0,0.1,0,0.2-0.1,0.2l-0.9,2.1l-2.2,5.4C846.9,1006.7,846.6,1006.8,846.4,1006.8
	L846.4,1006.8z M839.5,1005.6h6.5l2-5l0.9-2l0.4-12.4h-16.7l-0.2,14.5L839.5,1005.6z"/>
<path class="st8" d="M849.6,999.2c3.3,4.2,7.8,7.2,12.9,8.7c8.3,2.3,7,6.4,7,6.4v4.8h-41v-5.7l2.3-14.5L849.6,999.2z"/>
<path class="st8" d="M869.5,1019.6h-41c-0.2,0-0.4-0.2-0.4-0.4v-5.7l2.3-14.5c0-0.2,0.2-0.4,0.4-0.4l0,0l18.8,0.3
	c0.1,0,0.3,0.1,0.3,0.2c3.3,4.1,7.7,7,12.7,8.5c3.5,1,5.8,2.4,6.8,4.3c0.5,0.8,0.6,1.7,0.4,2.6v4.8
	C869.9,1019.4,869.7,1019.6,869.5,1019.6L869.5,1019.6L869.5,1019.6z M828.9,1018.8H869v-4.4v-0.1c0.1-0.7,0-1.5-0.4-2.1
	c-0.6-1.1-2.2-2.7-6.3-3.8c-5.1-1.5-9.7-4.5-13-8.7l-18.3-0.3l-2.2,14.1L828.9,1018.8z"/>
<path class="st28" d="M828.5,1013.4h41v5.7h-41V1013.4z"/>
<path class="st8" d="M870.1,1019.8h-42.2v-7h42.2V1019.8z M829.1,1018.5h39.7v-4.5h-39.7V1018.5z"/>
<path class="st8" d="M831.8,989v3.7l17-2.6L831.8,989z"/>
<path class="st8" d="M831.8,993.2c-0.1,0-0.2,0-0.3-0.1s-0.1-0.2-0.1-0.3V989c0-0.1,0-0.2,0.1-0.3s0.2-0.1,0.3-0.1l17,1.1
	c0.2,0,0.4,0.2,0.4,0.4s-0.2,0.4-0.4,0.4L831.8,993.2L831.8,993.2L831.8,993.2z M832.2,989.5v2.8l12.8-2L832.2,989.5z"/>
<path class="st27" d="M1077,535c0,0,0.6,1,5-1.1s11.7-9.6,11.7-9.6l-7.2-6.5c1.5-1.5,3-2.9,4.7-4.2c2.7-1.9,3.2-2,4.8-3.6
	c0.8-0.8-0.6-1.8-2.4-1.2c-10.1,3.3-16.5,9-22.1,17.4c-0.5,0.7-1,1.5-1.4,2.3c-0.6,0.9-1.1,1.9-1.5,2.9"/>
<path class="st8" d="M1077.8,535.9c-0.8,0-1.2-0.3-1.3-0.6l1.1-0.6c0-0.1-0.1-0.1-0.1-0.1s0.8,0.4,4.3-1.2c3.7-1.7,9.5-7.4,11.1-9.1
	l-6.7-6.1c-0.3-0.2-0.3-0.6,0-0.9l0,0c1.5-1.6,3.1-3,4.8-4.3c0.9-0.6,1.6-1.1,2.1-1.5c1-0.6,1.8-1.3,2.6-2.1c0-0.2-0.7-0.5-1.8-0.1
	c-9.3,3-15.8,8.2-21.7,17.2c-0.5,0.7-1,1.5-1.4,2.2c-0.6,0.9-1.1,1.9-1.5,2.9l-1.1-0.5c0.5-1,1-2,1.6-3c0.4-0.8,0.9-1.5,1.4-2.3
	c6.1-9.3,12.8-14.5,22.4-17.7c1.6-0.5,2.9-0.1,3.3,0.6c0.3,0.5,0.2,1.1-0.2,1.5c-0.8,0.8-1.8,1.6-2.8,2.2c-0.5,0.4-1.2,0.8-2.1,1.4
	c-1.5,1.1-2.9,2.3-4.2,3.7l6.7,6.1c0.3,0.2,0.3,0.6,0,0.9l0,0c-0.3,0.3-7.4,7.7-11.9,9.8C1080.9,535.2,1079.3,535.7,1077.8,535.9
	L1077.8,535.9z"/>
<path class="st7" d="M892.8,546c12-9.5,25.9-9.9,33.2-10.1c9.6-0.2,37.4-3.7,40.6,11.6c2.4,11.9-6.6,37.6-4.5,60.8
	s18.3,64.8,18.3,64.8H862.3c0,0,14.8-30.5,15.9-53.5C879.4,595.7,870.5,563.7,892.8,546z"/>
<path class="st8" d="M981.4,673.8H861.3l0.4-0.9c0.1-0.3,14.7-30.7,15.9-53.3c0.3-5.8,0-11.9-0.3-18.4c-0.9-19.7-2-42.1,15.2-55.7
	c12.3-9.7,26.7-10.1,33.6-10.2c1.1,0,2.5-0.1,4-0.2c12-0.6,34.3-1.8,37.2,12.3c1.2,5.6-0.2,14.2-1.7,24.2
	c-1.8,11.4-3.8,24.4-2.7,36.8c2,22.9,18.1,64.2,18.3,64.6L981.4,673.8z M863.2,672.6h116.3c-2.3-6.1-16.2-42.9-18-64.1
	c-1.1-12.5,0.9-25.5,2.8-37.1c1.5-9.8,2.9-18.3,1.8-23.7c-2.7-13.1-24.3-11.9-35.9-11.3c-1.6,0.1-3,0.2-4.1,0.2
	c-6.8,0.2-20.9,0.5-32.9,10c-16.7,13.2-15.7,34.3-14.7,54.6c0.3,6.5,0.6,12.7,0.3,18.6C877.8,640.4,865.7,667.4,863.2,672.6
	L863.2,672.6z"/>
<path class="st27" d="M921.4,734.6l-24.7,116l-36,139.4h-38.3c0,0,10.9-76.1,21.5-147.1s23.7-169.2,23.7-169.2H971"/>
<path class="st8" d="M861.1,990.6h-39.5l0.1-0.7c0.1-0.8,11.1-76.9,21.5-147.1s23.6-168.2,23.7-169.2l0.1-0.5h104v1.2H868.1
	c-1.1,8-13.6,101.2-23.6,168.6c-9.9,66.5-20.3,138.4-21.4,146.4h37.1L896,850.4l24.7-116l1.2,0.3l-24.7,116L861.1,990.6z"/>
<path class="st27" d="M920,737.9c0,0,24.9,92.6,25.4,102.8s8.7,148.8,8.7,148.8l40.9,0.7c0,0,6.9-133,6.9-154
	s-26.7-162.4-26.7-162.4H931"/>
<path class="st8" d="M995.6,990.8H995l-41.5-0.8v-0.6c-0.1-1.4-8.2-138.8-8.7-148.8S919.6,738.9,919.4,738l1.2-0.3
	c1,3.8,25,92.8,25.4,102.9c0.5,9.7,8.1,138.5,8.6,148.2l39.7,0.7c0.5-9.8,6.9-133.3,6.9-153.4c0-20.1-24.8-152.5-26.6-161.8h-43.7
	v-1.2h44.8l0.1,0.5c0.3,1.4,26.7,141.7,26.7,162.5s-6.8,152.8-6.9,154.1V990.8z"/>
<path class="st27" d="M930.9,516.5l7.8,18.9c0,0-5.9,7.7-14.9,6.8s-11-4-11-4c1.7-3.1,3.2-6.2,4.6-9.4c2.2-6.1,1.1-9.9-0.7-12.5"/>
<path class="st8" d="M925.2,543c-0.5,0-1,0-1.5-0.1c-9.2-0.9-11.4-4.2-11.5-4.3c-0.1-0.2-0.1-0.4,0-0.6c1.7-3,3.2-6.1,4.6-9.3
	c2.4-6.5,0.8-9.9-0.6-12l1-0.7c2.5,3.6,2.7,7.8,0.8,13.1c-1.3,3.1-2.8,6.2-4.5,9.1c0.7,0.7,3.3,2.8,10.3,3.5c7.6,0.7,13-5,14.2-6.3
	l-7.7-18.6l1.2-0.5l7.8,18.9c0.1,0.2,0.1,0.4-0.1,0.6C939,536.1,933.6,543,925.2,543L925.2,543z"/>
<path class="st27" d="M918.6,495.3c-4.5,3-7,8.3-6.3,13.7c-7.1-1.1-6.6,5.6-3,7.9s7.2,0.6,7.3,0.7l-0.1-0.2
	c5.6,5.5,14.7,5.4,20.2-0.3c5.5-5.6,5.4-14.7-0.3-20.2C931.6,492.3,924.2,491.6,918.6,495.3L918.6,495.3z"/>
<path class="st8" d="M926.5,522c-3.7,0-7.3-1.4-10-3.8c-2.5,0.9-5.3,0.5-7.5-0.9s-3.4-4.4-2.5-6.6c0.3-0.9,1.5-2.8,5.2-2.5
	c-0.6-8.2,5.5-15.4,13.7-16s15.4,5.5,16,13.7c0.6,8.2-5.5,15.4-13.7,16C927.3,522,926.9,522,926.5,522L926.5,522z M916.5,516.8
	c0.2,0,0.3,0.1,0.4,0.2c4.6,4.4,11.7,5.1,17,1.6c6.3-4.2,8-12.6,3.9-18.9s-12.6-8-18.9-3.9c-4.3,2.9-6.7,7.9-6,13.1
	c0,0.2,0,0.4-0.2,0.5c-0.1,0.1-0.3,0.2-0.5,0.2c-2.5-0.4-4.1,0.2-4.6,1.6c-0.6,1.6,0.3,4,2,5.1c1.9,1.2,4.2,1.5,6.4,0.8
	c0-0.1,0.1-0.1,0.2-0.2C916.3,516.8,916.4,516.8,916.5,516.8L916.5,516.8z"/>
<path class="st8" d="M919,518.7c0,0,3.8,9.9,15.6,7c0.1,0,0.5-0.2,0.6-0.2l-2.5-4.8c0,0-5.7,1.2-8.3,0.3
	C922.6,520.4,920.8,519.6,919,518.7L919,518.7z"/>
<path class="st8" d="M935.7,510.4c-4.4,13.1-9.7,14.6-15.1,18.2s-8.4,8-28,1.2c-12.5-4.4-6.2,10.1-24.5,11.8s-34.7-19.5-16.1-15.4
	s1.1-13.1,17.3-20.2s17.4,3.3,22.5-13.3s14.9-20.9,28.4-15.8S940.1,497.3,935.7,510.4L935.7,510.4z"/>
<path class="st8" d="M906.9,737.3h13.9v1.2h-13.9V737.3z"/>
<path class="st8" d="M872.7,692.9h20.5v1.2h-20.5V692.9z"/>
<path class="st8" d="M925,692.9h20.5v1.2H925V692.9z"/>
<path class="st8" d="M869.3,673.7l-3.6,7.9l106.5-7.9H869.3z"/>
<path class="st8" d="M864.7,682.3l4.2-9.2h103.3v1.2L864.7,682.3z M869.7,674.3l-3,6.6l88.7-6.6H869.7z"/>
<path class="st7" d="M958.9,538.6c0,0,24.7,11.4,35.2,17.8s23.7,14.4,26.5,13.8s15.4-11.4,27.5-24.4s16-16.5,16-16.5l17.9,9.3
	c0,0-19.8,27-33,41.7s-19.2,19.7-24.7,20.6c-20.6,3.5-66-17.5-66-17.5"/>
<path class="st8" d="M1019.1,601.9c-8.6,0-20.6-2.6-35.7-7.9c-13.8-4.8-25.2-10-25.3-10.1l0.5-1.1c0.5,0.2,45.4,20.8,65.6,17.4
	c5.2-0.9,11.2-5.9,24.3-20.4c12-13.3,29.6-37,32.5-41l-16.8-8.7c-1.1,1.1-5.6,5.3-15.6,16.2c-11.3,12.2-24.6,23.9-27.8,24.6
	c-2.7,0.6-12.5-5.2-26.1-13.4l-0.8-0.5c-10.3-6.2-34.9-17.6-35.1-17.7l0.5-1.1c0.2,0.1,24.9,11.5,35.3,17.8l0.8,0.5
	c9.1,5.5,22.8,13.8,25.2,13.3c2.3-0.5,14.3-10.4,27.1-24.2c12-12.9,15.9-16.4,16-16.5l0.3-0.3l18.9,9.8l-0.4,0.6
	c-0.2,0.3-19.9,27.2-33,41.7c-13.5,15-19.4,19.9-25,20.8C1022.6,601.8,1020.8,601.9,1019.1,601.9L1019.1,601.9z"/>
<path class="st29" d="M1530.9,362h2v56h-2V362z"/>
<path class="st30" d="M1579.5,473.1l-97.3-30.4l1.9-41.4l97.3,30.4L1579.5,473.1z M1484.3,441.3l93.4,29.2l1.7-37.3L1486,404
	L1484.3,441.3z"/>
<path class="st31" d="M407.2,288.7c-0.6,0-14.6-1-25.8-10.7c-11.1-9.6-14.3-19.8-16-34.1c-1.6-13.7-3-22.5-10.7-30.7
	s-23.7-8.4-23.9-8.4v-2c0.7,0,17,0.2,25.3,9c8.2,8.7,9.6,17.7,11.3,31.8c1.6,13.8,4.7,23.6,15.3,32.8c10.7,9.3,24.5,10.3,24.6,10.3
	L407.2,288.7z"/>
<path class="st6" d="M407.1,285.5c-0.5-0.1-13.1-1.5-22-9.9c-8.9-8.5-11.5-19-13.1-34.4c-1.5-15.1-8.3-28.6-17.6-35
	c-9.3-6.5-23.4-4.4-23.5-4.4l-0.3-2c0.6-0.1,15.1-2.2,25,4.7c9.8,6.8,16.9,20.8,18.5,36.5c1.6,15.2,4,25,12.5,33.1
	c8.3,8,20.7,9.4,20.8,9.4L407.1,285.5z"/>
<path class="st6" d="M407.1,282.4c-4.1-0.8-8-2.2-11.6-4.1l1-1.8c3.4,1.8,7.1,3.2,11,3.9L407.1,282.4z M386.4,269.9
	c-2.2-3.5-3.7-7.3-4.7-11.3l1.9-0.5c0.9,3.8,2.4,7.4,4.4,10.7L386.4,269.9z M379.6,246.6c-0.3-2.4-0.6-5-0.8-8
	c-0.1-1.3-0.3-2.6-0.5-3.9l2-0.3c0.2,1.3,0.4,2.7,0.5,4c0.3,3,0.5,5.6,0.8,7.9L379.6,246.6z M375.5,223.3c-1.3-3.7-3-7.2-5.2-10.5
	l1.7-1.1c2.2,3.4,4.1,7.1,5.4,11L375.5,223.3z M362.4,204.2c-1.5-1.1-3.1-2.1-4.7-2.9c-1.8-0.9-3.7-1.6-5.7-2.1l0.5-1.9
	c2.1,0.5,4.1,1.3,6,2.2c1.8,0.9,3.5,1.9,5.1,3.1L362.4,204.2z M331,199l-0.5-1.9c3.2-0.7,6.6-1.1,9.9-1.1v2
	C337.3,198,334.1,198.3,331,199z"/>
<path class="st6" d="M443.5,263.2l-0.5-1.9c3.8-1.1,7.5-2.5,11-4.2l0.9,1.8C451.3,260.7,447.5,262.1,443.5,263.2z M465.4,252.5
	l-1.2-1.6c2.2-1.7,4.2-3.7,6-5.9c0.6-0.8,1.2-1.7,1.9-2.7l1.7,1.1c-0.7,1-1.3,1.9-2,2.8C469.8,248.6,467.7,250.7,465.4,252.5
	L465.4,252.5z M479.9,233.1l-1.7-1l1.6-2.8c1.4-2.5,2.9-5.1,4.4-7.6l1.7,1c-1.5,2.6-2.9,5.1-4.3,7.6L479.9,233.1z M492.1,212.6
	l-1.6-1.1c2.3-3.4,4.8-6.5,7.7-9.4l1.4,1.4C496.8,206.2,494.4,209.3,492.1,212.6L492.1,212.6z M509,196.6l-0.9-1.8
	c3.6-1.9,7.3-3.4,11.2-4.7l0.6,1.9C516.2,193.2,512.5,194.7,509,196.6L509,196.6z M585.5,190.5c0,0-2.6-0.7-6.8-1.5l0.4-2
	c4.3,0.8,6.8,1.5,6.9,1.6L585.5,190.5z M531.4,189.1l-0.4-2c3.8-0.7,7.9-1.3,12-1.7l0.2,2C539.1,187.8,535.2,188.4,531.4,189.1
	L531.4,189.1z M567,187.3c-3.7-0.3-7.3-0.5-10.8-0.5h-1v-2h1.1c3.6,0,7.3,0.2,11,0.5L567,187.3z"/>
<path class="st6" d="M440.6,263.2l-0.5-1.9c0.2,0,17.1-4.3,24.2-16c2.8-4.5,5.5-10.9,8.5-17.6c4.9-11.1,10.5-23.7,17.4-31.5
	c9.1-10.1,30.3-33.8,96.6-33.1v2c-27.5-0.3-50.1,3.5-67.2,11.4c-13.6,6.3-21.4,13.8-27.9,21c-6.7,7.5-12.2,20-17.1,31
	c-3,6.8-5.8,13.1-8.6,17.8C458.5,258.7,441.3,263,440.6,263.2L440.6,263.2z"/>
<path class="st31" d="M437.6,263.2l-0.4-1.9c0.2,0,16-3.8,21.4-15.7c2.5-5.5,4.8-13,7.3-20.9c3.2-10.3,6.5-21,10.8-29.5
	c4.5-9,31.1-53.8,109-54.7v2c-76.8,0.9-102.8,44.8-107.3,53.6c-4.2,8.4-7.5,19-10.7,29.2c-2.5,8-4.8,15.5-7.4,21.1
	C454.6,259.2,438.3,263.1,437.6,263.2L437.6,263.2z"/>
<path class="st6" d="M220.1,418.8c-3.9-1.1-7.7-2.6-11.4-4.3l0.9-1.8c3.6,1.7,7.2,3.1,11,4.2L220.1,418.8z M198.3,408.1
	c-2.4-1.8-4.5-3.9-6.3-6.3c-0.6-0.8-1.3-1.7-2-2.8l1.7-1.1c0.7,1,1.3,1.9,1.9,2.7c1.7,2.2,3.7,4.2,6,5.9L198.3,408.1z M183.7,388.7
	l-1.6-2.8c-1.4-2.5-2.9-5.1-4.3-7.6l1.7-1c1.5,2.6,3,5.1,4.4,7.6l1.6,2.8L183.7,388.7z M171.5,368.2c-2.2-3.3-4.7-6.3-7.5-9.2
	l1.4-1.4c2.8,2.9,5.4,6.1,7.7,9.4L171.5,368.2z M154.6,352.1c-3.4-1.9-7-3.5-10.8-4.8l0.6-1.9c3.9,1.3,7.6,2.9,11.1,4.9L154.6,352.1
	z M132.3,344.8c-3.5-0.5-7.3-0.8-11.9-1l0.1-2c4.6,0.2,8.5,0.5,12,1L132.3,344.8z"/>
<path class="st6" d="M223,418.8c-0.7-0.2-17.9-4.5-25.5-16.9c-2.8-4.6-5.6-11-8.6-17.8c-4.8-11-10.3-23.4-17.1-31
	c-9.6-10.7-26.1-23.9-68.9-30.4l0.3-2c43.4,6.6,60.3,20.1,70.1,31.1c7,7.8,12.5,20.4,17.4,31.5c3,6.7,5.7,13,8.5,17.5
	c7.1,11.7,24.1,16,24.2,16L223,418.8z"/>
<path class="st31" d="M226,418.8c-0.7-0.2-16.9-4-22.8-16.9c-2.6-5.6-4.9-13.2-7.4-21.1c-3.2-10.2-6.5-20.8-10.7-29.2
	c-11.9-23.6-40.8-40.4-85.9-49.8l0.4-2c45.7,9.6,75,26.7,87.2,50.9c4.3,8.5,7.6,19.2,10.8,29.5c2.5,7.9,4.8,15.4,7.3,20.9
	c5.5,12,21.3,15.7,21.4,15.7L226,418.8z"/>
<path class="st6" d="M253.8,170.9c-0.7-2-3.7-4.8-8.1-7.8l1.1-1.6c3.4,2.3,7.7,5.8,8.8,8.8L253.8,170.9z M179.2,160.2l-1-1.8
	c3.5-2,7.1-3.8,10.9-5.3l0.8,1.9C186.2,156.5,182.7,158.2,179.2,160.2z M235.4,157.1c-3.5-1.8-7.2-3.2-11-4.4l0.6-1.9
	c3.9,1.2,7.6,2.8,11.3,4.6L235.4,157.1z M201.1,151.6l-0.3-2c4-0.7,8.1-0.9,12.1-0.8v2C209,150.7,205,151,201.1,151.6L201.1,151.6z"
	/>
<path class="st6" d="M258.4,170.8c-2.5-8.3-15.2-22.7-32.5-28c-13.8-4.2-34.7-7-74.7,9.6l-0.8-1.8c40.6-16.8,62-14,76.1-9.6
	c11.5,3.5,29.7,15.7,33.8,29.3L258.4,170.8z"/>
<path class="st31" d="M263.5,170.7c-0.9-6.3-5.4-22.4-27.1-36c-22.4-14-55.8-13.4-99.3,1.7l-0.7-1.9c44.1-15.4,78-15.9,101-1.6
	c7.5,4.7,25.1,17.7,28,37.4L263.5,170.7z"/>
<path class="st6" d="M332.9,443c-1.3,0-2.7,0-4-0.1l0.1-2c26.2,0.9,46.6-7.2,60.6-24.1c8.3-10,12.1-23.1,11.8-41.2
	c-0.1-9.7-1.5-18.9-2.8-27.8c-3-20.1-5.6-37.5,8-52.3l1.5,1.4c-12.9,14-10.4,31-7.5,50.6c1.3,8.9,2.7,18.2,2.8,28.1
	c0.2,18.6-3.7,32.1-12.3,42.5C377.3,434.6,357.8,443,332.9,443L332.9,443z"/>
<path class="st6" d="M330.8,440.7c-0.7,0-1.4,0-2,0l0.1-2c3.9,0.1,7.9-0.1,11.8-0.8l0.3,2C337.6,440.4,334.2,440.7,330.8,440.7z
	 M352.8,437l-0.6-1.9c3.7-1.3,7.3-2.9,10.8-4.8l1,1.7C360.3,434,356.6,435.7,352.8,437L352.8,437z M373.9,425.1l-1.3-1.5
	c3-2.5,5.8-5.3,8.3-8.3l1.5,1.3C379.9,419.6,377,422.5,373.9,425.1L373.9,425.1z M389.2,406.3l-1.8-0.9c1.7-3.5,3-7.3,3.9-11.1
	l1.9,0.5C392.3,398.7,390.9,402.6,389.2,406.3L389.2,406.3z M394.9,382.7l-2-0.1c0.2-2.4,0.3-5,0.3-7.8v-1c0-1.1,0-2.1-0.1-3.2
	l2-0.1c0,1.1,0.1,2.1,0.1,3.2v1C395.2,377.6,395.1,380.3,394.9,382.7L394.9,382.7z M392.1,358.9c-0.3-2.7-0.7-5.3-1.1-7.9
	c-0.2-1.3-0.4-2.7-0.6-4l2-0.3c0.2,1.3,0.4,2.6,0.6,4c0.4,2.6,0.8,5.2,1.1,7.9L392.1,358.9z M389.2,335c0-1.1-0.1-2.1-0.1-3.1v-0.3
	c0-3,0.2-5.9,0.5-8.8l2,0.2c-0.3,2.9-0.5,5.7-0.5,8.6v0.2c0,0.9,0,1.9,0.1,3L389.2,335z M394.2,311.6l-1.9-0.7
	c1.4-3.9,3.5-7.5,6.2-10.6l1.5,1.3C397.5,304.6,395.6,308,394.2,311.6L394.2,311.6z"/>
<path class="st31" d="M329.6,438.4c-0.3,0-0.5,0-0.8,0l0.1-2c8.6,0.3,23.6-4.3,34.5-13.4c5.1-4.2,9.5-9.1,13.2-14.6
	c5.9-9.1,8.6-20.3,8.5-36.2c0-7.7-1.1-15-2.2-22c-1.3-8.2-2.5-15.9-1.6-23.1c1.6-13,7.3-29.8,25.6-36.1l0.7,1.9
	c-17.4,6-22.8,22-24.3,34.4c-0.8,7,0.3,14.5,1.6,22.6c1.1,7.1,2.2,14.4,2.2,22.3c0,16.3-2.7,27.8-8.9,37.3
	c-3.7,5.7-8.3,10.7-13.6,15C352.4,434.8,337.3,438.4,329.6,438.4L329.6,438.4z"/>
<path class="st31" d="M329,436.1c-0.1,0-0.1,0-0.2,0l0.1-2c3.9,0.1,19.3-4.4,30.2-15.5c4.3-4.3,8-9.1,10.9-14.4
	c4.7-8.7,6.9-19.1,6.9-33.7c0-7.8-1.2-15.1-2.4-22.1c-1.5-9.2-3-17.8-1.1-25.8c2.1-9,9.6-30.2,33.6-33.7l0.3,2
	c-22.8,3.3-30,23.6-32,32.2c-1.8,7.6-0.4,16.1,1.1,25c1.2,7.1,2.4,14.5,2.4,22.5c-0.1,15-2.3,25.7-7.1,34.6
	c-3,5.5-6.8,10.5-11.3,14.9C349.2,431.5,333.7,436.1,329,436.1L329,436.1z"/>
<path class="st32" d="M220.3,400.9l0.1,76l70.4,9.9l-0.1-76L220.3,400.9z"/>
<path class="st33" d="M290.9,486.8l43-23.4l-0.1-76l-43,23.4L290.9,486.8z"/>
<path class="st34" d="M290.8,410.8l43-23.4l-70.4-9.9l-43,23.4L290.8,410.8z"/>
<path class="st32" d="M394,289.8l0.1-33.5l31-4.4l-0.1,33.5L394,289.8z"/>
<path class="st33" d="M425.2,251.9l18.9,10.3l-0.1,33.5l-18.9-10.3L425.2,251.9z"/>
<path class="st34" d="M425.1,285.4l18.9,10.3l-31,4.4l-19-10.3L425.1,285.4z"/>
<path class="st32" d="M341.8,207.6l-0.1-55.2l-51.1-7.2l0.1,55.2L341.8,207.6z"/>
<path class="st34" d="M290.5,145.2l-31.2,17l0.1,55.2l31.2-17L290.5,145.2z"/>
<path class="st33" d="M290.6,200.4l-31.2,17l51.1,7.2l31.2-17L290.6,200.4z"/>
<path class="st1" d="M981.3,121.1h1.7v71.6h-1.7V121.1z"/>
<path class="st35" d="M832.7,326.9c0-1.1,0.8-2,1.9-2.1c1.1,0,2,0.8,2.1,1.9c0,1.1-0.8,2-1.9,2.1l0,0h-0.1
	C833.6,328.8,832.7,327.9,832.7,326.9z M822.5,328.4c-1.1-0.1-1.9-1.1-1.8-2.2c0.1-1.1,1.1-1.9,2.2-1.8c1.1,0.1,1.9,1.1,1.8,2.2
	c-0.1,1-1,1.8-2,1.8C822.6,328.4,822.6,328.4,822.5,328.4L822.5,328.4z M1006.3,326.4c0-1.1,0.9-2,2-2s2,0.9,2,2l0,0
	c0,1.1-0.9,2-2,2l0,0C1007.2,328.3,1006.3,327.5,1006.3,326.4L1006.3,326.4z M996.1,327.8c-1.1-0.1-1.9-1.1-1.8-2.2l0,0
	c0.1-1.1,1.1-1.9,2.2-1.8l0,0c1.1,0.1,1.9,1.1,1.8,2.2l0,0c-0.1,1-1,1.8-2,1.8C996.3,327.8,996.2,327.8,996.1,327.8L996.1,327.8z
	 M844.6,326c-0.2-1.1,0.6-2.1,1.6-2.3l0,0c1.1-0.2,2.1,0.6,2.3,1.7s-0.6,2.1-1.6,2.3l0,0c-0.1,0-0.2,0-0.3,0
	C845.6,327.7,844.8,327,844.6,326L844.6,326z M1018.3,325.8c-0.1-1.1,0.6-2.1,1.7-2.2c1.1-0.1,2.1,0.6,2.2,1.7l0,0
	c0.1,1.1-0.6,2.1-1.7,2.2l0,0c-0.1,0-0.2,0-0.3,0C1019.3,327.5,1018.4,326.8,1018.3,325.8L1018.3,325.8z M810.4,326.4
	c-1.1-0.3-1.7-1.3-1.5-2.4l0,0c0.3-1.1,1.3-1.7,2.4-1.5c1.1,0.3,1.7,1.3,1.5,2.4c-0.2,0.9-1,1.5-1.9,1.5
	C810.7,326.5,810.6,326.5,810.4,326.4L810.4,326.4z M984,325.7c-1.1-0.3-1.7-1.3-1.5-2.4l0,0c0.3-1.1,1.3-1.7,2.4-1.5
	c1.1,0.3,1.7,1.3,1.5,2.4l0,0c-0.2,0.9-1,1.5-1.9,1.5C984.4,325.7,984.2,325.7,984,325.7L984,325.7z M1030.1,323.6
	c-0.3-1.1,0.3-2.2,1.4-2.5l0,0c1.1-0.3,2.2,0.3,2.5,1.4s-0.3,2.2-1.4,2.5c-0.2,0.1-0.4,0.1-0.6,0.1
	C1031.1,325.1,1030.3,324.5,1030.1,323.6L1030.1,323.6z M856.4,323.5c-0.3-1.1,0.3-2.2,1.3-2.5c1.1-0.3,2.2,0.3,2.5,1.3l0,0
	c0.3,1.1-0.3,2.2-1.3,2.5c-0.2,0.1-0.4,0.1-0.6,0.1C857.4,324.9,856.6,324.4,856.4,323.5L856.4,323.5z M798.7,322.6
	c-1-0.4-1.5-1.6-1.1-2.6s1.6-1.5,2.6-1.1s1.5,1.6,1.1,2.6l0,0c-0.3,0.7-1,1.2-1.8,1.2C799.2,322.7,798.9,322.7,798.7,322.6
	L798.7,322.6z M972.4,321.9c-1-0.4-1.5-1.6-1.1-2.6s1.6-1.5,2.6-1.1l0,0c1,0.4,1.5,1.6,1.1,2.6c-0.3,0.7-1,1.2-1.8,1.2
	C972.9,322,972.6,322,972.4,321.9L972.4,321.9z M1041.4,319.7c-0.5-1,0-2.2,1-2.7s2.2,0,2.7,1s0,2.2-0.9,2.7
	c-0.3,0.1-0.6,0.2-0.9,0.2C1042.4,320.8,1041.7,320.4,1041.4,319.7L1041.4,319.7z M867.6,319.4c-0.5-1-0.1-2.2,0.9-2.7l0,0
	c1-0.5,2.2-0.1,2.7,0.9l0,0c0.5,1,0.1,2.2-0.9,2.7l0,0c-0.3,0.1-0.6,0.2-0.9,0.2C868.7,320.5,868,320.1,867.6,319.4L867.6,319.4z
	 M787.7,317c-0.9-0.6-1.2-1.8-0.7-2.7c0.6-0.9,1.8-1.3,2.7-0.7l0,0c0.9,0.6,1.2,1.8,0.7,2.8c-0.4,0.6-1,1-1.7,1
	C788.4,317.3,788.1,317.2,787.7,317L787.7,317z M961.4,316.3c-0.9-0.6-1.3-1.8-0.7-2.7c0.6-1,1.8-1.3,2.8-0.7
	c0.9,0.6,1.2,1.8,0.7,2.8c-0.4,0.6-1,1-1.7,1C962.1,316.6,961.7,316.5,961.4,316.3L961.4,316.3z M1052,314c-0.6-0.9-0.4-2.2,0.5-2.8
	l0,0c0.9-0.6,2.1-0.4,2.8,0.5l0,0c0.6,0.9,0.4,2.1-0.5,2.8l0,0c-0.3,0.2-0.7,0.4-1.1,0.4C1052.9,314.8,1052.3,314.5,1052,314
	L1052,314z M878.2,313.7c-0.6-0.9-0.4-2.2,0.5-2.8c0.9-0.6,2.2-0.4,2.8,0.5l0,0c0.6,0.9,0.4,2.2-0.5,2.8c-0.3,0.2-0.7,0.3-1.1,0.3
	C879.2,314.5,878.5,314.2,878.2,313.7L878.2,313.7z M777.8,309.8c-0.8-0.7-0.9-2-0.2-2.8s2-0.9,2.8-0.2l0,0c0.8,0.7,0.9,2,0.2,2.8
	l0,0c-0.4,0.4-0.9,0.7-1.5,0.7C778.6,310.3,778.1,310.1,777.8,309.8L777.8,309.8z M951.3,309.5c-0.9-0.7-1.1-1.9-0.4-2.8
	c0.7-0.9,1.9-1.1,2.8-0.4c0.9,0.7,1.1,1.9,0.4,2.8c-0.4,0.5-1,0.8-1.6,0.8C952.1,309.9,951.6,309.7,951.3,309.5L951.3,309.5z
	 M1061.4,306.6c-0.8-0.8-0.7-2.1,0.1-2.8c0.8-0.8,2.1-0.7,2.8,0l0,0c0.8,0.8,0.7,2.1,0,2.8l0,0c-0.4,0.4-0.9,0.6-1.4,0.6
	C1062.3,307.3,1061.8,307,1061.4,306.6L1061.4,306.6z M887.8,306.5c-0.7-0.8-0.7-2.1,0.2-2.8l0,0c0.8-0.7,2.1-0.7,2.8,0.1l0,0
	c0.7,0.8,0.7,2.1-0.2,2.8c-0.4,0.3-0.8,0.5-1.3,0.5C888.7,307.2,888.2,307,887.8,306.5L887.8,306.5z M941.9,301.8
	c-0.8-0.7-0.9-2-0.2-2.8s2-0.9,2.8-0.2c0.8,0.7,0.9,2,0.2,2.8c-0.4,0.4-0.9,0.7-1.5,0.7C942.7,302.3,942.3,302.1,941.9,301.8
	L941.9,301.8z M769.1,301.1c-0.7-0.8-0.6-2.1,0.2-2.8l0,0c0.8-0.7,2.1-0.6,2.8,0.2c0.7,0.8,0.6,2.1-0.2,2.8l0,0
	c-0.4,0.3-0.8,0.5-1.3,0.5C770,301.8,769.5,301.5,769.1,301.1L769.1,301.1z M896.4,298.1c-0.8-0.7-1-2-0.3-2.8l0,0
	c0.7-0.8,2-0.9,2.8-0.2l0,0c0.8,0.7,0.9,2,0.2,2.8l0,0c-0.4,0.4-0.9,0.7-1.5,0.7C897.2,298.6,896.7,298.4,896.4,298.1L896.4,298.1z
	 M1069.6,297.8c-0.9-0.7-1.1-1.9-0.4-2.8s1.9-1.1,2.8-0.4l0,0c0.9,0.7,1.1,1.9,0.4,2.8c-0.4,0.5-1,0.8-1.6,0.8
	C1070.3,298.2,1069.9,298.1,1069.6,297.8L1069.6,297.8z M762,291c-0.6-0.9-0.3-2.2,0.7-2.7l0,0c0.9-0.6,2.2-0.3,2.7,0.7l0,0
	c0.6,0.9,0.3,2.2-0.7,2.7l0,0c-0.3,0.2-0.7,0.3-1,0.3C763,292,762.3,291.6,762,291L762,291z M903.7,288.6c-0.9-0.6-1.2-1.8-0.6-2.8
	l0,0c0.6-0.9,1.8-1.2,2.8-0.6c0.9,0.6,1.2,1.8,0.6,2.8l0,0c-0.4,0.6-1,0.9-1.7,0.9C904.4,288.9,904,288.8,903.7,288.6L903.7,288.6z
	 M1076.1,287.8c-1-0.5-1.4-1.7-0.9-2.7s1.7-1.4,2.7-0.9s1.4,1.7,0.9,2.7l0,0c-0.3,0.7-1,1.1-1.8,1.1
	C1076.7,288,1076.4,287.9,1076.1,287.8L1076.1,287.8z M756.5,280c-0.4-1,0.1-2.2,1.1-2.6l0,0c1-0.4,2.2,0.1,2.6,1.1
	c0.4,1-0.1,2.2-1.1,2.6c-0.2,0.1-0.5,0.1-0.8,0.1C757.6,281.3,756.8,280.8,756.5,280L756.5,280z M909.6,278.2c-1-0.5-1.4-1.6-1-2.6
	l0,0c0.5-1,1.6-1.4,2.6-1c1,0.5,1.4,1.6,1,2.6c-0.3,0.7-1,1.2-1.8,1.2C910.2,278.4,909.9,278.3,909.6,278.2L909.6,278.2z
	 M1080.9,276.8c-1-0.3-1.6-1.5-1.3-2.5c0.3-1.1,1.5-1.6,2.5-1.3c1.1,0.3,1.6,1.5,1.3,2.5l0,0c-0.3,0.8-1,1.4-1.9,1.4
	C1081.3,276.9,1081.1,276.9,1080.9,276.8L1080.9,276.8z M752.8,268.3c-0.3-1.1,0.4-2.2,1.5-2.4c1.1-0.2,2.1,0.4,2.4,1.5
	c0.3,1.1-0.4,2.2-1.5,2.4l0,0c-0.1,0-0.3,0-0.4,0C753.8,269.8,753,269.2,752.8,268.3L752.8,268.3z M914.1,267.1
	c-1.1-0.3-1.7-1.4-1.3-2.5c0.3-1.1,1.4-1.7,2.5-1.3c1.1,0.3,1.7,1.4,1.3,2.5c-0.3,0.8-1,1.4-1.9,1.4
	C914.5,267.2,914.3,267.1,914.1,267.1L914.1,267.1z M1084,265.2c-1.1-0.2-1.8-1.2-1.6-2.3c0.2-1.1,1.2-1.8,2.3-1.6
	c1.1,0.2,1.8,1.2,1.6,2.3l0,0c-0.2,1-1,1.7-2,1.7C1084.2,265.2,1084.1,265.2,1084,265.2L1084,265.2z M750.9,256.2L750.9,256.2
	c-0.1-1.1,0.7-2.1,1.8-2.2l0,0c1.1-0.1,2.1,0.7,2.2,1.8l0,0c0.1,1.1-0.7,2.1-1.8,2.2c-0.1,0-0.1,0-0.2,0
	C751.8,258,751,257.2,750.9,256.2L750.9,256.2z M917.1,255.5c-1.1-0.2-1.8-1.3-1.5-2.4c0.2-1.1,1.3-1.8,2.4-1.5
	c1.1,0.2,1.8,1.3,1.5,2.4c-0.2,0.9-1,1.6-2,1.6C917.4,255.5,917.3,255.5,917.1,255.5L917.1,255.5z M1085.5,253.3c-1.1,0-2-1-1.9-2.1
	l0,0c0-1.1,1-2,2.1-1.9l0,0c1.1,0,2,1,1.9,2.1l0,0C1087.5,252.5,1086.6,253.3,1085.5,253.3L1085.5,253.3z M752.5,246
	c-1.1,0-2-1-1.9-2.1l0,0c0-1.1,1-2,2.1-1.9l0,0c1.1,0,2,1,1.9,2.1l0,0C754.5,245.2,753.7,246,752.5,246L752.5,246z M919.7,243.8
	c-1.1-0.2-1.8-1.3-1.5-2.4c0.2-1.1,1.3-1.8,2.4-1.5l0,0c1.1,0.3,1.7,1.3,1.5,2.4c-0.2,0.9-1,1.6-2,1.6
	C920,243.8,919.9,243.8,919.7,243.8L919.7,243.8z M1083.3,239.5c-0.1-1.1,0.7-2.1,1.8-2.2l0,0c1.1-0.1,2.1,0.7,2.2,1.8l0,0
	c0.1,1.1-0.7,2.1-1.8,2.2c-0.1,0-0.1,0-0.2,0C1084.2,241.3,1083.4,240.5,1083.3,239.5L1083.3,239.5z M753.5,234.1
	c-1.1-0.2-1.8-1.2-1.6-2.3s1.2-1.8,2.3-1.6l0,0c1.1,0.2,1.8,1.2,1.6,2.3l0,0c-0.2,1-1,1.7-2,1.7
	C753.7,234.1,753.6,234.1,753.5,234.1L753.5,234.1z M922.7,232.1c-1-0.4-1.6-1.5-1.2-2.5l0,0l0,0c0.3-1,1.5-1.6,2.5-1.3l0,0
	c1,0.3,1.6,1.5,1.3,2.5l0,0c-0.3,0.8-1,1.4-1.9,1.4C923.1,232.3,922.9,232.2,922.7,232.1L922.7,232.1z M1081.5,227.9
	c-0.2-1.1,0.4-2.1,1.5-2.4c1.1-0.2,2.1,0.4,2.4,1.5l0,0c0.2,1.1-0.4,2.1-1.5,2.4c-0.1,0-0.3,0-0.4,0.1
	C1082.5,229.5,1081.7,228.8,1081.5,227.9L1081.5,227.9z M756.1,222.4c-1-0.4-1.6-1.5-1.3-2.5s1.5-1.6,2.5-1.3l0,0
	c1,0.3,1.6,1.5,1.3,2.5l0,0c-0.3,0.8-1,1.4-1.9,1.4C756.5,222.5,756.3,222.4,756.1,222.4L756.1,222.4z M927.1,221
	c-1-0.5-1.4-1.7-0.9-2.7s1.7-1.4,2.7-0.9s1.4,1.7,0.9,2.7c-0.3,0.7-1,1.1-1.8,1.1C927.6,221.2,927.3,221.1,927.1,221L927.1,221z
	 M1078.1,216.7c-0.4-1,0.1-2.2,1.1-2.6l0,0c1-0.4,2.2,0.1,2.6,1.1l0,0c0.4,1-0.1,2.2-1.1,2.6l0,0c-0.2,0.1-0.5,0.1-0.7,0.1
	C1079.1,218,1078.4,217.5,1078.1,216.7L1078.1,216.7z M760.5,211.2c-1-0.5-1.4-1.7-0.9-2.7l0,0c0.5-1,1.7-1.4,2.7-0.9
	s1.4,1.7,0.9,2.7c-0.3,0.7-1,1.1-1.8,1.1C761.1,211.4,760.8,211.3,760.5,211.2L760.5,211.2z M932.8,210.4c-0.9-0.6-1.2-1.8-0.6-2.8
	c0.6-0.9,1.8-1.2,2.8-0.6l0,0c0.9,0.6,1.2,1.8,0.6,2.8l0,0c-0.4,0.6-1,0.9-1.7,0.9C933.5,210.7,933.1,210.6,932.8,210.4L932.8,210.4
	z M1073,206.2c-0.6-1-0.2-2.2,0.7-2.7c1-0.6,2.2-0.2,2.7,0.7c0.6,1,0.2,2.2-0.7,2.7c-0.3,0.2-0.7,0.3-1,0.3
	C1074.1,207.2,1073.4,206.8,1073,206.2L1073,206.2z M766.5,200.8c-0.9-0.7-1.1-1.9-0.4-2.8l0,0l0,0c0.7-0.9,1.9-1.1,2.8-0.4l0,0
	c0.9,0.7,1.1,1.9,0.4,2.8c-0.4,0.5-1,0.8-1.6,0.8C767.3,201.2,766.9,201.1,766.5,200.8L766.5,200.8z M939.8,200.7
	c-0.8-0.7-0.9-2-0.2-2.8l0,0c0.7-0.8,2-0.9,2.8-0.2l0,0c0.8,0.7,0.9,2,0.2,2.8c-0.4,0.4-0.9,0.7-1.5,0.7
	C940.6,201.1,940.1,201,939.8,200.7L939.8,200.7z M1066.3,196.7c-0.7-0.8-0.6-2.1,0.2-2.8c0.8-0.7,2.1-0.6,2.8,0.2l0,0
	c0.7,0.8,0.6,2.1-0.2,2.8c-0.4,0.3-0.8,0.5-1.3,0.5S1066.7,197.1,1066.3,196.7L1066.3,196.7z M893.5,196.7L893.5,196.7
	c-0.8-0.7-0.9-2-0.2-2.8l0,0c0.7-0.8,2-0.9,2.8-0.2l0,0c0.8,0.7,0.9,2,0.2,2.8c-0.4,0.4-0.9,0.7-1.5,0.7
	C894.3,197.2,893.8,197,893.5,196.7L893.5,196.7z M947.9,191.9c-0.7-0.8-0.7-2.1,0.1-2.8l0,0c0.8-0.7,2.1-0.7,2.8,0.1l0,0
	c0.7,0.8,0.7,2.1-0.1,2.8l0,0l0,0c-0.4,0.3-0.8,0.5-1.3,0.5C948.8,192.5,948.3,192.3,947.9,191.9L947.9,191.9z M774.2,191.6
	c-0.8-0.8-0.8-2.1,0-2.8l0,0c0.8-0.8,2.1-0.8,2.8,0l0,0c0.8,0.8,0.8,2.1,0,2.8l0,0c-0.4,0.4-0.9,0.6-1.4,0.6
	C775.1,192.2,774.5,192,774.2,191.6L774.2,191.6z M884.4,189.1c-0.9-0.7-1-1.9-0.4-2.8l0,0c0.7-0.9,1.9-1,2.8-0.4l0,0
	c0.9,0.7,1,1.9,0.4,2.8c-0.4,0.5-1,0.8-1.6,0.8C885.1,189.5,884.7,189.4,884.4,189.1L884.4,189.1z M1058.1,188.4
	c-0.8-0.7-0.9-2-0.2-2.8l0,0c0.7-0.8,2-0.9,2.8-0.2s0.9,2,0.2,2.8l0,0c-0.4,0.4-0.9,0.7-1.5,0.7
	C1058.9,188.9,1058.5,188.7,1058.1,188.4L1058.1,188.4z M957.1,184.2c-0.6-0.9-0.4-2.2,0.5-2.8s2.1-0.4,2.8,0.5l0,0
	c0.6,0.9,0.4,2.1-0.5,2.8l0,0c-0.3,0.2-0.7,0.4-1.1,0.4C958.1,185.1,957.5,184.8,957.1,184.2L957.1,184.2z M783.2,183.7
	c-0.6-0.9-0.4-2.1,0.5-2.8l0,0c0.9-0.6,2.1-0.4,2.8,0.5l0,0c0.6,0.9,0.4,2.1-0.5,2.8c-0.3,0.2-0.7,0.4-1.1,0.4
	C784.2,184.6,783.6,184.2,783.2,183.7L783.2,183.7z M874.7,182.4L874.7,182.4c-0.9-0.6-1.2-1.8-0.7-2.7l0,0c0.6-0.9,1.8-1.2,2.8-0.7
	c0.9,0.6,1.2,1.8,0.7,2.8c-0.4,0.6-1,0.9-1.7,0.9C875.3,182.7,875,182.6,874.7,182.4L874.7,182.4z M1048.7,181.6
	c-0.9-0.6-1.2-1.8-0.7-2.8c0.6-0.9,1.8-1.2,2.8-0.7c0.9,0.6,1.2,1.8,0.7,2.7l0,0c-0.4,0.6-1,1-1.7,1
	C1049.3,181.9,1049,181.8,1048.7,181.6L1048.7,181.6z M967.3,177.8c-0.5-1-0.1-2.2,0.9-2.7s2.2-0.1,2.7,0.9l0,0
	c0.5,1,0.1,2.2-0.9,2.7l0,0c-0.3,0.1-0.6,0.2-0.9,0.2C968.3,178.9,967.6,178.5,967.3,177.8L967.3,177.8z M793.4,177.4
	c-0.5-1-0.1-2.2,0.9-2.7l0,0c1-0.5,2.2-0.1,2.7,0.9s0.1,2.2-0.9,2.7l0,0c-0.3,0.1-0.6,0.2-0.9,0.2
	C794.4,178.5,793.7,178.1,793.4,177.4L793.4,177.4z M864.3,177L864.3,177c-1-0.4-1.5-1.6-1-2.6l0,0c0.4-1,1.6-1.5,2.6-1
	c1,0.4,1.5,1.6,1,2.6c-0.3,0.7-1,1.2-1.8,1.2C864.8,177.2,864.5,177.1,864.3,177L864.3,177z M1038.2,176.3c-1-0.4-1.5-1.6-1.1-2.6
	l0,0c0.4-1,1.6-1.5,2.6-1.1l0,0c1,0.4,1.5,1.6,1.1,2.6l0,0c-0.3,0.7-1,1.2-1.8,1.2C1038.8,176.4,1038.5,176.4,1038.2,176.3
	L1038.2,176.3z M978.3,173.1c-0.3-1,0.2-2.2,1.3-2.5l0,0c1.1-0.3,2.2,0.3,2.5,1.3c0.3,1.1-0.2,2.2-1.3,2.5l0,0
	c-0.2,0.1-0.4,0.1-0.6,0.1C979.3,174.5,978.6,173.9,978.3,173.1L978.3,173.1z M804.4,172.7c-0.3-1.1,0.3-2.2,1.3-2.5l0,0
	c1.1-0.3,2.2,0.3,2.5,1.3c0.3,1.1-0.3,2.2-1.3,2.5c-0.2,0.1-0.4,0.1-0.6,0.1C805.5,174.1,804.7,173.5,804.4,172.7L804.4,172.7z
	 M853.2,173.2c-1.1-0.3-1.7-1.4-1.4-2.4c0.3-1.1,1.4-1.7,2.4-1.4l0,0c1.1,0.3,1.7,1.4,1.4,2.4c-0.2,0.9-1,1.5-1.9,1.5
	C853.6,173.2,853.4,173.2,853.2,173.2L853.2,173.2z M1027.2,172.7c-1.1-0.3-1.7-1.3-1.5-2.4c0.3-1.1,1.3-1.7,2.4-1.5
	c1.1,0.3,1.7,1.3,1.5,2.4c-0.2,0.9-1,1.5-1.9,1.5C1027.5,172.7,1027.3,172.7,1027.2,172.7L1027.2,172.7z M989.9,170
	c-0.2-1.1,0.6-2.1,1.6-2.3l0,0c1.1-0.2,2.1,0.6,2.3,1.6l0,0c0.2,1.1-0.5,2.1-1.6,2.3l0,0l0,0c-0.1,0-0.2,0-0.3,0
	C990.9,171.7,990,171,989.9,170L989.9,170z M816,169.8c-0.2-1.1,0.6-2.1,1.7-2.3l0,0l0,0c1.1-0.2,2.1,0.6,2.3,1.7l0,0
	c0.2,1.1-0.6,2.1-1.7,2.3c-0.1,0-0.2,0-0.3,0C817,171.4,816.2,170.7,816,169.8L816,169.8z M841.7,171c-1.1-0.1-1.9-1.1-1.8-2.2l0,0
	c0.1-1.1,1.1-1.9,2.2-1.8l0,0c1.1,0.1,1.9,1.1,1.8,2.2l0,0c-0.1,1-1,1.8-2,1.8C841.9,171,841.8,171,841.7,171L841.7,171z
	 M1015.6,170.8c-1.1-0.1-1.9-1.1-1.8-2.1l0,0c0.1-1.1,1-1.9,2.1-1.8l0,0c1.1,0.1,1.9,1.1,1.8,2.2l0,0
	C1017.6,170.1,1016.7,170.9,1015.6,170.8C1015.7,170.8,1015.7,170.8,1015.6,170.8L1015.6,170.8z M1001.8,168.6c0-1.1,0.8-2,1.9-2.1
	l0,0c1.1,0,2,0.8,2.1,1.9l0,0c0,1.1-0.8,2-1.9,2.1l0,0c0,0,0,0-0.1,0C1002.7,170.5,1001.8,169.7,1001.8,168.6z M828,168.5
	c0-1.1,0.9-2,2-2s2,0.8,2,1.9l0,0c0,1.1-0.9,2-2,2l0,0C828.9,170.5,828,169.6,828,168.5L828,168.5z"/>
</svg>
