<?xml version="1.0" encoding="utf-8"?>
<!-- Generator: Adobe Illustrator 24.2.3, SVG Export Plug-In . SVG Version: 6.00 Build 0)  -->
<svg version="1.1" id="Ebene_1" xmlns="http://www.w3.org/2000/svg" xmlns:xlink="http://www.w3.org/1999/xlink" x="0px" y="0px"
	 viewBox="0 0 1920 1080" style="enable-background:new 0 0 1920 1080;" xml:space="preserve">
<style type="text/css">
	.st0{fill:#3A2A78;}
	.st1{opacity:0.5;fill:url(#SVGID_1_);}
	.st2{opacity:0.6;fill:#1A9769;enable-background:new    ;}
	.st3{opacity:0.4;fill:#6DBACF;enable-background:new    ;}
	.st4{fill:#1A9769;}
	.st5{opacity:0.4;}
	.st6{opacity:0.4;fill:#1A9769;enable-background:new    ;}
	.st7{clip-path:url(#SVGID_3_);}
	.st8{fill:#3A2B78;}
	.st9{clip-path:url(#SVGID_5_);}
	.st10{clip-path:url(#SVGID_7_);}
	.st11{clip-path:url(#SVGID_9_);}
	.st12{clip-path:url(#SVGID_11_);}
	.st13{clip-path:url(#SVGID_13_);}
	.st14{clip-path:url(#SVGID_15_);}
	.st15{fill:#A180AC;}
	.st16{fill:#D5D100;}
</style>
<path class="st0" d="M0,0h1920v1080H0V0z"/>
<linearGradient id="SVGID_1_" gradientUnits="userSpaceOnUse" x1="68.2419" y1="-84.1093" x2="1852.6133" y2="1451.1847" gradientTransform="matrix(1 0 0 0.7839 -0.4276 4.1495)">
	<stop  offset="0.3685" style="stop-color:#3A2A78"/>
	<stop  offset="1" style="stop-color:#000000"/>
</linearGradient>
<rect class="st1" width="1920" height="1080"/>
<path class="st2" d="M1500.9,113.1h204.5v204.5h-204.5V113.1z"/>
<path class="st3" d="M1753.6,976.5h-273.5l136.7-222.8L1753.6,976.5z"/>
<path class="st4" d="M374.8,802.5c-73.2-63.8-115.2-156.2-115.3-253.4c0-6.2,0.2-12.4,0.5-18.6l12.5,0.7c-0.3,5.9-0.5,12-0.5,17.9
	c0,93.5,40.5,182.5,111,244L374.8,802.5z M411.3,283.2l-7.1-10.3c56.2-39.1,123.1-60.1,191.6-59.9c34,0,67.8,5.1,100.2,15.2l-3.7,12
	C596.9,210.5,493.3,226.4,411.3,283.2L411.3,283.2z"/>
<path class="st4" d="M595.7,885.3L595.7,885.3c-45.5,0.1-90.6-9.1-132.4-27.1l4.9-11.5c40.3,17.3,83.6,26.1,127.5,26.1h0
	c39,0.1,77.7-7,114.2-20.7l4.4,11.7C676.5,878.1,636.3,885.4,595.7,885.3L595.7,885.3z M916.8,648.9l-12-3.7
	c29.5-95.3,13.5-198.9-43.4-280.9l10.3-7.2C930.8,442.3,947.5,549.9,916.8,648.9L916.8,648.9z"/>
<path class="st4" d="M366.3,826.5c-45.4-37.6-80.9-85.7-103.3-140.2l1.7-0.7c22.3,54.2,57.6,102.1,102.8,139.5L366.3,826.5z
	 M252.4,447l-1.7-0.5c16.9-56.4,47.3-107.9,88.6-150l1.3,1.3C299.5,339.6,269.2,390.8,252.4,447L252.4,447z M727.2,216
	c-41.7-16.5-86.2-25-131.1-25c-13.6,0-27.2,0.8-40.7,2.3l-0.2-1.8c13.6-1.5,27.2-2.3,40.9-2.3c45.1,0,89.8,8.5,131.8,25.1L727.2,216
	z"/>
<path class="st4" d="M935.1,434.8c-9.3-27.7-22-54.1-37.7-78.8l1.5-1c15.8,24.7,28.5,51.3,37.9,79.1L935.1,434.8z"/>
<path class="st4" d="M798.7,846.4l-1-1.5c41-27.9,75.7-64.1,101.8-106.3c8.1-13,15.4-26.5,21.8-40.4l1.6,0.7
	c-6.4,14-13.7,27.5-21.9,40.6C874.8,782,839.9,818.4,798.7,846.4L798.7,846.4z"/>
<path class="st4" d="M540,904.8c-29-4.5-57.3-12.6-84.4-24.1l0.7-1.6c26.9,11.4,55.1,19.4,83.9,24L540,904.8z"/>
<g class="st5">
	<path class="st4" d="M365.5,817.8c-16.9-14.5-32.4-30.5-46.3-47.9l14-11.2c13.2,16.5,27.9,31.7,43.9,45.5L365.5,817.8z"/>
	<path class="st4" d="M257.4,653c-10.3-33.7-15.5-68.7-15.5-103.9c0-9.2,0.4-18.5,1.1-27.6l17.8,1.4c-0.7,8.7-1,17.5-1,26.2
		c0,33.4,4.9,66.7,14.7,98.6L257.4,653z M293.7,401.8l-16.1-7.9c19.5-40,46.4-75.9,79.2-105.9l12.1,13.2
		C337.8,329.7,312.3,363.9,293.7,401.8L293.7,401.8z M475.7,235.2l-6.4-16.7c40.3-15.4,83.2-23.3,126.4-23.2c1.3,0,2.5,0,3.8,0
		l-0.2,17.9c-1.2,0-2.4,0-3.6,0C554.7,213.1,514.1,220.6,475.7,235.2L475.7,235.2z"/>
	<path class="st4" d="M779.1,267.2c-11.6-7-22.2-12.9-22.9-13.4c-10.9-5.9-22-11.2-33.5-15.9l6.8-16.6c12.1,4.9,23.9,10.5,35.3,16.8
		l0.1,0c0.1,0.1,11.3,6.3,23.5,13.7L779.1,267.2z"/>
</g>
<path class="st6" d="M556.1,900.8c-34.7-3.9-68.6-12.9-100.7-26.7l7.1-16.4c30.4,13.1,62.6,21.7,95.5,25.3L556.1,900.8z
	 M688.3,890.7l-4.7-17.3c40.9-11,79.3-29.7,113.1-55.1l10.7,14.3C771.8,859.4,731.3,879.1,688.3,890.7L688.3,890.7z M897,734.9
	l-15.2-9.4c22.3-36,37.5-75.9,44.8-117.6l17.6,3.1C936.5,654.9,920.4,697,897,734.9L897,734.9z M925,482
	c-8.4-41.5-24.6-81-47.8-116.4l15-9.8c24.4,37.3,41.5,78.9,50.4,122.6L925,482z"/>
<path class="st4" d="M592,834.8c-3.3,0-6.5-0.1-9.8-0.2l0.1-1.8c6.6,0.2,13.4,0.2,19.9,0l0.1,1.8C598.8,834.7,595.4,834.8,592,834.8
	L592,834.8z M562.2,833.3c-6.6-0.7-13.3-1.6-19.9-2.7l0.3-1.8c6.5,1.1,13.2,2.1,19.7,2.7L562.2,833.3z M622.2,833.2l-0.2-1.8
	c6.6-0.7,13.2-1.6,19.7-2.8l0.3,1.8C635.5,831.6,628.9,832.5,622.2,833.2L622.2,833.2z M522.7,826.4c-6.5-1.6-12.9-3.4-19.3-5.5
	l0.5-1.7c6.3,2,12.7,3.9,19.2,5.5L522.7,826.4z M661.7,826.3l-0.4-1.7c6.4-1.6,12.9-3.4,19.2-5.5l0.6,1.7
	C674.6,822.8,668.1,824.7,661.7,826.3L661.7,826.3z M484.5,814c-6.2-2.5-12.3-5.2-18.3-8.2l0.8-1.6c6,2.9,12.1,5.6,18.2,8.1
	L484.5,814z M699.8,813.9l-0.7-1.7c6.1-2.5,12.2-5.2,18.2-8.1l0.8,1.6C712.1,808.6,706,811.4,699.8,813.9z M448.5,796.5
	c-5.8-3.3-11.5-6.9-17-10.6l1-1.5c5.5,3.7,11.2,7.3,16.9,10.6L448.5,796.5z M735.8,796.3l-0.9-1.5c5.7-3.3,11.4-6.9,16.9-10.6l1,1.5
	C747.2,789.4,741.5,793,735.8,796.3L735.8,796.3z M415.2,774c-5.2-4.1-10.4-8.4-15.4-12.9l1.2-1.3c4.9,4.4,10.1,8.7,15.3,12.8
	L415.2,774z M769,773.8l-1.1-1.4c5.2-4.1,10.3-8.4,15.3-12.8l1.2,1.3C779.4,765.4,774.2,769.7,769,773.8L769,773.8z M385.4,747.2
	c-4.6-4.8-9.1-9.8-13.4-14.9l1.4-1.2c4.3,5.1,8.8,10,13.4,14.8L385.4,747.2z M798.7,747l-1.3-1.2c4.6-4.8,9.1-9.8,13.3-14.8l1.4,1.2
	C807.9,737.2,803.4,742.2,798.7,747L798.7,747z M359.6,716.6c-3.9-5.4-7.7-11-11.2-16.6l1.5-1c3.5,5.6,7.3,11.1,11.2,16.5
	L359.6,716.6z M824.5,716.3l-1.4-1.1c3.9-5.4,7.7-10.9,11.2-16.5l1.5,0.9C832.2,705.3,828.4,710.9,824.5,716.3L824.5,716.3z
	 M338.3,682.6c-3.1-5.9-6.1-11.9-8.8-18l1.6-0.7c2.7,6,5.6,12,8.8,17.9L338.3,682.6z M845.8,682.3l-1.6-0.8
	c3.1-5.8,6.1-11.9,8.8-17.9l1.6,0.7C851.9,670.4,848.9,676.4,845.8,682.3L845.8,682.3z M322,646.1c-2.3-6.3-4.4-12.7-6.2-19.1
	l1.7-0.5c1.8,6.4,3.9,12.7,6.2,18.9L322,646.1z M862.1,645.7l-1.7-0.6c2.3-6.2,4.3-12.6,6.2-19l1.7,0.5
	C866.5,633,864.4,639.4,862.1,645.7z M310.9,607.6c-1.4-6.5-2.6-13.2-3.5-19.7l1.8-0.2c0.9,6.6,2.1,13.2,3.5,19.6L310.9,607.6z
	 M873.2,607.1l-1.8-0.4c1.4-6.5,2.5-13.1,3.4-19.6l1.8,0.2C875.7,594,874.5,600.6,873.2,607.1z M305.3,567.9
	c-0.5-6.6-0.7-13.4-0.7-20h1.8c0,6.6,0.3,13.3,0.7,19.9L305.3,567.9z M878.7,567.4l-1.8-0.1c0.5-6.6,0.7-13.3,0.7-19.9v-0.9l1.8,0
	v0.9C879.4,554.1,879.1,560.8,878.7,567.4L878.7,567.4z M307,527.9l-1.8-0.1c0.4-6.6,1.1-13.4,2-19.9l1.8,0.2
	C308.1,514.7,307.5,521.3,307,527.9L307,527.9z M876.8,526.6c-0.5-6.6-1.2-13.3-2.1-19.8l1.8-0.3c0.9,6.6,1.7,13.3,2.1,19.9
	L876.8,526.6z M312.4,488.5l-1.8-0.4c1.4-6.5,3-13.1,4.8-19.5l1.7,0.5C315.4,475.5,313.8,482,312.4,488.5L312.4,488.5z M871.2,487.2
	c-1.4-6.5-3-13-4.9-19.3l1.7-0.5c1.9,6.4,3.5,12.9,4.9,19.4L871.2,487.2z M323.3,450.2l-1.7-0.6c2.3-6.3,4.8-12.5,7.5-18.6l1.6,0.7
	C328.1,437.7,325.6,444,323.3,450.2L323.3,450.2z M860.1,448.9c-2.3-6.2-4.8-12.4-7.5-18.4l1.6-0.7c2.7,6.1,5.3,12.3,7.6,18.5
	L860.1,448.9z M339.5,413.7l-1.6-0.8c3.1-5.9,6.5-11.7,10-17.4l1.5,0.9C346,402.1,342.6,407.9,339.5,413.7L339.5,413.7z
	 M843.8,412.6c-3.1-5.8-6.5-11.6-10-17.2l1.5-1c3.5,5.6,6.9,11.5,10.1,17.3L843.8,412.6z M360.6,379.9l-1.4-1.1
	c3.9-5.4,8.1-10.7,12.3-15.8l1.4,1.1C368.6,369.3,364.5,374.6,360.6,379.9z M822.6,378.9c-3.9-5.3-8-10.6-12.3-15.7l1.4-1.2
	c4.3,5.1,8.5,10.4,12.4,15.8L822.6,378.9z M386.2,349.4l-1.3-1.2c4.6-4.8,9.5-9.5,14.4-14l1.2,1.3
	C395.6,339.9,390.8,344.6,386.2,349.4z M796.9,348.5c-4.6-4.8-9.4-9.4-14.4-13.8l1.2-1.3c5,4.4,9.8,9.1,14.5,13.9L796.9,348.5z
	 M415.7,322.6l-1.1-1.4c5.2-4.1,10.7-8.1,16.2-11.8l1,1.5C426.3,314.6,420.9,318.6,415.7,322.6L415.7,322.6z M767.3,321.9
	c-5.2-4.1-10.7-8-16.1-11.7l1-1.5c5.5,3.7,11,7.7,16.3,11.8L767.3,321.9z M448.7,300.3l-0.9-1.5c5.8-3.3,11.7-6.5,17.7-9.5l0.8,1.6
	C460.3,293.8,454.4,297,448.7,300.3L448.7,300.3z M734.2,299.7c-5.7-3.3-11.7-6.4-17.6-9.3l0.8-1.6c6,2.9,12,6.1,17.7,9.4
	L734.2,299.7z M484.4,282.7l-0.7-1.7c6.2-2.5,12.5-4.8,18.8-6.9l0.6,1.7C496.8,277.9,490.5,280.2,484.4,282.7L484.4,282.7z
	 M698.3,282.2c-6.1-2.5-12.5-4.8-18.8-6.8l0.5-1.7c6.3,2,12.7,4.3,18.9,6.8L698.3,282.2z M522.2,270.4l-0.4-1.7
	c6.5-1.6,13-3,19.6-4.2l0.3,1.8C535.2,267.3,528.6,268.8,522.2,270.4L522.2,270.4z M660.4,270c-6.4-1.6-13-2.9-19.5-4.1l0.3-1.8
	c6.6,1.1,13.2,2.5,19.6,4.1L660.4,270z M561.4,263.4l-0.2-1.8c6.6-0.7,13.3-1.2,20-1.4l0.1,1.8C574.7,262.2,568,262.7,561.4,263.4z
	 M621.1,263.3c-6.6-0.7-13.3-1.1-19.9-1.3l0.1-1.8c6.7,0.2,13.4,0.7,20,1.3L621.1,263.3z"/>
<path class="st4" d="M624.3,324.2l13.1-102.3l4.2,0.5l-13.1,102.3L624.3,324.2z"/>
<path class="st4" d="M631.1,334.8l-5.2-7.5l-7.4,5.1l-2.4-3.5l10.8-7.5l7.5,10.9L631.1,334.8z"/>
<g>
	<defs>
		<line id="SVGID_2_" x1="639.5" y1="222.1" x2="635.4" y2="254.5"/>
	</defs>
	<clipPath id="SVGID_3_">
		<use xlink:href="#SVGID_2_"  style="overflow:visible;"/>
	</clipPath>
	<g class="st7">
		<path class="st8" d="M635.4,224.5l4.2,7.4v22.6l-0.1,0h-4.1V224.5z"/>
		<path class="st8" d="M635.4,222.2L635.4,222.2l4.1,0l0,0v9.7l-4.2-7.4L635.4,222.2z"/>
		<path class="st8" d="M639.5,222.2L639.5,222.2L639.5,222.2L639.5,222.2z"/>
	</g>
</g>
<path class="st4" d="M630.5,253.9l4.1-32.4l9.7,1.2l-4.1,32.4L630.5,253.9z"/>
<g>
	<defs>
		<line id="SVGID_4_" x1="639.5" y1="222.1" x2="637.7" y2="236.7"/>
	</defs>
	<clipPath id="SVGID_5_">
		<use xlink:href="#SVGID_4_"  style="overflow:visible;"/>
	</clipPath>
	<g class="st9">
		<path class="st8" d="M637.7,223.2l1.9,3.3v10.1h-1.9V223.2z"/>
		<path class="st8" d="M639.5,222.1L639.5,222.1l0,4.4l-1.9-3.3v-1H639.5z"/>
		<path class="st8" d="M639.5,222.1L639.5,222.1L639.5,222.1L639.5,222.1z"/>
	</g>
</g>
<path class="st4" d="M634.1,236.2l1.9-14.5l7.1,0.9l-1.9,14.5L634.1,236.2z"/>
<path class="st4" d="M780.7,579.6l0.6-4.2l144.4,19.3l-0.6,4.2L780.7,579.6z"/>
<path class="st4" d="M768.9,587l-2.1-3.6l11.3-6.6l-6.6-11.4l3.6-2.1l8.7,15L768.9,587z"/>
<g>
	<defs>
		<line id="SVGID_6_" x1="925.4" y1="596.8" x2="864.2" y2="588.6"/>
	</defs>
	<clipPath id="SVGID_7_">
		<use xlink:href="#SVGID_6_"  style="overflow:visible;"/>
	</clipPath>
	<g class="st10">
		<path class="st8" d="M909.1,588.6l1.8,8.2h-46.6v-8.2H909.1z"/>
		<path class="st8" d="M923.6,588.6l1.8,8.2h-14.5l-1.8-8.2H923.6z"/>
		<path class="st8" d="M925.4,596.8l-1.8-8.2h1.8L925.4,596.8L925.4,596.8z"/>
	</g>
</g>
<path class="st4" d="M863.6,593.5l1.3-9.7l61.2,8.2l-1.3,9.7L863.6,593.5z"/>
<path class="st4" d="M519.2,864.9l17.1-72.1l4.1,1l-17.1,72.1L519.2,864.9z"/>
<path class="st4" d="M537,795.8l-6.8-22.3l4-1.2l5.6,18.4l19.4-5.2l1.1,4L537,795.8z"/>
<g>
	<defs>
		<line id="SVGID_8_" x1="521.3" y1="865.4" x2="534.1" y2="811.4"/>
	</defs>
	<clipPath id="SVGID_9_">
		<use xlink:href="#SVGID_8_"  style="overflow:visible;"/>
	</clipPath>
	<g class="st11">
		<path class="st8" d="M521.3,811.4h9.7v53.9h-9.7V811.4z"/>
		<path class="st8" d="M530.9,811.4h3.1v53.9h-3.1V811.4z"/>
		<path class="st8" d="M534.1,811.4L534.1,811.4l0,53.9h0V811.4z"/>
	</g>
</g>
<path class="st4" d="M516.5,864.3l12.8-53.9l9.5,2.3L526,866.5L516.5,864.3z"/>
<g>
	<defs>
		<line id="SVGID_10_" x1="521.3" y1="865.4" x2="524.8" y2="850.5"/>
	</defs>
	<clipPath id="SVGID_11_">
		<use xlink:href="#SVGID_10_"  style="overflow:visible;"/>
	</clipPath>
	<g class="st12">
		<path class="st8" d="M521.3,850.5h2.7v14.9h-2.7V850.5z"/>
		<path class="st8" d="M523.9,850.5h0.9v14.9h-0.9V850.5z"/>
		<path class="st8" d="M524.8,850.5L524.8,850.5l0,14.9h0V850.5z"/>
	</g>
</g>
<path class="st4" d="M517.8,864.6l3.5-14.9l7,1.7l-3.5,14.9L517.8,864.6z"/>
<path class="st4" d="M278.5,640l77.7-22l1.1,4l-77.7,22L278.5,640z"/>
<path class="st4" d="M366,626.6l-11.9-5.5l5.5-11.9l3.8,1.8l-3.8,8.1l8.1,3.8L366,626.6z"/>
<g>
	<defs>
		<line id="SVGID_12_" x1="279.1" y1="642" x2="326.1" y2="628.4"/>
	</defs>
	<clipPath id="SVGID_13_">
		<use xlink:href="#SVGID_12_"  style="overflow:visible;"/>
	</clipPath>
	<g class="st13">
		<path class="st8" d="M279.1,628.4h35.4V642h-35.4V628.4z"/>
		<path class="st8" d="M314.6,628.4H326V642h-11.5V628.4z"/>
		<path class="st8" d="M326,628.4L326,628.4l0,13.7h0V628.4z"/>
	</g>
</g>
<path class="st4" d="M277.7,637.4l47-13.7l2.7,9.4l-47,13.7L277.7,637.4z"/>
<g>
	<defs>
		<line id="SVGID_14_" x1="279.1" y1="642" x2="297.8" y2="636.6"/>
	</defs>
	<clipPath id="SVGID_15_">
		<use xlink:href="#SVGID_14_"  style="overflow:visible;"/>
	</clipPath>
	<g class="st14">
		<path class="st8" d="M279.1,636.6h14.1v5.4h-14.1V636.6z"/>
		<path class="st8" d="M293.2,636.6h4.6v5.4h-4.6V636.6z"/>
		<path class="st8" d="M297.8,636.6L297.8,636.6l0,5.4h0V636.6z"/>
	</g>
</g>
<path class="st4" d="M278.1,638.6l18.7-5.4l2,6.9l-18.7,5.4L278.1,638.6z"/>
<path class="st4" d="M467.3,424.2h14.5v14.5h-14.5V424.2z"/>
<path class="st4" d="M514.4,414h14.5v14.5h-14.5V414z"/>
<path class="st4" d="M593.6,420.1h14.5v14.5h-14.5V420.1z"/>
<path class="st4" d="M472,452.8h14.5v14.5H472V452.8z"/>
<path class="st15" d="M495.5,452.8H510v14.5h-14.5V452.8z"/>
<path class="st4" d="M519,452.8h14.5v14.5H519V452.8z"/>
<path class="st15" d="M566.1,475h14.5v14.5h-14.5V475z"/>
<path class="st4" d="M589.6,475h14.5v14.5h-14.5V475z"/>
<path class="st4" d="M498.1,506.1h14.5v14.5h-14.5L498.1,506.1z"/>
<path class="st15" d="M521.6,506.1h14.5v14.5h-14.5V506.1z"/>
<path class="st4" d="M422.5,517H437v14.5h-14.5V517z"/>
<path class="st4" d="M637,696.1h14.5v14.5H637V696.1z"/>
<path class="st15" d="M721.2,647.7h14.5v14.5h-14.5V647.7z"/>
<path class="st4" d="M474.5,550.6H489v14.5h-14.5V550.6z"/>
<path class="st4" d="M498.1,550.6h14.5v14.5h-14.5L498.1,550.6z"/>
<path class="st15" d="M495.5,580.7H510v14.5h-14.5V580.7z"/>
<path class="st4" d="M521.6,595.1h14.5v14.5h-14.5V595.1z"/>
<path class="st4" d="M498.8,633.6l10.2,10.2l-10.2,10.2l-10.2-10.2L498.8,633.6z"/>
<path class="st4" d="M521.6,639.7h14.5v14.5h-14.5V639.7z"/>
<path class="st4" d="M488.3,717.9h14.5v14.5h-14.5V717.9z"/>
<path class="st4" d="M488.3,678h14.5v14.5h-14.5V678z"/>
<path class="st4" d="M465.8,673.3h14.5v14.5h-14.5V673.3z"/>
<path class="st4" d="M451.3,597.9h14.5v14.5h-14.5V597.9z"/>
<path class="st4" d="M507.1,699.9h14.5v14.5h-14.5L507.1,699.9z"/>
<path class="st4" d="M547.8,667.5h14.5V682h-14.5V667.5z"/>
<path class="st4" d="M587.5,669.8H602v14.5h-14.5V669.8z"/>
<path class="st4" d="M692.6,622.3h14.5v14.5h-14.5V622.3z"/>
<path class="st4" d="M622.6,441.8h14.5v14.5h-14.5V441.8z"/>
<path class="st15" d="M633.1,379.7h14.5v14.5h-14.5V379.7z"/>
<path class="st4" d="M562.8,434.5h14.5V449h-14.5V434.5z"/>
<path class="st4" d="M674,646.9h14.5v14.5H674V646.9z"/>
<path class="st4" d="M462.7,757.6h14.5V772h-14.5V757.6z"/>
<path class="st4" d="M420.7,823h14.5v14.5h-14.5V823z"/>
<path class="st4" d="M404.8,807.6L404.8,807.6c4,0,7.2,3.2,7.2,7.2v0c0,4-3.2,7.2-7.2,7.2l0,0c-4,0-7.2-3.2-7.2-7.2v0
	C397.5,810.9,400.8,807.6,404.8,807.6z"/>
<path class="st4" d="M380,823.9h14.5v14.5H380V823.9z"/>
<path class="st4" d="M384.4,863h14.5v14.5h-14.5V863z"/>
<path class="st4" d="M404.8,845.7h14.5v14.5h-14.5V845.7z"/>
<path class="st4" d="M369.9,884.7h14.5v14.5h-14.5V884.7z"/>
<path class="st15" d="M315.5,890.4h14.5v14.5h-14.5V890.4z"/>
<path class="st4" d="M349.6,907.3h14.5v14.5h-14.5V907.3z"/>
<path class="st4" d="M302.7,916.8h14.5v14.5h-14.5V916.8z"/>
<path class="st4" d="M250.7,944.7h14.5v14.5h-14.5V944.7z"/>
<path class="st4" d="M280.9,906.7h14.5v14.5h-14.5V906.7z"/>
<path class="st4" d="M225.3,903.3h14.5v14.5h-14.5V903.3z"/>
<path class="st15" d="M229.4,930.2h14.5v14.5h-14.5V930.2z"/>
<path class="st4" d="M290.6,879H305v14.5h-14.5V879z"/>
<path class="st15" d="M315.5,867.4h14.5v14.5h-14.5V867.4z"/>
<path class="st4" d="M337.2,852.9h14.5v14.5h-14.5V852.9z"/>
<path class="st4" d="M201.9,909.5h14.5V924h-14.5V909.5z"/>
<path class="st15" d="M170,916.8h14.5v14.5H170V916.8z"/>
<path class="st4" d="M139.4,917.8h14.5v14.5h-14.5V917.8z"/>
<path class="st4" d="M85.7,914.5h14.5V929H85.7V914.5z"/>
<path class="st4" d="M111.2,917.8h14.5v14.5h-14.5V917.8z"/>
<path class="st15" d="M59.7,906.7h14.5v14.5H59.7V906.7z"/>
<path class="st4" d="M28.5,890.4H43v14.5H28.5V890.4z"/>
<path class="st4" d="M3.9,877.5h14.5v14.5H3.9L3.9,877.5z"/>
<path class="st4" d="M179.2,977.8l10.7,9.7l-9.7,10.7l-10.7-9.7L179.2,977.8z"/>
<path class="st4" d="M201.4,931.3l10.7,9.7l-9.7,10.7l-10.7-9.7L201.4,931.3z"/>
<path class="st4" d="M280.3,977.6L280.3,977.6c4,0,7.2,3.2,7.2,7.2v0c0,4-3.2,7.2-7.2,7.2l0,0c-4,0-7.2-3.2-7.2-7.2v0
	C273.1,980.8,276.3,977.6,280.3,977.6z"/>
<path class="st15" d="M366.9,863.7L366.9,863.7c4,0,7.2,3.2,7.2,7.2v0c0,4-3.2,7.2-7.2,7.2l0,0c-4,0-7.2-3.2-7.2-7.2v0
	C359.6,867,362.9,863.7,366.9,863.7z"/>
<path class="st4" d="M262.9,917.8L262.9,917.8c4,0,7.2,3.2,7.2,7.2v0c0,4-3.2,7.2-7.2,7.2l0,0c-4,0-7.2-3.2-7.2-7.2v0
	C255.6,921.1,258.9,917.8,262.9,917.8z"/>
<path class="st4" d="M332.9,914.5L332.9,914.5c4,0,7.2,3.2,7.2,7.2v0c0,4-3.2,7.2-7.2,7.2l0,0c-4,0-7.2-3.2-7.2-7.2v0
	C325.6,917.8,328.9,914.5,332.9,914.5z"/>
<path class="st4" d="M359.6,838.4h14.5v14.5h-14.5V838.4z"/>
<path class="st4" d="M255.6,894h14.5v14.5h-14.5V894z"/>
<path class="st4" d="M285.7,934.5l9.7,10.8l-10.8,9.7l-9.7-10.8L285.7,934.5z"/>
<path class="st4" d="M297.8,952h14.5v14.5h-14.5V952z"/>
<path class="st4" d="M322.7,937.5h14.5V952h-14.5V937.5z"/>
<path class="st15" d="M229.4,970.4h14.5v14.5h-14.5V970.4z"/>
<path class="st4" d="M243.5,997.7H258v14.5h-14.5V997.7z"/>
<path class="st4" d="M253.9,968.4h14.5v14.5h-14.5L253.9,968.4z"/>
<path class="st4" d="M210.8,1016.3h14.5v14.5h-14.5V1016.3z"/>
<path class="st4" d="M181.3,1031.3h14.5v14.5h-14.5V1031.3z"/>
<path class="st15" d="M146.6,1044.8h14.5v14.5h-14.5V1044.8z"/>
<path class="st4" d="M210.8,951.9h14.5v14.5h-14.5V951.9z"/>
<path class="st4" d="M185.2,959.2h14.5v14.5h-14.5V959.2z"/>
<path class="st4" d="M146.2,966.4h14.5v14.5h-14.5V966.4z"/>
<path class="st15" d="M117.7,972.2h14.5v14.5h-14.5L117.7,972.2z"/>
<path class="st4" d="M62.6,970.4h14.5v14.5H62.6L62.6,970.4z"/>
<path class="st15" d="M66.9,950.6l10.2-10.2l10.2,10.2l-10.2,10.2L66.9,950.6z"/>
<path class="st4" d="M16,922.8l10.2-10.2l10.2,10.2L26.2,933L16,922.8z"/>
<path class="st4" d="M127.8,950.6l10.2-10.2l10.2,10.2L138,960.8L127.8,950.6z"/>
<path class="st4" d="M89.9,972.2h14.5v14.5H89.9V972.2z"/>
<path class="st4" d="M38,941.5h14.5V956H38V941.5z"/>
<path class="st15" d="M38,966.4L38,966.4c4,0,7.2,3.2,7.2,7.2v0c0,4-3.2,7.2-7.2,7.2h0c-4,0-7.2-3.2-7.2-7.2v0
	C30.8,969.7,34,966.4,38,966.4z"/>
<path class="st4" d="M135.3,996.5l12.5,7.2l-7.2,12.5l-12.5-7.2L135.3,996.5z"/>
<path class="st4" d="M108,945.7L108,945.7c3.5,2,4.6,6.4,2.7,9.9l0,0c-2,3.5-6.4,4.6-9.9,2.7l0,0c-3.5-2-4.6-6.4-2.7-9.9h0
	C100.1,944.9,104.5,943.7,108,945.7z"/>
<path class="st15" d="M85,996.2L85,996.2c3.5,2,4.6,6.4,2.7,9.9l0,0c-2,3.5-6.4,4.6-9.9,2.7h0c-3.5-2-4.6-6.4-2.7-9.9l0,0
	C77.1,995.4,81.6,994.2,85,996.2z"/>
<path class="st4" d="M176.1,944.3L176.1,944.3c3.5,2,4.6,6.4,2.7,9.9h0c-2,3.5-6.4,4.6-9.9,2.7l0,0c-3.5-2-4.6-6.4-2.7-9.9l0,0
	C168.2,943.5,172.6,942.3,176.1,944.3z"/>
<path class="st4" d="M16.5,937.6L16.5,937.6c3.5,2,4.6,6.4,2.7,9.9l0,0c-2,3.5-6.4,4.6-9.9,2.7l0,0c-3.5-2-4.6-6.4-2.7-9.9h0
	C8.6,936.8,13,935.6,16.5,937.6z"/>
<path class="st4" d="M206.5,988H221v14.5h-14.5V988z"/>
<path class="st4" d="M163,1009h14.5v14.5H163V1009z"/>
<path class="st4" d="M120.9,1028.5h14.5v14.5h-14.5V1028.5z"/>
<path class="st4" d="M115.6,1051.8l10.2,10.2l-10.2,10.2l-10.2-10.2L115.6,1051.8z"/>
<path class="st4" d="M74.2,1046.6h14.5v14.5H74.2V1046.6z"/>
<path class="st4" d="M66.9,1024.1h14.5v14.5H66.9V1024.1z"/>
<path class="st4" d="M38.1,1027.1l13.6-5l5,13.6l-13.6,5L38.1,1027.1z"/>
<path class="st4" d="M44.2,1053.8h14.5v14.5H44.2L44.2,1053.8z"/>
<path class="st4" d="M9.4,999.1h14.5v14.5H9.4L9.4,999.1z"/>
<path class="st15" d="M5.6,961.2h14.5v14.5H5.6L5.6,961.2z"/>
<path class="st4" d="M2.2,1059.3h14.5v14.5H2.2L2.2,1059.3z"/>
<path class="st4" d="M100.7,1011.5l12.5,7.2l-7.2,12.5l-12.5-7.2L100.7,1011.5z"/>
<path class="st4" d="M20.1,1030.5l12.5,7.2l-7.2,12.5l-12.5-7.2L20.1,1030.5z"/>
<path class="st15" d="M46.6,996.5l12.5,7.2l-7.2,12.5l-12.5-7.2L46.6,996.5z"/>
<path class="st4" d="M337.2,887.7l12.5-7.2L357,893l-12.5,7.2L337.2,887.7z"/>
<path class="st4" d="M411.4,790.6h14.5V805h-14.5V790.6z"/>
<path class="st15" d="M437.5,796.6H452V811h-14.5V796.6z"/>
<path class="st4" d="M455.5,735.5H470V750h-14.5V735.5z"/>
<path class="st15" d="M485.5,736.7L485.5,736.7c4,0,7.2,3.2,7.2,7.2v0c0,4-3.2,7.2-7.2,7.2l0,0c-4,0-7.2-3.2-7.2-7.2v0
	C478.2,739.9,481.5,736.7,485.5,736.7z"/>
<path class="st15" d="M464.7,715.3h14.5v14.5h-14.5V715.3z"/>
<path class="st4" d="M515.9,666.9l10.2,10.2l-10.2,10.2l-10.2-10.2L515.9,666.9z"/>
<path class="st15" d="M479.2,649.6l10.2,10.2L479.2,670L469,659.8L479.2,649.6z"/>
<path class="st4" d="M546.5,506.1H561v14.5h-14.5V506.1z"/>
<path class="st4" d="M593.6,506.1h14.5v14.5h-14.5V506.1z"/>
<path class="st15" d="M617.1,506.1h14.5v14.5h-14.5V506.1z"/>
<path class="st4" d="M640.7,506.1h14.5v14.5h-14.5V506.1z"/>
<path class="st4" d="M687.7,438.3h14.5v14.5h-14.5V438.3z"/>
<path class="st15" d="M714,408.3h14.5v14.5H714V408.3z"/>
<path class="st15" d="M669,379.7h14.5v14.5H669V379.7z"/>
<path class="st4" d="M673.2,348.3h14.5v14.5h-14.5V348.3z"/>
<path class="st4" d="M723.3,351.2h14.5v14.5h-14.5V351.2z"/>
<path class="st4" d="M696.8,360.7h14.5v14.5h-14.5V360.7z"/>
<path class="st4" d="M625.6,414H640v14.5h-14.5V414z"/>
<path class="st4" d="M539.3,381h14.5v14.5h-14.5V381z"/>
<path class="st4" d="M490.8,349.9h14.5v14.5h-14.5V349.9z"/>
<path class="st4" d="M711.3,454.8h14.5v14.5h-14.5V454.8z"/>
<path class="st4" d="M742,445.5h14.5V460H742V445.5z"/>
<path class="st4" d="M711.3,482.3h14.5v14.5h-14.5V482.3z"/>
<path class="st4" d="M680.5,465.3H695v14.5h-14.5V465.3z"/>
<path class="st4" d="M655.1,427.3h14.5v14.5h-14.5V427.3z"/>
<path class="st15" d="M685.3,408.3h14.5v14.5h-14.5V408.3z"/>
<path class="st4" d="M687.7,506.1h14.5v14.5h-14.5V506.1z"/>
<path class="st15" d="M765.6,324.6h14.5v14.5h-14.5V324.6z"/>
<path class="st4" d="M795.6,301.2h14.5v14.5h-14.5V301.2z"/>
<path class="st4" d="M794.4,321.8h14.5v14.5h-14.5V321.8z"/>
<path class="st15" d="M818.2,301.2h14.5v14.5h-14.5V301.2z"/>
<path class="st15" d="M871.1,266h14.5v14.5h-14.5V266z"/>
<path class="st4" d="M890.8,269.2h14.5v14.5h-14.5V269.2z"/>
<path class="st15" d="M916.6,245.5h14.5V260h-14.5V245.5z"/>
<path class="st15" d="M911.2,269.2h14.5v14.5h-14.5V269.2z"/>
<path class="st4" d="M879.5,286.6L879.5,286.6c4,0,7.2,3.2,7.2,7.2l0,0c0,4-3.2,7.2-7.2,7.2h0c-4,0-7.2-3.2-7.2-7.2l0,0
	C872.2,289.8,875.5,286.6,879.5,286.6z"/>
<path class="st4" d="M843.2,301.2h14.5v14.5h-14.5V301.2z"/>
<path class="st15" d="M818.2,326.4h14.5v14.5h-14.5V326.4z"/>
<path class="st4" d="M772.8,351.2h14.5v14.5h-14.5V351.2z"/>
<path class="st4" d="M756.5,381h14.5v14.5h-14.5V381z"/>
<path class="st4" d="M742,409.7h14.5v14.5H742V409.7z"/>
<path class="st4" d="M801.6,344L801.6,344c4,0,7.2,3.2,7.2,7.2l0,0c0,4-3.2,7.2-7.2,7.2h0c-4,0-7.2-3.2-7.2-7.2l0,0
	C794.4,347.2,797.6,344,801.6,344z"/>
<path class="st4" d="M935.3,236.5h14.5V251h-14.5V236.5z"/>
<path class="st15" d="M978.1,243.9h14.5v14.5h-14.5V243.9z"/>
<path class="st4" d="M953.1,229.2h14.5v14.5h-14.5V229.2z"/>
<path class="st15" d="M954.8,247.3h14.5v14.5h-14.5V247.3z"/>
<path class="st4" d="M978.1,227.7L978.1,227.7c4,0,7.2,3.2,7.2,7.2l0,0c0,4-3.2,7.2-7.2,7.2h0c-4,0-7.2-3.2-7.2-7.2l0,0
	C970.9,231,974.1,227.7,978.1,227.7z"/>
<path class="st4" d="M991.4,225.6h14.5V240h-14.5V225.6z"/>
<path class="st15" d="M1011.5,220.5h14.5V235h-14.5V220.5z"/>
<path class="st4" d="M1036.8,216.3h14.5v14.5h-14.5V216.3z"/>
<path class="st4" d="M1068.8,213.2L1068.8,213.2c4,0,7.2,3.2,7.2,7.2l0,0c0,4-3.2,7.2-7.2,7.2h0c-4,0-7.2-3.2-7.2-7.2l0,0
	C1061.6,216.5,1064.8,213.2,1068.8,213.2z"/>
<path class="st4" d="M1089.1,207.7h14.5v14.5h-14.5V207.7z"/>
<path class="st4" d="M1123.7,222.1h14.5v14.5h-14.5V222.1z"/>
<path class="st4" d="M1077.9,225.6h14.5V240h-14.5V225.6z"/>
<path class="st4" d="M1029.6,235h14.5v14.5h-14.5V235z"/>
<path class="st4" d="M1013.1,238.2L1013.1,238.2c4,0,7.2,3.2,7.2,7.2l0,0c0,4-3.2,7.2-7.2,7.2h0c-4,0-7.2-3.2-7.2-7.2l0,0
	C1005.9,241.5,1009.1,238.2,1013.1,238.2z"/>
<path class="st4" d="M943.2,257.6L943.2,257.6c4,0,7.2,3.2,7.2,7.2l0,0c0,4-3.2,7.2-7.2,7.2h0c-4,0-7.2-3.2-7.2-7.2l0,0
	C935.9,260.9,939.2,257.6,943.2,257.6z"/>
<path class="st15" d="M1052.3,229.4h14.5v14.5h-14.5V229.4z"/>
<path class="st15" d="M1110.8,220.5L1110.8,220.5c4,0,7.2,3.2,7.2,7.2l0,0c0,4-3.2,7.2-7.2,7.2h0c-4,0-7.2-3.2-7.2-7.2l0,0
	C1103.6,223.7,1106.9,220.5,1110.8,220.5z"/>
<path class="st4" d="M1132.7,204.8h14.5v14.5h-14.5V204.8z"/>
<path class="st4" d="M1154.4,220.5L1154.4,220.5c4,0,7.2,3.2,7.2,7.2l0,0c0,4-3.2,7.2-7.2,7.2h0c-4,0-7.2-3.2-7.2-7.2l0,0
	C1147.2,223.7,1150.4,220.5,1154.4,220.5z"/>
<path class="st4" d="M1163.9,207.7h14.5v14.5h-14.5V207.7z"/>
<path class="st15" d="M1180.2,218.3h14.5v14.5h-14.5V218.3z"/>
<path class="st4" d="M1197.3,206h14.5v14.5h-14.5V206z"/>
<path class="st15" d="M1214,213.2h14.5v14.5H1214V213.2z"/>
<path class="st4" d="M1231.1,206h14.5v14.5h-14.5V206z"/>
<path class="st4" d="M1249.8,222.1L1249.8,222.1c4,0,7.2,3.2,7.2,7.2l0,0c0,4-3.2,7.2-7.2,7.2h0c-4,0-7.2-3.2-7.2-7.2l0,0
	C1242.5,225.4,1245.8,222.1,1249.8,222.1z"/>
<path class="st4" d="M1335.7,218.3h14.5v14.5h-14.5V218.3z"/>
<path class="st4" d="M1255.4,201.8h14.5v14.5h-14.5V201.8z"/>
<path class="st15" d="M1268.4,218.3h14.5v14.5h-14.5V218.3z"/>
<path class="st15" d="M1285.7,208.1h14.5v14.5h-14.5V208.1z"/>
<path class="st15" d="M1354.2,211.1h14.5v14.5h-14.5V211.1z"/>
<path class="st4" d="M1376.2,204.8h14.5v14.5h-14.5V204.8z"/>
<path class="st4" d="M1398.3,211.1h14.5v14.5h-14.5V211.1z"/>
<path class="st4" d="M1418.3,204.8h14.5v14.5h-14.5V204.8z"/>
<path class="st15" d="M1417.4,222.1h14.5v14.5h-14.5V222.1z"/>
<path class="st15" d="M1454.5,208.1h14.5v14.5h-14.5V208.1z"/>
<path class="st4" d="M1473.1,214.9h14.5v14.5h-14.5V214.9z"/>
<path class="st4" d="M1463.3,224.6L1463.3,224.6c4,0,7.2,3.2,7.2,7.2l0,0c0,4-3.2,7.2-7.2,7.2h0c-4,0-7.2-3.2-7.2-7.2l0,0
	C1456,227.8,1459.3,224.6,1463.3,224.6z"/>
<path class="st15" d="M1502.7,205.3L1502.7,205.3c4,0,7.2,3.2,7.2,7.2l0,0c0,4-3.2,7.2-7.2,7.2h0c-4,0-7.2-3.2-7.2-7.2l0,0
	C1495.5,208.6,1498.7,205.3,1502.7,205.3z"/>
<path class="st4" d="M1435.8,215.3h14.5v14.5h-14.5V215.3z"/>
<path class="st4" d="M1385.3,222.1L1385.3,222.1c4,0,7.2,3.2,7.2,7.2l0,0c0,4-3.2,7.2-7.2,7.2h0c-4,0-7.2-3.2-7.2-7.2l0,0
	C1378,225.4,1381.3,222.1,1385.3,222.1z"/>
<path class="st4" d="M1315,216.3L1315,216.3c4,0,7.2,3.2,7.2,7.2l0,0c0,4-3.2,7.2-7.2,7.2h0c-4,0-7.2-3.2-7.2-7.2l0,0
	C1307.7,219.5,1311,216.3,1315,216.3z"/>
<path class="st4" d="M1328.5,203.8L1328.5,203.8c4,0,7.2,3.2,7.2,7.2l0,0c0,4-3.2,7.2-7.2,7.2h0c-4,0-7.2-3.2-7.2-7.2l0,0
	C1321.3,207.1,1324.5,203.8,1328.5,203.8z"/>
<path class="st4" d="M1566,218.3h14.5v14.5H1566V218.3z"/>
<path class="st4" d="M1501.5,223.5h14.5V238h-14.5V223.5z"/>
<path class="st4" d="M1515.9,208.1h14.5v14.5h-14.5V208.1z"/>
<path class="st15" d="M1584.5,211.1h14.5v14.5h-14.5V211.1z"/>
<path class="st4" d="M1606.5,204.8h14.5v14.5h-14.5V204.8z"/>
<path class="st4" d="M1628.6,211.1h14.5v14.5h-14.5V211.1z"/>
<path class="st15" d="M1615.6,222.1L1615.6,222.1c4,0,7.2,3.2,7.2,7.2l0,0c0,4-3.2,7.2-7.2,7.2h0c-4,0-7.2-3.2-7.2-7.2l0,0
	C1608.3,225.4,1611.6,222.1,1615.6,222.1z"/>
<path class="st15" d="M1545.3,216.3L1545.3,216.3c4,0,7.2,3.2,7.2,7.2l0,0c0,4-3.2,7.2-7.2,7.2h0c-4,0-7.2-3.2-7.2-7.2l0,0
	C1538,219.5,1541.3,216.3,1545.3,216.3z"/>
<path class="st4" d="M1558.8,203.8L1558.8,203.8c4,0,7.2,3.2,7.2,7.2l0,0c0,4-3.2,7.2-7.2,7.2h0c-4,0-7.2-3.2-7.2-7.2l0,0
	C1551.6,207.1,1554.8,203.8,1558.8,203.8z"/>
<path class="st4" d="M828.7,279.4h14.5v14.5h-14.5V279.4z"/>
<path class="st4" d="M851.8,280.5h14.5V295h-14.5V280.5z"/>
<path class="st4" d="M894,247.3h14.5v14.5H894V247.3z"/>
<path class="st4" d="M737.8,331.8h14.5v14.5h-14.5V331.8z"/>
<path class="st4" d="M570.1,528.4h14.5v14.5h-14.5V528.4z"/>
<path class="st4" d="M593.6,528.4h14.5v14.5h-14.5V528.4z"/>
<path class="st15" d="M617.1,528.4h14.5v14.5h-14.5V528.4z"/>
<path class="st4" d="M711.3,528.4h14.5v14.5h-14.5V528.4z"/>
<path class="st4" d="M625.9,475h14.5v14.5h-14.5V475z"/>
<path class="st15" d="M758.3,353.5L758.3,353.5c4,0,7.2,3.2,7.2,7.2l0,0c0,4-3.2,7.2-7.2,7.2h0c-4,0-7.2-3.2-7.2-7.2l0,0
	C751.1,356.7,754.3,353.5,758.3,353.5z"/>
<path class="st4" d="M534.1,543.4h14.5v14.5h-14.5V543.4z"/>
<path class="st4" d="M570.1,550.6h14.5v14.5h-14.5V550.6z"/>
<path class="st4" d="M617.1,550.6h14.5v14.5h-14.5V550.6z"/>
<path class="st15" d="M664.2,550.6h14.5v14.5h-14.5V550.6z"/>
<path class="st4" d="M664.2,572.9h14.5v14.5h-14.5V572.9z"/>
<path class="st4" d="M644.2,587.9h14.5v14.5h-14.5V587.9z"/>
<path class="st4" d="M649.7,462h14.5v14.5h-14.5V462z"/>
<path class="st4" d="M718.5,587.9H733v14.5h-14.5V587.9z"/>
<path class="st15" d="M680.5,528.4H695v14.5h-14.5V528.4z"/>
<path class="st4" d="M597.5,561.8l8.3,11.8L594,582l-8.3-11.8L597.5,561.8z"/>
<path class="st4" d="M699.8,560.3h14.5v14.5h-14.5V560.3z"/>
<path class="st4" d="M751.1,550.6h14.5v14.5h-14.5V550.6z"/>
<path class="st15" d="M727.6,371.9H742v14.5h-14.5V371.9z"/>
<path class="st4" d="M688.5,586.5H703v14.5h-14.5V586.5z"/>
<path class="st4" d="M546.5,595.1H561v14.5h-14.5V595.1z"/>
<path class="st4" d="M593.6,595.1h14.5v14.5h-14.5V595.1z"/>
<path class="st4" d="M617.1,595.1h14.5v14.5h-14.5V595.1z"/>
<path class="st15" d="M582.2,615.4L582.2,615.4c4,0,7.2,3.2,7.2,7.2v0c0,4-3.2,7.2-7.2,7.2h0c-4,0-7.2-3.2-7.2-7.2v0
	C574.9,618.6,578.2,615.4,582.2,615.4z"/>
<path class="st15" d="M617.1,617.4h14.5v14.5h-14.5V617.4z"/>
<path class="st4" d="M647.9,614.4l10.2,10.2l-10.2,10.2l-10.2-10.2L647.9,614.4z"/>
<path class="st4" d="M553.8,639.7L553.8,639.7c4,0,7.2,3.2,7.2,7.2v0c0,4-3.2,7.2-7.2,7.2h0c-4,0-7.2-3.2-7.2-7.2v0
	C546.5,642.9,549.8,639.7,553.8,639.7z"/>
<path class="st4" d="M444.7,753.7L444.7,753.7c4,0,7.2,3.2,7.2,7.2v0c0,4-3.2,7.2-7.2,7.2l0,0c-4,0-7.2-3.2-7.2-7.2v0
	C437.5,757,440.7,753.7,444.7,753.7z"/>
<path class="st15" d="M431.3,771.6L431.3,771.6c4,0,7.2,3.2,7.2,7.2v0c0,4-3.2,7.2-7.2,7.2l0,0c-4,0-7.2-3.2-7.2-7.2v0
	C424.1,774.8,427.3,771.6,431.3,771.6z"/>
<path class="st4" d="M459.2,778.8L459.2,778.8c4,0,7.2,3.2,7.2,7.2v0c0,4-3.2,7.2-7.2,7.2l0,0c-4,0-7.2-3.2-7.2-7.2v0
	C452,782,455.2,778.8,459.2,778.8z"/>
<path class="st4" d="M593.6,639.7h14.5v14.5h-14.5V639.7z"/>
<path class="st4" d="M640.7,639.7h14.5v14.5h-14.5V639.7z"/>
<path class="st15" d="M1284.7,926.3h2V1080h-2V926.3z"/>
<path class="st15" d="M1284.7,602.2h2v248h-2V602.2z"/>
<path class="st15" d="M1284.7,262.1h2v248.7h-2V262.1z"/>
<path class="st15" d="M1284.7,1.3h2v174.1h-2V1.3z"/>
<path class="st15" d="M1272.5,926.3h2V1080h-2V926.3z"/>
<path class="st15" d="M1272.5,602.2h2v248h-2V602.2z"/>
<path class="st15" d="M1272.5,262.1h2v248.7h-2V262.1z"/>
<path class="st15" d="M1272.5,1.3h2v174.1h-2V1.3z"/>
<circle class="st3" cx="1604.5" cy="548.1" r="122.7"/>
<path class="st16" d="M1655.8,318.6h-206.5V112.1h206.5L1655.8,318.6z M1451.3,316.6h202.5V114.1h-202.5V316.6z"/>
<path class="st15" d="M1258,174.4h43v2h-43V174.4z"/>
<path class="st15" d="M1258,261.1h43v2h-43V261.1z"/>
<path class="st15" d="M1258.3,509.7h43v2h-43V509.7z"/>
<path class="st15" d="M1258.3,601.2h43v2h-43V601.2z"/>
<path class="st15" d="M1258.3,849.1h43v2h-43V849.1z"/>
<path class="st15" d="M1258.3,925.3h43v2h-43V925.3z"/>
<path class="st16" d="M774.3,454.3h-3v-58.6h-58.6v-3h61.6V454.3z"/>
<path class="st16" d="M438.3,454.3h-3v-61.6h61.6v3h-58.6V454.3z"/>
<path class="st16" d="M496.9,708.6h-61.6V647h3v58.6h58.6L496.9,708.6z"/>
<path class="st16" d="M774.3,708.6h-61.6v-3h58.6V647h3V708.6z"/>
<path class="st15" d="M596.7,189h-2V62.7H1273v2H596.7L596.7,189z"/>
<path class="st15" d="M599.4,884.7h2v202.9h-2V884.7z"/>
<path class="st15" d="M634.1,191.1h-2V98.3H1273v2H634.1L634.1,191.1z"/>
<path class="st15" d="M0,436.4h254.5v2H0V436.4z"/>
<path class="st15" d="M0,464.3h246.6v2H0V464.3z"/>
<path class="st15" d="M0,492.3h241v2H0V492.3z"/>
<path class="st15" d="M0,520.2h237.8v2H0V520.2z"/>
<path class="st15" d="M0,548.1h235.9v2H0V548.1z"/>
<path class="st15" d="M0,576.1h237.8v2H0V576.1z"/>
<path class="st15" d="M0,604h241.1v2H0V604z"/>
<path class="st15" d="M0,632h246.7v2H0V632z"/>
<path class="st15" d="M0,659.9h254.6v2H0V659.9z"/>
<path class="st16" d="M1654.8,214.3H1920v2h-265.2V214.3z"/>
<g>
	<path class="st15" d="M940.6,643.3H1273v2H940.6L940.6,643.3z"/>
	<path class="st15" d="M925.6,691.5H1273v2H925.6L925.6,691.5z"/>
	<path class="st15" d="M600.4,1008h673v2h-673V1008z"/>
	<path class="st15" d="M977,54.9v8.8h-12.4v-8.8H977z"/>
	<path class="st15" d="M953.5,54.9v8.8h-12.4v-8.8H953.5z"/>
	<path class="st15" d="M930,54.9v8.8h-12.4v-8.8H930z"/>
	<path class="st15" d="M906.5,54.9v8.8h-12.4v-8.8H906.5z"/>
	<path class="st15" d="M883,54.9v8.8h-12.4v-8.8H883z"/>
	<path class="st15" d="M1225.2,693.2v8.8h-12.4v-8.8H1225.2z"/>
	<path class="st15" d="M1201.7,693.2v8.8h-12.4v-8.8H1201.7z"/>
	<path class="st15" d="M1178.2,693.2v8.8h-12.4v-8.8H1178.2z"/>
	<path class="st15" d="M1154.7,693.2v8.8h-12.4v-8.8H1154.7z"/>
	<path class="st15" d="M1131.2,693.2v8.8h-12.4v-8.8H1131.2z"/>
	<path class="st15" d="M753,1009v8.8h-12.4v-8.8H753z"/>
	<path class="st15" d="M729.5,1009v8.8h-12.4v-8.8H729.5z"/>
	<path class="st15" d="M706,1009v8.8h-12.4v-8.8H706z"/>
	<path class="st15" d="M682.5,1009v8.8h-12.4v-8.8H682.5z"/>
	<path class="st15" d="M659,1009v8.8h-12.4v-8.8H659z"/>
	<path class="st15" d="M1558.2,671.8c-68.3,0-123.7-55.4-123.7-123.7s55.4-123.7,123.7-123.7s123.7,55.4,123.7,123.7c0,0,0,0,0,0
		C1681.8,616.4,1626.5,671.7,1558.2,671.8z M1558.2,426.4c-67.2,0-121.7,54.5-121.7,121.7s54.5,121.7,121.7,121.7
		c67.2,0,121.7-54.5,121.7-121.7v0C1679.8,480.9,1625.4,426.5,1558.2,426.4L1558.2,426.4z"/>
	<path class="st15" d="M1680.9,547.2H1920v1.7h-239.1V547.2z"/>
	<path class="st15" d="M1694.6,977.5h-277l0.9-1.5l137.6-224.2l0.9,1.4L1694.6,977.5z M1421.2,975.5h269.9l-134.9-219.9
		L1421.2,975.5z"/>
	<path class="st15" d="M1637.7,883.7H1920v2h-282.3V883.7z"/>
</g>
</svg>
