<?xml version="1.0" encoding="utf-8"?>
<!-- Generator: Adobe Illustrator 24.2.3, SVG Export Plug-In . SVG Version: 6.00 Build 0)  -->
<svg version="1.1" id="Ebene_1" xmlns="http://www.w3.org/2000/svg" xmlns:xlink="http://www.w3.org/1999/xlink" x="0px" y="0px"
	 viewBox="0 0 1920 1080" style="enable-background:new 0 0 1920 1080;" xml:space="preserve">
<style type="text/css">
	.st0{fill:#EEEAE1;}
	.st1{fill:#3A2A78;}
	.st2{opacity:0.25;fill:url(#SVGID_1_);enable-background:new    ;}
	.st3{fill:#C8B89A;}
	.st4{fill:#1A9B69;}
	.st5{opacity:0.4;fill:#1A9B69;enable-background:new    ;}
	.st6{clip-path:url(#SVGID_3_);}
	.st7{fill:#3A2B78;}
	.st8{clip-path:url(#SVGID_5_);}
	.st9{clip-path:url(#SVGID_7_);}
	.st10{clip-path:url(#SVGID_9_);}
	.st11{clip-path:url(#SVGID_11_);}
	.st12{clip-path:url(#SVGID_13_);}
	.st13{clip-path:url(#SVGID_15_);}
	.st14{clip-path:url(#SVGID_17_);}
	.st15{clip-path:url(#SVGID_19_);}
	.st16{clip-path:url(#SVGID_21_);}
	.st17{fill:#A580B0;}
	.st18{clip-path:url(#SVGID_23_);}
	.st19{fill:#D9D500;}
	.st20{fill:#D8737E;}
	.st21{fill:#EA8900;}
	.st22{clip-path:url(#SVGID_25_);}
	.st23{opacity:0.33;fill:url(#SVGID_26_);enable-background:new    ;}
	.st24{fill:#F0C1B9;}
	.st25{fill:none;}
	.st26{fill:#EAE16C;}
	.st27{clip-path:url(#SVGID_28_);}
</style>
<g>
	<polyline class="st0" points="1920,0 0,0 0,1080 1920,1080 1920,0 	"/>
</g>
<path class="st1" d="M479.2,74.3h925.4v925.4H479.2V74.3z"/>
<path class="st1" d="M479.2,74.3h925.4v925.4H479.2V74.3z"/>
<radialGradient id="SVGID_1_" cx="941.9" cy="543" r="462.7" gradientTransform="matrix(1 0 0 -1 0 1080)" gradientUnits="userSpaceOnUse">
	<stop  offset="5.455416e-02" style="stop-color:#3A2A78"/>
	<stop  offset="1" style="stop-color:#000000"/>
</radialGradient>
<path class="st2" d="M479.2,74.3h925.4v925.4H479.2V74.3z"/>
<path class="st3" d="M1747.3,624.7c0,0-30-6.6-45.1-12.5c-43.9-17-59.3-45.9-59.3-45.9l8.3-7.9c0,0,26.8,21.9,44.9,28.1
	s34.3,8.5,46.8,8c8.1-0.4,16.1-1.2,24-2.4"/>
<path class="st1" d="M1747.1,625.3c-0.3-0.1-30.2-6.7-45.2-12.5c-22.8-8.8-37.8-20.9-46.3-29.5c-9.3-9.3-13.1-16.4-13.3-16.7
	l-0.2-0.4l9-8.6l0.4,0.3c0.3,0.2,26.9,21.9,44.7,27.9c16.7,5.7,33.3,8.5,46.6,8c8-0.4,16-1.2,24-2.4l0.2,1.2c-8,1.2-16,2-24.1,2.4
	c-13.4,0.5-30.1-2.3-47-8.1c-16.7-5.7-41.1-25-44.7-27.8l-7.5,7.2c2.1,3.6,18.4,29.6,58.7,45.2c14.9,5.8,44.7,12.4,45,12.5
	L1747.1,625.3z"/>
<path class="st4" d="M688.4,729.5c-30.3-5.8-58.9-18.4-83.8-36.7l7.4-10.1c23.3,17.2,50.2,29,78.7,34.5L688.4,729.5z M779.8,727
	l-3.1-12.1c28.1-7.2,54.3-20.4,76.7-38.9l8,9.7C837.5,705.2,809.7,719.4,779.8,727L779.8,727z M544.5,623.9
	c-14.8-27.1-23.3-57.2-24.9-88l12.5-0.7c1.5,29,9.5,57.2,23.4,82.7L544.5,623.9z M917.5,613.5l-11.3-5.3
	c12.4-26.2,18.8-54.9,18.7-83.9c0-7.4-0.4-14.7-1.2-22l12.4-1.4c0.9,7.8,1.3,15.6,1.3,23.4C937.5,555.1,930.7,585.6,917.5,613.5z
	 M546.1,450.5l-11.6-4.7c11.6-28.6,29.4-54.2,52.1-75.2l8.5,9.2C573.8,399.5,557.1,423.6,546.1,450.5z M895.7,421
	c-15.3-24.6-35.8-45.6-60.1-61.5l6.8-10.5c25.8,16.9,47.6,39.2,63.9,65.4L895.7,421z M669.4,336.7l-3.8-11.9
	c20.3-6.4,41.4-9.6,62.7-9.6c9.5,0,19,0.6,28.4,1.9l-1.7,12.4c-8.9-1.2-17.8-1.8-26.7-1.8C708.4,327.7,688.5,330.7,669.4,336.7z"/>
<path class="st4" d="M776.3,740.6l-0.4-1.7C876.4,716.6,948,627.5,948.2,524.5c0-1.7,0-3.4-0.1-5.1h1.8c0,1.7,0.1,3.4,0.1,5.2
	C949.9,628.3,877.7,718.1,776.3,740.6L776.3,740.6z M556.4,664.1c-37.5-46.2-54.9-105.5-48.3-164.6l1.8,0.2
	c-6.5,58.7,10.7,117.5,47.9,163.3L556.4,664.1z M822.5,325.6c-29.3-14-61.4-21.2-93.9-21.2c-26,0-51.7,4.6-76.1,13.5l-0.6-1.7
	c24.6-9,50.6-13.7,76.7-13.7c32.7-0.1,65.1,7.2,94.6,21.3L822.5,325.6z"/>
<path class="st5" d="M728.4,745.2c-17.1,0-34.1-2-50.7-5.8l4.1-17.4c15.3,3.6,30.9,5.4,46.6,5.4c30.1,0.1,59.9-6.6,87.1-19.6
	l7.7,16.2C793.5,738.1,761.2,745.3,728.4,745.2L728.4,745.2z M554.4,660.6c-30.6-38.8-47.2-86.9-47-136.3c0-0.7,0-1.5,0-2.2
	l17.9,0.2v2c-0.2,45.4,15.1,89.6,43.2,125.3L554.4,660.6z M927.1,621l-16.1-7.8c13.5-27.7,20.5-58.1,20.4-88.9c0-15-1.6-30-4.9-44.7
	l17.5-3.9c3.6,15.9,5.4,32.2,5.4,48.6C949.4,557.8,941.8,590.9,927.1,621L927.1,621z M571,395.9l-13.9-11.3
	c31.8-38.8,75.7-65.8,124.8-76.4l3.7,17.5C640.6,335.4,600.2,360.2,571,395.9L571,395.9z M855.2,365.6
	c-35.9-29-80.7-44.7-126.8-44.5v-17.9c50.2,0,98.8,17.1,138,48.4L855.2,365.6z"/>
<path class="st4" d="M650.6,337.5l3.9-1.6L703,457.8l-3.9,1.6L650.6,337.5z"/>
<path class="st4" d="M698.4,471.5l-3.9-1.5l5.3-14.1l12.1,4.5l-1.5,4l-8.2-3.1L698.4,471.5z"/>
<g>
	<g>
		<defs>
			<line id="SVGID_2_" x1="652.5" y1="336.8" x2="667.6" y2="374.8"/>
		</defs>
		<clipPath id="SVGID_3_">
			<use xlink:href="#SVGID_2_"  style="overflow:visible;"/>
		</clipPath>
		<g class="st6">
			<path class="st7" d="M652.5,336.8h11.4v38h-11.4V336.8z"/>
			<path class="st7" d="M663.9,336.8h3.7v38h-3.7V336.8z"/>
		</g>
	</g>
</g>
<path class="st4" d="M648,338.6l9.1-3.6l15.1,38l-9.1,3.6L648,338.6z"/>
<g>
	<g>
		<defs>
			<line id="SVGID_4_" x1="652.5" y1="336.8" x2="655.9" y2="345.5"/>
		</defs>
		<clipPath id="SVGID_5_">
			<use xlink:href="#SVGID_4_"  style="overflow:visible;"/>
		</clipPath>
		<g class="st8">
			<path class="st7" d="M652.5,336.8h2.6v8.7h-2.6V336.8z"/>
			<path class="st7" d="M655.1,336.8h0.8v8.7h-0.8V336.8z"/>
		</g>
	</g>
</g>
<path class="st4" d="M649.1,338.2l6.7-2.7l3.5,8.7l-6.7,2.7L649.1,338.2z"/>
<path class="st4" d="M810.5,411.6l37.7-51l3.4,2.5l-37.7,51L810.5,411.6z"/>
<path class="st4" d="M810.8,419.9l-0.4-4.7l-4.7,0.4l-0.4-4.2l8.9-0.8l0.8,8.9L810.8,419.9z"/>
<g>
	<g>
		<defs>
			<line id="SVGID_6_" x1="850" y1="361.9" x2="838" y2="378.1"/>
		</defs>
		<clipPath id="SVGID_7_">
			<use xlink:href="#SVGID_6_"  style="overflow:visible;"/>
		</clipPath>
		<g class="st9">
			<path class="st7" d="M838,361.9h9V378h-9V361.9z"/>
			<path class="st7" d="M847,361.9h2.9V378H847V361.9z"/>
		</g>
	</g>
</g>
<path class="st4" d="M834.2,375.1l12-16.2l7.9,5.8l-12,16.2L834.2,375.1z"/>
<g>
	<g>
		<defs>
			<line id="SVGID_8_" x1="850" y1="361.9" x2="844.6" y2="369.1"/>
		</defs>
		<clipPath id="SVGID_9_">
			<use xlink:href="#SVGID_8_"  style="overflow:visible;"/>
		</clipPath>
		<g class="st10">
			<path class="st7" d="M844.6,361.9h4v7.2h-4V361.9z"/>
			<path class="st7" d="M848.7,361.9h1.3v7.2h-1.3V361.9z"/>
		</g>
	</g>
</g>
<path class="st4" d="M841.8,367.1l5.4-7.2l5.8,4.3l-5.4,7.2L841.8,367.1z"/>
<path class="st4" d="M833.3,567.1l1.4-3.9l87.5,32l-1.4,3.9L833.3,567.1z"/>
<path class="st4" d="M825.8,569.9l-1.3-4l6.9-2.2l-2.2-7l4-1.2l3.5,10.9L825.8,569.9z"/>
<g>
	<g>
		<defs>
			<line id="SVGID_10_" x1="918.2" y1="595.8" x2="882.6" y2="582.8"/>
		</defs>
		<clipPath id="SVGID_11_">
			<use xlink:href="#SVGID_10_"  style="overflow:visible;"/>
		</clipPath>
		<g class="st11">
			<path class="st7" d="M882.6,582.8h26.9v13h-26.9V582.8z"/>
			<path class="st7" d="M909.5,582.8h8.7v13h-8.7V582.8z"/>
		</g>
	</g>
</g>
<path class="st4" d="M880.9,587.4l3.4-9.2l35.6,13l-3.4,9.2L880.9,587.4z"/>
<g>
	<g>
		<defs>
			<line id="SVGID_12_" x1="918.2" y1="595.8" x2="908.6" y2="592.3"/>
		</defs>
		<clipPath id="SVGID_13_">
			<use xlink:href="#SVGID_12_"  style="overflow:visible;"/>
		</clipPath>
		<g class="st12">
			<path class="st7" d="M908.6,592.3h7.2v3.5h-7.2V592.3z"/>
			<path class="st7" d="M915.9,592.3h2.3v3.5h-2.3V592.3z"/>
		</g>
	</g>
</g>
<path class="st4" d="M907.5,595.7l2.5-6.8l9.6,3.5l-2.5,6.8L907.5,595.7z"/>
<path class="st4" d="M680.5,718.2l10.5-44.4l4.1,1l-10.5,44.4L680.5,718.2z"/>
<path class="st4" d="M691.7,676.9l-4.4-14.4l4-1.3l3.2,10.6l11.2-3l1.1,4.1L691.7,676.9z"/>
<g>
	<g>
		<defs>
			<line id="SVGID_14_" x1="682.6" y1="718.7" x2="690.5" y2="685.5"/>
		</defs>
		<clipPath id="SVGID_15_">
			<use xlink:href="#SVGID_14_"  style="overflow:visible;"/>
		</clipPath>
		<g class="st13">
			<path class="st7" d="M682.6,685.5h5.9v33.2h-5.9V685.5z"/>
			<path class="st7" d="M688.5,685.5h1.9v33.2h-1.9V685.5z"/>
		</g>
	</g>
</g>
<path class="st4" d="M677.8,717.5l7.9-33.2l9.5,2.3l-7.9,33.2L677.8,717.5z"/>
<g>
	<g>
		<defs>
			<line id="SVGID_16_" x1="682.6" y1="718.7" x2="684.8" y2="709.5"/>
		</defs>
		<clipPath id="SVGID_17_">
			<use xlink:href="#SVGID_16_"  style="overflow:visible;"/>
		</clipPath>
		<g class="st14">
			<path class="st7" d="M682.6,709.5h1.6v9.2h-1.6V709.5z"/>
			<path class="st7" d="M684.2,709.5h0.5v9.2h-0.5V709.5z"/>
		</g>
	</g>
</g>
<path class="st4" d="M679.1,717.8l2.2-9.1l7,1.7l-2.2,9.1L679.1,717.8z"/>
<path class="st4" d="M533.2,579.3l47.8-13.5l1.1,4l-47.8,13.5L533.2,579.3z"/>
<path class="st4" d="M586.8,572.6l-8.1-3.7l3.8-8.1l3.8,1.8l-2,4.2l4.2,2L586.8,572.6z"/>
<g>
	<g>
		<defs>
			<line id="SVGID_18_" x1="533.7" y1="581.4" x2="562.6" y2="573"/>
		</defs>
		<clipPath id="SVGID_19_">
			<use xlink:href="#SVGID_18_"  style="overflow:visible;"/>
		</clipPath>
		<g class="st15">
			<path class="st7" d="M533.7,573h21.8v8.4h-21.8V573z"/>
			<path class="st7" d="M555.5,573h7.1v8.4h-7.1V573z"/>
		</g>
	</g>
</g>
<path class="st4" d="M532.3,576.7l28.9-8.4l2.7,9.4l-28.9,8.4L532.3,576.7z"/>
<g>
	<g>
		<defs>
			<line id="SVGID_20_" x1="533.7" y1="581.4" x2="545.2" y2="578"/>
		</defs>
		<clipPath id="SVGID_21_">
			<use xlink:href="#SVGID_20_"  style="overflow:visible;"/>
		</clipPath>
		<g class="st16">
			<path class="st7" d="M533.7,578h8.7v3.3h-8.7V578z"/>
			<path class="st7" d="M542.4,578h2.8v3.3h-2.8V578z"/>
		</g>
	</g>
</g>
<path class="st4" d="M532.7,577.9l11.5-3.4l2,6.9l-11.5,3.4L532.7,577.9z"/>
<path class="st17" d="M536.5,531.1h7.4v7.4h-7.4V531.1z"/>
<path class="st17" d="M522.1,507h7.4v7.4h-7.4V507z"/>
<path class="st17" d="M496.7,515h8v8h-8V515z"/>
<g>
	<g>
		<defs>
			<circle id="SVGID_22_" cx="728.4" cy="522.8" r="156.6"/>
		</defs>
		<clipPath id="SVGID_23_">
			<use xlink:href="#SVGID_22_"  style="overflow:visible;"/>
		</clipPath>
		<g class="st18">
			<path class="st4" d="M579.9,333.7h8.9v8.9h-8.9V333.7z"/>
			<path class="st4" d="M608.9,333.7h8.9v8.9h-8.9V333.7z"/>
			<path class="st4" d="M623.3,333.7h8.9v8.9h-8.9V333.7z"/>
			<path class="st4" d="M637.8,333.7h8.9v8.9h-8.9V333.7z"/>
			<path class="st4" d="M652.3,333.7h8.9v8.9h-8.9V333.7z"/>
			<path class="st4" d="M666.7,333.7h8.9v8.9h-8.9V333.7z"/>
			<path class="st4" d="M681.2,333.7h8.9v8.9h-8.9V333.7z"/>
			<path class="st4" d="M710.2,333.7h8.9v8.9h-8.9V333.7z"/>
			<path class="st4" d="M724.6,333.7h8.9v8.9h-8.9V333.7z"/>
			<path class="st19" d="M594.4,347.3h8.9v8.9h-8.9V347.3z"/>
			<path class="st17" d="M608.9,347.3h8.9v8.9h-8.9V347.3z"/>
			<path class="st4" d="M623.3,347.3h8.9v8.9h-8.9V347.3z"/>
			<path class="st4" d="M681.2,347.3h8.9v8.9h-8.9V347.3z"/>
			<path class="st4" d="M695.7,347.3h8.9v8.9h-8.9V347.3z"/>
			<path class="st4" d="M724.6,347.3h8.9v8.9h-8.9V347.3z"/>
			<path class="st17" d="M579.9,361h8.9v8.9h-8.9V361z"/>
			<path class="st19" d="M594.4,361h8.9v8.9h-8.9V361z"/>
			<path class="st4" d="M623.3,361h8.9v8.9h-8.9V361z"/>
			<path class="st20" d="M637.8,361h8.9v8.9h-8.9V361z"/>
			<path class="st4" d="M652.3,361h8.9v8.9h-8.9V361z"/>
			<path class="st4" d="M666.7,361h8.9v8.9h-8.9V361z"/>
			<path class="st21" d="M579.9,374.7h8.9v8.9h-8.9V374.7z"/>
			<path class="st20" d="M608.9,374.7h8.9v8.9h-8.9V374.7z"/>
			<path class="st4" d="M623.3,374.7h8.9v8.9h-8.9V374.7z"/>
			<path class="st20" d="M637.8,374.7h8.9v8.9h-8.9V374.7z"/>
			<path class="st4" d="M681.2,374.7h8.9v8.9h-8.9V374.7z"/>
			<path class="st4" d="M710.2,374.7h8.9v8.9h-8.9V374.7z"/>
			<path class="st17" d="M579.9,388.4h8.9v8.9h-8.9V388.4z"/>
			<path class="st4" d="M608.9,388.4h8.9v8.9h-8.9V388.4z"/>
			<path class="st19" d="M623.3,388.4h8.9v8.9h-8.9V388.4z"/>
			<path class="st4" d="M652.3,388.4h8.9v8.9h-8.9V388.4z"/>
			<path class="st4" d="M681.2,388.4h8.9v8.9h-8.9V388.4z"/>
			<path class="st4" d="M695.7,388.4h8.9v8.9h-8.9V388.4z"/>
			<path class="st4" d="M710.2,388.4h8.9v8.9h-8.9V388.4z"/>
			<path class="st4" d="M724.6,388.4h8.9v8.9h-8.9V388.4z"/>
			<path class="st4" d="M579.9,402.1h8.9v8.9h-8.9V402.1z"/>
			<path class="st20" d="M601.9,400.8c2.5,0,4.5,2,4.5,4.5s-2,4.5-4.5,4.5s-4.5-2-4.5-4.5S599.4,400.8,601.9,400.8z"/>
			<path class="st17" d="M636,406.5l6.3-6.3l6.3,6.3l-6.3,6.3L636,406.5z"/>
			<path class="st4" d="M652.3,402.1h8.9v8.9h-8.9V402.1z"/>
			<path class="st4" d="M695.7,402.1h8.9v8.9h-8.9V402.1z"/>
			<path class="st19" d="M584.4,415.8c2.5,0,4.5,2,4.5,4.5s-2,4.5-4.5,4.5s-4.5-2-4.5-4.5C579.9,417.7,581.9,415.8,584.4,415.8z"/>
			<path class="st17" d="M656.7,415.8c2.5,0,4.5,2,4.5,4.5s-2,4.5-4.5,4.5s-4.5-2-4.5-4.5C652.3,417.7,654.3,415.8,656.7,415.8z"/>
			<path class="st4" d="M704.3,418.3l6.3-6.3l6.3,6.3l-6.3,6.3L704.3,418.3z"/>
			<path class="st4" d="M724.6,415.8h8.9v8.9h-8.9V415.8z"/>
			<path class="st20" d="M579.9,429.4h8.9v8.9h-8.9V429.4z"/>
			<path class="st17" d="M637.8,429.4h8.9v8.9h-8.9V429.4z"/>
			<path class="st17" d="M666.7,429.4h8.9v8.9h-8.9V429.4z"/>
			<path class="st17" d="M594.4,443.1h8.9v8.9h-8.9V443.1z"/>
			<path class="st17" d="M623.3,443.1h8.9v8.9h-8.9V443.1z"/>
			<path class="st4" d="M652.3,443.1h8.9v8.9h-8.9V443.1z"/>
			<path class="st4" d="M681.2,443.1h8.9v8.9h-8.9V443.1z"/>
			<path class="st17" d="M594.4,456.8h8.9v8.9h-8.9V456.8z"/>
			<path class="st4" d="M724.6,456.8h8.9v8.9h-8.9V456.8z"/>
			<path class="st4" d="M608.9,470.5h8.9v8.9h-8.9V470.5z"/>
			<path class="st17" d="M623.3,470.5h8.9v8.9h-8.9V470.5z"/>
			<path class="st17" d="M637.8,470.5h8.9v8.9h-8.9V470.5z"/>
			<path class="st4" d="M652.3,470.5h8.9v8.9h-8.9V470.5z"/>
			<path class="st17" d="M666.7,470.5h8.9v8.9h-8.9V470.5z"/>
			<path class="st4" d="M681.2,470.5h8.9v8.9h-8.9V470.5z"/>
			<path class="st4" d="M579.9,484.2h8.9v8.9h-8.9V484.2z"/>
			<path class="st4" d="M594.4,484.2h8.9v8.9h-8.9V484.2z"/>
			<path class="st4" d="M710.2,484.2h8.9v8.9h-8.9V484.2z"/>
			<path class="st4" d="M724.6,484.2h8.9v8.9h-8.9V484.2z"/>
			<path class="st4" d="M538.1,503.3h8.9v8.9h-8.9V503.3z"/>
			<path class="st4" d="M581.5,503.3h8.9v8.9h-8.9V503.3z"/>
			<path class="st4" d="M596,503.3h8.9v8.9H596V503.3z"/>
			<path class="st4" d="M610.4,503.3h8.9v8.9h-8.9V503.3z"/>
			<path class="st4" d="M624.9,503.3h8.9v8.9h-8.9V503.3z"/>
			<path class="st4" d="M639.4,503.3h8.9v8.9h-8.9V503.3z"/>
			<path class="st4" d="M668.3,503.3h8.9v8.9h-8.9V503.3z"/>
			<path class="st4" d="M682.8,503.3h8.9v8.9h-8.9V503.3z"/>
			<path class="st19" d="M552.6,517h8.9v8.9h-8.9V517z"/>
			<path class="st17" d="M538.1,530.7h8.9v8.9h-8.9V530.7z"/>
			<path class="st19" d="M552.6,530.7h8.9v8.9h-8.9V530.7z"/>
			<path class="st17" d="M596,530.7h8.9v8.9H596V530.7z"/>
			<path class="st4" d="M610.4,530.7h8.9v8.9h-8.9V530.7z"/>
			<path class="st4" d="M624.9,530.7h8.9v8.9h-8.9V530.7z"/>
			<path class="st4" d="M653.9,530.7h8.9v8.9h-8.9V530.7z"/>
			<path class="st4" d="M668.3,530.7h8.9v8.9h-8.9V530.7z"/>
			<path class="st21" d="M538.1,544.3h8.9v8.9h-8.9V544.3z"/>
			<path class="st17" d="M581.5,544.3h8.9v8.9h-8.9V544.3z"/>
			<path class="st4" d="M624.9,544.3h8.9v8.9h-8.9V544.3z"/>
			<path class="st4" d="M639.4,544.3h8.9v8.9h-8.9V544.3z"/>
			<path class="st17" d="M538.1,558h8.9v8.9h-8.9V558z"/>
			<path class="st4" d="M610.4,558h8.9v8.9h-8.9V558z"/>
			<path class="st4" d="M653.9,558h8.9v8.9h-8.9V558z"/>
			<path class="st4" d="M668.3,558h8.9v8.9h-8.9V558z"/>
			<path class="st4" d="M682.8,558h8.9v8.9h-8.9V558z"/>
			<path class="st4" d="M538.1,571.7h8.9v8.9h-8.9V571.7z"/>
			<path class="st20" d="M560,570.4c2.5,0,4.5,2,4.5,4.5s-2,4.5-4.5,4.5s-4.5-2-4.5-4.5C555.6,572.4,557.6,570.4,560,570.4z"/>
			<path class="st17" d="M594.1,576.1l6.3-6.3l6.3,6.3l-6.3,6.3L594.1,576.1z"/>
			<path class="st4" d="M610.4,571.7h8.9v8.9h-8.9V571.7z"/>
			<path class="st19" d="M542.6,585.4c2.5,0,4.5,2,4.5,4.5s-2,4.5-4.5,4.5s-4.5-2-4.5-4.5S540.1,585.4,542.6,585.4z"/>
			<path class="st21" d="M567,585.4h8.9v8.9H567V585.4z"/>
			<path class="st4" d="M596,585.4h8.9v8.9H596V585.4z"/>
			<path class="st17" d="M614.9,585.4c2.5,0,4.5,2,4.5,4.5s-2,4.5-4.5,4.5s-4.5-2-4.5-4.5S612.4,585.4,614.9,585.4z"/>
			<path class="st4" d="M639.4,585.4h8.9v8.9h-8.9V585.4z"/>
			<path class="st4" d="M662.5,588l6.3-6.3l6.3,6.3l-6.3,6.3L662.5,588z"/>
			<path class="st4" d="M682.8,585.4h8.9v8.9h-8.9V585.4z"/>
			<path class="st20" d="M538.1,599.1h8.9v8.9h-8.9V599.1z"/>
			<path class="st4" d="M567,599.1h8.9v8.9H567V599.1z"/>
			<path class="st4" d="M581.5,599.1h8.9v8.9h-8.9V599.1z"/>
			<path class="st4" d="M610.4,599.1h8.9v8.9h-8.9V599.1z"/>
			<path class="st17" d="M624.9,599.1h8.9v8.9h-8.9V599.1z"/>
			<path class="st19" d="M538.1,612.7h8.9v8.9h-8.9V612.7z"/>
			<path class="st17" d="M552.6,612.7h8.9v8.9h-8.9V612.7z"/>
			<path class="st19" d="M581.5,612.7h8.9v8.9h-8.9V612.7z"/>
			<path class="st4" d="M610.4,612.7h8.9v8.9h-8.9V612.7z"/>
			<path class="st4" d="M639.4,612.7h8.9v8.9h-8.9V612.7z"/>
			<path class="st4" d="M668.3,612.7h8.9v8.9h-8.9V612.7z"/>
			<path class="st19" d="M552.6,626.4h8.9v8.9h-8.9V626.4z"/>
			<path class="st4" d="M596,626.4h8.9v8.9H596V626.4z"/>
			<path class="st4" d="M653.9,626.4h8.9v8.9h-8.9V626.4z"/>
			<path class="st4" d="M682.8,626.4h8.9v8.9h-8.9V626.4z"/>
			<path class="st4" d="M567,640.1h8.9v8.9H567V640.1z"/>
			<path class="st17" d="M581.5,640.1h8.9v8.9h-8.9V640.1z"/>
			<path class="st17" d="M596,640.1h8.9v8.9H596V640.1z"/>
			<path class="st4" d="M610.4,640.1h8.9v8.9h-8.9V640.1z"/>
			<path class="st4" d="M538.1,653.8h8.9v8.9h-8.9V653.8z"/>
			<path class="st4" d="M552.6,653.8h8.9v8.9h-8.9V653.8z"/>
			<path class="st4" d="M596,653.8h8.9v8.9H596V653.8z"/>
			<path class="st20" d="M610.4,653.8h8.9v8.9h-8.9V653.8z"/>
			<path class="st4" d="M624.9,653.8h8.9v8.9h-8.9V653.8z"/>
			<path class="st4" d="M698.1,503.3h8.9v8.9h-8.9V503.3z"/>
			<path class="st4" d="M727.1,503.3h8.9v8.9h-8.9V503.3z"/>
			<path class="st4" d="M741.5,503.3h8.9v8.9h-8.9V503.3z"/>
			<path class="st4" d="M756,503.3h8.9v8.9H756V503.3z"/>
			<path class="st4" d="M770.5,503.3h8.9v8.9h-8.9V503.3z"/>
			<path class="st4" d="M784.9,503.3h8.9v8.9h-8.9V503.3z"/>
			<path class="st4" d="M799.4,503.3h8.9v8.9h-8.9V503.3z"/>
			<path class="st4" d="M828.3,503.3h8.9v8.9h-8.9V503.3z"/>
			<path class="st4" d="M842.8,503.3h8.9v8.9h-8.9V503.3z"/>
			<path class="st4" d="M712.6,517h8.9v8.9h-8.9V517z"/>
			<path class="st4" d="M727.1,517h8.9v8.9h-8.9V517z"/>
			<path class="st4" d="M741.5,517h8.9v8.9h-8.9V517z"/>
			<path class="st4" d="M799.4,517h8.9v8.9h-8.9V517z"/>
			<path class="st4" d="M813.9,517h8.9v8.9h-8.9V517z"/>
			<path class="st4" d="M842.8,517h8.9v8.9h-8.9V517z"/>
			<path class="st4" d="M698.1,530.7h8.9v8.9h-8.9V530.7z"/>
			<path class="st4" d="M712.6,530.7h8.9v8.9h-8.9V530.7z"/>
			<path class="st4" d="M741.5,530.7h8.9v8.9h-8.9V530.7z"/>
			<path class="st4" d="M756,530.7h8.9v8.9H756V530.7z"/>
			<path class="st4" d="M770.5,530.7h8.9v8.9h-8.9V530.7z"/>
			<path class="st4" d="M770.5,544.3h8.9v8.9h-8.9V544.3z"/>
			<path class="st4" d="M758.2,553.6h8.9v8.9h-8.9V553.6z"/>
			<path class="st4" d="M801.1,547.1h8.9v8.9h-8.9V547.1z"/>
			<path class="st4" d="M780.5,517h8.9v8.9h-8.9V517z"/>
			<path class="st4" d="M722.1,542.7l7.3-5.1l5.1,7.3l-7.3,5.1L722.1,542.7z"/>
			<path class="st4" d="M784.9,530.7h8.9v8.9h-8.9V530.7z"/>
			<path class="st4" d="M813.9,530.7h8.9v8.9h-8.9V530.7z"/>
			<path class="st4" d="M828.3,530.7h8.9v8.9h-8.9V530.7z"/>
			<path class="st4" d="M784.9,544.3h8.9v8.9h-8.9V544.3z"/>
			<path class="st4" d="M698.1,558h8.9v8.9h-8.9V558z"/>
			<path class="st4" d="M727.1,558h8.9v8.9h-8.9V558z"/>
			<path class="st4" d="M741.5,558h8.9v8.9h-8.9V558z"/>
			<path class="st4" d="M774.9,608.3c2.5,0,4.5,2,4.5,4.5s-2,4.5-4.5,4.5s-4.5-2-4.5-4.5C770.5,610.3,772.5,608.3,774.9,608.3z"/>
			<path class="st4" d="M790.3,597.5c2.5,0,4.5,2,4.5,4.5s-2,4.5-4.5,4.5s-4.5-2-4.5-4.5S787.8,597.5,790.3,597.5z"/>
			<path class="st17" d="M720,570.4c2.5,0,4.5,2,4.5,4.5s-2,4.5-4.5,4.5s-4.5-2-4.5-4.5C715.6,572.4,717.6,570.4,720,570.4z"/>
			<g>
				<path class="st4" d="M741.5,571.7h8.9v8.9h-8.9V571.7z"/>
				<path class="st4" d="M754.1,576.1l6.3-6.3l6.3,6.3l-6.3,6.3L754.1,576.1z"/>
				<path class="st4" d="M770.5,571.7h8.9v8.9h-8.9V571.7z"/>
				<path class="st4" d="M784.9,571.7h8.9v8.9h-8.9V571.7z"/>
				<path class="st4" d="M799.4,571.7h8.9v8.9h-8.9V571.7z"/>
				<path class="st4" d="M702.6,585.4c2.5,0,4.5,2,4.5,4.5s-2,4.5-4.5,4.5s-4.5-2-4.5-4.5S700.1,585.4,702.6,585.4z"/>
				<path class="st4" d="M727.1,585.4h8.9v8.9h-8.9V585.4z"/>
				<path class="st4" d="M756,585.4h8.9v8.9H756V585.4z"/>
				<path class="st4" d="M774.9,585.4c2.5,0,4.5,2,4.5,4.5s-2,4.5-4.5,4.5s-4.5-2-4.5-4.5C770.5,587.4,772.5,585.4,774.9,585.4z"/>
				<path class="st4" d="M799.4,585.4h8.9v8.9h-8.9V585.4z"/>
				<path class="st4" d="M822.5,587.9l6.3-6.3l6.3,6.3l-6.3,6.3L822.5,587.9z"/>
				<path class="st4" d="M842.8,585.4h8.9v8.9h-8.9V585.4z"/>
				<path class="st4" d="M698.1,612.7h8.9v8.9h-8.9V612.7z"/>
				<path class="st4" d="M712.6,612.7h8.9v8.9h-8.9V612.7z"/>
				<path class="st4" d="M741.5,612.7h8.9v8.9h-8.9V612.7z"/>
				<path class="st4" d="M756,612.7h8.9v8.9H756V612.7z"/>
				<path class="st4" d="M784.9,612.7h8.9v8.9h-8.9V612.7z"/>
				<path class="st4" d="M799.4,612.7h8.9v8.9h-8.9V612.7z"/>
				<path class="st4" d="M828.3,612.7h8.9v8.9h-8.9V612.7z"/>
				<path class="st4" d="M712.6,626.4h8.9v8.9h-8.9V626.4z"/>
				<path class="st4" d="M770.5,626.4h8.9v8.9h-8.9V626.4z"/>
				<path class="st4" d="M813.9,626.4h8.9v8.9h-8.9V626.4z"/>
				<path class="st4" d="M727.1,640.1h8.9v8.9h-8.9V640.1z"/>
				<path class="st4" d="M741.5,640.1h8.9v8.9h-8.9V640.1z"/>
				<path class="st4" d="M842.8,640.1h8.9v8.9h-8.9V640.1z"/>
				<path class="st4" d="M698.1,653.8h8.9v8.9h-8.9V653.8z"/>
				<path class="st4" d="M756,653.8h8.9v8.9H756V653.8z"/>
				<path class="st4" d="M784.9,653.8h8.9v8.9h-8.9V653.8z"/>
				<path class="st4" d="M828.3,653.8h8.9v8.9h-8.9V653.8z"/>
				<path class="st4" d="M842.8,653.8h8.9v8.9h-8.9V653.8z"/>
				<path class="st4" d="M861.7,505.9h8.9v8.9h-8.9V505.9z"/>
				<path class="st4" d="M890.6,505.9h8.9v8.9h-8.9V505.9z"/>
				<path class="st4" d="M905.1,505.9h8.9v8.9h-8.9V505.9z"/>
				<path class="st4" d="M919.5,505.9h8.9v8.9h-8.9V505.9z"/>
				<path class="st4" d="M934,505.9h8.9v8.9H934V505.9z"/>
				<path class="st4" d="M948.5,505.9h8.9v8.9h-8.9V505.9z"/>
				<path class="st4" d="M962.9,505.9h8.9v8.9h-8.9V505.9z"/>
				<path class="st4" d="M991.9,505.9h8.9v8.9h-8.9V505.9z"/>
				<path class="st4" d="M1006.3,505.9h8.9v8.9h-8.9V505.9z"/>
				<path class="st4" d="M876.1,519.6h8.9v8.9h-8.9V519.6z"/>
				<path class="st4" d="M890.6,519.6h8.9v8.9h-8.9V519.6z"/>
				<path class="st4" d="M905.1,519.6h8.9v8.9h-8.9V519.6z"/>
				<path class="st4" d="M962.9,519.6h8.9v8.9h-8.9V519.6z"/>
				<path class="st4" d="M977.4,519.6h8.9v8.9h-8.9V519.6z"/>
				<path class="st4" d="M1006.3,519.6h8.9v8.9h-8.9V519.6z"/>
				<path class="st4" d="M861.7,533.2h8.9v8.9h-8.9V533.2z"/>
				<path class="st4" d="M905.1,533.2h8.9v8.9h-8.9V533.2z"/>
				<path class="st4" d="M919.5,533.2h8.9v8.9h-8.9V533.2z"/>
				<path class="st4" d="M934,533.2h8.9v8.9H934V533.2z"/>
				<path class="st4" d="M948.5,533.2h8.9v8.9h-8.9V533.2z"/>
				<path class="st4" d="M977.4,533.2h8.9v8.9h-8.9V533.2z"/>
				<path class="st4" d="M991.9,533.2h8.9v8.9h-8.9V533.2z"/>
				<path class="st4" d="M890.6,546.9h8.9v8.9h-8.9V546.9z"/>
				<path class="st4" d="M905.1,546.9h8.9v8.9h-8.9V546.9z"/>
				<path class="st4" d="M919.5,546.9h8.9v8.9h-8.9V546.9z"/>
				<path class="st4" d="M934,546.9h8.9v8.9H934V546.9z"/>
				<path class="st4" d="M948.5,546.9h8.9v8.9h-8.9V546.9z"/>
				<path class="st4" d="M962.9,546.9h8.9v8.9h-8.9V546.9z"/>
				<path class="st4" d="M991.9,546.9h8.9v8.9h-8.9V546.9z"/>
				<path class="st4" d="M890.6,560.6h8.9v8.9h-8.9V560.6z"/>
				<path class="st4" d="M905.1,560.6h8.9v8.9h-8.9V560.6z"/>
				<path class="st4" d="M919.5,560.6h8.9v8.9h-8.9V560.6z"/>
				<path class="st4" d="M934,560.6h8.9v8.9H934V560.6z"/>
				<path class="st4" d="M948.5,560.6h8.9v8.9h-8.9V560.6z"/>
				<path class="st4" d="M962.9,560.6h8.9v8.9h-8.9V560.6z"/>
				<path class="st4" d="M977.4,560.6h8.9v8.9h-8.9V560.6z"/>
				<path class="st4" d="M991.9,560.6h8.9v8.9h-8.9V560.6z"/>
				<path class="st4" d="M1006.3,560.6h8.9v8.9h-8.9V560.6z"/>
				<path class="st4" d="M883.6,573c2.5,0,4.5,2,4.5,4.5s-2,4.5-4.5,4.5s-4.5-2-4.5-4.5S881.1,573,883.6,573z"/>
				<path class="st4" d="M905.1,574.3h8.9v8.9h-8.9V574.3z"/>
				<path class="st4" d="M917.7,578.8l6.3-6.3l6.3,6.3l-6.3,6.3L917.7,578.8z"/>
				<path class="st4" d="M934,574.3h8.9v8.9H934V574.3z"/>
				<path class="st4" d="M948.5,574.3h8.9v8.9h-8.9V574.3z"/>
				<path class="st4" d="M962.9,574.3h8.9v8.9h-8.9V574.3z"/>
				<path class="st4" d="M977.4,574.3h8.9v8.9h-8.9V574.3z"/>
				<path class="st4" d="M1006.3,574.3h8.9v8.9h-8.9V574.3z"/>
				<path class="st4" d="M890.6,588h8.9v8.9h-8.9V588z"/>
				<path class="st4" d="M905.1,588h8.9v8.9h-8.9V588z"/>
				<path class="st4" d="M919.5,588h8.9v8.9h-8.9V588z"/>
				<path class="st4" d="M938.4,588c2.5,0,4.5,2,4.5,4.5s-2,4.5-4.5,4.5s-4.5-2-4.5-4.5C934,590,936,588,938.4,588z"/>
				<path class="st4" d="M948.5,588h8.9v8.9h-8.9V588z"/>
				<path class="st4" d="M962.9,588h8.9v8.9h-8.9V588z"/>
				<path class="st4" d="M986,590.5l6.3-6.3l6.3,6.3l-6.3,6.3L986,590.5z"/>
				<path class="st4" d="M1006.3,588h8.9v8.9h-8.9V588z"/>
				<path class="st4" d="M890.6,601.6h8.9v8.9h-8.9V601.6z"/>
				<path class="st4" d="M905.1,601.6h8.9v8.9h-8.9V601.6z"/>
				<path class="st4" d="M919.5,601.6h8.9v8.9h-8.9V601.6z"/>
				<path class="st4" d="M934,601.6h8.9v8.9H934V601.6z"/>
				<path class="st4" d="M948.5,601.6h8.9v8.9h-8.9V601.6z"/>
				<path class="st4" d="M962.9,601.6h8.9v8.9h-8.9V601.6z"/>
				<path class="st4" d="M977.4,601.6h8.9v8.9h-8.9V601.6z"/>
				<path class="st4" d="M991.9,601.6h8.9v8.9h-8.9V601.6z"/>
				<path class="st4" d="M861.7,615.3h8.9v8.9h-8.9V615.3z"/>
				<path class="st4" d="M876.1,615.3h8.9v8.9h-8.9V615.3z"/>
				<path class="st4" d="M905.1,615.3h8.9v8.9h-8.9V615.3z"/>
				<path class="st4" d="M919.5,615.3h8.9v8.9h-8.9V615.3z"/>
				<path class="st4" d="M934,615.3h8.9v8.9H934V615.3z"/>
				<path class="st4" d="M948.5,615.3h8.9v8.9h-8.9V615.3z"/>
				<path class="st4" d="M962.9,615.3h8.9v8.9h-8.9V615.3z"/>
				<path class="st4" d="M991.9,615.3h8.9v8.9h-8.9V615.3z"/>
				<path class="st4" d="M876.1,629h8.9v8.9h-8.9V629z"/>
				<path class="st4" d="M919.5,629h8.9v8.9h-8.9V629z"/>
				<path class="st4" d="M934,629h8.9v8.9H934V629z"/>
				<path class="st4" d="M948.5,629h8.9v8.9h-8.9V629z"/>
				<path class="st4" d="M977.4,629h8.9v8.9h-8.9V629z"/>
				<path class="st4" d="M991.9,629h8.9v8.9h-8.9V629z"/>
				<path class="st4" d="M1006.3,629h8.9v8.9h-8.9V629z"/>
				<path class="st4" d="M890.6,642.7h8.9v8.9h-8.9V642.7z"/>
				<path class="st4" d="M905.1,642.7h8.9v8.9h-8.9V642.7z"/>
				<path class="st4" d="M919.5,642.7h8.9v8.9h-8.9V642.7z"/>
				<path class="st4" d="M934,642.7h8.9v8.9H934V642.7z"/>
				<path class="st4" d="M948.5,642.7h8.9v8.9h-8.9V642.7z"/>
				<path class="st4" d="M962.9,642.7h8.9v8.9h-8.9V642.7z"/>
				<path class="st4" d="M977.4,642.7h8.9v8.9h-8.9V642.7z"/>
				<path class="st4" d="M991.9,642.7h8.9v8.9h-8.9V642.7z"/>
				<path class="st4" d="M1006.3,642.7h8.9v8.9h-8.9V642.7z"/>
				<path class="st4" d="M861.7,656.4h8.9v8.9h-8.9V656.4z"/>
				<path class="st4" d="M876.1,656.4h8.9v8.9h-8.9V656.4z"/>
				<path class="st4" d="M919.5,656.4h8.9v8.9h-8.9V656.4z"/>
				<path class="st4" d="M934,656.4h8.9v8.9H934V656.4z"/>
				<path class="st4" d="M948.5,656.4h8.9v8.9h-8.9V656.4z"/>
				<path class="st4" d="M962.9,656.4h8.9v8.9h-8.9V656.4z"/>
				<path class="st4" d="M977.4,656.4h8.9v8.9h-8.9V656.4z"/>
				<path class="st4" d="M991.9,656.4h8.9v8.9h-8.9V656.4z"/>
				<path class="st4" d="M1006.3,656.4h8.9v8.9h-8.9V656.4z"/>
				<path class="st4" d="M739.8,336.5h8.9v8.9h-8.9V336.5z"/>
				<path class="st4" d="M768.7,336.5h8.9v8.9h-8.9V336.5z"/>
				<path class="st4" d="M783.2,336.5h8.9v8.9h-8.9V336.5z"/>
				<path class="st4" d="M797.6,336.5h8.9v8.9h-8.9V336.5z"/>
				<path class="st4" d="M812.1,336.5h8.9v8.9h-8.9V336.5z"/>
				<path class="st4" d="M826.6,336.5h8.9v8.9h-8.9V336.5z"/>
				<path class="st4" d="M841,336.5h8.9v8.9H841V336.5z"/>
				<path class="st4" d="M870,336.5h8.9v8.9H870V336.5z"/>
				<path class="st4" d="M884.4,336.5h8.9v8.9h-8.9V336.5z"/>
				<path class="st4" d="M754.2,350.2h8.9v8.9h-8.9V350.2z"/>
				<path class="st4" d="M768.7,350.2h8.9v8.9h-8.9V350.2z"/>
				<path class="st4" d="M783.2,350.2h8.9v8.9h-8.9V350.2z"/>
				<path class="st4" d="M841,350.2h8.9v8.9H841V350.2z"/>
				<path class="st4" d="M855.5,350.2h8.9v8.9h-8.9V350.2z"/>
				<path class="st4" d="M884.4,350.2h8.9v8.9h-8.9V350.2z"/>
				<path class="st4" d="M783.2,363.9h8.9v8.9h-8.9V363.9z"/>
				<path class="st4" d="M797.6,363.9h8.9v8.9h-8.9V363.9z"/>
				<path class="st4" d="M812.1,363.9h8.9v8.9h-8.9V363.9z"/>
				<path class="st4" d="M826.6,363.9h8.9v8.9h-8.9V363.9z"/>
				<path class="st4" d="M855.5,363.9h8.9v8.9h-8.9V363.9z"/>
				<path class="st4" d="M870,363.9h8.9v8.9H870V363.9z"/>
				<path class="st4" d="M739.8,377.6h8.9v8.9h-8.9V377.6z"/>
				<path class="st4" d="M768.7,377.6h8.9v8.9h-8.9V377.6z"/>
				<path class="st4" d="M812.1,377.6h8.9v8.9h-8.9V377.6z"/>
				<path class="st4" d="M826.6,377.6h8.9v8.9h-8.9V377.6z"/>
				<path class="st4" d="M841,377.6h8.9v8.9H841V377.6z"/>
				<path class="st4" d="M870,377.6h8.9v8.9H870V377.6z"/>
				<path class="st4" d="M739.8,391.3h8.9v8.9h-8.9V391.3z"/>
				<path class="st4" d="M768.7,391.3h8.9v8.9h-8.9V391.3z"/>
				<path class="st4" d="M783.2,391.3h8.9v8.9h-8.9V391.3z"/>
				<path class="st4" d="M797.6,391.3h8.9v8.9h-8.9V391.3z"/>
				<path class="st4" d="M826.6,391.3h8.9v8.9h-8.9V391.3z"/>
				<path class="st4" d="M841,391.3h8.9v8.9H841V391.3z"/>
				<path class="st4" d="M855.5,391.3h8.9v8.9h-8.9V391.3z"/>
				<path class="st4" d="M870,391.3h8.9v8.9H870V391.3z"/>
				<path class="st4" d="M884.4,391.3h8.9v8.9h-8.9V391.3z"/>
				<path class="st4" d="M761.7,403.7c2.5,0,4.5,2,4.5,4.5s-2,4.5-4.5,4.5s-4.5-2-4.5-4.5S759.2,403.7,761.7,403.7z"/>
				<path class="st4" d="M783.2,404.9h8.9v8.9h-8.9V404.9z"/>
				<path class="st4" d="M841,404.9h8.9v8.9H841V404.9z"/>
				<path class="st4" d="M855.5,404.9h8.9v8.9h-8.9V404.9z"/>
				<path class="st4" d="M884.4,404.9h8.9v8.9h-8.9V404.9z"/>
				<path class="st4" d="M744.2,418.6c2.5,0,4.5,2,4.5,4.5s-2,4.5-4.5,4.5s-4.5-2-4.5-4.5C739.8,420.6,741.8,418.6,744.2,418.6z"/>
				<path class="st4" d="M768.7,418.6h8.9v8.9h-8.9V418.6z"/>
				<path class="st4" d="M783.2,418.6h8.9v8.9h-8.9V418.6z"/>
				<path class="st4" d="M826.6,418.6h8.9v8.9h-8.9V418.6z"/>
				<path class="st4" d="M864.2,421.2l6.3-6.3l6.3,6.3l-6.3,6.3L864.2,421.2z"/>
				<path class="st4" d="M884.4,418.6h8.9v8.9h-8.9V418.6z"/>
				<path class="st4" d="M870,432.3h8.9v8.9H870V432.3z"/>
				<path class="st4" d="M739.8,446h8.9v8.9h-8.9V446z"/>
				<path class="st4" d="M754.2,446h8.9v8.9h-8.9V446z"/>
				<path class="st4" d="M783.2,446h8.9v8.9h-8.9V446z"/>
				<path class="st4" d="M797.6,446h8.9v8.9h-8.9V446z"/>
				<path class="st4" d="M812.1,446h8.9v8.9h-8.9V446z"/>
				<path class="st4" d="M826.6,446h8.9v8.9h-8.9V446z"/>
				<path class="st4" d="M841,446h8.9v8.9H841V446z"/>
				<path class="st4" d="M870,446h8.9v8.9H870V446z"/>
				<path class="st4" d="M754.2,459.7h8.9v8.9h-8.9V459.7z"/>
				<path class="st4" d="M884.4,459.7h8.9v8.9h-8.9V459.7z"/>
				<path class="st4" d="M768.7,473.3h8.9v8.9h-8.9V473.3z"/>
				<path class="st4" d="M783.2,473.3h8.9v8.9h-8.9V473.3z"/>
				<path class="st4" d="M797.6,473.3h8.9v8.9h-8.9V473.3z"/>
				<path class="st4" d="M812.1,473.3h8.9v8.9h-8.9V473.3z"/>
				<path class="st4" d="M826.6,473.3h8.9v8.9h-8.9V473.3z"/>
				<path class="st4" d="M841,473.3h8.9v8.9H841V473.3z"/>
				<path class="st4" d="M855.5,473.3h8.9v8.9h-8.9V473.3z"/>
				<path class="st4" d="M884.4,473.3h8.9v8.9h-8.9V473.3z"/>
				<path class="st4" d="M739.8,487h8.9v8.9h-8.9V487z"/>
				<path class="st4" d="M754.2,487h8.9v8.9h-8.9V487z"/>
				<path class="st4" d="M797.6,487h8.9v8.9h-8.9V487z"/>
				<path class="st4" d="M812.1,487h8.9v8.9h-8.9V487z"/>
				<path class="st4" d="M826.6,487h8.9v8.9h-8.9V487z"/>
				<path class="st4" d="M841,487h8.9v8.9H841V487z"/>
				<path class="st4" d="M855.5,487h8.9v8.9h-8.9V487z"/>
				<path class="st4" d="M870,487h8.9v8.9H870V487z"/>
				<path class="st4" d="M884.4,487h8.9v8.9h-8.9V487z"/>
			</g>
		</g>
	</g>
</g>
<path class="st4" d="M1127.4,707c-93.9,0-170.4-76.4-170.4-170.4s76.4-170.4,170.4-170.4s170.4,76.4,170.4,170.4
	S1221.4,707,1127.4,707z M1127.4,368.6c-92.7,0-168,75.4-168,168s75.4,168,168,168s168-75.4,168-168S1220.1,368.6,1127.4,368.6
	L1127.4,368.6z"/>
<path class="st4" d="M1150.6,707c-93.9,0-170.4-76.4-170.4-170.4s76.4-170.4,170.4-170.4S1321,442.6,1321,536.6
	S1244.5,707,1150.6,707z M1150.6,368.6c-92.7,0-168,75.4-168,168s75.4,168,168,168s168-75.4,168-168S1243.2,368.6,1150.6,368.6
	L1150.6,368.6z"/>
<circle class="st17" cx="1168.9" cy="536.7" r="169.2"/>
<circle class="st1" cx="1199.6" cy="537" r="169.2"/>
<g>
	<g>
		<defs>
			<circle id="SVGID_24_" cx="1199.6" cy="537" r="169.2"/>
		</defs>
		<clipPath id="SVGID_25_">
			<use xlink:href="#SVGID_24_"  style="overflow:visible;"/>
		</clipPath>
		<g class="st22">
			<path class="st4" d="M1026.2,381l620.3,4.8l-620.3,4.7V381z"/>
			<path class="st4" d="M1026.2,398.9l620.3,4.8l-620.3,4.7V398.9z"/>
			<path class="st4" d="M1026.2,416.8l620.3,4.8l-620.3,4.7V416.8z"/>
			<path class="st4" d="M1026.2,434.7l620.3,4.8l-620.3,4.8V434.7z"/>
			<path class="st4" d="M1026.2,452.6l620.3,4.8l-620.3,4.8V452.6z"/>
			<path class="st4" d="M1026.2,470.6l620.3,4.7l-620.3,4.8V470.6z"/>
			<path class="st4" d="M1026.2,488.5l620.3,4.7l-620.3,4.8V488.5z"/>
			<path class="st4" d="M1026.2,506.4l620.3,4.8l-620.3,4.7V506.4z"/>
			<path class="st4" d="M1026.2,524.3l620.3,4.8l-620.3,4.7V524.3z"/>
			<path class="st4" d="M1026.2,542.2l620.3,4.8l-620.3,4.8V542.2z"/>
			<path class="st4" d="M1026.2,560.1l620.3,4.8l-620.3,4.8V560.1z"/>
			<path class="st4" d="M1026.2,578.1l620.3,4.7l-620.3,4.8V578.1z"/>
			<path class="st4" d="M1026.2,596l620.3,4.7l-620.3,4.8V596z"/>
			<path class="st4" d="M1026.2,613.9l620.3,4.8l-620.3,4.7V613.9z"/>
			<path class="st4" d="M1026.2,631.8l620.3,4.8l-620.3,4.7V631.8z"/>
			<path class="st4" d="M1026.2,649.7l620.3,4.8l-620.3,4.7V649.7z"/>
			<path class="st4" d="M1026.2,667.6l620.3,4.8l-620.3,4.8V667.6z"/>
			<path class="st4" d="M1026.2,685.5l620.3,4.8l-620.3,4.8V685.5z"/>
		</g>
	</g>
</g>
<path class="st4" d="M1353.5,665.3h66.8v5.7h-66.8V665.3z"/>
<path class="st4" d="M1318.2,651.6h75.3v5.7h-75.3V651.6z"/>
<path class="st4" d="M1351,634.1h88.2v5.7H1351V634.1z"/>
<path class="st4" d="M1363.1,595.9h53.7v5.6h-53.7V595.9z"/>
<path class="st4" d="M1322.3,508.3h66.8v5.7h-66.8V508.3z"/>
<path class="st4" d="M1370.3,490.4h74.2v5.7h-74.2V490.4z"/>
<path class="st4" d="M1402.2,508.3h60.7v5.7h-60.7V508.3z"/>
<path class="st4" d="M1378.3,457.4h29v5.2h-29V457.4z"/>
<path class="st4" d="M1349.9,436.6h29v5.7h-29V436.6z"/>
<path class="st4" d="M1382.5,422.7h29v5h-29V422.7z"/>
<path class="st4" d="M1317.4,400.8h29v5.7h-29V400.8z"/>
<path class="st4" d="M1364.7,400.8h17.8v5.7h-17.8V400.8z"/>
<path class="st4" d="M1380.9,579.4h12.6v5.7h-12.6V579.4z"/>
<path class="st4" d="M1343.2,382.9h17.8v5.7h-17.8V382.9z"/>
<path class="st4" d="M1374.3,388.2h51.7v4.8h-51.7V388.2z"/>
<path class="st4" d="M1379,543.5h66.8v6.4H1379V543.5z"/>
<path class="st4" d="M562.1,472.6h8.1v8.1h-8.1V472.6z"/>
<path class="st4" d="M546,485.5h7.9v7.9H546V485.5z"/>
<path class="st4" d="M511.6,482.3c1.7-1.7,4.6-1.7,6.3,0s1.7,4.6,0,6.3c-1.7,1.7-4.6,1.7-6.3,0S509.9,484.1,511.6,482.3L511.6,482.3
	z"/>
<path class="st17" d="M958.2,151.4h7.6V162h-7.6V151.4z"/>
<path class="st17" d="M958.2,171.6h7.6v10.6h-7.6V171.6z"/>
<path class="st17" d="M958.2,191.8h7.6v10.6h-7.6V191.8z"/>
<path class="st17" d="M958.2,212h7.6v10.6h-7.6V212z"/>
<path class="st17" d="M958.2,232.2h7.6v10.6h-7.6V232.2z"/>
<circle class="st4" cx="1572" cy="540.8" r="145.5"/>
<linearGradient id="SVGID_26_" gradientUnits="userSpaceOnUse" x1="1644.7621" y1="665.2278" x2="1499.2379" y2="413.1722" gradientTransform="matrix(1 0 0 -1 0 1080)">
	<stop  offset="0.1971" style="stop-color:#1A9B69"/>
	<stop  offset="1" style="stop-color:#000000"/>
</linearGradient>
<circle class="st23" cx="1572" cy="540.8" r="145.5"/>
<path class="st1" d="M1624.1,935.5h13.1v1.2h-13.1V935.5z"/>
<path class="st1" d="M1748.4,935.5h13.1v1.2h-13.1V935.5z"/>
<path class="st1" d="M1651.4,935.5h76.8v1.2h-76.8V935.5z"/>
<path class="st1" d="M1780.2,935.5h70.5v1.2h-70.5V935.5z"/>
<path class="st24" d="M1689,919.4l-1.1-10.7h14.6l1.3,12l-3.3,4.8h-9L1689,919.4z"/>
<path class="st1" d="M1700.5,926.1h-9c-0.3,0-0.5-0.2-0.6-0.4l-2.5-6.1c0-0.1,0-0.1,0-0.2l-1.1-10.7c0-0.3,0.2-0.6,0.6-0.7h0.1h14.6
	c0.3,0,0.6,0.2,0.6,0.6l1.3,12c0,0.1,0,0.3-0.1,0.4l-3.3,4.8C1700.9,926,1700.7,926.1,1700.5,926.1L1700.5,926.1z M1691.9,924.9h8.2
	l3-4.4l-1.2-11.2h-13.3l1,9.9L1691.9,924.9z"/>
<path class="st1" d="M1688.4,919.6c0,0-24,5.5-30.8,7.3s-5.7,5.2-5.7,5.2v3.9h53.5v-4.7l-1.4-11.8c0,0-2.3,3.7-8.3,3.7
	S1688.4,919.6,1688.4,919.6L1688.4,919.6z"/>
<path class="st1" d="M1705.9,936.5h-54.3v-4.3c-0.1-0.7,0-1.5,0.4-2.2c0.8-1.5,2.7-2.7,5.6-3.5c6.7-1.9,30.6-7.3,30.8-7.3l0.4-0.1
	l0.1,0.3c0.1,0.1,1.3,3.5,7,3.5s7.9-3.4,8-3.5l0.6-1l1.5,13L1705.9,936.5z M1652.4,935.7h52.7v-4.3l-1.3-10.8c-2.1,2.1-5,3.3-8,3.1
	c-5.2,0-7.1-2.7-7.6-3.7c-2.9,0.7-24.2,5.5-30.4,7.3c-3.3,0.9-4.6,2.2-5.1,3.1c-0.3,0.5-0.4,1.1-0.3,1.6v0.1L1652.4,935.7z"/>
<path class="st17" d="M1652,931.4h53.5v4.7H1652V931.4z"/>
<path class="st1" d="M1706.1,936.7h-54.7v-5.9h54.7V936.7z M1652.6,935.5h52.3V932h-52.3V935.5z"/>
<path class="st1" d="M1702.5,908.7l0.4,4.2l-15-4.2H1702.5z"/>
<path class="st1" d="M1703.4,913.5l-18.5-5.1h18L1703.4,913.5z M1690.9,909.1l11.5,3.2l-0.3-3.2H1690.9z"/>
<path class="st24" d="M1831.9,919.4l-4.6-10.7h14.5l4.8,12l-3.2,4.8h-9l-1.8-4.4L1831.9,919.4z"/>
<path class="st1" d="M1843.4,926.1h-9c-0.3,0-0.5-0.2-0.6-0.4l-1.8-4.4l-0.8-1.7l-4.6-10.7c-0.1-0.3,0-0.7,0.3-0.8
	c0.1,0,0.2-0.1,0.2-0.1h14.6c0.3,0,0.5,0.2,0.6,0.4l4.8,12c0.1,0.2,0.1,0.4-0.1,0.6l-3.3,4.8C1843.8,926,1843.6,926.1,1843.4,926.1
	L1843.4,926.1z M1834.8,924.9h8.2l2.9-4.3l-4.5-11.3h-13.2l5,11.5L1834.8,924.9z"/>
<path class="st1" d="M1831.8,919.9c0,0-22.2,5.2-28.9,7.1s-5.7,5.2-5.7,5.2v3.9h53.5v-4.7l-3.6-11.8c0,0-2,4-8,4
	S1831.8,919.9,1831.8,919.9z"/>
<path class="st1" d="M1850.7,936.5h-53.5c-0.2,0-0.4-0.2-0.4-0.4v-3.9c-0.1-0.7,0-1.5,0.4-2.2c0.8-1.5,2.7-2.7,5.6-3.5
	c6.7-1.9,28.7-7,28.9-7.1c0.2,0,0.4,0.1,0.5,0.3c0.1,0.1,1.3,3.5,7,3.5s7.5-3.6,7.6-3.8s0.4-0.3,0.6-0.2c0.1,0.1,0.2,0.1,0.2,0.2
	l3.6,11.8v0.1v4.7C1851.1,936.3,1850.9,936.5,1850.7,936.5L1850.7,936.5z M1797.6,935.7h52.7v-4.2l-3.3-10.9
	c-0.9,1.2-3.3,3.4-7.8,3.4c-5.2,0-7.1-2.7-7.6-3.7c-2.8,0.7-22.4,5.3-28.6,7c-3.3,0.9-4.6,2.2-5.1,3.1c-0.3,0.5-0.4,1.1-0.3,1.6v0.1
	L1797.6,935.7z"/>
<path class="st17" d="M1797.2,931.4h53.5v4.7h-53.5V931.4z"/>
<path class="st1" d="M1851.3,936.7h-54.7v-5.9h54.7V936.7z M1797.8,935.5h52.3V932h-52.3V935.5z"/>
<path class="st1" d="M1843,911.5l1.2,3.1l-15.1-2.1L1843,911.5z"/>
<path class="st1" d="M1844.2,915l-15.2-2.1c-0.2,0-0.4-0.2-0.4-0.5c0-0.2,0.2-0.3,0.4-0.4l13.9-0.9c0.2,0,0.3,0.1,0.4,0.3l1.2,3.1
	c0.1,0.2,0,0.5-0.2,0.5C1844.3,915,1844.3,915,1844.2,915L1844.2,915z M1833.1,912.6l10.4,1.5l-0.8-2.1L1833.1,912.6z"/>
<path class="st1" d="M1773.3,557.2c0,0-2.5,2.7,1.3,6.3s5.7,7.6,22.3,4.8c10.7-1.8,3.6,8.9,18,12.9s30.5-10.8,15-10.1
	s0.9-10.7-11.1-18.6s-14.4,0.2-16.3-13.7s-9.1-18.8-20.6-16.6s-13.9,14.7-13.9,14.7L1773.3,557.2z"/>
<path class="st24" d="M1668.9,611.1c0,0,0.4-0.9-3.2-2.7s-10.7-3.2-10.7-3.2l1.3,4.9l-10.9-0.3c0,0-1.8,4.1,2.8,6.9s16,3.3,22.5,1.5
	"/>
<path class="st1" d="M1661.7,619.8c-5.3,0-10.7-0.8-13.7-2.6c-4.9-3-3-7.6-3-7.7c0.1-0.2,0.3-0.4,0.6-0.4l10,0.3l-1.1-4
	c-0.1-0.3,0.1-0.7,0.4-0.8h0.3c0.3,0.1,7.2,1.5,10.8,3.3c3.4,1.7,3.8,2.8,3.5,3.5l-1.1-0.5v0.2c0,0-0.2-0.7-2.9-2.1
	c-3.1-1.3-6.3-2.3-9.5-3l1.1,3.9c0.1,0.2,0,0.4-0.1,0.5c-0.1,0.2-0.3,0.2-0.5,0.2l-10.4-0.3c-0.3,1-0.6,3.7,2.7,5.7
	c4.4,2.7,15.9,3.1,22.1,1.5l0.3,1.2C1667.9,619.5,1664.8,619.8,1661.7,619.8L1661.7,619.8z"/>
<path class="st3" d="M1787.9,608.9c0,0-10.4,10.2-9.4,29.8c0.9,18.7,15,37.9,15,37.9l-93.1-0.8c0,0,18.1-28.7,24-46.9
	c2.1-6.6,1.4-16.7,2.9-26.5c1.5-8.9,6.5-16.8,13.9-22.1c6.2-4.4,19-15.9,19-15.9s-2.6,2.3,0.5,5.2s9.3,3.7,15.7,3.2l3.1-0.5"/>
<path class="st1" d="M1794.8,677.2h-1.2l-94.2-0.8l0.6-0.9c0.2-0.3,18.1-28.8,23.9-46.7c1.2-3.8,1.5-8.8,1.8-14.1
	c0.2-4,0.5-8.2,1.1-12.3c1.6-9.1,6.6-17.2,14.1-22.5c6.1-4.4,18.8-15.8,18.9-15.9l0.8,0.9c-0.5,0.5-0.8,1.1-0.8,1.8
	c0.1,1,0.6,1.9,1.4,2.5c2.7,2.4,8.2,3.6,15.2,3.1l3.1-0.5l0.2,1.2l-3.1,0.5c-4.4,0.3-12.2,0.3-16.2-3.4c-1-0.8-1.7-2.1-1.8-3.4
	c-3.9,3.4-12.3,10.8-17,14.2c-7.2,5.1-12.1,12.9-13.6,21.7c-0.6,4.1-0.9,8.2-1.1,12.2c-0.3,5.4-0.6,10.5-1.9,14.4
	c-5.2,16.2-20.3,41-23.5,46.1l90.8,0.8c-2.9-4.2-13.6-21-14.4-37.2c-0.5-7.8,1-15.5,4.4-22.5c1.3-2.8,3.1-5.4,5.2-7.7l0.9,0.9
	c-0.1,0.1-10.2,10.3-9.2,29.3c0.9,18.3,14.7,37.4,14.9,37.5L1794.8,677.2z"/>
<path class="st1" d="M1721,637.8l-3.2,7l33-8.6L1721,637.8z"/>
<path class="st3" d="M1769.4,585.4c0,0-28.6,31.6-36.7,31.6s-63-8.9-63-8.9l-1.7,13c0,0,38.5,18.4,65.8,17.5
	c33.8-1.1,46.8-21.3,52.9-28.3s10.2-22.7-0.2-32.4l-7-5.6"/>
<path class="st1" d="M1731.9,639.3c-13.8,0-30-4.5-41.4-8.5c-7.7-2.7-15.3-5.7-22.7-9.1l-0.4-0.2l1.8-14.1l0.6,0.1
	c0.5,0.1,54.9,8.9,62.9,8.9c6.2,0,26.4-20.5,36.3-31.4l0.9,0.8c-1.2,1.3-28.9,31.8-37.2,31.8c-7.7,0-56-7.8-62.4-8.8l-1.5,11.9
	c4.2,2,39.8,18.1,65.2,17.3c30.2-1,43.4-17,50.4-25.6c0.7-0.9,1.4-1.7,2-2.4c6.2-7.1,9.7-22.4-0.2-31.5l-7-5.6l0.8-1l7,5.6
	c10.5,9.7,6.8,25.8,0.3,33.3c-0.6,0.7-1.2,1.5-2,2.4c-6.7,8.1-20.6,25.1-51.3,26.1C1733.3,639.3,1732.6,639.3,1731.9,639.3
	L1731.9,639.3z"/>
<path class="st24" d="M1730.5,725.2l39.7,89.1l45,98.6l34.9-2.1l-37.6-114l-29.2-103.4"/>
<path class="st1" d="M1814.8,913.5l-0.2-0.4l-44.9-98.6l-39.8-89l1.2-0.5l39.7,89l44.8,98.2l33.7-2L1811.9,797l-29.2-103.4l1.2-0.4
	l29.2,103.5l37.9,114.7L1814.8,913.5z"/>
<path class="st24" d="M1768.9,676.5l-50.6-0.4c0,0-57,83.5-57,108.6s20.9,124,20.9,124h34.3c0,0-11.5-97.9-11.5-109.4
	s73.9-90.2,77.5-97.7c7.4-15.1,1.6-25.1,1.6-25.1l-65.7-0.4"/>
<path class="st1" d="M1717.1,909.3h-35.5l-0.1-0.5c-0.2-1-20.9-99.3-20.9-124.1c0-10.5,9.6-32,28.6-64
	c14.1-23.7,28.4-44.7,28.5-44.9l0.2-0.3l66.4,0.4l0.2,0.3c0.2,0.4,5.9,10.4-1.6,25.7c-1.3,2.7-11,13.8-23.2,27.8
	c-21.6,24.8-54.3,62.3-54.3,69.6c0,11.4,11.4,108.4,11.5,109.3L1717.1,909.3z M1682.7,908.1h33.1c-1.1-9.5-11.4-97.7-11.4-108.8
	c0-7.2,24.7-36.1,54.6-70.4c11.7-13.4,21.8-25,23.1-27.6c6.5-13.2,2.6-22.4,1.8-24.2l-14.7-0.1v0.1l-50.3-0.4
	c-3.6,5.3-56.7,84.1-56.7,107.9C1661.9,808.5,1681.1,900.5,1682.7,908.1z"/>
<path class="st24" d="M1762.7,560.4l-2.9,4.1c0,0-2.2,3.4,2.7,6.5s17.1,1.4,17.1,1.4c-1-2.7-1.8-5.4-2.4-8.2c-1-5.2,0.4-8.1,2.3-10"
	/>
<path class="st1" d="M1772.3,573.4c-3.6,0-7.7-0.4-10.2-2c-1.6-0.9-2.9-2.4-3.4-4.2c-0.2-1.1-0.1-2.2,0.5-3.2l2.9-4.1l1,0.7
	l-2.9,4.1c-0.4,0.7-0.5,1.5-0.3,2.2c0.5,1.4,1.5,2.7,2.8,3.4c4,2.5,13.2,1.7,15.9,1.4c-0.9-2.5-1.6-5-2.2-7.6
	c-0.8-4.6-0.1-7.9,2.5-10.5l0.9,0.9c-1.4,1.4-3.1,4-2.1,9.4c0.6,2.7,1.4,5.5,2.4,8.1c0.1,0.3-0.1,0.7-0.4,0.8h-0.1
	C1777.2,573.3,1774.8,573.4,1772.3,573.4L1772.3,573.4z"/>
<path class="st25" d="M1768,552.4l-5.3,8"/>
<path class="st1" d="M1762.4,560.2l5.3-8l0.7,0.4l-5.3,8L1762.4,560.2z"/>
<path class="st24" d="M1780.7,537c3.2,3,4.4,7.6,3.2,11.8c5.8,0.1,4.5,5.4,1.4,6.7c-2,0.7-4.1,0.6-6-0.4l0.1-0.1
	c-5.3,3.6-12.5,2.3-16.2-3c-3.6-5.3-2.3-12.5,3-16.2C1770.7,532.8,1776.8,533.3,1780.7,537z"/>
<path class="st1" d="M1772.8,557.7c-6.8,0-12.2-5.5-12.2-12.2c0-6.8,5.5-12.2,12.2-12.2c6.8,0,12.2,5.5,12.2,12.2
	c0,1-0.1,1.9-0.3,2.8c3,0.3,3.7,2,3.8,2.8c0.2,2.2-1,4.2-3,5.1c-2,0.8-4.3,0.7-6.2-0.3C1777.4,557.1,1775.1,557.7,1772.8,557.7
	L1772.8,557.7z M1772.8,534.5c-0.1,0-0.2,0-0.4,0c-6.1,0.2-10.8,5.3-10.6,11.4c0.1,2.9,1.3,5.7,3.5,7.7c3.8,3.5,9.5,3.9,13.7,1
	c0.2-0.2,0.6-0.1,0.8,0.1c0,0,0.1,0.1,0.1,0.2c1.6,0.8,3.4,0.9,5.1,0.3c1.5-0.6,2.4-2.1,2.3-3.7c-0.2-1.2-1.4-1.8-3.4-1.9
	c-0.3,0-0.6-0.3-0.6-0.6c0-0.1,0-0.1,0-0.2c1.2-4,0.1-8.4-3-11.2C1778.3,535.5,1775.6,534.5,1772.8,534.5z"/>
<path class="st1" d="M1777.2,555.8c0,0-4.4,7.4-13.5,3.5c-0.1,0-0.4-0.2-0.5-0.2l2.6-3.5c0,0,4.4,1.7,6.6,1.4
	C1774.1,556.6,1775.7,556.2,1777.2,555.8z"/>
<path class="st1" d="M1767.3,720.1l-25.7,30.2l3.1,7.6L1767.3,720.1z"/>
<path class="st1" d="M1718.3,676.5l67.9,6.8l-2.2-6.8H1718.3z"/>
<path class="st17" d="M957.4,75h1.7v290.5h-1.7V75z"/>
<path class="st17" d="M957.4,638.4h1.7V1002h-1.7V638.4z"/>
<path class="st5" d="M1086.8,110.6h205.3v167.2h-205.3V110.6z"/>
<g>
	<path class="st17" d="M1272.5,278.7h-207v-169h207V278.7z M1067.2,277h203.5V111.5h-203.5V277z"/>
	<path class="st17" d="M958.2,869.5h128v1.7h-128L958.2,869.5z"/>
	<path class="st17" d="M958.2,196.2h128v1.7h-128L958.2,196.2z"/>
	<path class="st17" d="M1178.2,75h1.7v35.6h-1.7V75z"/>
	<path class="st17" d="M958.2,869.2h7.6v10.6h-7.6V869.2z"/>
	<path class="st17" d="M958.2,889.4h7.6V900h-7.6V889.4z"/>
	<path class="st17" d="M958.2,909.6h7.6v10.6h-7.6V909.6z"/>
	<path class="st17" d="M958.2,929.8h7.6v10.6h-7.6V929.8z"/>
	<path class="st17" d="M958.2,950h7.6v10.6h-7.6V950z"/>
	<path class="st17" d="M1403.9,1000.2c-55.8-76-110.6-134.8-167.5-179.7c-55.4-43.7-111.1-72.8-170.3-89.1
		c-51.5-14.1-93.7-17.1-129.1-9.1c-31.3,7.1-52.6,21.8-69.7,33.6c-17.9,12.4-46.3,29.7-86.4,37.4c-46.9,9.1-98.8,2.7-154.1-19
		c-65.7-25.7-102.6-69.2-121.9-101.1c-21-34.6-26.4-63.5-26.5-63.8l1.7-0.3c0.1,0.3,5.5,28.9,26.3,63.3
		c19.2,31.7,55.8,74.8,121,100.3c55,21.5,106.6,27.9,153.2,18.9c39.7-7.7,67.9-24.9,85.7-37.2c34.9-24.1,82.6-57,200.3-24.8
		c59.4,16.3,115.3,45.5,170.9,89.4c57,45,111.9,103.9,167.8,180L1403.9,1000.2z"/>
	<path class="st17" d="M1376.3,1000.2c-53.2-72.5-103.7-128.6-154.3-171.5c-54.1-45.9-107.5-76-163.1-92.1
		c-117.1-33.9-163.2,0.1-196.9,25c-70,51.6-150.9,58.9-240.3,21.7c-64.6-26.9-100.2-70.2-118.6-101.7c-20-34.2-24.7-62.5-24.8-62.8
		l1.7-0.3c0,0.3,4.8,28.3,24.6,62.3c18.3,31.3,53.6,74.3,117.7,101c88.8,36.9,169.1,29.7,238.6-21.5c20-14.8,40.5-28.6,70.5-35.4
		c34.9-7.9,76.8-4.6,127.9,10.2c55.9,16.2,109.4,46.4,163.7,92.5c50.7,43,101.3,99.2,154.6,171.8L1376.3,1000.2z"/>
	<path class="st17" d="M1348.8,1000.2c-52.1-71-97-123-141.1-163.4c-52.4-48.1-103.4-79.2-155.8-95.2
		c-108.1-32.9-153.9-6.8-195,25.4c-48.8,38.2-130,73.5-240.2,25c-63.5-28-97.7-71.1-115.3-102.4c-19-33.9-23-61.6-23.1-61.9l1.7-0.2
		c0,0.3,4,27.7,22.9,61.3c17.4,31,51.4,73.8,114.4,101.6c109.4,48.2,190,13.1,238.4-24.7c41.5-32.5,87.8-58.9,196.6-25.7
		c52.7,16.1,103.9,47.3,156.5,95.6c44.2,40.5,89.1,92.5,141.3,163.7L1348.8,1000.2z"/>
	<path class="st17" d="M1321.2,1000.2c-45.7-62.3-84.9-112.5-127.9-155.3c-50.4-50.2-99-82.3-148.6-98.3
		c-107.8-34.6-152.9-7.5-193.1,25.9c-40.4,33.5-125.3,81.7-240,28.2c-62.4-29.1-95.3-72.1-111.9-103.1c-18-33.6-21.3-60.6-21.3-60.9
		l1.7-0.2c0,0.3,3.3,27.1,21.2,60.3c16.5,30.7,49.2,73.4,111.1,102.2c113.9,53.1,198.1,5.3,238.1-28c40.6-33.7,86.1-61.1,194.8-26.2
		c49.9,16,98.7,48.3,149.3,98.7c43,42.8,82.3,93.1,128,155.5L1321.2,1000.2z"/>
	<path class="st17" d="M1293.7,1000.2c-5.1-7-10.3-14.1-15.5-21.2c-66.2-90.8-141.2-193.6-240.5-227.2
		c-107.5-36.3-151.8-8.3-191.3,26.3c-14.6,12.8-45.2,36-87.1,47.9c-50.2,14.3-101.6,8.8-152.8-16.5
		c-61.3-30.2-92.9-73.1-108.6-103.7c-17-33.2-19.6-59.7-19.6-59.9l1.7-0.2c0,0.3,2.6,26.4,19.5,59.4c15.6,30.4,47,72.9,107.8,102.9
		c50.8,25,101.8,30.5,151.5,16.3c41.5-11.8,71.9-34.9,86.4-47.5c39.9-34.9,84.6-63.3,193-26.7c99.9,33.7,175,136.8,241.3,227.8
		c5.2,7.2,10.4,14.2,15.5,21.2L1293.7,1000.2z"/>
	<path class="st17" d="M1266.1,1000.2c-10.2-13.9-20.6-28.8-31.5-44.5c-54.7-78.7-116.7-167.8-204.1-198.8
		c-107-38-150.7-9-189.4,26.8c-11.5,10.6-43,36.8-87.3,50.5c-50.9,15.7-102.2,10.4-152.4-15.8c-60-31.4-90.3-74.1-105.1-104.4
		c-16.1-32.9-17.9-58.7-17.9-59l1.7-0.1c0,0.3,1.9,25.8,17.8,58.4c14.7,30.1,44.8,72.4,104.5,103.5c49.8,25.9,100.6,31.2,151.1,15.6
		c43.9-13.5,75.2-39.5,86.6-50.1c19-17.6,40.8-34.8,71.3-41.8c32.2-7.4,71.4-2.6,119.9,14.6c87.9,31.2,150,120.6,204.9,199.5
		c10.9,15.7,21.3,30.6,31.5,44.5L1266.1,1000.2z"/>
	<path class="st17" d="M1238.6,1000.2c-11.3-15.4-23.2-34-35.9-53.7c-44.3-69-99.4-154.8-179.3-184.6
		c-47.5-17.7-85.7-22.9-116.9-15.7c-30.4,7-51.9,24.8-70.6,43c-8.8,8.5-41,37.6-87.5,53c-51.6,17.1-102.8,12-152-15.1
		c-59.1-32.5-88-75.1-101.9-105.1c-15.1-32.5-16.2-57.8-16.2-58l1.7-0.1c0,0.2,1.1,25.2,16.1,57.4c13.8,29.7,42.6,72,101.2,104.2
		c48.8,26.8,99.4,31.8,150.6,14.9c46.2-15.2,78.1-44.1,86.9-52.6c18.9-18.4,40.6-36.4,71.4-43.4c31.5-7.2,70.1-2,117.9,15.8
		c80.4,30,135.7,116.1,180.1,185.3c12.6,19.6,24.5,38.2,35.8,53.6L1238.6,1000.2z"/>
	<path class="st17" d="M1211.1,1000.2c-10.3-14-21.1-32.9-33.7-54.7c-36.2-62.9-85.7-148.9-160.9-178.5
		c-95.9-37.6-140.7-18.3-185.6,27.7c-17.7,18.1-50,42.2-87.8,55.5c-52.3,18.4-103.3,13.6-151.5-14.3c-57.9-33.6-85.6-76-98.6-105.7
		c-14.1-32.2-14.5-56.8-14.5-57.1h1.7c0,0.2,0.4,24.6,14.4,56.5c12.9,29.4,40.4,71.5,97.9,104.8c47.8,27.7,98.3,32.5,150.1,14.2
		c37.5-13.2,69.6-37.1,87.1-55.1c31.8-32.6,54-41.1,71.5-45.1c31.3-7.1,68.2-1.7,116,17c75.8,29.8,125.5,116.1,161.8,179.2
		c12.6,21.8,23.4,40.7,33.6,54.6L1211.1,1000.2z"/>
	<path class="st17" d="M1183.5,1000.2c-8-10.9-17.1-29.2-27.7-50.3c-15-30-33.6-67.2-57.4-100.4c-27.9-38.9-57-64.2-89.1-77.4
		c-95.4-39.3-139.6-19.4-183.7,28.2c-16.4,17.7-49.3,43.5-88,58c-23.8,8.9-47.7,12.9-70.9,11.8c-27.7-1.3-54.7-9.8-80.2-25.4
		c-56.8-34.7-83.2-77-95.3-106.4c-13.1-31.9-12.8-55.9-12.8-56.1h1.7c0,0.2-0.3,23.9,12.7,55.5c12,29.1,38.2,71,94.5,105.5
		c46.8,28.6,97.1,33.1,149.6,13.5c38.4-14.4,71.1-40,87.4-57.6c44.7-48.2,89.4-68.3,185.7-28.6c32.4,13.4,61.8,38.9,89.9,78
		c23.9,33.3,42.5,70.6,57.5,100.6c10.5,21.1,19.6,39.2,27.5,50L1183.5,1000.2z"/>
	<path class="st17" d="M1156,1000.2c-5.2-7-11.4-22.1-19.3-41.1c-23.4-56.4-62.5-150.8-134.5-182c-94.8-41-138.5-20.6-181.8,28.6
		c-12.9,14.6-46,43.8-88.3,60.5c-24.1,9.5-48,13.9-71.2,13c-27.7-1.1-54.4-9.8-79.4-25.9c-55.7-35.8-80.8-78-92-107.1
		c-12.1-31.5-11.1-54.9-11.1-55.1l1.7,0.1c0,0.2-1.1,23.3,11,54.5c11.1,28.8,36,70.6,91.2,106.1c24.7,15.9,51.1,24.5,78.6,25.6
		c22.9,0.9,46.6-3.4,70.5-12.9c42.1-16.6,74.9-45.6,87.6-60.1c43.9-49.8,88.1-70.5,183.9-29.1c72.7,31.5,112,126.3,135.4,182.9
		c7.8,18.9,14,33.8,19.1,40.7L1156,1000.2z"/>
	<path class="st17" d="M1128.4,1000.2c-2.2-3.1-5.2-12.3-9.6-26.3c-16.1-51.3-49.7-157.9-123.8-191.6
		c-94.2-42.8-137.3-21.8-180,29.1c-11.6,13.9-45.1,44.9-88.6,63c-24.3,10.2-48.4,14.9-71.5,14.2c-27.7-0.9-54.2-9.7-78.7-26.3
		c-54.6-37-78.3-79-88.6-107.7c-11.2-31.2-9.4-54-9.3-54.2l1.7,0.1c0,0.2-1.8,22.7,9.3,53.5c10.2,28.5,33.8,70.1,87.9,106.8
		c24.2,16.4,50.4,25.1,77.7,26c22.9,0.7,46.7-4,70.8-14.1c43.2-18,76.4-48.8,87.9-62.5c43.2-51.5,86.8-72.8,182-29.5
		c74.8,34,108.5,141.2,124.7,192.7c4.2,13.4,7.2,23,9.3,25.8L1128.4,1000.2z"/>
	<path class="st17" d="M1100.7,999.8c-4.5-30.6-11.8-60.7-22-89.9c-15.2-43.4-43.4-100-90.7-122.6c-93.6-44.7-136.2-23-178.1,29.5
		c-13.1,16.4-47.6,47.4-88.9,65.5c-24.6,10.8-48.8,15.9-71.8,15.4c-27.7-0.7-53.9-9.7-77.9-26.7c-53.5-38.1-75.9-80-85.3-108.4
		c-10.2-30.8-7.7-53-7.6-53.2l1.7,0.2c0,0.2-2.5,22.1,7.6,52.6c9.3,28.2,31.6,69.6,84.6,107.4c23.7,16.9,49.6,25.7,76.9,26.4
		c22.8,0.6,46.7-4.6,71.1-15.2c41-18,75.3-48.7,88.3-65c24.2-30.4,46.4-46.4,71.7-52c29.1-6.4,63.5,0.6,108.5,22
		c47.9,22.9,76.3,79.8,91.6,123.6c10.2,29.3,17.6,59.5,22.1,90.3L1100.7,999.8z"/>
	<path class="st17" d="M480.1,440.1l-1.7-0.3c0.1-0.3,5.5-29.2,26.5-63.8c19.3-31.9,56.2-75.4,121.9-101.1
		c55.3-21.7,107.2-28,154.1-19c40,7.7,68.5,25.1,86.4,37.4c17.1,11.8,38.4,26.5,69.7,33.6c35.4,8,77.6,5,129.1-9.1
		c66-18.1,120.2-42.2,170.4-75.9c60-40.3,114.8-94.7,167.5-166.4l1.4,1c-52.8,71.9-107.7,126.5-167.9,166.9
		c-50.4,33.8-104.7,58-170.9,76.1c-35,9.6-63.9,13.4-88,13.4c-56.9,0-87.8-21.3-112.2-38.2c-17.8-12.3-46-29.5-85.7-37.2
		c-46.6-9-98.1-2.7-153.2,18.9c-65.3,25.5-101.8,68.6-121,100.3C485.6,411.2,480.1,439.8,480.1,440.1L480.1,440.1z"/>
	<path class="st17" d="M480.1,431l-1.7-0.3c0-0.3,4.8-28.6,24.8-62.8c18.4-31.6,54-74.9,118.6-101.7C711.2,229,792,236.3,862,287.8
		c33.7,24.8,79.9,58.8,196.9,25c60.8-17.6,114.5-43.4,164.3-79.1c55.5-39.7,106.3-91.5,155.4-158.4l1.4,1
		c-49.2,67-100.2,119-155.8,158.8c-50,35.7-103.9,61.7-164.8,79.3c-51.1,14.8-93,18.1-127.9,10.2c-30-6.8-50.5-20.6-70.5-35.4
		c-69.5-51.2-149.8-58.4-238.6-21.5c-64.1,26.7-99.4,69.6-117.7,100.9C484.8,402.7,480.1,430.7,480.1,431L480.1,431z"/>
	<path class="st17" d="M480.1,421.9l-1.7-0.2c0-0.3,4.1-28,23.1-61.9c17.5-31.3,51.7-74.4,115.3-102.4
		c110.2-48.5,191.4-13.2,240.2,25c41.1,32.2,87,58.4,195,25.4c113.4-34.7,212-110.8,301.5-232.6l1.4,1
		c-89.7,122.2-188.7,198.5-302.5,233.2c-108.9,33.2-155.1,6.8-196.6-25.7c-48.4-37.9-129-72.9-238.4-24.7
		c-63,27.8-97,70.6-114.4,101.6C484.1,394.2,480.1,421.6,480.1,421.9L480.1,421.9z"/>
	<path class="st17" d="M480.1,412.7l-1.7-0.2c0-0.3,3.3-27.3,21.3-60.9c16.6-31,49.5-74,111.9-103.1c114.7-53.5,199.6-5.3,240,28.2
		c40.2,33.4,85.3,60.5,193.1,25.9c52.6-16.9,103.8-45.6,152.2-85.4c45-37,89.2-84.8,131.3-142.3l1.4,1
		c-42.3,57.6-86.5,105.5-131.6,142.6c-48.6,39.9-100,68.7-152.8,85.7c-35.7,11.5-64.6,16.2-88.8,16.2c-49.3,0-78.8-19.8-106-42.4
		c-40.1-33.2-124.3-81.1-238.1-28c-61.9,28.9-94.6,71.5-111.1,102.2C483.4,385.7,480.1,412.5,480.1,412.7L480.1,412.7z"/>
	<path class="st17" d="M480.1,403.6l-1.7-0.2c0-0.3,2.6-26.7,19.6-59.9c15.7-30.6,47.3-73.5,108.6-103.7
		c51.2-25.2,102.6-30.8,152.8-16.5c41.8,11.9,72.5,35.1,87.1,47.9c39.5,34.6,83.8,62.6,191.3,26.3c91.2-30.8,178-103.7,265.4-222.8
		l1.4,1c-87.6,119.4-174.7,192.5-266.3,223.4c-108.4,36.6-153.1,8.3-193-26.7c-14.5-12.7-44.9-35.7-86.4-47.5
		c-49.8-14.2-100.7-8.7-151.5,16.3c-60.9,30-92.2,72.6-107.8,103C482.6,377.2,480.1,403.4,480.1,403.6L480.1,403.6z"/>
	<path class="st17" d="M480.1,394.5l-1.7-0.1c0-0.3,1.9-26.1,17.9-59c14.8-30.3,45.1-73.1,105.3-104.4
		c50.2-26.1,101.5-31.4,152.4-15.8c44.3,13.6,75.8,39.8,87.3,50.5c38.7,35.8,82.3,64.8,189.4,26.8c47.6-16.9,93.4-46.9,140.1-91.7
		c43.8-42,80.3-89.5,107.2-126.2l1.4,1c-27,36.7-63.6,84.3-107.4,126.4c-46.9,45-92.9,75.1-140.7,92.1
		c-48.5,17.2-87.7,22-119.9,14.6c-30.5-7-52.3-24.2-71.3-41.8c-11.4-10.5-42.7-36.5-86.6-50.1c-50.5-15.5-101.3-10.3-151.1,15.6
		c-59.7,31.1-89.8,73.5-104.5,103.5C481.9,368.7,480.1,394.2,480.1,394.5L480.1,394.5z"/>
	<path class="st17" d="M480.1,385.4l-1.7-0.1c0-0.3,1.1-25.5,16.2-58c13.9-30,42.9-72.6,101.9-105.1c49.2-27,100.3-32.1,152-15.1
		c46.5,15.4,78.7,44.4,87.5,53c18.7,18.2,40.2,36,70.6,43c31.2,7.1,69.4,2,116.9-15.7c100.6-37.6,176-140.4,225.9-208.5l3.3-4.5
		l1.4,1l-3.3,4.5c-50,68.2-125.7,171.3-226.7,209.1c-47.8,17.8-86.3,23-117.9,15.8c-30.9-7.1-52.6-25-71.4-43.4
		c-8.7-8.5-40.7-37.3-86.9-52.6c-51.2-16.9-101.8-11.9-150.6,14.9C538.7,256,510,298.2,496.2,327.9
		C481.2,360.2,480.1,385.1,480.1,385.4L480.1,385.4z"/>
	<path class="st17" d="M480.1,376.2h-1.7c0-0.2,0.4-24.9,14.5-57.1c13-29.7,40.7-72.1,98.6-105.7c48.2-28,99.2-32.8,151.5-14.3
		c37.8,13.3,70.1,37.4,87.8,55.5c44.9,46.1,89.7,65.4,185.6,27.7c88.2-34.6,152.3-125.2,194.7-185.1c5.9-8.3,11.4-16.1,16.5-23
		l1.4,1c-5,6.9-10.6,14.7-16.4,23c-42.5,60.1-106.8,150.9-195.5,185.7c-47.8,18.7-84.6,24.1-116,17c-17.5-4-39.7-12.5-71.5-45.1
		c-17.5-18-49.6-41.9-87.1-55.1c-51.8-18.3-102.3-13.5-150.1,14.2c-57.5,33.3-85,75.4-97.9,104.8C480.5,351.7,480.1,376,480.1,376.2
		L480.1,376.2z"/>
	<path class="st17" d="M478.3,367.2c0-0.2-0.3-24.2,12.8-56.1c12.1-29.4,38.5-71.7,95.3-106.4c25.5-15.6,52.5-24.1,80.2-25.4
		c23.2-1.1,47.1,2.9,70.9,11.8c38.7,14.5,71.6,40.3,88,58c44.1,47.6,88.4,67.5,183.7,28.2c81.2-33.5,139.2-121.9,173.8-174.8
		c7.4-11.3,13.8-21.1,19.2-28.4l1.4,1c-5.3,7.3-11.7,17-19.1,28.3c-34.8,53-93,141.8-174.6,175.5c-96.3,39.7-141,19.6-185.7-28.6
		c-16.3-17.6-49-43.2-87.4-57.6c-52.5-19.6-102.8-15.1-149.6,13.5c-56.4,34.4-82.5,76.4-94.5,105.5c-13,31.5-12.7,55.3-12.7,55.5
		H478.3z"/>
	<path class="st17" d="M478.3,358.1c0-0.2-1.1-23.6,11.1-55.1c11.2-29.1,36.2-71.2,92-107.1c25-16.1,51.7-24.8,79.4-25.9
		c23.2-0.9,47.1,3.5,71.2,13c42.4,16.8,75.4,45.9,88.3,60.5c43.4,49.2,87.1,69.7,181.8,28.6c77.7-33.6,130.5-123.8,158.9-172.2
		c6.8-11.6,12.1-20.7,16.1-26.1l1.4,1c-3.9,5.3-9.2,14.4-16,25.9c-28.5,48.6-81.5,139.1-159.7,173c-95.8,41.5-139.9,20.7-183.9-29.1
		c-12.8-14.5-45.6-43.4-87.6-60.1c-23.9-9.4-47.6-13.8-70.5-12.9c-27.4,1.1-53.8,9.7-78.6,25.6c-55.3,35.6-80.2,77.4-91.3,106.2
		c-12,31.2-11,54.2-10.9,54.4L478.3,358.1z"/>
	<path class="st17" d="M478.3,349c0-0.2-1.8-23,9.3-54.2c10.3-28.7,34-70.8,88.6-107.7c24.5-16.6,50.9-25.4,78.7-26.3
		c23.1-0.7,47.2,4,71.5,14.2c43.5,18.1,77,49.2,88.6,63c42.7,50.8,85.8,71.9,180,29.1c77.6-35.3,126.6-133.8,147.5-175.9
		c4.5-9.1,7.5-15.1,9.3-17.5l1.4,1c-1.7,2.4-4.9,8.6-9.2,17.3c-21,42.2-70.2,141.1-148.4,176.7c-35.4,16.1-63.6,23.2-87.4,23.2
		c-40.2,0-67.5-20.4-94.6-52.8c-11.5-13.8-44.8-44.5-87.9-62.5c-24.1-10.1-47.9-14.8-70.8-14.1c-27.4,0.9-53.5,9.6-77.7,26
		c-54.2,36.7-77.7,78.3-87.9,106.8c-11.1,30.8-9.3,53.3-9.3,53.5L478.3,349z"/>
	<path class="st17" d="M478.3,339.9c0-0.2-2.6-22.4,7.6-53.2c9.4-28.4,31.8-70.3,85.3-108.4c24-17.1,50.2-26.1,77.9-26.7
		c23.1-0.6,47.2,4.6,71.8,15.4c41.3,18.1,75.8,49.1,88.9,65.5c42,52.5,84.6,74.2,178.2,29.5c26.2-12.5,65.4-41.8,103.7-110.5
		c13.9-24.9,25.5-50.9,34.9-77.8l1.7,0.5c-9.4,27-21.1,53.1-35,78c-38.5,69.1-78.1,98.7-104.5,111.3c-45,21.5-79.4,28.5-108.5,22
		c-25.3-5.6-47.5-21.7-71.7-52c-13-16.3-47.2-47-88.3-65c-24.3-10.7-48.2-15.8-71.1-15.2c-27.4,0.7-53.3,9.6-76.9,26.4
		c-53.1,37.8-75.3,79.3-84.6,107.5c-10.1,30.5-7.6,52.3-7.6,52.5L478.3,339.9z"/>
</g>
<circle class="st4" cx="846.1" cy="771.5" r="14.4"/>
<circle class="st4" cx="846.1" cy="276.5" r="14.4"/>
<path class="st5" d="M1309.8,961.7H1069l120.4-196.1L1309.8,961.7z"/>
<path class="st17" d="M1272.5,962.6h-243.9L1150.5,764L1272.5,962.6z M1031.8,960.8h237.6l-118.8-193.6L1031.8,960.8z"/>
<path class="st3" d="M431.3,539.8l2.3-7.9l25.3-5.1c0,0,0.2,2.5-7.5,6.9s-9.8,5.2-9.8,5.2l-5.4,6.5L431.3,539.8z"/>
<path class="st1" d="M436,546.1c-0.2,0-0.4-0.1-0.5-0.2l-4.8-5.6c-0.1-0.2-0.2-0.4-0.1-0.6l2.3-7.9c0.1-0.2,0.3-0.4,0.5-0.4
	l25.3-5.1c0.3-0.1,0.7,0.2,0.7,0.5v0.1c0,0.3,0,3.1-7.8,7.5c-6.7,3.7-9.2,4.9-9.8,5.2l-5.3,6.4C436.4,546,436.2,546.1,436,546.1
	L436,546.1z M432,539.7l4.1,4.8l4.9-5.9l0.2-0.2c0,0,2.2-0.9,9.8-5.2c4.6-2.6,6.3-4.5,6.9-5.5l-23.8,4.8L432,539.7z"/>
<path class="st3" d="M140.7,630.2l-3.4,15.7l-2.7,0.8l-0.7-4.9l-6.4,9.6c-2.7-1.9-4.2-5.1-4-8.5c0.3-5.7,4.8-12.4,12.1-18.8"/>
<path class="st1" d="M127.5,652.1c-0.1,0-0.2,0-0.3-0.1c-2.9-2.1-4.6-5.5-4.3-9c0.3-5.7,4.7-12.5,12.4-19.2l0.8,1
	c-7.4,6.5-11.6,13-11.9,18.3c-0.2,2.9,1,5.7,3.2,7.5l6-9.1c0.2-0.3,0.6-0.4,0.9-0.2c0.2,0.1,0.3,0.3,0.3,0.4l0.6,4.2l1.7-0.5
	l3.3-15.3l1.2,0.3l-3.4,15.7c0,0.2-0.2,0.4-0.4,0.5l-2.7,0.8c-0.3,0.1-0.7-0.1-0.8-0.4v-0.1l-0.5-3.3l-5.5,8.2
	C127.9,652,127.7,652.1,127.5,652.1L127.5,652.1z"/>
<path class="st3" d="M100.3,877.4l6.8-6l11.5,11.3l-4.5,4.2l-7.8,2.5l-8.5-3.5v-6.4L100.3,877.4z"/>
<path class="st1" d="M106.3,890.1c-0.1,0-0.2,0-0.2,0l-8.5-3.5c-0.2-0.1-0.4-0.3-0.4-0.6v-6.4c0-0.2,0.1-0.4,0.2-0.5l9.3-8.1
	c0.3-0.2,0.6-0.2,0.9,0l11.5,11.3c0.2,0.2,0.3,0.6,0,0.9l-4.6,4.2c-0.1,0.1-0.1,0.1-0.2,0.1l-7.7,2.5
	C106.5,890.1,106.4,890.1,106.3,890.1z M98.5,885.5l7.9,3.3l7.3-2.4l4-3.7l-10.6-10.4l-6.4,5.6l-2.2,1.9L98.5,885.5z"/>
<path class="st1" d="M297,521.2c0,0,0.3,1.1-4.6,3.8s-13.6,2.2-10.4-0.3c5.1-3.8-8-16.7,0-25.8c9.4-10.7,8.1-17.2,16.4-15.3
	s9.4,18,9.4,18L297,521.2z"/>
<path class="st26" d="M308.2,531.8c0,0-2.7-1-3.9,2.8s-0.7,1-3.4,1c-4.9-0.1-9.8-0.9-14.5-2.2c0,0-51.1,1.2-102.7,40.4
	c-23.2,17.6-51.8,48-51.8,48l10.1,9.6c0,0,37.5-29.4,56.1-40s41.6-17.4,47.7-19.2l6.1-1.9l-44.5,74.6l9.3,2.1l85.6,19.9l17-90.5
	c0,0,28.9,1.5,46.1-0.2c49.9-5.1,73.8-30.4,73.8-30.4l-6.3-10.5c0,0-33.7,14.9-54,16.1c-17.2,0.9-34.4-1.6-50.6-7.4
	c-7.2-2.5-14-6.2-20-11"/>
<path class="st1" d="M302.7,667.6l-96.4-22.4l44.1-73.9l-5.1,1.6c-7.2,2.2-29,8.8-47,19c-18.4,10.4-55.6,39.6-56,39.9l-0.4,0.3
	l-11-10.5l0.4-0.5c0.3-0.3,28.9-30.6,51.9-48.1c51.2-38.8,102.6-40.5,103.1-40.5h0.1h0.1c4.7,1.3,9.5,2,14.4,2.2
	c0.8,0,1.6,0.3,2.3,0.8c0.2-0.4,0.4-1.1,0.5-1.4c0.3-1.3,1.1-2.4,2.3-3c0.8-0.4,1.7-0.4,2.5-0.2l-0.4,1.2c-0.5-0.1-1-0.1-1.5,0.1
	c-0.8,0.5-1.4,1.3-1.6,2.3c-0.5,1.7-0.8,2.2-1.3,2.4c-0.4,0.1-0.8-0.1-1.1-0.4c-0.4-0.4-1-0.6-1.6-0.7c-4.9-0.1-9.8-0.9-14.6-2.2
	c-2.6,0.1-52.5,2.5-102.3,40.2c-21.4,16.2-47.6,43.6-51.3,47.5l9.3,8.8c4.2-3.3,38.3-29.8,55.7-39.7c18.2-10.3,40.1-16.9,47.3-19.1
	l8.2-2.5L208.4,644l93.4,21.7l17-90.4h0.6c0.3,0,29.1,1.5,46-0.2c45.9-4.7,70-26.9,73.1-29.9l-5.7-9.6c-4.3,1.9-34.9,14.8-53.7,16
	c-17.3,0.9-34.6-1.6-50.9-7.4c-7.3-2.5-14.1-6.3-20.2-11.1l0.8-1c5.9,4.7,12.6,8.4,19.8,10.9c16.1,5.8,33.3,8.3,50.4,7.3
	c19.9-1.2,53.5-15.9,53.8-16.1l0.5-0.2l6.8,11.4l-0.3,0.3c-0.2,0.3-24.7,25.6-74.2,30.6c-15.7,1.6-41.5,0.5-45.6,0.3L302.7,667.6z"
	/>
<path class="st3" d="M251.8,714.7c3.5,6.6,28,55.6,28,67.9s-15.1,30.4-25.6,57.6S236,891.8,236,891.8h36.5c0,0,55.3-90,50.8-116
	c-7.8-45-28.7-110.8-28.7-110.8l-57.1-13.3"/>
<path class="st1" d="M272.9,892.5h-37.7l0.3-0.8c0.1-0.2,7.9-24.7,18.3-51.6c4.7-12.2,10.2-22.4,15-31.4c5.9-10.8,10.5-19.4,10.5-26
	c0-12.1-24.5-61.1-28-67.6l1.1-0.6c3.7,6.9,28.1,55.7,28.1,68.2c0,7-4.7,15.7-10.6,26.6c-4.8,9-10.3,19.1-15,31.2
	c-9.2,24.1-16.5,46.2-18,50.7h35.3c3.5-5.8,54.8-90.5,50.5-115.3c-7.4-42.8-26.9-105.1-28.6-110.3l-56.7-13.2l0.3-1.2l57.4,13.3
	l0.1,0.3c0.2,0.7,21,66.3,28.7,110.8c4.5,26-48.6,112.8-50.8,116.5L272.9,892.5z"/>
<path class="st3" d="M263.6,693.7c0,0-18.7,52.8-63.1,110c-28.8,37-75,85.7-75,85.7l-27.6-27.1c0,0,6-19.6,18.6-33.7
	c18.5-20.8,33.5-36.6,46-55.6c22.4-34,36.4-68.3,45-90.3c1.1-2.7,1.4-15.2,4.5-23.5s5.3-11.9,6.7-11.6l73.1,16.7"/>
<path class="st1" d="M125.5,890.4l-28.4-27.8l0.1-0.4c0.1-0.2,6.2-19.9,18.7-34c2.9-3.3,5.7-6.4,8.4-9.5
	c14.5-16.2,27-30.1,37.5-46.1c23.5-35.7,38-72.5,44.9-90.1c0.5-2.1,0.9-4.1,1-6.3c0.6-5,1.5-12,3.4-17.2c4.6-12.6,6.7-12.1,7.4-12
	l73.1,16.7l-0.3,1.2l-73.1-16.7c0,0-1.8-0.3-6,11.2c-1.9,5.1-2.7,11.9-3.4,16.9c-0.2,2.2-0.5,4.4-1.1,6.6c-7,17.7-21.5,54.6-45,90.4
	c-10.6,16-23.1,30-37.6,46.2c-2.7,3-5.5,6.2-8.4,9.5c-11.4,12.8-17.5,30.4-18.4,33.1l26.9,26.3c4.8-5.1,47.6-50.6,74.5-85.2
	c43.9-56.4,62.8-109.3,63-109.8l1.2,0.4c-0.2,0.5-19.2,53.6-63.2,110.2c-28.5,36.6-74.6,85.3-75,85.8L125.5,890.4z"/>
<path class="st3" d="M303.8,517.7l4.5,14.1c0,0,0.5,4.2-3,5.9c-6.6,3.3-19.1-4.1-19.1-4.1c2.3-1.5,4-3.8,5-6.3
	c1.7-3.8,1.4-8.1-0.8-11.6"/>
<path class="st1" d="M301.1,539.2c-6.7,0-14.9-4.8-15.4-5.1c-0.3-0.2-0.4-0.6-0.2-0.9c0.1-0.1,0.1-0.2,0.2-0.2
	c2.2-1.5,3.8-3.6,4.8-6c1.6-3.6,1.3-7.7-0.7-11.1l1.1-0.6c2.3,3.7,2.5,8.2,0.8,12.2c-0.9,2.3-2.5,4.4-4.4,6
	c2.9,1.6,12.4,6.3,17.7,3.6c2.8-1.4,2.7-4.8,2.6-5.2l-4.5-14l1.2-0.4l4.5,14.1v0.1c0,0.2,0.5,4.7-3.3,6.6
	C304.2,538.9,302.7,539.3,301.1,539.2L301.1,539.2z"/>
<path class="st1" d="M114.1,886.9L121,910l10.2,6.4v4.4h-19l-24.6-32.4l11.8-10.3c0,0-2.6,7.1,7.3,8.8H114.1z"/>
<path class="st1" d="M131.6,921.2H112l-0.1-0.2l-24.8-32.7l13.3-11.6l-0.6,1.5c-0.5,1.5-0.3,3.2,0.4,4.6c1.1,1.8,3.3,3.1,6.6,3.6
	h7.6l6.9,23.3l10.3,6.4V921.2z M112.4,920.4h18.4v-3.7l-10.2-6.3l-6.9-23h-7c-3.6-0.6-6-2-7.2-4c-0.7-1.2-1-2.6-0.8-4l-10.5,9.2
	L112.4,920.4z"/>
<path class="st3" d="M294.7,498.4c-4.1,2.2-6.6,6.6-6.4,11.4c-6-1.5-6.1,4.3-3.2,6.6c1.8,1.3,4.1,1.7,6.3,1.2v-0.1
	c4.5,5.2,12.3,5.7,17.4,1.3s5.7-12.3,1.3-17.4C306.2,496.8,299.8,495.6,294.7,498.4L294.7,498.4z"/>
<path class="st1" d="M300.7,522.2c-3.6,0-7-1.5-9.5-4.1c-2.2,0.5-4.6,0.1-6.5-1.3c-1.8-1.4-2.5-3.8-1.7-6c0.4-0.8,1.5-2.4,4.7-1.9
	c0.1-4.7,2.7-8.9,6.8-11.1c6.3-3.4,14.2-1.1,17.6,5.2s1.1,14.2-5.2,17.6C305,521.7,302.9,522.2,300.7,522.2L300.7,522.2z
	 M291.3,516.7c0.2,0,0.4,0.1,0.5,0.2c3.6,4.1,9.6,5.2,14.5,2.6c5.7-3.1,7.8-10.2,4.7-15.9s-10.2-7.8-15.9-4.7
	c-3.9,2.1-6.3,6.3-6.1,10.8c0,0.2-0.1,0.4-0.2,0.5c-0.2,0.1-0.4,0.2-0.6,0.1c-2-0.5-3.5-0.1-4,1c-0.6,1.6,0,3.4,1.4,4.4
	c1.5,1.1,3.5,1.5,5.3,1.1c0-0.1,0.1-0.1,0.2-0.1H291.3z"/>
<path class="st17" d="M91.8,884.7l23.9,32.3h15v3.8h-18.5l-24.6-32.4L91.8,884.7z"/>
<path class="st1" d="M131.4,921.4h-19.5l-0.2-0.3l-24.9-32.9l5.2-4.5l24.1,32.6h15.3V921.4z M112.5,920.1h17.6v-2.5h-14.7l-23.7-32
	l-3.2,2.8L112.5,920.1z"/>
<path class="st1" d="M293.3,518.7c0,0,2.6,8.9,12.9,7.2h0.1l-1.3-4.8c0,0-5.1,1-7.2,0C296.3,520.4,294.8,519.6,293.3,518.7z"/>
<path class="st1" d="M226.1,649.1l72.5,26.2l-4-10.3L226.1,649.1z"/>
<path class="st1" d="M258.5,706.2l6.7,35.9l-11.9-24.4L258.5,706.2z"/>
<path class="st3" d="M261.8,903.4l3.7-11.6H250l-4.6,12.8l3.5,5.1h9.6l4.6-5.9L261.8,903.4z"/>
<path class="st1" d="M258.5,910.4h-9.6c-0.2,0-0.4-0.1-0.5-0.3l-3.5-5.1c-0.1-0.2-0.1-0.4-0.1-0.6l4.6-12.8c0.1-0.3,0.3-0.4,0.6-0.4
	h15.5c0.4,0,0.6,0.3,0.6,0.6v0.2l-3.5,10.9l0.7,0.2c0.3,0.1,0.5,0.4,0.5,0.8c0,0.1-0.1,0.2-0.1,0.2l-4.6,6
	C258.9,910.3,258.7,910.4,258.5,910.4L258.5,910.4z M249.3,909.1h8.9l3.8-5l-0.4-0.1c-0.3-0.1-0.5-0.4-0.5-0.8l3.5-10.8h-14.2
	l-4.3,12L249.3,909.1z"/>
<path class="st1" d="M261.8,903.4c0,0,25.6,5.8,32.8,7.8s6,5.6,6,5.6v4.2h-60.1v-5l4.6-12.5c0,0,2.5,4,8.9,4
	S261.8,903.4,261.8,903.4L261.8,903.4z"/>
<path class="st1" d="M300.6,921.4h-60.1c-0.2,0-0.4-0.2-0.4-0.4v-5v-0.1l4.6-12.5c0.1-0.2,0.3-0.3,0.5-0.3c0.1,0,0.2,0.1,0.2,0.2
	c0.1,0.2,2.4,3.8,8.5,3.8c6,0,7.4-3.6,7.4-3.7c0.1-0.2,0.3-0.3,0.5-0.3c0.3,0.1,25.7,5.8,32.8,7.8c3.1,0.9,5.1,2.1,6,3.7
	c0.4,0.7,0.5,1.5,0.4,2.3v4.1C301,921.2,300.9,921.4,300.6,921.4z M241,920.6h59.2v-3.8v-0.1c0.1-0.6,0-1.2-0.3-1.8
	c-0.5-1-1.9-2.3-5.4-3.3c-6.6-1.8-29.4-7-32.4-7.7c-0.5,1-2.5,4-8.1,4c-5,0-7.7-2.4-8.7-3.5l-4.3,11.8L241,920.6z"/>
<path class="st17" d="M240.5,916h60.1v5h-60.1V916z"/>
<path class="st1" d="M301.3,921.6h-61.4v-6.2h61.4V921.6z M241.2,920.3H300v-3.7h-58.8V920.3z"/>
<path class="st1" d="M250,891.8l14,4.5l1.5-4.5H250z"/>
<path class="st1" d="M264.2,896.8l-17-5.4h18.9L264.2,896.8z M252.7,892.3l11,3.5l1.2-3.5H252.7z"/>
<path class="st1" d="M107.1,871.4l8.4,13.3l3.1-2L107.1,871.4z"/>
<path class="st1" d="M115.4,885.3l-10.5-16.8l14.4,14.2L115.4,885.3z M109.4,874.2l6.2,9.9l2.3-1.5L109.4,874.2z"/>
<path class="st1" d="M235.9,671.9c-3.6,0-7.1-1-10.2-2.7l0.7-1.1c0.5,0.3,11.9,7.2,21.4-2.9l0.9,0.9
	C245.4,669.8,240.8,671.9,235.9,671.9L235.9,671.9z"/>
<path class="st1" d="M189.3,920.4h12.9v1.2h-12.9V920.4z"/>
<path class="st1" d="M216.1,920.4h82.2v1.2h-82.2L216.1,920.4z"/>
<path class="st1" d="M72.6,920.4h62.3v1.2H72.6V920.4z"/>
<g>
	<g>
		<defs>
			<rect id="SVGID_27_" x="479.2" y="74.3" width="482.8" height="925.4"/>
		</defs>
		<clipPath id="SVGID_28_">
			<use xlink:href="#SVGID_27_"  style="overflow:visible;"/>
		</clipPath>
		<g class="st27">
			<path class="st17" d="M487.5,998.6c-2,0-4,0-6.1,0v-1.7h6c254.7-0.2,461-206.7,460.8-461.4c0-185.2-110.8-352.2-281.2-424.4
				c-56.8-24-117.8-36.3-179.4-36.2h-2.3c-2.1,0-4.6,0-6,0v-1.7h6h2.3c255.6,0.2,462.7,207.5,462.5,463.1
				C950,722.1,838.7,889.8,667.6,962.2C610.7,986.3,549.4,998.7,487.5,998.6L487.5,998.6z"/>
			<path class="st17" d="M483.8,1002.6c-2.1,0-4.1,0-6.2,0l0.1-5.8c7.7,0.1,15.4,0,23.1-0.3l0.2,5.8
				C495.3,1002.5,489.5,1002.6,483.8,1002.6z M570.7,994.7l-1.1-5.7c7.6-1.4,15.2-3,22.6-4.7l1.3,5.7
				C586.1,991.7,578.4,993.3,570.7,994.7z M660.6,968.8l-2.2-5.4c7.1-2.8,14.3-5.9,21.3-9.1l2.4,5.3
				C675,962.9,667.8,966,660.6,968.8z M743.6,925.8l-3.2-4.9c6.4-4.2,12.8-8.6,19.1-13.1l3.4,4.7
				C756.6,917.1,750.1,921.5,743.6,925.8z M816.4,867.2l-4.1-4.2c5.5-5.4,10.9-11,16.1-16.6l4.3,3.9
				C827.5,856.1,822,861.8,816.4,867.2L816.4,867.2z M876.3,795.5l-4.8-3.3c4.3-6.3,8.5-12.9,12.5-19.4l5,3
				C884.9,782.5,880.7,789.1,876.3,795.5z M920.7,713.4l-5.4-2.2c2.9-7.1,5.7-14.3,8.3-21.5l5.5,2
				C926.5,698.9,923.7,706.2,920.7,713.4L920.7,713.4z M947.7,624l-5.7-1.1c1.5-7.5,2.7-15.2,3.8-22.8l5.8,0.8
				C950.4,608.6,949.1,616.4,947.7,624L947.7,624z M950.2,531c-0.1-7.7-0.4-15.4-0.8-23.1l5.8-0.4c0.5,7.7,0.7,15.6,0.8,23.4
				L950.2,531z M940,439.3c-1.6-7.5-3.4-15.1-5.4-22.4l5.6-1.5c2,7.5,3.9,15.1,5.5,22.7L940,439.3z M911.5,351.5
				c-3.1-7-6.4-14.1-9.9-20.9l5.2-2.6c3.5,7,6.9,14.1,10,21.2L911.5,351.5z M865.8,271.3c-4.4-6.2-9.1-12.5-13.8-18.5l4.6-3.6
				c4.8,6.1,9.5,12.4,14,18.7L865.8,271.3z M805.2,201.7c-5.6-5.2-11.4-10.4-17.2-15.4l3.8-4.4c5.9,5,11.8,10.3,17.4,15.6
				L805.2,201.7z M732.1,145.5c-6.5-4-13.2-8-19.9-11.7l2.8-5.1c6.8,3.8,13.6,7.8,20.1,11.9L732.1,145.5z M649.3,104.7
				c-7.2-2.7-14.5-5.2-21.8-7.6l1.8-5.5c7.4,2.4,14.8,4.9,22.1,7.7L649.3,104.7z M560.1,81c-7.6-1.2-15.3-2.3-22.9-3.1l0.7-5.8
				c7.7,0.9,15.5,1.9,23.2,3.2L560.1,81z"/>
		</g>
	</g>
</g>
<path class="st17" d="M335.6,622l6.5-3.2l3.2,6.5l-6.5,3.2L335.6,622z"/>
<path class="st17" d="M387.2,572l-6.4-7.6l7.6-6.4l6.4,7.6L387.2,572z M382.1,564.5l5.2,6.2l6.2-5.2l-5.2-6.2L382.1,564.5z"/>
<path class="st1" d="M310,630.1l5.6-8.4l8.5,5.7l-5.6,8.4L310,630.1z"/>
<path class="st1" d="M287.7,638.4l5.6-8.4l8.5,5.7l-5.6,8.4L287.7,638.4z"/>
<path class="st1" d="M16.1,513l5.6-8.4l8.5,5.7l-5.6,8.4L16.1,513z"/>
<path class="st1" d="M219.1,623l10-1.9l1.9,9.9l-10,1.9L219.1,623z"/>
<path class="st4" d="M198.9,618.3l5.6-8.4l8.5,5.7l-5.6,8.4L198.9,618.3z"/>
<path class="st4" d="M234.8,612.4l9.2-0.2l0.2,9.2l-9.2,0.2L234.8,612.4z"/>
<circle class="st1" cx="321.9" cy="592.2" r="4.5"/>
<circle class="st1" cx="384.2" cy="593.8" r="4"/>
<circle class="st1" cx="440" cy="516.9" r="4"/>
<circle class="st17" cx="425.1" cy="517.6" r="3.2"/>
<circle class="st17" cx="517.3" cy="553.4" r="3.2"/>
<circle class="st17" cx="490.9" cy="480.7" r="3.2"/>
<circle class="st17" cx="193.8" cy="565.6" r="4.4"/>
<path class="st1" d="M262.1,592l-0.1-1.3c0.9-0.1,1.7-0.3,2.6-0.5l0.4,1.3C264,591.7,263,591.9,262.1,592z M259.2,592
	c-1-0.1-1.9-0.3-2.8-0.6l0.4-1.3c0.8,0.3,1.7,0.5,2.6,0.6L259.2,592z M267.5,590.2l-0.7-1.2c0.8-0.4,1.5-1,2.1-1.6l0.9,1
	C269.2,589.2,268.4,589.7,267.5,590.2z M253.7,590.2c-0.8-0.5-1.6-1.1-2.3-1.7l0.9-1c0.6,0.6,1.3,1.1,2.1,1.6L253.7,590.2z
	 M271.8,586.3l-1.1-0.8c0.5-0.7,0.9-1.5,1.3-2.3l1.2,0.5C272.8,584.7,272.3,585.5,271.8,586.3z M249.5,586.3
	c-0.4-0.6-0.8-1.2-1.1-1.8c-0.1-0.2-0.2-0.5-0.3-0.7l1.2-0.5c0.1,0.2,0.2,0.4,0.3,0.7c0.3,0.6,0.6,1.1,1,1.6L249.5,586.3z M274,581
	l-1.3-0.2c0.1-0.8,0.2-1.5,0.2-2.3v-0.3h1.3v0.4C274.3,579.3,274.2,580.2,274,581L274,581z M247.3,581c-0.1-0.8-0.2-1.6-0.2-2.4
	c0-0.2,0-0.3,0-0.4h1.3v0.4c0,0.7,0.1,1.5,0.2,2.2L247.3,581z M272.6,575.6c-0.2-0.8-0.5-1.7-0.9-2.5l1.2-0.6c0.4,0.9,0.8,1.8,1,2.7
	L272.6,575.6z M248.8,575.5l-1.3-0.3c0.2-0.9,0.6-1.9,1-2.7l1.2,0.6C249.3,573.9,249,574.7,248.8,575.5z M271.1,572.1
	c-0.5-0.7-1-1.4-1.6-2.1l1-0.9c0.7,0.7,1.3,1.5,1.8,2.3L271.1,572.1z M251.1,570.9L250,570c0.6-0.8,1.3-1.5,2-2.1l0.9,1
	C252.2,569.6,251.6,570.2,251.1,570.9L251.1,570.9z M267.5,568.3c-0.7-0.5-1.5-0.9-2.3-1.2l0.5-1.3c0.9,0.4,1.8,0.8,2.6,1.4
	L267.5,568.3z M255.1,567.6l-0.6-1.2l0.2-0.1c0.8-0.4,1.6-0.7,2.5-0.9l0.3,1.3c-0.8,0.2-1.5,0.5-2.2,0.8L255.1,567.6z M262.7,566.4
	c-0.9-0.1-1.7-0.2-2.6-0.2l-0.1-1.3c1,0,1.9,0,2.9,0.2L262.7,566.4z"/>
<path class="st1" d="M259.4,614c-4.4,0-8-3.6-8-8s3.6-8,8-8c3.1,0,5.8,1.7,7.2,4.5c1.9,4,0.3,8.7-3.7,10.7
	C261.8,613.8,260.6,614,259.4,614z M259.4,599c-3.9,0-7.1,3.2-7.1,7.1s3.2,7.1,7.1,7.1c3.9,0,7.1-3.2,7.1-7.1c0-1.1-0.2-2.1-0.7-3.1
	C264.5,600.5,262.1,599,259.4,599z"/>
<path class="st4" d="M387.2,576.7l4.5-0.1l0.1,4.5l-4.5,0.1L387.2,576.7z"/>
<path class="st1" d="M391.2,535.8l15.3-12.8l12.8,15.3L404,551.2L391.2,535.8z"/>
<path class="st1" d="M158.5,606l18-8.8l8.8,18l-18,8.8L158.5,606z"/>
<path class="st4" d="M47.5,508.9l18-8.8l8.8,18l-18,8.8L47.5,508.9z"/>
<path class="st4" d="M184.7,589.6l8-13.4l13.4,8l-8,13.4L184.7,589.6z"/>
<path class="st4" d="M159.1,458l6.1-10.2l10.2,6.1l-6.1,10.2L159.1,458z"/>
<path class="st4" d="M114.8,427.1l8-13.4l13.4,8l-8,13.4L114.8,427.1z"/>
<path class="st4" d="M130,531.4l8-13.4l13.4,8l-8,13.4L130,531.4z"/>
<path class="st1" d="M219.1,598.9l11.1-5.4l5.4,11.1l-11.1,5.4L219.1,598.9z"/>
<path class="st1" d="M295.9,603.7l11.1-5.4l5.4,11.1l-11.1,5.4L295.9,603.7z"/>
<path class="st4" d="M217.9,577.7l6.2-3l3,6.2l-6.2,3L217.9,577.7z"/>
<path class="st4" d="M434.6,529.9l5.3-4.4l4.4,5.3l-5.3,4.4L434.6,529.9z"/>
<path class="st4" d="M419.2,528.7l5.2-4.4l4.4,5.2l-5.2,4.4L419.2,528.7z"/>
<path class="st4" d="M363.9,570.4l5.2-4.4l4.4,5.2l-5.2,4.4L363.9,570.4z"/>
<circle class="st1" cx="152.7" cy="504.6" r="4.5"/>
<circle class="st1" cx="156.4" cy="391" r="4.5"/>
<circle class="st1" cx="77.2" cy="279.1" r="4.5"/>
<circle class="st1" cx="149.3" cy="300.1" r="4.5"/>
<circle class="st1" cx="164.6" cy="526.4" r="4"/>
<path class="st4" d="M165.5,483l6.1-3l3,6.1l-6.1,3L165.5,483z"/>
<path class="st4" d="M331.2,589.9l6.1-3l3,6.1l-6.1,3L331.2,589.9z"/>
<path class="st17" d="M344.7,615.4l-6.4-7.6l7.6-6.4l6.4,7.6L344.7,615.4z M339.6,607.9l5.2,6.2l6.2-5.2l-5.2-6.2L339.6,607.9z"/>
<path class="st1" d="M294.6,588l6.9-5.8l5.8,6.9l-6.9,5.8L294.6,588z"/>
<path class="st1" d="M367.1,582.2l5-0.1l0.1,5l-5,0.1L367.1,582.2z"/>
<path class="st4" d="M343.7,587.2l3.4-2.9l2.9,3.4l-3.4,2.9L343.7,587.2z"/>
<path class="st4" d="M320.6,606.3l6.1-3l3,6.1l-6.1,3L320.6,606.3z"/>
<path class="st4" d="M352.6,594.6l5.2-4.4l4.4,5.2l-5.2,4.4L352.6,594.6z"/>
<path class="st1" d="M109.9,461l4.6-11.5l11.5,4.6l-4.6,11.5L109.9,461z"/>
<path class="st1" d="M37.4,262.4l4.6-11.5l11.5,4.6L48.9,267L37.4,262.4z"/>
<path class="st4" d="M182.2,526.1l2.5-6.3l6.3,2.5l-2.5,6.3L182.2,526.1z"/>
<path class="st17" d="M216.2,564.1l-9.2-3.7l3.7-9.2l9.2,3.7L216.2,564.1z M208.2,559.9l7.5,3l3-7.5l-7.5-3L208.2,559.9z"/>
<path class="st1" d="M232.8,570.1l3.3-8.4l8.4,3.3l-3.3,8.4L232.8,570.1z"/>
<path class="st1" d="M281.7,589.8l3.3-8.4l8.4,3.3l-3.3,8.4L281.7,589.8z"/>
<path class="st1" d="M252.5,637.7l3.3-8.4l8.4,3.3l-3.3,8.4L252.5,637.7z"/>
<path class="st4" d="M173.3,542.8l2.5-6.3l6.3,2.5l-2.5,6.3L173.3,542.8z"/>
<path class="st4" d="M189.4,548.6l2.5-6.3l6.3,2.5l-2.5,6.3L189.4,548.6z"/>
<path class="st4" d="M351.4,579.5l5.2-4.4l4.4,5.2l-5.2,4.4L351.4,579.5z"/>
<path class="st17" d="M396.9,574.1l6.7-1l1,6.7l-6.7,1L396.9,574.1z"/>
<path class="st17" d="M423.1,555.2l6.7-1l1,6.7l-6.7,1L423.1,555.2z"/>
<path class="st17" d="M450.3,513.5l6.7-1l1,6.7l-6.7,1L450.3,513.5z"/>
<path class="st4" d="M366.5,602.9l5.2-4.4l4.4,5.2l-5.2,4.4L366.5,602.9z"/>
<path class="st4" d="M355.3,620.6l0.7-6.8l6.8,0.7l-0.7,6.8L355.3,620.6z"/>
<path class="st1" d="M423.9,542.4c1.7-0.8,3.7,0,4.5,1.7s0,3.7-1.7,4.5s-3.7,0-4.5-1.7C421.5,545.2,422.2,543.1,423.9,542.4z"/>
<path class="st1" d="M409.1,550.8l6.6-1.5l1.5,6.6l-6.6,1.5L409.1,550.8z"/>
<path class="st4" d="M407.9,568.5l3.4-5.9l5.9,3.4l-3.4,5.9L407.9,568.5z"/>
<path class="st4" d="M471.8,492.7l6.1-3l3,6.1l-6.1,3L471.8,492.7z"/>
<path class="st4" d="M443.1,502.7l5.2-4.4l4.4,5.2l-5.2,4.4L443.1,502.7z"/>
<path class="st4" d="M483.3,494l2-5.5l5.5,2l-2,5.5L483.3,494z"/>
<path class="st4" d="M524.6,567.5l2-5.5l5.5,2l-2,5.5L524.6,567.5z"/>
<path class="st4" d="M512.7,541.8l5.9-3.4l3.4,5.9l-5.9,3.4L512.7,541.8z"/>
<path class="st17" d="M456.4,499.3l0.2-6.8l6.8,0.2l-0.2,6.8L456.4,499.3z"/>
<path class="st1" d="M277.9,634.3l-11-12.3l12.3-11l11,12.3L277.9,634.3z M268.2,622l9.8,11l11-9.8l-9.8-11L268.2,622z"/>
<path class="st17" d="M120.8,597.8l-9.2-3.5l3.5-9.2l9.2,3.5L120.8,597.8z M112.8,593.8l7.5,2.9l2.9-7.5l-7.5-2.9L112.8,593.8z"/>
<path class="st1" d="M58.7,549l10.1-1.6l1.6,10.1L60.3,559L58.7,549z"/>
<circle class="st17" cx="39.1" cy="485.1" r="4.4"/>
<path class="st1" d="M102.6,515.8c-0.7,0-1.3,0-2-0.1l0.1-1.3c0.9,0.1,1.8,0.1,2.7,0.1l0.1,1.3C103.2,515.8,102.9,515.8,102.6,515.8
	z M106.3,515.4l-0.3-1.3c0.9-0.2,1.7-0.4,2.6-0.7l0.4,1.3C108.2,515,107.2,515.2,106.3,515.4z M97.8,515.2c-0.8-0.2-1.5-0.4-2.2-0.7
	c-0.2-0.1-0.3-0.1-0.5-0.2l0.5-1.2c0.2,0.1,0.3,0.1,0.5,0.2c0.7,0.3,1.4,0.5,2.1,0.7L97.8,515.2z M111.7,513.5l-0.6-1.2
	c0.8-0.4,1.5-0.9,2.3-1.4l0.8,1.1C113.3,512.6,112.5,513.1,111.7,513.5z M92.5,513c-0.8-0.5-1.6-1-2.3-1.6l0.9-1
	c0.7,0.6,1.4,1.1,2.2,1.5L92.5,513z M116.3,510.2l-0.9-1c0.6-0.6,1.2-1.3,1.8-2l1.1,0.8C117.6,508.8,117,509.6,116.3,510.2z
	 M88.1,509.4c-0.6-0.7-1.2-1.5-1.8-2.2l1.1-0.8c0.5,0.7,1,1.4,1.6,2.1L88.1,509.4z M119.8,505.7l-1.2-0.7c0.4-0.8,0.8-1.6,1.1-2.4
	l1.3,0.5C120.6,504,120.2,504.9,119.8,505.7z M84.9,504.7c-0.4-0.9-0.8-1.7-1.1-2.7l1.3-0.4c0.3,0.8,0.6,1.7,1,2.5L84.9,504.7z
	 M121.2,502.4L120,502c0.3-0.8,0.5-1.7,0.7-2.6l1.3,0.2C121.8,500.6,121.5,501.5,121.2,502.4z M83.2,499.2c-0.2-0.9-0.2-1.9-0.3-2.8
	h1.4c0,0.9,0.1,1.8,0.2,2.6L83.2,499.2z M122.3,496.8l-1.3-0.1c0-0.2,0-0.5,0-0.7c0-0.7,0-1.3-0.1-1.9l1.3-0.1
	c0.1,0.7,0.1,1.4,0.1,2.1V496.8z M84.4,493.7l-1.3-0.2c0.1-0.9,0.3-1.9,0.6-2.8l1.3,0.4C84.7,492,84.6,492.8,84.4,493.7z
	 M120.4,491.5c-0.2-0.9-0.5-1.7-0.8-2.5l1.2-0.5c0.4,0.9,0.7,1.8,0.9,2.7L120.4,491.5z M85.9,488.6l-1.2-0.6
	c0.4-0.9,0.8-1.7,1.4-2.5l1.1,0.7C86.7,487,86.2,487.8,85.9,488.6z M118.3,486.6c-0.5-0.8-1-1.5-1.5-2.2l1-0.9
	c0.6,0.7,1.2,1.5,1.6,2.3L118.3,486.6z M88.7,484.1l-1-0.9c0.6-0.7,1.3-1.4,2-2l0.9,1C89.9,482.8,89.3,483.4,88.7,484.1z
	 M114.9,482.5c-0.7-0.6-1.4-1.1-2.1-1.6l0.8-1.1c0.8,0.5,1.5,1.1,2.2,1.8L114.9,482.5z M92.7,480.6l-0.7-1.1c0.8-0.5,1.6-1,2.5-1.4
	l0.6,1.2C94.3,479.7,93.5,480.2,92.7,480.6z M110.5,479.6c-0.4-0.2-0.9-0.4-1.4-0.6c-0.4-0.1-0.7-0.3-1.1-0.4l0.4-1.3
	c0.4,0.1,0.8,0.3,1.2,0.4l1.5,0.6L110.5,479.6z M97.6,478.5l-0.4-1.3c0.9-0.3,1.9-0.5,2.8-0.6l0.2,1.3
	C99.3,478,98.4,478.2,97.6,478.5z M105.5,478c-0.9-0.1-1.8-0.2-2.7-0.2v-1.4c1,0,1.9,0.1,2.8,0.2L105.5,478z"/>
<path class="st4" d="M156.1,587l2.5-6.4l6.4,2.5l-2.5,6.4L156.1,587z"/>
<path class="st4" d="M138,594.5l2.4-6.4l6.4,2.4l-2.4,6.4L138,594.5z"/>
<path class="st4" d="M164.3,565.6l2.4-6.4l6.4,2.4l-2.4,6.4L164.3,565.6z"/>
<path class="st4" d="M154.9,432.2l2.5-6.3l6.3,2.5l-2.5,6.3L154.9,432.2z"/>
<path class="st17" d="M235.9,554.1l-9.2-3.7l3.7-9.2l9.2,3.7L235.9,554.1z M227.9,549.9l7.5,3l3-7.5l-7.5-3L227.9,549.9z"/>
<path class="st4" d="M85.4,456.2l2.5-6.3l6.3,2.5l-2.5,6.3L85.4,456.2z"/>
<path class="st4" d="M25.5,333.6l5.3-19.3l19.3,5.3l-5.3,19.3L25.5,333.6z"/>
<path class="st4" d="M0.9,425.7l14.9-4.7l4.7,14.9l-14.9,4.7L0.9,425.7z"/>
<path class="st4" d="M57.3,446.9l14.9-4.7l4.7,14.9L62,461.8L57.3,446.9z"/>
<path class="st4" d="M80.5,408.2l14.9-4.7l4.7,14.9l-14.9,4.7L80.5,408.2z"/>
<path class="st4" d="M110.1,368.4l14.9-4.7l4.7,14.9l-14.9,4.7L110.1,368.4z"/>
<path class="st4" d="M153.5,338.6l14.9-4.7l4.7,14.9l-14.9,4.7L153.5,338.6z"/>
<path class="st1" d="M35.7,415.1l11.1-5.6l5.6,11.1l-11.1,5.6L35.7,415.1z"/>
<circle class="st17" cx="64.7" cy="370" r="4.4"/>
<circle class="st17" cx="106.2" cy="337.3" r="4.4"/>
<circle class="st17" cx="207.5" cy="309.1" r="4.4"/>
<path class="st1" d="M24.5,400c-0.2,0-0.5,0-0.7,0l0.1-1.3c0.9,0,1.8,0,2.6-0.1l0.2,1.3C26,400,25.2,400,24.5,400z M21,399.6
	c-0.9-0.2-1.9-0.5-2.7-0.9l0.5-1.2c0.8,0.3,1.6,0.6,2.5,0.8L21,399.6z M29.5,399.2l-0.4-1.3c0.8-0.3,1.5-0.6,2.2-0.9l0.2-0.1
	l0.6,1.2l-0.2,0.1C31.1,398.6,30.3,399,29.5,399.2L29.5,399.2z M15.7,397.4c-0.8-0.5-1.6-1.1-2.2-1.8l0.9-1c0.6,0.6,1.3,1.2,2.1,1.6
	L15.7,397.4z M34.5,396.5l-0.8-1.1c0.7-0.6,1.3-1.2,1.9-1.8l1,0.9C36,395.2,35.3,395.9,34.5,396.5z M11.6,393.4
	c-1-1.4-1.8-2.9-2.3-4.6l1.3-0.4c0.3,0.8,0.6,1.7,1,2.4c0.3,0.6,0.7,1.2,1.1,1.8L11.6,393.4z M38.3,392.2l-1.2-0.7
	c0.4-0.8,0.8-1.6,1.1-2.4l1.3,0.5C39.2,390.5,38.8,391.3,38.3,392.2z M40.2,386.8l-1.3-0.2c0.1-0.8,0.2-1.7,0.2-2.5V384h1.4v0.1
	C40.5,385,40.4,385.9,40.2,386.8z M8.7,386c-0.1-0.6-0.1-1.3-0.1-1.9c0-0.3,0-0.7,0-1l1.3,0.1v0.9c0,0.6,0,1.2,0.1,1.7L8.7,386z
	 M38.9,381.3c-0.2-0.9-0.4-1.7-0.7-2.5l1.3-0.5c0.3,0.9,0.6,1.8,0.8,2.8L38.9,381.3z M10.3,380.6L9,380.3c0.2-0.9,0.5-1.8,0.9-2.7
	l1.2,0.6C10.8,378.9,10.5,379.7,10.3,380.6z M36.9,376.4c-0.5-0.7-1-1.5-1.6-2.1l1-0.9c0.6,0.7,1.2,1.5,1.7,2.3L36.9,376.4z
	 M12.5,375.8l-1.1-0.8c0.5-0.8,1.2-1.5,1.8-2.2l1,1C13.5,374.4,13,375.1,12.5,375.8z M33.4,372.5c-0.7-0.5-1.4-1-2.2-1.4l0.6-1.2
	c0.9,0.4,1.7,1,2.4,1.5L33.4,372.5z M16.2,372.1l-0.8-1.1c0.6-0.4,1.1-0.7,1.7-1c0.3-0.1,0.5-0.3,0.8-0.4l0.6,1.2
	c-0.2,0.1-0.5,0.2-0.7,0.4C17.2,371.4,16.7,371.7,16.2,372.1z M28.8,370.1c-0.8-0.3-1.7-0.4-2.6-0.5l0.2-1.3c1,0.1,1.9,0.3,2.8,0.6
	L28.8,370.1z M21,369.9l-0.3-1.3c0.9-0.2,1.9-0.4,2.8-0.4l0.1,1.3C22.7,369.6,21.8,369.7,21,369.9z"/>
<path class="st4" d="M20.5,455.9l6.1-3.1l3.1,6.1l-6.1,3.1L20.5,455.9z"/>
<path class="st4" d="M62.6,393.8l6.1-3.1l3.1,6.1l-6.1,3.1L62.6,393.8z"/>
<path class="st4" d="M-0.6,261.4l6.1-3.1l3.1,6.1l-6.1,3.1L-0.6,261.4z"/>
<path class="st4" d="M117.6,235.4l6.1-3.1l3.1,6.1l-6.1,3.1L117.6,235.4z"/>
<path class="st4" d="M180.3,505l2.5-6.3l6.3,2.5l-2.5,6.3L180.3,505z"/>
<path class="st4" d="M205.6,535.6l2.4-6.4l6.4,2.4L212,538L205.6,535.6z"/>
<path class="st4" d="M83.4,532.6l2.4-6.4l6.4,2.4l-2.4,6.4L83.4,532.6z"/>
<path class="st17" d="M117.8,570.1l-9.2-3.5l3.5-9.2l9.2,3.5L117.8,570.1z M109.7,566.1l7.5,2.9l2.9-7.5l-7.5-2.9L109.7,566.1z"/>
<path class="st1" d="M134.4,576l3.2-8.4l8.4,3.2l-3.2,8.4L134.4,576z"/>
<path class="st4" d="M83.7,574.8l1.6-4.2l4.2,1.6l-1.6,4.2L83.7,574.8z"/>
<path class="st4" d="M74.8,549.5l2.4-6.4l6.4,2.4l-2.4,6.4L74.8,549.5z"/>
<path class="st4" d="M97.3,547.6l2.4-6.4l6.4,2.4l-2.4,6.4L97.3,547.6z"/>
<path class="st1" d="M37.9,548.4l-16.5-1.5l1.5-16.5l16.5,1.5L37.9,548.4z M22.4,546.1l14.7,1.3l1.3-14.7l-14.7-1.3L22.4,546.1z"/>
</svg>
