<?xml version="1.0" encoding="utf-8"?>
<!-- Generator: Adobe Illustrator 24.2.3, SVG Export Plug-In . SVG Version: 6.00 Build 0)  -->
<svg version="1.1" id="Ebene_1" xmlns="http://www.w3.org/2000/svg" xmlns:xlink="http://www.w3.org/1999/xlink" x="0px" y="0px"
	 viewBox="0 0 1920 1080" style="enable-background:new 0 0 1920 1080;" xml:space="preserve">
<style type="text/css">
	.st0{fill:#EDE8DF;}
	.st1{fill:#3A2A78;}
	.st2{opacity:0.25;fill:url(#SVGID_1_);enable-background:new    ;}
	.st3{opacity:0.4;}
	.st4{fill:#1A9569;}
	.st5{fill:#9F80AA;}
	.st6{clip-path:url(#SVGID_3_);}
	.st7{fill:#3A2B78;}
	.st8{clip-path:url(#SVGID_5_);}
	.st9{clip-path:url(#SVGID_7_);}
	.st10{clip-path:url(#SVGID_9_);}
	.st11{clip-path:url(#SVGID_11_);}
	.st12{clip-path:url(#SVGID_13_);}
	.st13{clip-path:url(#SVGID_15_);}
	.st14{clip-path:url(#SVGID_17_);}
	.st15{clip-path:url(#SVGID_19_);}
	.st16{fill:#D3CF00;}
	.st17{fill:#D2737E;}
	.st18{fill:#E48300;}
	.st19{opacity:0.4;fill:url(#SVGID_20_);enable-background:new    ;}
	.st20{fill:#1EBC80;}
	.st21{fill:#FFFFFF;}
	.st22{fill:#C2B294;}
	.st23{fill:#00757C;}
	.st24{fill:#6DB8CD;}
	.st25{fill:none;}
</style>
<g>
	<g id="fad19986-7948-46c8-8eae-5731039fc469">
		<g>
			<polyline class="st0" points="1920,0 960,0 960,1080 1920,1080 1920,0 			"/>
		</g>
		<rect class="st1" width="960" height="1080"/>
		<radialGradient id="SVGID_1_" cx="480" cy="540" r="510.8816" gradientUnits="userSpaceOnUse">
			<stop  offset="5.455416e-02" style="stop-color:#3A2A78"/>
			<stop  offset="1" style="stop-color:#000000"/>
		</radialGradient>
		<rect class="st2" width="960" height="1080"/>
		<g class="st3">
			<rect x="199.6" y="92.5" class="st4" width="223.8" height="182.3"/>
		</g>
		<path class="st5" d="M396.6,275.7H171V91.6h225.6V275.7z M172.8,273.9h222.1V93.4H172.8V273.9z"/>
		<rect x="-11.6" y="903.2" class="st5" width="208" height="1.7"/>
		<rect x="-5.2" y="185.9" class="st5" width="177.1" height="1.7"/>
		<rect x="294" y="-7.5" class="st5" width="1.7" height="100"/>
		<rect x="570.1" y="182.1" class="st5" width="8.3" height="11.6"/>
		<rect x="570.1" y="204.1" class="st5" width="8.3" height="11.6"/>
		<rect x="570.1" y="226.1" class="st5" width="8.3" height="11.6"/>
		<rect x="570.1" y="248.1" class="st5" width="8.3" height="11.6"/>
		<rect x="570.1" y="270.1" class="st5" width="8.3" height="11.6"/>
		<rect x="577.5" y="-3.5" class="st5" width="1.7" height="357.1"/>
		<rect x="395" y="903.2" class="st5" width="175.2" height="1.7"/>
		<rect x="423.5" y="185.9" class="st5" width="154.9" height="1.7"/>
		<rect x="577.5" y="756.1" class="st5" width="1.7" height="326.5"/>
		<rect x="570.1" y="902.8" class="st5" width="8.3" height="11.6"/>
		<rect x="570.1" y="924.8" class="st5" width="8.3" height="11.6"/>
		<rect x="570.1" y="946.8" class="st5" width="8.3" height="11.6"/>
		<rect x="570.1" y="968.8" class="st5" width="8.3" height="11.6"/>
		<rect x="570.1" y="990.9" class="st5" width="8.3" height="11.6"/>
		<g class="st3">
			<polygon class="st4" points="456,1003.6 193.6,1003.6 324.8,789.8 			"/>
		</g>
		<path class="st5" d="M399.3,1004.5H133.7l132.8-216.3L399.3,1004.5z M136.8,1002.8h259.4L266.5,791.5L136.8,1002.8z"/>
		<path class="st4" d="M499.7,528.6c-0.5-19.6-4-39-10.4-57.6l7.6-2.6c6.7,19.3,10.3,39.6,10.8,60L499.7,528.6z M118.4,523l-8-0.4
			c1.6-30.5,10.2-60.3,25.3-86.8l7,3.9C128.3,465.1,119.9,493.7,118.4,523L118.4,523z M443,397.6c-20.9-20.6-46.2-36.1-74-45.4
			l2.5-7.6c29,9.7,55.4,25.8,77.1,47.3L443,397.6z M201.5,375.7l-4.5-6.6c25.2-17.2,54.1-28.4,84.4-32.6l1.1,7.9
			C253.4,348.5,225.7,359.2,201.5,375.7z"/>
		<path class="st4" d="M308.9,732.1c-0.6,0-1.1,0-1.7,0l0.1-8c0.5,0,1.1,0,1.6,0c28.8,0.1,57.2-6.4,83.1-19l3.5,7.2
			C368.5,725.5,338.9,732.2,308.9,732.1z M219.3,710.8c-27.2-13.8-50.9-33.7-69.3-58.1l6.4-4.8c17.6,23.4,40.4,42.5,66.6,55.8
			L219.3,710.8z M465.8,655.5l-6.3-4.9c18-23.1,30.5-50.1,36.4-78.8l7.8,1.6C497.5,603.3,484.6,631.4,465.8,655.5L465.8,655.5z"/>
		<path class="st4" d="M98.5,528.5l-3-0.1c1.4-59.7,27.8-116.1,72.7-155.6l2,2.3C125.9,414,99.9,469.6,98.5,528.5L98.5,528.5z
			 M509.3,468.9c-15.2-47.4-46.8-87.8-89-114.1c-7.5-4.7-15.3-8.9-23.3-12.6l1.3-2.7c8.1,3.8,16,8,23.6,12.8
			C464.7,379,496.7,420,512.2,468L509.3,468.9z"/>
		<path class="st4" d="M417.1,717.5l-1.5-2.6c50.8-29.9,86.7-79.6,99.2-137.2l2.9,0.6C505,636.7,468.6,687.1,417.1,717.5
			L417.1,717.5z M184.8,707c-43.7-31.2-74.1-77.8-84.9-130.4l2.9-0.6c10.6,51.9,40.5,97.8,83.7,128.6L184.8,707z"/>
		<path class="st4" d="M82.1,529.7c-0.4-3.3-0.7-6.7-0.9-10l2-0.1c0.2,3.3,0.5,6.6,0.9,9.9L82.1,529.7z M532.6,528.6
			c-0.2-1.1-0.4-2.3-0.6-3.4l2-0.3c0.2,1.2,0.4,2.3,0.6,3.5L532.6,528.6z M530.1,515.4c-0.7-3.2-1.5-6.5-2.4-9.7l1.9-0.5
			c0.9,3.2,1.7,6.5,2.4,9.8L530.1,515.4z M80.8,509.7c0-0.9,0-1.9,0-2.8c0-2.4,0-4.9,0.1-7.3l2,0.1c-0.1,2.4-0.1,4.8-0.1,7.2
			c0,0.9,0,1.8,0,2.8L80.8,509.7z M525,496.2c-1-3.1-2.1-6.3-3.2-9.4l1.9-0.7c1.2,3.1,2.2,6.3,3.3,9.5L525,496.2z M83.6,489.8
			l-2-0.2c0.3-3.3,0.7-6.7,1.2-10l2,0.3C84.3,483.1,83.9,486.5,83.6,489.8z M518.1,477.5c-1.3-3-2.6-6.1-4-9.1l1.8-0.8
			c1.4,3,2.8,6.1,4.1,9.2L518.1,477.5z M86.4,470.1l-2-0.4c0.6-3.3,1.4-6.6,2.2-9.8l1.9,0.5C87.8,463.6,87,466.8,86.4,470.1
			L86.4,470.1z M509.7,459.4c-1.5-2.9-3.1-5.9-4.8-8.7l1.7-1c1.7,2.9,3.3,5.9,4.8,8.8L509.7,459.4z M91.3,450.8l-1.9-0.6
			c1-3.2,2.1-6.4,3.3-9.5l1.9,0.7C93.4,444.5,92.3,447.7,91.3,450.8z M499.7,442.2c-1.8-2.8-3.6-5.6-5.5-8.3l1.6-1.1
			c1.9,2.8,3.8,5.6,5.5,8.4L499.7,442.2z M98.3,432.2l-1.8-0.8c1.3-3.1,2.8-6.1,4.3-9.1l1.8,0.9C101,426.2,99.6,429.2,98.3,432.2z
			 M488.4,425.7c-2-2.6-4-5.3-6.1-7.9l1.6-1.3c2.1,2.6,4.2,5.3,6.2,7.9L488.4,425.7z M107.3,414.5l-1.7-1c1-1.7,2-3.4,3.1-5.1
			c0.7-1.2,1.5-2.3,2.2-3.4l1.7,1.1c-0.7,1.1-1.5,2.3-2.2,3.4C109.3,411.1,108.2,412.8,107.3,414.5z M475.9,410.3
			c-2.2-2.5-4.4-5-6.7-7.4l1.5-1.4c2.3,2.4,4.6,4.9,6.8,7.4L475.9,410.3z M118.1,397.9l-1.6-1.2c2-2.7,4.1-5.4,6.2-7.9l1.5,1.3
			C122.2,392.6,120.1,395.2,118.1,397.9z M462.2,395.8c-2.4-2.3-4.8-4.6-7.3-6.8l1.3-1.5c2.5,2.2,4.9,4.6,7.3,6.9L462.2,395.8z
			 M130.8,382.5l-1.5-1.4c2.3-2.4,4.6-4.9,7-7.2l1.4,1.4C135.4,377.7,133.1,380.1,130.8,382.5z M447.4,382.4
			c-2.5-2.1-5.1-4.2-7.8-6.3l1.2-1.6c2.6,2,5.3,4.2,7.8,6.3L447.4,382.4z M431.7,370.2c-2.7-1.9-5.4-3.8-8.2-5.7l1.1-1.7
			c2.8,1.8,5.5,3.8,8.3,5.7L431.7,370.2z M145.1,368.7l-1.3-1.5c2.5-2.2,5.1-4.3,7.8-6.4l1.2,1.6
			C150.2,364.4,147.6,366.6,145.1,368.7L145.1,368.7z M415.1,359.2c-2.8-1.7-5.7-3.4-8.6-5l1-1.7c2.9,1.6,5.8,3.3,8.6,5.1
			L415.1,359.2z M160.8,356.5l-1.1-1.6c2.7-1.9,5.6-3.7,8.4-5.5l1.1,1.7C166.3,352.8,163.5,354.7,160.8,356.5L160.8,356.5z
			 M397.7,349.4c-3-1.5-6-3-8.9-4.4l0.9-1.8c3,1.4,6,2.9,9,4.4L397.7,349.4z M177.7,346.1l-1-1.8c2.9-1.6,5.9-3.1,8.9-4.6l0.9,1.8
			C183.6,343,180.6,344.5,177.7,346.1L177.7,346.1z M379.7,341c-3-1.3-6.1-2.5-9.2-3.7l0.7-1.9c3.1,1.2,6.2,2.4,9.3,3.8L379.7,341z
			 M195.6,337.4l-0.8-1.8c3-1.3,6.2-2.5,9.3-3.7l0.7,1.9C201.7,334.9,198.6,336.1,195.6,337.4L195.6,337.4z M361.1,333.9
			c-3.1-1.1-6.3-2.1-9.5-3l0.6-1.9c3.2,0.9,6.4,2,9.6,3L361.1,333.9z M214.3,330.6l-0.6-1.9c3.2-1,6.4-1.9,9.6-2.8l0.5,1.9
			C220.6,328.6,217.4,329.6,214.3,330.6L214.3,330.6z M342,328.2c-3.2-0.8-6.5-1.6-9.7-2.3l0.4-2c3.3,0.7,6.6,1.5,9.8,2.3L342,328.2
			z M233.5,325.5l-0.4-2c3.2-0.7,6.6-1.3,9.9-1.9l0.3,2C240,324.2,236.7,324.8,233.5,325.5z M322.5,324.1c-3.3-0.6-6.6-1.1-9.8-1.5
			l0.3-2c3.3,0.4,6.6,0.9,9.9,1.5L322.5,324.1z M253.1,322.2l-0.2-2c3.3-0.4,6.7-0.7,10-1l0.2,2
			C259.7,321.5,256.4,321.8,253.1,322.2L253.1,322.2z M302.8,321.5c-3.3-0.3-6.6-0.5-9.9-0.7l0.1-2c3.3,0.2,6.7,0.4,10,0.7
			L302.8,321.5z M272.9,320.7l-0.1-2c3.3-0.1,6.7-0.2,10-0.1v2C279.6,320.5,276.3,320.6,272.9,320.7L272.9,320.7z"/>
		<path class="st4" d="M336.7,748.2c-0.8,0-1.6,0-2.4,0v-2c3.3,0,6.7,0,10-0.1l0.1,2C341.8,748.2,339.2,748.2,336.7,748.2z
			 M324.2,747.9c-3.3-0.2-6.7-0.4-10-0.7l0.2-2c3.3,0.3,6.6,0.5,9.9,0.7L324.2,747.9z M354.3,747.6l-0.1-2c3.3-0.2,6.6-0.6,9.9-1
			l0.2,2C361,747,357.6,747.3,354.3,747.6L354.3,747.6z M304.2,746c-3.3-0.4-6.6-1-9.9-1.5l0.3-2c3.3,0.6,6.6,1.1,9.8,1.5L304.2,746
			z M374.2,745.2l-0.3-2c3.3-0.5,6.6-1.2,9.8-1.8l0.4,2C380.8,744,377.5,744.6,374.2,745.2L374.2,745.2z M284.4,742.6
			c-3.2-0.7-6.5-1.5-9.8-2.3l0.5-1.9c3.2,0.8,6.5,1.6,9.7,2.3L284.4,742.6z M393.8,741l-0.5-1.9c3.2-0.8,6.4-1.7,9.6-2.7l0.6,1.9
			C400.3,739.3,397.1,740.2,393.8,741z M265,737.6c-3.2-0.9-6.4-2-9.6-3.1l0.6-1.9c3.1,1.1,6.3,2.1,9.5,3L265,737.6z M413,735.1
			l-0.7-1.9c3.1-1.1,6.2-2.3,9.3-3.6l0.8,1.8C419.3,732.7,416.2,734,413,735.1L413,735.1z M246,731.1c-3.1-1.2-6.2-2.5-9.3-3.8
			l0.8-1.8c3,1.3,6.1,2.6,9.2,3.7L246,731.1z M431.5,727.3l-0.9-1.8c3-1.4,6-3,8.9-4.5l1,1.8C437.6,724.4,434.5,725.9,431.5,727.3
			L431.5,727.3z M227.6,723.2c-3-1.4-6-2.9-9-4.5l0.9-1.8c2.9,1.5,5.9,3,8.9,4.4L227.6,723.2z M449.2,717.7l-1-1.7
			c2.8-1.7,5.6-3.6,8.3-5.4l1.1,1.6C454.9,714.2,452,716,449.2,717.7L449.2,717.7z M209.8,713.9c-2.9-1.6-5.8-3.4-8.6-5.1l1.1-1.7
			c2.8,1.7,5.7,3.4,8.6,5.1L209.8,713.9z M465.7,706.4l-1.2-1.6c2.6-2,5.2-4.1,7.7-6.3l1.3,1.5C471,702.2,468.4,704.3,465.7,706.4
			L465.7,706.4z M192.7,703.4c-2.8-1.9-5.6-3.8-8.2-5.7l1.2-1.6c2.7,1.9,5.4,3.8,8.2,5.7L192.7,703.4z M481,693.3l-1.4-1.4
			c2.4-2.3,4.7-4.7,7-7.1l1.5,1.4C485.8,688.5,483.4,690.9,481,693.3L481,693.3z M176.4,691.7c-2.6-2-5.2-4.2-7.8-6.3l1.3-1.5
			c2.5,2.1,5.1,4.2,7.7,6.3L176.4,691.7z M161.1,678.7c-2.5-2.2-4.9-4.6-7.3-6.9l1.4-1.4c2.4,2.3,4.8,4.6,7.2,6.8L161.1,678.7z
			 M494.7,678.5l-1.5-1.3c2.1-2.5,4.2-5.2,6.2-7.8l1.6,1.2C498.9,673.3,496.8,676,494.7,678.5L494.7,678.5z M146.8,664.7
			c-2.3-2.4-4.6-4.9-6.8-7.4l1.5-1.3c2.2,2.5,4.4,5,6.7,7.4L146.8,664.7z M506.7,662.4l-1.7-1.1c0.9-1.3,1.7-2.7,2.6-4
			c0.9-1.5,1.8-3,2.7-4.4l1.7,1c-0.9,1.5-1.8,3-2.7,4.5C508.4,659.7,507.6,661.1,506.7,662.4L506.7,662.4z M133.5,649.5
			c-2.1-2.6-4.2-5.3-6.1-7.9l1.6-1.2c2,2.7,4,5.3,6.1,7.9L133.5,649.5z M516.8,645.1l-1.8-0.9c1.5-2.9,3-6,4.3-9l1.8,0.8
			C519.8,639,518.3,642.1,516.8,645.1z M121.6,633.4c-1.9-2.8-3.7-5.6-5.5-8.4l1.7-1.1c1.7,2.8,3.6,5.6,5.5,8.3L121.6,633.4z
			 M525,626.7l-1.9-0.7c1.2-3.1,2.3-6.2,3.3-9.4l1.9,0.6C527.3,620.4,526.2,623.6,525,626.7z M110.9,616.4c-1.7-2.9-3.3-5.9-4.8-8.8
			l1.8-0.9c1.5,2.9,3.1,5.9,4.8,8.8L110.9,616.4z M531.1,607.5l-1.9-0.5c0.8-3.2,1.6-6.5,2.2-9.7l2,0.4
			C532.7,601,531.9,604.3,531.1,607.5L531.1,607.5z M101.7,598.6c-1.4-3-2.8-6.1-4-9.2l1.8-0.8c1.3,3,2.6,6.1,4,9.1L101.7,598.6z
			 M535,587.8l-2-0.3c0.5-3.3,0.9-6.6,1.2-9.9l2,0.2C535.9,581.2,535.5,584.6,535,587.8L535,587.8z M94,580
			c-0.2-0.6-0.4-1.1-0.6-1.7l1.9-0.7c0.2,0.6,0.4,1.1,0.6,1.7L94,580z"/>
		<g class="st3">
			<path class="st4" d="M309,742.5L309,742.5c-29.2,0.1-58.1-6-84.8-17.9l4.5-10.1c25.3,11.2,52.7,17,80.3,17l0,0
				c11.3,0,22.7-1,33.9-2.9l1.9,10.8C332.9,741.5,320.9,742.5,309,742.5z M453.1,684.8l-7.6-8c28.4-27,48.2-61.8,56.7-100.1
				l10.7,2.4C504,619.6,483.2,656.4,453.1,684.8L453.1,684.8z M132.2,645.2C111,611.8,99.8,573,99.8,533.4c0-1.7,0-3.5,0.1-5.2
				l11,0.3c0,1.6-0.1,3.3-0.1,4.9c0,37.5,10.6,74.3,30.7,106L132.2,645.2z M507,528c-0.3-9.6-1.2-19.1-2.8-28.5l10.8-1.9
				c1.7,9.9,2.7,20,3,30.1L507,528z M147,419.2l-9-6.3c23.8-33.8,57.1-59.9,95.7-74.7l4,10.3C201.1,362.5,169.5,387.2,147,419.2z
				 M452.5,396.8c-27-28.4-61.8-48.2-100.1-56.8l2.4-10.7c40.4,9,77.2,29.9,105.6,59.9L452.5,396.8z"/>
		</g>
		
			<rect x="257.3" y="348.9" transform="matrix(0.9289 -0.3703 0.3703 0.9289 -134.0637 125.3359)" class="st4" width="4.2" height="125.9"/>
		<polygon class="st4" points="280.2,482.7 276.3,481.2 281.5,467.6 293.2,472 291.7,475.9 283.9,473 		"/>
		<g>
			<g>
				<defs>
					<line id="SVGID_2_" x1="236.1" y1="353.3" x2="250.6" y2="389.8"/>
				</defs>
				<clipPath id="SVGID_3_">
					<use xlink:href="#SVGID_2_"  style="overflow:visible;"/>
				</clipPath>
				<g class="st6">
					<rect x="236.1" y="353.3" class="st7" width="11" height="36.5"/>
					<rect x="247" y="353.3" class="st7" width="3.6" height="36.5"/>
					<rect x="250.6" y="353.3" class="st7" width="0" height="36.5"/>
				</g>
			</g>
		</g>
		
			<rect x="238.4" y="351.9" transform="matrix(0.9289 -0.3703 0.3703 0.9289 -120.28 116.4942)" class="st4" width="9.8" height="39.2"/>
		<g>
			<g>
				<defs>
					<line id="SVGID_4_" x1="236.1" y1="353.3" x2="239.4" y2="361.7"/>
				</defs>
				<clipPath id="SVGID_5_">
					<use xlink:href="#SVGID_4_"  style="overflow:visible;"/>
				</clipPath>
				<g class="st8">
					<rect x="236.1" y="353.3" class="st7" width="2.5" height="8.3"/>
					<rect x="238.6" y="353.3" class="st7" width="0.8" height="8.3"/>
					<rect x="239.4" y="353.3" class="st7" width="0" height="8.3"/>
				</g>
			</g>
		</g>
		
			<rect x="234.1" y="353" transform="matrix(0.9289 -0.3703 0.3703 0.9289 -115.4906 113.4331)" class="st4" width="7.2" height="9"/>
		
			<rect x="377.2" y="399.8" transform="matrix(0.5948 -0.8039 0.8039 0.5948 -157.8785 490.5103)" class="st4" width="60.9" height="4.2"/>
		<polygon class="st4" points="388,433.2 387.6,428.7 383.2,429.1 382.8,424.9 391.4,424.1 392.2,432.8 		"/>
		<g>
			<g>
				<defs>
					<line id="SVGID_6_" x1="425.7" y1="377.5" x2="414.2" y2="393"/>
				</defs>
				<clipPath id="SVGID_7_">
					<use xlink:href="#SVGID_6_"  style="overflow:visible;"/>
				</clipPath>
				<g class="st9">
					<rect x="414.2" y="377.5" class="st7" width="8.7" height="15.5"/>
					<rect x="422.9" y="377.5" class="st7" width="2.8" height="15.5"/>
					<rect x="425.7" y="377.5" class="st7" width="0" height="15.5"/>
				</g>
			</g>
		</g>
		
			<rect x="410.3" y="380.3" transform="matrix(0.5949 -0.8038 0.8038 0.5949 -139.5116 493.6086)" class="st4" width="19.3" height="9.8"/>
		<g>
			<g>
				<defs>
					<line id="SVGID_8_" x1="425.7" y1="377.5" x2="420.6" y2="384.4"/>
				</defs>
				<clipPath id="SVGID_9_">
					<use xlink:href="#SVGID_8_"  style="overflow:visible;"/>
				</clipPath>
				<g class="st10">
					<rect x="420.6" y="377.5" class="st7" width="3.9" height="6.9"/>
					<rect x="424.5" y="377.5" class="st7" width="1.3" height="6.9"/>
					<rect x="425.7" y="377.5" class="st7" width="0" height="6.9"/>
				</g>
			</g>
		</g>
		
			<rect x="418.9" y="377.4" transform="matrix(0.5949 -0.8038 0.8038 0.5949 -134.8496 494.5145)" class="st4" width="8.6" height="7.2"/>
		
			<rect x="450.3" y="543.1" transform="matrix(0.3433 -0.9392 0.9392 0.3433 -255.037 811.0009)" class="st4" width="4.2" height="89.5"/>
		<polygon class="st4" points="402.5,577.2 401.3,573.2 407.8,571.2 405.7,564.6 409.7,563.3 413.1,573.9 		"/>
		<g>
			<g>
				<defs>
					<line id="SVGID_10_" x1="491.3" y1="602.1" x2="457" y2="589.6"/>
				</defs>
				<clipPath id="SVGID_11_">
					<use xlink:href="#SVGID_10_"  style="overflow:visible;"/>
				</clipPath>
				<g class="st11">
					<rect x="457" y="589.6" class="st7" width="25.8" height="12.5"/>
					<rect x="482.9" y="589.6" class="st7" width="8.4" height="12.5"/>
					<rect x="491.2" y="589.6" class="st7" width="0" height="12.5"/>
				</g>
			</g>
		</g>
		
			<rect x="469.2" y="577.6" transform="matrix(0.3433 -0.9392 0.9392 0.3433 -248.1997 836.561)" class="st4" width="9.8" height="36.4"/>
		<g>
			<g>
				<defs>
					<line id="SVGID_12_" x1="491.3" y1="602.1" x2="482.1" y2="598.7"/>
				</defs>
				<clipPath id="SVGID_13_">
					<use xlink:href="#SVGID_12_"  style="overflow:visible;"/>
				</clipPath>
				<g class="st12">
					<rect x="482.1" y="598.7" class="st7" width="6.9" height="3.4"/>
					<rect x="489" y="598.7" class="st7" width="2.2" height="3.4"/>
					<rect x="491.3" y="598.7" class="st7" width="0" height="3.4"/>
				</g>
			</g>
		</g>
		
			<rect x="483.1" y="595.5" transform="matrix(0.3433 -0.9392 0.9392 0.3433 -244.2958 851.3685)" class="st4" width="7.2" height="9.8"/>
		
			<rect x="121.1" y="579.6" transform="matrix(0.9622 -0.2723 0.2723 0.9622 -152.9163 61.4538)" class="st4" width="47.7" height="4.2"/>
		<polygon class="st4" points="172.9,579.9 165.1,576.3 168.7,568.5 172.5,570.2 170.7,574.2 174.7,576.1 		"/>
		<g>
			<g>
				<defs>
					<line id="SVGID_14_" x1="122" y1="588.2" x2="149.7" y2="580.2"/>
				</defs>
				<clipPath id="SVGID_15_">
					<use xlink:href="#SVGID_14_"  style="overflow:visible;"/>
				</clipPath>
				<g class="st13">
					<rect x="122" y="580.2" class="st7" width="20.9" height="8.1"/>
					<rect x="142.9" y="580.2" class="st7" width="6.8" height="8.1"/>
					<rect x="149.7" y="580.2" class="st7" width="0" height="8.1"/>
				</g>
			</g>
		</g>
		
			<rect x="121.4" y="579.3" transform="matrix(0.9601 -0.2795 0.2795 0.9601 -157.8691 61.2558)" class="st4" width="28.9" height="9.8"/>
		<g>
			<g>
				<defs>
					<line id="SVGID_16_" x1="122" y1="588.2" x2="133" y2="585"/>
				</defs>
				<clipPath id="SVGID_17_">
					<use xlink:href="#SVGID_16_"  style="overflow:visible;"/>
				</clipPath>
				<g class="st14">
					<rect x="122" y="585" class="st7" width="8.3" height="3.2"/>
					<rect x="130.3" y="585" class="st7" width="2.7" height="3.2"/>
					<rect x="133" y="585" class="st7" width="0" height="3.2"/>
				</g>
			</g>
		</g>
		
			<rect x="121.8" y="583" transform="matrix(0.9601 -0.2795 0.2795 0.9601 -158.8731 59.0213)" class="st4" width="11.5" height="7.2"/>
		<g>
			<g>
				<defs>
					<circle id="SVGID_18_" cx="308.9" cy="531.9" r="150.4"/>
				</defs>
				<clipPath id="SVGID_19_">
					<use xlink:href="#SVGID_18_"  style="overflow:visible;"/>
				</clipPath>
				<g class="st15">
					<rect x="166.4" y="350.3" class="st4" width="8.6" height="8.6"/>
					<rect x="194.2" y="350.3" class="st4" width="8.6" height="8.6"/>
					<rect x="208.1" y="350.3" class="st4" width="8.6" height="8.6"/>
					<rect x="222" y="350.3" class="st4" width="8.6" height="8.6"/>
					<rect x="235.9" y="350.3" class="st4" width="8.6" height="8.6"/>
					<rect x="249.8" y="350.3" class="st4" width="8.6" height="8.6"/>
					<rect x="263.7" y="350.3" class="st4" width="8.6" height="8.6"/>
					<rect x="291.4" y="350.3" class="st4" width="8.6" height="8.6"/>
					<rect x="305.3" y="350.3" class="st4" width="8.6" height="8.6"/>
					<rect x="180.3" y="363.5" class="st16" width="8.6" height="8.6"/>
					<rect x="194.2" y="363.5" class="st5" width="8.6" height="8.6"/>
					<rect x="208.1" y="363.5" class="st4" width="8.6" height="8.6"/>
					<rect x="263.7" y="363.5" class="st4" width="8.6" height="8.6"/>
					<rect x="277.5" y="363.5" class="st4" width="8.6" height="8.6"/>
					<rect x="305.3" y="363.5" class="st4" width="8.6" height="8.6"/>
					<rect x="166.4" y="376.6" class="st5" width="8.6" height="8.6"/>
					<rect x="180.3" y="376.6" class="st16" width="8.6" height="8.6"/>
					<rect x="208.1" y="376.6" class="st4" width="8.6" height="8.6"/>
					<rect x="222" y="376.6" class="st17" width="8.6" height="8.6"/>
					<rect x="235.9" y="376.6" class="st4" width="8.6" height="8.6"/>
					<rect x="249.8" y="376.6" class="st4" width="8.6" height="8.6"/>
					<rect x="166.4" y="389.7" class="st18" width="8.6" height="8.6"/>
					<rect x="194.2" y="389.7" class="st17" width="8.6" height="8.6"/>
					<rect x="208.1" y="389.7" class="st4" width="8.6" height="8.6"/>
					<rect x="222" y="389.7" class="st17" width="8.6" height="8.6"/>
					<rect x="166.4" y="402.9" class="st5" width="8.6" height="8.6"/>
					<rect x="194.2" y="402.9" class="st4" width="8.6" height="8.6"/>
					<rect x="208.1" y="402.9" class="st16" width="8.6" height="8.6"/>
					<rect x="166.4" y="416" class="st4" width="8.6" height="8.6"/>
					<path class="st17" d="M187.4,414.8L187.4,414.8c2.4,0,4.3,1.9,4.3,4.3l0,0c0,2.4-1.9,4.3-4.3,4.3l0,0c-2.4,0-4.3-1.9-4.3-4.3
						l0,0C183.2,416.7,185.1,414.8,187.4,414.8z"/>
					<path class="st16" d="M170.7,429.2L170.7,429.2c2.4,0,4.3,1.9,4.3,4.3l0,0c0,2.4-1.9,4.3-4.3,4.3l0,0c-2.4,0-4.3-1.9-4.3-4.3
						l0,0C166.4,431.1,168.3,429.2,170.7,429.2z"/>
					<rect x="166.4" y="442.3" class="st17" width="8.6" height="8.6"/>
					<rect x="305.3" y="468.6" class="st4" width="8.6" height="8.6"/>
					<rect x="194.2" y="481.7" class="st4" width="8.6" height="8.6"/>
					<rect x="208.1" y="481.7" class="st5" width="8.6" height="8.6"/>
					<rect x="235.9" y="481.7" class="st4" width="8.6" height="8.6"/>
					<rect x="249.8" y="481.7" class="st5" width="8.6" height="8.6"/>
					<rect x="263.7" y="481.7" class="st4" width="8.6" height="8.6"/>
					<rect x="291.4" y="494.9" class="st4" width="8.6" height="8.6"/>
					<rect x="126.2" y="513.2" class="st4" width="8.6" height="8.6"/>
					<rect x="181.8" y="513.2" class="st5" width="8.6" height="8.6"/>
					<rect x="195.7" y="513.2" class="st4" width="8.6" height="8.6"/>
					<rect x="223.5" y="513.2" class="st4" width="8.6" height="8.6"/>
					<rect x="251.3" y="513.2" class="st4" width="8.6" height="8.6"/>
					<rect x="265.2" y="513.2" class="st5" width="8.6" height="8.6"/>
					<rect x="140.1" y="526.4" class="st16" width="8.6" height="8.6"/>
					<rect x="126.2" y="539.5" class="st5" width="8.6" height="8.6"/>
					<rect x="140.1" y="539.5" class="st16" width="8.6" height="8.6"/>
					<rect x="181.8" y="539.5" class="st5" width="8.6" height="8.6"/>
					<rect x="195.7" y="539.5" class="st4" width="8.6" height="8.6"/>
					<rect x="209.6" y="539.5" class="st4" width="8.6" height="8.6"/>
					<rect x="237.4" y="539.5" class="st4" width="8.6" height="8.6"/>
					<rect x="251.3" y="539.5" class="st5" width="8.6" height="8.6"/>
					<rect x="126.2" y="552.6" class="st18" width="8.6" height="8.6"/>
					<rect x="167.9" y="552.6" class="st5" width="8.6" height="8.6"/>
					<rect x="209.6" y="552.6" class="st4" width="8.6" height="8.6"/>
					<rect x="223.5" y="552.6" class="st4" width="8.6" height="8.6"/>
					<rect x="126.2" y="565.8" class="st5" width="8.6" height="8.6"/>
					<rect x="195.7" y="565.8" class="st4" width="8.6" height="8.6"/>
					<rect x="237.4" y="565.8" class="st4" width="8.6" height="8.6"/>
					<rect x="251.3" y="565.8" class="st4" width="8.6" height="8.6"/>
					<rect x="126.2" y="578.9" class="st4" width="8.6" height="8.6"/>
					<path class="st17" d="M147.3,577.7L147.3,577.7c2.4,0,4.3,1.9,4.3,4.3l0,0c0,2.4-1.9,4.3-4.3,4.3l0,0c-2.4,0-4.3-1.9-4.3-4.3
						l0,0C143,579.6,144.9,577.7,147.3,577.7z"/>
					
						<rect x="181.8" y="578.9" transform="matrix(0.7071 -0.7071 0.7071 0.7071 -357.8648 302.3957)" class="st5" width="8.6" height="8.6"/>
					<path class="st16" d="M130.5,592.1L130.5,592.1c2.4,0,4.3,1.9,4.3,4.3l0,0c0,2.4-1.9,4.3-4.3,4.3l0,0c-2.4,0-4.3-1.9-4.3-4.3
						l0,0C126.2,594,128.1,592.1,130.5,592.1z"/>
					<rect x="154" y="592.1" class="st18" width="8.6" height="8.6"/>
					<path class="st5" d="M200,592.1L200,592.1c2.4,0,4.3,1.9,4.3,4.3l0,0c0,2.4-1.9,4.3-4.3,4.3l0,0c-2.4,0-4.3-1.9-4.3-4.3l0,0
						C195.7,594,197.6,592.1,200,592.1z"/>
					
						<rect x="247.5" y="590.2" transform="matrix(0.7071 -0.7071 0.7071 0.7071 -346.6407 352.1929)" class="st4" width="8.6" height="8.6"/>
					<rect x="265.2" y="592.1" class="st4" width="8.6" height="8.6"/>
					<rect x="126.2" y="605.2" class="st17" width="8.6" height="8.6"/>
					<rect x="154" y="605.2" class="st4" width="8.6" height="8.6"/>
					<rect x="167.9" y="605.2" class="st4" width="8.6" height="8.6"/>
					<rect x="209.6" y="605.2" class="st5" width="8.6" height="8.6"/>
					<rect x="126.2" y="618.3" class="st16" width="8.6" height="8.6"/>
					<rect x="140.1" y="618.3" class="st5" width="8.6" height="8.6"/>
					<rect x="167.9" y="618.3" class="st16" width="8.6" height="8.6"/>
					<rect x="251.3" y="618.3" class="st4" width="8.6" height="8.6"/>
					<rect x="140.1" y="631.5" class="st16" width="8.6" height="8.6"/>
					<rect x="181.8" y="631.5" class="st4" width="8.6" height="8.6"/>
					<rect x="265.2" y="631.5" class="st4" width="8.6" height="8.6"/>
					<rect x="154" y="644.6" class="st4" width="8.6" height="8.6"/>
					<rect x="167.9" y="644.6" class="st5" width="8.6" height="8.6"/>
					<rect x="181.8" y="644.6" class="st5" width="8.6" height="8.6"/>
					<rect x="195.7" y="644.6" class="st4" width="8.6" height="8.6"/>
					<rect x="126.2" y="657.8" class="st4" width="8.6" height="8.6"/>
					<rect x="140.1" y="657.8" class="st4" width="8.6" height="8.6"/>
					<rect x="181.8" y="657.8" class="st4" width="8.6" height="8.6"/>
					<rect x="195.7" y="657.8" class="st17" width="8.6" height="8.6"/>
					<rect x="209.6" y="657.8" class="st4" width="8.6" height="8.6"/>
					<rect x="279.9" y="513.2" class="st4" width="8.6" height="8.6"/>
					<rect x="321.6" y="513.2" class="st4" width="8.6" height="8.6"/>
					<rect x="335.5" y="513.2" class="st5" width="8.6" height="8.6"/>
					<rect x="349.4" y="513.2" class="st5" width="8.6" height="8.6"/>
					<rect x="363.3" y="513.2" class="st4" width="8.6" height="8.6"/>
					<rect x="377.2" y="513.2" class="st4" width="8.6" height="8.6"/>
					<rect x="404.9" y="513.2" class="st4" width="8.6" height="8.6"/>
					<rect x="377.2" y="526.4" class="st4" width="8.6" height="8.6"/>
					<rect x="391" y="526.4" class="st4" width="8.6" height="8.6"/>
					<rect x="279.9" y="539.5" class="st4" width="8.6" height="8.6"/>
					<rect x="335.5" y="539.5" class="st4" width="8.6" height="8.6"/>
					<rect x="349.4" y="539.5" class="st4" width="8.6" height="8.6"/>
					<rect x="349.4" y="552.6" class="st4" width="8.6" height="8.6"/>
					<rect x="337.6" y="561.5" class="st5" width="8.6" height="8.6"/>
					<rect x="378.7" y="555.3" class="st4" width="8.6" height="8.6"/>
					<rect x="359" y="526.4" class="st4" width="8.6" height="8.6"/>
					<rect x="363.3" y="539.5" class="st4" width="8.6" height="8.6"/>
					<rect x="391" y="539.5" class="st4" width="8.6" height="8.6"/>
					<rect x="404.9" y="539.5" class="st4" width="8.6" height="8.6"/>
					<rect x="431.1" y="541.4" class="st4" width="8.6" height="8.6"/>
					<rect x="441.7" y="554.9" class="st5" width="8.6" height="8.6"/>
					<rect x="418.9" y="554.9" class="st5" width="8.6" height="8.6"/>
					<rect x="363.3" y="552.6" class="st5" width="8.6" height="8.6"/>
					<rect x="321.6" y="565.8" class="st4" width="8.6" height="8.6"/>
					<path class="st4" d="M353.6,614.1L353.6,614.1c2.4,0,4.3,1.9,4.3,4.3l0,0c0,2.4-1.9,4.3-4.3,4.3l0,0c-2.4,0-4.3-1.9-4.3-4.3
						l0,0C349.4,616,351.3,614.1,353.6,614.1z"/>
					<path class="st5" d="M368.4,603.7L368.4,603.7c2.4,0,4.3,1.9,4.3,4.3l0,0c0,2.4-1.9,4.3-4.3,4.3l0,0c-2.4,0-4.3-1.9-4.3-4.3
						l0,0C364.1,605.6,366,603.7,368.4,603.7z"/>
					<rect x="321.6" y="578.9" class="st5" width="8.6" height="8.6"/>
					
						<rect x="335.5" y="578.9" transform="matrix(0.7071 -0.7071 0.7071 0.7071 -312.8344 411.0635)" class="st5" width="8.6" height="8.6"/>
					<rect x="349.4" y="578.9" class="st4" width="8.6" height="8.6"/>
					<rect x="363.3" y="578.9" class="st4" width="8.6" height="8.6"/>
					<rect x="377.2" y="578.9" class="st4" width="8.6" height="8.6"/>
					<path class="st4" d="M284.2,592.1L284.2,592.1c2.4,0,4.3,1.9,4.3,4.3l0,0c0,2.4-1.9,4.3-4.3,4.3l0,0c-2.4,0-4.3-1.9-4.3-4.3
						l0,0C279.9,594,281.8,592.1,284.2,592.1z"/>
					<rect x="335.5" y="592.1" class="st4" width="8.6" height="8.6"/>
					<path class="st4" d="M353.6,592.1L353.6,592.1c2.4,0,4.3,1.9,4.3,4.3l0,0c0,2.4-1.9,4.3-4.3,4.3l0,0c-2.4,0-4.3-1.9-4.3-4.3
						l0,0C349.4,594,351.3,592.1,353.6,592.1z"/>
					<rect x="321.6" y="618.3" class="st4" width="8.6" height="8.6"/>
					<rect x="363.3" y="618.3" class="st4" width="8.6" height="8.6"/>
					<rect x="377.2" y="618.3" class="st4" width="8.6" height="8.6"/>
					<rect x="404.9" y="618.3" class="st4" width="8.6" height="8.6"/>
					<rect x="349.4" y="631.5" class="st4" width="8.6" height="8.6"/>
					<rect x="307.7" y="644.6" class="st4" width="8.6" height="8.6"/>
					<rect x="418.8" y="644.6" class="st4" width="8.6" height="8.6"/>
					<rect x="404.9" y="657.8" class="st4" width="8.6" height="8.6"/>
					<rect x="418.8" y="657.8" class="st4" width="8.6" height="8.6"/>
					<rect x="436.9" y="515.7" class="st4" width="8.6" height="8.6"/>
					<rect x="464.7" y="515.7" class="st4" width="8.6" height="8.6"/>
					<rect x="478.6" y="515.7" class="st4" width="8.6" height="8.6"/>
					<rect x="492.5" y="515.7" class="st4" width="8.6" height="8.6"/>
					<rect x="506.4" y="515.7" class="st4" width="8.6" height="8.6"/>
					<rect x="520.3" y="515.7" class="st4" width="8.6" height="8.6"/>
					<rect x="534.2" y="515.7" class="st4" width="8.6" height="8.6"/>
					<rect x="562" y="515.7" class="st4" width="8.6" height="8.6"/>
					<rect x="575.9" y="515.7" class="st4" width="8.6" height="8.6"/>
					<rect x="464.7" y="528.8" class="st4" width="8.6" height="8.6"/>
					<rect x="478.6" y="528.8" class="st4" width="8.6" height="8.6"/>
					<rect x="534.2" y="528.8" class="st4" width="8.6" height="8.6"/>
					<rect x="548.1" y="528.8" class="st4" width="8.6" height="8.6"/>
					<rect x="575.9" y="528.8" class="st4" width="8.6" height="8.6"/>
					<rect x="478.6" y="542" class="st4" width="8.6" height="8.6"/>
					<rect x="492.5" y="542" class="st4" width="8.6" height="8.6"/>
					<rect x="506.4" y="542" class="st4" width="8.6" height="8.6"/>
					<rect x="520.3" y="542" class="st4" width="8.6" height="8.6"/>
					<rect x="548.1" y="542" class="st4" width="8.6" height="8.6"/>
					<rect x="562" y="542" class="st4" width="8.6" height="8.6"/>
					<rect x="464.7" y="555.1" class="st4" width="8.6" height="8.6"/>
					<rect x="478.6" y="555.1" class="st4" width="8.6" height="8.6"/>
					<rect x="492.5" y="555.1" class="st4" width="8.6" height="8.6"/>
					<rect x="506.4" y="555.1" class="st4" width="8.6" height="8.6"/>
					<rect x="520.3" y="555.1" class="st4" width="8.6" height="8.6"/>
					<rect x="534.2" y="555.1" class="st4" width="8.6" height="8.6"/>
					<rect x="562" y="555.1" class="st4" width="8.6" height="8.6"/>
					<rect x="464.7" y="568.3" class="st4" width="8.6" height="8.6"/>
					<rect x="478.6" y="568.3" class="st4" width="8.6" height="8.6"/>
					<rect x="492.5" y="568.3" class="st4" width="8.6" height="8.6"/>
					<rect x="506.4" y="568.3" class="st4" width="8.6" height="8.6"/>
					<rect x="520.3" y="568.3" class="st4" width="8.6" height="8.6"/>
					<rect x="534.2" y="568.3" class="st4" width="8.6" height="8.6"/>
					<rect x="548.1" y="568.3" class="st4" width="8.6" height="8.6"/>
					<rect x="562" y="568.3" class="st4" width="8.6" height="8.6"/>
					<rect x="575.9" y="568.3" class="st4" width="8.6" height="8.6"/>
					<path class="st4" d="M458,580.2L458,580.2c2.4,0,4.3,1.9,4.3,4.3l0,0c0,2.4-1.9,4.3-4.3,4.3l0,0c-2.4,0-4.3-1.9-4.3-4.3l0,0
						C453.7,582.1,455.6,580.2,458,580.2z"/>
					<rect x="478.6" y="581.4" class="st4" width="8.6" height="8.6"/>
					
						<rect x="492.5" y="581.4" transform="matrix(0.7071 -0.7071 0.7071 0.7071 -268.6326 522.8365)" class="st4" width="8.6" height="8.6"/>
					<rect x="506.4" y="581.4" class="st4" width="8.6" height="8.6"/>
					<rect x="520.3" y="581.4" class="st4" width="8.6" height="8.6"/>
					<rect x="534.2" y="581.4" class="st4" width="8.6" height="8.6"/>
					<rect x="548.1" y="581.4" class="st4" width="8.6" height="8.6"/>
					<rect x="575.9" y="581.4" class="st4" width="8.6" height="8.6"/>
					<rect x="464.7" y="594.5" class="st4" width="8.6" height="8.6"/>
					<rect x="478.6" y="594.5" class="st4" width="8.6" height="8.6"/>
					<rect x="492.5" y="594.5" class="st4" width="8.6" height="8.6"/>
					<path class="st4" d="M510.7,594.5L510.7,594.5c2.4,0,4.3,1.9,4.3,4.3l0,0c0,2.4-1.9,4.3-4.3,4.3l0,0c-2.4,0-4.3-1.9-4.3-4.3
						l0,0C506.4,596.5,508.3,594.5,510.7,594.5z"/>
					<rect x="520.3" y="594.5" class="st4" width="8.6" height="8.6"/>
					<rect x="534.2" y="594.5" class="st4" width="8.6" height="8.6"/>
					
						<rect x="558.2" y="592.7" transform="matrix(0.7071 -0.7071 0.7071 0.7071 -257.4085 572.6337)" class="st4" width="8.6" height="8.6"/>
					<rect x="575.9" y="594.5" class="st4" width="8.6" height="8.6"/>
					<rect x="464.7" y="607.7" class="st4" width="8.6" height="8.6"/>
					<rect x="478.6" y="607.7" class="st4" width="8.6" height="8.6"/>
					<rect x="492.5" y="607.7" class="st4" width="8.6" height="8.6"/>
					<rect x="506.4" y="607.7" class="st4" width="8.6" height="8.6"/>
					<rect x="520.3" y="607.7" class="st4" width="8.6" height="8.6"/>
					<rect x="534.2" y="607.7" class="st4" width="8.6" height="8.6"/>
					<rect x="548.1" y="607.7" class="st4" width="8.6" height="8.6"/>
					<rect x="562" y="607.7" class="st4" width="8.6" height="8.6"/>
					<rect x="436.9" y="620.8" class="st4" width="8.6" height="8.6"/>
					<rect x="450.8" y="620.8" class="st4" width="8.6" height="8.6"/>
					<rect x="478.6" y="620.8" class="st4" width="8.6" height="8.6"/>
					<rect x="492.5" y="620.8" class="st4" width="8.6" height="8.6"/>
					<rect x="506.4" y="620.8" class="st4" width="8.6" height="8.6"/>
					<rect x="520.3" y="620.8" class="st4" width="8.6" height="8.6"/>
					<rect x="534.2" y="620.8" class="st4" width="8.6" height="8.6"/>
					<rect x="562" y="620.8" class="st4" width="8.6" height="8.6"/>
					<rect x="450.8" y="634" class="st4" width="8.6" height="8.6"/>
					<rect x="492.5" y="634" class="st4" width="8.6" height="8.6"/>
					<rect x="506.4" y="634" class="st4" width="8.6" height="8.6"/>
					<rect x="520.3" y="634" class="st4" width="8.6" height="8.6"/>
					<rect x="548.1" y="634" class="st4" width="8.6" height="8.6"/>
					<rect x="562" y="634" class="st4" width="8.6" height="8.6"/>
					<rect x="575.9" y="634" class="st4" width="8.6" height="8.6"/>
					<rect x="464.7" y="647.1" class="st4" width="8.6" height="8.6"/>
					<rect x="478.6" y="647.1" class="st4" width="8.6" height="8.6"/>
					<rect x="492.5" y="647.1" class="st4" width="8.6" height="8.6"/>
					<rect x="506.4" y="647.1" class="st4" width="8.6" height="8.6"/>
					<rect x="520.3" y="647.1" class="st4" width="8.6" height="8.6"/>
					<rect x="534.2" y="647.1" class="st4" width="8.6" height="8.6"/>
					<rect x="548.1" y="647.1" class="st4" width="8.6" height="8.6"/>
					<rect x="562" y="647.1" class="st4" width="8.6" height="8.6"/>
					<rect x="575.9" y="647.1" class="st4" width="8.6" height="8.6"/>
					<rect x="436.9" y="660.2" class="st4" width="8.6" height="8.6"/>
					<rect x="450.8" y="660.2" class="st4" width="8.6" height="8.6"/>
					<rect x="492.5" y="660.2" class="st4" width="8.6" height="8.6"/>
					<rect x="506.4" y="660.2" class="st4" width="8.6" height="8.6"/>
					<rect x="520.3" y="660.2" class="st4" width="8.6" height="8.6"/>
					<rect x="534.2" y="660.2" class="st4" width="8.6" height="8.6"/>
					<rect x="548.1" y="660.2" class="st4" width="8.6" height="8.6"/>
					<rect x="562" y="660.2" class="st4" width="8.6" height="8.6"/>
					<rect x="575.9" y="660.2" class="st4" width="8.6" height="8.6"/>
					<rect x="319.9" y="353.1" class="st4" width="8.6" height="8.6"/>
					<rect x="347.7" y="353.1" class="st4" width="8.6" height="8.6"/>
					<rect x="361.6" y="353.1" class="st4" width="8.6" height="8.6"/>
					<rect x="375.5" y="353.1" class="st4" width="8.6" height="8.6"/>
					<rect x="389.4" y="353.1" class="st4" width="8.6" height="8.6"/>
					<rect x="403.2" y="353.1" class="st4" width="8.6" height="8.6"/>
					<rect x="417.1" y="353.1" class="st4" width="8.6" height="8.6"/>
					<rect x="444.9" y="353.1" class="st4" width="8.6" height="8.6"/>
					<rect x="458.8" y="353.1" class="st4" width="8.6" height="8.6"/>
					<rect x="333.8" y="366.2" class="st4" width="8.6" height="8.6"/>
					<rect x="347.7" y="366.2" class="st4" width="8.6" height="8.6"/>
					<rect x="361.6" y="366.2" class="st4" width="8.6" height="8.6"/>
					<rect x="417.1" y="366.2" class="st4" width="8.6" height="8.6"/>
					<rect x="431" y="366.2" class="st4" width="8.6" height="8.6"/>
					<rect x="458.8" y="366.2" class="st4" width="8.6" height="8.6"/>
					<rect x="361.6" y="379.4" class="st4" width="8.6" height="8.6"/>
					<rect x="375.5" y="379.4" class="st4" width="8.6" height="8.6"/>
					<rect x="389.4" y="379.4" class="st4" width="8.6" height="8.6"/>
					<rect x="403.2" y="379.4" class="st4" width="8.6" height="8.6"/>
					<rect x="431" y="379.4" class="st4" width="8.6" height="8.6"/>
					<rect x="444.9" y="379.4" class="st4" width="8.6" height="8.6"/>
					<rect x="389.4" y="392.5" class="st4" width="8.6" height="8.6"/>
					<rect x="403.2" y="392.5" class="st4" width="8.6" height="8.6"/>
					<rect x="417.1" y="392.5" class="st4" width="8.6" height="8.6"/>
					<rect x="444.9" y="392.5" class="st4" width="8.6" height="8.6"/>
					<rect x="403.2" y="405.6" class="st4" width="8.6" height="8.6"/>
					<rect x="417.1" y="405.6" class="st4" width="8.6" height="8.6"/>
					<rect x="431" y="405.6" class="st4" width="8.6" height="8.6"/>
					<rect x="444.9" y="405.6" class="st4" width="8.6" height="8.6"/>
					<rect x="458.8" y="405.6" class="st4" width="8.6" height="8.6"/>
					<rect x="417.1" y="418.8" class="st4" width="8.6" height="8.6"/>
					<rect x="431" y="418.8" class="st4" width="8.6" height="8.6"/>
					<rect x="458.8" y="418.8" class="st4" width="8.6" height="8.6"/>
					<rect x="361.6" y="431.9" class="st4" width="8.6" height="8.6"/>
					
						<rect x="441.1" y="430.1" transform="matrix(0.7071 -0.7071 0.7071 0.7071 -176.7088 442.1688)" class="st4" width="8.6" height="8.6"/>
					<rect x="458.8" y="431.9" class="st4" width="8.6" height="8.6"/>
					<rect x="444.9" y="445.1" class="st4" width="8.6" height="8.6"/>
					<rect x="361.6" y="458.2" class="st4" width="8.6" height="8.6"/>
					<rect x="389.4" y="458.2" class="st4" width="8.6" height="8.6"/>
					<rect x="444.9" y="458.2" class="st4" width="8.6" height="8.6"/>
					<rect x="333.8" y="471.3" class="st4" width="8.6" height="8.6"/>
					<rect x="458.8" y="471.3" class="st4" width="8.6" height="8.6"/>
					<rect x="347.7" y="484.5" class="st4" width="8.6" height="8.6"/>
					<rect x="375.5" y="484.5" class="st4" width="8.6" height="8.6"/>
					<rect x="403.2" y="484.5" class="st4" width="8.6" height="8.6"/>
					<rect x="458.8" y="484.5" class="st4" width="8.6" height="8.6"/>
					<rect x="333.8" y="497.6" class="st4" width="8.6" height="8.6"/>
					<rect x="375.5" y="497.6" class="st5" width="8.6" height="8.6"/>
					<rect x="417.1" y="497.6" class="st4" width="8.6" height="8.6"/>
					<rect x="458.8" y="497.6" class="st4" width="8.6" height="8.6"/>
				</g>
			</g>
		</g>
		<rect x="282.9" y="1003.6" class="st5" width="1.7" height="79.9"/>
		<rect x="516.2" y="486.7" class="st5" width="208.4" height="1.7"/>
		<rect x="519.2" y="505.3" class="st5" width="205.4" height="1.7"/>
		<rect x="520.8" y="523.9" class="st5" width="203.9" height="1.7"/>
		<rect x="516.2" y="579.7" class="st5" width="208.4" height="1.7"/>
		<rect x="509" y="598.2" class="st5" width="215.6" height="1.7"/>
		<rect x="516.2" y="579.7" class="st5" width="208.4" height="1.7"/>
		<rect x="517.9" y="561.1" class="st5" width="206.7" height="1.7"/>
		<rect x="519.2" y="542.5" class="st5" width="205.4" height="1.7"/>
		<rect x="504.5" y="616.8" class="st5" width="220.1" height="1.7"/>
		<rect x="539.2" y="478.3" class="st5" width="5.7" height="18.6"/>
		<rect x="631.2" y="496.9" class="st5" width="5.7" height="18.6"/>
		<rect x="673.6" y="515.5" class="st5" width="5.7" height="18.6"/>
		<rect x="693.8" y="589.8" class="st5" width="5.7" height="18.6"/>
		<rect x="598.1" y="571.2" class="st5" width="5.7" height="18.6"/>
		<rect x="648.6" y="552.6" class="st5" width="5.7" height="18.6"/>
		<rect x="559.5" y="534.1" class="st5" width="5.7" height="18.6"/>
		<rect x="624.3" y="608.4" class="st5" width="5.7" height="18.6"/>
		<polygon class="st5" points="1108.1,400.6 724.6,400.6 724.6,398.9 1107.4,398.9 1221.6,284.7 1392,284.7 1392,286.5 
			1222.3,286.5 		"/>
		<polygon class="st5" points="724.6,382 724.6,380.3 1107,380.3 1215.9,271.4 1392,271.4 1392,273.1 1216.6,273.1 1107.7,382 		"/>
		<rect x="724.6" y="324.5" class="st5" width="208.4" height="1.7"/>
		<polygon class="st5" points="1007.7,307.7 724.6,307.7 724.6,305.9 1007,305.9 1099.8,213.1 1392,213.1 1392,214.8 1100.6,214.8 
					"/>
		<polygon class="st5" points="1007.7,326.3 724.6,326.3 724.6,324.5 1007,324.5 1103.9,227.6 1392,227.6 1392,229.3 1104.6,229.3 
					"/>
		<polygon class="st5" points="1107.7,344.9 724.6,344.9 724.6,343.1 1107,343.1 1207.4,242.7 1392,242.7 1392,244.5 1208.1,244.5 
					"/>
		<polygon class="st5" points="1107.7,363.4 724.6,363.4 724.6,361.7 1107,361.7 1210.7,258 1392,258 1392,259.8 1211.4,259.8 		"/>
		<polygon class="st5" points="1007.8,289.2 724.6,289.2 724.6,287.2 1006.9,287.2 1097.6,196.6 1392,196.6 1392,198.6 
			1098.4,198.6 		"/>
		<rect x="812.4" y="390.5" class="st5" width="5.7" height="18.6"/>
		<rect x="749.8" y="297.5" class="st5" width="5.7" height="18.6"/>
		<rect x="909.1" y="316.1" class="st5" width="5.7" height="18.6"/>
		<rect x="794.9" y="334.7" class="st5" width="5.7" height="18.6"/>
		<rect x="884.1" y="353.3" class="st5" width="5.7" height="18.6"/>
		<rect x="836.6" y="371.9" class="st5" width="5.7" height="18.6"/>
		<rect x="819.3" y="278.9" class="st5" width="5.7" height="18.6"/>
		<polygon class="st5" points="1783.1,785.1 1782.7,785.1 724.6,784.3 724.6,782.6 1782.4,783.4 1861,704.8 1861,295.3 
			1783.9,218.3 1785.1,217 1862.7,294.6 1862.7,705.5 1862.4,705.8 		"/>
		<polygon class="st5" points="724.6,765.8 724.6,764 1758,764 1833.5,688.5 1833.5,308.9 1785.1,260.5 1786.4,259.3 1835.2,308.2 
			1835.2,689.2 1835,689.4 1758.7,765.7 		"/>
		<polygon class="st5" points="1488.7,691.4 724.6,691.4 724.6,689.7 1488,689.7 1569,608.6 1569,379.2 1570.8,379.2 1570.8,609.4 
			1570.5,609.6 		"/>
		<polygon class="st5" points="1541.4,710 724.6,710 724.6,708.2 1540.7,708.2 1633.2,615.8 1633.2,379.1 1634.9,379.1 
			1634.9,616.5 		"/>
		<polygon class="st5" points="1623.8,728.6 724.6,728.6 724.6,726.8 1623.1,726.8 1679.4,670.5 1679.4,379.2 1681.1,379.2 
			1681.1,671.2 1680.9,671.5 		"/>
		<polygon class="st5" points="1667.4,747.3 724.6,747.3 724.6,745.3 1666.6,745.3 1729.6,682.3 1729.6,379.1 1731.6,379.1 
			1731.6,683.1 		"/>
		<polygon class="st5" points="1438.3,672.9 724.6,672.9 724.6,670.9 1437.4,670.9 1517.7,590.7 1517.7,379.2 1519.7,379.2 
			1519.7,591.5 		"/>
		<rect x="812.4" y="774.2" class="st5" width="5.7" height="18.6"/>
		<rect x="849.5" y="755.6" class="st5" width="5.7" height="18.6"/>
		<rect x="749.8" y="681.2" class="st5" width="5.7" height="18.6"/>
		<rect x="845.5" y="699.8" class="st5" width="5.7" height="18.6"/>
		<rect x="794.9" y="718.4" class="st5" width="5.7" height="18.6"/>
		<rect x="884.1" y="737" class="st5" width="5.7" height="18.6"/>
		<rect x="819.3" y="662.7" class="st5" width="5.7" height="18.6"/>
		<rect x="-0.7" y="486.7" class="st5" width="82.6" height="1.7"/>
		<rect x="-0.7" y="505.3" class="st5" width="81" height="1.7"/>
		<rect x="-0.7" y="523.9" class="st5" width="81.7" height="1.7"/>
		<rect x="-0.7" y="579.7" class="st5" width="95.1" height="1.7"/>
		<rect x="-0.7" y="598.2" class="st5" width="102.1" height="1.7"/>
		<rect x="-0.7" y="561.1" class="st5" width="89.4" height="1.7"/>
		<rect x="-0.7" y="542.5" class="st5" width="84.6" height="1.7"/>
		<rect x="-0.7" y="616.8" class="st5" width="111.9" height="1.7"/>
		<rect x="723.8" y="-5.5" class="st5" width="1.7" height="589.7"/>
		<rect x="723.8" y="576.3" class="st5" width="1.7" height="507.7"/>
		<rect x="716.4" y="114.4" class="st5" width="8.3" height="11.6"/>
		<rect x="716.4" y="136.4" class="st5" width="8.3" height="11.6"/>
		<rect x="716.4" y="158.5" class="st5" width="8.3" height="11.6"/>
		<rect x="716.4" y="180.5" class="st5" width="8.3" height="11.6"/>
		<rect x="716.4" y="202.5" class="st5" width="8.3" height="11.6"/>
		<rect x="724.6" y="877" class="st5" width="8.3" height="11.6"/>
		<rect x="724.6" y="899" class="st5" width="8.3" height="11.6"/>
		<rect x="724.6" y="921" class="st5" width="8.3" height="11.6"/>
		<rect x="724.6" y="943" class="st5" width="8.3" height="11.6"/>
		<rect x="724.6" y="965" class="st5" width="8.3" height="11.6"/>
		<rect x="491.2" y="554.9" class="st4" width="8.6" height="8.6"/>
		<rect x="448.5" y="537.4" class="st4" width="8.6" height="8.6"/>
		<rect x="477.8" y="541.4" class="st4" width="8.6" height="8.6"/>
		<rect x="470.6" y="554.9" class="st5" width="8.6" height="8.6"/>
		<rect x="464.5" y="541.4" class="st5" width="8.6" height="8.6"/>
		<rect x="1392" y="133.4" class="st4" width="394.2" height="245.9"/>
		
			<linearGradient id="SVGID_20_" gradientUnits="userSpaceOnUse" x1="1486.5861" y1="1001.2093" x2="1691.6139" y2="646.0907" gradientTransform="matrix(1 0 0 -1 0 1080)">
			<stop  offset="0" style="stop-color:#1A9569"/>
			<stop  offset="1" style="stop-color:#000000"/>
		</linearGradient>
		<rect x="1392" y="133.4" class="st19" width="394.2" height="245.9"/>
		<polygon class="st20" points="1786.3,354.3 1419.5,354.3 1419.5,133.4 1421.5,133.4 1421.5,352.3 1786.3,352.3 		"/>
		<rect x="1454.1" y="227.6" class="st21" width="7.2" height="7.2"/>
		<rect x="1466.1" y="258.7" class="st21" width="7.2" height="7.2"/>
		<rect x="1486.2" y="258.3" class="st20" width="7.2" height="7.2"/>
		<rect x="1522.3" y="280.7" class="st20" width="7.2" height="7.2"/>
		<rect x="1549.6" y="310.8" class="st21" width="7.2" height="7.2"/>
		<rect x="1439" y="160.9" class="st21" width="7.2" height="7.2"/>
		<rect x="1446.3" y="194.1" class="st21" width="7.2" height="7.2"/>
		<rect x="1475.5" y="235.5" class="st20" width="7.2" height="7.2"/>
		<rect x="1459.1" y="210.7" class="st20" width="7.2" height="7.2"/>
		<rect x="1475.1" y="211" class="st20" width="7.2" height="7.2"/>
		<rect x="1505.6" y="262.4" class="st20" width="7.2" height="7.2"/>
		<rect x="1587.7" y="317.1" class="st21" width="7.2" height="7.2"/>
		<rect x="1572" y="291.6" class="st20" width="7.2" height="7.2"/>
		<rect x="1637.8" y="326.6" class="st21" width="7.2" height="7.2"/>
		<rect x="1690.2" y="333.8" class="st21" width="7.2" height="7.2"/>
		<rect x="1632.5" y="303.8" class="st20" width="7.2" height="7.2"/>
		<rect x="1670.6" y="306" class="st20" width="7.2" height="7.2"/>
		<rect x="1594.6" y="252.7" class="st20" width="7.2" height="7.2"/>
		<rect x="1630.7" y="279.2" class="st20" width="7.2" height="7.2"/>
		<rect x="1672.6" y="275.6" class="st20" width="7.2" height="7.2"/>
		<rect x="1593.6" y="219.9" class="st20" width="7.2" height="7.2"/>
		<rect x="1613.4" y="303.9" class="st20" width="7.2" height="7.2"/>
		<rect x="1615.4" y="322.4" class="st21" width="7.2" height="7.2"/>
		<rect x="1602.3" y="311.8" class="st20" width="7.2" height="7.2"/>
		<rect x="1567.6" y="280.6" class="st20" width="7.2" height="7.2"/>
		<rect x="1627.3" y="313.4" class="st20" width="7.2" height="7.2"/>
		<rect x="1644.7" y="306.9" class="st20" width="7.2" height="7.2"/>
		<rect x="1657.9" y="311.4" class="st20" width="7.2" height="7.2"/>
		<rect x="1677.5" y="318.8" class="st20" width="7.2" height="7.2"/>
		<rect x="1707.1" y="326" class="st20" width="7.2" height="7.2"/>
		<rect x="1686.6" y="296.2" class="st20" width="7.2" height="7.2"/>
		<rect x="1701.1" y="312.9" class="st20" width="7.2" height="7.2"/>
		<rect x="1583.7" y="289.5" class="st20" width="7.2" height="7.2"/>
		<rect x="1640.9" y="266.2" class="st20" width="7.2" height="7.2"/>
		<rect x="1663.3" y="330.2" class="st21" width="7.2" height="7.2"/>
		<rect x="1718.7" y="336.2" class="st21" width="7.2" height="7.2"/>
		<rect x="1539.4" y="277.6" class="st20" width="7.2" height="7.2"/>
		<rect x="1554.2" y="295.1" class="st20" width="7.2" height="7.2"/>
		<rect x="1555.7" y="277.1" class="st20" width="7.2" height="7.2"/>
		<rect x="1524.6" y="267.2" class="st20" width="7.2" height="7.2"/>
		<rect x="1509.3" y="247.1" class="st20" width="7.2" height="7.2"/>
		<rect x="1539.5" y="266.6" class="st20" width="7.2" height="7.2"/>
		<rect x="1507.5" y="276.9" class="st20" width="7.2" height="7.2"/>
		<rect x="1522.5" y="292.1" class="st20" width="7.2" height="7.2"/>
		<rect x="1573.2" y="309.6" class="st20" width="7.2" height="7.2"/>
		<rect x="1588.5" y="301.9" class="st20" width="7.2" height="7.2"/>
		<rect x="1596.8" y="283.7" class="st20" width="7.2" height="7.2"/>
		<rect x="1534.1" y="253.8" class="st20" width="7.2" height="7.2"/>
		<rect x="1493.8" y="243.6" class="st20" width="7.2" height="7.2"/>
		<rect x="1491.8" y="225.2" class="st20" width="7.2" height="7.2"/>
		<rect x="1520.9" y="235.4" class="st20" width="7.2" height="7.2"/>
		<rect x="1456" y="176.1" class="st20" width="7.2" height="7.2"/>
		<rect x="1469.5" y="188.8" class="st20" width="7.2" height="7.2"/>
		<rect x="1539.5" y="292.6" class="st20" width="7.2" height="7.2"/>
		<rect x="1513.4" y="211.8" class="st20" width="7.2" height="7.2"/>
		<rect x="1559" y="238.3" class="st20" width="7.2" height="7.2"/>
		<path class="st20" d="M1490.6,353.3c0-0.8,0.7-1.5,1.5-1.5l0,0c0.8,0,1.5,0.7,1.5,1.5l0,0c0,0.8-0.7,1.5-1.5,1.5l0,0
			C1491.3,354.8,1490.6,354.2,1490.6,353.3z M1490.6,347.3c0-0.8,0.7-1.5,1.5-1.5l0,0c0.8,0,1.5,0.7,1.5,1.5l0,0
			c0,0.8-0.7,1.5-1.5,1.5l0,0C1491.3,348.8,1490.6,348.2,1490.6,347.3z M1490.6,341.3c0-0.8,0.7-1.5,1.5-1.5l0,0
			c0.8,0,1.5,0.7,1.5,1.5l0,0c0,0.8-0.7,1.5-1.5,1.5l0,0C1491.3,342.8,1490.6,342.2,1490.6,341.3z M1490.6,335.3
			c0-0.8,0.7-1.5,1.5-1.5l0,0c0.8,0,1.5,0.7,1.5,1.5l0,0c0,0.8-0.7,1.5-1.5,1.5l0,0C1491.3,336.8,1490.6,336.2,1490.6,335.3z
			 M1490.6,329.3c0-0.8,0.7-1.5,1.5-1.5l0,0c0.8,0,1.5,0.7,1.5,1.5l0,0c0,0.8-0.7,1.5-1.5,1.5l0,0
			C1491.3,330.8,1490.6,330.2,1490.6,329.3z M1490.6,323.3c0-0.8,0.7-1.5,1.5-1.5l0,0c0.8,0,1.5,0.7,1.5,1.5l0,0
			c0,0.8-0.7,1.5-1.5,1.5l0,0C1491.3,324.8,1490.6,324.2,1490.6,323.3z M1490.6,317.3c0-0.8,0.7-1.5,1.5-1.5l0,0
			c0.8,0,1.5,0.7,1.5,1.5l0,0c0,0.8-0.7,1.5-1.5,1.5l0,0C1491.3,318.8,1490.6,318.2,1490.6,317.3z M1490.6,311.3
			c0-0.8,0.7-1.5,1.5-1.5l0,0c0.8,0,1.5,0.7,1.5,1.5l0,0c0,0.8-0.7,1.5-1.5,1.5l0,0C1491.3,312.8,1490.6,312.2,1490.6,311.3z
			 M1490.6,305.3c0-0.8,0.7-1.5,1.5-1.5l0,0c0.8,0,1.5,0.7,1.5,1.5l0,0c0,0.8-0.7,1.5-1.5,1.5l0,0
			C1491.3,306.8,1490.6,306.2,1490.6,305.3z M1490.6,299.3c0-0.8,0.7-1.5,1.5-1.5l0,0c0.8,0,1.5,0.7,1.5,1.5l0,0
			c0,0.8-0.7,1.5-1.5,1.5l0,0C1491.3,300.8,1490.6,300.2,1490.6,299.3z M1490.6,293.3c0-0.8,0.7-1.5,1.5-1.5l0,0
			c0.8,0,1.5,0.7,1.5,1.5l0,0c0,0.8-0.7,1.5-1.5,1.5l0,0C1491.3,294.8,1490.6,294.2,1490.6,293.3z M1490.6,287.3
			c0-0.8,0.7-1.5,1.5-1.5l0,0c0.8,0,1.5,0.7,1.5,1.5l0,0c0,0.8-0.7,1.5-1.5,1.5l0,0C1491.3,288.8,1490.6,288.2,1490.6,287.3z
			 M1490,282c0-0.8,0.7-1.5,1.5-1.5l0,0c0.8,0,1.5,0.7,1.5,1.5l0,0c0,0.8-0.7,1.5-1.5,1.5l0,0C1490.7,283.5,1490,282.8,1490,282z
			 M1490.4,282c0-0.8,0.7-1.5,1.5-1.5l0,0c0.8,0,1.5,0.7,1.5,1.5l0,0c0,0.8-0.7,1.5-1.5,1.5l0,0C1491,283.5,1490.4,282.8,1490.4,282
			z M1484.4,282c0-0.8,0.7-1.5,1.5-1.5l0,0c0.8,0,1.5,0.7,1.5,1.5l0,0c0,0.8-0.7,1.5-1.5,1.5l0,0
			C1485,283.5,1484.4,282.8,1484.4,282z M1478.4,282c0-0.8,0.7-1.5,1.5-1.5l0,0c0.8,0,1.5,0.7,1.5,1.5l0,0c0,0.8-0.7,1.5-1.5,1.5
			l0,0C1479,283.5,1478.4,282.8,1478.4,282z M1472.4,282c0-0.8,0.7-1.5,1.5-1.5l0,0c0.8,0,1.5,0.7,1.5,1.5l0,0
			c0,0.8-0.7,1.5-1.5,1.5l0,0C1473,283.5,1472.4,282.8,1472.4,282z M1466.4,282c0-0.8,0.7-1.5,1.5-1.5l0,0c0.8,0,1.5,0.7,1.5,1.5
			l0,0c0,0.8-0.7,1.5-1.5,1.5l0,0C1467,283.5,1466.4,282.8,1466.4,282z M1460.4,282c0-0.8,0.7-1.5,1.5-1.5l0,0
			c0.8,0,1.5,0.7,1.5,1.5l0,0c0,0.8-0.7,1.5-1.5,1.5l0,0C1461,283.5,1460.4,282.8,1460.4,282z M1454.4,282c0-0.8,0.7-1.5,1.5-1.5
			l0,0c0.8,0,1.5,0.7,1.5,1.5l0,0c0,0.8-0.7,1.5-1.5,1.5l0,0C1455,283.5,1454.4,282.8,1454.4,282z M1448.4,282
			c0-0.8,0.7-1.5,1.5-1.5l0,0c0.8,0,1.5,0.7,1.5,1.5l0,0c0,0.8-0.7,1.5-1.5,1.5l0,0C1449,283.5,1448.4,282.8,1448.4,282z
			 M1442.4,282c0-0.8,0.7-1.5,1.5-1.5l0,0c0.8,0,1.5,0.7,1.5,1.5l0,0c0,0.8-0.7,1.5-1.5,1.5l0,0C1443,283.5,1442.4,282.8,1442.4,282
			z M1436.4,282c0-0.8,0.7-1.5,1.5-1.5l0,0c0.8,0,1.5,0.7,1.5,1.5l0,0c0,0.8-0.7,1.5-1.5,1.5l0,0
			C1437,283.5,1436.4,282.8,1436.4,282z M1430.4,282c0-0.8,0.7-1.5,1.5-1.5l0,0c0.8,0,1.5,0.7,1.5,1.5l0,0c0,0.8-0.7,1.5-1.5,1.5
			l0,0C1431,283.5,1430.4,282.8,1430.4,282z M1424.4,282c0-0.8,0.7-1.5,1.5-1.5l0,0c0.8,0,1.5,0.7,1.5,1.5l0,0
			c0,0.8-0.7,1.5-1.5,1.5l0,0C1425,283.5,1424.4,282.8,1424.4,282z"/>
		<rect x="1488.2" y="278.4" class="st21" width="7.2" height="7.2"/>
		<path class="st20" d="M1515.2,353.3c0-0.8,0.7-1.5,1.5-1.5l0,0c0.8,0,1.5,0.7,1.5,1.5l0,0c0,0.8-0.7,1.5-1.5,1.5l0,0
			C1515.9,354.8,1515.2,354.2,1515.2,353.3z M1515.2,347.3c0-0.8,0.7-1.5,1.5-1.5l0,0c0.8,0,1.5,0.7,1.5,1.5l0,0
			c0,0.8-0.7,1.5-1.5,1.5l0,0C1515.9,348.8,1515.2,348.2,1515.2,347.3z M1515.2,341.3c0-0.8,0.7-1.5,1.5-1.5l0,0
			c0.8,0,1.5,0.7,1.5,1.5l0,0c0,0.8-0.7,1.5-1.5,1.5l0,0C1515.9,342.8,1515.2,342.2,1515.2,341.3z M1515.2,335.3
			c0-0.8,0.7-1.5,1.5-1.5l0,0c0.8,0,1.5,0.7,1.5,1.5l0,0c0,0.8-0.7,1.5-1.5,1.5l0,0C1515.9,336.8,1515.2,336.2,1515.2,335.3z
			 M1515.2,329.3c0-0.8,0.7-1.5,1.5-1.5l0,0c0.8,0,1.5,0.7,1.5,1.5l0,0c0,0.8-0.7,1.5-1.5,1.5l0,0
			C1515.9,330.8,1515.2,330.2,1515.2,329.3z M1515.2,323.3c0-0.8,0.7-1.5,1.5-1.5l0,0c0.8,0,1.5,0.7,1.5,1.5l0,0
			c0,0.8-0.7,1.5-1.5,1.5l0,0C1515.9,324.8,1515.2,324.2,1515.2,323.3z M1515.2,317.3c0-0.8,0.7-1.5,1.5-1.5l0,0
			c0.8,0,1.5,0.7,1.5,1.5l0,0c0,0.8-0.7,1.5-1.5,1.5l0,0C1515.9,318.8,1515.2,318.2,1515.2,317.3z M1515.2,311.3
			c0-0.8,0.7-1.5,1.5-1.5l0,0c0.8,0,1.5,0.7,1.5,1.5l0,0c0,0.8-0.7,1.5-1.5,1.5l0,0C1515.9,312.8,1515.2,312.2,1515.2,311.3z
			 M1513.6,307c0-0.8,0.7-1.5,1.5-1.5l0,0c0.8,0,1.5,0.7,1.5,1.5l0,0c0,0.8-0.7,1.5-1.5,1.5l0,0
			C1514.3,308.5,1513.6,307.8,1513.6,307L1513.6,307L1513.6,307z M1507.6,307c0-0.8,0.7-1.5,1.5-1.5l0,0c0.8,0,1.5,0.7,1.5,1.5l0,0
			c0,0.8-0.7,1.5-1.5,1.5l0,0C1508.3,308.5,1507.6,307.8,1507.6,307L1507.6,307L1507.6,307z M1501.6,307c0-0.8,0.7-1.5,1.5-1.5l0,0
			c0.8,0,1.5,0.7,1.5,1.5l0,0c0,0.8-0.7,1.5-1.5,1.5l0,0C1502.3,308.5,1501.6,307.8,1501.6,307L1501.6,307L1501.6,307z M1495.6,307
			c0-0.8,0.7-1.5,1.5-1.5l0,0c0.8,0,1.5,0.7,1.5,1.5l0,0c0,0.8-0.7,1.5-1.5,1.5l0,0C1496.3,308.5,1495.6,307.8,1495.6,307
			L1495.6,307L1495.6,307z M1489.6,307c0-0.8,0.7-1.5,1.5-1.5l0,0c0.8,0,1.5,0.7,1.5,1.5l0,0c0,0.8-0.7,1.5-1.5,1.5l0,0
			C1490.3,308.5,1489.6,307.8,1489.6,307L1489.6,307L1489.6,307z M1483.6,307c0-0.8,0.7-1.5,1.5-1.5l0,0c0.8,0,1.5,0.7,1.5,1.5l0,0
			c0,0.8-0.7,1.5-1.5,1.5l0,0C1484.3,308.5,1483.6,307.8,1483.6,307L1483.6,307L1483.6,307z M1477.6,307c0-0.8,0.7-1.5,1.5-1.5l0,0
			c0.8,0,1.5,0.7,1.5,1.5l0,0c0,0.8-0.7,1.5-1.5,1.5l0,0C1478.3,308.5,1477.6,307.8,1477.6,307L1477.6,307L1477.6,307z M1471.6,307
			c0-0.8,0.7-1.5,1.5-1.5l0,0c0.8,0,1.5,0.7,1.5,1.5l0,0c0,0.8-0.7,1.5-1.5,1.5l0,0C1472.3,308.5,1471.6,307.8,1471.6,307
			L1471.6,307L1471.6,307z M1465.6,307c0-0.8,0.7-1.5,1.5-1.5l0,0c0.8,0,1.5,0.7,1.5,1.5l0,0c0,0.8-0.7,1.5-1.5,1.5l0,0
			C1466.3,308.5,1465.6,307.8,1465.6,307L1465.6,307L1465.6,307z M1459.6,307c0-0.8,0.7-1.5,1.5-1.5l0,0c0.8,0,1.5,0.7,1.5,1.5l0,0
			c0,0.8-0.7,1.5-1.5,1.5l0,0C1460.3,308.5,1459.6,307.8,1459.6,307L1459.6,307L1459.6,307z M1453.6,307c0-0.8,0.7-1.5,1.5-1.5l0,0
			c0.8,0,1.5,0.7,1.5,1.5l0,0c0,0.8-0.7,1.5-1.5,1.5l0,0C1454.3,308.5,1453.6,307.8,1453.6,307L1453.6,307L1453.6,307z M1447.6,307
			c0-0.8,0.7-1.5,1.5-1.5l0,0c0.8,0,1.5,0.7,1.5,1.5l0,0c0,0.8-0.7,1.5-1.5,1.5l0,0C1448.3,308.5,1447.6,307.8,1447.6,307
			L1447.6,307L1447.6,307z M1441.6,307c0-0.8,0.7-1.5,1.5-1.5l0,0c0.8,0,1.5,0.7,1.5,1.5l0,0c0,0.8-0.7,1.5-1.5,1.5l0,0
			C1442.3,308.5,1441.6,307.8,1441.6,307L1441.6,307L1441.6,307z M1435.6,307c0-0.8,0.7-1.5,1.5-1.5l0,0c0.8,0,1.5,0.7,1.5,1.5l0,0
			c0,0.8-0.7,1.5-1.5,1.5l0,0C1436.3,308.5,1435.6,307.8,1435.6,307L1435.6,307L1435.6,307z M1429.6,307c0-0.8,0.7-1.5,1.5-1.5l0,0
			c0.8,0,1.5,0.7,1.5,1.5l0,0c0,0.8-0.7,1.5-1.5,1.5l0,0C1430.3,308.5,1429.6,307.8,1429.6,307L1429.6,307L1429.6,307z M1423.6,307
			c0-0.8,0.7-1.5,1.5-1.5l0,0c0.8,0,1.5,0.7,1.5,1.5l0,0c0,0.8-0.7,1.5-1.5,1.5l0,0C1424.3,308.5,1423.6,307.8,1423.6,307
			L1423.6,307L1423.6,307z"/>
		<rect x="1513.1" y="303.3" class="st21" width="7.2" height="7.2"/>
		<path class="st22" d="M1445.5,591.1l5.8,25.1l4.4,1.2l1-7.9l10.5,15.3c4.3-3.2,6.6-8.3,6.2-13.7c-0.7-9.1-8.1-19.7-20-29.8"/>
		<path class="st1" d="M1467.2,625.4c-0.2,0-0.4-0.1-0.5-0.3l-9.5-13.9l-0.8,6.2c0,0.3-0.4,0.6-0.7,0.6h-0.1l-4.4-1.2
			c-0.2-0.1-0.4-0.2-0.5-0.5l-5.8-25.1l1.2-0.3l5.7,24.7l3.3,0.9l0.9-7.2c0-0.3,0.4-0.6,0.7-0.6c0.2,0,0.3,0.1,0.4,0.3l10.1,14.7
			c3.8-3.1,5.8-7.8,5.5-12.7c-0.7-8.7-7.7-19.1-19.8-29.4l0.8-1c12.3,10.5,19.5,21.2,20.2,30.2c0.5,5.6-2,11-6.5,14.3
			C1467.4,625.4,1467.3,625.4,1467.2,625.4z"/>
		<path class="st23" d="M1331.6,485.4c15,8.5,29.3,18.2,42.8,29c28.5,22.9,65.5,80.7,65.5,80.7l18.2-11c3.9-2.3-25.8-54-29.1-59.2
			c-12.7-19.9-27.4-38.5-43.7-55.6c-31.5-33.2-70.9-68.8-118.5-73.5"/>
		<path class="st1" d="M1439.7,595.9l-0.3-0.5c-0.4-0.6-37.2-58-65.3-80.6c-13.4-10.8-27.7-20.4-42.7-28.9l0.6-1.1
			c15.1,8.5,29.4,18.2,42.9,29c26.9,21.6,61.5,74.5,65.3,80.4c3-1.8,17.6-10.6,17.7-10.7c0.2-0.3,0.8-3.4-12.4-28.3
			c-7.2-13.5-15.2-27.3-16.9-30c-12.7-19.9-27.3-38.5-43.6-55.5c-31.9-33.6-70.8-68.6-118.1-73.3l0.1-1.3
			c47.7,4.7,86.9,39.9,118.9,73.7c16.4,17.1,31,35.8,43.8,55.7c1.6,2.5,9.4,15.9,16.4,29.1c14,26.2,13.3,29.1,13.1,30.1
			c-0.1,0.4-0.3,0.7-0.6,0.9l0,0c-0.5,0.3-3.2,1.9-18.2,11L1439.7,595.9z"/>
		<path class="st22" d="M1042.2,371.2l-16.7-19.6l-4.5,1l2.8,7.5l-16.3-8.8c-2.4,4.8-2.1,10.5,0.7,15c4.8,7.8,16.2,13.8,31.4,17.3"
			/>
		<path class="st1" d="M1039.5,384.2c-15.8-3.7-27.1-9.9-31.8-17.6c-3-4.7-3.2-10.7-0.7-15.7c0.2-0.3,0.5-0.4,0.9-0.2l14.9,8
			l-2.2-5.9c-0.1-0.3,0-0.7,0.4-0.8h0.1l4.5-1c0.2-0.1,0.5,0,0.6,0.2l16.7,19.6l-1,0.8l-16.4-19.4l-3.4,0.7l2.5,6.8
			c0.1,0.3,0,0.7-0.4,0.8c-0.2,0.1-0.4,0.1-0.5,0L1008,352c-1.9,4.5-1.6,9.6,1,13.8c4.6,7.4,15.6,13.5,31,17L1039.5,384.2z"/>
		<polygon class="st22" points="1556.5,953.6 1545.4,944 1527,962.1 1534.4,968.9 1546.7,973 1560.4,967.3 1560.4,957 		"/>
		<path class="st1" d="M1546.7,973.6c-0.1,0-0.1,0-0.2,0l-12.4-4c-0.1,0-0.2-0.1-0.2-0.1l-7.3-6.8c-0.1-0.1-0.2-0.3-0.2-0.5
			s0.1-0.3,0.2-0.5l18.4-18.1c0.2-0.2,0.6-0.2,0.9,0l14.9,13c0.1,0.1,0.2,0.3,0.2,0.5v10.3c0,0.3-0.2,0.5-0.4,0.6l-13.7,5.6
			C1546.9,973.6,1546.8,973.6,1546.7,973.6z M1534.7,968.4l12,3.9l13-5.4v-9.6l-14.3-12.4l-17.5,17.3L1534.7,968.4z"/>
		<path class="st24" d="M1311.6,685.1c0,0,41.5,84.1,59.6,110.4S1527,962.1,1527,962.1l41-41.1c0,0-10.1-24.4-37-58.9
			c-24.8-31.9-68.7-70.5-85.6-85.9c-24.6-22.4-56.1-147.2-56.1-147.2s-7-23.4-11-37.7s-20-9.7-22.1-9l-114.4,37"/>
		<path class="st1" d="M1527,963l-0.4-0.5c-1.4-1.4-138-140.7-155.9-166.7s-59.2-109.6-59.6-110.5l1.1-0.6
			c0.4,0.8,41.7,84.4,59.5,110.3c17.4,25.2,146.7,157.2,155.3,166.1l40.2-40.4c-1.4-3.3-12-26.7-36.7-58.4
			c-22.4-28.8-59.9-62.6-80-80.8c-2.1-1.9-4-3.6-5.6-5c-24.5-22.3-55-142.4-56.3-147.5c-0.1-0.2-7.1-23.5-11-37.7
			c-0.8-3.5-3-6.4-6.1-8.1c-6.1-3.3-14.3-0.7-15.2-0.4l-114.4,37l-0.4-1.2l114.4-37c1-0.3,9.6-3,16.2,0.5c3.4,1.9,5.8,5.1,6.7,8.9
			c3.9,14.1,10.9,37.5,11,37.7c0.3,1.3,31.7,124.9,55.9,146.9c1.6,1.5,3.5,3.2,5.6,5c20.1,18.2,57.6,52,80.1,80.9
			c26.6,34.2,36.9,58.8,37,59.1l0.2,0.4l-0.3,0.3L1527,963z"/>
		<path class="st22" d="M1260.3,371.4l12,25.9c0,0,3.6,0.2-0.9,4.4c-8.7,8-30.7,5.6-30.7,5.6c3.2-5,5.1-10.8,5.5-16.7
			c0.5-9.5-4-13.3-7.3-16.5"/>
		<path class="st1" d="M1248,408.3c-4.1,0-7.1-0.3-7.5-0.3c-0.3,0-0.6-0.4-0.6-0.7c0-0.1,0-0.2,0.1-0.3c3.1-4.9,5-10.6,5.4-16.4
			c0.4-8.7-3.4-12.5-6.5-15.5l-0.6-0.5l0.9-0.9l0.6,0.5c3.3,3.2,7.4,7.2,6.9,16.5c-0.4,5.7-2.1,11.2-5,16.2
			c4.4,0.3,21.8,1.2,29.2-5.6c2.2-2,2.1-2.8,2.1-2.9c-0.1-0.2-0.6-0.4-0.8-0.4c-0.2,0-0.4-0.2-0.5-0.4l-12-25.9l1.2-0.5l11.8,25.6
			c0.7,0.1,1.2,0.5,1.5,1.2c0.4,1.1-0.4,2.4-2.4,4.3C1266.1,407.4,1255.3,408.3,1248,408.3z"/>
		<path class="st1" d="M1534.4,968.9l-11.1,37.1l-16.4,10.2v7h30.5l39.4-52l-18.9-16.5c0,0,4.2,11.4-11.7,14.1L1534.4,968.9z"/>
		<path class="st1" d="M1537.5,1023.6h-31.1v-7.7l16.5-10.3l11.1-37.2h12c5.3-0.9,8.9-2.9,10.7-5.9c1.3-2.3,1.5-5.1,0.7-7.6
			l-0.6-1.5l20.5,17.8L1537.5,1023.6z M1507.3,1022.8h29.8l39-51.5l-17.6-15.3c0.5,2.4,0.1,4.9-1.1,7c-1.9,3.3-5.7,5.4-11.3,6.3
			h-11.5l-11,36.9l-0.1,0.1l-16.2,10.1L1507.3,1022.8z"/>
		<path class="st22" d="M1258.8,378.4c10.6-2.7,17.1-13.4,14.4-24.1c-2.7-10.6-13.4-17.1-24.1-14.4c-5.9,1.5-10.8,5.6-13.3,11.2
			c-3.2,7.1,14.2,27.6,14.4,27.6"/>
		<path class="st1" d="M1250.1,379.3c-0.7-0.1-7.9-9.3-11.6-15.9c-3.3-5.8-4.4-10-3.2-12.6c4.6-10.3,16.7-15,27-10.4
			s15,16.7,10.4,27c-2.6,5.8-7.6,10.1-13.8,11.6l-0.3-1.2c10.3-2.6,16.5-13,14-23.3s-13-16.5-23.3-14c-5.7,1.4-10.5,5.4-12.9,10.9
			c-2.9,6.5,13,25.7,14.2,26.9l-0.4,0.4L1250.1,379.3z"/>
		<polygon class="st5" points="1570,965.4 1531.7,1017.1 1507.6,1017.1 1507.6,1023.2 1537.3,1023.2 1576.7,971.3 		"/>
		<path class="st1" d="M1537.7,1023.9H1507v-7.3h24.4l38.5-52l7.7,6.7L1537.7,1023.9z M1508.3,1022.6h28.8l38.8-51.2l-5.8-5
			l-38.1,51.4h-23.8L1508.3,1022.6L1508.3,1022.6z"/>
		<polygon class="st22" points="1309.5,995.4 1303.5,976.8 1328.4,976.8 1335.7,997.3 1330.1,1005.5 1314.8,1005.5 1307.4,995.9 		
			"/>
		<path class="st1" d="M1330.1,1006.1h-15.3c-0.2,0-0.4-0.1-0.5-0.2l-7.4-9.6c-0.2-0.3-0.2-0.7,0.1-0.9c0.1-0.1,0.1-0.1,0.2-0.1
			l1.5-0.4l-5.8-17.9c-0.1-0.3,0.1-0.7,0.4-0.8c0.1,0,0.1,0,0.2,0h24.9c0.3,0,0.5,0.2,0.6,0.4l7.3,20.5c0.1,0.2,0,0.4-0.1,0.6
			l-5.6,8.2C1330.5,1006,1330.3,1006.1,1330.1,1006.1z M1315.1,1004.9h14.7l5.2-7.7l-7-19.7h-23.6l5.7,17.7c0.1,0.3-0.1,0.7-0.4,0.8
			l0,0l-1.2,0.3L1315.1,1004.9z"/>
		<path class="st1" d="M1309.5,995.4c0,0-41.1,9.3-52.6,12.5s-9.7,8.9-9.7,8.9v6.7h96.4v-8l-7.4-20.1c0,0-4,6.4-14.2,6.4
			S1309.5,995.4,1309.5,995.4z"/>
		<path class="st1" d="M1343.6,1024h-96.4c-0.2,0-0.4-0.2-0.4-0.4v-6.7c-0.2-1.2,0-2.5,0.6-3.6c1.4-2.5,4.5-4.5,9.4-5.8
			c11.4-3.2,52.2-12.4,52.6-12.5c0.2-0.1,0.4,0.1,0.5,0.3c0.1,0.3,2.3,6.2,12.1,6.2c9.9,0,13.8-6.1,13.9-6.2
			c0.1-0.1,0.2-0.2,0.4-0.2c0.2,0,0.3,0.1,0.4,0.3l7.4,20.1v0.1v8C1344,1023.8,1343.8,1024,1343.6,1024z M1247.6,1023.1h95.5v-7.5
			l-7.1-19.3c-1.3,1.7-5.6,5.9-14.1,5.9c-9.2,0-12.1-5-12.8-6.4c-4,0.9-41.4,9.4-52.2,12.4c-5.7,1.6-8,3.8-8.9,5.4
			c-0.6,0.9-0.7,2-0.5,3v0.1L1247.6,1023.1z"/>
		<rect x="1247.2" y="1015.6" class="st5" width="96.4" height="8"/>
		<path class="st1" d="M1344.2,1024.2h-97.6v-9.3h97.6V1024.2z M1247.9,1022.9h95.1v-6.7h-95.1V1022.9z"/>
		<polygon class="st1" points="1328.4,976.8 1306,983.9 1303.5,976.8 		"/>
		<path class="st1" d="M1305.7,984.4l-2.9-8.1h28.2L1305.7,984.4z M1304.1,977.2l2.2,6.2l19.4-6.2H1304.1z"/>
		<polygon class="st1" points="1545.4,944 1532,965.4 1527,962.1 		"/>
		<path class="st1" d="M1532.1,966l-5.8-3.8l21.3-21L1532.1,966z M1527.7,962.1l4.2,2.8l11.3-18L1527.7,962.1z"/>
		<path class="st1" d="M1242.9,379.5c-22.8-4-28.3-36.1-8.1-47.6c8.9-4.8,19.1-6.8,29.2-5.6c11.6,1.4-9.9,17.9-6.9,23.9
			C1266.4,368.7,1256.2,381.8,1242.9,379.5z"/>
		<path class="st23" d="M1296.6,403.5c-17.8-8.3-32.4-8.4-40.7-7.7c-18.4,1.5-28,5.4-48.8,9.9c-27,5.8-54.9,6.2-82,1.2
			c-32-6.2-82.5-36.9-82.5-36.9l-12.2,15.3c0,0,32.8,45.3,111,63.8c26.9,6.4,73.2,10,73.2,10l8.2,147.5l140.3-13.7l15.2-1.5
			l-55.3-128"/>
		<path class="st1" d="M1222.2,607.2l-8.2-147.6c-5.3-0.4-47.7-4.1-72.7-10c-77.6-18.3-111.1-63.6-111.4-64l-0.3-0.4l12.8-16.2
			l0.5,0.3c0.5,0.3,50.8,30.8,82.3,36.8c27.1,5.1,54.9,4.7,81.8-1.2c6.8-1.5,12.4-2.9,17.5-4.1c10.6-2.7,19-4.8,31.4-5.8
			c14.1-1.1,28.2,1.6,41,7.8l-0.5,1.1c-12.5-6.1-26.4-8.7-40.3-7.6c-12.3,1-20.7,3.1-31.2,5.8c-5,1.3-10.7,2.7-17.5,4.2
			c-27.1,5.9-55,6.3-82.3,1.2c-30.1-5.8-77-33.6-82.3-36.7l-11.5,14.5c3.4,4.4,37.1,45.8,110.4,63.1c26.5,6.3,72.6,10,73.1,10h0.6
			l8.2,147.4l153.9-15.1l-54.9-127.1l1.2-0.5l55.6,128.6l-16,1.6L1222.2,607.2z"/>
		<path class="st24" d="M1296.6,599.3l-63,6.2c0,0,3.1,67.2,8.7,139.5s61.3,231.8,61.3,231.8h58.5c0,0,7.5-37.9-5.5-84.5
			s-32.3-84.1-32.3-156.4c0.2-22.6,2.6-45.2,7.2-67.4l20.2-16.6"/>
		<path class="st1" d="M1362.6,977.4h-59.5l-0.1-0.4c-0.1-0.4-14.1-40.5-28.6-88.8c-13.3-44.7-29.9-105.8-32.7-143.1
			c-5.5-71.5-8.7-138.9-8.7-139.5V605l63.6-6.2l0.1,1.3l-62.4,6.1c0.3,6.9,3.5,71,8.7,138.9c2.9,37.3,19.4,98.3,32.7,142.9
			c13.7,45.7,26.9,83.9,28.4,88.4h57.5c0.8-4.7,6.4-40.7-5.6-83.7c-3-10.8-6.4-21.3-9.7-31.5c-11.1-34.1-22.5-69.4-22.5-125
			c0-34.9,7.2-67.2,7.2-67.5v-0.2l0.2-0.1l20.2-16.6l0.8,1l-20,16.4c-0.6,2.8-7.2,33.7-7.2,67c0,55.4,11.4,90.6,22.5,124.7
			c3.3,10.2,6.7,20.7,9.7,31.5c12.9,46.2,5.6,84.4,5.5,84.8L1362.6,977.4z"/>
		<polygon class="st1" points="1352.7,593.8 1234.5,622.3 1233.6,605.5 		"/>
		<rect x="1405.1" y="1022.9" class="st1" width="20.6" height="1.2"/>
		<line class="st25" x1="1425.7" y1="1023.5" x2="1405.1" y2="1023.5"/>
		<rect x="1251" y="1022.9" class="st1" width="131.9" height="1.2"/>
		<line class="st25" x1="1382.8" y1="1023.5" x2="1251" y2="1023.5"/>
		<rect x="1500.8" y="1022.9" class="st1" width="99.9" height="1.2"/>
		<line class="st25" x1="1600.8" y1="1023.5" x2="1500.8" y2="1023.5"/>
		<polygon class="st1" points="1325.3,712.4 1327.7,690.8 1351.9,763 		"/>
		<polygon class="st5" points="1371.8,154.5 1370.1,154.5 1370.1,111.4 1413.1,111.4 1413.1,113.2 1371.8,113.2 		"/>
		<polygon class="st5" points="1808.2,154.5 1806.5,154.5 1806.5,113.2 1765.2,113.2 1765.2,111.4 1808.2,111.4 		"/>
		<polygon class="st5" points="1808.2,401.2 1765.2,401.2 1765.2,399.5 1806.5,399.5 1806.5,358.2 1808.2,358.2 		"/>
		<polygon class="st5" points="1413.1,401.2 1370.1,401.2 1370.1,358.2 1371.8,358.2 1371.8,399.5 1413.1,399.5 		"/>
	</g>
</g>
</svg>
