<?xml version="1.0" encoding="utf-8"?>
<!-- Generator: Adobe Illustrator 24.2.3, SVG Export Plug-In . SVG Version: 6.00 Build 0)  -->
<svg version="1.1" id="Ebene_1" xmlns="http://www.w3.org/2000/svg" xmlns:xlink="http://www.w3.org/1999/xlink" x="0px" y="0px"
	 viewBox="0 0 1920 1080" style="enable-background:new 0 0 1920 1080;" xml:space="preserve">
<style type="text/css">
	.st0{fill:#3A2A78;}
	.st1{opacity:0.39;fill:url(#SVGID_1_);}
	.st2{fill:#1A9669;}
	.st3{fill:#A080AB;}
	.st4{opacity:0.4;fill:#6DB9CE;enable-background:new    ;}
	.st5{fill:#6DB9CE;}
	.st6{fill:#A280AD;}
	.st7{opacity:0.4;fill:#1A9869;enable-background:new    ;}
	.st8{fill:#1A9869;}
	.st9{clip-path:url(#SVGID_3_);}
	.st10{fill:#3A2B78;}
	.st11{clip-path:url(#SVGID_5_);}
	.st12{clip-path:url(#SVGID_7_);}
	.st13{clip-path:url(#SVGID_9_);}
	.st14{clip-path:url(#SVGID_11_);}
	.st15{clip-path:url(#SVGID_13_);}
	.st16{clip-path:url(#SVGID_15_);}
	.st17{clip-path:url(#SVGID_17_);}
	.st18{clip-path:url(#SVGID_19_);}
	.st19{fill:#D6D200;}
	.st20{fill:#E78600;}
	.st21{fill:#D5737E;}
	.st22{fill:#4E649A;}
</style>
<path class="st0" d="M0,0h1920.1v1080H0V0z"/>
<linearGradient id="SVGID_1_" gradientUnits="userSpaceOnUse" x1="1913.8907" y1="1090.708" x2="6.1823" y2="-10.708" gradientTransform="matrix(1 0 0 -1 0 1080)">
	<stop  offset="0.4015" style="stop-color:#3A2A78"/>
	<stop  offset="1" style="stop-color:#000000"/>
</linearGradient>
<path class="st1" d="M0,0h1920.1v1080H0V0z"/>
<path class="st2" d="M1571.1,312.5l-134.2-46.7L1297.3,229L1178,269.8l41.4-126.3l8.1-6.3l28.3-58.8l86.6,25.8l31.1-58.7l2.7,1.4
	l-32.2,60.9L1257.5,82l-27.5,57.1l-8,6.2L1182.8,265l114.4-39.1l0.4,0.1l140.2,37l134.3,46.7L1571.1,312.5z"/>
<path class="st2" d="M1542,68.4l2.7-1.3l51.1,107.3l-2.7,1.3L1542,68.4z"/>
<path class="st2" d="M1569.2,315.6l25.2-130.7l2.9,0.6L1574,306.6l101.3-100.7l2.1,2.1L1569.2,315.6z"/>
<path class="st2" d="M1437.1,266.8l-48.1-70.4l-94.3,33.7l46-121.6l-117.3,36.7l72.2,78.6l-2.2,2l-75.4-82.1l127.7-40L1299.8,225
	l90.3-32.3l47.4,69.4l99.2-95l2.1,2.2L1437.1,266.8z"/>
<circle class="st2" cx="1543.3" cy="67.8" r="9.9"/>
<circle class="st2" cx="1485.9" cy="67.8" r="9.9"/>
<circle class="st2" cx="1686.3" cy="80.2" r="9.9"/>
<circle class="st2" cx="1379.7" cy="40.3" r="9.9"/>
<circle class="st2" cx="1537.8" cy="168.2" r="9.9"/>
<circle class="st2" cx="1595.9" cy="176.7" r="9.9"/>
<circle class="st2" cx="1571.1" cy="311.1" r="9.9"/>
<circle class="st2" cx="1389.6" cy="192.9" r="9.9"/>
<circle class="st2" cx="1437.4" cy="264.5" r="9.9"/>
<circle class="st2" cx="1294.6" cy="224.7" r="9.9"/>
<circle class="st2" cx="1180.4" cy="267.4" r="9.9"/>
<circle class="st2" cx="1222.8" cy="142.5" r="9.9"/>
<circle class="st2" cx="1256.7" cy="80.2" r="9.9"/>
<circle class="st2" cx="1343.2" cy="106" r="9.9"/>
<path class="st2" d="M1595.8,172.8l30.9-187l3,0.5l-30.9,187L1595.8,172.8z"/>
<circle class="st3" cx="1678.5" cy="204.4" r="9.9"/>
<path class="st2" d="M1293.1,224.9l3-0.4l6.6,45.4l-3,0.4L1293.1,224.9z"/>
<path class="st2" d="M1510.3,336.9l60.3-27.2l1.2,2.7l-60.3,27.2L1510.3,336.9z"/>
<path class="st2" d="M1580,882.4l57.4-91.8l2.5,1.6l-57.4,91.8L1580,882.4z"/>
<path class="st2" d="M1643.3,1042l-1.4-0.5l-77.6-28.1l-164.5,1.6l-0.3-0.1l-152.6-72.1l-0.2-0.2l-52.3-52.6l2.1-2.1l52.1,52.4
	l151.8,71.8l164.4-1.6l76.8,27.7l27.3-66.7l2.8,1.1L1643.3,1042z"/>
<path class="st2" d="M1500.4,942.7l-121.8-95.6l13.9-57.1l2.9,0.7l-13.4,55.2l115,90.4l-5.7-112.5l3-0.2L1500.4,942.7z"/>
<path class="st2" d="M1247.1,945.3L1218,818.5l2.9-0.7l27.6,120.1l52-76.1l4.9-5.9l-6.1-59.7l3-0.3l6.2,60.9l-5.7,6.9L1247.1,945.3z
	"/>
<path class="st2" d="M1408.6,1019.5l-29.7-172.8l3-0.5l28.8,167.6l88.2-76.4l64.7,71.2l16.6-128.6l93.9,95.3l-105.2,37l-1-2.8
	l100.8-35.4l-86.2-87.6l-16.6,129l-67.1-73.8L1408.6,1019.5z"/>
<circle class="st2" cx="1493.2" cy="824.2" r="9.9"/>
<circle class="st2" cx="1306.9" cy="856.4" r="9.9"/>
<circle class="st3" cx="1638.6" cy="791.4" r="9.9"/>
<circle class="st2" cx="1380.3" cy="846.5" r="9.9"/>
<circle class="st2" cx="1247.8" cy="941.6" r="9.9"/>
<circle class="st2" cx="1499.5" cy="938.1" r="9.9"/>
<circle class="st2" cx="1409.6" cy="1016.7" r="9.9"/>
<circle class="st2" cx="1564.6" cy="1012" r="9.9"/>
<circle class="st2" cx="1642.5" cy="1040.1" r="9.9"/>
<circle class="st2" cx="1581.3" cy="883.2" r="9.9"/>
<circle class="st2" cx="1320.6" cy="1030.2" r="9.9"/>
<circle class="st2" cx="1195.5" cy="889" r="9.9"/>
<circle class="st2" cx="1219.5" cy="818.2" r="9.9"/>
<path class="st2" d="M1306.7,854.9l73.4-9.9l0.4,3l-73.4,9.9L1306.7,854.9z"/>
<path class="st4" d="M1331.1,761.6c-126.6,0-229.2-102.6-229.2-229.1c0-126.6,102.6-229.2,229.1-229.2s229.2,102.6,229.2,229.1
	c0,106.5-73.4,199-177.2,223.2C1366.1,759.6,1348.6,761.6,1331.1,761.6z M1332,307.6c-17.3,0-34.5,2-51.3,5.9
	c-120.6,28.2-195.4,148.8-167.2,269.4s148.8,195.4,269.4,167.2c120.6-28.2,195.4-148.8,167.2-269.4
	C1526.4,379.3,1436.1,307.7,1332,307.6z"/>
<path class="st4" d="M1268,738c-45.3-14.1-84.6-42.8-111.9-81.5l2.5-1.7c26.9,38.2,65.7,66.5,110.4,80.4L1268,738z M1406.4,734.2
	l-1-2.8c43.9-16.2,81.1-46.5,105.7-86.3l2.5,1.6C1488.6,687,1450.9,717.8,1406.4,734.2L1406.4,734.2z M1542.4,573.2l-2.9-0.6
	c2.5-13,3.7-26.1,3.7-39.3c0-33.3-7.9-66.1-22.9-95.9l2.7-1.4c15.2,30.2,23.1,63.5,23.2,97.2C1546.1,546.7,1544.9,560,1542.4,573.2
	L1542.4,573.2z M1120.2,523.7l-3-0.1c1.6-36.9,12.8-72.7,32.3-104c5.4-8.7,11.5-17,18.1-24.9l2.3,1.9c-6.5,7.7-12.5,16-17.8,24.5
	C1132.8,452,1121.8,487.3,1120.2,523.7L1120.2,523.7z M1422.6,342.1c-28.3-13.6-59.4-20.6-90.8-20.6c-15.1,0-30.1,1.6-44.8,4.8
	l-0.6-2.9c14.9-3.2,30.2-4.8,45.4-4.9c31.9-0.1,63.3,7.1,92.1,20.9L1422.6,342.1z"/>
<path class="st4" d="M1321.9,734.9c-6.7-0.3-13.4-1-20-1.9l0.4-3c6.5,1,13.2,1.6,19.7,1.9L1321.9,734.9z M1342.1,734.9l-0.2-3
	c6.6-0.3,13.2-1,19.7-2l0.4,3C1355.5,733.9,1348.8,734.6,1342.1,734.9z M1282.1,729.1c-6.5-1.6-13-3.6-19.3-5.9l1-2.8
	c6.2,2.2,12.6,4.2,19,5.8L1282.1,729.1z M1381.8,728.9l-0.7-2.9c6.4-1.6,12.7-3.6,18.9-5.9l1,2.8
	C1394.7,725.2,1388.3,727.2,1381.8,728.9L1381.8,728.9z M1244.3,715.4c-6-2.9-12-6.1-17.7-9.6l1.6-2.6c5.6,3.4,11.5,6.6,17.4,9.5
	L1244.3,715.4z M1419.6,715.1l-1.3-2.7c5.9-2.9,11.8-6.1,17.4-9.5l1.6,2.6C1431.6,708.9,1425.6,712.1,1419.6,715.1L1419.6,715.1z
	 M1209.9,694.5c-5.3-4-10.5-8.4-15.5-12.9l2-2.2c4.8,4.5,10,8.8,15.2,12.7L1209.9,694.5z M1453.9,694l-1.8-2.4
	c5.2-4,10.3-8.3,15.2-12.8l2,2.2C1464.4,685.6,1459.2,689.9,1453.9,694L1453.9,694z M1180.4,667.2c-4.4-5-8.7-10.3-12.6-15.7
	l2.4-1.8c3.9,5.3,8,10.5,12.4,15.5L1180.4,667.2z M1483.3,666.6l-2.3-2c4.4-5,8.5-10.2,12.4-15.5l2.4,1.8
	C1491.9,656.3,1487.7,661.6,1483.3,666.6L1483.3,666.6z M1156.8,634.6c-3.4-5.8-6.5-11.8-9.2-17.9l2.7-1.2c2.7,6,5.8,11.9,9.1,17.6
	L1156.8,634.6z M1506.8,633.9l-2.6-1.5c3.3-5.7,6.3-11.7,9-17.7l2.7,1.2C1513.2,622.1,1510.1,628.1,1506.8,633.9L1506.8,633.9z
	 M1140.1,598c-2.1-6.3-4-12.8-5.5-19.4l2.9-0.7c1.5,6.4,3.3,12.8,5.4,19.1L1140.1,598z M1523.3,597.2l-2.8-1
	c2.1-6.2,3.9-12.7,5.3-19.1l2.9,0.7C1527.2,584.4,1525.4,590.9,1523.3,597.2L1523.3,597.2z M1131.1,558.8
	c-0.8-6.6-1.4-13.4-1.5-20.1l3-0.1c0.2,6.6,0.7,13.3,1.5,19.8L1131.1,558.8z M1532.1,558l-3-0.4c0.8-6.5,1.3-13.2,1.4-19.8l3,0.1
	C1533.4,544.6,1533,551.4,1532.1,558L1532.1,558z M1133,518.8l-3-0.2c0.5-6.7,1.3-13.4,2.4-20l3,0.5
	C1134.3,505.6,1133.5,512.2,1133,518.8L1133,518.8z M1530.1,518c-0.5-6.6-1.3-13.2-2.5-19.7l3-0.5c1.2,6.6,2,13.3,2.5,20L1530.1,518
	z M1139.7,479.8l-2.9-0.8c1.8-6.5,3.9-12.9,6.3-19.1l2.8,1.1C1143.6,467.1,1141.5,473.4,1139.7,479.8L1139.7,479.8z M1523.2,479
	c-1.8-6.3-3.9-12.7-6.3-18.8l2.8-1.1c2.5,6.3,4.6,12.6,6.4,19.1L1523.2,479z M1154.1,442.9l-2.7-1.4c3-6,6.4-11.8,10-17.5l2.5,1.6
	C1160.4,431.2,1157.1,437,1154.1,442.9L1154.1,442.9z M1508.7,442.1c-3-5.9-6.4-11.6-9.9-17.2l2.5-1.6c3.6,5.6,7,11.5,10.1,17.4
	L1508.7,442.1z M1175.5,409.5l-2.4-1.9c4.2-5.2,8.6-10.3,13.3-15.1l2.2,2.1C1184,399.3,1179.6,404.3,1175.5,409.5L1175.5,409.5z
	 M1487.2,408.9c-4.1-5.1-8.5-10.2-13.1-14.9l2.1-2.1c4.7,4.8,9.2,9.9,13.3,15.1L1487.2,408.9z M1203,381l-1.9-2.3
	c5.1-4.3,10.5-8.4,16-12.2l1.7,2.5C1213.4,372.7,1208.1,376.8,1203,381L1203,381z M1459.5,380.5c-5.1-4.2-10.4-8.3-15.8-12l1.7-2.5
	c5.5,3.8,10.9,7.9,16,12.2L1459.5,380.5z M1235.7,358.6l-1.4-2.6c5.9-3.2,12-6.2,18.1-8.8l1.2,2.8
	C1247.5,352.5,1241.5,355.4,1235.7,358.6z M1426.7,358.2c-5.8-3.2-11.8-6.1-17.9-8.6l1.2-2.8c6.2,2.6,12.3,5.5,18.1,8.7
	L1426.7,358.2z M1272.1,343l-0.9-2.9c6.4-2,12.9-3.7,19.5-5l0.6,2.9C1284.9,339.4,1278.4,341.1,1272.1,343z M1390.2,342.8
	c-6.3-1.9-12.7-3.6-19.2-4.9l0.6-2.9c6.6,1.3,13.1,3,19.5,5L1390.2,342.8z M1310.9,335.1l-0.3-3c6.6-0.7,13.4-1,20.1-1.1l0,3
	C1324.1,334,1317.5,334.4,1310.9,335.1L1310.9,335.1z M1351.4,335c-6.5-0.6-13.2-1-19.8-1v-3c6.7,0,13.5,0.3,20.1,1L1351.4,335z"/>
<path class="st5" d="M1331.1,798.4c-146.9,0-266-119.1-266-266s119.1-266,266-266s266,119.1,266,266c0,123.7-85.2,231-205.7,259.1
	C1371.6,796.1,1351.4,798.4,1331.1,798.4z M1332.1,268.8c-20.2,0-40.4,2.3-60.1,6.9c-142.2,32.9-230.7,174.9-197.8,317
	s174.9,230.7,317,197.8c68.3-15.8,127.4-58.1,164.5-117.5l0.4,0.3l-0.4-0.3c77.2-123.9,39.4-287-84.6-364.2
	C1429.4,282.8,1381.3,268.9,1332.1,268.8L1332.1,268.8z"/>
<path class="st5" d="M1401.7,369.1l-43.6,107.6l-3.9-1.3l30.4-112.1L1401.7,369.1z"/>
<path class="st5" d="M1509.5,517.2l-55.7,1.4l-0.5-2.8l53.3-16.4L1509.5,517.2z"/>
<path class="st5" d="M1375.3,622.8l39.9,71.3l-16.3,7.6l-28.8-76.4L1375.3,622.8z"/>
<path class="st5" d="M1218.4,605.5l-34.2,24.5l-7.6-16.3l40.8-10.2L1218.4,605.5z"/>
<path class="st5" d="M1344.8,716.4l-0.8-12c41.4-2.8,80.3-20.5,109.6-49.8l8.5,8.5C1430.8,694.5,1389.1,713.4,1344.8,716.4
	L1344.8,716.4z"/>
<path class="st5" d="M1513.8,561l-11.9-1.8c4.5-29.7,1.1-60-9.7-87.9l11.2-4.4C1514.9,496.8,1518.5,529.3,1513.8,561z"/>
<path class="st5" d="M1433.8,395.3c-20.3-15-43.8-25.2-68.6-30l2.3-11.8c26.5,5.1,51.6,16.1,73.4,32.1L1433.8,395.3z"/>
<path class="st5" d="M1202.9,663.1c-23.1-23-39.6-51.8-47.8-83.4l11.6-3c7.7,29.5,23.1,56.4,44.7,77.9L1202.9,663.1z"/>
<path class="st5" d="M1237.6,458l-46.7-29.4l11.7-13.7l36.5,41.4L1237.6,458z"/>
<path class="st5" d="M1235.9,472.1c-4.4-5.6-3.5-13.8,2.2-18.2c4.3-3.4,10.2-3.7,14.8-0.9l-2.2,3.6c-4.1-2.5-9.6-1.2-12.1,2.9
	c-1.9,3.1-1.7,7.1,0.6,10L1235.9,472.1z"/>
<path class="st5" d="M1364.8,489.3l-4.1-0.7c0.8-4.8-2.4-9.4-7.1-10.2c-3.6-0.6-7.3,1-9.1,4.2l-3.6-2.1c3.6-6.2,11.6-8.3,17.8-4.7
	C1363.3,478.5,1365.8,483.9,1364.8,489.3L1364.8,489.3z"/>
<path class="st5" d="M1447.1,530.1l-1.6-3.9c4.5-1.9,6.6-7.1,4.7-11.5c-1.4-3.4-4.8-5.5-8.5-5.3l-0.2-4.2
	c7.2-0.3,13.2,5.2,13.6,12.4C1455.3,523,1452.1,528,1447.1,530.1L1447.1,530.1z"/>
<path class="st5" d="M1367.9,626.2c-4.5,0-8.7-2.4-11.1-6.3l3.6-2.2c2.5,4.1,7.9,5.5,12.1,2.9c3.1-1.9,4.8-5.6,4.1-9.2l4.1-0.8
	c1.4,7-3.2,13.9-10.3,15.2C1369.6,626.1,1368.7,626.2,1367.9,626.2L1367.9,626.2z"/>
<path class="st5" d="M1226.8,613.2c-7.2,0-13-5.8-13-13c0-4.3,2.2-8.4,5.7-10.8l2.3,3.5c-4,2.7-5.1,8.2-2.4,12.2
	c2.1,3,5.8,4.5,9.4,3.6l1,4.1C1228.9,613,1227.8,613.2,1226.8,613.2L1226.8,613.2z"/>
<path class="st5" d="M1176.8,462.2l-10.9-5c13.6-29.7,34.8-55.2,61.5-73.9l6.9,9.8C1209.3,410.7,1189.4,434.5,1176.8,462.2
	L1176.8,462.2z"/>
<circle class="st3" cx="1338.8" cy="503.4" r="11.1"/>
<circle class="st3" cx="1338.8" cy="575.9" r="11.1"/>
<circle class="st3" cx="1405.1" cy="503.4" r="11.1"/>
<circle class="st3" cx="1405.1" cy="575.9" r="11.1"/>
<circle class="st3" cx="1258.1" cy="605" r="11.1"/>
<circle class="st3" cx="1258.1" cy="539.6" r="11.1"/>
<circle class="st3" cx="1258.1" cy="474.2" r="11.1"/>
<path class="st3" d="M1266.6,607.4l60.2-104.5l1.7,1l-56.9,98.8l55.6-27.7l0.9,1.8L1266.6,607.4z"/>
<path class="st3" d="M1394,576.9h-45.8l45-74l1.7,1l-43.1,70.9h42.3L1394,576.9z"/>
<path class="st3" d="M1330.6,578.8l-63.3-39.2l28.3-17.5l-29-50.3l63.2,31.5l-31.5,19.5L1330.6,578.8z M1271.1,539.6l53.8,33.3
	l-28.3-49.1L1271.1,539.6z M1271.7,476.6l25.6,44.5l28.4-17.6L1271.7,476.6z"/>
<path class="st3" d="M1393.1,576.4l-45-74h45.8v2h-42.3l43.1,70.9L1393.1,576.4z"/>
<path class="st6" d="M242.6,79h9.1v12.7h-9.1L242.6,79z"/>
<path class="st6" d="M242.6,103.2h9.1v12.7h-9.1L242.6,103.2z"/>
<path class="st6" d="M242.6,127.4h9.1v12.7h-9.1L242.6,127.4z"/>
<path class="st6" d="M242.6,151.5h9.1v12.7h-9.1L242.6,151.5z"/>
<path class="st6" d="M242.6,175.7h9.1v12.7h-9.1L242.6,175.7z"/>
<path class="st6" d="M241.7-1.6h1.7v301.7h-1.7V-1.6z"/>
<path class="st7" d="M467.3,66.6h201.4v164.1H467.3L467.3,66.6z"/>
<path class="st6" d="M644.6,231.6H441.4V65.8h203.2V231.6z M443.2,229.9h199.7V67.5H443.2V229.9z"/>
<path class="st6" d="M251.7,919.6h223.1v1.7H251.7L251.7,919.6z"/>
<path class="st6" d="M242.6,151.3h199.7v1.7H242.6L242.6,151.3z"/>
<path class="st6" d="M551.6-1.6h1.7v68.3h-1.7V-1.6z"/>
<path class="st6" d="M241.7,778h1.7v302h-1.7V778z"/>
<path class="st6" d="M242.6,838.2h9.1v12.7h-9.1L242.6,838.2z"/>
<path class="st6" d="M242.6,862.4h9.1v12.7h-9.1L242.6,862.4z"/>
<path class="st6" d="M242.6,886.6h9.1v12.7h-9.1L242.6,886.6z"/>
<path class="st6" d="M242.6,910.8h9.1v12.7h-9.1L242.6,910.8z"/>
<path class="st6" d="M242.6,935h9.1v12.7h-9.1L242.6,935z"/>
<path class="st6" d="M864,159.7H855V147h9.1V159.7z"/>
<path class="st6" d="M864,183.9H855v-12.7h9.1V183.9z"/>
<path class="st6" d="M864,208.1H855v-12.7h9.1V208.1z"/>
<path class="st6" d="M864,232.3H855v-12.7h9.1V232.3z"/>
<path class="st6" d="M864,256.5H855v-12.7h9.1V256.5z"/>
<path class="st6" d="M863.2-1.6h1.7v337.2h-1.7V-1.6z"/>
<path class="st6" d="M643.8,151.3H864v1.7H643.8V151.3z"/>
<path class="st6" d="M863.2,778h1.7v302h-1.7V778z"/>
<path class="st6" d="M864,903.5H855v-12.7h9.1V903.5z"/>
<path class="st6" d="M864,927.7H855V915h9.1V927.7z"/>
<path class="st6" d="M864,951.9H855v-12.7h9.1V951.9z"/>
<path class="st6" d="M864,976.1H855v-12.7h9.1V976.1z"/>
<path class="st6" d="M864,1000.3H855v-12.7h9.1V1000.3z"/>
<path class="st7" d="M686.4,1030H458.7l113.9-185.5L686.4,1030z"/>
<path class="st6" d="M637.4,1030.9H406.5L522,842.8L637.4,1030.9z M409.6,1029.1h224.7L522,846.1L409.6,1029.1z"/>
<path class="st8" d="M358.1,521.6l-8-0.4c1.6-30.4,9.6-60.2,23.5-87.3l7.1,3.6C367.3,463.6,359.6,492.3,358.1,521.6z M775.2,498.8
	c-4.7-29-15.5-56.6-31.7-81.1l6.7-4.4c16.8,25.4,28,54.1,32.9,84.2L775.2,498.8z M435.6,369.8l-5-6.2c23.6-19.2,51.1-33.3,80.5-41.2
	l2.1,7.7C484.8,337.8,458.4,351.3,435.6,369.8L435.6,369.8z M681.6,356.4c-24.7-15.9-52.4-26.5-81.4-30.9l1.2-7.9
	c30.1,4.6,58.9,15.6,84.5,32.1L681.6,356.4z"/>
<path class="st8" d="M593,749.7l-0.9-7.9c29.2-3.3,57.3-12.8,82.6-27.7l4.1,6.9C652.5,736.5,623.3,746.3,593,749.7z M503,741.4
	c-29.1-9-56-24.1-78.9-44.3l5.3-6c22,19.4,47.9,33.9,76,42.6L503,741.4z M745.4,659.8l-6.5-4.7c17.1-23.9,29-51.1,34.8-79.8l7.8,1.6
	C775.5,606.8,763.2,635.1,745.4,659.8L745.4,659.8z M369.9,624.7c-6.6-14.3-11.7-29.3-15.1-44.7l7.8-1.7
	c3.3,14.8,8.1,29.3,14.5,43.1L369.9,624.7z"/>
<path class="st8" d="M336.4,527.7l-3-0.1c1.4-59.5,25.4-116.3,67.1-158.9l2.1,2.1C361.5,412.9,337.9,468.9,336.4,527.7L336.4,527.7z
	 M763.5,409.2c-31.5-49.6-80.7-85.5-137.6-100.3l0.8-2.9c57.6,15,107.4,51.3,139.4,101.6L763.5,409.2z"/>
<path class="st8" d="M467.5,745c-8.2-3.9-16.1-8.2-23.8-13c-42.7-26.5-75.7-66.1-94-112.9l2.8-1.1c18.1,46.2,50.7,85.3,92.8,111.5
	c7.6,4.7,15.4,9,23.5,12.8L467.5,745z M701.4,725.9l-1.7-2.5c48.3-33.5,82.1-84.1,94.5-141.6l2.9,0.6
	C784.6,640.7,750.4,691.9,701.4,725.9L701.4,725.9z"/>
<path class="st7" d="M567.9,762.4c-19.7,0-39.4-2.5-58.5-7.5l2.8-10.6c38,9.9,77.9,9.5,115.6-1.2l3,10.6
	C610.4,759.5,589.2,762.4,567.9,762.4L567.9,762.4z M404.4,693.9c-28.9-29.4-49.4-66-59.2-106l10.7-2.6c9.4,38.1,28.9,73,56.4,100.9
	L404.4,693.9z M734.6,690.5l-8-7.6c27-28.5,45.7-63.8,54.3-102.1l10.7,2.4C782.7,623.6,762.9,660.6,734.6,690.5z M783.2,496.8
	c-6.5-38.7-23.3-74.9-48.7-104.8l8.4-7.1c26.7,31.4,44.4,69.5,51.2,110.1L783.2,496.8z M358.9,469.6l-10.5-3.2
	c12-39.4,34.4-74.9,64.9-102.7l7.4,8.1C391.7,398.3,370.4,432.1,358.9,469.6L358.9,469.6z M639,326.6c-22.9-7.9-46.9-11.9-71.2-11.9
	h0c-14.9,0-29.7,1.5-44.3,4.5l-2.2-10.8c15.3-3.1,30.9-4.7,46.5-4.7h0c25.4,0,50.7,4.2,74.7,12.5L639,326.6z"/>
<path class="st8" d="M485.8,336l3.9-1.6L541,463l-3.9,1.6L485.8,336z"/>
<path class="st8" d="M536.1,477.3l-3.9-1.5l5.6-14.8l12.7,4.8l-1.5,3.9l-8.8-3.3L536.1,477.3z"/>
<g>
	<defs>
		<line id="SVGID_2_" x1="487.8" y1="335.2" x2="503.8" y2="375.3"/>
	</defs>
	<clipPath id="SVGID_3_">
		<use xlink:href="#SVGID_2_"  style="overflow:visible;"/>
	</clipPath>
	<g class="st9">
		<path class="st10" d="M487.8,335.2h12.1v40.1h-12.1V335.2z"/>
		<path class="st10" d="M499.8,335.2h3.9v40.1h-3.9V335.2z"/>
		<path class="st10" d="M503.7,335.2L503.7,335.2l0,40.1h0V335.2z"/>
	</g>
</g>
<path class="st8" d="M483.2,337l9.1-3.6l16,40.1l-9.1,3.6L483.2,337z"/>
<g>
	<defs>
		<line id="SVGID_4_" x1="487.8" y1="335.2" x2="491.4" y2="344.4"/>
	</defs>
	<clipPath id="SVGID_5_">
		<use xlink:href="#SVGID_4_"  style="overflow:visible;"/>
	</clipPath>
	<g class="st11">
		<path class="st10" d="M487.8,335.2h2.8v9.2h-2.8V335.2z"/>
		<path class="st10" d="M490.5,335.2h0.9v9.2h-0.9V335.2z"/>
		<path class="st10" d="M491.4,335.2L491.4,335.2l0,9.2h0V335.2z"/>
	</g>
</g>
<path class="st8" d="M484.5,336.5l6.6-2.6l3.7,9.2l-6.6,2.6L484.5,336.5z"/>
<path class="st8" d="M654.7,414.3l39.8-53.8l3.4,2.5l-39.8,53.8L654.7,414.3z"/>
<path class="st8" d="M655,422.9l-0.5-5.1l-5.1,0.5l-0.4-4.2l9.2-0.9l0.9,9.3L655,422.9z"/>
<g>
	<defs>
		<line id="SVGID_6_" x1="696.2" y1="361.7" x2="683.6" y2="378.8"/>
	</defs>
	<clipPath id="SVGID_7_">
		<use xlink:href="#SVGID_6_"  style="overflow:visible;"/>
	</clipPath>
	<g class="st12">
		<path class="st10" d="M683.6,361.7h9.5v17h-9.5V361.7z"/>
		<path class="st10" d="M693.2,361.7h3.1v17h-3.1V361.7z"/>
		<path class="st10" d="M696.2,361.7L696.2,361.7l0,17h0V361.7z"/>
	</g>
</g>
<path class="st8" d="M679.7,375.8l12.6-17l7.9,5.8l-12.6,17L679.7,375.8z"/>
<g>
	<defs>
		<line id="SVGID_8_" x1="696.2" y1="361.7" x2="690.6" y2="369.4"/>
	</defs>
	<clipPath id="SVGID_9_">
		<use xlink:href="#SVGID_8_"  style="overflow:visible;"/>
	</clipPath>
	<g class="st13">
		<path class="st10" d="M690.6,361.7h4.3v7.6h-4.3V361.7z"/>
		<path class="st10" d="M694.9,361.7h1.4v7.6h-1.4V361.7z"/>
		<path class="st10" d="M696.2,361.7L696.2,361.7l0,7.6h0V361.7z"/>
	</g>
</g>
<path class="st8" d="M687.7,367.2l5.7-7.6l5.8,4.3l-5.7,7.6L687.7,367.2z"/>
<path class="st8" d="M678.7,578.1l1.4-3.9l92.4,33.8l-1.4,3.9L678.7,578.1z"/>
<path class="st8" d="M670.7,581.1l-1.3-4l7.4-2.3l-2.4-7.4l4-1.3l3.6,11.4L670.7,581.1z"/>
<g>
	<defs>
		<line id="SVGID_10_" x1="768.3" y1="608.6" x2="730.7" y2="594.8"/>
	</defs>
	<clipPath id="SVGID_11_">
		<use xlink:href="#SVGID_10_"  style="overflow:visible;"/>
	</clipPath>
	<g class="st14">
		<path class="st10" d="M730.7,594.8h28.4v13.8h-28.4V594.8z"/>
		<path class="st10" d="M759.1,594.8h9.2v13.8h-9.2V594.8z"/>
		<path class="st10" d="M768.3,594.8L768.3,594.8l0,13.8h0V594.8z"/>
	</g>
</g>
<path class="st8" d="M729,599.4l3.4-9.2L770,604l-3.4,9.2L729,599.4z"/>
<g>
	<defs>
		<line id="SVGID_12_" x1="768.3" y1="608.6" x2="758.2" y2="604.9"/>
	</defs>
	<clipPath id="SVGID_13_">
		<use xlink:href="#SVGID_12_"  style="overflow:visible;"/>
	</clipPath>
	<g class="st15">
		<path class="st10" d="M758.2,604.9h7.6v3.7h-7.6V604.9z"/>
		<path class="st10" d="M765.8,604.9h2.5v3.7h-2.5V604.9z"/>
		<path class="st10" d="M768.3,604.9L768.3,604.9l0,3.7h0V604.9z"/>
	</g>
</g>
<path class="st8" d="M757,608.3l2.5-6.7l10.1,3.7l-2.5,6.7L757,608.3z"/>
<path class="st8" d="M361.8,591.4l50.4-14.3l1.1,4L363,595.4L361.8,591.4z"/>
<path class="st8" d="M418.5,584l-8.4-3.9l3.9-8.4l3.8,1.8l-2.1,4.6l4.6,2.1L418.5,584z"/>
<g>
	<defs>
		<line id="SVGID_14_" x1="362.4" y1="593.4" x2="392.9" y2="584.5"/>
	</defs>
	<clipPath id="SVGID_15_">
		<use xlink:href="#SVGID_14_"  style="overflow:visible;"/>
	</clipPath>
	<g class="st16">
		<path class="st10" d="M362.4,584.5h23v8.9h-23V584.5z"/>
		<path class="st10" d="M385.4,584.5h7.5v8.9h-7.5V584.5z"/>
		<path class="st10" d="M392.9,584.5L392.9,584.5l0,8.9h0V584.5z"/>
	</g>
</g>
<path class="st8" d="M361,588.7l30.5-8.9l2.7,9.4l-30.5,8.9L361,588.7z"/>
<g>
	<defs>
		<line id="SVGID_16_" x1="362.4" y1="593.4" x2="374.5" y2="589.9"/>
	</defs>
	<clipPath id="SVGID_17_">
		<use xlink:href="#SVGID_16_"  style="overflow:visible;"/>
	</clipPath>
	<g class="st17">
		<path class="st10" d="M362.4,589.9h9.2v3.5h-9.2V589.9z"/>
		<path class="st10" d="M371.6,589.9h3v3.5h-3V589.9z"/>
		<path class="st10" d="M374.5,589.9L374.5,589.9l0,3.5h0V589.9z"/>
	</g>
</g>
<path class="st8" d="M361.4,590l12.1-3.5l2,6.9l-12.1,3.5L361.4,590z"/>
<g>
	<defs>
		<circle id="SVGID_18_" cx="567.9" cy="531.5" r="165.3"/>
	</defs>
	<clipPath id="SVGID_19_">
		<use xlink:href="#SVGID_18_"  style="overflow:visible;"/>
	</clipPath>
	<g class="st18">
		<path class="st8" d="M563.9,461.9h9.4v9.4h-9.4V461.9z"/>
		<path class="st8" d="M441.7,476.3h9.4v9.4h-9.4V476.3z"/>
		<path class="st6" d="M457,476.3h9.4v9.4H457V476.3z"/>
		<path class="st8" d="M487.6,476.3h9.4v9.4h-9.4V476.3z"/>
		<path class="st6" d="M502.8,476.3h9.4v9.4h-9.4V476.3z"/>
		<path class="st8" d="M518.1,476.3h9.4v9.4h-9.4V476.3z"/>
		<path class="st8" d="M548.7,490.8h9.4v9.4h-9.4V490.8z"/>
		<path class="st8" d="M367,510.9h9.4v9.4H367V510.9z"/>
		<path class="st6" d="M428.1,510.9h9.4v9.4h-9.4V510.9z"/>
		<path class="st8" d="M443.4,510.9h9.4v9.4h-9.4V510.9z"/>
		<path class="st8" d="M474,510.9h9.4v9.4H474V510.9z"/>
		<path class="st8" d="M504.5,510.9h9.4v9.4h-9.4V510.9z"/>
		<path class="st6" d="M519.8,510.9h9.4v9.4h-9.4V510.9z"/>
		<path class="st19" d="M382.3,525.4h9.4v9.4h-9.4V525.4z"/>
		<path class="st6" d="M367,539.8h9.4v9.4H367V539.8z"/>
		<path class="st19" d="M382.3,539.8h9.4v9.4h-9.4V539.8z"/>
		<path class="st6" d="M428.1,539.8h9.4v9.4h-9.4V539.8z"/>
		<path class="st8" d="M443.4,539.8h9.4v9.4h-9.4V539.8z"/>
		<path class="st8" d="M458.7,539.8h9.4v9.4h-9.4V539.8z"/>
		<path class="st8" d="M489.2,539.8h9.4v9.4h-9.4V539.8z"/>
		<path class="st6" d="M504.5,539.8h9.4v9.4h-9.4V539.8z"/>
		<path class="st20" d="M367,554.3h9.4v9.4H367V554.3z"/>
		<path class="st6" d="M412.9,554.3h9.4v9.4h-9.4V554.3z"/>
		<path class="st8" d="M458.7,554.3h9.4v9.4h-9.4V554.3z"/>
		<path class="st8" d="M474,554.3h9.4v9.4H474V554.3z"/>
		<path class="st6" d="M367,568.7h9.4v9.4H367V568.7z"/>
		<path class="st8" d="M443.4,568.7h9.4v9.4h-9.4V568.7z"/>
		<path class="st8" d="M489.2,568.7h9.4v9.4h-9.4V568.7z"/>
		<path class="st8" d="M504.5,568.7h9.4v9.4h-9.4V568.7z"/>
		<path class="st8" d="M367,583.2h9.4v9.4H367V583.2z"/>
		<path class="st21" d="M390.2,581.8L390.2,581.8c2.6,0,4.7,2.1,4.7,4.7v0c0,2.6-2.1,4.7-4.7,4.7h0c-2.6,0-4.7-2.1-4.7-4.7v0
			C385.5,583.9,387.6,581.8,390.2,581.8z"/>
		<path class="st6" d="M432.8,581.2l6.6,6.6l-6.6,6.6l-6.6-6.6L432.8,581.2z"/>
		<path class="st19" d="M371.7,597.6L371.7,597.6c2.6,0,4.7,2.1,4.7,4.7v0c0,2.6-2.1,4.7-4.7,4.7h0c-2.6,0-4.7-2.1-4.7-4.7v0
			C367,599.7,369.2,597.6,371.7,597.6z"/>
		<path class="st20" d="M397.6,597.6h9.4v9.4h-9.4V597.6z"/>
		<path class="st6" d="M448.1,597.6L448.1,597.6c2.6,0,4.7,2.1,4.7,4.7v0c0,2.6-2.1,4.7-4.7,4.7h0c-2.6,0-4.7-2.1-4.7-4.7v0
			C443.4,599.7,445.5,597.6,448.1,597.6z"/>
		<path class="st8" d="M505,593.7l6.6,6.6L505,607l-6.6-6.6L505,593.7z"/>
		<path class="st8" d="M519.8,597.6h9.4v9.4h-9.4V597.6z"/>
		<path class="st21" d="M367,612h9.4v9.4H367V612z"/>
		<path class="st8" d="M397.6,612h9.4v9.4h-9.4V612z"/>
		<path class="st8" d="M412.9,612h9.4v9.4h-9.4V612z"/>
		<path class="st6" d="M458.7,612h9.4v9.4h-9.4V612z"/>
		<path class="st19" d="M367,626.5h9.4v9.4H367V626.5z"/>
		<path class="st6" d="M382.3,626.5h9.4v9.4h-9.4V626.5z"/>
		<path class="st19" d="M412.9,626.5h9.4v9.4h-9.4V626.5z"/>
		<path class="st8" d="M504.5,626.5h9.4v9.4h-9.4V626.5z"/>
		<path class="st19" d="M382.3,640.9h9.4v9.4h-9.4V640.9z"/>
		<path class="st8" d="M428.1,640.9h9.4v9.4h-9.4V640.9z"/>
		<path class="st8" d="M519.8,640.9h9.4v9.4h-9.4V640.9z"/>
		<path class="st8" d="M397.6,655.4h9.4v9.4h-9.4V655.4z"/>
		<path class="st6" d="M412.9,655.4h9.4v9.4h-9.4V655.4z"/>
		<path class="st6" d="M428.1,655.4h9.4v9.4h-9.4V655.4z"/>
		<path class="st8" d="M443.4,655.4h9.4v9.4h-9.4V655.4z"/>
		<path class="st8" d="M367,669.8h9.4v9.4H367V669.8z"/>
		<path class="st8" d="M382.3,669.8h9.4v9.4h-9.4V669.8z"/>
		<path class="st8" d="M428.1,669.8h9.4v9.4h-9.4V669.8z"/>
		<path class="st21" d="M443.4,669.8h9.4v9.4h-9.4V669.8z"/>
		<path class="st8" d="M458.7,669.8h9.4v9.4h-9.4V669.8z"/>
		<path class="st8" d="M536,510.9h9.4v9.4H536V510.9z"/>
		<path class="st8" d="M581.8,510.9h9.4v9.4h-9.4V510.9z"/>
		<path class="st6" d="M597,510.9h9.4v9.4H597V510.9z"/>
		<path class="st6" d="M612.3,510.9h9.4v9.4h-9.4V510.9z"/>
		<path class="st8" d="M627.6,510.9h9.4v9.4h-9.4V510.9z"/>
		<path class="st8" d="M642.9,510.9h9.4v9.4h-9.4V510.9z"/>
		<path class="st8" d="M673.4,510.9h9.4v9.4h-9.4V510.9z"/>
		<path class="st8" d="M642.9,525.4h9.4v9.4h-9.4V525.4z"/>
		<path class="st8" d="M658.1,525.4h9.4v9.4h-9.4V525.4z"/>
		<path class="st8" d="M536,539.8h9.4v9.4H536V539.8z"/>
		<path class="st8" d="M597,539.8h9.4v9.4H597V539.8z"/>
		<path class="st8" d="M612.3,539.8h9.4v9.4h-9.4V539.8z"/>
		<path class="st8" d="M612.3,554.3h9.4v9.4h-9.4V554.3z"/>
		<path class="st6" d="M599.4,564h9.4v9.4h-9.4V564z"/>
		<path class="st8" d="M644.6,557.2h9.4v9.4h-9.4V557.2z"/>
		<path class="st8" d="M622.9,525.4h9.4v9.4h-9.4V525.4z"/>
		<path class="st8" d="M627.6,539.8h9.4v9.4h-9.4V539.8z"/>
		<path class="st8" d="M658.1,539.8h9.4v9.4h-9.4V539.8z"/>
		<path class="st8" d="M673.4,539.8h9.4v9.4h-9.4V539.8z"/>
		<path class="st8" d="M702.2,541.9h9.4v9.4h-9.4V541.9z"/>
		<path class="st6" d="M713.8,556.7h9.4v9.4h-9.4V556.7z"/>
		<path class="st6" d="M688.7,556.7h9.4v9.4h-9.4V556.7z"/>
		<path class="st6" d="M627.6,554.3h9.4v9.4h-9.4V554.3z"/>
		<path class="st8" d="M581.8,568.7h9.4v9.4h-9.4V568.7z"/>
		<path class="st8" d="M617,621.8L617,621.8c2.6,0,4.7,2.1,4.7,4.7v0c0,2.6-2.1,4.7-4.7,4.7h0c-2.6,0-4.7-2.1-4.7-4.7v0
			C612.3,623.9,614.4,621.8,617,621.8z"/>
		<path class="st6" d="M633.2,610.4L633.2,610.4c2.6,0,4.7,2.1,4.7,4.7v0c0,2.6-2.1,4.7-4.7,4.7h0c-2.6,0-4.7-2.1-4.7-4.7v0
			C628.5,612.5,630.6,610.4,633.2,610.4z"/>
		<path class="st6" d="M581.8,583.2h9.4v9.4h-9.4V583.2z"/>
		<path class="st6" d="M601.7,581.2l6.6,6.6l-6.6,6.6l-6.6-6.6L601.7,581.2z"/>
		<g>
			<path class="st8" d="M612.3,583.2h9.4v9.4h-9.4V583.2z"/>
			<path class="st8" d="M627.6,583.2h9.4v9.4h-9.4V583.2z"/>
			<path class="st8" d="M642.9,583.2h9.4v9.4h-9.4V583.2z"/>
			<path class="st8" d="M540.7,597.6L540.7,597.6c2.6,0,4.7,2.1,4.7,4.7v0c0,2.6-2.1,4.7-4.7,4.7h0c-2.6,0-4.7-2.1-4.7-4.7v0
				C536,599.7,538.1,597.6,540.7,597.6z"/>
			<path class="st8" d="M597,597.6h9.4v9.4H597V597.6z"/>
			<path class="st8" d="M617,597.6L617,597.6c2.6,0,4.7,2.1,4.7,4.7v0c0,2.6-2.1,4.7-4.7,4.7h0c-2.6,0-4.7-2.1-4.7-4.7v0
				C612.3,599.7,614.4,597.6,617,597.6z"/>
			<path class="st8" d="M581.8,626.5h9.4v9.4h-9.4V626.5z"/>
			<path class="st8" d="M627.6,626.5h9.4v9.4h-9.4V626.5z"/>
			<path class="st8" d="M642.9,626.5h9.4v9.4h-9.4V626.5z"/>
			<path class="st8" d="M673.4,626.5h9.4v9.4h-9.4V626.5z"/>
			<path class="st8" d="M612.3,640.9h9.4v9.4h-9.4V640.9z"/>
			<path class="st8" d="M566.5,655.4h9.4v9.4h-9.4V655.4z"/>
			<path class="st8" d="M688.7,655.4h9.4v9.4h-9.4V655.4z"/>
			<path class="st8" d="M673.4,669.8h9.4v9.4h-9.4V669.8z"/>
			<path class="st8" d="M688.7,669.8h9.4v9.4h-9.4V669.8z"/>
			<path class="st8" d="M708.6,513.7h9.4v9.4h-9.4V513.7z"/>
			<path class="st8" d="M739.1,513.7h9.4v9.4h-9.4V513.7z"/>
			<path class="st8" d="M754.4,513.7h9.4v9.4h-9.4V513.7z"/>
			<path class="st8" d="M769.7,513.7h9.4v9.4h-9.4V513.7z"/>
			<path class="st8" d="M784.9,513.7h9.4v9.4h-9.4V513.7z"/>
			<path class="st8" d="M800.2,513.7h9.4v9.4h-9.4V513.7z"/>
			<path class="st8" d="M815.5,513.7h9.4v9.4h-9.4V513.7z"/>
			<path class="st8" d="M846,513.7h9.4v9.4H846V513.7z"/>
			<path class="st8" d="M861.3,513.7h9.4v9.4h-9.4V513.7z"/>
			<path class="st8" d="M739.1,528.1h9.4v9.4h-9.4V528.1z"/>
			<path class="st8" d="M754.4,528.1h9.4v9.4h-9.4V528.1z"/>
			<path class="st8" d="M815.5,528.1h9.4v9.4h-9.4V528.1z"/>
			<path class="st8" d="M830.8,528.1h9.4v9.4h-9.4V528.1z"/>
			<path class="st8" d="M861.3,528.1h9.4v9.4h-9.4V528.1z"/>
			<path class="st8" d="M754.4,542.6h9.4v9.4h-9.4V542.6z"/>
			<path class="st8" d="M769.7,542.6h9.4v9.4h-9.4V542.6z"/>
			<path class="st8" d="M784.9,542.6h9.4v9.4h-9.4V542.6z"/>
			<path class="st8" d="M800.2,542.6h9.4v9.4h-9.4V542.6z"/>
			<path class="st8" d="M830.8,542.6h9.4v9.4h-9.4V542.6z"/>
			<path class="st8" d="M846,542.6h9.4v9.4H846V542.6z"/>
			<path class="st8" d="M739.1,557h9.4v9.4h-9.4V557z"/>
			<path class="st8" d="M754.4,557h9.4v9.4h-9.4V557z"/>
			<path class="st8" d="M769.7,557h9.4v9.4h-9.4V557z"/>
			<path class="st8" d="M784.9,557h9.4v9.4h-9.4V557z"/>
			<path class="st8" d="M800.2,557h9.4v9.4h-9.4V557z"/>
			<path class="st8" d="M815.5,557h9.4v9.4h-9.4V557z"/>
			<path class="st8" d="M846,557h9.4v9.4H846V557z"/>
			<path class="st8" d="M739.1,571.4h9.4v9.4h-9.4V571.4z"/>
			<path class="st8" d="M754.4,571.4h9.4v9.4h-9.4V571.4z"/>
			<path class="st8" d="M769.7,571.4h9.4v9.4h-9.4V571.4z"/>
			<path class="st8" d="M784.9,571.4h9.4v9.4h-9.4V571.4z"/>
			<path class="st8" d="M800.2,571.4h9.4v9.4h-9.4V571.4z"/>
			<path class="st8" d="M815.5,571.4h9.4v9.4h-9.4V571.4z"/>
			<path class="st8" d="M830.8,571.4h9.4v9.4h-9.4V571.4z"/>
			<path class="st8" d="M846,571.4h9.4v9.4H846V571.4z"/>
			<path class="st8" d="M861.3,571.4h9.4v9.4h-9.4V571.4z"/>
			<path class="st8" d="M731.7,584.6L731.7,584.6c2.6,0,4.7,2.1,4.7,4.7v0c0,2.6-2.1,4.7-4.7,4.7h0c-2.6,0-4.7-2.1-4.7-4.7v0
				C727,586.7,729.1,584.6,731.7,584.6z"/>
			<path class="st8" d="M754.4,585.9h9.4v9.4h-9.4V585.9z"/>
			<path class="st8" d="M774.4,583.9l6.6,6.6l-6.6,6.6l-6.6-6.6L774.4,583.9z"/>
			<path class="st8" d="M784.9,585.9h9.4v9.4h-9.4V585.9z"/>
			<path class="st8" d="M800.2,585.9h9.4v9.4h-9.4V585.9z"/>
			<path class="st8" d="M815.5,585.9h9.4v9.4h-9.4V585.9z"/>
			<path class="st8" d="M830.8,585.9h9.4v9.4h-9.4V585.9z"/>
			<path class="st8" d="M861.3,585.9h9.4v9.4h-9.4V585.9z"/>
			<path class="st8" d="M739.1,600.3h9.4v9.4h-9.4V600.3z"/>
			<path class="st8" d="M754.4,600.3h9.4v9.4h-9.4V600.3z"/>
			<path class="st8" d="M769.7,600.3h9.4v9.4h-9.4V600.3z"/>
			<path class="st8" d="M789.6,600.3L789.6,600.3c2.6,0,4.7,2.1,4.7,4.7v0c0,2.6-2.1,4.7-4.7,4.7h0c-2.6,0-4.7-2.1-4.7-4.7v0
				C784.9,602.4,787,600.3,789.6,600.3z"/>
			<path class="st8" d="M800.2,600.3h9.4v9.4h-9.4V600.3z"/>
			<path class="st8" d="M815.5,600.3h9.4v9.4h-9.4V600.3z"/>
			<path class="st8" d="M846.5,596.4l6.6,6.6l-6.6,6.6l-6.6-6.6L846.5,596.4z"/>
			<path class="st8" d="M861.3,600.3h9.4v9.4h-9.4V600.3z"/>
			<path class="st8" d="M739.1,614.8h9.4v9.4h-9.4V614.8z"/>
			<path class="st8" d="M754.4,614.8h9.4v9.4h-9.4V614.8z"/>
			<path class="st8" d="M769.7,614.8h9.4v9.4h-9.4V614.8z"/>
			<path class="st8" d="M784.9,614.8h9.4v9.4h-9.4V614.8z"/>
			<path class="st8" d="M800.2,614.8h9.4v9.4h-9.4V614.8z"/>
			<path class="st8" d="M815.5,614.8h9.4v9.4h-9.4V614.8z"/>
			<path class="st8" d="M830.8,614.8h9.4v9.4h-9.4V614.8z"/>
			<path class="st8" d="M846,614.8h9.4v9.4H846V614.8z"/>
			<path class="st8" d="M708.6,629.2h9.4v9.4h-9.4V629.2z"/>
			<path class="st8" d="M723.8,629.2h9.4v9.4h-9.4V629.2z"/>
			<path class="st8" d="M754.4,629.2h9.4v9.4h-9.4V629.2z"/>
			<path class="st8" d="M769.7,629.2h9.4v9.4h-9.4V629.2z"/>
			<path class="st8" d="M784.9,629.2h9.4v9.4h-9.4V629.2z"/>
			<path class="st8" d="M800.2,629.2h9.4v9.4h-9.4V629.2z"/>
			<path class="st8" d="M815.5,629.2h9.4v9.4h-9.4V629.2z"/>
			<path class="st8" d="M846,629.2h9.4v9.4H846V629.2z"/>
			<path class="st8" d="M723.8,643.7h9.4v9.4h-9.4V643.7z"/>
			<path class="st8" d="M769.7,643.7h9.4v9.4h-9.4V643.7z"/>
			<path class="st8" d="M784.9,643.7h9.4v9.4h-9.4V643.7z"/>
			<path class="st8" d="M800.2,643.7h9.4v9.4h-9.4V643.7z"/>
			<path class="st8" d="M830.8,643.7h9.4v9.4h-9.4V643.7z"/>
			<path class="st8" d="M846,643.7h9.4v9.4H846V643.7z"/>
			<path class="st8" d="M861.3,643.7h9.4v9.4h-9.4V643.7z"/>
			<path class="st8" d="M739.1,658.1h9.4v9.4h-9.4V658.1z"/>
			<path class="st8" d="M754.4,658.1h9.4v9.4h-9.4V658.1z"/>
			<path class="st8" d="M769.7,658.1h9.4v9.4h-9.4V658.1z"/>
			<path class="st8" d="M784.9,658.1h9.4v9.4h-9.4V658.1z"/>
			<path class="st8" d="M800.2,658.1h9.4v9.4h-9.4V658.1z"/>
			<path class="st8" d="M815.5,658.1h9.4v9.4h-9.4V658.1z"/>
			<path class="st8" d="M830.8,658.1h9.4v9.4h-9.4V658.1z"/>
			<path class="st8" d="M846,658.1h9.4v9.4H846V658.1z"/>
			<path class="st8" d="M861.3,658.1h9.4v9.4h-9.4V658.1z"/>
			<path class="st8" d="M708.6,672.5h9.4v9.4h-9.4V672.5z"/>
			<path class="st8" d="M723.8,672.5h9.4v9.4h-9.4V672.5z"/>
			<path class="st8" d="M769.7,672.5h9.4v9.4h-9.4V672.5z"/>
			<path class="st8" d="M784.9,672.5h9.4v9.4h-9.4V672.5z"/>
			<path class="st8" d="M800.2,672.5h9.4v9.4h-9.4V672.5z"/>
			<path class="st8" d="M815.5,672.5h9.4v9.4h-9.4V672.5z"/>
			<path class="st8" d="M830.8,672.5h9.4v9.4h-9.4V672.5z"/>
			<path class="st8" d="M846,672.5h9.4v9.4H846V672.5z"/>
			<path class="st8" d="M861.3,672.5h9.4v9.4h-9.4V672.5z"/>
			<path class="st8" d="M579.9,334.9h9.4v9.4h-9.4V334.9z"/>
			<path class="st8" d="M610.5,334.9h9.4v9.4h-9.4V334.9z"/>
			<path class="st8" d="M625.7,334.9h9.4v9.4h-9.4V334.9z"/>
			<path class="st8" d="M641,334.9h9.4v9.4H641V334.9z"/>
			<path class="st8" d="M656.3,334.9h9.4v9.4h-9.4V334.9z"/>
			<path class="st8" d="M671.5,334.9h9.4v9.4h-9.4V334.9z"/>
			<path class="st8" d="M686.8,334.9h9.4v9.4h-9.4V334.9z"/>
			<path class="st8" d="M717.4,334.9h9.4v9.4h-9.4V334.9z"/>
			<path class="st8" d="M732.6,334.9h9.4v9.4h-9.4V334.9z"/>
			<path class="st8" d="M595.2,349.4h9.4v9.4h-9.4V349.4z"/>
			<path class="st8" d="M610.5,349.4h9.4v9.4h-9.4V349.4z"/>
			<path class="st8" d="M625.7,349.4h9.4v9.4h-9.4V349.4z"/>
			<path class="st8" d="M686.8,349.4h9.4v9.4h-9.4V349.4z"/>
			<path class="st8" d="M702.1,349.4h9.4v9.4h-9.4V349.4z"/>
			<path class="st8" d="M732.6,349.4h9.4v9.4h-9.4V349.4z"/>
			<path class="st8" d="M625.7,363.8h9.4v9.4h-9.4V363.8z"/>
			<path class="st8" d="M641,363.8h9.4v9.4H641V363.8z"/>
			<path class="st8" d="M656.3,363.8h9.4v9.4h-9.4V363.8z"/>
			<path class="st8" d="M671.5,363.8h9.4v9.4h-9.4V363.8z"/>
			<path class="st8" d="M702.1,363.8h9.4v9.4h-9.4V363.8z"/>
			<path class="st8" d="M717.4,363.8h9.4v9.4h-9.4V363.8z"/>
			<path class="st8" d="M656.3,378.2h9.4v9.4h-9.4V378.2z"/>
			<path class="st8" d="M671.5,378.2h9.4v9.4h-9.4V378.2z"/>
			<path class="st8" d="M686.8,378.2h9.4v9.4h-9.4V378.2z"/>
			<path class="st8" d="M717.4,378.2h9.4v9.4h-9.4V378.2z"/>
			<path class="st8" d="M671.5,392.7h9.4v9.4h-9.4V392.7z"/>
			<path class="st8" d="M686.8,392.7h9.4v9.4h-9.4V392.7z"/>
			<path class="st8" d="M702.1,392.7h9.4v9.4h-9.4V392.7z"/>
			<path class="st8" d="M717.4,392.7h9.4v9.4h-9.4V392.7z"/>
			<path class="st8" d="M732.6,392.7h9.4v9.4h-9.4V392.7z"/>
			<path class="st8" d="M686.8,407.1h9.4v9.4h-9.4V407.1z"/>
			<path class="st8" d="M702.1,407.1h9.4v9.4h-9.4V407.1z"/>
			<path class="st8" d="M732.6,407.1h9.4v9.4h-9.4V407.1z"/>
			<path class="st8" d="M625.7,421.6h9.4v9.4h-9.4V421.6z"/>
			<path class="st8" d="M717.9,417.7l6.6,6.6l-6.6,6.6l-6.6-6.6L717.9,417.7z"/>
			<path class="st8" d="M732.6,421.6h9.4v9.4h-9.4V421.6z"/>
			<path class="st8" d="M717.4,436h9.4v9.4h-9.4V436z"/>
			<path class="st8" d="M625.7,450.5h9.4v9.4h-9.4V450.5z"/>
			<path class="st8" d="M656.3,450.5h9.4v9.4h-9.4V450.5z"/>
			<path class="st8" d="M717.4,450.5h9.4v9.4h-9.4V450.5z"/>
			<path class="st8" d="M595.2,464.9h9.4v9.4h-9.4V464.9z"/>
			<path class="st8" d="M732.6,464.9h9.4v9.4h-9.4V464.9z"/>
			<path class="st8" d="M610.5,479.3h9.4v9.4h-9.4V479.3z"/>
			<path class="st8" d="M641,479.3h9.4v9.4H641V479.3z"/>
			<path class="st8" d="M671.5,479.3h9.4v9.4h-9.4V479.3z"/>
			<path class="st8" d="M732.6,479.3h9.4v9.4h-9.4V479.3z"/>
			<path class="st8" d="M595.2,493.8h9.4v9.4h-9.4V493.8z"/>
		</g>
		<path class="st6" d="M641,493.8h9.4v9.4H641V493.8z"/>
		<path class="st8" d="M686.8,493.8h9.4v9.4h-9.4V493.8z"/>
		<path class="st8" d="M732.6,493.8h9.4v9.4h-9.4V493.8z"/>
	</g>
</g>
<path class="st6" d="M539.4,1030h1.7v50h-1.7V1030z"/>
<path class="st6" d="M0,481.9h306.9v1.7H0V481.9z"/>
<path class="st6" d="M0,502.3h304v1.7H0V502.3z"/>
<path class="st6" d="M0,522.8h301.8v1.7H0V522.8z"/>
<path class="st6" d="M0,584h304v1.7H0V584z"/>
<path class="st6" d="M0,604.5h309.6v1.7H0V604.5z"/>
<path class="st6" d="M0,563.6h301.8v1.7H0V563.6z"/>
<path class="st6" d="M0,543.2h301.8v1.7H0V543.2z"/>
<path class="st6" d="M0,624.9h319.5v1.7H0V624.9z"/>
<path class="st6" d="M568.2,919.6H855v1.7H568.2V919.6z"/>
<path class="st8" d="M567.5,798.8h-1.7l0-2h1.6c2.8,0,5.6,0,8.3-0.1l0.1,2C573.1,798.8,570.3,798.8,567.5,798.8z M555.8,798.6
	c-3.3-0.1-6.7-0.4-10-0.6l0.2-2c3.3,0.3,6.6,0.5,9.9,0.6L555.8,798.6z M585.9,798.2l-0.1-2c3.3-0.2,6.6-0.5,9.9-0.9l0.2,2
	C592.6,797.7,589.2,798,585.9,798.2L585.9,798.2z M535.8,796.9c-3.3-0.4-6.6-0.9-9.9-1.4l0.3-2c3.3,0.5,6.6,1,9.9,1.4L535.8,796.9z
	 M605.8,796.1l-0.3-2c3.3-0.5,6.6-1,9.8-1.6l0.4,2C612.5,795,609.1,795.6,605.8,796.1L605.8,796.1z M516,793.8
	c-3.3-0.7-6.6-1.4-9.8-2.1l0.5-1.9c3.2,0.8,6.5,1.5,9.7,2.1L516,793.8z M625.6,792.4l-0.4-2c3.2-0.7,6.5-1.5,9.7-2.4l0.5,1.9
	C632.1,790.9,628.8,791.7,625.6,792.4L625.6,792.4z M496.4,789.1c-3.2-0.9-6.4-1.9-9.6-2.9l0.6-1.9c3.1,1,6.4,2,9.5,2.9L496.4,789.1
	z M645,787.3l-0.6-1.9c3.2-1,6.4-2,9.5-3.1l0.7,1.9C651.4,785.3,648.2,786.4,645,787.3L645,787.3z M477.3,783
	c-3.1-1.1-6.3-2.3-9.4-3.6l0.8-1.9c3.1,1.2,6.2,2.4,9.3,3.6L477.3,783z M663.9,780.8l-0.7-1.9c3.1-1.2,6.2-2.5,9.2-3.8l0.8,1.8
	C670.2,778.3,667,779.6,663.9,780.8L663.9,780.8z M458.7,775.5c-3-1.4-6.1-2.8-9.1-4.3l0.9-1.8c3,1.5,6,2.9,9,4.3L458.7,775.5z
	 M682.4,772.8l-0.9-1.8c3-1.4,6-2.9,8.9-4.5l0.9,1.8C688.4,769.9,685.4,771.4,682.4,772.8L682.4,772.8z M440.8,766.5
	c-2.9-1.6-5.8-3.3-8.7-5l1-1.7c2.9,1.7,5.8,3.4,8.7,4.9L440.8,766.5z M700.2,763.5l-1-1.7c2.9-1.7,5.8-3.4,8.6-5.1l1.1,1.7
	C706,760.1,703.1,761.8,700.2,763.5L700.2,763.5z M423.5,756.3c-2.8-1.8-5.6-3.7-8.3-5.6l1.1-1.6c2.7,1.9,5.5,3.8,8.3,5.6
	L423.5,756.3z M717.2,752.8l-1.1-1.6c2.7-1.9,5.5-3.8,8.1-5.8l1.2,1.6C722.7,749,720,751,717.2,752.8z M407.1,744.8
	c-2.7-2-5.3-4.1-7.9-6.2l1.3-1.5c2.5,2.1,5.2,4.2,7.8,6.2L407.1,744.8z M733.4,740.9l-1.2-1.6c2.6-2.1,5.2-4.2,7.7-6.4l1.3,1.5
	C738.6,736.7,736,738.8,733.4,740.9L733.4,740.9z M391.6,732.1c-2.5-2.2-5-4.5-7.4-6.8l1.4-1.4c2.4,2.3,4.9,4.6,7.4,6.7L391.6,732.1
	z M748.6,727.8l-1.4-1.5c2.4-2.3,4.8-4.6,7.2-6.9l1.4,1.4C753.5,723.2,751.1,725.5,748.6,727.8z M377,718.2
	c-2.3-2.4-4.6-4.8-6.9-7.3l1.5-1.3c2.2,2.5,4.5,4.9,6.8,7.3L377,718.2z M762.8,713.6l-1.5-1.4c2.2-2.4,4.5-4.9,6.6-7.4l1.5,1.3
	C767.3,708.6,765,711.1,762.8,713.6L762.8,713.6z M363.6,703.2c-2.1-2.6-4.3-5.2-6.3-7.8l1.6-1.2c2,2.6,4.1,5.2,6.2,7.8L363.6,703.2
	z M775.8,698.3l-1.6-1.2c2.1-2.6,4.1-5.3,6-7.9l1.6,1.2C780,693,777.9,695.7,775.8,698.3L775.8,698.3z M351.3,687.3
	c-1.9-2.7-3.8-5.5-5.7-8.3l1.7-1.1c1.8,2.8,3.7,5.5,5.6,8.2L351.3,687.3z M787.7,682.1L786,681c1.9-2.7,3.7-5.6,5.4-8.4
	c0.6-0.9,1.1-1.8,1.7-2.7l1.7,1c-0.5,0.9-1.1,1.8-1.7,2.7C791.4,676.5,789.6,679.4,787.7,682.1L787.7,682.1z M340.3,670.5
	c-1.7-2.8-3.4-5.8-5-8.7l1.8-1c1.6,2.9,3.3,5.8,5,8.6L340.3,670.5z M799.9,662.3l-1.7-1c1.6-2.9,3.2-5.8,4.7-8.8l1.8,0.9
	C803.1,656.5,801.5,659.4,799.9,662.3L799.9,662.3z M330.6,653c-1.5-3-3-6-4.4-9l1.8-0.8c1.4,3,2.8,6,4.3,9L330.6,653z M809,644.5
	l-1.8-0.8c1.4-3,2.7-6.1,4-9.1l1.8,0.8C811.8,638.4,810.4,641.4,809,644.5L809,644.5z M322.2,634.7c-1.3-3.1-2.5-6.2-3.7-9.3
	l1.9-0.7c1.1,3.1,2.4,6.2,3.6,9.3L322.2,634.7z M816.7,626l-1.9-0.7c1.2-3.1,2.3-6.3,3.3-9.4l1.9,0.6
	C819,619.6,817.9,622.8,816.7,626L816.7,626z M315.2,615.9c-1-3.2-2-6.4-2.9-9.6l1.9-0.6c0.9,3.2,1.9,6.4,2.9,9.5L315.2,615.9z
	 M823,606.9l-1.9-0.6c0.9-3.2,1.8-6.4,2.6-9.6l1.9,0.5C824.9,600.4,824,603.7,823,606.9L823,606.9z M309.7,596.6
	c-0.8-3.2-1.5-6.5-2.2-9.8l2-0.4c0.7,3.2,1.4,6.5,2.2,9.7L309.7,596.6z M827.9,587.4l-2-0.4c0.7-3.2,1.3-6.5,1.8-9.8l2,0.3
	C829.2,580.8,828.6,584.2,827.9,587.4L827.9,587.4z M305.7,576.9c-0.5-3.3-1-6.6-1.5-9.9l2-0.3c0.4,3.3,0.9,6.6,1.5,9.9L305.7,576.9
	z M831.2,567.6l-2-0.3c0.4-3.3,0.8-6.6,1.1-9.9l2,0.2C832,561,831.7,564.3,831.2,567.6L831.2,567.6z M303.1,557
	c-0.3-3.3-0.5-6.7-0.7-10l2-0.1c0.2,3.3,0.4,6.6,0.7,9.9L303.1,557z M833.1,547.7l-2-0.1c0.2-3.3,0.3-6.6,0.3-10l2,0
	C833.4,541,833.3,544.3,833.1,547.7L833.1,547.7z M302,537c0-1.4,0-2.8,0-4.2c0-2,0-3.9,0.1-5.9l2,0c0,1.9-0.1,3.9-0.1,5.8
	c0,1.4,0,2.7,0,4.1L302,537z M831.4,527.6c-0.1-3.3-0.2-6.7-0.4-9.9l2-0.1c0.2,3.3,0.3,6.7,0.4,10L831.4,527.6z M304.5,517l-2-0.1
	c0.2-3.3,0.5-6.7,0.8-10l2,0.2C304.9,510.4,304.7,513.7,304.5,517L304.5,517z M830.2,507.8c-0.3-3.3-0.7-6.6-1.2-9.9l2-0.3
	c0.4,3.3,0.8,6.6,1.2,10L830.2,507.8z M306.4,497.2l-2-0.3c0.5-3.3,1-6.6,1.5-9.9l2,0.3C307.4,490.6,306.9,494,306.4,497.2z
	 M827.6,488c-0.6-3.3-1.2-6.6-1.9-9.8l2-0.4c0.7,3.2,1.3,6.6,1.9,9.9L827.6,488z M309.8,477.6l-2-0.4c0.7-3.2,1.5-6.5,2.3-9.8
	l1.9,0.5C311.3,471.1,310.5,474.4,309.8,477.6L309.8,477.6z M823.4,468.5c-0.8-3.2-1.7-6.4-2.6-9.6l1.9-0.6c0.9,3.2,1.8,6.4,2.6,9.7
	L823.4,468.5z M314.8,458.3l-1.9-0.6c0.9-3.2,2-6.4,3-9.6l1.9,0.6C316.7,451.9,315.7,455.1,314.8,458.3z M817.8,449.4
	c-1-3.1-2.2-6.3-3.3-9.4l1.9-0.7c1.2,3.1,2.3,6.3,3.4,9.5L817.8,449.4z M321.2,439.4l-1.9-0.7c1.2-3.1,2.4-6.2,3.8-9.3l1.8,0.8
	C323.6,433.3,322.3,436.4,321.2,439.4L321.2,439.4z M810.8,430.8c-1.3-3.1-2.6-6.1-4-9.1l1.8-0.8c1.4,3,2.8,6.1,4.1,9.2L810.8,430.8
	z M328.9,421.1l-1.8-0.9c1.4-3,2.9-6,4.4-9l1.8,0.9C331.8,415.1,330.3,418.1,328.9,421.1L328.9,421.1z M802.4,412.7
	c-1.5-3-3.1-5.9-4.7-8.8l1.7-1c1.6,2.9,3.2,5.9,4.7,8.9L802.4,412.7z M338.1,403.4l-1.7-1c1.6-2.9,3.4-5.8,5.1-8.6l1.7,1
	C341.4,397.7,339.7,400.6,338.1,403.4L338.1,403.4z M792.7,395.3c-1.7-2.8-3.5-5.7-5.4-8.4l1.7-1.1c1.8,2.8,3.7,5.6,5.4,8.5
	L792.7,395.3z M348.5,386.5l-1.7-1.1c1.8-2.8,3.8-5.5,5.7-8.2l1.6,1.2C352.3,381,350.4,383.7,348.5,386.5L348.5,386.5z M781.6,378.7
	c-1.9-2.7-4-5.4-6-8l1.6-1.2c2.1,2.6,4.1,5.3,6,8L781.6,378.7z M360.2,370.3l-1.6-1.2c2-2.6,4.2-5.2,6.3-7.8l1.5,1.3
	C364.4,365.1,362.2,367.7,360.2,370.3L360.2,370.3z M769.4,363c-2.1-2.5-4.4-5.1-6.6-7.5l1.5-1.3c2.2,2.5,4.5,5,6.6,7.6L769.4,363z
	 M373.1,355.1l-1.5-1.3c2.3-2.5,4.6-4.9,6.9-7.3l1.4,1.4C377.6,350.2,375.3,352.7,373.1,355.1L373.1,355.1z M755.9,348.3
	c-2.3-2.4-4.7-4.7-7.1-7l1.4-1.5c2.4,2.3,4.8,4.7,7.2,7L755.9,348.3z M387.1,340.9l-1.4-1.5c2.4-2.3,4.9-4.5,7.5-6.7l1.3,1.5
	C392,336.4,389.5,338.6,387.1,340.9z M741.4,334.6c-2.5-2.2-5.1-4.3-7.6-6.4l1.3-1.6c2.6,2.1,5.2,4.3,7.7,6.5L741.4,334.6z
	 M402.1,327.8l-1.3-1.6c2.6-2.1,5.3-4.2,7.9-6.2l1.2,1.6C407.3,323.7,404.7,325.7,402.1,327.8z M725.9,322.1c-2.7-2-5.4-3.9-8.1-5.8
	l1.1-1.6c2.7,1.9,5.5,3.9,8.1,5.9L725.9,322.1z M418.1,315.9l-1.1-1.6c2.7-1.9,5.6-3.8,8.4-5.5l1.1,1.7
	C423.6,312.1,420.8,314,418.1,315.9L418.1,315.9z M709.5,310.7c-0.7-0.5-1.5-0.9-2.2-1.4c-2.1-1.3-4.2-2.6-6.3-3.8l1-1.7
	c2.1,1.2,4.3,2.5,6.3,3.8c0.7,0.5,1.5,0.9,2.2,1.4L709.5,310.7z M434.9,305.2l-1-1.7c2.9-1.7,5.8-3.3,8.8-4.9l0.9,1.8
	C440.7,301.9,437.8,303.5,434.9,305.2L434.9,305.2z M692.3,300.7c-2.9-1.6-5.9-3.1-8.9-4.5l0.9-1.8c3,1.5,6,3,8.9,4.6L692.3,300.7z
	 M452.5,295.8l-0.9-1.8c3-1.5,6.1-2.9,9.1-4.2l0.8,1.8C458.5,293,455.5,294.4,452.5,295.8L452.5,295.8z M674.4,291.9
	c-3-1.3-6.1-2.6-9.2-3.9l0.7-1.9c3.1,1.2,6.2,2.5,9.2,3.9L674.4,291.9z M470.8,287.8L470,286c3.1-1.2,6.3-2.4,9.4-3.5l0.7,1.9
	C477,285.4,473.8,286.6,470.8,287.8L470.8,287.8z M656,284.5c-3.1-1.1-6.3-2.2-9.4-3.2l0.6-1.9c3.2,1,6.4,2.1,9.5,3.2L656,284.5z
	 M489.6,281.2l-0.6-1.9c3.2-1,6.4-1.9,9.6-2.8l0.5,1.9C495.9,279.3,492.7,280.2,489.6,281.2L489.6,281.2z M636.9,278.6
	c-3.2-0.9-6.4-1.7-9.7-2.4l0.5-2c3.2,0.8,6.5,1.6,9.7,2.5L636.9,278.6z M508.8,276.1l-0.4-1.9c3.2-0.7,6.5-1.4,9.8-2.1l0.4,2
	C515.3,274.6,512,275.3,508.8,276.1L508.8,276.1z M617.5,274.1c-3.3-0.6-6.6-1.2-9.8-1.7l0.3-2c3.3,0.5,6.6,1.1,9.9,1.7L617.5,274.1
	z M528.4,272.3l-0.3-2c3.3-0.5,6.6-0.9,9.9-1.3l0.2,2C535,271.4,531.6,271.8,528.4,272.3L528.4,272.3z M597.9,271
	c-3.3-0.4-6.6-0.7-9.9-0.9l0.2-2c3.3,0.3,6.7,0.6,10,1L597.9,271z M548.1,270.1l-0.2-2c3.3-0.2,6.7-0.4,10-0.6l0.1,2
	C554.8,269.7,551.4,269.8,548.1,270.1L548.1,270.1z M578,269.5c-3.3-0.1-6.6-0.2-10-0.2v-2c3.3,0,6.7,0.1,10,0.2L578,269.5z"/>
<path class="st22" d="M948,658.5c3.3,19.8,7.6,39.7,12.6,59.1l10.2-2.6c-4.9-19.2-9.1-38.7-12.4-58.2L948,658.5z"/>
<path class="st22" d="M974.8,765.9c6.3,19,13.6,38,21.5,56.5l9.6-4.1c-7.8-18.2-14.9-36.9-21.2-55.6L974.8,765.9z"/>
<path class="st22" d="M979.1,332.9l-10-3.1c-5.9,19.2-11,38.8-15.2,58.5l10.3,2.2C968.3,371.1,973.3,351.8,979.1,332.9L979.1,332.9z
	"/>
<path class="st22" d="M948.4,548.1l-10.5,0.1c0.3,20,1.4,40.3,3.4,60.3l10.4-1C949.8,587.9,948.7,567.9,948.4,548.1L948.4,548.1z"/>
<path class="st22" d="M1009.6,226.8c-8.8,18.1-16.9,36.7-24.1,55.4l9.8,3.8c7.1-18.4,15.1-36.8,23.7-54.6L1009.6,226.8z"/>
<path class="st22" d="M939,498l10.5,0.6c1.1-19.8,3.1-39.7,5.9-59.2l-10.4-1.5C942.1,457.7,940.1,477.9,939,498L939,498z"/>
<path class="st22" d="M1182.6,0c-3.8,3.3-7.6,6.7-11.3,10.1l7.1,7.8c6.6-6.1,13.5-12.1,20.4-17.9L1182.6,0z"/>
<path class="st22" d="M1148.1,1046.1c14.2,14.2,29.2,27.9,44.6,40.8l6.8-8c-15.2-12.7-29.9-26.3-44-40.2L1148.1,1046.1z"/>
<path class="st22" d="M1017.8,867.9c9.2,17.8,19.3,35.5,29.9,52.5l8.9-5.6c-10.5-16.7-20.4-34.1-29.5-51.7L1017.8,867.9z"/>
<path class="st22" d="M1095.6,90.9l8.2,6.6c12.4-15.5,25.6-30.5,39.2-44.9l-7.6-7.2C1121.5,59.9,1108.2,75.2,1095.6,90.9z"/>
<path class="st22" d="M1046.5,160.2c-4.5,7.2-9,14.7-13.3,22.1l9.1,5.2c4.2-7.3,8.6-14.6,13.1-21.8c6-9.6,12.3-19.2,18.8-28.6
	l-8.6-6C1059,140.7,1052.6,150.5,1046.5,160.2L1046.5,160.2z"/>
<path class="st22" d="M1076,962.1c11.9,16.2,24.6,32.1,37.7,47.2l7.9-6.9c-13-14.9-25.5-30.6-37.2-46.5L1076,962.1z"/>
<path class="st5" d="M1729.1,192l-3.5-2.3c8-12.4,4.3-29-8.1-36.9c-9.4-6-21.6-5.6-30.6,1.2l-2.5-3.3c13.6-10.3,33-7.6,43.3,6
	C1735.5,167,1736.1,181.1,1729.1,192z"/>
<path class="st5" d="M1670,846.8c-6.7,0-13.3-2.2-18.7-6.3l2.5-3.3c11.8,8.9,28.5,6.6,37.5-5.2c6.8-8.9,7.2-21.1,1.2-30.6l3.5-2.3
	c9.2,14.4,5,33.5-9.4,42.8C1681.7,845.1,1675.9,846.8,1670,846.8L1670,846.8z"/>
<path class="st8" d="M311.6,359h9.4v9.4h-9.4V359z"/>
<path class="st6" d="M289.4,373.6h9.4v9.4h-9.4V373.6z"/>
<path class="st8" d="M244.2,365.4h9.4v9.4h-9.4V365.4z"/>
<path class="st8" d="M259.7,355.6h9.4v9.4h-9.4V355.6z"/>
<path class="st8" d="M278.5,360.7h9.4v9.4h-9.4V360.7z"/>
<path class="st8" d="M298.1,361.7l8.9,2.9l-2.9,8.9l-8.9-2.9L298.1,361.7z"/>
<path class="st8" d="M175.1,354.3h9.4v9.4h-9.4V354.3z"/>
<path class="st8" d="M223.8,362.1h9.4v9.4h-9.4V362.1z"/>
<path class="st8" d="M209.2,349.4l8.9,2.9l-2.9,8.9l-8.9-2.9L209.2,349.4z"/>
<path class="st8" d="M242.6,350.9h9.4v9.4h-9.4V350.9z"/>
<path class="st8" d="M206.4,323.8h9.4v9.4h-9.4V323.8z"/>
<path class="st8" d="M162.5,344h9.4v9.4h-9.4V344z"/>
<path class="st8" d="M160.9,326.5h9.4v9.4h-9.4V326.5z"/>
<path class="st8" d="M129.6,317.7h9.4v9.4h-9.4V317.7z"/>
<path class="st8" d="M73.2,319.6h9.4v9.4h-9.4V319.6z"/>
<path class="st8" d="M29.9,317h9.4v9.4h-9.4V317z"/>
<path class="st8" d="M7.2,316.5h9.4v9.4H7.2L7.2,316.5z"/>
<path class="st8" d="M189.3,346.2h9.4v9.4h-9.4V346.2z"/>
<path class="st8" d="M130.1,343.3h9.4v9.4h-9.4V343.3z"/>
<path class="st8" d="M144.1,330.5h9.4v9.4h-9.4V330.5z"/>
<path class="st8" d="M176.3,332.4h9.4v9.4h-9.4V332.4z"/>
<path class="st8" d="M206.4,338.6h9.4v9.4h-9.4V338.6z"/>
<path class="st6" d="M226.1,346.2h9.4v9.4h-9.4V346.2z"/>
<path class="st8" d="M77.1,353.3l9.1-2.2l2.2,9.1l-9.1,2.2L77.1,353.3z"/>
<path class="st8" d="M-0.5,369.8l9.1-2.2l2.2,9.1L1.7,379L-0.5,369.8z"/>
<path class="st8" d="M286.5,347.4h9.4v9.4h-9.4V347.4z"/>
<path class="st8" d="M259.2,338.6h9.4v9.4h-9.4V338.6z"/>
<path class="st8" d="M148.8,349.9l8.7,3.5l-3.5,8.7l-8.7-3.5L148.8,349.9z"/>
<path class="st8" d="M112.5,341.5l8.7,3.5l-3.5,8.7l-8.7-3.5L112.5,341.5z"/>
<path class="st6" d="M119.3,327.8l9.4-0.7l0.7,9.4l-9.4,0.7L119.3,327.8z"/>
<path class="st8" d="M63.3,362.8l8.7,3.5l-3.5,8.7l-8.7-3.5L63.3,362.8z"/>
<path class="st8" d="M125.2,353.2l8.7,3.5l-3.5,8.7l-8.7-3.5L125.2,353.2z"/>
<path class="st8" d="M92.6,357.2l8.7,3.5l-3.5,8.7l-8.7-3.5L92.6,357.2z"/>
<path class="st8" d="M60.7,346l8.7,3.5l-3.5,8.7l-8.7-3.5L60.7,346z"/>
<path class="st8" d="M29.1,346l8.7,3.5l-3.5,8.7l-8.7-3.5L29.1,346z"/>
<path class="st6" d="M3.1,349.6l9.4,0.5l-0.5,9.4L2.6,359L3.1,349.6z"/>
<path class="st8" d="M15.4,377.2l8.7,3.5l-3.5,8.7l-8.7-3.5L15.4,377.2z"/>
<path class="st8" d="M3.5,331l8.7,3.5l-3.5,8.7L0,339.7L3.5,331z"/>
<path class="st8" d="M39.3,372.2l8.7,3.5l-3.5,8.7l-8.7-3.5L39.3,372.2z"/>
<path class="st8" d="M38.9,400.2l8.7,3.5l-3.5,8.7l-8.7-3.5L38.9,400.2z"/>
<path class="st8" d="M91.2,375.3l8.7,3.5l-3.5,8.7l-8.7-3.5L91.2,375.3z"/>
<path class="st8" d="M114.4,371l8.7,3.5l-3.5,8.7l-8.7-3.5L114.4,371z"/>
<path class="st8" d="M188.3,358.7l8.7,3.5l-3.5,8.7l-8.7-3.5L188.3,358.7z"/>
<path class="st8" d="M136.4,367.7h9.4v9.4h-9.4V367.7z"/>
<path class="st8" d="M73,385.2l9.4-0.4l0.4,9.4l-9.4,0.4L73,385.2z"/>
<path class="st8" d="M76.8,369.5l8.7,3.5l-3.5,8.7l-8.7-3.5L76.8,369.5z"/>
<path class="st8" d="M55.1,393.5l9.3-1.6l1.6,9.3l-9.3,1.6L55.1,393.5z"/>
<path class="st8" d="M19.1,331.9l9.3-1.6l1.6,9.3l-9.3,1.6L19.1,331.9z"/>
<path class="st8" d="M98.4,320.5l9.3,1.5l-1.5,9.3l-9.3-1.5L98.4,320.5z"/>
<path class="st8" d="M41.2,332.5l9.3,1.5l-1.5,9.3l-9.3-1.5L41.2,332.5z"/>
<path class="st8" d="M60.7,302.8l9.3,1.5l-1.5,9.3l-9.3-1.5L60.7,302.8z"/>
<path class="st8" d="M85.3,305.8l9.3,1.5l-1.5,9.3l-9.3-1.5L85.3,305.8z"/>
<path class="st8" d="M114.6,308.2l9.3,1.5l-1.5,9.3l-9.3-1.5L114.6,308.2z"/>
<path class="st8" d="M145.5,315.7l9-2.7l2.7,9l-9,2.7L145.5,315.7z"/>
<path class="st8" d="M175.1,320l9-2.7l2.7,9l-9,2.7L175.1,320z"/>
<path class="st8" d="M70.6,335.4l9.3-1.6l1.6,9.3l-9.3,1.6L70.6,335.4z"/>
<path class="st8" d="M232.7,329.6l9.1,2.2l-2.2,9.1l-9.1-2.2L232.7,329.6z"/>
<path class="st8" d="M331.7,371l8.7,3.5l-3.5,8.7l-8.7-3.5L331.7,371z"/>
<path class="st8" d="M367.6,374.3l8.7,3.5l-3.5,8.7L364,383L367.6,374.3z"/>
<path class="st8" d="M353.1,391.1l7.6,5.5l-5.5,7.6l-7.6-5.5L353.1,391.1z"/>
<path class="st8" d="M376.6,394.5l7.6,5.5l-5.5,7.6l-7.6-5.5L376.6,394.5z"/>
<path class="st8" d="M387.8,388.2l9.1,2.2l-2.2,9.1l-9.1-2.2L387.8,388.2z"/>
<path class="st6" d="M311.6,383.7l8.6-3.9l3.9,8.6l-8.6,3.9L311.6,383.7z"/>
<path class="st6" d="M346.5,374.8l8.6-3.9l3.9,8.6l-8.6,3.9L346.5,374.8z"/>
<path class="st6" d="M391.8,408.4l8.6-3.9l3.9,8.6l-8.6,3.9L391.8,408.4z"/>
<path class="st6" d="M265.7,370.1h9.4v9.4h-9.4V370.1z"/>
<path class="st6" d="M206.4,364.3h9.4v9.4h-9.4V364.3z"/>
<path class="st6" d="M107,356h9.4v9.4H107V356z"/>
<path class="st6" d="M158.6,364.3h9.4v9.4h-9.4V364.3z"/>
<path class="st6" d="M46.1,355.3l8.7,3.5l-3.5,8.7l-8.7-3.5L46.1,355.3z"/>
<path class="st6" d="M25.2,385.8l8.7,3.5l-3.5,8.7l-8.7-3.5L25.2,385.8z"/>
<path class="st6" d="M4.4,300.3l8.7,3.5l-3.5,8.7l-8.7-3.5L4.4,300.3z"/>
<path class="st6" d="M57.5,318.1l8.7,3.5l-3.5,8.7l-8.7-3.5L57.5,318.1z"/>
<path class="st6" d="M30.3,302.6l9.3-1.6l1.6,9.3l-9.3,1.6L30.3,302.6z"/>
<path class="st6" d="M20.8,411.7l8.7,3.5l-3.5,8.7l-8.7-3.5L20.8,411.7z"/>
<path class="st6" d="M3.5,429.5l8.7,3.5l-3.5,8.7L0,438.2L3.5,429.5z"/>
<path class="st6" d="M24.9,365.1l9.3-1.6l1.6,9.3l-9.3,1.6L24.9,365.1z"/>
<path class="st6" d="M1.6,391.7l9.3-1.6l1.6,9.3L3.2,401L1.6,391.7z"/>
<path class="st6" d="M90.5,343.3h9.4v9.4h-9.4V343.3z"/>
<g>
	<path class="st8" d="M418.3,397.7l7.6,5.5l-5.5,7.6l-7.6-5.5L418.3,397.7z"/>
	<path class="st8" d="M435.2,433.5l9.1,2.2l-2.2,9.1l-9.1-2.2L435.2,433.5z"/>
	<path class="st8" d="M409.7,415.7l9.1,2.2l-2.2,9.1l-9.1-2.2L409.7,415.7z"/>
	<path class="st8" d="M439.4,415.7l9.1,2.2l-2.2,9.1l-9.1-2.2L439.4,415.7z"/>
	<path class="st8" d="M458.4,437.9l9.1,2.2l-2.2,9.1l-9.1-2.2L458.4,437.9z"/>
	<path class="st8" d="M483.1,451h9.4v9.4h-9.4V451z"/>
	<path class="st8" d="M496.8,461.8h9.4v9.4h-9.4V461.8z"/>
	<path class="st8" d="M464.9,459h9.4v9.4h-9.4V459z"/>
	<path class="st8" d="M472.6,434.5h9.4v9.4h-9.4V434.5z"/>
	<path class="st8" d="M716.9,664.6l-8.5-3.9l3.9-8.5l8.5,3.9L716.9,664.6z"/>
	<path class="st8" d="M773.2,701l-8.5-3.9l3.9-8.5l8.5,3.9L773.2,701z"/>
	<path class="st8" d="M733,703l-8.5-3.9l3.9-8.5l8.5,3.9L733,703z"/>
	<path class="st8" d="M776.8,720.8l-8.5-3.9l3.9-8.5l8.5,3.9L776.8,720.8z"/>
	<path class="st8" d="M754.2,710.3l-8.5-3.9l3.9-8.5l8.5,3.9L754.2,710.3z"/>
	<path class="st8" d="M811.2,732.6l-8.5-3.9l3.9-8.5l8.5,3.9L811.2,732.6z"/>
	<path class="st8" d="M865.1,750.1l-9.2-1.9l1.9-9.2l9.2,1.9L865.1,750.1z"/>
	<path class="st8" d="M672.7,658.2l-8.5-3.9l3.9-8.5l8.5,3.9L672.7,658.2z"/>
	<path class="st8" d="M698.1,676.6l-8.5-3.9l3.9-8.5l8.5,3.9L698.1,676.6z"/>
	<path class="st8" d="M803.6,713.5l-6.4-6.8l6.8-6.4l6.4,6.8L803.6,713.5z"/>
	<path class="st8" d="M788.3,702.6l-6.4-6.8l6.8-6.4l6.4,6.8L788.3,702.6z"/>
	<path class="st8" d="M755.2,670.4l-6.4-6.8l6.8-6.4l6.4,6.8L755.2,670.4z"/>
	<path class="st8" d="M734.5,666.2l-6.4-6.8l6.8-6.4l6.4,6.8L734.5,666.2z"/>
	<path class="st8" d="M706.4,643.7l-1-9.3l9.3-1l1,9.3L706.4,643.7z"/>
	<path class="st8" d="M668.3,608.1v-9.4h9.4v9.4H668.3z"/>
	<path class="st8" d="M826.5,741.6l-6.4-6.8l6.8-6.4l6.4,6.8L826.5,741.6z"/>
	<path class="st8" d="M819.9,725.6l-6.4-6.8l6.8-6.4l6.4,6.8L819.9,725.6z"/>
	<path class="st8" d="M851.1,735.7l-6.4-6.8l6.8-6.4l6.4,6.8L851.1,735.7z"/>
	<path class="st8" d="M718.2,683.6l-7.4-5.8l5.8-7.4l7.4,5.8L718.2,683.6z"/>
	<path class="st8" d="M673.5,680.7l-8.9-2.9l2.9-8.9l8.9,2.9L673.5,680.7z"/>
	<path class="st8" d="M650.3,664.3l-8.9-2.9l2.9-8.9l8.9,2.9L650.3,664.3z"/>
</g>
<path class="st6" d="M695.3,653.8l-8.5-3.9l3.9-8.5l8.5,3.9L695.3,653.8z"/>
<path class="st6" d="M769.2,684.3l-8.5-3.9l3.9-8.5l8.5,3.9L769.2,684.3z"/>
<path class="st6" d="M744.6,686.9l-8.5-3.9l3.9-8.5l8.5,3.9L744.6,686.9z"/>
<path class="st6" d="M837.5,730.7l-8.5-3.9l3.9-8.5l8.5,3.9L837.5,730.7z"/>
<path class="st6" d="M794.9,730.2l-8.5-3.9l3.9-8.5l8.5,3.9L794.9,730.2z"/>
<path class="st6" d="M845.5,746.9L837,743l3.9-8.5l8.5,3.9L845.5,746.9z"/>
<path class="st8" d="M942.8,730l9.4-0.6l0.6,9.4l-9.4,0.6L942.8,730z"/>
<path class="st8" d="M1085.8,692.5l8.5-3.9l3.9,8.5l-8.5,3.9L1085.8,692.5z"/>
<path class="st8" d="M921.3,735.2l8.5-3.9l3.9,8.5l-8.5,3.9L921.3,735.2z"/>
<path class="st8" d="M1080.3,708.7l8.5-3.9l3.9,8.5l-8.5,3.9L1080.3,708.7z"/>
<path class="st8" d="M1101.6,686.2l8.5-3.9l3.9,8.5l-8.5,3.9L1101.6,686.2z"/>
<path class="st8" d="M1049.6,721.4l8.5-3.9l3.9,8.5l-8.5,3.9L1049.6,721.4z"/>
<path class="st8" d="M989.8,728.3l9.2-1.9l1.9,9.2l-9.2,1.9L989.8,728.3z"/>
<path class="st8" d="M986.2,740.2l9.4-0.6l0.6,9.4l-9.4,0.6L986.2,740.2z"/>
<path class="st8" d="M955,744.5l9.4-0.6l0.6,9.4l-9.4,0.6L955,744.5z"/>
<path class="st8" d="M970.9,743.5l9.4-0.6l0.6,9.4l-9.4,0.6L970.9,743.5z"/>
<path class="st8" d="M1056.1,708.5l6.4-6.8l6.8,6.4l-6.4,6.8L1056.1,708.5z"/>
<path class="st8" d="M1031.4,732.4l6.4-6.8l6.8,6.4l-6.4,6.8L1031.4,732.4z"/>
<path class="st8" d="M1038,716.5l6.4-6.8l6.8,6.4l-6.4,6.8L1038,716.5z"/>
<path class="st8" d="M1007.1,726l6.4-6.9l6.9,6.4l-6.4,6.9L1007.1,726z"/>
<path class="st8" d="M931.3,746.2l9-2.7l2.7,9l-9,2.7L931.3,746.2z"/>
<path class="st6" d="M963.8,729.3l9.4-0.6l0.6,9.4l-9.4,0.6L963.8,729.3z"/>
<path class="st6" d="M908.8,745.2l9.4-0.6l0.6,9.4l-9.4,0.6L908.8,745.2z"/>
<path class="st8" d="M864,731.3l5.5-7.6l7.6,5.5l-5.5,7.6L864,731.3z"/>
<path class="st8" d="M872,748.5l2.4-9.1l9.1,2.4l-2.4,9.1L872,748.5z"/>
<path class="st8" d="M894.8,736.9l3.6-8.7l8.7,3.6l-3.6,8.7L894.8,736.9z"/>
<path class="st6" d="M887.8,748.2l5.5-7.6l7.6,5.5l-5.5,7.6L887.8,748.2z"/>
<path class="st6" d="M1023.2,719.5l8.5-3.9l3.9,8.5l-8.5,3.9L1023.2,719.5z"/>
<path class="st6" d="M1013.6,738l8.5-3.9l3.9,8.5l-8.5,3.9L1013.6,738z"/>
<path class="st6" d="M1066.1,716.8l8.5-3.9l3.9,8.5l-8.5,3.9L1066.1,716.8z"/>
<path class="st6" d="M1096.9,702h9.4v9.4h-9.4V702z"/>
<path class="st6" d="M1070.1,697.9l8.5-3.9l3.9,8.5l-8.5,3.9L1070.1,697.9z"/>
<path class="st6" d="M1110,697.9l8.5-3.9l3.9,8.5l-8.5,3.9L1110,697.9z"/>
<path class="st6" d="M998.9,740.3l8.5-3.9l3.9,8.5l-8.5,3.9L998.9,740.3z"/>
<path class="st8" d="M1878.4,440.7l7.3,5.9l-5.9,7.3l-7.3-5.9L1878.4,440.7z"/>
<path class="st8" d="M1910.6,450.8l7.3,5.9l-5.9,7.3l-7.3-5.9L1910.6,450.8z"/>
<path class="st8" d="M1877,423.7l7.3,5.9l-5.9,7.3l-7.3-5.9L1877,423.7z"/>
<path class="st8" d="M1894.4,443.3l7.3,5.9l-5.9,7.3l-7.3-5.9L1894.4,443.3z"/>
<path class="st8" d="M1850.2,403.9l7.3,5.9l-5.9,7.3l-7.3-5.9L1850.2,403.9z"/>
<path class="st8" d="M1802.7,378.4l8.5,4l-4,8.5l-8.5-4L1802.7,378.4z"/>
<path class="st8" d="M1860.7,420.8l4.6,8.2l-8.2,4.6l-4.6-8.2L1860.7,420.8z"/>
<path class="st8" d="M1837.6,391.4l4.6,8.2l-8.2,4.6l-4.6-8.2L1837.6,391.4z"/>
<path class="st8" d="M1840.1,408.6l4.6,8.2l-8.2,4.6l-4.6-8.2L1840.1,408.6z"/>
<path class="st8" d="M1812.3,391.1l4.6,8.2l-8.2,4.6l-4.6-8.2L1812.3,391.1z"/>
<path class="st6" d="M1903.7,464.4l7.3,5.9l-5.9,7.3l-7.3-5.9L1903.7,464.4z"/>
<path class="st6" d="M1824.3,399.2l7.3,5.9l-5.9,7.3l-7.3-5.9L1824.3,399.2z"/>
<path class="st6" d="M1819.4,379l7.3,5.9l-5.9,7.3l-7.3-5.9L1819.4,379z"/>
<path class="st8" d="M1722,374.3l-9.2-1.7l1.7-9.2l9.2,1.7L1722,374.3z"/>
<path class="st8" d="M1580.4,381l-9.2,1.7l-1.7-9.2l9.2-1.7L1580.4,381z"/>
<path class="st8" d="M1744.1,374.4l-9.2,1.7l-1.7-9.2l9.2-1.7L1744.1,374.4z"/>
<path class="st8" d="M1585.8,364.8l-9.2,1.7l-1.7-9.2l9.2-1.7L1585.8,364.8z"/>
<path class="st8" d="M1567,391.3l-9.2,1.7l-1.7-9.2l9.2-1.7L1567,391.3z"/>
<path class="st8" d="M1616.3,356.6l-9.2,1.7l-1.7-9.2l9.2-1.7L1616.3,356.6z"/>
<path class="st8" d="M1676,364.5l-9.4-0.4l0.4-9.4l9.4,0.4L1676,364.5z"/>
<path class="st8" d="M1682.3,353.8l-9.2-1.7l1.7-9.2l9.2,1.7L1682.3,353.8z"/>
<path class="st8" d="M1713.7,357.3l-9.2-1.7l1.7-9.2l9.2,1.7L1713.7,357.3z"/>
<path class="st8" d="M1698,354.4l-9.2-1.7l1.7-9.2l9.2,1.7L1698,354.4z"/>
<path class="st8" d="M1608.9,370.2l-7.9,5.1l-5.1-7.9l7.9-5.1L1608.9,370.2z"/>
<path class="st8" d="M1636.7,350.3l-7.9,5.1l-5.1-7.9l7.9-5.1L1636.7,350.3z"/>
<path class="st8" d="M1626.3,364.2l-7.9,5.1l-5.1-7.9l7.9-5.1L1626.3,364.2z"/>
<path class="st8" d="M1659.2,361.2l-7.9,5.1l-5.1-7.9l7.9-5.1L1659.2,361.2z"/>
<path class="st8" d="M1736.9,361.9l-9.4,0.4l-0.4-9.4l9.4-0.4L1736.9,361.9z"/>
<path class="st6" d="M1701.5,369.9l-9.2-1.7l1.7-9.2l9.2,1.7L1701.5,369.9z"/>
<path class="st6" d="M1757.6,372.2l-9.2-1.7l1.7-9.2l9.2,1.7L1757.6,372.2z"/>
<path class="st8" d="M1798.7,392.3l-7.2,6l-6-7.2l7.2-6L1798.7,392.3z"/>
<path class="st8" d="M1793.5,376.7l-4.5,8.2l-8.2-4.5l4.5-8.2L1793.5,376.7z"/>
<path class="st8" d="M1770.2,379.3l-5.6,7.5l-7.5-5.6l5.6-7.5L1770.2,379.3z"/>
<path class="st6" d="M1779.8,370.1l-7.2,6l-6-7.2l7.2-6L1779.8,370.1z"/>
<path class="st6" d="M1641.4,364.8l-9.2,1.7l-1.7-9.2l9.2-1.7L1641.4,364.8z"/>
<path class="st6" d="M1654.5,349.8l-9.2,1.7l-1.7-9.2l9.2-1.7L1654.5,349.8z"/>
<path class="st6" d="M1599.2,357l-9.2,1.7l-1.7-9.2l9.2-1.7L1599.2,357z"/>
<path class="st6" d="M1568.8,372l-9.1-2.3l2.3-9.1l9.1,2.3L1568.8,372z"/>
<path class="st6" d="M1594.4,375.9l-9.2,1.7l-1.7-9.2l9.2-1.7L1594.4,375.9z"/>
<path class="st6" d="M1557.7,379.9l-9.2,1.7l-1.7-9.2l9.2-1.7L1557.7,379.9z"/>
<path class="st6" d="M1670.1,350.6l-9.2,1.7l-1.7-9.2l9.2-1.7L1670.1,350.6z"/>
<path class="st22" d="M963.1,655.5C921.8,409.3,1014.5,159.6,1206.5,0h-7.8c-297.8,251.6-335.2,696.9-83.6,994.6
	c27.6,32.7,58.2,62.8,91.3,90l3.2-3.9C1078.6,973.4,991.1,822.4,963.1,655.5L963.1,655.5z"/>
<path class="st2" d="M1475.7,0l-96.6,38.9l1.1,2.8L1483.8,0L1475.7,0z"/>
<path class="st2" d="M1611.5,0l-69.2,66.7l-0.4,0.4l-5.5,99.8l-143.3,25.4l94-123.7l-2.4-1.8L1386,196.7l152-27l1.2-0.2l5.6-101
	l71-68.5L1611.5,0z"/>
<path class="st2" d="M1635,0l49.4,80l-86.7,94.8l2.2,2l88.3-96.4L1638.5,0L1635,0z"/>
<path class="st5" d="M1842.2,0L1718,150l8.8,8.4L1904.8,0L1842.2,0z"/>
<path class="st2" d="M1547.4,1080l18.7-67.6l-2.9-0.8l-19,68.4H1547.4z"/>
<path class="st2" d="M1438.8,1080l-27.8-63.9l-2.8,1.2l27.3,62.7H1438.8z"/>
<path class="st2" d="M1371.4,1080l-49.8-50.8l-2.1,2.1l47.7,48.7H1371.4z"/>
<path class="st5" d="M1920.1,1034.2l-226.4-201.4l-8.8,8.4l197.7,238.8h37.4V1034.2z"/>
</svg>
