<?xml version="1.0" encoding="utf-8"?>
<!-- Generator: Adobe Illustrator 24.2.3, SVG Export Plug-In . SVG Version: 6.00 Build 0)  -->
<svg version="1.1" id="Ebene_1" xmlns="http://www.w3.org/2000/svg" xmlns:xlink="http://www.w3.org/1999/xlink" x="0px" y="0px"
	 viewBox="0 0 1920 1080" style="enable-background:new 0 0 1920 1080;" xml:space="preserve">
<style type="text/css">
	.st0{fill:#EEE9E0;}
	.st1{fill:#C7B799;}
	.st2{fill:#3A2A78;}
	.st3{fill:#EFC0B8;}
	.st4{fill:#A480AF;}
	.st5{fill:#E9E06C;}
	.st6{fill:#1A9A69;}
	.st7{opacity:0.4;}
	.st8{clip-path:url(#SVGID_2_);}
	.st9{fill:#3A2B78;}
	.st10{clip-path:url(#SVGID_4_);}
	.st11{clip-path:url(#SVGID_6_);}
	.st12{clip-path:url(#SVGID_8_);}
	.st13{clip-path:url(#SVGID_10_);}
	.st14{clip-path:url(#SVGID_12_);}
	.st15{clip-path:url(#SVGID_14_);}
	.st16{clip-path:url(#SVGID_16_);}
	.st17{clip-path:url(#SVGID_18_);}
	.st18{clip-path:url(#SVGID_20_);}
	.st19{clip-path:url(#SVGID_22_);}
	.st20{fill:#D8D400;}
	.st21{fill:#D7737E;}
	.st22{fill:#E98800;}
	.st23{clip-path:url(#SVGID_24_);}
	.st24{clip-path:url(#SVGID_26_);}
	.st25{fill:#1B124F;}
</style>
<g>
	<g id="bb38e45a-a0ec-41ea-b893-37e32fefc81b">
		<g>
			<polyline class="st0" points="1920,0 0,0 0,1080 1920,1080 1920,0 			"/>
		</g>
		<path class="st1" d="M1598.7,570.8c0,0-4.8,13.6-8.7,16s-36.6,0-36.6,0l43.7,23l29.3-2.8l-13.5-32.7L1598.7,570.8z"/>
		<path class="st2" d="M1597.1,610.4l-46.6-24.4l3,0.2c13.1,1,33.5,1.8,36.2,0.1c3-1.9,7.1-11.9,8.4-15.7l0.2-0.5l15.1,3.6l0.1,0.3
			l13.8,33.5L1597.1,610.4z M1556.4,587.6l41,21.5l28.2-2.7l-13.1-31.7l-13.4-3.2c-0.9,2.6-5.1,13.5-8.7,15.8
			C1587.1,589.4,1564.9,588.1,1556.4,587.6L1556.4,587.6z"/>
		<polygon class="st3" points="1707.9,910.2 1701.9,896.9 1717,896.1 1721.9,912.9 1723,917 1709.2,915.7 		"/>
		<path class="st2" d="M1723,917.6C1723,917.6,1722.9,917.6,1723,917.6l-13.9-1.3c-0.3,0-0.5-0.2-0.5-0.5l-1.3-5.4l-6-13.2
			c-0.1-0.3,0-0.7,0.3-0.8c0.1,0,0.1,0,0.2-0.1l15.1-0.8c0.3,0,0.5,0.2,0.6,0.4l4.9,16.8l1.1,4.1
			C1723.6,917.1,1723.4,917.5,1723,917.6C1723.1,917.6,1723,917.6,1723,917.6L1723,917.6z M1709.7,915.1l12.5,1.2l-0.8-3.2
			l-4.8-16.3l-13.7,0.8l5.6,12.5v0.1L1709.7,915.1z"/>
		<path class="st2" d="M1705.8,909.1c0,0-15,6.1-22.5,8.1s-6.3,5.8-6.3,5.8v4.4h47.6v-5.2l-2.6-13.1c-1.4,2.1-3.8,3.4-6.3,3.5
			C1711.6,912.6,1705.8,909.1,1705.8,909.1z"/>
		<path class="st2" d="M1724.6,927.8H1677c-0.2,0-0.4-0.2-0.4-0.4l0,0v-4.3c-0.2-0.8,0-1.7,0.4-2.4c0.9-1.7,3-3,6.2-3.9
			c7.4-2,22.3-8,22.5-8.1c0.1-0.1,0.3,0,0.4,0s5.8,3.5,9.7,3.5c2.4-0.1,4.6-1.3,5.9-3.3c0.1-0.2,0.4-0.3,0.6-0.1
			c0.1,0.1,0.2,0.2,0.2,0.3l2.6,13.1v5.3C1725,927.6,1724.8,927.8,1724.6,927.8L1724.6,927.8z M1677.4,926.9h46.7v-4.8l-2.4-12.1
			c-1.5,1.8-3.7,2.9-6,2.9c-3.8,0-8.9-2.9-9.9-3.5c-1.8,0.7-15.4,6.1-22.4,8.1c-3.7,1-5.1,2.4-5.7,3.4c-0.3,0.6-0.5,1.2-0.3,1.8v0.1
			L1677.4,926.9z"/>
		<polygon class="st4" points="1724.6,922.2 1677,922.2 1677,927.4 1725.9,927.4 		"/>
		<path class="st2" d="M1726.7,928h-50.4v-6.5h48.7L1726.7,928z M1677.6,926.7h47.5l-1-3.9h-46.5V926.7z"/>
		<polygon class="st2" points="1721.6,897 1705.7,901.7 1705.4,897 		"/>
		<path class="st2" d="M1705.7,902.1c-0.1,0-0.2,0-0.2-0.1c-0.1-0.1-0.2-0.2-0.2-0.3l-0.3-4.6c0-0.2,0.2-0.4,0.4-0.4l0,0h16.2
			c0.2,0,0.4,0.2,0.4,0.4s-0.1,0.4-0.3,0.4L1705.7,902.1C1705.7,902.1,1705.7,902.1,1705.7,902.1z M1705.9,897.5l0.2,3.6l12.6-3.6
			H1705.9z"/>
		<polygon class="st3" points="1582.7,910 1584.9,898.9 1600.1,898.9 1598,911.3 1594.6,916.4 1585.3,916.4 1583.5,911.8 		"/>
		<path class="st2" d="M1594.6,917h-9.3c-0.3,0-0.5-0.2-0.6-0.4l-1.8-4.6l-0.8-1.7c-0.1-0.1-0.1-0.2,0-0.4l2.2-11.2
			c0.1-0.3,0.3-0.5,0.6-0.5h15.2c0.3,0,0.6,0.3,0.6,0.6v0.1l-2,12.5c0,0.1,0,0.2-0.1,0.2l-3.4,5C1595,916.9,1594.8,917,1594.6,917z
			 M1585.7,915.7h8.6l3.1-4.6l1.9-11.6h-13.9l-2.1,10.5l0.7,1.6L1585.7,915.7z"/>
		<path class="st2" d="M1582.6,910.5c0,0-23.1,5.4-30.1,7.4s-5.9,5.5-5.9,5.5v4.1h55.7v-4.9l-3.7-12.3c0,0-2.1,4.2-8.3,4.2
			S1582.6,910.5,1582.6,910.5z"/>
		<path class="st2" d="M1602.3,927.8h-55.7c-0.2,0-0.4-0.2-0.4-0.4l0,0v-4c-0.2-0.8,0-1.6,0.4-2.3c0.9-1.6,2.8-2.8,5.8-3.6
			c6.9-1.9,29.9-7.3,30.1-7.4c0.2,0,0.4,0.1,0.5,0.3s1.4,3.7,7.3,3.7s7.9-3.8,7.9-3.9c0.1-0.2,0.2-0.3,0.4-0.2
			c0.2,0,0.3,0.1,0.4,0.3l3.7,12.3v0.1v4.9C1602.7,927.6,1602.5,927.8,1602.3,927.8L1602.3,927.8z M1547,926.9h54.8v-4.4l-3.5-11.4
			c-1,1.3-3.4,3.6-8.2,3.6c-5.4,0-7.4-2.9-7.9-3.9c-2.9,0.7-23.3,5.5-29.7,7.3c-3.4,1-4.8,2.3-5.3,3.2c-0.3,0.5-0.4,1.1-0.3,1.7v0.1
			L1547,926.9z"/>
		<rect x="1546.6" y="922.5" class="st4" width="55.7" height="4.9"/>
		<path class="st2" d="M1602.9,928H1546v-6.1h56.9V928z M1547.2,926.7h54.4v-3.6h-54.4V926.7z"/>
		<polygon class="st2" points="1599.2,902.1 1598.5,906 1584.4,903.1 		"/>
		<path class="st2" d="M1598.5,906.4L1598.5,906.4l-14.2-2.9c-0.2,0-0.4-0.3-0.3-0.5c0-0.2,0.2-0.3,0.4-0.3l14.8-1
			c0.2,0,0.4,0.2,0.4,0.4v0.1l-0.7,3.9C1598.9,906.3,1598.7,906.4,1598.5,906.4L1598.5,906.4z M1587.5,903.3l10.7,2.2l0.5-2.9
			L1587.5,903.3z"/>
		<path class="st3" d="M1645.1,675.5c0,0-29.6,89.7-32.5,104.2s-1.9,121.3-1.9,121.3l-36.3,2.2c0,0-12.4-114.7-10.1-136.6
			s31.1-123.6,31.1-123.6h80"/>
		<path class="st2" d="M1573.8,903.9l-0.1-0.6c-0.1-1.1-12.4-115-10.1-136.7s30.9-122.7,31.2-123.7l0.1-0.5h80.4v1.2h-79.5
			c-2.1,7.4-28.8,102.1-31,123c-2.2,20.8,9.1,127,10,135.9l35.2-2.1c-0.1-9.4-0.9-106.9,1.9-120.9c2.8-14.4,32.2-103.4,32.5-104.3
			l1.2,0.4c-0.3,0.9-29.6,89.9-32.4,104.2s-1.9,120.1-1.8,121.2v0.6L1573.8,903.9z"/>
		<rect x="1746.9" y="926.7" class="st2" width="13.6" height="1.2"/>
		<rect x="1722.5" y="926.7" class="st2" width="13.6" height="1.2"/>
		<rect x="1614.6" y="926.7" class="st2" width="32.5" height="1.2"/>
		<rect x="1590.2" y="926.7" class="st2" width="13.6" height="1.2"/>
		<path class="st2" d="M1621.9,508.4c0,0-0.1,3.9,5.4,4s-0.9,4.7,12.6-6.6c8.6-7.2,8,6.1,23,2.1s21.7-25.8,8.2-17
			s-8.2-10.2-20.3-11.2c-9.7-0.8-8.8,3-20.7-7.2c-6.4-5.5-18.3-7.1-25.7,2.6s-0.6,21-0.6,21L1621.9,508.4z"/>
		<path class="st1" d="M1654.8,553.7c0,0,17.9-3.7,20.6,16.5c2.4,18-3.2,29.8,0,43.3c3.4,14.2,15.6,29.6,15.6,29.6l-98.5-0.8
			c0,0,5.9-19.6,9.8-39.1c1.4-7.1-5-25.9-3.9-38.2s11.7-36.3,14.6-41.7s6.6-4.2,6.6-4.2s0.4,1.2,4,3.8s8.4-3.8,15-5.1"/>
		<path class="st2" d="M1692.3,643.7l-100.6-0.9l0.2-0.8c0.1-0.2,5.9-19.8,9.8-39.1c0.7-3.3-0.5-9.4-1.6-15.9
			c-1.3-7.4-2.9-15.7-2.3-22.2c1.1-12.2,11.5-36.1,14.6-42c3.1-5.8,7.2-4.5,7.4-4.5l0.3,0.1l0.1,0.3l0,0c0,0,0.5,1.2,3.8,3.5
			c1.7,1.2,3.7,0.1,6.8-1.8c2.3-1.6,4.9-2.7,7.7-3.4l0.2,1.2c-2.6,0.6-5.1,1.7-7.3,3.2c-3.1,1.8-5.8,3.4-8.2,1.7
			c-2.7-2-3.7-3.2-4.1-3.8c-0.8-0.1-3.4-0.2-5.7,3.9c-3.1,5.9-13.4,29.5-14.5,41.5c-0.6,6.4,0.9,14.6,2.3,21.9
			c1.2,6.9,2.3,12.8,1.6,16.3c-3.4,17.1-8.4,34.5-9.5,38.4l96.4,0.8c-2.8-3.7-12.1-16.7-15-28.8c-1.7-7-1-13.6-0.3-20.5
			s1.4-14.1,0.3-22.8c-0.8-6.2-3.2-10.7-7-13.4c-5.7-4-12.8-2.6-12.9-2.6l-0.2-1.2c0.3-0.1,7.7-1.5,13.8,2.8
			c4.1,2.9,6.6,7.7,7.5,14.2c1.2,8.9,0.4,16.5-0.3,23.1c-0.7,6.9-1.4,13.4,0.2,20.1c3.3,13.9,15.4,29.2,15.5,29.3L1692.3,643.7z"/>
		<polygon class="st2" points="1605.7,617.7 1602.3,625 1636.7,616 		"/>
		<path class="st3" d="M1621.5,668.8c0,0,26.9,91,32,114.5s39.4,121.2,39.4,121.2l36.3-2.2c0,0-22.5-102.3-25.4-132.8
			c-1.7-17.6-17.2-104.8-18.5-113.8s-4-12.5-4-12.5"/>
		<path class="st2" d="M1692.5,905.1l-0.2-0.4c-0.3-1-34.3-98.1-39.4-121.3c-5.1-23.1-31.8-113.5-32-114.4l1.2-0.4
			c0.3,0.9,27,91.3,32,114.5c4.9,22.3,36.7,113.5,39.2,120.7l35.1-2.1c-2-9.2-22.5-103.3-25.2-132.2c-1.1-12-8.8-56.7-13.8-86.2
			c-2.4-13.8-4.2-24.7-4.6-27.6c-1.2-8.7-3.8-12.2-3.8-12.2l1-0.8c0.1,0.1,2.8,3.7,4.1,12.8c0.4,2.9,2.3,13.7,4.6,27.5
			c5.1,29.6,12.7,74.3,13.8,86.3c2.9,30.1,25.1,131.7,25.3,132.8l0.2,0.7L1692.5,905.1z"/>
		<path class="st3" d="M1615,512.3l1.5,11.1c0,0,0.6,4.2,6.6,3.2s14.2-10.8,14.2-10.8c-2.6-1.4-5.1-3-7.6-4.7
			c-4.4-3.4-5.2-6.6-5.1-9.3"/>
		<path class="st2" d="M1621.3,527.3c-1.3,0.1-2.6-0.3-3.7-1.1c-0.9-0.7-1.6-1.7-1.8-2.8l-1.5-11.1l1.2-0.2l1.5,11.1
			c0.2,0.8,0.7,1.5,1.3,2c1.4,0.8,3,1.1,4.5,0.7c4.9-0.8,11.5-7.9,13.3-10c-2.4-1.3-4.7-2.8-7-4.4c-3.8-3-5.5-6.1-5.4-9.9l1.2,0.1
			c-0.1,2.1,0.3,5.3,4.9,8.8c2.4,1.7,4.9,3.2,7.5,4.6c0.3,0.2,0.4,0.5,0.2,0.8c0,0,0,0.1-0.1,0.1c-0.3,0.4-8.5,10-14.6,11
			C1622.5,527.3,1621.9,527.3,1621.3,527.3z"/>
		<path class="st3" d="M1613.7,487.6c4.6,0.1,8.7,2.8,10.7,7c4.6-3.9,7.2,1.1,5.7,4.3c-1,1.9-2.8,3.3-4.9,3.8v-0.1
			c-1.6,6.5-8.1,10.5-14.6,8.9s-10.5-8.1-8.9-14.6C1603,491.3,1608,487.4,1613.7,487.6L1613.7,487.6z"/>
		<path class="st2" d="M1613.4,512.4c-0.1,0-0.2,0-0.3,0c-7-0.2-12.6-6-12.4-13s6-12.6,13-12.4c4.6,0.1,8.7,2.7,10.9,6.7
			c2.5-1.8,4.3-1,4.9-0.5c1.7,1.5,2.1,3.9,1.2,6c-1,2-2.8,3.5-5,4C1624,508.6,1619,512.3,1613.4,512.4z M1613.4,488.2
			c-6.3,0-11.5,5.1-11.5,11.5c0,6.2,5,11.3,11.2,11.5c5.4,0.1,10.1-3.5,11.4-8.7c0.1-0.3,0.4-0.5,0.7-0.5h0.1
			c1.8-0.4,3.3-1.7,4.2-3.3c0.7-1.5,0.4-3.3-0.8-4.5c-1-0.8-2.4-0.4-4,0.9c-0.1,0.1-0.3,0.2-0.5,0.1c-0.2,0-0.4-0.2-0.4-0.3
			c-1.8-4-5.7-6.6-10.1-6.6l0,0L1613.4,488.2z"/>
		<path class="st2" d="M1623.9,504.6c0,0,1.7,8.9-8,12c-0.1,0-0.4,0.1-0.5,0.1l-0.4-4.5c0,0,4.6-1.7,6.1-3.5
			C1622.1,507.4,1623.1,506,1623.9,504.6z"/>
		<polygon class="st2" points="1609.7,643.1 1684.5,650 1682.2,643.1 		"/>
		<polygon class="st4" points="1606,597.6 1534.2,574 1504,603.7 1572.5,628.1 		"/>
		<path class="st2" d="M1572.5,628.7c-0.1,0-0.1,0-0.2,0l-68.5-24.4c-0.3-0.1-0.5-0.5-0.4-0.8c0-0.1,0.1-0.2,0.2-0.2l30.2-29.7
			c0.2-0.2,0.4-0.2,0.6-0.2l71.9,23.6c0.3,0.1,0.5,0.5,0.4,0.8c0,0.1-0.1,0.2-0.2,0.3l-33.5,30.4
			C1572.8,628.6,1572.7,628.7,1572.5,628.7z M1505.2,603.4l67.2,23.9l32.4-29.5l-70.5-23.2L1505.2,603.4z"/>
		<polyline class="st2" points="1606,597.6 1606,599.3 1576.4,629.6 1572.5,628.1 1605.6,597.8 		"/>
		<path class="st2" d="M1576.4,630.2c-0.1,0-0.2,0-0.2,0l-3.9-1.5c-0.3-0.1-0.5-0.5-0.4-0.8c0-0.1,0.1-0.2,0.2-0.2l33.1-30.2
			l0.3,0.3l0,0h1.3v1.7c0,0.2-0.1,0.3-0.2,0.4l-29.7,30.3C1576.7,630.1,1576.6,630.2,1576.4,630.2z M1573.7,627.8l2.5,1l29.2-29.8
			v-0.2L1573.7,627.8z"/>
		<polygon class="st4" points="1583.2,603.7 1537.8,588.8 1518.8,607.5 1562,622.9 		"/>
		<path class="st2" d="M1562,623.5c-0.1,0-0.1,0-0.2,0l-43.2-15.4c-0.3-0.1-0.5-0.5-0.4-0.8c0-0.1,0.1-0.2,0.2-0.2l19-18.8
			c0.2-0.2,0.4-0.2,0.6-0.2l45.4,14.9c0.3,0.1,0.5,0.5,0.4,0.8c0,0.1-0.1,0.2-0.2,0.3l-21.2,19.2
			C1562.3,623.5,1562.2,623.5,1562,623.5z M1520,607.3l41.9,14.9L1582,604l-43.9-14.5L1520,607.3z"/>
		<polygon class="st4" points="1572.5,628.1 1503.3,604 1485.8,549.5 1555.1,573.5 		"/>
		<path class="st2" d="M1572.5,628.7c-0.1,0-0.1,0-0.2,0l-69.2-24c-0.2-0.1-0.3-0.2-0.4-0.4l-17.5-54.5c-0.1-0.3,0.1-0.7,0.4-0.8
			c0.1,0,0.3,0,0.4,0l69.2,24c0.2,0.1,0.3,0.2,0.4,0.4l17.5,54.5c0.1,0.3-0.1,0.7-0.4,0.8C1572.7,628.7,1572.6,628.7,1572.5,628.7
			L1572.5,628.7z M1503.8,603.5l67.7,23.5l-17-53l-67.7-23.5L1503.8,603.5z"/>
		<polygon class="st4" points="1569.8,631 1500.6,606.9 1484.9,551 1554.1,575 		"/>
		<path class="st2" d="M1569.8,631.6c-0.1,0-0.1,0-0.2,0l-69.2-24c-0.2-0.1-0.3-0.2-0.4-0.4l-15.7-55.9c-0.1-0.3,0.1-0.7,0.4-0.8
			c0.1,0,0.3,0,0.4,0l69.2,24c0.2,0.1,0.3,0.2,0.4,0.4l15.7,55.9c0.1,0.3-0.1,0.7-0.4,0.8C1569.9,631.6,1569.9,631.6,1569.8,631.6
			L1569.8,631.6z M1501.1,606.5l67.8,23.5l-15.3-54.5l-67.8-23.5L1501.1,606.5z"/>
		<path class="st3" d="M1590.5,610c0,0-0.4-0.9-4.3,0.5s-10.1,5.6-10.1,5.6l4.6,2.5l-8.1,7.9c0,0,1.8,4.3,7.2,2.9s14-9.6,17.5-15.7"
			/>
		<path class="st2" d="M1577.7,630.4c-2.4,0-4.7-1.4-5.7-3.6c-0.1-0.2,0-0.5,0.1-0.7l7.5-7.3l-3.9-2.1c-0.3-0.2-0.4-0.5-0.2-0.8
			c0-0.1,0.1-0.2,0.2-0.2c0.3-0.2,6.3-4.3,10.3-5.7c3.7-1.3,4.8-0.8,5.1-0.1l-1.1,0.5c0,0.1,0.1,0.1,0.1,0.2c0,0-0.7-0.4-3.7,0.7
			c-3.2,1.4-6.3,3-9.1,5l3.7,2c0.3,0.2,0.4,0.5,0.2,0.8c0,0.1-0.1,0.1-0.1,0.1l-7.8,7.6c0.5,0.9,2.3,3.2,6.2,2.2
			c5.3-1.3,13.8-9.6,17.1-15.4l1.1,0.6c-3.4,6.1-12.2,14.6-17.9,16C1579.2,630.2,1578.5,630.3,1577.7,630.4z"/>
		<path class="st1" d="M1633.4,553.7c0,0,25.9,31.4,23.8,37.3s-67.1,17.3-67.1,17.3l6.2,9.6c0,0,78.7,5.5,87.5-11.7
			c7.5-14.6-7.7-53.4-25.1-74.8c-6.6-8-17.4-15.4-21.7-15.6l-3.4,3.8c-1.2,1.2-2.5,2.3-3.8,3.4"/>
		<path class="st2" d="M1623.8,619.5c-14.6,0-26.3-0.8-27.6-0.9h-0.3l-6.8-10.7l0.9-0.2c25-4.4,65.2-12.8,66.6-16.9
			c1.5-4.1-13.3-24.2-23.7-36.7l1-0.8c2.7,3.2,26.1,31.9,23.9,37.9c-2.1,5.9-56.8,15.8-66.7,17.5l5.5,8.6
			c5.4,0.4,78.3,4.8,86.6-11.3c7.4-14.3-7.6-52.7-25.1-74.1c-6.4-7.9-16.7-14.9-21-15.3l-3.2,3.6c-1.2,1.2-2.5,2.4-3.9,3.4l-0.7-1
			c1.3-1,2.6-2.1,3.8-3.3l3.6-4h0.3c4.9,0.2,15.8,8,22.2,15.8c17.7,21.7,32.8,60.8,25.2,75.5
			C1678.8,617.3,1647.5,619.5,1623.8,619.5z"/>
		<polygon class="st2" points="1622.1,670.8 1629.8,722.5 1633.7,710.4 		"/>
		<polygon class="st2" points="1484.9,551 1485.8,549.5 1555.1,573.5 1572.5,628.1 1569.8,631 1554.1,575 		"/>
		<path class="st2" d="M1569.8,631.6c-0.3,0-0.5-0.2-0.6-0.5l-15.6-55.6l-68.9-23.9c-0.3-0.1-0.5-0.5-0.4-0.8c0,0,0-0.1,0.1-0.1
			l0.9-1.5c0.2-0.2,0.5-0.4,0.7-0.3l69.2,24c0.2,0.1,0.3,0.2,0.4,0.4l17.5,54.5c0.1,0.2,0,0.5-0.1,0.6l-2.7,2.9
			C1570.2,631.6,1570,631.6,1569.8,631.6z M1485.8,550.7l68.5,23.8c0.2,0.1,0.3,0.2,0.4,0.4l15.4,54.9l1.7-1.8l-17.2-53.9
			l-68.4-23.8L1485.8,550.7z"/>
		<path class="st1" d="M315.1,552.6l6-5.6l24.2,8.7c0,0-1.2,2.3-10,2s-11.1-0.6-11.1-0.6l-8,2.8L315.1,552.6z"/>
		<path class="st2" d="M316.3,560.5c-0.3,0-0.6-0.2-0.6-0.5l-1.2-7.3c0-0.2,0-0.4,0.2-0.6l6-5.6c0.2-0.2,0.4-0.2,0.6-0.1l24.2,8.7
			c0.2,0.1,0.3,0.2,0.4,0.4s0.1,0.4,0,0.5c-0.2,0.4-1.8,2.6-10.6,2.3c-7.6-0.3-10.4-0.5-11-0.6l-7.9,2.7
			C316.4,560.5,316.4,560.5,316.3,560.5z M315.8,552.8l1,6.2l7.3-2.5c0.1,0,0.2,0,0.3,0c0,0,2.4,0.3,11,0.6c5.3,0.2,7.7-0.6,8.7-1.1
			l-22.8-8.2L315.8,552.8z"/>
		<path class="st5" d="M254.1,506.4c-0.7-0.3-1.1-0.5-1.1-0.5l0,0"/>
		<path class="st2" d="M253.8,507c-0.7-0.3-1.1-0.5-1.1-0.5l0.6-1.1c0,0,0.4,0.2,1.1,0.5L253.8,507z"/>
		<path class="st5" d="M267.3,599.1c38.9-19.4,56.6-39.1,56.6-39.1l-8.6-8.7c0,0-38.9,16.1-40.7,16.6L260.3,523"/>
		<path class="st2" d="M267.5,599.6l-0.6-1.1c35.2-17.5,53.1-35.5,56-38.5l-7.9-7.9c-4.3,1.8-38.7,16-40.4,16.4l-0.6,0.2l-14.4-45.5
			l1.2-0.4l14,44.3c4.3-1.6,29.9-12.2,40-16.3l0.4-0.2l9.3,9.4l-0.4,0.4C324.1,560.6,306.1,580.4,267.5,599.6z"/>
		<path class="st1" d="M217.2,665.9c3.5,6.6,23.1,83.8,24.9,99.9s-1.8,34.5,0,64s16,62,16,62h32.5c0,0-2.6-82.6-3.6-117
			s-18-139.1-18-139.1l-61.2,1.1"/>
		<path class="st2" d="M291.2,892.5h-33.6l-0.2-0.4c-0.1-0.3-14.3-32.9-16-62.2c-0.7-12.8-0.6-25.6,0.1-38.4
			c0.4-9.6,0.8-17.9-0.1-25.5c-2-17-21.5-93.4-24.9-99.7l1.1-0.6c3.8,7.2,23.2,84.9,25,100.1c0.9,7.7,0.5,16.1,0.1,25.7
			c-0.7,12.8-0.8,25.5-0.1,38.3c1.6,27.4,14.2,57.7,15.8,61.4h31.4c-0.2-7.9-2.6-83.9-3.6-116.3c-1-32.7-16.6-130.3-17.9-138.5
			l-60.6,1.1v-1.3l61.7-1.1l0.1,0.5c0.2,1,17,105.1,18,139.2c1,34,3.6,116.1,3.6,117L291.2,892.5z"/>
		<path class="st1" d="M231.8,685.5c0,0-14.1,55.7-25.5,100.6s-25.2,105.4-25.1,105.3h-32.4c0,0-7.5-24.5-1.6-61.6
			s29.3-105.5,29.3-144.3c0-7.1-1.5-17.9-1-23.7c1.8-19.8,6.5-26.4,7.8-26.5l76.7,0.6"/>
		<path class="st2" d="M186.1,892.1h-37.9l-0.1-0.4c-1.5-5.6-2.5-11.3-3-17c-1.5-15-1-30,1.4-44.9c2.2-13.9,6.9-32.3,11.9-51.7
			c8.2-32,17.4-68.3,17.4-92.5c0-3-0.3-6.8-0.6-10.4c-0.4-4.9-0.8-10-0.5-13.3c1.8-19.9,6.4-26.8,8.4-27.1l76.8,0.6v1.3l-76.7-0.6
			c-0.7,0.2-5.4,5.8-7.2,26c-0.2,4.4,0,8.8,0.5,13.1c0.3,3.7,0.6,7.4,0.6,10.5c0,24.4-9.3,60.7-17.5,92.8
			c-4.9,19.4-9.6,37.7-11.8,51.6c-5.4,33.8,0.5,57.4,1.4,60.8h31.5c0.1-0.5,0.3-1.2,0.5-2.2c0.4-1.7,1-4.3,1.7-7.5
			c1.5-6.4,3.5-15.3,5.9-25.7c4.4-18.9,10.9-46.2,16.9-69.5c11.3-44.4,25.4-100.1,25.5-100.6l1.2,0.3c-0.1,0.6-14.2,56.3-25.5,100.6
			c-10.9,42.5-23.5,98.3-25,104.6L186.1,892.1z"/>
		<polygon class="st2" points="186.8,635.2 270.7,645.5 268.6,635.8 		"/>
		<polygon class="st1" points="170.3,905.8 170.9,891.8 155.3,891.8 155.3,907.1 154.9,911 168.1,909.7 172.8,904.7 		"/>
		<path class="st2" d="M154.9,911.6c-0.4,0-0.6-0.3-0.6-0.6c0,0,0,0,0-0.1l0.4-3.9v-15.2c0-0.3,0.3-0.6,0.6-0.6h15.5
			c0.4,0,0.6,0.3,0.6,0.6l0,0l-0.5,12.9l1.5-0.7c0.3-0.1,0.7,0,0.8,0.3c0.1,0.2,0.1,0.5-0.1,0.7l-4.6,5.1c-0.1,0.1-0.3,0.2-0.4,0.2
			L154.9,911.6L154.9,911.6z M156,892.5v14.7l-0.3,3.2l12.2-1.2l2.5-2.7c-0.1,0-0.3,0-0.4-0.1c-0.2-0.1-0.3-0.3-0.3-0.6l0.6-13.3
			L156,892.5z"/>
		<path class="st2" d="M171.4,903.4c0,0,13.3,5.8,20.5,7.8s6,5.6,6,5.6v4.2h-45.7v-5l2.5-12.5c0,0-1.9,4,4.5,4
			S171.4,903.4,171.4,903.4z"/>
		<path class="st2" d="M197.9,921.4h-45.7c-0.2,0-0.4-0.2-0.4-0.4v-5l2.3-11.3c0-0.5,0.1-1,0.3-1.4c0.1-0.2,0.3-0.3,0.6-0.2
			c0.2,0.1,0.3,0.3,0.2,0.5l-0.2,1.2c0,0.3,0.1,0.7,0.3,0.9c0.6,0.9,2,1.3,4.1,1.3c6.2,0,11.9-3.9,11.9-3.9c0.1-0.1,0.3-0.1,0.4,0
			c0.1,0.1,13.3,5.8,20.4,7.8c3.1,0.9,5.1,2.1,6,3.7c0.4,0.7,0.5,1.5,0.4,2.3v4.1C198.4,921.2,198.2,921.4,197.9,921.4
			C198,921.4,197.9,921.4,197.9,921.4z M152.6,920.6h44.9v-3.8v-0.1c0.1-0.6,0-1.2-0.3-1.8c-0.5-1-1.9-2.3-5.4-3.3
			c-6.6-1.8-18.6-7-20.3-7.7c-1.1,0.7-6.3,4-12.2,4c-2.3,0-3.9-0.5-4.7-1.5l-2,9.8V920.6z"/>
		<polygon class="st4" points="152.2,916 197.9,916 197.9,921 150.9,921 		"/>
		<path class="st2" d="M198.6,921.6h-48.5l1.6-6.2h46.9V921.6z M151.7,920.3h45.6v-3.7h-44.6L151.7,920.3z"/>
		<polygon class="st2" points="171.1,891.8 155.8,896.3 155.6,891.8 		"/>
		<path class="st2" d="M155.8,896.7c-0.2,0-0.4-0.2-0.4-0.4l-0.2-4.4c0-0.2,0.2-0.4,0.4-0.4l0,0h15.5c0.2,0,0.4,0.2,0.4,0.4
			s-0.1,0.4-0.3,0.4L155.8,896.7C155.9,896.7,155.9,896.7,155.8,896.7z M156,892.3l0.2,3.5l11.9-3.5H156z"/>
		<polygon class="st1" points="287.6,904.9 286,891.8 270.4,891.8 273.1,906.9 271.3,908.4 285.3,909.7 289.9,904.7 		"/>
		<path class="st2" d="M285.3,910.4L285.3,910.4l-14.1-1.4c-0.3,0-0.6-0.3-0.6-0.7c0-0.2,0.1-0.3,0.2-0.4l1.5-1.3l-2.6-14.7
			c-0.1-0.3,0.2-0.7,0.5-0.7h0.1H286c0.3,0,0.6,0.2,0.6,0.6l1.5,12.4l1.7-0.2c0.3,0,0.7,0.2,0.7,0.6c0,0.2,0,0.4-0.2,0.5l-4.6,5.1
			C285.7,910.3,285.5,910.4,285.3,910.4z M272.9,907.9l12.2,1.2l3.3-3.6l-0.7,0.1c-0.3,0-0.6-0.2-0.7-0.6l-1.5-12.5h-14.2l2.6,14.3
			c0,0.2,0,0.5-0.2,0.6L272.9,907.9z"/>
		<path class="st2" d="M288.6,903.4c0,0,13.3,5.8,20.5,7.8s6,5.6,6,5.6v4.2h-45.7v-5l2.5-12.5c0,0-1.9,4,4.5,4
			S288.6,903.4,288.6,903.4z"/>
		<path class="st2" d="M315.1,921.4h-45.7c-0.2,0-0.4-0.2-0.4-0.4v-5l2.3-11.3c0-0.5,0.1-1,0.3-1.4c0.1-0.2,0.3-0.3,0.6-0.2
			c0.2,0.1,0.3,0.3,0.2,0.5l-0.2,1.2c0,0.3,0.1,0.7,0.3,0.9c0.6,0.9,2,1.3,4.1,1.3c6.2,0,11.9-3.9,11.9-3.9c0.1-0.1,0.3-0.1,0.4,0
			s13.3,5.8,20.4,7.8c3.1,0.9,5.1,2.1,6,3.7c0.4,0.7,0.5,1.5,0.4,2.3v4.1C315.6,921.2,315.4,921.4,315.1,921.4L315.1,921.4z
			 M269.8,920.6h44.9v-3.8v-0.1c0.1-0.6,0-1.2-0.3-1.8c-0.5-1-1.9-2.3-5.4-3.3c-6.6-1.8-18.6-7-20.3-7.7c-1.1,0.7-6.3,4-12.2,4
			c-2.3,0-3.9-0.5-4.7-1.5l-2,9.8V920.6z"/>
		<polygon class="st4" points="269.4,916 315.1,916 315.1,921 268.1,921 		"/>
		<path class="st2" d="M315.8,921.6h-48.5l1.6-6.2h46.9V921.6z M268.9,920.3h45.6v-3.7h-44.6L268.9,920.3z"/>
		<polygon class="st2" points="286,891.8 271.4,897.1 270.5,892.2 		"/>
		<path class="st2" d="M271.4,897.5c-0.1,0-0.1,0-0.2-0.1s-0.2-0.2-0.2-0.3l-0.9-4.9c0-0.1,0-0.2,0.1-0.3s0.2-0.2,0.3-0.2l15.5-0.3
			l0,0c0.2,0,0.4,0.2,0.4,0.4s-0.1,0.3-0.3,0.4L271.4,897.5C271.5,897.5,271.4,897.5,271.4,897.5z M271,892.6l0.7,3.9l11.7-4.2
			L271,892.6z"/>
		<path class="st2" d="M191.6,656.2c-0.9,0-1.8-0.1-2.7-0.2l0.2-1.2c0.6,0.1,13.8,2.3,18.8-10.6l1.2,0.5
			C205.1,654.8,196.2,656.2,191.6,656.2z"/>
		<path class="st5" d="M204.3,554.2L192,586.9l-14.7,48.5l9.5-0.1l82.2,0.5c0,0-4-95.9-7.2-108.4s-9.1-18.2-13.4-20.1
			s-13.2,0.2-16.3,1.1"/>
		<path class="st2" d="M269.7,636.4H269l-82.2-0.5l-10.4,0.1l14.9-49.3l12.4-32.8l1.2,0.4l-12.4,32.8l-14.4,47.6l8.6-0.1l81.5,0.5
			c-0.4-8.5-4.2-95.9-7.2-107.6c-3.7-14.5-10.9-18.7-13-19.6c-3.8-1.7-12.1,0-15.9,1.2l-0.4-1.2c0.5-0.1,11.6-3.4,16.8-1.1
			c9,3.9,12.8,16.7,13.8,20.5c3.1,12.4,7.1,104.6,7.2,108.5L269.7,636.4z"/>
		<path class="st1" d="M198.2,600.7c-5,8.4-7.2,16.1-5.8,21.6c0.8,3.2,3.3,5.8,6.4,6.8l6.4-14.2l0.9,1.9c0.6,1.2,2.1,1.7,3.3,1.1
			c0.1-0.1,0.2-0.1,0.3-0.2l0,0l-1.6-9.6c-0.7-2.6-2.1-5-4-6.9l-1.4-1.4"/>
		<path class="st2" d="M198.8,629.8c-0.1,0-0.1,0-0.2,0c-3.4-1.1-6-3.8-6.9-7.3c-1.4-5.5,0.6-13.4,5.8-22.1l1.1,0.6
			c-5,8.4-7.1,15.9-5.7,21.1c0.7,2.8,2.8,5.1,5.5,6.2l6.1-13.7c0.1-0.2,0.3-0.4,0.6-0.4l0,0c0.2,0,0.5,0.1,0.6,0.4l0.9,1.9
			c0.4,0.9,1.4,1.3,2.3,0.9l-1.5-9.1c-0.7-2.5-2-4.7-3.8-6.5l-1.4-1.4l0.9-0.9l1.4,1.4c2,2,3.4,4.4,4.1,7.1l1.6,9.6
			c0,0.2-0.1,0.5-0.3,0.6c-1.4,1-3.3,0.6-4.3-0.8c-0.1-0.1-0.2-0.3-0.2-0.4l-0.3-0.7l-5.8,13C199.3,629.6,199.1,629.7,198.8,629.8z"
			/>
		<path class="st5" d="M232,508.5c-51.6,16.4-89.9,46.4-89.9,59.8s51.4,41,51.4,41l10.9-7.8c0,0-32-29.2-31.7-30.7
			s34.1-14.2,34.1-14.2"/>
		<path class="st2" d="M193.6,610l-0.3-0.2c-2.1-1.1-51.8-27.9-51.8-41.5c0-14.4,40.3-44.6,90.3-60.4l0.4,1.2
			c-53.8,17-89.5,46.9-89.5,59.2c0,5.3,8.8,13.9,25.4,25c11.5,7.7,23.2,14.1,25.3,15.2l9.9-7.1c-31.7-29-31.4-30.3-31.3-30.8
			c0.3-1.2,11.9-6.1,34.5-14.7l0.4,1.2c-12,4.5-31.1,12.1-33.6,13.8c1.8,2.8,19.9,19.7,31.4,30.1l0.6,0.5L193.6,610z"/>
		<path class="st2" d="M253.6,499.6c0,0-0.4,1.1-5.9,0.5s-12.4-6-8.3-6.2c6.4-0.3,3-18.3,14.7-21.2c13.8-3.4,16.5-9.5,22.2-3.2
			s-2.5,20.2-2.5,20.2L253.6,499.6z"/>
		<path class="st1" d="M261.2,500.6l-4.4,14.1c0,0-2,3.7-5.8,3.2c-7.3-1-15.2-10.3-15.2-10.3s5.6-3.7,9.6-6.3c3.5-2.1,5.8-5.9,6-10"
			/>
		<path class="st2" d="M251.7,518.6c-0.3,0-0.6,0-0.8-0.1c-7.5-1.1-15.3-10.1-15.6-10.5c-0.2-0.3-0.2-0.7,0.1-0.9c0,0,0,0,0.1,0
			s5.6-3.8,9.6-6.3c3.4-2,5.5-5.6,5.7-9.5l1.3,0.1c-0.3,4.3-2.6,8.2-6.3,10.5c-3.2,2.1-7.4,4.9-9,5.9c1.8,2,8.4,8.7,14.4,9.5
			c3.1,0.4,4.9-2.4,5.2-2.8l4.4-14.1l1.2,0.4l-4.4,14.1v0.1C257.3,515.2,255.4,518.6,251.7,518.6z"/>
		<path class="st1" d="M264.8,479.6c-4.7-0.5-9.2,1.7-11.8,5.6c-4.1-4.6-7.5,0.1-6.4,3.6c0.8,2.1,2.4,3.8,4.5,4.5v-0.1
			c0.7,6.8,6.8,11.7,13.6,11s11.7-6.8,11-13.6C275.1,484.8,270.6,480.2,264.8,479.6z"/>
		<path class="st2" d="M263.5,504.9c-0.5,0-1,0-1.4-0.1c-5.9-0.7-10.6-5.2-11.4-11c-2.2-0.8-3.8-2.6-4.6-4.8c-0.7-2.2,0.1-4.6,2-5.9
			c0.7-0.4,2.6-1.1,4.9,1.1c2.7-3.8,7.3-5.8,11.9-5.3l0,0c7.1,0.8,12.3,7.2,11.5,14.4C275.6,499.9,270.1,504.9,263.5,504.9
			L263.5,504.9z M251.1,492.6C251.2,492.6,251.2,492.6,251.1,492.6c0.4,0,0.6,0.3,0.6,0.6c0.6,5.5,4.9,9.8,10.4,10.4
			c6.4,0.7,12.2-3.9,13-10.4c0.7-6.4-3.9-12.2-10.4-13c-4.4-0.5-8.8,1.6-11.2,5.4c-0.1,0.2-0.3,0.3-0.5,0.3s-0.4-0.1-0.5-0.2
			c-1.4-1.6-2.8-2.1-3.9-1.5c-1.4,1-1.9,2.8-1.4,4.4C247.8,490.4,249.2,491.9,251.1,492.6C251,492.6,251.1,492.6,251.1,492.6
			L251.1,492.6z"/>
		<path class="st2" d="M252.1,495.5c0,0-2.9,8.7,6.5,13.3h0.1l1.7-4.7c0,0-4.7-2.1-6-4.1C253.5,498.5,252.7,497,252.1,495.5z"/>
		<polygon class="st4" points="343.1,581.8 274.9,549.3 311.7,524.8 379.9,557.3 		"/>
		<path class="st2" d="M343.1,582.4c-0.1,0-0.2,0-0.3-0.1l-68.2-32.4c-0.3-0.2-0.5-0.5-0.3-0.8c0-0.1,0.1-0.2,0.2-0.3l36.8-24.5
			c0.2-0.1,0.4-0.1,0.6,0l68.2,32.4c0.3,0.2,0.5,0.5,0.3,0.8c0,0.1-0.1,0.2-0.2,0.3l-36.8,24.5C343.3,582.4,343.2,582.4,343.1,582.4
			z M276.2,549.2L343,581l35.5-23.7l-66.8-31.8L276.2,549.2z"/>
		<polygon class="st4" points="317.3,564.5 303.8,558.1 311.1,553.3 324.5,559.7 		"/>
		<path class="st2" d="M317.3,565.2c-0.1,0-0.2,0-0.3-0.1l-13.4-6.4c-0.3-0.2-0.5-0.5-0.3-0.8c0-0.1,0.1-0.2,0.2-0.3l7.3-4.8
			c0.2-0.1,0.4-0.1,0.6,0l13.4,6.4c0.3,0.2,0.4,0.5,0.3,0.8c0,0.1-0.1,0.2-0.2,0.3l-7.3,4.8C317.5,565.1,317.4,565.2,317.3,565.2z
			 M305.1,558l12.1,5.8l6-4l-12.1-5.8L305.1,558z"/>
		<polygon class="st4" points="351.8,569.3 294.9,541.9 312.5,530 369.4,557.4 		"/>
		<path class="st2" d="M351.8,570c-0.1,0-0.2,0-0.3-0.1l-56.9-27.4c-0.3-0.2-0.5-0.5-0.3-0.8c0-0.1,0.1-0.2,0.2-0.3l17.6-11.9
			c0.2-0.1,0.4-0.1,0.6,0l56.9,27.4c0.3,0.2,0.5,0.5,0.3,0.8c0,0.1-0.1,0.2-0.2,0.3l-17.6,11.9C352.1,569.9,351.9,570,351.8,570z
			 M296.1,541.8l55.6,26.8l16.4-11.1l-55.6-26.8L296.1,541.8z"/>
		<polygon class="st4" points="311.6,524.7 379.9,557 397.1,506.7 328.9,474.4 		"/>
		<path class="st2" d="M379.9,557.6c-0.1,0-0.2,0-0.3-0.1l-68.2-32.3c-0.3-0.1-0.4-0.5-0.3-0.8l17.3-50.3c0.1-0.3,0.5-0.5,0.8-0.4
			c0,0,0,0,0.1,0l68.2,32.3c0.3,0.1,0.4,0.5,0.3,0.8l-17.3,50.3C380.4,557.4,380.1,557.6,379.9,557.6L379.9,557.6z M312.4,524.3
			l67.1,31.7l16.9-49.1l-67.1-31.7L312.4,524.3z"/>
		<polygon class="st2" points="317.5,522.6 377,550.2 391,509.3 331.5,481.7 		"/>
		<polygon class="st4" points="349.4,497.8 335.6,491 334.7,493.7 348.6,500.4 		"/>
		<polygon class="st4" points="352.9,506 333.5,496.6 332.7,499.3 352.1,508.6 		"/>
		<polygon class="st4" points="345.6,509.5 331.8,502.7 330.9,505.4 344.7,512.1 		"/>
		<polygon class="st4" points="349.1,517.7 329.7,508.3 328.9,511 348.2,520.3 		"/>
		<polygon class="st2" points="379.9,557.3 379.9,561.6 343.1,584.3 343.1,581.8 		"/>
		<path class="st2" d="M343.1,585c-0.4,0-0.6-0.3-0.6-0.6v-2.6c0-0.2,0.1-0.4,0.3-0.5l36.8-24.5c0.3-0.2,0.7-0.1,0.9,0.2
			c0.1,0.1,0.1,0.2,0.1,0.4v4.3c0,0.2-0.1,0.4-0.3,0.5L343.5,585C343.3,584.9,343.2,585,343.1,585z M343.7,582.1v1.1l35.5-22v-2.7
			L343.7,582.1z"/>
		<polygon class="st2" points="343.1,581.8 343.1,584.3 274.9,551.9 274.9,549.3 		"/>
		<path class="st2" d="M343.1,585c-0.1,0-0.2,0-0.3-0.1l-68.2-32.4c-0.2-0.1-0.4-0.3-0.4-0.6v-2.6c0-0.4,0.3-0.6,0.6-0.6
			c0.1,0,0.2,0,0.3,0.1l68.2,32.4c0.2,0.1,0.4,0.3,0.4,0.6v2.6c0,0.2-0.1,0.4-0.3,0.5C343.3,584.9,343.2,585,343.1,585z
			 M275.6,551.5l66.9,31.8v-1.2l-66.9-31.8V551.5z"/>
		<rect x="235.1" y="920.4" class="st2" width="12.9" height="1.2"/>
		<rect x="125.7" y="920.4" class="st2" width="61.7" height="1.2"/>
		<rect x="261.9" y="920.4" class="st2" width="53.3" height="1.2"/>
		<polyline class="st2" points="376.8,558.1 392.7,507.5 376.8,553.9 		"/>
		<path class="st2" d="M377.4,558.3l-1.2-0.4l1.3-4.1l-0.1,0.2l-1.2-0.4l15.9-46.4c0.1-0.3,0.5-0.5,0.8-0.4s0.5,0.5,0.4,0.8
			L377.4,558.3z"/>
		<polygon class="st2" points="231.8,685.5 235.7,734.9 226.4,706.7 		"/>
		<rect x="540.6" y="135.9" class="st2" width="802.5" height="802.5"/>
		<rect x="540.6" y="135.9" class="st2" width="802.5" height="802.5"/>
		<path class="st6" d="M765.1,708.1l-0.6-12.5c28.9-1.3,56.9-10,81.5-25.2l6.6,10.6C826.2,697.3,796.1,706.6,765.1,708.1z
			 M675.4,689.2c-27.7-13.9-51.5-34.6-69.1-60.2l10.3-7.1c16.4,23.8,38.5,43.1,64.3,56L675.4,689.2z M915.9,614.8l-10.9-6.1
			c19.2-34.6,25.8-74.7,18.6-113.6l12.3-2.3C943.5,534.5,936.5,577.6,915.9,614.8z M575.3,542.8c-0.5-5.5-0.8-11.2-0.8-16.7
			c-0.1-25.4,5.2-50.5,15.5-73.7l11.5,5.1c-9.6,21.6-14.5,45-14.4,68.6c0,5.2,0.2,10.4,0.7,15.6L575.3,542.8z M887.3,417.8
			c-18.5-22.2-42.3-39.4-69.2-49.9l4.5-11.7c28.9,11.3,54.5,29.7,74.3,53.6L887.3,417.8z M654.5,390.6l-7.5-10
			c24.8-18.7,53.9-30.8,84.6-35l1.7,12.4C704.7,362,677.6,373.2,654.5,390.6z"/>
		<path class="st6" d="M775.2,717.5l-0.2-1.8c28.6-2.8,56.2-12,80.8-26.9c25.4-15.4,46.9-36.6,62.5-61.9l1.5,0.9
			c-15.8,25.5-37.4,46.9-63.1,62.5C831.9,705.4,804.1,714.7,775.2,717.5z M579,599.5c-22.9-55.3-18.7-118,11.3-169.8l1.5,0.9
			C562.1,481.9,558,544,580.6,598.8L579,599.5z M930.3,447.5c-24.5-54-72.6-93.5-130.3-107l0.4-1.7c58.2,13.7,106.8,53.6,131.5,108
			L930.3,447.5z"/>
		<g class="st7">
			<path class="st6" d="M756.7,718.9c-48.6,0.1-95.5-18.3-131.1-51.4l12.2-13.1c32.3,30,74.8,46.7,119,46.7c1.8,0,3.5,0,5.3-0.1
				l0.5,17.9C760.6,718.9,758.6,718.9,756.7,718.9z M896.1,659.3L883.2,647c31.2-32.5,48.6-75.8,48.5-120.9c0-0.9,0-1.8,0-2.6
				l17.9-0.3c0,1,0,1.9,0,2.9C949.6,575.7,930.5,623.5,896.1,659.3L896.1,659.3z M564.1,534.8c-0.1-2.9-0.2-5.8-0.2-8.7
				c0-47.6,17.6-93.6,49.5-129l13.3,12c-28.9,32.1-44.9,73.8-44.9,117c0,2.6,0.1,5.3,0.2,7.9L564.1,534.8z M879.5,401.4
				c-32.7-32.3-76.8-50.4-122.8-50.3c-3.5,0-7.1,0.1-10.6,0.3l-1.1-17.9c3.8-0.2,7.8-0.3,11.6-0.3c50.7-0.1,99.3,19.8,135.3,55.5
				L879.5,401.4z"/>
		</g>
		
			<rect x="709.8" y="359.5" transform="matrix(0.9289 -0.3703 0.3703 0.9289 -103.573 293.2217)" class="st6" width="4.2" height="113.7"/>
		<polygon class="st6" points="731,480.4 727,478.9 731.8,466.4 742.5,470.5 741.1,474.4 734.2,471.8 		"/>
		<g>
			<g>
				<defs>
					<line id="SVGID_1_" x1="690.9" y1="363.5" x2="704" y2="396.4"/>
				</defs>
				<clipPath id="SVGID_2_">
					<use xlink:href="#SVGID_1_"  style="overflow:visible;"/>
				</clipPath>
				<g class="st8">
					<rect x="690.9" y="363.5" class="st9" width="9.9" height="32.9"/>
					<rect x="700.8" y="363.5" class="st9" width="3.2" height="32.9"/>
					<rect x="704" y="363.5" class="st9" width="0" height="32.9"/>
				</g>
			</g>
		</g>
		
			<rect x="692.6" y="362.3" transform="matrix(0.9289 -0.3703 0.3703 0.9289 -91.1256 285.2984)" class="st6" width="9.8" height="35.4"/>
		<g>
			<g>
				<defs>
					<line id="SVGID_3_" x1="690.9" y1="363.5" x2="693.9" y2="371"/>
				</defs>
				<clipPath id="SVGID_4_">
					<use xlink:href="#SVGID_3_"  style="overflow:visible;"/>
				</clipPath>
				<g class="st10">
					<rect x="690.9" y="363.5" class="st9" width="2.3" height="7.5"/>
					<rect x="693.2" y="363.5" class="st9" width="0.7" height="7.5"/>
					<rect x="693.9" y="363.5" class="st9" width="0" height="7.5"/>
				</g>
			</g>
		</g>
		
			<rect x="688.8" y="363.2" transform="matrix(0.9289 -0.3703 0.3703 0.9289 -86.7597 282.4969)" class="st6" width="7.2" height="8.1"/>
		
			<rect x="818.3" y="405.3" transform="matrix(0.5949 -0.8038 0.8038 0.5949 15.1811 844.873)" class="st6" width="55" height="4.2"/>
		<polygon class="st6" points="827.9,435.6 827.6,431.8 823.8,432.1 823.4,428 831.4,427.2 832.1,435.2 		"/>
		<g>
			<g>
				<defs>
					<line id="SVGID_5_" x1="862.2" y1="385.3" x2="851.8" y2="399.3"/>
				</defs>
				<clipPath id="SVGID_6_">
					<use xlink:href="#SVGID_5_"  style="overflow:visible;"/>
				</clipPath>
				<g class="st11">
					<rect x="851.8" y="385.3" class="st9" width="7.8" height="14"/>
					<rect x="859.6" y="385.3" class="st9" width="2.5" height="14"/>
					<rect x="862.1" y="385.3" class="st9" width="0" height="14"/>
				</g>
			</g>
		</g>
		
			<rect x="848.4" y="387.3" transform="matrix(0.595 -0.8038 0.8038 0.595 31.8704 847.7297)" class="st6" width="17.4" height="9.8"/>
		<g>
			<g>
				<defs>
					<line id="SVGID_7_" x1="862.2" y1="385.3" x2="857.5" y2="391.6"/>
				</defs>
				<clipPath id="SVGID_8_">
					<use xlink:href="#SVGID_7_"  style="overflow:visible;"/>
				</clipPath>
				<g class="st12">
					<rect x="857.5" y="385.3" class="st9" width="3.5" height="6.3"/>
					<rect x="861" y="385.3" class="st9" width="1.1" height="6.3"/>
					<rect x="862.2" y="385.3" class="st9" width="0" height="6.3"/>
				</g>
			</g>
		</g>
		
			<rect x="855.9" y="384.9" transform="matrix(0.5951 -0.8036 0.8036 0.5951 35.8837 848.3123)" class="st6" width="7.8" height="7.2"/>
		
			<rect x="884.2" y="535" transform="matrix(0.3433 -0.9392 0.9392 0.3433 41.6109 1210.2618)" class="st6" width="4.2" height="80.8"/>
		<polygon class="st6" points="841.3,565.9 840,561.9 845.7,560.1 843.9,554.3 847.9,553.1 851,562.8 		"/>
		<g>
			<g>
				<defs>
					<line id="SVGID_9_" x1="921.3" y1="588.1" x2="890.4" y2="576.8"/>
				</defs>
				<clipPath id="SVGID_10_">
					<use xlink:href="#SVGID_9_"  style="overflow:visible;"/>
				</clipPath>
				<g class="st13">
					<rect x="890.4" y="576.8" class="st9" width="23.3" height="11.3"/>
					<rect x="913.8" y="576.8" class="st9" width="7.6" height="11.3"/>
					<rect x="921.3" y="576.8" class="st9" width="0" height="11.3"/>
				</g>
			</g>
		</g>
		
			<rect x="901" y="566.1" transform="matrix(0.3433 -0.9392 0.9392 0.3433 47.7792 1233.3505)" class="st6" width="9.8" height="32.9"/>
		<g>
			<g>
				<defs>
					<line id="SVGID_11_" x1="921.3" y1="588.1" x2="913" y2="585.1"/>
				</defs>
				<clipPath id="SVGID_12_">
					<use xlink:href="#SVGID_11_"  style="overflow:visible;"/>
				</clipPath>
				<g class="st14">
					<rect x="913" y="585.1" class="st9" width="6.3" height="3"/>
					<rect x="919.3" y="585.1" class="st9" width="2" height="3"/>
					<rect x="921.3" y="585.1" class="st9" width="0" height="3"/>
				</g>
			</g>
		</g>
		
			<rect x="913.5" y="582.2" transform="matrix(0.3432 -0.9393 0.9393 0.3432 51.3718 1246.6803)" class="st6" width="7.2" height="8.8"/>
		
			<rect x="701.8" y="673.4" transform="matrix(0.2308 -0.973 0.973 0.2308 -102.2321 1221.707)" class="st6" width="39.5" height="4.2"/>
		<polygon class="st6" points="724.7,658.8 720.8,646 724.8,644.8 727.5,653.7 736.9,651.2 738,655.2 		"/>
		<g>
			<g>
				<defs>
					<line id="SVGID_13_" x1="717" y1="694.7" x2="723.8" y2="665.9"/>
				</defs>
				<clipPath id="SVGID_14_">
					<use xlink:href="#SVGID_13_"  style="overflow:visible;"/>
				</clipPath>
				<g class="st15">
					<rect x="717" y="665.9" class="st9" width="5.2" height="28.8"/>
					<rect x="722.1" y="665.9" class="st9" width="1.7" height="28.8"/>
					<rect x="723.8" y="665.9" class="st9" width="0" height="28.8"/>
				</g>
			</g>
		</g>
		
			<rect x="705.6" y="675.4" transform="matrix(0.2309 -0.973 0.973 0.2309 -107.8408 1224.1007)" class="st6" width="29.6" height="9.8"/>
		<g>
			<g>
				<defs>
					<line id="SVGID_15_" x1="717" y1="694.7" x2="718.9" y2="686.8"/>
				</defs>
				<clipPath id="SVGID_16_">
					<use xlink:href="#SVGID_15_"  style="overflow:visible;"/>
				</clipPath>
				<g class="st16">
					<rect x="717" y="686.8" class="st9" width="1.4" height="7.9"/>
					<rect x="718.4" y="686.8" class="st9" width="0.5" height="7.9"/>
					<rect x="718.9" y="686.8" class="st9" width="0" height="7.9"/>
				</g>
			</g>
		</g>
		
			<rect x="713.8" y="687" transform="matrix(0.2309 -0.973 0.973 0.2309 -119.7871 1229.6564)" class="st6" width="8.2" height="7.2"/>
		
			<rect x="587.1" y="567.7" transform="matrix(0.9622 -0.2723 0.2723 0.9622 -132.1444 187.2719)" class="st6" width="43.1" height="4.2"/>
		<polygon class="st6" points="633.8,568.3 626.5,564.9 629.9,557.7 633.7,559.4 632.1,562.9 635.6,564.5 		"/>
		<g>
			<g>
				<defs>
					<line id="SVGID_17_" x1="587.9" y1="575.6" x2="612.9" y2="568.3"/>
				</defs>
				<clipPath id="SVGID_18_">
					<use xlink:href="#SVGID_17_"  style="overflow:visible;"/>
				</clipPath>
				<g class="st17">
					<rect x="587.9" y="568.3" class="st9" width="18.9" height="7.3"/>
					<rect x="606.8" y="568.3" class="st9" width="6.1" height="7.3"/>
					<rect x="612.9" y="568.3" class="st9" width="0" height="7.3"/>
				</g>
			</g>
		</g>
		
			<rect x="587.4" y="567.1" transform="matrix(0.9601 -0.2795 0.2795 0.9601 -135.9362 190.624)" class="st6" width="26.1" height="9.8"/>
		<g>
			<g>
				<defs>
					<line id="SVGID_19_" x1="587.9" y1="575.6" x2="597.8" y2="572.7"/>
				</defs>
				<clipPath id="SVGID_20_">
					<use xlink:href="#SVGID_19_"  style="overflow:visible;"/>
				</clipPath>
				<g class="st18">
					<rect x="587.9" y="572.7" class="st9" width="7.5" height="2.9"/>
					<rect x="595.4" y="572.7" class="st9" width="2.4" height="2.9"/>
					<rect x="597.8" y="572.7" class="st9" width="0" height="2.9"/>
				</g>
			</g>
		</g>
		
			<rect x="587.7" y="570.6" transform="matrix(0.9601 -0.2795 0.2795 0.9601 -136.8645 188.5979)" class="st6" width="10.4" height="7.2"/>
		<rect x="590.3" y="532" class="st4" width="6.4" height="6.4"/>
		<rect x="577.8" y="511.1" class="st4" width="6.4" height="6.4"/>
		<rect x="555.8" y="518" class="st4" width="7" height="7"/>
		<g>
			<g>
				<defs>
					<circle id="SVGID_21_" cx="756.7" cy="524.8" r="135.8"/>
				</defs>
				<clipPath id="SVGID_22_">
					<use xlink:href="#SVGID_21_"  style="overflow:visible;"/>
				</clipPath>
				<g class="st19">
					<rect x="628" y="360.8" class="st6" width="7.7" height="7.7"/>
					<rect x="653.1" y="360.8" class="st6" width="7.7" height="7.7"/>
					<rect x="665.6" y="360.8" class="st6" width="7.7" height="7.7"/>
					<rect x="678.2" y="360.8" class="st6" width="7.7" height="7.7"/>
					<rect x="690.7" y="360.8" class="st6" width="7.7" height="7.7"/>
					<rect x="703.3" y="360.8" class="st6" width="7.7" height="7.7"/>
					<rect x="715.8" y="360.8" class="st6" width="7.7" height="7.7"/>
					<rect x="740.9" y="360.8" class="st6" width="7.7" height="7.7"/>
					<rect x="753.4" y="360.8" class="st6" width="7.7" height="7.7"/>
					<rect x="640.5" y="372.7" class="st20" width="7.7" height="7.7"/>
					<rect x="653.1" y="372.7" class="st4" width="7.7" height="7.7"/>
					<rect x="665.6" y="372.7" class="st6" width="7.7" height="7.7"/>
					<rect x="715.8" y="372.7" class="st6" width="7.7" height="7.7"/>
					<rect x="728.3" y="372.7" class="st6" width="7.7" height="7.7"/>
					<rect x="753.4" y="372.7" class="st6" width="7.7" height="7.7"/>
					<rect x="628" y="384.5" class="st4" width="7.7" height="7.7"/>
					<rect x="640.5" y="384.5" class="st20" width="7.7" height="7.7"/>
					<rect x="665.6" y="384.5" class="st6" width="7.7" height="7.7"/>
					<rect x="678.2" y="384.5" class="st21" width="7.7" height="7.7"/>
					<rect x="690.7" y="384.5" class="st6" width="7.7" height="7.7"/>
					<rect x="703.3" y="384.5" class="st6" width="7.7" height="7.7"/>
					<rect x="628" y="396.4" class="st22" width="7.7" height="7.7"/>
					<rect x="653.1" y="396.4" class="st21" width="7.7" height="7.7"/>
					<rect x="665.6" y="396.4" class="st6" width="7.7" height="7.7"/>
					<rect x="678.2" y="396.4" class="st21" width="7.7" height="7.7"/>
					<rect x="715.8" y="396.4" class="st6" width="7.7" height="7.7"/>
					<rect x="740.9" y="396.4" class="st6" width="7.7" height="7.7"/>
					<rect x="628" y="408.2" class="st4" width="7.7" height="7.7"/>
					<rect x="653.1" y="408.2" class="st6" width="7.7" height="7.7"/>
					<rect x="665.6" y="408.2" class="st20" width="7.7" height="7.7"/>
					<rect x="690.7" y="408.2" class="st6" width="7.7" height="7.7"/>
					<rect x="715.8" y="408.2" class="st6" width="7.7" height="7.7"/>
					<rect x="728.3" y="408.2" class="st6" width="7.7" height="7.7"/>
					<rect x="740.9" y="408.2" class="st6" width="7.7" height="7.7"/>
					<rect x="753.4" y="408.2" class="st6" width="7.7" height="7.7"/>
					<rect x="628" y="420.1" class="st6" width="7.7" height="7.7"/>
					<path class="st21" d="M647,419L647,419c2.1,0,3.9,1.7,3.9,3.9l0,0c0,2.1-1.7,3.9-3.9,3.9l0,0c-2.1,0-3.9-1.7-3.9-3.9l0,0
						C643.1,420.8,644.8,419,647,419z"/>
					
						<rect x="678.2" y="420.1" transform="matrix(0.7071 -0.7071 0.7071 0.7071 -100.0118 606.4261)" class="st4" width="7.7" height="7.7"/>
					<rect x="690.7" y="420.1" class="st6" width="7.7" height="7.7"/>
					<rect x="728.3" y="420.1" class="st6" width="7.7" height="7.7"/>
					<path class="st20" d="M631.8,432L631.8,432c2.1,0,3.9,1.7,3.9,3.9l0,0c0,2.1-1.7,3.9-3.9,3.9l0,0c-2.1,0-3.9-1.7-3.9-3.9l0,0
						C628,433.7,629.7,432,631.8,432z"/>
					<path class="st4" d="M694.6,432L694.6,432c2.1,0,3.9,1.7,3.9,3.9l0,0c0,2.1-1.7,3.9-3.9,3.9l0,0c-2.1,0-3.9-1.7-3.9-3.9l0,0
						C690.7,433.7,692.4,432,694.6,432z"/>
					
						<rect x="737.4" y="430.4" transform="matrix(0.7071 -0.7071 0.7071 0.7071 -89.9694 651.3611)" class="st6" width="7.7" height="7.7"/>
					<rect x="753.4" y="432" class="st6" width="7.7" height="7.7"/>
					<rect x="628" y="443.8" class="st21" width="7.7" height="7.7"/>
					<rect x="678.2" y="443.8" class="st4" width="7.7" height="7.7"/>
					<rect x="703.3" y="443.8" class="st4" width="7.7" height="7.7"/>
					<rect x="640.5" y="455.7" class="st4" width="7.7" height="7.7"/>
					<rect x="665.6" y="455.7" class="st4" width="7.7" height="7.7"/>
					<rect x="690.7" y="455.7" class="st6" width="7.7" height="7.7"/>
					<rect x="715.8" y="455.7" class="st6" width="7.7" height="7.7"/>
					<rect x="640.5" y="467.6" class="st4" width="7.7" height="7.7"/>
					<rect x="753.4" y="467.6" class="st6" width="7.7" height="7.7"/>
					<rect x="653.1" y="479.4" class="st6" width="7.7" height="7.7"/>
					<rect x="665.6" y="479.4" class="st4" width="7.7" height="7.7"/>
					<rect x="678.2" y="479.4" class="st4" width="7.7" height="7.7"/>
					<rect x="690.7" y="479.4" class="st6" width="7.7" height="7.7"/>
					<rect x="703.3" y="479.4" class="st4" width="7.7" height="7.7"/>
					<rect x="715.8" y="479.4" class="st6" width="7.7" height="7.7"/>
					<rect x="628" y="491.3" class="st6" width="7.7" height="7.7"/>
					<rect x="640.5" y="491.3" class="st6" width="7.7" height="7.7"/>
					<rect x="740.9" y="491.3" class="st6" width="7.7" height="7.7"/>
					<rect x="753.4" y="491.3" class="st6" width="7.7" height="7.7"/>
					<rect x="591.7" y="507.9" class="st6" width="7.7" height="7.7"/>
					<rect x="629.3" y="507.9" class="st6" width="7.7" height="7.7"/>
					<rect x="641.9" y="507.9" class="st6" width="7.7" height="7.7"/>
					<rect x="654.4" y="507.9" class="st6" width="7.7" height="7.7"/>
					<rect x="667" y="507.9" class="st6" width="7.7" height="7.7"/>
					<rect x="679.5" y="507.9" class="st6" width="7.7" height="7.7"/>
					<rect x="704.6" y="507.9" class="st6" width="7.7" height="7.7"/>
					<rect x="717.2" y="507.9" class="st6" width="7.7" height="7.7"/>
					<rect x="604.2" y="519.8" class="st20" width="7.7" height="7.7"/>
					<rect x="591.7" y="531.6" class="st4" width="7.7" height="7.7"/>
					<rect x="604.2" y="531.6" class="st20" width="7.7" height="7.7"/>
					<rect x="641.9" y="531.6" class="st4" width="7.7" height="7.7"/>
					<rect x="654.4" y="531.6" class="st6" width="7.7" height="7.7"/>
					<rect x="667" y="531.6" class="st6" width="7.7" height="7.7"/>
					<rect x="692.1" y="531.6" class="st6" width="7.7" height="7.7"/>
					<rect x="704.6" y="531.6" class="st6" width="7.7" height="7.7"/>
					<rect x="591.7" y="543.5" class="st22" width="7.7" height="7.7"/>
					<rect x="629.3" y="543.5" class="st4" width="7.7" height="7.7"/>
					<rect x="667" y="543.5" class="st6" width="7.7" height="7.7"/>
					<rect x="679.5" y="543.5" class="st6" width="7.7" height="7.7"/>
					<rect x="591.7" y="555.4" class="st4" width="7.7" height="7.7"/>
					<rect x="654.4" y="555.4" class="st6" width="7.7" height="7.7"/>
					<rect x="692.1" y="555.4" class="st6" width="7.7" height="7.7"/>
					<rect x="704.6" y="555.4" class="st6" width="7.7" height="7.7"/>
					<rect x="717.2" y="555.4" class="st6" width="7.7" height="7.7"/>
					<rect x="591.7" y="567.2" class="st6" width="7.7" height="7.7"/>
					<path class="st21" d="M610.7,566.1L610.7,566.1c2.1,0,3.9,1.7,3.9,3.9l0,0c0,2.1-1.7,3.9-3.9,3.9l0,0c-2.1,0-3.9-1.7-3.9-3.9
						l0,0C606.8,567.9,608.6,566.1,610.7,566.1z"/>
					
						<rect x="641.9" y="567.2" transform="matrix(0.7071 -0.7071 0.7071 0.7071 -214.6715 623.8495)" class="st4" width="7.7" height="7.7"/>
					<rect x="654.4" y="567.2" class="st6" width="7.7" height="7.7"/>
					<path class="st20" d="M595.6,579.1L595.6,579.1c2.1,0,3.9,1.7,3.9,3.9l0,0c0,2.1-1.7,3.9-3.9,3.9l0,0c-2.1,0-3.9-1.7-3.9-3.9
						l0,0C591.7,580.8,593.4,579.1,595.6,579.1z"/>
					<rect x="616.8" y="579.1" class="st22" width="7.7" height="7.7"/>
					<rect x="641.9" y="579.1" class="st6" width="7.7" height="7.7"/>
					<path class="st4" d="M658.3,579.1L658.3,579.1c2.1,0,3.9,1.7,3.9,3.9l0,0c0,2.1-1.7,3.9-3.9,3.9l0,0c-2.1,0-3.9-1.7-3.9-3.9
						l0,0C654.4,580.8,656.2,579.1,658.3,579.1z"/>
					<rect x="679.5" y="579.1" class="st6" width="7.7" height="7.7"/>
					
						<rect x="701.2" y="577.5" transform="matrix(0.7071 -0.7071 0.7071 0.7071 -204.5589 668.8143)" class="st6" width="7.7" height="7.7"/>
					<rect x="717.2" y="579.1" class="st6" width="7.7" height="7.7"/>
					<rect x="591.7" y="591" class="st21" width="7.7" height="7.7"/>
					<rect x="616.8" y="591" class="st6" width="7.7" height="7.7"/>
					<rect x="629.3" y="591" class="st6" width="7.7" height="7.7"/>
					<rect x="654.4" y="591" class="st6" width="7.7" height="7.7"/>
					<rect x="667" y="591" class="st4" width="7.7" height="7.7"/>
					<rect x="591.7" y="602.8" class="st20" width="7.7" height="7.7"/>
					<rect x="604.2" y="602.8" class="st4" width="7.7" height="7.7"/>
					<rect x="629.3" y="602.8" class="st20" width="7.7" height="7.7"/>
					<rect x="654.4" y="602.8" class="st6" width="7.7" height="7.7"/>
					<rect x="679.5" y="602.8" class="st6" width="7.7" height="7.7"/>
					<rect x="704.6" y="602.8" class="st6" width="7.7" height="7.7"/>
					<rect x="604.2" y="614.7" class="st20" width="7.7" height="7.7"/>
					<rect x="641.9" y="614.7" class="st6" width="7.7" height="7.7"/>
					<rect x="692.1" y="614.7" class="st6" width="7.7" height="7.7"/>
					<rect x="717.2" y="614.7" class="st6" width="7.7" height="7.7"/>
					<rect x="616.8" y="626.5" class="st6" width="7.7" height="7.7"/>
					<rect x="629.3" y="626.5" class="st4" width="7.7" height="7.7"/>
					<rect x="641.9" y="626.5" class="st4" width="7.7" height="7.7"/>
					<rect x="654.4" y="626.5" class="st6" width="7.7" height="7.7"/>
					<rect x="591.7" y="638.4" class="st6" width="7.7" height="7.7"/>
					<rect x="604.2" y="638.4" class="st6" width="7.7" height="7.7"/>
					<rect x="641.9" y="638.4" class="st6" width="7.7" height="7.7"/>
					<rect x="654.4" y="638.4" class="st21" width="7.7" height="7.7"/>
					<rect x="667" y="638.4" class="st6" width="7.7" height="7.7"/>
					<rect x="730.5" y="507.9" class="st6" width="7.7" height="7.7"/>
					<rect x="755.6" y="507.9" class="st6" width="7.7" height="7.7"/>
					<rect x="768.1" y="507.9" class="st6" width="7.7" height="7.7"/>
					<rect x="780.7" y="507.9" class="st6" width="7.7" height="7.7"/>
					<rect x="793.2" y="507.9" class="st6" width="7.7" height="7.7"/>
					<rect x="805.7" y="507.9" class="st6" width="7.7" height="7.7"/>
					<rect x="818.3" y="507.9" class="st6" width="7.7" height="7.7"/>
					<rect x="843.4" y="507.9" class="st6" width="7.7" height="7.7"/>
					<rect x="855.9" y="507.9" class="st6" width="7.7" height="7.7"/>
					<rect x="743" y="519.8" class="st6" width="7.7" height="7.7"/>
					<rect x="755.6" y="519.8" class="st6" width="7.7" height="7.7"/>
					<rect x="768.1" y="519.8" class="st6" width="7.7" height="7.7"/>
					<rect x="818.3" y="519.8" class="st6" width="7.7" height="7.7"/>
					<rect x="830.8" y="519.8" class="st6" width="7.7" height="7.7"/>
					<rect x="855.9" y="519.8" class="st6" width="7.7" height="7.7"/>
					<rect x="730.5" y="531.6" class="st6" width="7.7" height="7.7"/>
					<rect x="743" y="531.6" class="st6" width="7.7" height="7.7"/>
					<rect x="768.1" y="531.6" class="st6" width="7.7" height="7.7"/>
					<rect x="780.7" y="531.6" class="st6" width="7.7" height="7.7"/>
					<rect x="793.2" y="531.6" class="st6" width="7.7" height="7.7"/>
					<rect x="793.2" y="543.5" class="st6" width="7.7" height="7.7"/>
					<rect x="782.6" y="551.5" class="st6" width="7.7" height="7.7"/>
					<rect x="819.7" y="545.9" class="st6" width="7.7" height="7.7"/>
					<rect x="801.9" y="519.8" class="st6" width="7.7" height="7.7"/>
					
						<rect x="752.8" y="539.1" transform="matrix(0.8174 -0.5761 0.5761 0.8174 -174.6475 535.0827)" class="st6" width="7.7" height="7.7"/>
					<rect x="805.7" y="531.6" class="st6" width="7.7" height="7.7"/>
					<rect x="830.8" y="531.6" class="st6" width="7.7" height="7.7"/>
					<rect x="843.4" y="531.6" class="st6" width="7.7" height="7.7"/>
					<rect x="805.7" y="543.5" class="st6" width="7.7" height="7.7"/>
					<rect x="730.5" y="555.4" class="st6" width="7.7" height="7.7"/>
					<rect x="755.6" y="555.4" class="st6" width="7.7" height="7.7"/>
					<rect x="768.1" y="555.4" class="st6" width="7.7" height="7.7"/>
					<path class="st6" d="M797.1,599L797.1,599c2.1,0,3.9,1.7,3.9,3.9l0,0c0,2.1-1.7,3.9-3.9,3.9l0,0c-2.1,0-3.9-1.7-3.9-3.9l0,0
						C793.2,600.7,794.9,599,797.1,599z"/>
					<path class="st6" d="M810.4,589.6L810.4,589.6c2.1,0,3.9,1.7,3.9,3.9l0,0c0,2.1-1.7,3.9-3.9,3.9l0,0c-2.1,0-3.9-1.7-3.9-3.9
						l0,0C806.5,591.3,808.3,589.6,810.4,589.6z"/>
					<path class="st4" d="M749.5,566.1L749.5,566.1c2.1,0,3.9,1.7,3.9,3.9l0,0c0,2.1-1.7,3.9-3.9,3.9l0,0c-2.1,0-3.9-1.7-3.9-3.9
						l0,0C745.6,567.9,747.3,566.1,749.5,566.1z"/>
					<rect x="768.1" y="567.2" class="st6" width="7.7" height="7.7"/>
					
						<rect x="780.7" y="567.2" transform="matrix(0.7071 -0.7071 0.7071 0.7071 -174.006 721.9826)" class="st6" width="7.7" height="7.7"/>
					<rect x="793.2" y="567.2" class="st6" width="7.7" height="7.7"/>
					<rect x="805.7" y="567.2" class="st6" width="7.7" height="7.7"/>
					<rect x="818.3" y="567.2" class="st6" width="7.7" height="7.7"/>
					<path class="st6" d="M734.3,579.1L734.3,579.1c2.1,0,3.9,1.7,3.9,3.9l0,0c0,2.1-1.7,3.9-3.9,3.9l0,0c-2.1,0-3.9-1.7-3.9-3.9
						l0,0C730.5,580.8,732.2,579.1,734.3,579.1z"/>
					<rect x="755.6" y="579.1" class="st6" width="7.7" height="7.7"/>
					<rect x="780.7" y="579.1" class="st6" width="7.7" height="7.7"/>
					<path class="st6" d="M797.1,579.1L797.1,579.1c2.1,0,3.9,1.7,3.9,3.9l0,0c0,2.1-1.7,3.9-3.9,3.9l0,0c-2.1,0-3.9-1.7-3.9-3.9
						l0,0C793.2,580.8,794.9,579.1,797.1,579.1z"/>
					<rect x="818.3" y="579.1" class="st6" width="7.7" height="7.7"/>
					
						<rect x="839.9" y="577.5" transform="matrix(0.7071 -0.7071 0.7071 0.7071 -163.9635 766.9178)" class="st6" width="7.7" height="7.7"/>
					<rect x="855.9" y="579.1" class="st6" width="7.7" height="7.7"/>
					<rect x="730.5" y="602.8" class="st6" width="7.7" height="7.7"/>
					<rect x="743" y="602.8" class="st6" width="7.7" height="7.7"/>
					<rect x="768.1" y="602.8" class="st6" width="7.7" height="7.7"/>
					<rect x="780.7" y="602.8" class="st6" width="7.7" height="7.7"/>
					<rect x="805.7" y="602.8" class="st6" width="7.7" height="7.7"/>
					<rect x="818.3" y="602.8" class="st6" width="7.7" height="7.7"/>
					<rect x="843.4" y="602.8" class="st6" width="7.7" height="7.7"/>
					<rect x="743" y="614.7" class="st6" width="7.7" height="7.7"/>
					<rect x="793.2" y="614.7" class="st6" width="7.7" height="7.7"/>
					<rect x="830.8" y="614.7" class="st6" width="7.7" height="7.7"/>
					<rect x="755.6" y="626.5" class="st6" width="7.7" height="7.7"/>
					<rect x="768.1" y="626.5" class="st6" width="7.7" height="7.7"/>
					<rect x="855.9" y="626.5" class="st6" width="7.7" height="7.7"/>
					<rect x="730.5" y="638.4" class="st6" width="7.7" height="7.7"/>
					<rect x="780.7" y="638.4" class="st6" width="7.7" height="7.7"/>
					<rect x="805.7" y="638.4" class="st6" width="7.7" height="7.7"/>
					<rect x="843.4" y="638.4" class="st6" width="7.7" height="7.7"/>
					<rect x="855.9" y="638.4" class="st6" width="7.7" height="7.7"/>
					<rect x="872.3" y="510.1" class="st6" width="7.7" height="7.7"/>
					<rect x="897.4" y="510.1" class="st6" width="7.7" height="7.7"/>
					<rect x="909.9" y="510.1" class="st6" width="7.7" height="7.7"/>
					<rect x="922.5" y="510.1" class="st6" width="7.7" height="7.7"/>
					<rect x="935" y="510.1" class="st6" width="7.7" height="7.7"/>
					<rect x="947.6" y="510.1" class="st6" width="7.7" height="7.7"/>
					<rect x="960.1" y="510.1" class="st6" width="7.7" height="7.7"/>
					<rect x="985.2" y="510.1" class="st6" width="7.7" height="7.7"/>
					<rect x="997.8" y="510.1" class="st6" width="7.7" height="7.7"/>
					<rect x="884.8" y="522" class="st6" width="7.7" height="7.7"/>
					<rect x="897.4" y="522" class="st6" width="7.7" height="7.7"/>
					<rect x="909.9" y="522" class="st6" width="7.7" height="7.7"/>
					<rect x="960.1" y="522" class="st6" width="7.7" height="7.7"/>
					<rect x="972.7" y="522" class="st6" width="7.7" height="7.7"/>
					<rect x="997.8" y="522" class="st6" width="7.7" height="7.7"/>
					<rect x="872.3" y="533.9" class="st6" width="7.7" height="7.7"/>
					<rect x="909.9" y="533.9" class="st6" width="7.7" height="7.7"/>
					<rect x="922.5" y="533.9" class="st6" width="7.7" height="7.7"/>
					<rect x="935" y="533.9" class="st6" width="7.7" height="7.7"/>
					<rect x="947.6" y="533.9" class="st6" width="7.7" height="7.7"/>
					<rect x="972.7" y="533.9" class="st6" width="7.7" height="7.7"/>
					<rect x="985.2" y="533.9" class="st6" width="7.7" height="7.7"/>
					<rect x="897.4" y="545.7" class="st6" width="7.7" height="7.7"/>
					<rect x="909.9" y="545.7" class="st6" width="7.7" height="7.7"/>
					<rect x="922.5" y="545.7" class="st6" width="7.7" height="7.7"/>
					<rect x="935" y="545.7" class="st6" width="7.7" height="7.7"/>
					<rect x="947.6" y="545.7" class="st6" width="7.7" height="7.7"/>
					<rect x="960.1" y="545.7" class="st6" width="7.7" height="7.7"/>
					<rect x="985.2" y="545.7" class="st6" width="7.7" height="7.7"/>
					<rect x="897.4" y="557.6" class="st6" width="7.7" height="7.7"/>
					<rect x="909.9" y="557.6" class="st6" width="7.7" height="7.7"/>
					<rect x="922.5" y="557.6" class="st6" width="7.7" height="7.7"/>
					<rect x="935" y="557.6" class="st6" width="7.7" height="7.7"/>
					<rect x="947.6" y="557.6" class="st6" width="7.7" height="7.7"/>
					<rect x="960.1" y="557.6" class="st6" width="7.7" height="7.7"/>
					<rect x="972.7" y="557.6" class="st6" width="7.7" height="7.7"/>
					<rect x="985.2" y="557.6" class="st6" width="7.7" height="7.7"/>
					<rect x="997.8" y="557.6" class="st6" width="7.7" height="7.7"/>
					<path class="st6" d="M891.3,568.4L891.3,568.4c2.1,0,3.9,1.7,3.9,3.9l0,0c0,2.1-1.7,3.9-3.9,3.9l0,0c-2.1,0-3.9-1.7-3.9-3.9
						l0,0C887.4,570.1,889.2,568.4,891.3,568.4z"/>
					<rect x="909.9" y="569.5" class="st6" width="7.7" height="7.7"/>
					
						<rect x="922.5" y="569.5" transform="matrix(0.7071 -0.7071 0.7071 0.7071 -134.0873 822.9561)" class="st6" width="7.7" height="7.7"/>
					<rect x="935" y="569.5" class="st6" width="7.7" height="7.7"/>
					<rect x="947.6" y="569.5" class="st6" width="7.7" height="7.7"/>
					<rect x="960.1" y="569.5" class="st6" width="7.7" height="7.7"/>
					<rect x="972.7" y="569.5" class="st6" width="7.7" height="7.7"/>
					<rect x="997.8" y="569.5" class="st6" width="7.7" height="7.7"/>
					<rect x="897.4" y="581.3" class="st6" width="7.7" height="7.7"/>
					<rect x="909.9" y="581.3" class="st6" width="7.7" height="7.7"/>
					<rect x="922.5" y="581.3" class="st6" width="7.7" height="7.7"/>
					<path class="st6" d="M938.9,581.3L938.9,581.3c2.1,0,3.9,1.7,3.9,3.9l0,0c0,2.1-1.7,3.9-3.9,3.9l0,0c-2.1,0-3.9-1.7-3.9-3.9
						l0,0C935,583.1,936.8,581.3,938.9,581.3z"/>
					<rect x="947.6" y="581.3" class="st6" width="7.7" height="7.7"/>
					<rect x="960.1" y="581.3" class="st6" width="7.7" height="7.7"/>
					
						<rect x="981.8" y="579.7" transform="matrix(0.7071 -0.7071 0.7071 0.7071 -123.9454 867.8493)" class="st6" width="7.7" height="7.7"/>
					<rect x="997.8" y="581.3" class="st6" width="7.7" height="7.7"/>
					<rect x="897.4" y="593.2" class="st6" width="7.7" height="7.7"/>
					<rect x="909.9" y="593.2" class="st6" width="7.7" height="7.7"/>
					<rect x="922.5" y="593.2" class="st6" width="7.7" height="7.7"/>
					<rect x="935" y="593.2" class="st6" width="7.7" height="7.7"/>
					<rect x="947.6" y="593.2" class="st6" width="7.7" height="7.7"/>
					<rect x="960.1" y="593.2" class="st6" width="7.7" height="7.7"/>
					<rect x="972.7" y="593.2" class="st6" width="7.7" height="7.7"/>
					<rect x="985.2" y="593.2" class="st6" width="7.7" height="7.7"/>
					<rect x="872.3" y="605.1" class="st6" width="7.7" height="7.7"/>
					<rect x="884.8" y="605.1" class="st6" width="7.7" height="7.7"/>
					<rect x="909.9" y="605.1" class="st6" width="7.7" height="7.7"/>
					<rect x="922.5" y="605.1" class="st6" width="7.7" height="7.7"/>
					<rect x="935" y="605.1" class="st6" width="7.7" height="7.7"/>
					<rect x="947.6" y="605.1" class="st6" width="7.7" height="7.7"/>
					<rect x="960.1" y="605.1" class="st6" width="7.7" height="7.7"/>
					<rect x="985.2" y="605.1" class="st6" width="7.7" height="7.7"/>
					<rect x="884.8" y="616.9" class="st6" width="7.7" height="7.7"/>
					<rect x="922.5" y="616.9" class="st6" width="7.7" height="7.7"/>
					<rect x="935" y="616.9" class="st6" width="7.7" height="7.7"/>
					<rect x="947.6" y="616.9" class="st6" width="7.7" height="7.7"/>
					<rect x="972.7" y="616.9" class="st6" width="7.7" height="7.7"/>
					<rect x="985.2" y="616.9" class="st6" width="7.7" height="7.7"/>
					<rect x="997.8" y="616.9" class="st6" width="7.7" height="7.7"/>
					<rect x="897.4" y="628.8" class="st6" width="7.7" height="7.7"/>
					<rect x="909.9" y="628.8" class="st6" width="7.7" height="7.7"/>
					<rect x="922.5" y="628.8" class="st6" width="7.7" height="7.7"/>
					<rect x="935" y="628.8" class="st6" width="7.7" height="7.7"/>
					<rect x="947.6" y="628.8" class="st6" width="7.7" height="7.7"/>
					<rect x="960.1" y="628.8" class="st6" width="7.7" height="7.7"/>
					<rect x="972.7" y="628.8" class="st6" width="7.7" height="7.7"/>
					<rect x="985.2" y="628.8" class="st6" width="7.7" height="7.7"/>
					<rect x="997.8" y="628.8" class="st6" width="7.7" height="7.7"/>
					<rect x="872.3" y="640.7" class="st6" width="7.7" height="7.7"/>
					<rect x="884.8" y="640.7" class="st6" width="7.7" height="7.7"/>
					<rect x="922.5" y="640.7" class="st6" width="7.7" height="7.7"/>
					<rect x="935" y="640.7" class="st6" width="7.7" height="7.7"/>
					<rect x="947.6" y="640.7" class="st6" width="7.7" height="7.7"/>
					<rect x="960.1" y="640.7" class="st6" width="7.7" height="7.7"/>
					<rect x="972.7" y="640.7" class="st6" width="7.7" height="7.7"/>
					<rect x="985.2" y="640.7" class="st6" width="7.7" height="7.7"/>
					<rect x="997.8" y="640.7" class="st6" width="7.7" height="7.7"/>
					<rect x="766.6" y="363.3" class="st6" width="7.7" height="7.7"/>
					<rect x="791.7" y="363.3" class="st6" width="7.7" height="7.7"/>
					<rect x="804.2" y="363.3" class="st6" width="7.7" height="7.7"/>
					<rect x="816.8" y="363.3" class="st6" width="7.7" height="7.7"/>
					<rect x="829.3" y="363.3" class="st6" width="7.7" height="7.7"/>
					<rect x="841.9" y="363.3" class="st6" width="7.7" height="7.7"/>
					<rect x="854.4" y="363.3" class="st6" width="7.7" height="7.7"/>
					<rect x="879.5" y="363.3" class="st6" width="7.7" height="7.7"/>
					<rect x="892.1" y="363.3" class="st6" width="7.7" height="7.7"/>
					<rect x="779.1" y="375.1" class="st6" width="7.7" height="7.7"/>
					<rect x="791.7" y="375.1" class="st6" width="7.7" height="7.7"/>
					<rect x="804.2" y="375.1" class="st6" width="7.7" height="7.7"/>
					<rect x="854.4" y="375.1" class="st6" width="7.7" height="7.7"/>
					<rect x="867" y="375.1" class="st6" width="7.7" height="7.7"/>
					<rect x="892.1" y="375.1" class="st6" width="7.7" height="7.7"/>
					<rect x="804.2" y="387" class="st6" width="7.7" height="7.7"/>
					<rect x="816.8" y="387" class="st6" width="7.7" height="7.7"/>
					<rect x="829.3" y="387" class="st6" width="7.7" height="7.7"/>
					<rect x="841.9" y="387" class="st6" width="7.7" height="7.7"/>
					<rect x="867" y="387" class="st6" width="7.7" height="7.7"/>
					<rect x="879.5" y="387" class="st6" width="7.7" height="7.7"/>
					<rect x="766.6" y="398.9" class="st6" width="7.7" height="7.7"/>
					<rect x="791.7" y="398.9" class="st6" width="7.7" height="7.7"/>
					<rect x="829.3" y="398.9" class="st6" width="7.7" height="7.7"/>
					<rect x="841.9" y="398.9" class="st6" width="7.7" height="7.7"/>
					<rect x="854.4" y="398.9" class="st6" width="7.7" height="7.7"/>
					<rect x="879.5" y="398.9" class="st6" width="7.7" height="7.7"/>
					<rect x="766.6" y="410.7" class="st6" width="7.7" height="7.7"/>
					<rect x="791.7" y="410.7" class="st6" width="7.7" height="7.7"/>
					<rect x="804.2" y="410.7" class="st6" width="7.7" height="7.7"/>
					<rect x="816.8" y="410.7" class="st6" width="7.7" height="7.7"/>
					<rect x="841.9" y="410.7" class="st6" width="7.7" height="7.7"/>
					<rect x="854.4" y="410.7" class="st6" width="7.7" height="7.7"/>
					<rect x="867" y="410.7" class="st6" width="7.7" height="7.7"/>
					<rect x="879.5" y="410.7" class="st6" width="7.7" height="7.7"/>
					<rect x="892.1" y="410.7" class="st6" width="7.7" height="7.7"/>
					<path class="st6" d="M785.6,421.5L785.6,421.5c2.1,0,3.9,1.7,3.9,3.9l0,0c0,2.1-1.7,3.9-3.9,3.9l0,0c-2.1,0-3.9-1.7-3.9-3.9
						l0,0C781.7,423.3,783.5,421.5,785.6,421.5z"/>
					<rect x="804.2" y="422.6" class="st6" width="7.7" height="7.7"/>
					<rect x="854.4" y="422.6" class="st6" width="7.7" height="7.7"/>
					<rect x="867" y="422.6" class="st6" width="7.7" height="7.7"/>
					<rect x="892.1" y="422.6" class="st6" width="7.7" height="7.7"/>
					<path class="st6" d="M770.4,434.5L770.4,434.5c2.1,0,3.9,1.7,3.9,3.9l0,0c0,2.1-1.7,3.9-3.9,3.9l0,0c-2.1,0-3.9-1.7-3.9-3.9
						l0,0C766.6,436.2,768.3,434.5,770.4,434.5z"/>
					<rect x="791.7" y="434.5" class="st6" width="7.7" height="7.7"/>
					<rect x="804.2" y="434.5" class="st6" width="7.7" height="7.7"/>
					<rect x="841.9" y="434.5" class="st6" width="7.7" height="7.7"/>
					
						<rect x="876.1" y="432.9" transform="matrix(0.7071 -0.7071 0.7071 0.7071 -51.0729 750.1354)" class="st6" width="7.7" height="7.7"/>
					<rect x="892.1" y="434.5" class="st6" width="7.7" height="7.7"/>
					<rect x="879.5" y="446.3" class="st6" width="7.7" height="7.7"/>
					<rect x="766.6" y="458.2" class="st6" width="7.7" height="7.7"/>
					<rect x="779.1" y="458.2" class="st6" width="7.7" height="7.7"/>
					<rect x="804.2" y="458.2" class="st6" width="7.7" height="7.7"/>
					<rect x="816.8" y="458.2" class="st6" width="7.7" height="7.7"/>
					<rect x="829.3" y="458.2" class="st6" width="7.7" height="7.7"/>
					<rect x="841.9" y="458.2" class="st6" width="7.7" height="7.7"/>
					<rect x="854.4" y="458.2" class="st6" width="7.7" height="7.7"/>
					<rect x="879.5" y="458.2" class="st6" width="7.7" height="7.7"/>
					<rect x="779.1" y="470.1" class="st6" width="7.7" height="7.7"/>
					<rect x="892.1" y="470.1" class="st6" width="7.7" height="7.7"/>
					<rect x="791.7" y="481.9" class="st6" width="7.7" height="7.7"/>
					<rect x="804.2" y="481.9" class="st6" width="7.7" height="7.7"/>
					<rect x="816.8" y="481.9" class="st6" width="7.7" height="7.7"/>
					<rect x="829.3" y="481.9" class="st6" width="7.7" height="7.7"/>
					<rect x="841.9" y="481.9" class="st6" width="7.7" height="7.7"/>
					<rect x="854.4" y="481.9" class="st6" width="7.7" height="7.7"/>
					<rect x="867" y="481.9" class="st6" width="7.7" height="7.7"/>
					<rect x="892.1" y="481.9" class="st6" width="7.7" height="7.7"/>
					<rect x="766.6" y="493.8" class="st6" width="7.7" height="7.7"/>
					<rect x="779.1" y="493.8" class="st6" width="7.7" height="7.7"/>
					<rect x="816.8" y="493.8" class="st6" width="7.7" height="7.7"/>
					<rect x="829.3" y="493.8" class="st6" width="7.7" height="7.7"/>
					<rect x="841.9" y="493.8" class="st6" width="7.7" height="7.7"/>
					<rect x="854.4" y="493.8" class="st6" width="7.7" height="7.7"/>
					<rect x="867" y="493.8" class="st6" width="7.7" height="7.7"/>
					<rect x="879.5" y="493.8" class="st6" width="7.7" height="7.7"/>
					<rect x="892.1" y="493.8" class="st6" width="7.7" height="7.7"/>
				</g>
			</g>
		</g>
		<path class="st6" d="M1102.8,684.7c-81.6,0-147.9-66.3-147.9-147.9s66.3-147.9,147.9-147.9s147.9,66.3,147.9,147.9
			S1184.3,684.7,1102.8,684.7z M1102.8,391.3c-80.3,0-145.6,65.3-145.6,145.6s65.3,145.6,145.6,145.6s145.6-65.3,145.6-145.6
			S1183.1,391.3,1102.8,391.3L1102.8,391.3z"/>
		<path class="st6" d="M1122.8,684.7c-81.6,0-147.9-66.3-147.9-147.9s66.3-147.9,147.9-147.9s147.9,66.3,147.9,147.9
			S1204.4,684.7,1122.8,684.7z M1122.8,391.3c-80.3,0-145.6,65.3-145.6,145.6s65.3,145.6,145.6,145.6s145.6-65.3,145.6-145.6
			S1203.1,391.3,1122.8,391.3L1122.8,391.3z"/>
		
			<ellipse transform="matrix(0.7071 -0.7071 0.7071 0.7071 -46.0281 962.4783)" class="st4" cx="1138.8" cy="536.8" rx="146.7" ry="146.7"/>
		
			<ellipse transform="matrix(0.7071 -0.7071 0.7071 0.7071 -38.52 981.4045)" class="st2" cx="1165.4" cy="537.2" rx="146.7" ry="146.7"/>
		<g>
			<g>
				<defs>
					
						<ellipse id="SVGID_23_" transform="matrix(0.7071 -0.7071 0.7071 0.7071 -38.52 981.4045)" cx="1165.4" cy="537.2" rx="146.7" ry="146.7"/>
				</defs>
				<clipPath id="SVGID_24_">
					<use xlink:href="#SVGID_23_"  style="overflow:visible;"/>
				</clipPath>
				<g class="st23">
					<polygon class="st6" points="1015,401.2 1552.9,406 1015,410.7 					"/>
					<polygon class="st6" points="1015,416.7 1552.9,421.5 1015,426.3 					"/>
					<polygon class="st6" points="1015,432.3 1552.9,437 1015,441.8 					"/>
					<polygon class="st6" points="1015,447.8 1552.9,452.6 1015,457.3 					"/>
					<polygon class="st6" points="1015,463.3 1552.9,468.1 1015,472.9 					"/>
					<polygon class="st6" points="1015,478.9 1552.9,483.6 1015,488.4 					"/>
					<polygon class="st6" points="1015,494.4 1552.9,499.2 1015,504 					"/>
					<polygon class="st6" points="1015,510 1552.9,514.7 1015,519.5 					"/>
					<polygon class="st6" points="1015,525.5 1552.9,530.3 1015,535 					"/>
					<polygon class="st6" points="1015,541 1552.9,545.8 1015,550.6 					"/>
					<polygon class="st6" points="1015,556.6 1552.9,561.3 1015,566.1 					"/>
					<polygon class="st6" points="1015,572.1 1552.9,576.9 1015,581.6 					"/>
					<polygon class="st6" points="1015,587.6 1552.9,592.4 1015,597.2 					"/>
					<polygon class="st6" points="1015,603.2 1552.9,607.9 1015,612.7 					"/>
					<polygon class="st6" points="1015,618.7 1552.9,623.5 1015,628.2 					"/>
					<polygon class="st6" points="1015,634.3 1552.9,639 1015,643.8 					"/>
					<polygon class="st6" points="1015,649.8 1552.9,654.6 1015,659.3 					"/>
					<polygon class="st6" points="1015,665.3 1552.9,670.1 1015,674.9 					"/>
				</g>
			</g>
		</g>
		<rect x="612.5" y="481.3" class="st6" width="7" height="7"/>
		<rect x="598.5" y="492.5" class="st6" width="6.9" height="6.9"/>
		<path class="st6" d="M568.7,489.7L568.7,489.7c1.5-1.5,4-1.5,5.5,0l0,0c1.5,1.5,1.5,4,0,5.5l0,0c-1.5,1.5-4,1.5-5.5,0l0,0
			C567.2,493.7,567.2,491.2,568.7,489.7z"/>
		<rect x="956" y="202.8" class="st4" width="6.6" height="9.2"/>
		<rect x="956" y="220.3" class="st4" width="6.6" height="9.2"/>
		<rect x="956" y="237.8" class="st4" width="6.6" height="9.2"/>
		<rect x="956" y="255.3" class="st4" width="6.6" height="9.2"/>
		<rect x="956" y="272.8" class="st4" width="6.6" height="9.2"/>
		<rect x="955.2" y="136.5" class="st4" width="1.7" height="252"/>
		<rect x="955.2" y="625" class="st4" width="1.7" height="315.4"/>
		<g class="st7">
			<rect x="1067.5" y="167.3" class="st6" width="178" height="145"/>
		</g>
		<path class="st4" d="M1228.7,313.2h-179.8V166.5h179.8V313.2z M1050.6,311.5h176.3V168.2h-176.3V311.5z"/>
		<rect x="956" y="825.3" class="st4" width="111" height="1.7"/>
		<rect x="956" y="241.5" class="st4" width="111" height="1.7"/>
		<rect x="1146.7" y="136.5" class="st4" width="1.7" height="30.9"/>
		<rect x="956" y="825.2" class="st4" width="6.6" height="9.2"/>
		<rect x="956" y="842.7" class="st4" width="6.6" height="9.2"/>
		<rect x="956" y="860.3" class="st4" width="6.6" height="9.2"/>
		<rect x="956" y="877.8" class="st4" width="6.6" height="9.2"/>
		<rect x="956" y="895.3" class="st4" width="6.6" height="9.2"/>
		<path class="st4" d="M1342.4,938.9c-94.4-128.6-190.2-204.9-292.9-233c-44.6-12.2-81.2-14.8-111.9-7.9
			c-27.1,6.1-45.6,18.9-60.4,29.1c-15.5,10.7-40.2,25.8-74.9,32.5c-40.7,7.9-85.7,2.3-133.7-16.5c-57-22.3-89-60-105.8-87.7
			c-18.2-30-22.9-55.1-23-55.4l1.7-0.3c0,0.2,4.8,25.1,22.8,54.8c16.6,27.4,48.3,64.8,104.9,86.9c117.5,46,184.9-0.5,207-15.8
			c30.2-20.9,71.7-49.5,173.8-21.5c103.1,28.3,199.2,104.7,293.9,233.7L1342.4,938.9z"/>
		<path class="st4" d="M1318.6,938.9c-46.1-62.9-89.9-111.5-133.8-148.8c-46.9-39.8-93.2-65.9-141.4-79.9
			c-101.5-29.4-141.5,0.1-170.7,21.6c-60.8,44.8-130.9,51.1-208.5,18.8c-56.1-23.3-86.9-60.9-102.9-88.3
			c-17.3-29.7-21.5-54.3-21.5-54.5l1.7-0.3c0,0.2,4.1,24.5,21.3,54c15.9,27.2,46.4,64.4,102,87.5c77,32,146.6,25.7,206.8-18.6
			c17.4-12.8,35.1-24.8,61.2-30.7c30.3-6.9,66.6-4,111,8.8c48.5,14,94.9,40.3,142,80.2c44,37.3,87.8,86.1,134.1,149.1L1318.6,938.9z
			"/>
		<path class="st4" d="M1294.7,938.9c-45.2-61.6-84.1-106.6-122.3-141.7c-45.5-41.7-89.6-68.7-135.1-82.5
			c-93.7-28.6-133.4-5.9-169,22c-42.3,33.1-112.8,63.8-208.4,21.7c-55.1-24.3-84.8-61.7-100-88.9c-16.5-29.4-20-53.5-20-53.7
			l1.7-0.2c0,0.2,3.5,24,19.8,53.1c15.1,26.9,44.5,64,99.2,88.1c94.8,41.8,164.7,11.4,206.6-21.4c36-28.2,76.2-51.1,170.6-22.3
			c45.7,13.9,90.1,41.1,135.8,82.9c38.3,35.2,77.3,80.3,122.6,142L1294.7,938.9z"/>
		<path class="st4" d="M1270.8,938.9c-39.6-54-73.7-97.6-110.9-134.6c-43.7-43.5-85.8-71.4-128.8-85.2
			c-93.5-30-132.5-6.5-167.4,22.4c-35,29.1-108.7,70.9-208.3,24.5c-54.1-25.3-82.7-62.6-97.1-89.4c-15.6-29.1-18.5-52.6-18.5-52.9
			l1.7-0.2c0,0.2,2.9,23.5,18.4,52.3c14.3,26.6,42.6,63.6,96.3,88.6c98.7,46,171.7,4.6,206.4-24.2c35.3-29.3,74.7-53,169-22.7
			c43.3,13.9,85.7,41.9,129.5,85.6c37.3,37.2,71.4,80.8,111.1,134.8L1270.8,938.9z"/>
		<path class="st4" d="M1246.9,938.9c-4.5-6.1-8.9-12.2-13.5-18.4c-57.4-78.7-122.4-167.9-208.5-197
			c-93.2-31.5-131.6-7.2-165.8,22.8c-12.6,11.1-39.3,31.2-75.6,41.6c-43.5,12.4-88.1,7.6-132.6-14.3c-53.2-26.2-80.6-63.4-94.2-90
			c-14.8-28.8-17-51.8-17-52l1.7-0.2c0,0.2,2.2,22.9,16.9,51.5c13.5,26.3,40.7,63.2,93.4,89.2c101.3,50,177.9-2.3,206.2-27
			c34.6-30.3,73.4-54.9,167.5-23.2c86.6,29.3,151.8,118.7,209.4,197.6c4.5,6.2,9,12.3,13.5,18.4L1246.9,938.9z"/>
		<path class="st4" d="M1223,938.9c-8.9-12.1-17.8-25-27.3-38.6c-47.4-68.2-101.2-145.5-176.9-172.4c-92.8-33-130.6-7.8-164.1,23.2
			c-10,9.2-37.3,32-75.7,43.8c-44.2,13.6-88.7,9-132.2-13.7c-52.2-27.2-78.5-64.3-91.3-90.6c-13.9-28.5-15.5-51-15.6-51.2l1.7-0.1
			c0,0.2,1.6,22.4,15.4,50.6c12.7,26.1,38.8,62.8,90.5,89.7c43.1,22.5,87.2,27,130.9,13.6c38.1-11.7,65.2-34.3,75.1-43.4
			c16.5-15.2,35.4-30.2,61.9-36.3c27.9-6.4,62-2.2,104,12.7c76.2,27.1,130.2,104.6,177.8,173c9.5,13.6,18.5,26.5,27.3,38.6
			L1223,938.9z"/>
		<path class="st4" d="M1199.1,938.9c-9.8-13.4-20.2-29.5-31.1-46.5c-38.4-59.8-86.2-134.2-155.4-160.1
			c-92.3-34.5-129.5-8.5-162.5,23.6c-7.6,7.4-35.6,32.7-75.9,46c-44.8,14.8-89.2,10.4-131.9-13.1c-51.2-28.2-76.4-65.1-88.5-91.2
			c-13.1-28.2-14.1-50.1-14.1-50.4l1.7-0.1c0,0.2,1,21.8,13.9,49.8c12,25.8,36.9,62.4,87.7,90.3c42.3,23.2,86.2,27.6,130.5,12.9
			c40-13.2,67.7-38.2,75.3-45.6c16.4-16,35.2-31.6,62-37.7c27.4-6.3,60.8-1.8,102.3,13.7c69.8,26.1,117.7,100.7,156.3,160.8
			c10.9,17,21.3,33.1,31.1,46.5L1199.1,938.9z"/>
		<path class="st4" d="M1175.2,938.9c-8.9-12.1-18.3-28.5-29.3-47.5c-31.4-54.5-74.3-129.1-139.5-154.7
			c-83.1-32.6-121.9-15.9-160.8,24c-15.3,15.7-43.4,36.6-76.2,48.2c-45.4,16-89.7,11.8-131.5-12.4c-50.3-29.1-74.3-66-85.6-91.7
			c-12.2-27.9-12.6-49.3-12.6-49.5h1.7c0,0.2,0.3,21.3,12.5,48.9c11.2,25.5,35,62,84.8,90.9c41.4,24,85.1,28.1,130.1,12.3
			c32.5-11.5,60.3-32.2,75.5-47.8c39.4-40.4,78.7-57.4,162.7-24.4c65.8,25.8,108.9,100.8,140.4,155.5c10.9,18.9,20.3,35.3,29.1,47.3
			L1175.2,938.9z"/>
		<path class="st4" d="M1151.3,938.9c-7-9.5-14.9-25.3-24-43.6c-25.5-51.1-64-128.2-127-154.2c-82.6-34.1-121-16.9-159.2,24.4
			c-14.3,15.4-42.8,37.8-76.4,50.4c-46,17.2-90.1,13.2-131.2-11.8c-49.3-30.1-72.2-66.8-82.7-92.3c-11.4-27.7-11.1-48.5-11.1-48.7
			h1.7c0,0.2-0.3,20.8,11,48.1c10.4,25.2,33.1,61.6,81.9,91.4c40.5,24.8,84.1,28.7,129.6,11.7c33.3-12.5,61.6-34.7,75.7-49.9
			c38.8-41.8,77.6-59.3,161.2-24.8c63.6,26.2,102.3,103.7,127.9,155c9.1,18.3,17,34,23.9,43.4L1151.3,938.9z"/>
		<path class="st4" d="M1127.4,938.9c-4.5-6.1-9.9-19.1-16.7-35.6c-20.3-48.9-54.2-130.7-116.6-157.8
			c-82.1-35.6-120-17.8-157.6,24.8c-11.2,12.7-39.9,38-76.6,52.5c-20.9,8.3-41.7,12.1-61.8,11.3c-24.1-0.9-47.3-8.5-68.9-22.4
			c-48.3-31.1-70.1-67.7-79.8-92.9c-10.5-27.4-9.6-47.7-9.6-47.9l1.7,0.1c0,0.2-0.9,20.2,9.5,47.2c9.6,24.9,31.2,61.2,79.1,92
			c21.4,13.8,44.3,21.2,68.1,22.2c19.9,0.8,40.4-3,61.1-11.2c36.4-14.4,64.9-39.5,76-52.1c38.1-43.2,76.5-61.2,159.6-25.2
			c63.1,27.3,97.1,109.5,117.5,158.7c6.8,16.4,12.2,29.3,16.5,35.3L1127.4,938.9z"/>
		<path class="st4" d="M1103.5,938.9c-2-2.7-4.5-10.7-8.3-22.9c-14-44.4-43.1-136.9-107.3-166.1c-81.6-37.1-119-18.9-155.9,25.2
			c-10.1,12-39.2,39-76.9,54.7c-21.1,8.8-42,13-62.1,12.3c-24.1-0.8-47-8.4-68.3-22.8c-47.4-32.1-68-68.5-76.9-93.5
			c-9.7-27.1-8.1-46.8-8.1-47l1.7,0.2c0,0.2-1.5,19.7,8,46.4c8.9,24.7,29.3,60.7,76.2,92.5c21,14.2,43.6,21.8,67.4,22.5
			c19.8,0.6,40.5-3.5,61.3-12.2c37.4-15.6,66.2-42.3,76.2-54.2c37.5-44.7,75.4-63.2,158-25.7c64.9,29.5,94.2,122.5,108.2,167.2
			c3.6,11.6,6.3,19.9,8.1,22.4L1103.5,938.9z"/>
		<path class="st4" d="M1079.5,938.5c-3.9-26.5-10.2-52.6-19.1-78c-13.2-37.6-37.6-86.6-78.6-106.2c-81.1-38.7-118-19.9-154.3,25.6
			c-11.4,14.2-41.3,41.1-77.2,56.8C729,846,708,850.5,688,850c-24.1-0.6-46.8-8.4-67.6-23.2c-46.4-33-65.9-69.4-74-94.1
			c-8.8-26.8-6.6-46-6.6-46.2l1.7,0.2c0,0.2-2.2,19.1,6.6,45.6c8.1,24.4,27.4,60.3,73.3,93.1c20.5,14.6,42.9,22.3,66.7,22.9
			c19.8,0.5,40.5-4,61.6-13.2c35.6-15.6,65.2-42.2,76.5-56.3c21-26.4,40.2-40.3,62.2-45.2c25.2-5.6,55.2,0.5,94.2,19.1
			c41.6,19.9,66.2,69.3,79.5,107.2c8.8,25.4,15.3,51.7,19.1,78.3L1079.5,938.5z"/>
		<path class="st4" d="M541.5,453.1l-1.7-0.3c0-0.2,4.8-25.3,23-55.4c16.8-27.7,48.7-65.4,105.8-87.7c48-18.8,93-24.3,133.7-16.5
			c34.7,6.7,59.4,21.8,74.9,32.5c14.8,10.2,33.3,23,60.4,29.1c30.7,6.9,67.3,4.4,111.9-7.9c57.3-15.7,104.2-36.6,147.7-65.8
			c52.1-34.9,99.5-82.1,145.2-144.3l1.4,1c-45.8,62.4-93.4,109.7-145.6,144.7c-43.7,29.3-90.8,50.3-148.2,66.1
			c-102.1,28-143.5-0.6-173.8-21.5c-22.1-15.3-89.5-61.8-207-15.8c-56.6,22.2-88.3,59.5-104.9,87
			C546.2,428.1,541.5,452.9,541.5,453.1z"/>
		<path class="st4" d="M541.5,445.2l-1.7-0.3c0-0.2,4.2-24.8,21.5-54.5c16-27.4,46.8-65,102.9-88.3c77.6-32.3,147.8-25.9,208.5,18.8
			c29.2,21.5,69.2,51,170.7,21.6c52.7-15.2,99.3-37.7,142.5-68.6c48.1-34.4,92.2-79.3,134.8-137.3l1.4,1
			c-42.7,58.1-86.9,103.2-135.1,137.7c-43.3,31-90.1,53.5-143,68.8c-44.4,12.8-80.7,15.7-111,8.8c-26.1-5.9-43.8-17.9-61.2-30.7
			C811.6,277.8,742,271.6,665,303.6c-55.6,23.1-86.2,60.4-102.1,87.6C545.6,420.7,541.5,445,541.5,445.2z"/>
		<path class="st4" d="M541.5,437.3l-1.7-0.2c0-0.2,3.5-24.3,20-53.7c15.2-27.1,44.9-64.6,100-88.9c95.6-42.1,166.1-11.5,208.4,21.7
			c35.6,27.9,75.4,50.6,169,22c98.4-30,184-96,261.5-201.6l1.4,1c-77.8,106-163.6,172.2-262.4,202.3c-30.8,9.4-55.8,13.3-76.8,13.3
			c-43.4,0-69.5-16.6-93.8-35.6c-41.9-32.8-111.8-63.2-206.6-21.4c-54.6,24.1-84.1,61.2-99.2,88.1
			C545,413.3,541.5,437.1,541.5,437.3z"/>
		<path class="st4" d="M541.5,429.4l-1.7-0.2c0-0.2,2.9-23.7,18.5-52.9c14.4-26.9,43-64.2,97.1-89.4c99.6-46.4,173.2-4.6,208.3,24.5
			c34.9,28.9,73.9,52.4,167.4,22.4c45.6-14.6,90-39.5,132-74c39-32.1,77.3-73.6,113.9-123.4l1.4,1c-36.6,49.9-75.1,91.5-114.2,123.7
			c-42.1,34.6-86.7,59.6-132.5,74.3c-94.3,30.3-133.8,6.5-169-22.7C828,283.9,755,242.4,656.3,288.5c-53.7,25-82,62-96.3,88.6
			C544.3,405.9,541.5,429.1,541.5,429.4z"/>
		<path class="st4" d="M541.5,421.5l-1.7-0.2c0-0.2,2.3-23.2,17-52c13.6-26.6,41.1-63.8,94.2-90c44.4-21.9,89-26.7,132.6-14.3
			c36.3,10.4,62.9,30.5,75.6,41.6c34.2,30,72.6,54.3,165.8,22.8c79.1-26.7,154.3-89.9,230.1-193.2l1.4,1
			c-76,103.6-151.6,167-231,193.8c-31.1,10.5-56.2,14.9-77.1,14.9c-42.2,0-67.2-17.7-90.4-38c-28.3-24.8-104.9-77-206.2-27
			c-52.8,26-79.9,62.9-93.5,89.2C543.7,398.6,541.5,421.2,541.5,421.5z"/>
		<path class="st4" d="M541.5,413.6l-1.7-0.1c0-0.2,1.6-22.7,15.6-51.2c12.9-26.3,39.1-63.4,91.3-90.6c43.6-22.7,88-27.3,132.2-13.7
			c38.4,11.8,65.8,34.6,75.7,43.8c33.6,31,71.3,56.2,164.1,23.2c41.2-14.6,80.9-40.6,121.4-79.5c38-36.4,69.6-77.6,93-109.4l1.4,1
			c-23.4,31.9-55.1,73.1-93.2,109.6c-40.7,39-80.6,65.1-122.1,79.9c-42,14.9-76.1,19.1-104,12.7c-26.5-6.1-45.4-21-61.9-36.3
			c-9.9-9.1-37-31.7-75.1-43.4c-43.7-13.5-87.8-8.9-130.9,13.6c-51.8,27-77.8,63.7-90.6,89.8C543.1,391.2,541.5,413.3,541.5,413.6z"
			/>
		<path class="st4" d="M541.5,405.6l-1.7-0.1c0-0.2,1-22.1,14.1-50.4c12.1-26,37.2-63,88.5-91.2c42.7-23.5,87.1-27.9,131.9-13.1
			c40.4,13.3,68.3,38.6,75.9,46c33,32.1,70.2,58.1,162.5,23.6c87.2-32.6,152.6-121.7,195.9-180.8l2.9-3.9l1.4,1l-2.9,3.9
			c-43.4,59.2-109,148.6-196.7,181.4c-41.5,15.5-74.9,20-102.3,13.7c-26.8-6.1-45.6-21.7-62-37.7c-7.5-7.4-35.3-32.4-75.3-45.6
			c-44.3-14.6-88.2-10.3-130.5,12.9c-50.8,27.9-75.7,64.5-87.7,90.3C542.5,383.8,541.5,405.4,541.5,405.6z"/>
		<path class="st4" d="M541.5,397.7h-1.7c0-0.2,0.3-21.6,12.6-49.5c11.3-25.8,35.3-62.6,85.6-91.7c41.7-24.3,86-28.5,131.4-12.5
			c32.8,11.6,60.8,32.5,76.2,48.2c38.9,39.9,77.7,56.6,160.8,24c76.4-30,132-108.5,168.8-160.5c5.1-7.2,9.9-14,14.3-19.9l1.4,1
			c-4.4,5.9-9.2,12.7-14.3,19.9c-36.9,52.1-92.7,130.9-169.6,161.1c-84,33-123.3,16-162.7-24.4c-15.2-15.6-43-36.3-75.5-47.7
			c-44.9-15.8-88.7-11.7-130.1,12.3c-49.8,28.9-73.6,65.4-84.8,90.9C541.8,376.4,541.5,397.5,541.5,397.7z"/>
		<path class="st4" d="M539.7,389.8c0-0.2-0.3-21,11.1-48.7c10.5-25.5,33.4-62.2,82.7-92.3c41-25.1,85.1-29,131.2-11.8
			c33.6,12.6,62.1,35,76.4,50.4c38.2,41.3,76.6,58.5,159.2,24.4c70.4-29,120.7-105.7,150.7-151.5c6.4-9.8,12-18.3,16.7-24.6l1.4,1
			c-4.6,6.3-10.2,14.8-16.6,24.6c-30.2,46-80.7,123-151.5,152.2c-30.7,12.7-55.4,18.3-76.3,18.3c-35.9,0-60.4-16.7-84.9-43.1
			c-14.1-15.2-42.4-37.4-75.7-49.9c-45.5-17-89.1-13.1-129.6,11.7c-48.9,29.9-71.6,66.2-82,91.5c-11.3,27.3-11,47.8-11,48
			L539.7,389.8z"/>
		<path class="st4" d="M539.7,382c0-0.2-0.9-20.5,9.6-47.9c9.7-25.2,31.4-61.8,79.8-92.9c21.7-13.9,44.9-21.5,68.9-22.4
			c20.1-0.8,40.9,3,61.8,11.3c36.8,14.5,65.5,39.9,76.6,52.5C874,325.2,911.8,343,994,307.4c67.3-29.2,113.1-107.3,137.7-149.3
			c5.9-10,10.5-17.9,13.9-22.6l1.4,1c-3.4,4.6-8,12.5-13.8,22.5c-24.7,42.2-70.7,120.7-138.5,150c-30.7,13.3-55.3,19.2-76.1,19.2
			c-35.4,0-59.5-17.2-83.5-44.5c-11.1-12.5-39.5-37.6-76-52.1c-20.7-8.2-41.2-11.9-61.1-11.2c-23.7,0.9-46.7,8.4-68.1,22.2
			c-47.9,30.8-69.4,67-79.1,92c-10.4,27-9.5,47-9.5,47.2L539.7,382z"/>
		<path class="st4" d="M539.7,374.1c0-0.2-1.6-20,8.1-47c8.9-24.9,29.5-61.4,76.9-93.5c21.2-14.4,44.2-22.1,68.3-22.8
			c20.1-0.6,41,3.5,62.1,12.3c37.7,15.7,66.8,42.7,76.9,54.7c37,44,74.3,62.3,155.9,25.2c67.3-30.6,109.8-116,127.9-152.5
			c3.9-7.9,6.5-13.1,8.1-15.2l1.4,1c-1.5,2-4.2,7.5-7.9,15c-18.2,36.6-60.9,122.4-128.7,153.3c-82.6,37.6-120.5,19-158-25.7
			c-10-11.9-38.8-38.6-76.2-54.2c-20.9-8.7-41.6-12.8-61.3-12.2c-23.7,0.8-46.4,8.3-67.4,22.5c-46.9,31.8-67.4,67.9-76.2,92.5
			c-9.6,26.7-8.1,46.2-8,46.4L539.7,374.1z"/>
		<path class="st4" d="M539.8,366.2c0-0.2-2.2-19.4,6.6-46.2c8.1-24.7,27.6-61,74-94.1c20.8-14.8,43.6-22.6,67.6-23.2
			c20-0.5,41,4,62.3,13.3c35.8,15.7,65.8,42.6,77.2,56.8c36.3,45.5,73.2,64.3,154.3,25.6c22.7-10.8,56.7-36.2,89.9-95.8
			c12-21.5,22.1-44.1,30.2-67.4l1.7,0.5c-8.1,23.4-18.3,46.1-30.4,67.7c-33.4,60-67.8,85.6-90.7,96.5c-39,18.6-68.9,24.7-94.2,19.1
			c-22-4.9-41.2-18.8-62.2-45.2c-11.3-14.1-40.9-40.8-76.5-56.3c-21.1-9.2-41.8-13.7-61.6-13.2c-23.7,0.6-46.1,8.3-66.7,22.9
			c-46,32.7-65.3,68.7-73.3,93.1c-8.7,26.4-6.6,45.4-6.6,45.6L539.8,366.2z"/>
		<circle class="st6" cx="858.8" cy="740.5" r="12.5"/>
		<circle class="st6" cx="858.8" cy="311.2" r="12.5"/>
		<g class="st7">
			<polygon class="st6" points="1260.9,905.4 1052.1,905.4 1156.5,735.4 			"/>
		</g>
		<path class="st4" d="M1228.8,906.3h-211.9l105.9-172.6L1228.8,906.3z M1020,904.6h205.7L1122.8,737L1020,904.6z"/>
		<g>
			<g>
				<defs>
					<rect id="SVGID_25_" x="540.6" y="135.9" width="418.7" height="802.5"/>
				</defs>
				<clipPath id="SVGID_26_">
					<use xlink:href="#SVGID_25_"  style="overflow:visible;"/>
				</clipPath>
				<g class="st24">
					<path class="st4" d="M547.8,937.5c-1.8,0-3.5,0-5.3,0v-1.7c1.7,0,3.5,0,5.2,0c220.7,0.3,399.9-178.3,400.3-399
						S769.7,136.9,549,136.5c-0.4,0-0.8,0-1.3,0h-2c-1.8,0-4,0-5.2,0v-1.7c1.2,0,3.4,0,5.2,0h2c221.7,0,401.4,179.7,401.4,401.4
						S769.5,937.5,547.8,937.5L547.8,937.5z"/>
					<path class="st4" d="M544.6,941.3c-1.8,0-3.6,0-5.4,0l0.1-5.8c7.7,0.1,15.4,0,23.1-0.3l0.2,5.8
						C556.7,941.2,550.6,941.3,544.6,941.3z M632.3,932.1l-1.2-5.7c7.5-1.6,15-3.5,22.4-5.5l1.5,5.6
						C647.5,928.5,639.8,930.4,632.3,932.1L632.3,932.1z M720.8,902.1l-2.5-5.3c6.9-3.3,13.9-6.8,20.6-10.4l2.8,5.1
						C734.9,895.2,727.8,898.8,720.8,902.1L720.8,902.1z M800.3,852.9l-3.6-4.6c6-4.8,12-9.7,17.7-14.8l3.9,4.3
						C812.5,843,806.4,848,800.3,852.9L800.3,852.9z M866.6,786.9l-4.5-3.6c4.8-6,9.5-12.2,13.9-18.4l4.7,3.4
						C876.2,774.6,871.5,780.9,866.6,786.9L866.6,786.9z M916.1,707.7l-5.3-2.5c3.3-6.9,6.4-14,9.2-21.1l5.4,2.2
						C922.6,693.5,919.4,700.7,916.1,707.7L916.1,707.7z M945.9,619.1l-5.7-1.2c1.6-7.5,3-15.1,4.1-22.7l5.8,0.9
						C948.9,603.8,947.6,611.5,945.9,619.1L945.9,619.1z M948.6,526.2c-0.2-7.7-0.6-15.4-1.2-23l5.8-0.5c0.6,7.7,1.1,15.6,1.3,23.4
						L948.6,526.2z M935.7,435c-2-7.4-4.2-14.9-6.5-22.1l5.5-1.8c2.4,7.4,4.7,14.9,6.6,22.5L935.7,435z M901.9,349.3
						c-3.6-6.8-7.5-13.5-11.5-20l5-3c4.1,6.6,8,13.5,11.7,20.3L901.9,349.3z M849.2,273.7c-5.1-5.7-10.4-11.4-15.8-16.9l4.1-4.1
						c5.5,5.5,10.8,11.3,16,17.1L849.2,273.7z M780.8,212c-6.2-4.4-12.7-8.8-19.2-12.8l3.1-4.9c6.6,4.1,13.1,8.5,19.4,13L780.8,212z
						 M700.2,167.4c-7.1-2.9-14.3-5.7-21.6-8.2l1.9-5.5c7.3,2.5,14.7,5.3,21.9,8.3L700.2,167.4z M611.6,142.2
						c-7.5-1.2-15.2-2.3-22.9-3.1l0.6-5.8c7.7,0.8,15.5,1.9,23.2,3.2L611.6,142.2z"/>
				</g>
			</g>
		</g>
		<polygon class="st2" points="1378.2,973.4 1309.6,973.4 1309.6,970.4 1375.2,970.4 1375.2,904.9 1378.2,904.9 		"/>
		<polygon class="st2" points="1378.2,170.9 1375.2,170.9 1375.2,105.4 1309.6,105.4 1309.6,102.4 1378.2,102.4 		"/>
		<polygon class="st2" points="573.9,973.4 505.3,973.4 505.3,904.9 508.3,904.9 508.3,970.4 573.9,970.4 		"/>
		<polygon class="st2" points="508.3,170.9 505.3,170.9 505.3,102.4 573.9,102.4 573.9,105.4 508.3,105.4 		"/>
		<rect x="540.6" y="905.7" class="st25" width="802.5" height="34"/>
		<rect x="540.6" y="873" class="st25" width="802.5" height="24"/>
		<rect x="540.6" y="832.2" class="st25" width="802.5" height="21"/>
		<rect x="540.6" y="937.9" class="st25" width="802.5" height="1"/>
		<rect x="1310.3" y="134.7" class="st25" width="34" height="805"/>
		<rect x="1278.7" y="135.6" class="st25" width="24" height="802.5"/>
		<rect x="1236.9" y="135.6" class="st25" width="21" height="802.5"/>
		<rect x="1342.6" y="135.6" class="st25" width="1" height="802.5"/>
		<rect x="541.1" y="134.7" class="st25" width="802.5" height="34"/>
		<rect x="541.1" y="177.3" class="st25" width="802.5" height="24"/>
		<rect x="541.1" y="222.6" class="st25" width="802.5" height="18"/>
		<rect x="541.1" y="278.1" class="st25" width="802.5" height="18"/>
		<rect x="541.1" y="333.7" class="st25" width="802.5" height="18"/>
		<rect x="541.1" y="389.3" class="st25" width="802.5" height="18"/>
		<rect x="541.1" y="444.8" class="st25" width="802.5" height="18"/>
		<rect x="541.1" y="500.4" class="st25" width="802.5" height="18"/>
		<rect x="541.1" y="555.9" class="st25" width="802.5" height="18"/>
		<rect x="541.1" y="611.5" class="st25" width="802.5" height="18"/>
		<rect x="541.1" y="667.1" class="st25" width="802.5" height="18"/>
		<rect x="541.1" y="722.6" class="st25" width="802.5" height="18"/>
		<rect x="541.1" y="778.2" class="st25" width="802.5" height="18"/>
		<rect x="541.1" y="833.7" class="st25" width="802.5" height="18"/>
		<rect x="541.1" y="135.4" class="st25" width="802.5" height="1"/>
		<rect x="539.8" y="134.7" class="st25" width="34" height="805"/>
		<rect x="582.5" y="135.6" class="st25" width="24" height="802.5"/>
		<rect x="627.8" y="135.6" class="st25" width="18" height="802.5"/>
		<rect x="683.3" y="135.6" class="st25" width="18" height="802.5"/>
		<rect x="738.9" y="135.6" class="st25" width="18" height="802.5"/>
		<rect x="794.5" y="135.6" class="st25" width="18" height="802.5"/>
		<rect x="850" y="135.6" class="st25" width="18" height="802.5"/>
		<rect x="905.6" y="135.6" class="st25" width="18" height="802.5"/>
		<rect x="961.1" y="135.6" class="st25" width="18" height="802.5"/>
		<rect x="1016.7" y="135.6" class="st25" width="18" height="802.5"/>
		<rect x="1072.3" y="135.6" class="st25" width="18" height="802.5"/>
		<rect x="1127.8" y="135.6" class="st25" width="18" height="802.5"/>
		<rect x="1183.4" y="135.6" class="st25" width="18" height="802.5"/>
		<rect x="1238.9" y="135.6" class="st25" width="18" height="802.5"/>
		<rect x="540.6" y="135.6" class="st25" width="1" height="802.5"/>
		<path class="st2" d="M401,453.8h-2v-12h2V453.8z M401,429.8h-2v-12h2V429.8z M401,405.8h-2v-12h2V405.8z M401,381.8h-2v-12h2
			V381.8z M401,357.8h-2v-12h2V357.8z M401,333.8h-2v-12h2V333.8z M401,309.8h-2v-12h2V309.8z M401,285.8h-2v-12h2V285.8z
			 M401,261.8h-2v-12h2V261.8z M401,237.8h-2v-12h2V237.8z M401,213.8h-2v-12h2V213.8z M401,189.8h-2v-12h2V189.8z M401,165.8h-2
			v-12h2V165.8z M401,141.8h-2v-6.4h7.6v2H401V141.8z M478.6,137.5h-12v-2h12V137.5z M454.6,137.5h-12v-2h12V137.5z M430.6,137.5
			h-12v-2h12V137.5z"/>
		<path class="st2" d="M485.9,941.4h-12v-2h12V941.4z M461.9,941.4h-12v-2h12V941.4z M437.9,941.4h-12v-2h12V941.4z M413.9,941.4
			h-12v-2h12V941.4z M401,930.3h-2v-12h2V930.3z M401,906.3h-2v-12h2V906.3z M401,882.3h-2v-12h2V882.3z M401,858.3h-2v-12h2V858.3z
			 M401,834.3h-2v-12h2V834.3z M401,810.3h-2v-12h2V810.3z M401,786.3h-2v-12h2V786.3z M401,762.3h-2v-12h2V762.3z M401,738.3h-2
			v-12h2V738.3z M401,714.3h-2v-12h2V714.3z M401,690.3h-2v-12h2V690.3z M401,666.3h-2v-12h2V666.3z M401,642.3h-2v-12h2V642.3z
			 M401,618.3h-2v-12h2V618.3z"/>
		<path class="st2" d="M1485.9,506.7h-2v-12h2V506.7z M1485.9,482.7h-2v-12h2V482.7z M1485.9,458.7h-2v-12h2V458.7z M1485.9,434.7
			h-2v-12h2V434.7z M1485.9,410.7h-2v-12h2V410.7z M1485.9,386.7h-2v-12h2V386.7z M1485.9,362.7h-2v-12h2V362.7z M1485.9,338.7h-2
			v-12h2V338.7z M1485.9,314.7h-2v-12h2V314.7z M1485.9,290.7h-2v-12h2V290.7z M1485.9,266.7h-2v-12h2V266.7z M1485.9,242.7h-2v-12
			h2V242.7z M1485.9,218.7h-2v-12h2V218.7z M1485.9,194.7h-2v-12h2V194.7z M1485.9,170.7h-2v-12h2V170.7z M1485.9,146.7h-2v-9.2
			h-0.8v-2h2.8V146.7z M1471.1,137.5h-12v-2h12V137.5z M1447.1,137.5h-12v-2h12V137.5z M1423.1,137.5h-12v-2h12V137.5z"/>
		<path class="st2" d="M1477.6,941.4h-12v-2h12V941.4z M1453.6,941.4h-12v-2h12V941.4z M1429.6,941.4h-12v-2h12V941.4z
			 M1405.6,941.4h-6.6v-2h6.6V941.4z M1486.8,936.6h-2v-12h2V936.6z M1486.8,912.6h-2v-12h2V912.6z M1486.8,888.6h-2v-12h2V888.6z
			 M1486.8,864.6h-2v-12h2V864.6z M1486.8,840.6h-2v-12h2V840.6z M1486.8,816.6h-2v-12h2V816.6z M1486.8,792.6h-2v-12h2V792.6z
			 M1486.8,768.6h-2v-12h2V768.6z M1486.8,744.6h-2v-12h2V744.6z M1486.8,720.6h-2v-12h2V720.6z M1486.8,696.6h-2v-12h2V696.6z
			 M1486.8,672.6h-2v-12h2V672.6z"/>
		<polygon class="st2" points="1472.4,553.1 1469.4,553.1 1469.4,523.7 1498.8,523.7 1498.8,526.7 1472.4,526.7 		"/>
		<polygon class="st2" points="1498.8,646.4 1469.4,646.4 1469.4,617 1472.4,617 1472.4,643.4 1498.8,643.4 		"/>
		<polygon class="st2" points="414.5,499.5 411.5,499.5 411.5,473.1 385.1,473.1 385.1,470.1 414.5,470.1 		"/>
		<polygon class="st2" points="414.5,589.9 385.1,589.9 385.1,586.9 411.5,586.9 411.5,560.5 414.5,560.5 		"/>
	</g>
</g>
</svg>
