<?xml version="1.0" encoding="utf-8"?>
<!-- Generator: Adobe Illustrator 24.2.3, SVG Export Plug-In . SVG Version: 6.00 Build 0)  -->
<svg version="1.1" id="Ebene_1" xmlns="http://www.w3.org/2000/svg" xmlns:xlink="http://www.w3.org/1999/xlink" x="0px" y="0px"
	 viewBox="0 0 1920 1080" style="enable-background:new 0 0 1920 1080;" xml:space="preserve">
<style type="text/css">
	.st0{fill:#3A2A78;}
	.st1{opacity:0.45;fill:url(#SVGID_1_);}
	.st2{fill:#A080AB;}
	.st3{fill:#1A9669;}
</style>
<g>
	<g id="aca17054-e2b8-4da9-8957-bcb4bae8d181">
		<rect class="st0" width="1920" height="1080"/>
		
			<linearGradient id="SVGID_1_" gradientUnits="userSpaceOnUse" x1="0" y1="540" x2="1920" y2="540" gradientTransform="matrix(-1 0 0 1 1920 0)">
			<stop  offset="5.455416e-02" style="stop-color:#3A2A78"/>
			<stop  offset="1" style="stop-color:#000000"/>
		</linearGradient>
		<rect class="st1" width="1920" height="1080"/>
		<path class="st2" d="M608.6,637.9c-20.4,0-34.2-3.7-34.4-3.8l0.8-2.9c0.3,0.1,25.6,6.9,58.6,1.7c30.4-4.8,73.7-21,107.2-71.4
			c0.6-0.8,53.3-73.9,90.9-101.7c22.9-16.9,56.7-23.5,86.3-16.9c16.6,3.7,39.1,13.2,52.3,37.6c8.6,15.8,13.6,32.5,18.4,48.7
			c10,33.4,19.3,65,59.6,82.2c16.9,7.2,46.1,9.8,89.7-19c16.5-11.1,31.8-23.9,45.6-38.3l0.2-0.2l0.3-0.1
			c3.5-1.7,85.4-41.5,101.8-39.9l-0.3,3c-15.1-1.5-94.8,37-99.9,39.5c-13.9,14.4-29.3,27.4-45.9,38.5c-35.4,23.4-67.4,30-92.6,19.2
			c-41.6-17.8-51.1-50-61.3-84.1c-4.8-16-9.7-32.6-18.1-48.1c-12.7-23.4-34.4-32.5-50.3-36.1c-28.7-6.4-61.7,0-83.9,16.4
			c-37.2,27.5-89.7,100.2-90.2,101C709.2,614.6,665,631.1,634,636C625.6,637.3,617.1,637.9,608.6,637.9z"/>
		<path class="st2" d="M629.8,625.5c-5,0-9.8-0.2-14.1-0.6c-14.2-1.2-28.2-4.3-41.6-9l1.1-2.8c0.7,0.3,69.2,26.2,120.2-9.5
			c22.8-15.9,36.1-31.6,51.2-59.8c3.9-7.3,51.6-73.8,90.4-97.6c21.6-13.2,51.7-17,78.7-9.9c23.5,6.2,42.1,20,52.5,38.7
			c7.7,13.9,13.4,28.7,18.9,43c6.9,18.1,13.5,35.2,23.9,50.6c10,14.8,23.4,25.8,41,33.5c16.7,7.3,36,7.5,57.4,0.5
			c17.2-5.6,35.6-16.1,51.9-29.5c14.9-12.2,23.9-22.4,25.4-24.6c0.6-0.9,3.2-2.4,14.8-8.8c3.5-2,7.6-4.2,11.9-6.6
			c25.1-14.1,63.1-30.4,72.5-29.4l-0.3,3c-7.8-0.8-44.2,14.1-70.7,29.1c-4.3,2.4-8.4,4.7-11.9,6.6c-6.6,3.7-12.9,7.2-13.8,8
			c-1.7,2.5-10.8,12.7-25.9,25.1c-11.6,9.6-46.5,35.3-83.5,35.3c-9.9,0.1-19.8-2-28.9-5.9c-18.1-8-32-19.3-42.3-34.6
			c-10.6-15.7-17.5-33.8-24.2-51.3c-5.4-14.2-11-28.9-18.7-42.6c-10-18.1-28-31.3-50.7-37.3c-26.2-6.9-55.5-3.3-76.4,9.6
			c-38.3,23.5-85.5,89.3-89.3,96.4c-15.3,28.7-28.9,44.6-52.1,60.9C675.2,621.4,650.2,625.5,629.8,625.5z M1189.1,550.4
			L1189.1,550.4z"/>
		<path class="st2" d="M647.1,613.7c-8.8,0-17.6-0.8-26.3-2.3c-16.1-2.8-31.8-7.4-46.8-13.7l1.2-2.7c0.8,0.4,80.4,36,127.8-1.3
			c24.5-19.2,32.1-34.1,47.2-63.7l2.1-4.1c5.7-11.1,48.9-73.1,89.8-93.4c19.6-9.7,44.5-11.3,68.5-4.3c24.3,7.1,44.4,22.1,55.4,41.3
			c6.5,11.3,12.2,23.5,17.7,35.2c8.8,18.7,17.9,38,30.4,55.1c10.3,14.2,24.3,25.3,41.5,33.1c16.6,7.5,36.3,8.6,56.8,3.2
			c18.2-4.8,36.9-14.7,52.8-28c12.9-10.8,21.2-20.1,24.6-25.2c1.1-1.6,4.8-4,13.2-9.5c3.5-2.3,7.5-4.9,11.8-7.8
			c26.1-17.6,63.4-32.9,71.1-32.1l-0.3,3c-5.6-0.5-40.9,12.6-69.1,31.6c-4.3,2.9-8.3,5.5-11.8,7.8c-6,3.9-11.6,7.6-12.4,8.7
			c-1.7,2.6-8.7,12-25.2,25.8c-16.2,13.6-35.4,23.7-54,28.6c-21.2,5.6-41.5,4.4-58.8-3.4c-17.7-8-32.1-19.5-42.7-34.1
			c-12.7-17.4-21.8-36.8-30.7-55.6c-5.5-11.7-11.2-23.7-17.6-35c-10.5-18.5-30.1-33.1-53.6-39.9c-23.2-6.8-47.4-5.3-66.3,4.1
			c-40.3,20-82.9,81.1-88.5,92.1l-2.1,4.1c-15.3,30-23,45.1-48,64.7C690,607.7,670.3,613.7,647.1,613.7z"/>
		<path class="st2" d="M661.9,602.2c-12.2-0.1-24.3-1.7-36.2-4.5c-17.9-4.2-35.2-10.4-51.8-18.3l1.4-2.7
			c16.4,7.8,33.5,13.9,51.2,18.1c46.6,10.8,71.5-0.1,84.2-11.1c21.7-18.8,27.3-31.4,36.5-52.3c3-6.8,6.4-14.5,10.9-23.5
			c9-18.1,46.8-72.8,89.3-89.2c19.6-7.5,43.1-6.5,66,3c21.6,8.9,40,24.3,50.5,42.1c4.2,7.2,8.2,14.4,12.5,22.1
			c12.1,21.7,24.5,44.1,40.8,64.8c7.4,9.4,20.7,22.8,42,32.7c33.7,15.7,76.8,7.6,109.9-20.6c13.3-11.3,19.5-19.4,23.9-25.9
			c1.6-2.3,6.3-5.9,13.4-11.4c3-2.3,6.4-4.9,10-7.8c27.3-21.7,64.1-35.3,69.7-34.7l-0.3,3c-0.1,0-0.2,0-0.2,0
			c-5.1,0-40.2,12.7-67.2,34.1c-3.6,2.9-7,5.5-10,7.8c-6.4,4.9-11.4,8.8-12.7,10.7c-4.5,6.6-10.9,14.9-24.4,26.5
			c-34,28.9-78.4,37.2-113.1,21.1c-21.8-10.2-35.5-23.9-43.1-33.6c-16.4-20.9-29-43.4-41.1-65.2c-4.3-7.7-8.3-14.9-12.5-22.1
			c-10.1-17.3-28-32.2-49-40.9c-22.2-9.2-44.9-10.3-63.8-3c-41.2,15.8-79.2,70.6-87.7,87.7c-4.4,8.9-7.8,16.6-10.8,23.4
			c-9.1,20.6-15.1,34.2-37.3,53.4C700.2,596.7,683,602.2,661.9,602.2z"/>
		<path class="st2" d="M675.4,590.9c-13.2,0-28.1-2.4-44.8-7.1c-19.6-5.7-38.6-13.3-56.7-22.7l1.4-2.6c17.9,9.3,36.7,16.8,56.1,22.5
			c50.3,14.3,75,4,86.9-7.2c21.4-20.1,26-33.2,32.3-51.2c3.7-11.1,8.1-22,13.2-32.6c11.6-24.1,45.1-72.8,88.7-84.9
			c24.8-6.9,48.2,1.8,63.5,10.4c18.5,10.3,35.5,26.4,45.5,43c13,21.6,33.3,53.7,58.6,83.6c10.9,12.9,26,24.4,42.5,32.3
			c36.3,17.4,78.5,11.1,110.2-16.4c12.6-10.9,17.7-18.5,23.1-26.5c2.2-3.2,7.3-7.9,14.3-14.3c2.3-2.1,4.7-4.3,7.4-6.8
			c27.5-25.6,64.3-37.9,68.2-37.4l-0.3,3h-0.1c-3.2,0-38.8,11.5-65.8,36.6c-2.6,2.4-5.1,4.7-7.4,6.8c-6.9,6.3-11.8,10.8-13.8,13.7
			c-5.5,8.2-10.8,15.9-23.7,27.1c-20.4,17.7-45.1,26.9-69.8,26.9c-15.1,0-30-3.4-43.7-10c-16.9-8.1-32.3-19.8-43.5-33
			c-25.5-30.1-45.8-62.3-58.9-84c-17-28.1-62.3-64-105.7-52c-42.6,11.9-75.4,59.7-86.8,83.4c-5,10.5-9.3,21.3-13,32.3
			c-6.5,18.4-11.2,31.7-33.1,52.4C709.8,585.9,694.6,590.9,675.4,590.9z"/>
		<path class="st2" d="M688.1,580.1c-14.7,0-32.3-3.4-52.7-10.1c-21.2-7.2-41.8-16.3-61.5-27.1l1.5-2.6c19.5,10.7,39.9,19.7,61,26.8
			c54,17.8,78.6,8,89.7-3.3c21.8-22.2,25.2-35.2,30-53c2.8-10.5,6-22.5,13.6-38.7c6.3-13.4,17.2-32.9,33.3-49.6
			c16.6-17.1,35-27.6,54.8-31.1c19.4-3.4,40.5,2.7,61,17.7c16.1,12,29.8,26.8,40.6,43.8c13.6,21.8,35.2,48.8,63.9,80.3
			c12.3,13.2,26.9,24,43,31.9c17.8,8.8,36.8,12.8,54.9,11.5c20.6-1.4,39.3-9.4,55.5-23.8c10.2-9,14.2-15,20.2-23.9
			c0.7-1,1.4-2.1,2.2-3.2c3.3-4.9,9.6-11.7,18.4-21.2l1.6-1.7c26.4-28.5,63.7-40.4,66.8-40.1l-0.3,3c0,0,0.1,0,0.1,0
			c-2.6,0.2-38.3,11-64.4,39.1l-1.6,1.7c-8.6,9.3-14.9,16.1-18.1,20.8c-0.8,1.1-1.5,2.2-2.2,3.2c-5.9,8.8-10.2,15.2-20.7,24.5
			c-31.3,27.7-73.9,32.4-113.8,12.7c-16.5-8.1-31.4-19.1-43.9-32.5c-28.9-31.6-50.5-58.8-64.3-80.7c-10.6-16.6-24.1-31.1-39.8-42.9
			c-19.9-14.5-40.2-20.4-58.7-17.1c-48.1,8.5-76.1,58.1-86,79c-7.5,16-10.6,27.8-13.4,38.2c-4.7,17.6-8.4,31.6-30.7,54.4
			C718.9,575.3,705.5,580.1,688.1,580.1z"/>
		<path class="st2" d="M1123.6,572.8c-10.8-0.1-21.5-1.8-31.7-5c-28.3-8.7-53.5-27.2-67.7-41.6c-2.6-2.7-5.3-5.4-7.9-8
			c-24.8-25.1-48.2-48.8-61.7-69.3c-12.9-19.6-47.2-71.8-91.5-68.2c-46.7,3.8-70,41.9-85.1,74.7c-8.5,18.4-10.9,31.5-13.1,42.9
			c-3.4,18-6,32.3-29.1,57.6c-16.1,17.7-48.3,17.7-95.8,0.2c-35.1-13-65.9-31.2-66.2-31.4l1.5-2.6c1.2,0.7,121.9,71.8,158.3,31.8
			c22.5-24.7,25.1-38.6,28.3-56.1c2.2-11.6,4.7-24.8,13.3-43.6c15.4-33.5,39.3-72.5,87.6-76.4c46-3.8,81,49.5,94.2,69.5
			c13.3,20.3,36.6,43.9,61.3,68.9c2.6,2.7,5.3,5.4,7.9,8c13.9,14.1,38.6,32.2,66.4,40.8c33.9,10.4,63.5,4.6,87.9-17.4
			c8.3-7.5,11.5-12.4,16.8-20.5c7.1-11.1,14.9-21.8,23.1-32c26.6-33.4,64.4-42.6,64.8-42.7l0.7,2.9c-0.4,0.1-37.2,9.1-63.2,41.7
			c-8.2,10.2-15.9,20.8-23,31.8c-5.4,8.3-8.7,13.4-17.3,21.1C1165.7,565,1145.6,572.8,1123.6,572.8z"/>
		<circle class="st3" cx="1187.9" cy="552.4" r="12.4"/>
		<circle class="st3" cx="961.8" cy="461.1" r="12.4"/>
		<circle class="st3" cx="738.9" cy="557.7" r="12.4"/>
		<polygon class="st2" points="1316.2,368 1314.2,368 1314.2,309.3 546.2,309.3 546.2,368 544.2,368 544.2,307.3 1316.2,307.3 		"/>
		<polygon class="st2" points="1316.2,752.9 544.2,752.9 544.2,692.5 546.2,692.5 546.2,750.9 1314.2,750.9 1314.2,692.5 
			1316.2,692.5 		"/>
		<path class="st2" d="M1732.9,440.3h-10.8v-10.8h10.8V440.3z M1723.1,439.3h8.8v-8.8h-8.8V439.3z"/>
		<path class="st2" d="M1746.6,440.3h-10.8v-10.8h10.8V440.3z M1736.8,439.3h8.8v-8.8h-8.8V439.3z"/>
		<path class="st2" d="M1760.3,440.3h-10.8v-10.8h10.8V440.3z M1750.5,439.3h8.8v-8.8h-8.8V439.3z"/>
		<path class="st2" d="M1774,440.3h-10.8v-10.8h10.8V440.3z M1764.2,439.3h8.8v-8.8h-8.8V439.3z"/>
		<path class="st2" d="M1787.7,440.3h-10.8v-10.8h10.8V440.3z M1777.9,439.3h8.8v-8.8h-8.8V439.3z"/>
		<path class="st2" d="M1719.2,454.2h-10.8v-10.8h10.8V454.2z M1709.4,453.2h8.8v-8.8h-8.8V453.2z"/>
		<path class="st2" d="M1732.9,454.2h-10.8v-10.8h10.8V454.2z M1723.1,453.2h8.8v-8.8h-8.8V453.2z"/>
		<path class="st2" d="M1746.6,454.2h-10.8v-10.8h10.8V454.2z M1736.8,453.2h8.8v-8.8h-8.8V453.2z"/>
		<path class="st2" d="M1760.3,454.2h-10.8v-10.8h10.8V454.2z M1750.5,453.2h8.8v-8.8h-8.8V453.2z"/>
		<path class="st2" d="M1774,454.2h-10.8v-10.8h10.8V454.2z M1764.2,453.2h8.8v-8.8h-8.8V453.2z"/>
		<path class="st2" d="M1787.7,454.2h-10.8v-10.8h10.8V454.2z M1777.9,453.2h8.8v-8.8h-8.8V453.2z"/>
		<path class="st2" d="M1801.4,454.2h-10.8v-10.8h10.8V454.2z M1791.6,453.2h8.8v-8.8h-8.8V453.2z"/>
		<path class="st2" d="M1705.5,468.1h-10.8v-10.8h10.8V468.1z M1695.7,467.1h8.8v-8.8h-8.8V467.1z"/>
		<path class="st2" d="M1719.2,468.1h-10.8v-10.8h10.8V468.1z M1709.4,467.1h8.8v-8.8h-8.8V467.1z"/>
		<path class="st2" d="M1732.9,468.1h-10.8v-10.8h10.8V468.1z M1723.1,467.1h8.8v-8.8h-8.8V467.1z"/>
		<path class="st2" d="M1746.6,468.1h-10.8v-10.8h10.8V468.1z M1736.8,467.1h8.8v-8.8h-8.8V467.1z"/>
		<path class="st2" d="M1760.3,468.1h-10.8v-10.8h10.8V468.1z M1750.5,467.1h8.8v-8.8h-8.8V467.1z"/>
		<path class="st2" d="M1774,468.1h-10.8v-10.8h10.8V468.1z M1764.2,467.1h8.8v-8.8h-8.8V467.1z"/>
		<path class="st2" d="M1787.7,468.1h-10.8v-10.8h10.8V468.1z M1777.9,467.1h8.8v-8.8h-8.8V467.1z"/>
		<path class="st2" d="M1801.4,468.1h-10.8v-10.8h10.8V468.1z M1791.6,467.1h8.8v-8.8h-8.8V467.1z"/>
		<path class="st2" d="M1815.1,468.1h-10.8v-10.8h10.8V468.1z M1805.3,467.1h8.8v-8.8h-8.8V467.1z"/>
		<path class="st2" d="M1307.9,468.1h-10.8v-10.8h10.8V468.1z M1298.1,467.1h8.8v-8.8h-8.8V467.1z"/>
		<path class="st2" d="M1321.6,468.1h-10.8v-10.8h10.8V468.1z M1311.8,467.1h8.8v-8.8h-8.8V467.1z"/>
		<path class="st2" d="M1335.3,468.1h-10.8v-10.8h10.8V468.1z M1325.5,467.1h8.8v-8.8h-8.8V467.1z"/>
		<path class="st2" d="M1349,468.1h-10.8v-10.8h10.8V468.1z M1339.2,467.1h8.8v-8.8h-8.8V467.1z"/>
		<path class="st2" d="M1362.8,482H1352v-10.8h10.8V482z M1353,481h8.8v-8.8h-8.8V481z"/>
		<path class="st2" d="M1376.5,482h-10.8v-10.8h10.8V482z M1366.7,481h8.8v-8.8h-8.8V481z"/>
		<path class="st2" d="M1691.8,482H1681v-10.8h10.8V482z M1682,481h8.8v-8.8h-8.8V481z"/>
		<path class="st2" d="M1705.5,482h-10.8v-10.8h10.8V482z M1695.7,481h8.8v-8.8h-8.8V481z"/>
		<path class="st2" d="M1719.2,482h-10.8v-10.8h10.8V482z M1709.4,481h8.8v-8.8h-8.8V481z"/>
		<path class="st2" d="M1732.9,482h-10.8v-10.8h10.8V482z M1723.1,481h8.8v-8.8h-8.8V481z"/>
		<path class="st2" d="M1746.6,482h-10.8v-10.8h10.8V482z M1736.8,481h8.8v-8.8h-8.8V481z"/>
		<path class="st2" d="M1760.3,482h-10.8v-10.8h10.8V482z M1750.5,481h8.8v-8.8h-8.8V481z"/>
		<path class="st2" d="M1774,482h-10.8v-10.8h10.8V482z M1764.2,481h8.8v-8.8h-8.8V481z"/>
		<path class="st2" d="M1787.7,482h-10.8v-10.8h10.8V482z M1777.9,481h8.8v-8.8h-8.8V481z"/>
		<path class="st2" d="M1801.4,482h-10.8v-10.8h10.8V482z M1791.6,481h8.8v-8.8h-8.8V481z"/>
		<path class="st2" d="M1815.1,482h-10.8v-10.8h10.8V482z M1805.3,481h8.8v-8.8h-8.8V481z"/>
		<path class="st2" d="M1828.8,482H1818v-10.8h10.8V482z M1819,481h8.8v-8.8h-8.8V481z"/>
		<path class="st2" d="M1294.3,468.1h-10.8v-10.8h10.8V468.1z M1284.5,467.1h8.8v-8.8h-8.8V467.1z"/>
		<path class="st2" d="M1307.9,482h-10.8v-10.8h10.8V482z M1298.1,481h8.8v-8.8h-8.8V481z"/>
		<path class="st2" d="M1321.6,482h-10.8v-10.8h10.8V482z M1311.8,481h8.8v-8.8h-8.8V481z"/>
		<path class="st2" d="M1335.3,482h-10.8v-10.8h10.8V482z M1325.5,481h8.8v-8.8h-8.8V481z"/>
		<path class="st2" d="M1349,482h-10.8v-10.8h10.8V482z M1339.2,481h8.8v-8.8h-8.8V481z"/>
		<path class="st2" d="M1362.8,495.9H1352v-10.8h10.8V495.9z M1353,494.9h8.8v-8.8h-8.8V494.9z"/>
		<path class="st2" d="M1376.5,495.9h-10.8v-10.8h10.8V495.9z M1366.7,494.9h8.8v-8.8h-8.8V494.9z"/>
		<path class="st2" d="M1691.8,495.9H1681v-10.8h10.8V495.9z M1682,494.9h8.8v-8.8h-8.8V494.9z"/>
		<path class="st2" d="M1705.5,495.9h-10.8v-10.8h10.8V495.9z M1695.7,494.9h8.8v-8.8h-8.8V494.9z"/>
		<path class="st2" d="M1719.2,495.9h-10.8v-10.8h10.8V495.9z M1709.4,494.9h8.8v-8.8h-8.8V494.9z"/>
		<path class="st2" d="M1732.9,495.9h-10.8v-10.8h10.8V495.9z M1723.1,494.9h8.8v-8.8h-8.8V494.9z"/>
		<path class="st2" d="M1746.6,495.9h-10.8v-10.8h10.8V495.9z M1736.8,494.9h8.8v-8.8h-8.8V494.9z"/>
		<path class="st2" d="M1828.8,495.9H1818v-10.8h10.8V495.9z M1819,494.9h8.8v-8.8h-8.8V494.9z"/>
		<path class="st2" d="M1842.6,495.9h-10.8v-10.8h10.8V495.9z M1832.8,494.9h8.8v-8.8h-8.8V494.9z"/>
		<path class="st2" d="M1294.3,482h-10.8v-10.8h10.8V482z M1284.5,481h8.8v-8.8h-8.8V481z"/>
		<path class="st2" d="M1307.9,495.9h-10.8v-10.8h10.8V495.9z M1298.1,494.9h8.8v-8.8h-8.8V494.9z"/>
		<path class="st2" d="M1321.6,495.9h-10.8v-10.8h10.8V495.9z M1311.8,494.9h8.8v-8.8h-8.8V494.9z"/>
		<path class="st2" d="M1335.3,495.9h-10.8v-10.8h10.8V495.9z M1325.5,494.9h8.8v-8.8h-8.8V494.9z"/>
		<path class="st2" d="M1349,495.9h-10.8v-10.8h10.8V495.9z M1339.2,494.9h8.8v-8.8h-8.8V494.9z"/>
		<path class="st2" d="M1403.9,509.8h-10.8V499h10.8V509.8z M1394.1,508.8h8.8V500h-8.8V508.8z"/>
		<path class="st2" d="M1417.6,509.8h-10.8V499h10.8V509.8z M1407.8,508.8h8.8V500h-8.8V508.8z"/>
		<path class="st2" d="M1431.3,509.8h-10.8V499h10.8V509.8z M1421.5,508.8h8.8V500h-8.8V508.8z"/>
		<path class="st2" d="M1678.1,509.8h-10.8V499h10.8V509.8z M1668.3,508.8h8.8V500h-8.8V508.8z"/>
		<path class="st2" d="M1691.8,509.8H1681V499h10.8V509.8z M1682,508.8h8.8V500h-8.8V508.8z"/>
		<path class="st2" d="M1705.5,509.8h-10.8V499h10.8V509.8z M1695.7,508.8h8.8V500h-8.8V508.8z"/>
		<path class="st2" d="M1719.2,509.8h-10.8V499h10.8V509.8z M1709.4,508.8h8.8V500h-8.8V508.8z"/>
		<path class="st2" d="M1732.9,509.8h-10.8V499h10.8V509.8z M1723.1,508.8h8.8V500h-8.8V508.8z"/>
		<path class="st2" d="M1842.6,509.8h-10.8V499h10.8V509.8z M1832.8,508.8h8.8V500h-8.8V508.8z"/>
		<path class="st2" d="M1856.3,509.8h-10.8V499h10.8V509.8z M1846.5,508.8h8.8V500h-8.8V508.8z"/>
		<path class="st2" d="M1294.3,495.9h-10.8v-10.8h10.8V495.9z M1284.5,494.9h8.8v-8.8h-8.8V494.9z"/>
		<path class="st2" d="M1307.9,509.8h-10.8V499h10.8V509.8z M1298.1,508.8h8.8V500h-8.8V508.8z"/>
		<path class="st2" d="M1321.6,509.8h-10.8V499h10.8V509.8z M1311.8,508.8h8.8V500h-8.8V508.8z"/>
		<path class="st2" d="M1417.6,523.7h-10.8v-10.8h10.8V523.7z M1407.8,522.7h8.8v-8.8h-8.8V522.7z"/>
		<path class="st2" d="M1431.3,523.7h-10.8v-10.8h10.8V523.7z M1421.5,522.7h8.8v-8.8h-8.8V522.7z"/>
		<path class="st2" d="M1445,523.7h-10.8v-10.8h10.8V523.7z M1435.2,522.7h8.8v-8.8h-8.8V522.7z"/>
		<path class="st2" d="M1458.7,523.7h-10.8v-10.8h10.8V523.7z M1448.9,522.7h8.8v-8.8h-8.8V522.7z"/>
		<path class="st2" d="M1678.1,523.7h-10.8v-10.8h10.8V523.7z M1668.3,522.7h8.8v-8.8h-8.8V522.7z"/>
		<path class="st2" d="M1691.8,523.7H1681v-10.8h10.8V523.7z M1682,522.7h8.8v-8.8h-8.8V522.7z"/>
		<path class="st2" d="M1705.5,523.7h-10.8v-10.8h10.8V523.7z M1695.7,522.7h8.8v-8.8h-8.8V522.7z"/>
		<path class="st2" d="M1719.2,523.7h-10.8v-10.8h10.8V523.7z M1709.4,522.7h8.8v-8.8h-8.8V522.7z"/>
		<path class="st2" d="M1842.6,523.7h-10.8v-10.8h10.8V523.7z M1832.8,522.7h8.8v-8.8h-8.8V522.7z"/>
		<path class="st2" d="M1856.3,523.7h-10.8v-10.8h10.8V523.7z M1846.5,522.7h8.8v-8.8h-8.8V522.7z"/>
		<path class="st2" d="M1870,523.7h-10.8v-10.8h10.8V523.7z M1860.2,522.7h8.8v-8.8h-8.8V522.7z"/>
		<path class="st2" d="M1294.3,509.8h-10.8V499h10.8V509.8z M1284.5,508.8h8.8V500h-8.8V508.8z"/>
		<path class="st2" d="M1417.6,537.7h-10.8v-10.8h10.8V537.7z M1407.8,536.7h8.8v-8.8h-8.8V536.7z"/>
		<path class="st2" d="M1431.3,537.7h-10.8v-10.8h10.8V537.7z M1421.5,536.7h8.8v-8.8h-8.8V536.7z"/>
		<path class="st2" d="M1445,537.7h-10.8v-10.8h10.8V537.7z M1435.2,536.7h8.8v-8.8h-8.8V536.7z"/>
		<path class="st2" d="M1458.7,537.7h-10.8v-10.8h10.8V537.7z M1448.9,536.7h8.8v-8.8h-8.8V536.7z"/>
		<path class="st2" d="M1472.4,537.7h-10.8v-10.8h10.8V537.7z M1462.6,536.7h8.8v-8.8h-8.8V536.7z"/>
		<path class="st2" d="M1486.1,537.7h-10.8v-10.8h10.8V537.7z M1476.3,536.7h8.8v-8.8h-8.8V536.7z"/>
		<path class="st2" d="M1664.3,537.7h-10.8v-10.8h10.8V537.7z M1654.5,536.7h8.8v-8.8h-8.8V536.7z"/>
		<path class="st2" d="M1678.1,537.7h-10.8v-10.8h10.8V537.7z M1668.3,536.7h8.8v-8.8h-8.8V536.7z"/>
		<path class="st2" d="M1691.8,537.7H1681v-10.8h10.8V537.7z M1682,536.7h8.8v-8.8h-8.8V536.7z"/>
		<path class="st2" d="M1705.5,537.7h-10.8v-10.8h10.8V537.7z M1695.7,536.7h8.8v-8.8h-8.8V536.7z"/>
		<path class="st2" d="M1856.3,537.7h-10.8v-10.8h10.8V537.7z M1846.5,536.7h8.8v-8.8h-8.8V536.7z"/>
		<path class="st2" d="M1870,537.7h-10.8v-10.8h10.8V537.7z M1860.2,536.7h8.8v-8.8h-8.8V536.7z"/>
		<path class="st2" d="M1883.7,537.7h-10.8v-10.8h10.8V537.7z M1873.9,536.7h8.8v-8.8h-8.8V536.7z"/>
		<path class="st2" d="M1897.4,537.7h-10.8v-10.8h10.8V537.7z M1887.6,536.7h8.8v-8.8h-8.8V536.7z"/>
		<path class="st2" d="M1911.1,537.7h-10.8v-10.8h10.8V537.7z M1901.3,536.7h8.8v-8.8h-8.8V536.7z"/>
		<path class="st2" d="M1924.8,537.7H1914v-10.8h10.8L1924.8,537.7z M1915,536.7h8.8v-8.8h-8.8L1915,536.7z"/>
		<path class="st2" d="M1431.3,551.6h-10.8v-10.8h10.8V551.6z M1421.5,550.6h8.8v-8.8h-8.8V550.6z"/>
		<path class="st2" d="M1445,551.6h-10.8v-10.8h10.8V551.6z M1435.2,550.6h8.8v-8.8h-8.8V550.6z"/>
		<path class="st2" d="M1458.7,551.6h-10.8v-10.8h10.8V551.6z M1448.9,550.6h8.8v-8.8h-8.8V550.6z"/>
		<path class="st2" d="M1472.4,551.6h-10.8v-10.8h10.8V551.6z M1462.6,550.6h8.8v-8.8h-8.8V550.6z"/>
		<path class="st2" d="M1486.1,551.6h-10.8v-10.8h10.8V551.6z M1476.3,550.6h8.8v-8.8h-8.8V550.6z"/>
		<path class="st2" d="M1664.3,551.6h-10.8v-10.8h10.8V551.6z M1654.5,550.6h8.8v-8.8h-8.8V550.6z"/>
		<path class="st2" d="M1678.1,551.6h-10.8v-10.8h10.8V551.6z M1668.3,550.6h8.8v-8.8h-8.8V550.6z"/>
		<path class="st2" d="M1691.8,551.6H1681v-10.8h10.8V551.6z M1682,550.6h8.8v-8.8h-8.8V550.6z"/>
		<path class="st2" d="M1870,551.6h-10.8v-10.8h10.8V551.6z M1860.2,550.6h8.8v-8.8h-8.8V550.6z"/>
		<path class="st2" d="M1883.7,551.6h-10.8v-10.8h10.8V551.6z M1873.9,550.6h8.8v-8.8h-8.8V550.6z"/>
		<path class="st2" d="M1897.4,551.6h-10.8v-10.8h10.8V551.6z M1887.6,550.6h8.8v-8.8h-8.8V550.6z"/>
		<path class="st2" d="M1911.1,551.6h-10.8v-10.8h10.8V551.6z M1901.3,550.6h8.8v-8.8h-8.8V550.6z"/>
		<path class="st2" d="M1924.8,551.6H1914v-10.8h10.8L1924.8,551.6z M1915,550.6h8.8v-8.8h-8.8L1915,550.6z"/>
		<path class="st2" d="M1431.3,565.5h-10.8v-10.8h10.8V565.5z M1421.5,564.5h8.8v-8.8h-8.8V564.5z"/>
		<path class="st2" d="M1445,565.5h-10.8v-10.8h10.8V565.5z M1435.2,564.5h8.8v-8.8h-8.8V564.5z"/>
		<path class="st2" d="M1458.7,565.5h-10.8v-10.8h10.8V565.5z M1448.9,564.5h8.8v-8.8h-8.8V564.5z"/>
		<path class="st2" d="M1472.4,565.5h-10.8v-10.8h10.8V565.5z M1462.6,564.5h8.8v-8.8h-8.8V564.5z"/>
		<path class="st2" d="M1486.1,565.5h-10.8v-10.8h10.8V565.5z M1476.3,564.5h8.8v-8.8h-8.8V564.5z"/>
		<path class="st2" d="M1499.8,565.5H1489v-10.8h10.8V565.5z M1490,564.5h8.8v-8.8h-8.8V564.5z"/>
		<path class="st2" d="M1513.6,565.5h-10.8v-10.8h10.8V565.5z M1503.8,564.5h8.8v-8.8h-8.8V564.5z"/>
		<path class="st2" d="M1636.9,565.5h-10.8v-10.8h10.8V565.5z M1627.1,564.5h8.8v-8.8h-8.8V564.5z"/>
		<path class="st2" d="M1650.6,565.5h-10.8v-10.8h10.8V565.5z M1640.8,564.5h8.8v-8.8h-8.8V564.5z"/>
		<path class="st2" d="M1664.3,565.5h-10.8v-10.8h10.8V565.5z M1654.5,564.5h8.8v-8.8h-8.8V564.5z"/>
		<path class="st2" d="M1678.1,565.5h-10.8v-10.8h10.8V565.5z M1668.3,564.5h8.8v-8.8h-8.8V564.5z"/>
		<path class="st2" d="M1870,565.5h-10.8v-10.8h10.8V565.5z M1860.2,564.5h8.8v-8.8h-8.8V564.5z"/>
		<path class="st2" d="M1883.7,565.5h-10.8v-10.8h10.8V565.5z M1873.9,564.5h8.8v-8.8h-8.8V564.5z"/>
		<path class="st2" d="M1897.4,565.5h-10.8v-10.8h10.8V565.5z M1887.6,564.5h8.8v-8.8h-8.8V564.5z"/>
		<path class="st2" d="M1911.1,565.5h-10.8v-10.8h10.8V565.5z M1901.3,564.5h8.8v-8.8h-8.8V564.5z"/>
		<path class="st2" d="M1924.8,565.5H1914v-10.8h10.8L1924.8,565.5z M1915,564.5h8.8v-8.8h-8.8L1915,564.5z"/>
		<path class="st2" d="M1445,579.4h-10.8v-10.8h10.8V579.4z M1435.2,578.4h8.8v-8.8h-8.8V578.4z"/>
		<path class="st2" d="M1458.7,579.4h-10.8v-10.8h10.8V579.4z M1448.9,578.4h8.8v-8.8h-8.8V578.4z"/>
		<path class="st2" d="M1472.4,579.4h-10.8v-10.8h10.8V579.4z M1462.6,578.4h8.8v-8.8h-8.8V578.4z"/>
		<path class="st2" d="M1486.1,579.4h-10.8v-10.8h10.8V579.4z M1476.3,578.4h8.8v-8.8h-8.8V578.4z"/>
		<path class="st2" d="M1499.8,579.4H1489v-10.8h10.8V579.4z M1490,578.4h8.8v-8.8h-8.8V578.4z"/>
		<path class="st2" d="M1513.6,579.4h-10.8v-10.8h10.8V579.4z M1503.8,578.4h8.8v-8.8h-8.8V578.4z"/>
		<path class="st2" d="M1527.3,579.4h-10.8v-10.8h10.8V579.4z M1517.5,578.4h8.8v-8.8h-8.8V578.4z"/>
		<path class="st2" d="M1541,579.4h-10.8v-10.8h10.8V579.4z M1531.2,578.4h8.8v-8.8h-8.8V578.4z"/>
		<path class="st2" d="M1554.7,579.4h-10.8v-10.8h10.8V579.4z M1544.9,578.4h8.8v-8.8h-8.8V578.4z"/>
		<path class="st2" d="M1636.9,579.4h-10.8v-10.8h10.8V579.4z M1627.1,578.4h8.8v-8.8h-8.8V578.4z"/>
		<path class="st2" d="M1650.6,579.4h-10.8v-10.8h10.8V579.4z M1640.8,578.4h8.8v-8.8h-8.8V578.4z"/>
		<path class="st2" d="M1883.7,579.4h-10.8v-10.8h10.8V579.4z M1873.9,578.4h8.8v-8.8h-8.8V578.4z"/>
		<path class="st2" d="M1897.4,579.4h-10.8v-10.8h10.8V579.4z M1887.6,578.4h8.8v-8.8h-8.8V578.4z"/>
		<path class="st2" d="M1911.1,579.4h-10.8v-10.8h10.8V579.4z M1901.3,578.4h8.8v-8.8h-8.8V578.4z"/>
		<path class="st2" d="M1924.8,579.4H1914v-10.8h10.8L1924.8,579.4z M1915,578.4h8.8v-8.8h-8.8L1915,578.4z"/>
		<path class="st2" d="M1458.7,593.3h-10.8v-10.8h10.8V593.3z M1448.9,592.3h8.8v-8.8h-8.8V592.3z"/>
		<path class="st2" d="M1472.4,593.3h-10.8v-10.8h10.8V593.3z M1462.6,592.3h8.8v-8.8h-8.8V592.3z"/>
		<path class="st2" d="M1486.1,593.3h-10.8v-10.8h10.8V593.3z M1476.3,592.3h8.8v-8.8h-8.8V592.3z"/>
		<path class="st2" d="M1499.8,593.3H1489v-10.8h10.8V593.3z M1490,592.3h8.8v-8.8h-8.8V592.3z"/>
		<path class="st2" d="M1513.6,593.3h-10.8v-10.8h10.8V593.3z M1503.8,592.3h8.8v-8.8h-8.8V592.3z"/>
		<path class="st2" d="M1527.3,593.3h-10.8v-10.8h10.8V593.3z M1517.5,592.3h8.8v-8.8h-8.8V592.3z"/>
		<path class="st2" d="M1541,593.3h-10.8v-10.8h10.8V593.3z M1531.2,592.3h8.8v-8.8h-8.8V592.3z"/>
		<path class="st2" d="M1554.7,593.3h-10.8v-10.8h10.8V593.3z M1544.9,592.3h8.8v-8.8h-8.8V592.3z"/>
		<path class="st2" d="M1568.4,593.3h-10.8v-10.8h10.8V593.3z M1558.6,592.3h8.8v-8.8h-8.8V592.3z"/>
		<path class="st2" d="M1582.1,593.3h-10.8v-10.8h10.8V593.3z M1572.3,592.3h8.8v-8.8h-8.8V592.3z"/>
		<path class="st2" d="M1595.8,593.3H1585v-10.8h10.8V593.3z M1586,592.3h8.8v-8.8h-8.8V592.3z"/>
		<path class="st2" d="M1609.5,593.3h-10.8v-10.8h10.8V593.3z M1599.7,592.3h8.8v-8.8h-8.8V592.3z"/>
		<path class="st2" d="M1897.4,593.3h-10.8v-10.8h10.8V593.3z M1887.6,592.3h8.8v-8.8h-8.8V592.3z"/>
		<path class="st2" d="M1911.1,593.3h-10.8v-10.8h10.8V593.3z M1901.3,592.3h8.8v-8.8h-8.8V592.3z"/>
		<path class="st2" d="M1924.8,593.3H1914v-10.8h10.8L1924.8,593.3z M1915,592.3h8.8v-8.8h-8.8L1915,592.3z"/>
		<path class="st2" d="M1472.4,607.2h-10.8v-10.8h10.8V607.2z M1462.6,606.2h8.8v-8.8h-8.8V606.2z"/>
		<path class="st2" d="M1486.1,607.2h-10.8v-10.8h10.8V607.2z M1476.3,606.2h8.8v-8.8h-8.8V606.2z"/>
		<path class="st2" d="M1499.8,607.2H1489v-10.8h10.8V607.2z M1490,606.2h8.8v-8.8h-8.8V606.2z"/>
		<path class="st2" d="M1513.6,607.2h-10.8v-10.8h10.8V607.2z M1503.8,606.2h8.8v-8.8h-8.8V606.2z"/>
		<path class="st2" d="M1527.3,607.2h-10.8v-10.8h10.8V607.2z M1517.5,606.2h8.8v-8.8h-8.8V606.2z"/>
		<path class="st2" d="M1541,607.2h-10.8v-10.8h10.8V607.2z M1531.2,606.2h8.8v-8.8h-8.8V606.2z"/>
		<path class="st2" d="M1554.7,607.2h-10.8v-10.8h10.8V607.2z M1544.9,606.2h8.8v-8.8h-8.8V606.2z"/>
		<path class="st2" d="M1568.4,607.2h-10.8v-10.8h10.8V607.2z M1558.6,606.2h8.8v-8.8h-8.8V606.2z"/>
		<path class="st2" d="M1582.1,607.2h-10.8v-10.8h10.8V607.2z M1572.3,606.2h8.8v-8.8h-8.8V606.2z"/>
		<path class="st2" d="M1595.8,607.2H1585v-10.8h10.8V607.2z M1586,606.2h8.8v-8.8h-8.8V606.2z"/>
		<path class="st2" d="M1924.8,607.2H1914v-10.8h10.8L1924.8,607.2z M1915,606.2h8.8v-8.8h-8.8L1915,606.2z"/>
		<path class="st2" d="M1499.8,621.1H1489v-10.8h10.8V621.1z M1490,620.1h8.8v-8.8h-8.8V620.1z"/>
		<path class="st2" d="M1513.6,621.1h-10.8v-10.8h10.8V621.1z M1503.8,620.1h8.8v-8.8h-8.8V620.1z"/>
		<path class="st2" d="M1527.3,621.1h-10.8v-10.8h10.8V621.1z M1517.5,620.1h8.8v-8.8h-8.8V620.1z"/>
		<path class="st2" d="M1541,621.1h-10.8v-10.8h10.8V621.1z M1531.2,620.1h8.8v-8.8h-8.8V620.1z"/>
		<path class="st2" d="M1554.7,621.1h-10.8v-10.8h10.8V621.1z M1544.9,620.1h8.8v-8.8h-8.8V620.1z"/>
		<path class="st2" d="M1568.4,621.1h-10.8v-10.8h10.8V621.1z M1558.6,620.1h8.8v-8.8h-8.8V620.1z"/>
		<rect x="1376.9" y="486.2" class="st3" width="18.9" height="18.9"/>
		<rect x="1605.7" y="572.2" class="st3" width="18.9" height="18.9"/>
		<rect x="1825.4" y="481.7" class="st3" width="18.9" height="18.9"/>
		<rect x="270" y="580.4" class="st3" width="18.9" height="18.9"/>
		<rect x="41.2" y="486.2" class="st3" width="18.9" height="18.9"/>
		<rect x="489.6" y="481.7" class="st3" width="18.9" height="18.9"/>
		<polygon class="st2" points="1421.2,1080 1419.2,1080 1419.2,750.9 1923.5,750.9 1923.5,752.9 1421.2,752.9 		"/>
		<polygon class="st3" points="1549.4,1080 1547.4,1080 1547.4,862.8 1923.5,862.8 1923.5,864.8 1549.4,864.8 		"/>
		<polygon class="st3" points="1923.5,204.2 1547.4,204.2 1547.4,0 1549.4,0 1549.4,202.2 1923.5,202.2 		"/>
		<rect x="1697.9" y="743.4" class="st2" width="12.4" height="8.8"/>
		<rect x="1721.4" y="743.4" class="st2" width="12.4" height="8.8"/>
		<rect x="1744.9" y="743.5" class="st2" width="12.4" height="8.8"/>
		<rect x="1768.4" y="743.5" class="st2" width="12.4" height="8.8"/>
		<rect x="1791.9" y="743.4" class="st2" width="12.4" height="8.8"/>
		<polygon class="st2" points="1923.5,309.3 1419.2,309.3 1419.2,1.3 1421.2,1.3 1421.2,307.3 1923.5,307.3 		"/>
		<rect x="1602.2" y="309.3" class="st2" width="12.4" height="8.8"/>
		<rect x="1578.7" y="309.3" class="st2" width="12.4" height="8.8"/>
		<rect x="1555.2" y="309.3" class="st2" width="12.4" height="8.8"/>
		<rect x="1531.6" y="309.3" class="st2" width="12.4" height="8.8"/>
		<rect x="1508.1" y="309.3" class="st2" width="12.4" height="8.8"/>
		<path class="st3" d="M1919.4,693.5h-20v-2h20V693.5z M1879.4,693.5h-20v-2h20V693.5z M1839.4,693.5h-20v-2h20V693.5z
			 M1799.4,693.5h-20v-2h20V693.5z M1759.4,693.5h-20v-2h20V693.5z M1719.4,693.5h-20v-2h20V693.5z M1679.4,693.5h-20v-2h20V693.5z
			 M1639.4,693.5h-20v-2h20V693.5z M1599.4,693.5h-20v-2h20V693.5z M1559.4,693.5h-20v-2h20V693.5z M1519.4,693.5h-20v-2h20V693.5z
			 M1479.4,693.5h-20v-2h20V693.5z M1439.4,693.5h-20v-2h20V693.5z M1399.4,693.5h-20v-2h20V693.5z M1359.4,693.5h-20v-2h20V693.5z"
			/>
		<path class="st3" d="M1914.8,369h-20v-2h20V369z M1874.8,369h-20v-2h20V369z M1834.8,369h-20v-2h20V369z M1794.8,369h-20v-2h20
			V369z M1754.8,369h-20v-2h20V369z M1714.8,369h-20v-2h20V369z M1674.8,369h-20v-2h20V369z M1634.8,369h-20v-2h20V369z M1594.8,369
			h-20v-2h20V369z M1554.8,369h-20v-2h20V369z M1514.8,369h-20v-2h20V369z M1474.8,369h-20v-2h20V369z M1434.8,369h-20v-2h20V369z
			 M1394.8,369h-20v-2h20V369z M1354.8,369h-20v-2h20V369z"/>
		<polygon class="st2" points="506.2,1080 504.2,1080 504.2,752.9 0,752.9 0,750.9 506.2,750.9 		"/>
		<polygon class="st3" points="378,1080 376,1080 376,859.4 0,859.4 0,857.4 378,857.4 		"/>
		<polygon class="st3" points="378,204.2 0,204.2 0,202.2 376,202.2 376,0 378,0 		"/>
		<rect x="215.2" y="743.1" class="st2" width="12.4" height="8.8"/>
		<rect x="191.7" y="743.1" class="st2" width="12.4" height="8.8"/>
		<rect x="168.2" y="743.1" class="st2" width="12.4" height="8.8"/>
		<rect x="144.7" y="743.1" class="st2" width="12.4" height="8.8"/>
		<rect x="121.2" y="743.1" class="st2" width="12.4" height="8.8"/>
		<polygon class="st2" points="506.2,309.3 0,309.3 0,307.3 504.2,307.3 504.2,1.3 506.2,1.3 		"/>
		<rect x="310.9" y="309.3" class="st2" width="12.4" height="8.8"/>
		<rect x="334.4" y="309.3" class="st2" width="12.4" height="8.8"/>
		<rect x="357.9" y="309.3" class="st2" width="12.4" height="8.8"/>
		<rect x="381.4" y="309.3" class="st2" width="12.4" height="8.8"/>
		<rect x="404.9" y="309.3" class="st2" width="12.4" height="8.8"/>
		<path class="st3" d="M506,693.5h-20v-2h20V693.5z M466,693.5h-20v-2h20V693.5z M426,693.5h-20v-2h20V693.5z M386,693.5h-20v-2h20
			V693.5z M346,693.5h-20v-2h20V693.5z M306,693.5h-20v-2h20V693.5z M266,693.5h-20v-2h20V693.5z M226,693.5h-20v-2h20V693.5z
			 M186,693.5h-20v-2h20V693.5z M146,693.5h-20v-2h20V693.5z M106,693.5H86v-2h20V693.5z M66,693.5H46v-2h20V693.5z M26,693.5H6v-2
			h20V693.5z"/>
		<path class="st3" d="M524.2,369h-20v-2h20V369z M484.2,369h-20v-2h20V369z M444.2,369h-20v-2h20V369z M404.2,369h-20v-2h20V369z
			 M364.2,369h-20v-2h20V369z M324.2,369h-20v-2h20V369z M284.2,369h-20v-2h20V369z M244.2,369h-20v-2h20V369z M204.2,369h-20v-2h20
			V369z M164.2,369h-20v-2h20V369z M124.2,369h-20v-2h20V369z M84.2,369h-20v-2h20V369z M44.2,369h-20v-2h20V369z"/>
		<rect x="1420.2" y="981.9" class="st2" width="128.2" height="2"/>
		<rect x="214.2" y="203.2" class="st2" width="2" height="105.1"/>
		<rect x="1307.4" y="750.9" class="st2" width="112.8" height="2"/>
		<rect x="1328.9" y="692.5" class="st2" width="2" height="59.4"/>
		<rect x="1328.9" y="309.3" class="st2" width="2" height="59.4"/>
		<rect x="529" y="692.5" class="st2" width="2" height="59.4"/>
		<rect x="529" y="309.3" class="st2" width="2" height="59.4"/>
		<rect x="1315.2" y="307.3" class="st2" width="104.9" height="2"/>
		<rect x="492" y="750.9" class="st2" width="53.2" height="2"/>
		<rect x="499.1" y="307.3" class="st2" width="46.1" height="2"/>
		<rect x="1712.8" y="201.8" class="st2" width="2" height="106.5"/>
		<rect x="293.9" y="751.9" class="st2" width="2" height="106.5"/>
		<path class="st3" d="M1290.3,734.2H570.1V326h720.2L1290.3,734.2z M579.1,725.2h702.2V335H579.1L579.1,725.2z"/>
		<rect x="817.5" y="751.9" class="st2" width="2" height="328.1"/>
		<rect x="845.4" y="751.9" class="st2" width="2" height="328.1"/>
		<rect x="873.3" y="751.9" class="st2" width="2" height="328.1"/>
		<rect x="901.3" y="751.9" class="st2" width="2" height="328.1"/>
		<rect x="929.2" y="751.9" class="st2" width="2" height="328.1"/>
		<rect x="957.2" y="751.9" class="st2" width="2" height="328.1"/>
		<rect x="985.1" y="751.9" class="st2" width="2" height="328.1"/>
		<rect x="1013" y="751.9" class="st2" width="2" height="328.1"/>
		<rect x="1041" y="751.9" class="st2" width="2" height="328.1"/>
		<rect x="817.5" class="st2" width="2" height="308.3"/>
		<rect x="845.4" class="st2" width="2" height="308.3"/>
		<rect x="873.3" class="st2" width="2" height="308.3"/>
		<rect x="901.3" class="st2" width="2" height="308.3"/>
		<rect x="929.2" class="st2" width="2" height="308.3"/>
		<rect x="957.2" class="st2" width="2" height="308.3"/>
		<rect x="985.1" class="st2" width="2" height="308.3"/>
		<rect x="1013" class="st2" width="2" height="308.3"/>
		<rect x="1041" class="st2" width="2" height="308.3"/>
	</g>
</g>
</svg>
