<?xml version="1.0" encoding="utf-8"?>
<!-- Generator: Adobe Illustrator 24.2.3, SVG Export Plug-In . SVG Version: 6.00 Build 0)  -->
<svg version="1.1" id="Ebene_1" xmlns="http://www.w3.org/2000/svg" xmlns:xlink="http://www.w3.org/1999/xlink" x="0px" y="0px"
	 viewBox="0 0 1920 1080" style="enable-background:new 0 0 1920 1080;" xml:space="preserve">
<style type="text/css">
	.st0{fill:#EDE8DF;}
	.st1{fill:#1A9969;}
	.st2{fill:#FFFFFF;}
	.st3{clip-path:url(#SVGID_2_);}
	.st4{fill:#3A2A78;}
	.st5{opacity:0.3;fill:url(#SVGID_3_);enable-background:new    ;}
	.st6{opacity:0.4;}
	.st7{fill:#6DBACF;}
	.st8{fill:#A180AC;}
	.st9{fill:#1A9369;}
	.st10{fill:#A080AB;}
	.st11{fill:#1A9069;}
	.st12{fill:#C4B496;}
	.st13{fill:#E6DD6C;}
	.st14{fill:#A280AD;}
	.st15{fill:none;}
	.st16{opacity:0.3;fill:url(#SVGID_4_);enable-background:new    ;}
	.st17{clip-path:url(#SVGID_6_);}
	.st18{fill:#3A2B78;}
	.st19{clip-path:url(#SVGID_8_);}
	.st20{clip-path:url(#SVGID_10_);}
	.st21{clip-path:url(#SVGID_12_);}
	.st22{clip-path:url(#SVGID_14_);}
	.st23{clip-path:url(#SVGID_16_);}
	.st24{clip-path:url(#SVGID_18_);}
	.st25{clip-path:url(#SVGID_20_);}
	.st26{clip-path:url(#SVGID_22_);}
	.st27{fill:#A380AE;}
	.st28{fill:#D7D300;}
	.st29{fill:#E88700;}
	.st30{fill:#D6737E;}
	.st31{fill:#9B80A6;}
	.st32{fill:#1A9169;}
	.st33{fill:#41377C;}
	.st34{fill:#262049;}
	.st35{fill:#352D64;}
</style>
<g>
	<g id="a1ca1c4e-866b-4d04-b6dd-a3a6df1c61b5">
		<g>
			<polyline class="st0" points="1920.2,0 0.2,0 0.2,1080 1920.2,1080 1920.2,0 			"/>
		</g>
		<polygon class="st1" points="504.9,579.9 502.9,579.9 502.9,465.8 503.2,465.5 549.7,417.1 551.2,418.5 504.9,466.6 		"/>
		<polygon class="st1" points="491.9,579.9 489.9,579.9 489.9,465.8 490.1,465.6 535.5,417.1 537,418.5 491.9,466.6 		"/>
		<polygon class="st1" points="479.2,579.9 477.2,579.9 477.2,465.9 522.1,417.1 523.6,418.5 479.2,466.6 		"/>
		<path class="st1" d="M557.3,679.8H424.4V579.1h132.8L557.3,679.8L557.3,679.8z M426.4,677.8h128.8v-96.7H426.4V677.8z"/>
		<rect x="437.4" y="590.7" class="st1" width="106.2" height="77.4"/>
		<rect x="445.7" y="599.5" class="st2" width="27.9" height="3.5"/>
		<rect x="445.7" y="615.1" class="st2" width="38.2" height="3.5"/>
		<rect x="445.7" y="623.4" class="st2" width="28.6" height="3.5"/>
		<rect x="445.7" y="631.6" class="st2" width="44.9" height="3.5"/>
		<rect x="445.7" y="639.6" class="st2" width="39.5" height="3.5"/>
		<g>
			<g>
				<defs>
					<rect id="SVGID_1_" x="393.7" y="88.5" width="544.4" height="329.8"/>
				</defs>
				<clipPath id="SVGID_2_">
					<use xlink:href="#SVGID_1_"  style="overflow:visible;"/>
				</clipPath>
				<g class="st3">
					<rect x="393.7" y="88.5" class="st4" width="544.4" height="329.4"/>
					
						<linearGradient id="SVGID_3_" gradientUnits="userSpaceOnUse" x1="-3173.6787" y1="-2985.9109" x2="-2628.2788" y2="-2985.9109" gradientTransform="matrix(-1 0 0 -1 -2235.2788 -2732.761)">
						<stop  offset="0.6092" style="stop-color:#3A2A78"/>
						<stop  offset="1" style="stop-color:#000000"/>
					</linearGradient>
					<rect x="393" y="87.5" class="st5" width="545.4" height="331.3"/>
					<g class="st6">
						<path class="st7" d="M666,512.5c-146.4-0.3-264.9-119.3-264.5-265.7c0.1-49.4,14-97.8,40.2-139.7
							C519.1-17.1,682.6-55,806.8,22.5s162.1,241,84.6,365.2c-37.1,59.8-96.5,102.2-165.1,117.9C706.6,510.2,686.3,512.5,666,512.5z
							 M667-14.8c-20.1,0-40.1,2.3-59.6,6.9c-141,32.7-228.8,173.4-196.2,314.4c32.7,141,173.4,228.8,314.4,196.2
							C793.3,487,852,445.1,888.8,386.1l1.3,0.8l-1.3-0.8c76.6-122.9,39-284.6-83.9-361.2C763.6-0.9,715.8-14.6,667-14.8L667-14.8z"
							/>
					</g>
					<g class="st6">
						<path class="st7" d="M637.1,494.6c-36.4-4.3-71.3-16.6-102.3-36c-8.9-5.6-17.5-11.7-25.6-18.3l1.9-2.3
							c8,6.5,16.5,12.6,25.3,18.1c30.6,19.2,65.2,31.4,101.1,35.6L637.1,494.6z M774.2,471.8l-1.3-2.7
							c42.1-20.2,77.6-51.9,102.3-91.6l2.5,1.6C852.7,419.3,816.8,451.4,774.2,471.8L774.2,471.8z M885.2,366.2l-2.6-1.4
							c19.6-36,29.8-76.2,29.9-117.2c0-5.6-0.2-11.3-0.6-16.9l3-0.2c0.4,5.7,0.6,11.4,0.6,17.1C915.4,289.1,905,329.8,885.2,366.2z
							 M430.3,325.9c-14.9-44.8-16.8-93-5.3-138.9l2.9,0.7c-11.3,45.3-9.5,92.9,5.3,137.2L430.3,325.9z M864.8,101.7
							c-18.5-25.1-41.6-46.5-68-63c-13-8.1-26.7-15-40.9-20.5l1.1-2.8c14.4,5.6,28.3,12.6,41.4,20.8c26.8,16.7,50.2,38.3,68.9,63.8
							L864.8,101.7z M497.1,69.1l-2.1-2.2c34.2-32.6,77.1-54.7,123.5-63.8l0.6,2.9C573.2,15.1,530.9,36.9,497.1,69.1z"/>
					</g>
					<g class="st6">
						<path class="st7" d="M666.5,481.8c-2.6,0-5.3,0-7.9-0.1l0.1-3c6.5,0.2,13.3,0.2,19.9-0.2l0.2,3
							C674.7,481.7,670.6,481.8,666.5,481.8z M638.6,480.2c-6.6-0.8-13.3-1.9-19.9-3.2l0.6-2.9c6.4,1.3,13,2.4,19.6,3.2L638.6,480.2
							z M698.8,479.6l-0.4-3c6.5-0.9,13.1-2.1,19.5-3.5l0.7,2.9C712.1,477.5,705.4,478.7,698.8,479.6L698.8,479.6z M599.2,472
							c-6.4-1.9-12.8-4.1-19-6.6l1.1-2.8c6.1,2.4,12.4,4.6,18.8,6.5L599.2,472z M738,470.8l-0.9-2.9c6.3-2,12.5-4.3,18.6-6.9
							l1.2,2.8C750.7,466.4,744.3,468.7,738,470.8L738,470.8z M561.8,457.2c-6-3-11.9-6.3-17.6-9.8l1.6-2.6
							c5.6,3.4,11.5,6.7,17.4,9.6L561.8,457.2z M775.1,455.3l-1.4-2.7c5.8-3.1,11.6-6.4,17.2-10l1.6,2.5
							C786.8,448.8,781,452.2,775.1,455.3L775.1,455.3z M527.6,436.2c-5.4-4-10.7-8.2-15.7-12.6l2-2.3c5,4.4,10.2,8.5,15.5,12.5
							L527.6,436.2z M808.9,433.7l-1.8-2.4c5.2-4,10.4-8.3,15.2-12.7l2,2.2C819.4,425.3,814.2,429.6,808.9,433.7L808.9,433.7z
							 M497.3,409.7c-4.6-4.8-9.1-9.9-13.3-15.1l2.3-1.9c4.1,5.1,8.6,10.1,13.1,14.9L497.3,409.7z M838.7,406.6l-2.2-2
							c4.5-4.8,8.8-9.9,12.9-15.1l2.4,1.8C847.6,396.5,843.2,401.7,838.7,406.6z M472.1,378.4c-3.7-5.5-7.3-11.3-10.5-17.1l2.6-1.5
							c3.2,5.8,6.7,11.5,10.4,16.9L472.1,378.4z M863.3,374.9l-2.5-1.6c3.6-5.5,7-11.3,10.1-17.1l2.6,1.4
							C870.4,363.4,867,369.2,863.3,374.9L863.3,374.9z M452.5,343.3c-2.7-6.1-5.2-12.4-7.4-18.7l2.8-1c2.2,6.2,4.6,12.4,7.3,18.4
							L452.5,343.3z M882.3,339.4l-2.8-1.2c2.6-6.1,4.9-12.3,7-18.6l2.8,0.9C887.3,326.9,884.9,333.2,882.3,339.4L882.3,339.4z
							 M439.3,305.4c-1.6-6.5-3-13.1-4.1-19.7l3-0.5c1.1,6.5,2.4,13.1,4.1,19.4L439.3,305.4z M894.8,301.2l-2.9-0.7
							c1.5-6.4,2.8-13,3.7-19.5l3,0.4C897.6,288,896.3,294.7,894.8,301.2L894.8,301.2z M432.8,265.7c-0.5-6.1-0.7-12.2-0.7-18.3
							c0-0.6,0-1.2,0-1.8h3c0,0.6,0,1.2,0,1.8c0,6,0.2,12.1,0.7,18.1L432.8,265.7z M900.6,261.4l-3-0.2c0.3-4.6,0.4-9.2,0.4-13.8
							c0-2,0-4-0.1-6l3-0.1c0.1,2,0.1,4.1,0.1,6.1C901,252,900.8,256.7,900.6,261.4L900.6,261.4z M436.1,225.8l-3-0.3
							c0.6-6.7,1.5-13.4,2.7-19.9l3,0.5C437.6,212.6,436.7,219.2,436.1,225.8L436.1,225.8z M896.6,221.5c-0.7-6.6-1.8-13.2-3-19.6
							l2.9-0.6c1.3,6.5,2.3,13.2,3.1,19.9L896.6,221.5z M443.1,186.7l-2.9-0.8c1.7-6.4,3.8-12.9,6.1-19.2l2.8,1
							C446.9,174,444.8,180.4,443.1,186.7L443.1,186.7z M888.8,182.6c-1.8-6.3-4-12.7-6.4-18.8l2.8-1.1c2.4,6.2,4.6,12.6,6.4,19.1
							L888.8,182.6z M456.7,149.5l-2.7-1.3c2.8-6,6-12.1,9.3-17.8l2.6,1.5C462.6,137.6,459.5,143.5,456.7,149.5z M874.5,145.6
							c-2.9-5.9-6.1-11.8-9.5-17.4l2.6-1.5c3.4,5.7,6.7,11.7,9.6,17.7L874.5,145.6z M476.6,115.1l-2.5-1.7c3.8-5.5,7.9-10.9,12.2-16
							l2.3,1.9C484.4,104.4,480.4,109.7,476.6,115.1L476.6,115.1z M854,111.6c-3.9-5.3-8-10.6-12.3-15.6l2.3-2
							c4.4,5.1,8.6,10.4,12.5,15.8L854,111.6z M502,84.6l-2.1-2.1c4.7-4.8,9.7-9.4,14.7-13.7l1.9,2.3
							C511.5,75.4,506.6,79.9,502,84.6z M828.1,81.6c-4.7-4.6-9.7-9.1-14.8-13.2l1.9-2.3c5.2,4.2,10.2,8.8,15,13.4L828.1,81.6z
							 M532.2,58.9l-1.7-2.4c5.4-3.9,11.1-7.6,16.9-11l1.5,2.6C543.2,51.4,537.6,55,532.2,58.9z M797.4,56.4
							c-5.4-3.7-11.1-7.3-16.8-10.5l1.5-2.6c5.8,3.3,11.5,6.9,17.1,10.7L797.4,56.4z M566.4,38.7l-1.3-2.7c6-2.9,12.2-5.6,18.5-7.9
							l1.1,2.8C578.4,33.2,572.3,35.8,566.4,38.7z M762.8,36.9c-6-2.8-12.2-5.3-18.4-7.5l1-2.8c6.3,2.2,12.6,4.8,18.6,7.6
							L762.8,36.9z M603.5,24.6l-0.8-2.9c6.4-1.8,13-3.4,19.6-4.6l0.6,2.9C616.3,21.3,609.8,22.8,603.5,24.6z M725.5,23.5
							c-6.4-1.7-12.9-3.1-19.4-4.2l0.5-3c6.6,1.1,13.2,2.6,19.7,4.3L725.5,23.5z M642.4,17.2l-0.3-3c6.6-0.7,13.4-1.1,20.1-1.2
							l0.1,3C655.6,16.1,649,16.5,642.4,17.2L642.4,17.2z M686.4,16.8c-6.6-0.6-13.2-0.8-19.8-0.8v-3c6.7,0,13.5,0.3,20.1,0.8
							L686.4,16.8z"/>
					</g>
					<path class="st7" d="M665.9,555.4c-143.1-0.4-267-99.2-299.4-238.5C328.2,151.2,431.4-14.2,597.1-52.6s331.1,64.8,369.5,230.5
						C1004.9,343.6,901.7,509,736,547.4C713,552.7,689.5,555.4,665.9,555.4z M667.1-59.6c-23.5,0-46.9,2.7-69.8,8
						c-165.1,38.2-268,203.1-229.7,368.3l0,0c38.3,165.1,203.1,268,368.3,229.7C815.2,528,884,478.9,927,409.9l0.4,0.3l-0.4-0.3
						c89.7-143.9,45.7-333.3-98.2-423C780.2-43.4,724.3-59.5,667.1-59.6L667.1-59.6z"/>
					<polygon class="st7" points="746.4,56.8 692.1,180.2 688.3,178.7 729.6,50.4 					"/>
					<polygon class="st7" points="872.9,227.5 808.4,230.4 807.9,227.6 870,209.7 					"/>
					<polygon class="st7" points="716.9,351.8 762.3,435 745.9,442.6 711.6,354.2 					"/>
					<polygon class="st7" points="535.1,331.3 494.8,358.6 487.3,342.3 534.1,329.3 					"/>
					<path class="st7" d="M681.9,459.3l-0.8-12c48.3-3.2,93.7-23.9,127.9-58.1l8.5,8.5C781.2,434,733,455.9,681.9,459.3z"/>
					<path class="st7" d="M877.2,279.6l-11.9-1.8c5.2-34.6,1.3-70-11.4-102.6l11.2-4.4C878.5,205.5,882.7,243,877.2,279.6z"/>
					<path class="st7" d="M785.8,86.6c-23.7-17.5-51.1-29.4-80-35l2.3-11.8c30.7,5.9,59.7,18.6,84.8,37.1L785.8,86.6z"/>
					<path class="st7" d="M517.8,397.7c-26.7-26.6-45.7-59.9-55.3-96.4l11.6-3c9,34.4,27,65.8,52.1,90.9L517.8,397.7z"/>
					<polygon class="st7" points="557.5,160.1 504.1,125 515.8,111.3 559,158.4 					"/>
					<path class="st7" d="M555.7,176.4c-5-6.4-4-15.7,2.4-20.7c4.9-3.8,11.6-4.2,16.9-1l-2.2,3.6c-5-3-11.5-1.5-14.5,3.5
						c-2.3,3.8-2,8.6,0.7,12.1L555.7,176.4z"/>
					<path class="st7" d="M699.3,195.1l-4.1-0.9c1.2-5.7-2.4-11.3-8.1-12.6c-4.3-0.9-8.8,0.9-11.2,4.6l-3.5-2.3
						c4.4-6.9,13.5-8.9,20.4-4.5C698.1,182.8,700.6,189,699.3,195.1L699.3,195.1z"/>
					<path class="st7" d="M800.6,243.7l-1.6-3.9c5.4-2.3,7.9-8.5,5.6-13.8c-1.7-4.1-5.8-6.6-10.2-6.4l-0.2-4.2
						c8.1-0.4,15,5.9,15.4,14C809.8,235.6,806.2,241.3,800.6,243.7L800.6,243.7z"/>
					<path class="st7" d="M708.7,355.1c-5.2,0-9.9-2.7-12.6-7.1l3.6-2.2c3,5,9.5,6.6,14.5,3.5c3.8-2.3,5.7-6.7,4.9-11l4.1-0.8
						c1.6,8-3.7,15.7-11.7,17.3C710.6,355,709.6,355.1,708.7,355.1L708.7,355.1z"/>
					<path class="st7" d="M544.8,340.1c-8.1,0-14.7-6.6-14.7-14.8c0-4.9,2.5-9.5,6.5-12.2l2.3,3.5c-4.8,3.2-6.1,9.8-2.9,14.6
						c2.5,3.7,7,5.4,11.3,4.4l1,4.1C547.2,339.9,546,340.1,544.8,340.1z"/>
					<path class="st7" d="M485.9,164.7l-10.9-5c15.7-34.3,40.2-63.8,71.1-85.4l6.9,9.8C523.8,104.5,500.7,132.3,485.9,164.7z"/>
					<circle class="st8" cx="669.6" cy="229.1" r="11"/>
					<circle class="st8" cx="669.6" cy="301" r="11"/>
					<circle class="st8" cx="735.4" cy="229.1" r="11"/>
					<circle class="st8" cx="735.4" cy="301" r="11"/>
					<circle class="st8" cx="589.5" cy="330" r="11"/>
					<circle class="st8" cx="589.5" cy="265" r="11"/>
					<circle class="st8" cx="589.5" cy="200.1" r="11"/>
					<polygon class="st8" points="597.9,332.4 657.8,228.6 659.5,229.6 603,327.6 658.2,300.1 659.1,301.9 					"/>
					<polygon class="st8" points="724.4,302 678.9,302 723.6,228.5 725.3,229.6 682.4,300 724.4,300 					"/>
					<path class="st8" d="M661.5,304l-62.9-39l28.2-17.4L598,197.7l62.8,31.3l-31.3,19.3L661.5,304z M602.4,265l53.4,33l-28.1-48.7
						L602.4,265z M603,202.4l25.4,44.1l28.2-17.4L603,202.4z"/>
					<polygon class="st8" points="723.6,301.5 678.9,228.1 724.4,228.1 724.4,230.1 682.4,230.1 725.3,300.5 					"/>
				</g>
			</g>
		</g>
		<path class="st9" d="M939.2,419.3H392.7V87.5h546.4L939.2,419.3L939.2,419.3z M394.7,417.3h542.4V89.5H394.7V417.3z"/>
		<polygon class="st10" points="673.3,484.4 671.3,484.4 671.3,465.8 671.5,465.5 718.1,417.1 719.5,418.5 673.3,466.6 		"/>
		<polygon class="st10" points="660.2,484.4 658.2,484.4 658.2,465.8 658.5,465.6 703.9,417.1 705.3,418.5 660.2,466.6 		"/>
		<polygon class="st10" points="647.5,484.4 645.5,484.4 645.5,465.9 690.5,417.1 691.9,418.5 647.5,466.6 		"/>
		<rect x="338.4" y="229.5" class="st9" width="55.3" height="2"/>
		<rect x="338.4" y="246.4" class="st9" width="55.3" height="2"/>
		<rect x="338.4" y="263.3" class="st9" width="55.3" height="2"/>
		<rect x="338.4" y="280.2" class="st9" width="55.3" height="2"/>
		<rect x="938.2" y="229.5" class="st9" width="58.6" height="2"/>
		<rect x="938.2" y="246.4" class="st9" width="58.6" height="2"/>
		<rect x="938.2" y="263.3" class="st9" width="58.6" height="2"/>
		<rect x="938.2" y="280.2" class="st9" width="58.6" height="2"/>
		<rect x="1542" y="229.5" class="st9" width="58.6" height="2"/>
		<rect x="1542" y="246.4" class="st9" width="58.6" height="2"/>
		<rect x="1542" y="263.3" class="st9" width="58.6" height="2"/>
		<rect x="1542" y="280.2" class="st9" width="58.6" height="2"/>
		<rect x="1729.3" y="317.4" class="st9" width="2" height="56"/>
		<polygon class="st4" points="1778.5,332 1681.9,306.6 1681.9,267.2 1778.5,292.7 		"/>
		<path class="st4" d="M1779.5,333.3l-98.6-26v-41.4l98.6,26V333.3z M1682.9,305.8l94.6,24.9v-37.3l-94.6-24.9V305.8z"/>
		<path class="st10" d="M1777.9,428.5l-97.3-30.4l1.9-41.4l97.3,30.4L1777.9,428.5z M1682.7,396.7l93.4,29.2l1.7-37.3l-93.4-29.2
			L1682.7,396.7z"/>
		<path class="st11" d="M1780,233.6l-13-2.2l0.3-2l10.6,1.8l-0.2-8.7h2L1780,233.6z M1755.1,229.4l-11.8-2l0.3-2l11.8,2
			L1755.1,229.4z M1731.5,225.5l-11.8-2l0.3-2l11.8,2L1731.5,225.5z M1707.8,221.5l-11.8-2l0.3-2l11.8,2L1707.8,221.5z
			 M1684.1,217.5l-3.4-0.6v-10.2h2v8.6l1.7,0.3L1684.1,217.5z M1777.5,210.5l-0.3-12h2l0.3,12H1777.5z M1680.7,194.7v-12h2v12
			H1680.7z M1771.6,192.9l-11.9-1.8l0.3-2l11.9,1.8L1771.6,192.9z M1747.9,189.2l-11.9-1.8l0.3-2l11.9,1.8L1747.9,189.2z
			 M1724.2,185.5l-11.9-1.8l0.3-2l11.9,1.8L1724.2,185.5z M1700.5,181.9l-11.9-1.8l0.3-2l11.9,1.8L1700.5,181.9z"/>
		<rect x="1729.3" y="223.9" class="st9" width="2" height="56"/>
		<rect x="1888.9" y="249.7" class="st9" width="2" height="72.3"/>
		
			<rect x="1809" y="288.1" transform="matrix(0.2548 -0.967 0.967 0.2548 1038.7487 1989.2628)" class="st9" width="2" height="65.2"/>
		<path class="st10" d="M735,624.8H586.8V483.4H735V624.8z M588.8,622.8H733V485.4H588.8V622.8z"/>
		<rect x="601.2" y="496.3" class="st10" width="118.7" height="115.7"/>
		<rect x="635.1" y="511.4" class="st2" width="1" height="84.3"/>
		<rect x="647.4" y="511.4" class="st2" width="1" height="84.3"/>
		<rect x="659.6" y="511.4" class="st2" width="1" height="84.3"/>
		<rect x="671.9" y="511.4" class="st2" width="1" height="84.3"/>
		<rect x="684.1" y="511.4" class="st2" width="1" height="84.3"/>
		<rect x="696.3" y="511.4" class="st2" width="1" height="84.3"/>
		<rect x="630" y="576.6" class="st2" width="11.3" height="3.4"/>
		<rect x="642.2" y="551.4" class="st2" width="11.3" height="3.4"/>
		<rect x="622.9" y="511.4" class="st2" width="1" height="84.3"/>
		<rect x="617.8" y="522.7" class="st2" width="11.3" height="3.4"/>
		<rect x="654.5" y="570" class="st2" width="11.3" height="3.4"/>
		<rect x="666.7" y="521" class="st2" width="11.3" height="3.4"/>
		<rect x="679" y="549.9" class="st2" width="11.3" height="3.4"/>
		<rect x="696.8" y="554.3" class="st2" width="23" height="1"/>
		<path class="st12" d="M704.1,539.2c0,0-0.2,1.1-5.1,0.7s-14.4-5-14.4-5l4.4-8.6c-1.9-0.9-3.9-1.7-5.9-2.3
			c-3.2-0.9-3.7-0.8-5.8-1.7c-1-0.5-0.1-1.9,1.9-1.9c10.6-0.4,18.6,2.7,26.7,8.7c0.7,0.5,1.4,1.1,2.1,1.6c0.9,0.7,1.7,1.4,2.5,2.2"
			/>
		<path class="st4" d="M700.9,540.6c-0.6,0-1.2,0-2-0.1c-5-0.4-14.2-4.8-14.6-5l-0.6-0.3l4.4-8.6c-1.7-0.8-3.4-1.5-5.2-2
			c-1.1-0.3-1.8-0.5-2.4-0.6c-1.2-0.2-2.3-0.6-3.4-1.1c-0.6-0.2-0.9-0.8-0.8-1.4c0.2-0.8,1.2-1.7,2.9-1.8
			c10.1-0.4,18.2,2.2,27.1,8.8c0.7,0.5,1.5,1.1,2.1,1.6c0.9,0.7,1.7,1.5,2.5,2.3l-0.9,0.9c-0.8-0.8-1.6-1.5-2.4-2.2
			c-0.7-0.5-1.4-1.1-2.1-1.6c-8.7-6.4-16.6-8.9-26.4-8.5c-1.2,0-1.7,0.6-1.7,0.7c1,0.4,2.1,0.8,3.2,1c0.6,0.2,1.4,0.3,2.5,0.6
			c2.1,0.6,4.1,1.4,6,2.3l0.6,0.3l-4.4,8.6c2.1,1,9.5,4.3,13.6,4.6c3.8,0.3,4.5-0.4,4.5-0.4s-0.1,0.1-0.1,0.2l1.3,0.2
			C704.7,539.8,704,540.6,700.9,540.6z"/>
		<path class="st13" d="M837.2,500.3c0,0,51.3,43.2,56.6,55s-4.6,68.5-4.6,68.5l-14.7,15.5c0,0,1.8-56.3-0.5-64.1
			s-32.1-16.1-39.7-28.9s3.2-18.3,1.5-27.4"/>
		<path class="st4" d="M873.8,640.8l0.1-1.7c0-0.6,1.7-56.3-0.4-63.9c-1-3.4-8.1-7.2-15.7-11.2c-9.3-4.9-19.8-10.6-24-17.6
			c-4.8-8.1-2.5-13.5-0.5-18.2c1.3-3.1,2.5-6,1.9-9.4l1.2-0.2c0.7,3.8-0.7,7-2,10.1c-2,4.7-4,9.6,0.4,17.1
			c4,6.7,14.4,12.3,23.5,17.1c8.1,4.3,15.2,8.1,16.3,11.9c2.1,7.1,0.8,53.1,0.5,62.6l13.5-14.1c0.6-3.6,9.7-56.8,4.6-67.9
			c-5.2-11.5-55.9-54.3-56.5-54.7l0.8-1c2.1,1.8,51.5,43.5,56.8,55.2c5.3,11.8-4.2,66.5-4.6,68.8v0.2L873.8,640.8z"/>
		<rect x="758" y="991.8" class="st4" width="70.8" height="1.2"/>
		<rect x="908.2" y="991" class="st4" width="86.6" height="1.2"/>
		<rect x="847.9" y="991" class="st4" width="22.4" height="1.2"/>
		<polygon class="st12" points="782.2,972 784.4,958.8 802.3,958.8 799.9,974.3 792.4,979.5 785.3,979.5 783.1,974.1 		"/>
		<path class="st4" d="M792.6,980.1h-7.7l-2.3-5.8l-1-2.2l2.4-13.9h19.2l-2.6,16.5L792.6,980.1z M785.7,978.8h6.5l7.1-4.9l2.3-14.5
			H785l-2.1,12.5l0.9,1.9L785.7,978.8z"/>
		<path class="st4" d="M782.1,972.5c0,0-12.5,6.4-20.7,8.7s-7,6.4-7,6.4v4.8h47v-5.7l-0.5-14.5L782.1,972.5z"/>
		<path class="st4" d="M801.4,992.9h-47c-0.2,0-0.4-0.2-0.4-0.4l0,0v-4.8c-0.2-0.9,0-1.8,0.4-2.6c1-1.8,3.3-3.3,6.8-4.3
			c8.1-2.3,20.5-8.6,20.6-8.7c0.1,0,0.1,0,0.2,0l18.8-0.3l0,0c0.2,0,0.4,0.2,0.4,0.4l0.5,14.5v5.8
			C801.8,992.7,801.6,992.9,801.4,992.9z M754.8,992H801v-5.3l-0.5-14.1l-18.3,0.3c-1.1,0.6-12.9,6.5-20.7,8.7
			c-4.1,1.1-5.7,2.7-6.3,3.8c-0.4,0.6-0.5,1.4-0.4,2.1v0.1V992z"/>
		<rect x="754.4" y="986.7" class="st14" width="47" height="5.7"/>
		<path class="st4" d="M802,993.1h-48.3v-7H802V993.1z M755,991.8h45.8v-4.5H755V991.8z"/>
		<polygon class="st4" points="801.4,962.3 801.4,966.1 782.8,963.4 		"/>
		<path class="st4" d="M801.4,966.5C801.4,966.5,801.3,966.5,801.4,966.5l-18.6-2.6c-0.2,0-0.4-0.2-0.4-0.5c0-0.2,0.2-0.3,0.4-0.4
			l18.5-1.1c0.1,0,0.2,0,0.3,0.1s0.1,0.2,0.1,0.3v3.7C801.8,966.3,801.6,966.5,801.4,966.5L801.4,966.5z M787,963.6l14,2v-2.8
			L787,963.6z"/>
		<polygon class="st12" points="916.8,971.2 916.4,958 934.3,958 934.5,973.5 927,978.7 919.9,978.7 917.8,973.3 		"/>
		<path class="st4" d="M927.2,979.3h-7.7l-2.3-5.8l-1-2.3l-0.4-13.8H935l0.2,16.5L927.2,979.3z M920.3,978h6.5l7.1-4.8l-0.2-14.5
			h-16.6l0.4,12.4l0.9,2L920.3,978z"/>
		<path class="st4" d="M916.7,971.7c-3.3,4.2-7.8,7.2-12.9,8.7c-8.3,2.3-7,6.4-7,6.4v4.8h41v-5.7l-2.3-14.5L916.7,971.7z"/>
		<path class="st4" d="M937.8,992.1h-41c-0.2,0-0.4-0.2-0.4-0.4v-4.8c-0.2-0.9,0-1.8,0.4-2.6c1-1.8,3.3-3.3,6.8-4.3
			c5-1.5,9.4-4.5,12.7-8.5c0.1-0.1,0.2-0.2,0.3-0.2l18.8-0.3c0.2,0,0.4,0.1,0.4,0.3l2.3,14.5v5.8C938.2,991.9,938,992.1,937.8,992.1
			z M897.2,991.2h40.1v-5.3l-2.2-14.1l-18.3,0.3c-3.3,4.2-7.9,7.2-13,8.7c-4.1,1.1-5.7,2.7-6.3,3.8c-0.4,0.6-0.5,1.4-0.4,2.1v0.1
			L897.2,991.2z"/>
		<rect x="896.8" y="985.9" class="st14" width="41" height="5.7"/>
		<path class="st4" d="M938.4,992.3h-42.2v-7h42.2V992.3z M897.5,991h39.7v-4.5h-39.7V991z"/>
		<polygon class="st4" points="934.5,961.5 934.5,965.2 917.5,962.6 		"/>
		<path class="st4" d="M934.5,965.7L934.5,965.7l-17.1-2.6c-0.2,0-0.4-0.2-0.3-0.5c0-0.2,0.2-0.3,0.4-0.3l17-1.1
			c0.1,0,0.2,0,0.3,0.1s0.1,0.2,0.1,0.3v3.7C934.9,965.5,934.7,965.7,934.5,965.7L934.5,965.7z M921.3,962.8l12.8,2V962L921.3,962.8
			z"/>
		<path class="st12" d="M844.9,707.1l24.7,116l36,139.4H948c0,0,5.2-44-4.2-80s-21.3-66.4-25-91.3c-6-40.4-16.8-122.4-16.8-122.4
			c0.3-5.8,0.4-11.6,0.1-17.5c-0.5-9.5-1.8-11.1-1.8-11.1l-105.1,6.2"/>
		<path class="st4" d="M948.6,963.1h-43.4L869,823.2l-24.7-116l1.2-0.3l24.7,116l35.9,138.9h41.3c0.5-5.2,4.4-45.9-4.2-79.3
			c-3.7-14.4-7.8-27.7-11.8-40.5c-5.9-19.3-11-35.9-13.3-50.9c-6-40-16.7-121.6-16.8-122.5v-0.1v-0.1c0.3-5.8,0.4-11.6,0.1-17.4
			c-0.3-7.2-1.2-9.7-1.5-10.5l-104.7,6.2l-0.1-1.3l105.4-6.2l0.2,0.3c0.1,0.2,1.4,2.1,1.9,11.5c0.3,5.8,0.2,11.7-0.1,17.5
			c0.3,2.7,10.9,82.9,16.7,122.4c2.2,14.9,7.3,31.5,13.2,50.7c4,12.9,8.1,26.2,11.8,40.6c9.3,35.8,4.2,79.8,4.2,80.3L948.6,963.1z"
			/>
		<path class="st12" d="M846.3,710.4c0,0-27.1,77.1-28.7,96.3c-0.8,8.9,4.8,55.8,3.8,89.5c-1.3,39.4-9.1,65.7-9.1,65.7l-40.9,0.7
			c0,0-10.2-139.4-10.2-160.5s30-156,30-156h44.2"/>
		<path class="st4" d="M770.7,963.3v-0.6c-0.1-1.4-10.2-139.7-10.2-160.5c0-20.9,28.8-150.6,30-156.1l0.1-0.5h44.7v1.3h-43.7
			c-2,9-29.9,135.2-29.9,155.3S771.1,952,771.9,962l39.8-0.7c1-3.6,7.8-29,9-65.1c0.7-20.6-1.2-46.3-2.5-65
			c-0.8-11.8-1.5-21.1-1.2-24.6c1.6-19.1,27.7-93.3,28.8-96.5l1.2,0.4c-0.3,0.8-27.1,77.2-28.7,96.2c-0.3,3.4,0.4,12.7,1.2,24.4
			c1.3,18.7,3.2,44.4,2.5,65.1c-1.2,39.1-9.1,65.6-9.1,65.9l-0.1,0.4h-0.5L770.7,963.3z"/>
		<line class="st15" x1="869.6" y1="691" x2="846" y2="710.9"/>
		
			<rect x="842.3" y="700.3" transform="matrix(0.7653 -0.6437 0.6437 0.7653 -249.8624 716.6533)" class="st4" width="30.9" height="1.3"/>
		<polygon class="st4" points="900.4,640 901.6,644.9 902.1,650.1 789.9,652.7 791.1,646.2 		"/>
		<path class="st4" d="M789.9,653.3c-0.3,0-0.6-0.3-0.6-0.6v-0.1l1.2-6.5c0.1-0.3,0.3-0.5,0.6-0.5l109.3-6.2c0.3,0,0.6,0.2,0.6,0.5
			l1.2,4.9l0.5,5.3c0,0.3-0.2,0.6-0.6,0.7l0,0L789.9,653.3L789.9,653.3z M791.6,646.8l-1,5.3l110.8-2.6L901,645l-1.1-4.3
			L791.6,646.8z"/>
		<path class="st12" d="M799.8,476.8l2,20.5c0,0,4.5,5.3,12.8,1.7s9.2-7.3,9.2-7.3c-2.6-2.4-5-4.9-7.3-7.5c-4-5.1-4.1-9-3.2-12.2"/>
		<path class="st4" d="M809.1,500.9c-2.9,0-5.7-1.1-7.8-3.2l-0.1-0.2v-0.2l-2-20.5l1.3-0.1l2,20.3c0.8,0.8,4.8,4.5,11.9,1.4
			c6.4-2.8,8.3-5.6,8.7-6.5c-2.5-2.3-4.9-4.7-7.1-7.3c-3.5-4.5-4.6-8.5-3.3-12.7l1.2,0.4c-0.7,2.4-1.1,6.2,3.1,11.6
			c2.3,2.6,4.7,5.1,7.3,7.5l0.3,0.3l-0.1,0.4c0,0.2-1.1,4-9.6,7.7C813,500.4,811.1,500.9,809.1,500.9z"/>
		<path class="st12" d="M806,450.9c5.6,1.5,9.8,6.1,10.9,11.8c6.8-3.4-1.4,10-1.5,10.1v-0.2c-3.9,7.4-13.1,10.3-20.5,6.4
			s-10.3-13.1-6.4-20.5C791.9,452.2,799.1,449,806,450.9L806,450.9z"/>
		<path class="st4" d="M801.9,481.4c-8.7,0-15.8-7.1-15.8-15.9s7.1-15.8,15.9-15.8c1.4,0,2.8,0.2,4.1,0.6l0,0
			c5.5,1.5,9.8,5.9,11.2,11.5c0.8-0.4,1.7-0.4,2.5,0.2c0.6,0.6,0.9,1.9-1.3,6.5c-1.2,2.5-2.5,4.7-2.6,4.7l-1.5,2.3v-0.2
			C811.5,479.1,806.9,481.4,801.9,481.4z M802,451c-8,0-14.5,6.5-14.5,14.6c0,6.5,4.4,12.3,10.7,14c6.6,1.8,13.5-1.2,16.7-7.3l1.6-3
			l-0.1,0.5c1.7-3.2,3-6.5,2.5-7c-0.1-0.1-0.5-0.1-1.7,0.4l-0.7,0.4l-0.2-0.8c-1-5.4-5.1-9.8-10.4-11.3l0,0
			C804.6,451.2,803.3,451,802,451z"/>
		<path class="st4" d="M813.8,476c0,0-0.6,10.6-12.6,11.5c-0.1,0-0.5,0-0.7,0l-0.3-6.8c0,0,6.6-0.8,8.8-2.5
			C810.4,477.2,812.1,476.5,813.8,476z"/>
		<path class="st13" d="M823.8,491.8c0,0,1.1,1.7-6.2,4.5s-16.2-2.8-16.2-2.8s-6.6,4.4-10.8,15c-4.2,10.6-6.7,23.8-7.4,45
			c-0.4,12.9,3.3,38.2,3.5,61.5c0.1,15-3.4,33.4-3.4,33.4l123.9-8.3c0,0-14.7-41.1-35.1-89.5S823.8,491.8,823.8,491.8z"/>
		<path class="st4" d="M782.5,649l0.2-0.8c0-0.2,3.5-18.5,3.4-33.2c-0.1-12.2-1.1-25-2.1-36.2c-0.9-10.3-1.6-19.2-1.4-25.4
			c0.6-20,2.9-33.9,7.4-45.2c4.2-10.6,10.7-15.1,11-15.2l0.3-0.2l0.3,0.2c0.1,0.1,8.7,5.4,15.6,2.7c5.4-2.1,5.8-3.4,5.9-3.6l-1-1.5
			l1.8,0.7c0.3,0.1,28.4,10.9,48.7,59.1c20.2,47.9,35,89.2,35.1,89.6l0.3,0.8l-0.8,0.1L782.5,649z M801.4,494.2
			c-1.3,1-6.7,5.5-10.2,14.4c-4.4,11.2-6.7,25-7.3,44.8c-0.2,6.1,0.5,15,1.4,25.2c0.9,11.3,2,24,2.1,36.3c0.1,13.1-2.6,29-3.3,32.7
			l122.3-8.2c-2.1-5.9-16.2-44.5-34.8-88.7c-18.2-43.2-42.6-56-47.2-58.1c-0.6,1.3-2.8,2.7-6.5,4.2
			C811.1,499.5,803.3,495.3,801.4,494.2L801.4,494.2z"/>
		<path class="st13" d="M788,516.2c0,0-10.4,48.8-14.8,50.5S706.6,528,706.6,528l-2.8,13.2c0,0,61,69.9,82.7,62.9
			c18.4-5.9,37.9-50.8,41.2-83.2"/>
		<path class="st4" d="M783.1,605.3c-9.7,0-25.3-9.9-46.5-29.5c-17.8-16.4-33.1-34-33.2-34.1l-0.2-0.2l3.1-14.4l0.8,0.5
			c23.8,15.5,62.8,39.7,66,38.6c1.6-0.6,6.9-14.8,14.5-50l1.2,0.3c0,0.1-2.6,12.3-5.8,24.6c-6.4,25.1-8.6,26-9.5,26.3
			C769,569,719,536.8,707,529.1l-2.6,11.9c4,4.5,61.4,69.1,81.8,62.5c18.1-5.8,37.5-50.3,40.7-82.7l1.3,0.1
			c-3.3,32.7-23.1,77.8-41.6,83.8C785.5,605.1,784.3,605.3,783.1,605.3z"/>
		<path class="st4" d="M815.2,480.6c7.2-0.5,13.6-7,13.6-7s0.3-1.4-2.1-3.2c-4.9-3.6,3.3-17.2-9.4-24.6c-6.2-3.6-9.3-3.4-12.8-4.8
			s-6.9-6.1-11-2.5c-6.9,5.9-7.8,22.8,1.2,32.7S808,481.1,815.2,480.6z"/>
		<path class="st12" d="M790.6,465.5c5.1-5.6,9.2,0.2,7.8,4.5c-0.5,1.6-1.5,2.9-2.8,3.9"/>
		<path class="st4" d="M796,474.4l-0.8-1c1.2-0.9,2.1-2.2,2.6-3.6c0.7-2.1-0.1-4.7-1.7-5.6c-1.4-0.8-3.2-0.2-5,1.8l-0.9-0.9
			c3.1-3.4,5.6-2.5,6.6-2c2.1,1.2,3.2,4.4,2.3,7.1C798.4,471.9,797.4,473.4,796,474.4z"/>
		<path class="st12" d="M805,654.8c0,0,3.4,12.9,18.9,10.3"/>
		<path class="st4" d="M819.9,666.1c-7.1,0.2-13.4-4.3-15.5-11.1l1.2-0.3c0.1,0.5,3.5,12.3,18.2,9.8l0.2,1.2
			C822.6,665.9,821.2,666.1,819.9,666.1z"/>
		<rect x="997.6" y="88.5" class="st4" width="544.4" height="329.8"/>
		
			<linearGradient id="SVGID_4_" gradientUnits="userSpaceOnUse" x1="-3777.4788" y1="-2985.9109" x2="-3232.0789" y2="-2985.9109" gradientTransform="matrix(-1 0 0 -1 -2235.2788 -2732.761)">
			<stop  offset="0.6092" style="stop-color:#3A2A78"/>
			<stop  offset="1" style="stop-color:#000000"/>
		</linearGradient>
		<rect x="996.8" y="87.5" class="st16" width="545.4" height="331.3"/>
		<path class="st1" d="M1441.7,248.6c-0.1-5.8-0.7-11.6-1.7-17.3l7.9-1.4c1,6.1,1.6,12.3,1.8,18.4L1441.7,248.6z M1204.6,245.1
			l-8-0.4c1.7-31.1,14.8-60.5,36.7-82.5l5.7,5.6C1218.5,188.5,1206.2,216,1204.6,245.1L1204.6,245.1z M1396.8,158.6
			c-20.9-16.7-46.9-25.8-73.7-25.7c-2.3,0-4.6,0.1-6.9,0.2l-0.5-8c2.4-0.1,4.9-0.2,7.4-0.2c28.6-0.1,56.4,9.6,78.7,27.4
			L1396.8,158.6z"/>
		<path class="st1" d="M1311.8,377.7c-31-2.8-59.9-16.9-81.2-39.6l5.8-5.5c19.9,21.3,47,34.5,76,37.1L1311.8,377.7z M1398.7,353.2
			l-4.8-6.4c23.4-17.4,39.6-42.8,45.4-71.4l7.8,1.6C1441,307.5,1423.7,334.7,1398.7,353.2z"/>
		<path class="st1" d="M1191.2,248.5l-3-0.1c1.4-61.3,44.1-114,103.8-128.2l0.7,2.9C1234.2,137.1,1192.6,188.6,1191.2,248.5z"/>
		<path class="st1" d="M1329.1,386.4l-0.1-3c59.9-2.7,110.5-45.4,123.2-104.1l2.9,0.6C1442.1,340,1390.4,383.7,1329.1,386.4
			L1329.1,386.4z"/>
		<g class="st6">
			<path class="st1" d="M1377,374l-4.4-10.1c35.7-15.8,61.7-47.5,70.3-85.5l10.7,2.4C1444.3,322.3,1415.8,356.9,1377,374z
				 M1256.5,367.6c-36.8-21.2-61.4-58.6-66.3-100.8l10.9-1.2c4.5,38.7,27.1,73,60.8,92.5L1256.5,367.6z M1445.8,248.3
				c-0.4-17.4-4.6-34.4-12.1-50l9.9-4.8c8.3,17,12.8,35.6,13.2,54.5L1445.8,248.3z M1239.5,161.8l-7.5-8
				c24.7-23.1,57.3-35.9,91.1-35.9c8.3,0,16.6,0.8,24.7,2.3l-2,10.8c-7.5-1.4-15.1-2.1-22.7-2.1
				C1292.1,128.8,1262.2,140.6,1239.5,161.8z"/>
		</g>
		
			<rect x="1289.8" y="135.4" transform="matrix(0.9289 -0.3703 0.3703 0.9289 27.0124 490.8389)" class="st1" width="4.2" height="79.3"/>
		<polygon class="st1" points="1305.8,219.9 1301.8,218.5 1305.4,209.2 1313.5,212.2 1312,216.1 1307.8,214.6 		"/>
		<g>
			<g>
				<defs>
					<line id="SVGID_5_" x1="1277.2" y1="138.2" x2="1286.4" y2="161.2"/>
				</defs>
				<clipPath id="SVGID_6_">
					<use xlink:href="#SVGID_5_"  style="overflow:visible;"/>
				</clipPath>
				<g class="st17">
					<rect x="1277.2" y="138.2" class="st18" width="6.9" height="23"/>
					<rect x="1284.1" y="138.2" class="st18" width="2.2" height="23"/>
					<rect x="1286.4" y="138.2" class="st18" width="0" height="23"/>
				</g>
			</g>
		</g>
		
			<rect x="1276.9" y="137.3" transform="matrix(0.9289 -0.3703 0.3703 0.9289 35.7125 485.2776)" class="st1" width="9.8" height="24.7"/>
		<g>
			<g>
				<defs>
					<line id="SVGID_7_" x1="1277.2" y1="138.2" x2="1279.3" y2="143.5"/>
				</defs>
				<clipPath id="SVGID_8_">
					<use xlink:href="#SVGID_7_"  style="overflow:visible;"/>
				</clipPath>
				<g class="st19">
					<rect x="1277.2" y="138.2" class="st18" width="1.6" height="5.3"/>
					<rect x="1278.8" y="138.2" class="st18" width="0.5" height="5.3"/>
					<rect x="1279.3" y="138.2" class="st18" width="0" height="5.3"/>
				</g>
			</g>
		</g>
		
			<rect x="1274.7" y="138" transform="matrix(0.9289 -0.3703 0.3703 0.9289 38.7275 483.3597)" class="st1" width="7.2" height="5.7"/>
		
			<rect x="1366.1" y="166.7" transform="matrix(0.5949 -0.8038 0.8038 0.5949 425.4745 1181.799)" class="st1" width="38.3" height="4.2"/>
		<polygon class="st1" points="1372.2,188.6 1372,186.5 1370,186.7 1369.6,182.5 1375.7,182 1376.3,188.2 		"/>
		<g>
			<g>
				<defs>
					<line id="SVGID_9_" x1="1396.7" y1="153.4" x2="1389.4" y2="163.2"/>
				</defs>
				<clipPath id="SVGID_10_">
					<use xlink:href="#SVGID_9_"  style="overflow:visible;"/>
				</clipPath>
				<g class="st20">
					<rect x="1389.4" y="153.4" class="st18" width="5.5" height="9.8"/>
					<rect x="1394.9" y="153.4" class="st18" width="1.8" height="9.8"/>
					<rect x="1396.6" y="153.4" class="st18" width="0" height="9.8"/>
				</g>
			</g>
		</g>
		
			<rect x="1387.1" y="153.3" transform="matrix(0.595 -0.8038 0.8038 0.595 437.0933 1183.8024)" class="st1" width="12.1" height="9.8"/>
		<g>
			<g>
				<defs>
					<line id="SVGID_11_" x1="1396.7" y1="153.4" x2="1393.4" y2="157.8"/>
				</defs>
				<clipPath id="SVGID_12_">
					<use xlink:href="#SVGID_11_"  style="overflow:visible;"/>
				</clipPath>
				<g class="st21">
					<rect x="1393.4" y="153.4" class="st18" width="2.4" height="4.4"/>
					<rect x="1395.9" y="153.4" class="st18" width="0.8" height="4.4"/>
					<rect x="1396.6" y="153.4" class="st18" width="0" height="4.4"/>
				</g>
			</g>
		</g>
		
			<rect x="1392.3" y="152" transform="matrix(0.5948 -0.8039 0.8039 0.5948 440.1957 1184.4866)" class="st1" width="5.4" height="7.2"/>
		
			<rect x="1411.4" y="257.8" transform="matrix(0.3433 -0.9392 0.9392 0.3433 659.6368 1515.3467)" class="st1" width="4.2" height="56.3"/>
		<polygon class="st1" points="1382.3,280 1381,276 1384.4,274.9 1383.3,271.5 1387.3,270.2 1389.7,277.6 		"/>
		<g>
			<g>
				<defs>
					<line id="SVGID_13_" x1="1437.9" y1="294.8" x2="1416.4" y2="287"/>
				</defs>
				<clipPath id="SVGID_14_">
					<use xlink:href="#SVGID_13_"  style="overflow:visible;"/>
				</clipPath>
				<g class="st22">
					<rect x="1416.4" y="287" class="st18" width="16.3" height="7.9"/>
					<rect x="1432.6" y="287" class="st18" width="5.3" height="7.9"/>
					<rect x="1437.9" y="287" class="st18" width="0" height="7.9"/>
				</g>
			</g>
		</g>
		
			<rect x="1422.2" y="279.5" transform="matrix(0.3433 -0.9392 0.9392 0.3433 663.9614 1531.4203)" class="st1" width="9.8" height="22.9"/>
		<g>
			<g>
				<defs>
					<line id="SVGID_15_" x1="1437.9" y1="294.8" x2="1432.1" y2="292.7"/>
				</defs>
				<clipPath id="SVGID_16_">
					<use xlink:href="#SVGID_15_"  style="overflow:visible;"/>
				</clipPath>
				<g class="st23">
					<rect x="1432.1" y="292.7" class="st18" width="4.4" height="2.1"/>
					<rect x="1436.5" y="292.7" class="st18" width="1.4" height="2.1"/>
					<rect x="1437.9" y="292.7" class="st18" width="0" height="2.1"/>
				</g>
			</g>
		</g>
		
			<rect x="1431.4" y="290.7" transform="matrix(0.3432 -0.9393 0.9393 0.3432 666.5229 1540.7634)" class="st1" width="7.2" height="6.2"/>
		
			<rect x="1204.8" y="279.9" transform="matrix(0.9622 -0.2723 0.2723 0.9622 -30.6859 342.8033)" class="st1" width="30" height="4.2"/>
		<polygon class="st1" points="1237.1,281.6 1231.5,279 1234.1,273.4 1237.9,275.1 1237.1,276.9 1238.9,277.8 		"/>
		<g>
			<g>
				<defs>
					<line id="SVGID_17_" x1="1205.4" y1="286.1" x2="1222.9" y2="281.1"/>
				</defs>
				<clipPath id="SVGID_18_">
					<use xlink:href="#SVGID_17_"  style="overflow:visible;"/>
				</clipPath>
				<g class="st24">
					<rect x="1205.4" y="281.1" class="st18" width="13.2" height="5.1"/>
					<rect x="1218.6" y="281.1" class="st18" width="4.3" height="5.1"/>
					<rect x="1222.8" y="281.1" class="st18" width="0" height="5.1"/>
				</g>
			</g>
		</g>
		
			<rect x="1204.9" y="278.7" transform="matrix(0.9601 -0.2795 0.2795 0.9601 -30.8761 350.6442)" class="st1" width="18.2" height="9.8"/>
		<g>
			<g>
				<defs>
					<line id="SVGID_19_" x1="1205.4" y1="286.1" x2="1212.3" y2="284.1"/>
				</defs>
				<clipPath id="SVGID_20_">
					<use xlink:href="#SVGID_19_"  style="overflow:visible;"/>
				</clipPath>
				<g class="st25">
					<rect x="1205.4" y="284.1" class="st18" width="5.2" height="2"/>
					<rect x="1210.6" y="284.1" class="st18" width="1.7" height="2"/>
					<rect x="1212.3" y="284.1" class="st18" width="0" height="2"/>
				</g>
			</g>
		</g>
		
			<rect x="1205.2" y="281.7" transform="matrix(0.9601 -0.2795 0.2795 0.9601 -31.5548 349.2361)" class="st1" width="7.2" height="7.2"/>
		<g>
			<g>
				<defs>
					<circle id="SVGID_21_" cx="1323.1" cy="250.7" r="94.7"/>
				</defs>
				<clipPath id="SVGID_22_">
					<use xlink:href="#SVGID_21_"  style="overflow:visible;"/>
				</clipPath>
				<g class="st26">
					<rect x="1320.8" y="210.8" class="st1" width="5.4" height="5.4"/>
					<rect x="1250.8" y="219.1" class="st1" width="5.4" height="5.4"/>
					<rect x="1259.6" y="219.1" class="st27" width="5.4" height="5.4"/>
					<rect x="1277.1" y="219.1" class="st1" width="5.4" height="5.4"/>
					<rect x="1285.8" y="219.1" class="st27" width="5.4" height="5.4"/>
					<rect x="1294.6" y="219.1" class="st1" width="5.4" height="5.4"/>
					<rect x="1312.1" y="227.3" class="st1" width="5.4" height="5.4"/>
					<rect x="1208.1" y="238.9" class="st1" width="5.4" height="5.4"/>
					<rect x="1243.1" y="238.9" class="st27" width="5.4" height="5.4"/>
					<rect x="1251.8" y="238.9" class="st1" width="5.4" height="5.4"/>
					<rect x="1269.3" y="238.9" class="st1" width="5.4" height="5.4"/>
					<rect x="1286.8" y="238.9" class="st1" width="5.4" height="5.4"/>
					<rect x="1295.6" y="238.9" class="st27" width="5.4" height="5.4"/>
					<rect x="1216.8" y="247.2" class="st28" width="5.4" height="5.4"/>
					<rect x="1208.1" y="255.5" class="st27" width="5.4" height="5.4"/>
					<rect x="1216.8" y="255.5" class="st28" width="5.4" height="5.4"/>
					<rect x="1243.1" y="255.5" class="st27" width="5.4" height="5.4"/>
					<rect x="1251.8" y="255.5" class="st1" width="5.4" height="5.4"/>
					<rect x="1260.6" y="255.5" class="st1" width="5.4" height="5.4"/>
					<rect x="1278.1" y="255.5" class="st1" width="5.4" height="5.4"/>
					<rect x="1286.8" y="255.5" class="st27" width="5.4" height="5.4"/>
					<rect x="1208.1" y="263.7" class="st29" width="5.4" height="5.4"/>
					<rect x="1234.3" y="263.7" class="st27" width="5.4" height="5.4"/>
					<rect x="1260.6" y="263.7" class="st1" width="5.4" height="5.4"/>
					<rect x="1269.3" y="263.7" class="st1" width="5.4" height="5.4"/>
					<rect x="1208.1" y="272" class="st27" width="5.4" height="5.4"/>
					<rect x="1251.8" y="272" class="st1" width="5.4" height="5.4"/>
					<rect x="1278.1" y="272" class="st1" width="5.4" height="5.4"/>
					<rect x="1286.8" y="272" class="st1" width="5.4" height="5.4"/>
					<rect x="1208.1" y="280.3" class="st1" width="5.4" height="5.4"/>
					<path class="st30" d="M1221.3,279.5L1221.3,279.5c1.5,0,2.7,1.2,2.7,2.7l0,0c0,1.5-1.2,2.7-2.7,2.7l0,0c-1.5,0-2.7-1.2-2.7-2.7
						l0,0C1218.6,280.7,1219.8,279.5,1221.3,279.5z"/>
					
						<rect x="1243.1" y="280.3" transform="matrix(0.7071 -0.7071 0.7071 0.7071 164.8047 963.7877)" class="st27" width="5.4" height="5.4"/>
					<path class="st28" d="M1210.7,288.5L1210.7,288.5c1.5,0,2.7,1.2,2.7,2.7l0,0c0,1.5-1.2,2.7-2.7,2.7l0,0c-1.5,0-2.7-1.2-2.7-2.7
						l0,0C1208.1,289.8,1209.3,288.5,1210.7,288.5z"/>
					<rect x="1225.6" y="288.5" class="st29" width="5.4" height="5.4"/>
					<path class="st27" d="M1254.5,288.5L1254.5,288.5c1.5,0,2.7,1.2,2.7,2.7l0,0c0,1.5-1.2,2.7-2.7,2.7l0,0c-1.5,0-2.7-1.2-2.7-2.7
						l0,0C1251.8,289.8,1253,288.5,1254.5,288.5z"/>
					
						<rect x="1284.4" y="287.4" transform="matrix(0.7071 -0.7071 0.7071 0.7071 171.8445 995.0696)" class="st1" width="5.4" height="5.4"/>
					<rect x="1295.6" y="288.5" class="st1" width="5.4" height="5.4"/>
					<rect x="1208.1" y="296.8" class="st30" width="5.4" height="5.4"/>
					<rect x="1225.6" y="296.8" class="st1" width="5.4" height="5.4"/>
					<rect x="1234.3" y="296.8" class="st1" width="5.4" height="5.4"/>
					<rect x="1260.6" y="296.8" class="st27" width="5.4" height="5.4"/>
					<rect x="1208.1" y="305.1" class="st28" width="5.4" height="5.4"/>
					<rect x="1216.8" y="305.1" class="st27" width="5.4" height="5.4"/>
					<rect x="1234.3" y="305.1" class="st28" width="5.4" height="5.4"/>
					<rect x="1286.8" y="305.1" class="st1" width="5.4" height="5.4"/>
					<rect x="1216.8" y="313.4" class="st28" width="5.4" height="5.4"/>
					<rect x="1243.1" y="313.4" class="st1" width="5.4" height="5.4"/>
					<rect x="1295.6" y="313.4" class="st1" width="5.4" height="5.4"/>
					<rect x="1225.6" y="321.6" class="st1" width="5.4" height="5.4"/>
					<rect x="1234.3" y="321.6" class="st27" width="5.4" height="5.4"/>
					<rect x="1243.1" y="321.6" class="st27" width="5.4" height="5.4"/>
					<rect x="1251.8" y="321.6" class="st1" width="5.4" height="5.4"/>
					<rect x="1208.1" y="329.9" class="st1" width="5.4" height="5.4"/>
					<rect x="1216.8" y="329.9" class="st1" width="5.4" height="5.4"/>
					<rect x="1243.1" y="329.9" class="st1" width="5.4" height="5.4"/>
					<rect x="1251.8" y="329.9" class="st30" width="5.4" height="5.4"/>
					<rect x="1260.6" y="329.9" class="st1" width="5.4" height="5.4"/>
					<rect x="1304.8" y="238.9" class="st1" width="5.4" height="5.4"/>
					<rect x="1331.1" y="238.9" class="st1" width="5.4" height="5.4"/>
					<rect x="1339.8" y="238.9" class="st27" width="5.4" height="5.4"/>
					<rect x="1348.6" y="238.9" class="st27" width="5.4" height="5.4"/>
					<rect x="1357.3" y="238.9" class="st1" width="5.4" height="5.4"/>
					<rect x="1366.1" y="238.9" class="st1" width="5.4" height="5.4"/>
					<rect x="1383.6" y="238.9" class="st1" width="5.4" height="5.4"/>
					<rect x="1366.1" y="247.2" class="st1" width="5.4" height="5.4"/>
					<rect x="1374.8" y="247.2" class="st1" width="5.4" height="5.4"/>
					<rect x="1304.8" y="255.5" class="st1" width="5.4" height="5.4"/>
					<rect x="1339.8" y="255.5" class="st1" width="5.4" height="5.4"/>
					<rect x="1348.6" y="255.5" class="st1" width="5.4" height="5.4"/>
					<rect x="1348.6" y="263.7" class="st1" width="5.4" height="5.4"/>
					<rect x="1341.1" y="269.3" class="st27" width="5.4" height="5.4"/>
					<rect x="1367.1" y="265.4" class="st1" width="5.4" height="5.4"/>
					<rect x="1354.6" y="247.2" class="st1" width="5.4" height="5.4"/>
					<rect x="1357.3" y="255.5" class="st1" width="5.4" height="5.4"/>
					<rect x="1374.8" y="255.5" class="st1" width="5.4" height="5.4"/>
					<rect x="1383.6" y="255.5" class="st1" width="5.4" height="5.4"/>
					<rect x="1400" y="256.6" class="st1" width="5.4" height="5.4"/>
					<rect x="1406.7" y="265.1" class="st27" width="5.4" height="5.4"/>
					<rect x="1392.3" y="265.1" class="st27" width="5.4" height="5.4"/>
					<rect x="1357.3" y="263.7" class="st27" width="5.4" height="5.4"/>
					<rect x="1331.1" y="272" class="st1" width="5.4" height="5.4"/>
					<path class="st1" d="M1351.3,302.4L1351.3,302.4c1.5,0,2.7,1.2,2.7,2.7l0,0c0,1.5-1.2,2.7-2.7,2.7l0,0c-1.5,0-2.7-1.2-2.7-2.7
						l0,0C1348.6,303.6,1349.8,302.4,1351.3,302.4z"/>
					<path class="st27" d="M1360.6,295.9L1360.6,295.9c1.5,0,2.7,1.2,2.7,2.7l0,0c0,1.5-1.2,2.7-2.7,2.7l0,0c-1.5,0-2.7-1.2-2.7-2.7
						l0,0C1357.9,297.1,1359.1,295.9,1360.6,295.9z"/>
					<rect x="1331.1" y="280.3" class="st27" width="5.4" height="5.4"/>
					
						<rect x="1339.8" y="280.3" transform="matrix(0.7071 -0.7071 0.7071 0.7071 193.0996 1032.192)" class="st27" width="5.4" height="5.4"/>
					<rect x="1348.6" y="280.3" class="st1" width="5.4" height="5.4"/>
					<rect x="1357.3" y="280.3" class="st1" width="5.4" height="5.4"/>
					<rect x="1366.1" y="280.3" class="st1" width="5.4" height="5.4"/>
					<path class="st1" d="M1307.5,288.5L1307.5,288.5c1.5,0,2.7,1.2,2.7,2.7l0,0c0,1.5-1.2,2.7-2.7,2.7l0,0c-1.5,0-2.7-1.2-2.7-2.7
						l0,0C1304.8,289.8,1306,288.5,1307.5,288.5z"/>
					<rect x="1339.8" y="288.5" class="st1" width="5.4" height="5.4"/>
					<path class="st1" d="M1351.3,288.5L1351.3,288.5c1.5,0,2.7,1.2,2.7,2.7l0,0c0,1.5-1.2,2.7-2.7,2.7l0,0c-1.5,0-2.7-1.2-2.7-2.7
						l0,0C1348.6,289.8,1349.8,288.5,1351.3,288.5z"/>
					<rect x="1331.1" y="305.1" class="st1" width="5.4" height="5.4"/>
					<rect x="1357.3" y="305.1" class="st1" width="5.4" height="5.4"/>
					<rect x="1366.1" y="305.1" class="st1" width="5.4" height="5.4"/>
					<rect x="1383.6" y="305.1" class="st1" width="5.4" height="5.4"/>
					<rect x="1348.6" y="313.4" class="st1" width="5.4" height="5.4"/>
					<rect x="1322.3" y="321.6" class="st1" width="5.4" height="5.4"/>
					<rect x="1392.3" y="321.6" class="st1" width="5.4" height="5.4"/>
					<rect x="1383.6" y="329.9" class="st1" width="5.4" height="5.4"/>
					<rect x="1392.3" y="329.9" class="st1" width="5.4" height="5.4"/>
					<rect x="1403.7" y="240.5" class="st1" width="5.4" height="5.4"/>
					<rect x="1421.2" y="240.5" class="st1" width="5.4" height="5.4"/>
					<rect x="1430" y="240.5" class="st1" width="5.4" height="5.4"/>
					<rect x="1438.7" y="240.5" class="st1" width="5.4" height="5.4"/>
					<rect x="1447.5" y="240.5" class="st1" width="5.4" height="5.4"/>
					<rect x="1456.2" y="240.5" class="st1" width="5.4" height="5.4"/>
					<rect x="1465" y="240.5" class="st1" width="5.4" height="5.4"/>
					<rect x="1482.5" y="240.5" class="st1" width="5.4" height="5.4"/>
					<rect x="1491.2" y="240.5" class="st1" width="5.4" height="5.4"/>
					<rect x="1421.2" y="248.7" class="st1" width="5.4" height="5.4"/>
					<rect x="1430" y="248.7" class="st1" width="5.4" height="5.4"/>
					<rect x="1465" y="248.7" class="st1" width="5.4" height="5.4"/>
					<rect x="1473.7" y="248.7" class="st1" width="5.4" height="5.4"/>
					<rect x="1491.2" y="248.7" class="st1" width="5.4" height="5.4"/>
					<rect x="1430" y="257" class="st1" width="5.4" height="5.4"/>
					<rect x="1438.7" y="257" class="st1" width="5.4" height="5.4"/>
					<rect x="1447.5" y="257" class="st1" width="5.4" height="5.4"/>
					<rect x="1456.2" y="257" class="st1" width="5.4" height="5.4"/>
					<rect x="1473.7" y="257" class="st1" width="5.4" height="5.4"/>
					<rect x="1482.5" y="257" class="st1" width="5.4" height="5.4"/>
					<rect x="1421.2" y="265.3" class="st1" width="5.4" height="5.4"/>
					<rect x="1430" y="265.3" class="st1" width="5.4" height="5.4"/>
					<rect x="1438.7" y="265.3" class="st1" width="5.4" height="5.4"/>
					<rect x="1447.5" y="265.3" class="st1" width="5.4" height="5.4"/>
					<rect x="1456.2" y="265.3" class="st1" width="5.4" height="5.4"/>
					<rect x="1465" y="265.3" class="st1" width="5.4" height="5.4"/>
					<rect x="1482.5" y="265.3" class="st1" width="5.4" height="5.4"/>
					<rect x="1421.2" y="273.6" class="st1" width="5.4" height="5.4"/>
					<rect x="1430" y="273.6" class="st1" width="5.4" height="5.4"/>
					<rect x="1438.7" y="273.6" class="st1" width="5.4" height="5.4"/>
					<rect x="1447.5" y="273.6" class="st1" width="5.4" height="5.4"/>
					<rect x="1456.2" y="273.6" class="st1" width="5.4" height="5.4"/>
					<rect x="1465" y="273.6" class="st1" width="5.4" height="5.4"/>
					<rect x="1473.7" y="273.6" class="st1" width="5.4" height="5.4"/>
					<rect x="1482.5" y="273.6" class="st1" width="5.4" height="5.4"/>
					<rect x="1491.2" y="273.6" class="st1" width="5.4" height="5.4"/>
					<path class="st1" d="M1417,281.1L1417,281.1c1.5,0,2.7,1.2,2.7,2.7l0,0c0,1.5-1.2,2.7-2.7,2.7l0,0c-1.5,0-2.7-1.2-2.7-2.7l0,0
						C1414.3,282.3,1415.5,281.1,1417,281.1z"/>
					<rect x="1430" y="281.8" class="st1" width="5.4" height="5.4"/>
					
						<rect x="1438.7" y="281.8" transform="matrix(0.7071 -0.7071 0.7071 0.7071 220.9802 1102.5353)" class="st1" width="5.4" height="5.4"/>
					<rect x="1447.5" y="281.8" class="st1" width="5.4" height="5.4"/>
					<rect x="1456.2" y="281.8" class="st1" width="5.4" height="5.4"/>
					<rect x="1465" y="281.8" class="st1" width="5.4" height="5.4"/>
					<rect x="1473.7" y="281.8" class="st1" width="5.4" height="5.4"/>
					<rect x="1491.2" y="281.8" class="st1" width="5.4" height="5.4"/>
					<rect x="1421.2" y="290.1" class="st1" width="5.4" height="5.4"/>
					<rect x="1430" y="290.1" class="st1" width="5.4" height="5.4"/>
					<rect x="1438.7" y="290.1" class="st1" width="5.4" height="5.4"/>
					<path class="st1" d="M1450.2,290.1L1450.2,290.1c1.5,0,2.7,1.2,2.7,2.7l0,0c0,1.5-1.2,2.7-2.7,2.7l0,0c-1.5,0-2.7-1.2-2.7-2.7
						l0,0C1447.5,291.3,1448.7,290.1,1450.2,290.1z"/>
					<rect x="1456.2" y="290.1" class="st1" width="5.4" height="5.4"/>
					<rect x="1465" y="290.1" class="st1" width="5.4" height="5.4"/>
					
						<rect x="1480.1" y="289" transform="matrix(0.7071 -0.7071 0.7071 0.7071 228.0619 1133.916)" class="st1" width="5.4" height="5.4"/>
					<rect x="1491.2" y="290.1" class="st1" width="5.4" height="5.4"/>
					<rect x="1421.2" y="298.4" class="st1" width="5.4" height="5.4"/>
					<rect x="1430" y="298.4" class="st1" width="5.4" height="5.4"/>
					<rect x="1438.7" y="298.4" class="st1" width="5.4" height="5.4"/>
					<rect x="1447.5" y="298.4" class="st1" width="5.4" height="5.4"/>
					<rect x="1456.2" y="298.4" class="st1" width="5.4" height="5.4"/>
					<rect x="1465" y="298.4" class="st1" width="5.4" height="5.4"/>
					<rect x="1473.7" y="298.4" class="st1" width="5.4" height="5.4"/>
					<rect x="1482.5" y="298.4" class="st1" width="5.4" height="5.4"/>
					<rect x="1403.7" y="306.7" class="st1" width="5.4" height="5.4"/>
					<rect x="1412.5" y="306.7" class="st1" width="5.4" height="5.4"/>
					<rect x="1430" y="306.7" class="st1" width="5.4" height="5.4"/>
					<rect x="1438.7" y="306.7" class="st1" width="5.4" height="5.4"/>
					<rect x="1447.5" y="306.7" class="st1" width="5.4" height="5.4"/>
					<rect x="1456.2" y="306.7" class="st1" width="5.4" height="5.4"/>
					<rect x="1465" y="306.7" class="st1" width="5.4" height="5.4"/>
					<rect x="1482.5" y="306.7" class="st1" width="5.4" height="5.4"/>
					<rect x="1412.5" y="314.9" class="st1" width="5.4" height="5.4"/>
					<rect x="1438.7" y="314.9" class="st1" width="5.4" height="5.4"/>
					<rect x="1447.5" y="314.9" class="st1" width="5.4" height="5.4"/>
					<rect x="1456.2" y="314.9" class="st1" width="5.4" height="5.4"/>
					<rect x="1473.7" y="314.9" class="st1" width="5.4" height="5.4"/>
					<rect x="1482.5" y="314.9" class="st1" width="5.4" height="5.4"/>
					<rect x="1491.2" y="314.9" class="st1" width="5.4" height="5.4"/>
					<rect x="1421.2" y="323.2" class="st1" width="5.4" height="5.4"/>
					<rect x="1430" y="323.2" class="st1" width="5.4" height="5.4"/>
					<rect x="1438.7" y="323.2" class="st1" width="5.4" height="5.4"/>
					<rect x="1447.5" y="323.2" class="st1" width="5.4" height="5.4"/>
					<rect x="1456.2" y="323.2" class="st1" width="5.4" height="5.4"/>
					<rect x="1465" y="323.2" class="st1" width="5.4" height="5.4"/>
					<rect x="1473.7" y="323.2" class="st1" width="5.4" height="5.4"/>
					<rect x="1482.5" y="323.2" class="st1" width="5.4" height="5.4"/>
					<rect x="1491.2" y="323.2" class="st1" width="5.4" height="5.4"/>
					<rect x="1403.7" y="331.5" class="st1" width="5.4" height="5.4"/>
					<rect x="1412.5" y="331.5" class="st1" width="5.4" height="5.4"/>
					<rect x="1438.7" y="331.5" class="st1" width="5.4" height="5.4"/>
					<rect x="1447.5" y="331.5" class="st1" width="5.4" height="5.4"/>
					<rect x="1456.2" y="331.5" class="st1" width="5.4" height="5.4"/>
					<rect x="1465" y="331.5" class="st1" width="5.4" height="5.4"/>
					<rect x="1473.7" y="331.5" class="st1" width="5.4" height="5.4"/>
					<rect x="1482.5" y="331.5" class="st1" width="5.4" height="5.4"/>
					<rect x="1491.2" y="331.5" class="st1" width="5.4" height="5.4"/>
					<rect x="1330" y="138.1" class="st1" width="5.4" height="5.4"/>
					<rect x="1347.5" y="138.1" class="st1" width="5.4" height="5.4"/>
					<rect x="1356.3" y="138.1" class="st1" width="5.4" height="5.4"/>
					<rect x="1365" y="138.1" class="st1" width="5.4" height="5.4"/>
					<rect x="1373.8" y="138.1" class="st1" width="5.4" height="5.4"/>
					<rect x="1382.5" y="138.1" class="st1" width="5.4" height="5.4"/>
					<rect x="1391.3" y="138.1" class="st1" width="5.4" height="5.4"/>
					<rect x="1408.8" y="138.1" class="st1" width="5.4" height="5.4"/>
					<rect x="1417.5" y="138.1" class="st1" width="5.4" height="5.4"/>
					<rect x="1338.8" y="146.3" class="st1" width="5.4" height="5.4"/>
					<rect x="1347.5" y="146.3" class="st1" width="5.4" height="5.4"/>
					<rect x="1356.3" y="146.3" class="st1" width="5.4" height="5.4"/>
					<rect x="1391.3" y="146.3" class="st1" width="5.4" height="5.4"/>
					<rect x="1400" y="146.3" class="st1" width="5.4" height="5.4"/>
					<rect x="1417.5" y="146.3" class="st1" width="5.4" height="5.4"/>
					<rect x="1356.3" y="154.6" class="st1" width="5.4" height="5.4"/>
					<rect x="1365" y="154.6" class="st1" width="5.4" height="5.4"/>
					<rect x="1373.8" y="154.6" class="st1" width="5.4" height="5.4"/>
					<rect x="1382.5" y="154.6" class="st1" width="5.4" height="5.4"/>
					<rect x="1400" y="154.6" class="st1" width="5.4" height="5.4"/>
					<rect x="1408.8" y="154.6" class="st1" width="5.4" height="5.4"/>
					<rect x="1373.8" y="162.9" class="st1" width="5.4" height="5.4"/>
					<rect x="1382.5" y="162.9" class="st1" width="5.4" height="5.4"/>
					<rect x="1391.3" y="162.9" class="st1" width="5.4" height="5.4"/>
					<rect x="1408.8" y="162.9" class="st1" width="5.4" height="5.4"/>
					<rect x="1382.5" y="171.2" class="st1" width="5.4" height="5.4"/>
					<rect x="1391.3" y="171.2" class="st1" width="5.4" height="5.4"/>
					<rect x="1400" y="171.2" class="st1" width="5.4" height="5.4"/>
					<rect x="1408.8" y="171.2" class="st1" width="5.4" height="5.4"/>
					<rect x="1417.5" y="171.2" class="st1" width="5.4" height="5.4"/>
					<rect x="1391.3" y="179.4" class="st1" width="5.4" height="5.4"/>
					<rect x="1400" y="179.4" class="st1" width="5.4" height="5.4"/>
					<rect x="1417.5" y="179.4" class="st1" width="5.4" height="5.4"/>
					<rect x="1356.3" y="187.7" class="st1" width="5.4" height="5.4"/>
					
						<rect x="1406.3" y="186.6" transform="matrix(0.7071 -0.7071 0.7071 0.7071 278.8207 1051.7809)" class="st1" width="5.4" height="5.4"/>
					<rect x="1417.5" y="187.7" class="st1" width="5.4" height="5.4"/>
					<rect x="1408.8" y="196" class="st1" width="5.4" height="5.4"/>
					<rect x="1356.3" y="204.3" class="st1" width="5.4" height="5.4"/>
					<rect x="1373.8" y="204.3" class="st1" width="5.4" height="5.4"/>
					<rect x="1408.8" y="204.3" class="st1" width="5.4" height="5.4"/>
					<rect x="1338.8" y="212.5" class="st1" width="5.4" height="5.4"/>
					<rect x="1417.5" y="212.5" class="st1" width="5.4" height="5.4"/>
					<rect x="1347.5" y="220.8" class="st1" width="5.4" height="5.4"/>
					<rect x="1365" y="220.8" class="st1" width="5.4" height="5.4"/>
					<rect x="1382.5" y="220.8" class="st1" width="5.4" height="5.4"/>
					<rect x="1417.5" y="220.8" class="st1" width="5.4" height="5.4"/>
					<rect x="1338.8" y="229.1" class="st1" width="5.4" height="5.4"/>
					<rect x="1365" y="229.1" class="st27" width="5.4" height="5.4"/>
					<rect x="1391.3" y="229.1" class="st1" width="5.4" height="5.4"/>
					<rect x="1417.5" y="229.1" class="st1" width="5.4" height="5.4"/>
				</g>
			</g>
		</g>
		<rect x="997.8" y="221.9" class="st27" width="175.8" height="1.7"/>
		<rect x="997.8" y="233.6" class="st27" width="174.2" height="1.7"/>
		<rect x="997.8" y="245.3" class="st27" width="172.9" height="1.7"/>
		<rect x="997.8" y="280.4" class="st27" width="174.2" height="1.7"/>
		<rect x="997.8" y="292.1" class="st27" width="177.4" height="1.7"/>
		<rect x="997.8" y="268.7" class="st27" width="172.9" height="1.7"/>
		<rect x="997.8" y="257" class="st27" width="172.9" height="1.7"/>
		<rect x="997.8" y="303.8" class="st27" width="183.1" height="1.7"/>
		<path class="st1" d="M1326.7,404.2l-0.1-2c3.3-0.1,6.6-0.3,9.9-0.6l0.2,2C1333.4,403.9,1330,404.1,1326.7,404.2z M1316.6,404.1
			c-3.3-0.1-6.7-0.4-10-0.7l0.2-2c3.3,0.4,6.6,0.6,9.9,0.7L1316.6,404.1z M1346.7,402.4l-0.3-2c3.3-0.5,6.5-1.1,9.8-1.9l0.4,2
			C1353.4,401.2,1350,401.9,1346.7,402.4L1346.7,402.4z M1296.6,402c-3.3-0.6-6.6-1.3-9.8-2.1l0.5-1.9c3.2,0.8,6.5,1.5,9.7,2
			L1296.6,402z M1366.4,398l-0.6-1.9c3.2-0.9,6.3-2,9.4-3.1l0.7,1.9C1372.8,396,1369.6,397,1366.4,398L1366.4,398z M1277.1,397.2
			c-3.2-1-6.4-2.1-9.5-3.3l0.7-1.9c3.1,1.2,6.2,2.3,9.4,3.3L1277.1,397.2z M1385.2,391l-0.8-1.8c3-1.3,6-2.8,8.9-4.3l0.9,1.8
			C1391.3,388.2,1388.3,389.6,1385.2,391L1385.2,391z M1258.4,389.9c-3-1.4-6-3-9-4.6l1-1.8c2.9,1.6,5.9,3.1,8.8,4.5L1258.4,389.9z
			 M1403,381.6l-1-1.7c2.8-1.7,5.6-3.6,8.3-5.5l1.2,1.6C1408.7,378,1405.9,379.9,1403,381.6L1403,381.6z M1240.7,380.2
			c-2.8-1.8-5.6-3.7-8.3-5.7l1.2-1.6c2.6,1.9,5.4,3.8,8.2,5.6L1240.7,380.2z M1419.4,370l-1.3-1.6c2.6-2.1,5.1-4.3,7.5-6.5l1.4,1.5
			C1424.6,365.7,1422,367.9,1419.4,370L1419.4,370z M1224.5,368.3c-2.6-2.2-5.1-4.4-7.5-6.7l1.4-1.4c2.4,2.3,4.9,4.5,7.4,6.6
			L1224.5,368.3z M1434.2,356.3l-1.5-1.4c2.3-2.4,4.5-4.9,6.6-7.5l1.5,1.3C1438.7,351.3,1436.4,353.9,1434.2,356.3L1434.2,356.3z
			 M1210.1,354.3c-2.2-2.5-4.4-5.1-6.5-7.7l1.6-1.2c2.1,2.6,4.2,5.1,6.4,7.6L1210.1,354.3z M1446.9,340.7l-1.6-1.2
			c1.9-2.7,3.8-5.4,5.5-8.3l1.7,1.1C1450.8,335.2,1448.9,338,1446.9,340.7L1446.9,340.7z M1197.5,338.6c-1.9-2.7-3.7-5.6-5.5-8.5
			l1.7-1c1.7,2.8,3.5,5.6,5.4,8.3L1197.5,338.6z M1454.2,329.7l-1.7-1c1.7-2.8,3.3-5.8,4.8-8.7l1.8,0.9
			C1457.5,323.9,1455.9,326.9,1454.2,329.7L1454.2,329.7z M1187.2,321.3c-1.5-3-3-6-4.3-9.1l1.8-0.8c1.3,3,2.7,6.1,4.2,9
			L1187.2,321.3z M1463.3,311.8l-1.8-0.8c1.3-3,2.5-6.1,3.6-9.2l1.9,0.7C1465.9,305.6,1464.6,308.8,1463.3,311.8L1463.3,311.8z
			 M1179.2,302.8c-1.1-3.1-2.1-6.4-3.1-9.6l1.9-0.5c0.9,3.2,1.9,6.4,3,9.5L1179.2,302.8z M1470,292.9l-1.9-0.5
			c0.9-3.2,1.7-6.4,2.4-9.6l2,0.4C1471.7,286.4,1470.9,289.7,1470,292.9L1470,292.9z M1173.7,283.5c-0.7-3.3-1.3-6.6-1.8-9.9l2-0.3
			c0.5,3.3,1.1,6.6,1.8,9.8L1173.7,283.5z M1474.2,273.2l-2-0.3c0.5-3.3,0.8-6.6,1.1-9.9l2,0.1
			C1475,266.5,1474.6,269.9,1474.2,273.2z M1170.8,263.6c-0.3-3.3-0.4-6.7-0.5-10.1h2c0,3.3,0.2,6.6,0.5,9.9L1170.8,263.6z
			 M1475.7,253.1h-2c0-0.5,0-0.9,0-1.4c0-2.8-0.1-5.7-0.2-8.5l2-0.1c0.2,2.9,0.2,5.8,0.2,8.7
			C1475.7,252.2,1475.7,252.7,1475.7,253.1L1475.7,253.1z M1172.6,243.6l-2-0.1c0.2-3.3,0.5-6.7,0.9-10l2,0.2
			C1173,237,1172.7,240.3,1172.6,243.6L1172.6,243.6z M1472.6,233.3c-0.4-3.3-0.9-6.6-1.5-9.8l2-0.4c0.6,3.3,1.1,6.6,1.6,9.9
			L1472.6,233.3z M1174.9,223.9l-2-0.4c0.6-3.3,1.3-6.6,2.2-9.8l1.9,0.5C1176.2,217.4,1175.5,220.6,1174.9,223.9L1174.9,223.9z
			 M1468.9,213.8c-0.8-3.2-1.8-6.4-2.8-9.5l1.9-0.6c1,3.2,2,6.4,2.8,9.7L1468.9,213.8z M1179.8,204.6l-1.9-0.6
			c1-3.2,2.2-6.4,3.5-9.4l1.9,0.8C1182,198.4,1180.9,201.5,1179.8,204.6z M1462.6,194.9c-1.2-3.1-2.6-6.1-4-9.1l1.8-0.9
			c1.5,3,2.8,6.1,4.1,9.2L1462.6,194.9z M1187.3,186.2l-1.8-0.9c1.5-3,3-6,4.7-8.9l1.7,1C1190.3,180.3,1188.7,183.3,1187.3,186.2
			L1187.3,186.2z M1454,177.1c-1.6-2.9-3.4-5.7-5.2-8.5l1.7-1.1c1.8,2.8,3.6,5.7,5.3,8.6L1454,177.1z M1197.1,169l-1.7-1.1
			c1.8-2.8,3.8-5.6,5.8-8.2l1.6,1.2C1200.8,163.5,1198.9,166.2,1197.1,169L1197.1,169z M1443.1,160.5c-2-2.6-4.1-5.2-6.3-7.7
			l1.5-1.3c2.2,2.5,4.3,5.1,6.3,7.8L1443.1,160.5z M1209,153.1l-1.5-1.3c2.2-2.5,4.5-5,6.8-7.4l1.4,1.4
			C1213.4,148.1,1211.1,150.6,1209,153.1z M1430,145.5c-2.3-2.3-4.7-4.6-7.2-6.8l1.3-1.5c2.5,2.2,5,4.5,7.3,6.9L1430,145.5z
			 M1222.9,138.9l-1.3-1.5c2.5-2.2,5.1-4.4,7.7-6.4l1.2,1.6C1227.9,134.6,1225.4,136.8,1222.9,138.9L1222.9,138.9z M1415.2,132.4
			c-2.6-2-5.3-4-8.1-5.8l1.1-1.7c2.8,1.9,5.5,3.8,8.2,5.9L1415.2,132.4z M1238.6,126.8l-1.1-1.7c2.8-1.9,5.6-3.7,8.5-5.4l1,1.7
			C1244.2,123.1,1241.3,124.9,1238.6,126.8z M1398.7,121.3c-2.9-1.7-5.8-3.2-8.7-4.7l0.9-1.8c3,1.5,6,3.1,8.9,4.8L1398.7,121.3z
			 M1255.8,116.8l-0.9-1.8c3-1.5,6.1-2.9,9.2-4.2l0.8,1.8C1261.7,113.9,1258.7,115.3,1255.8,116.8L1255.8,116.8z M1380.9,112.5
			c-3-1.3-6.2-2.5-9.3-3.5l0.6-1.9c3.2,1.1,6.3,2.3,9.4,3.6L1380.9,112.5z M1274.1,109.1l-0.6-1.9c3.2-1.1,6.4-2.1,9.6-2.9l0.5,1.9
			C1280.4,107.1,1277.2,108,1274.1,109.1L1274.1,109.1z M1362.1,106.1c-3.2-0.9-6.4-1.6-9.7-2.3l0.4-2c3.3,0.7,6.6,1.4,9.8,2.3
			L1362.1,106.1z M1293.2,103.9l-0.4-2c3.3-0.7,6.6-1.2,9.9-1.7l0.3,2C1299.8,102.7,1296.5,103.3,1293.2,103.9L1293.2,103.9z
			 M1342.6,102.2c-3.3-0.4-6.6-0.8-9.9-1l0.1-2c3.3,0.2,6.7,0.5,10,1L1342.6,102.2z M1312.9,101.3l-0.1-2c3.3-0.2,6.7-0.3,10.1-0.4
			v2C1319.5,100.9,1316.2,101,1312.9,101.3L1312.9,101.3z"/>
		<rect x="1176.3" y="151.8" class="st1" width="5.4" height="5.4"/>
		<rect x="1163.5" y="160.2" class="st27" width="5.4" height="5.4"/>
		<rect x="1137.7" y="155.5" class="st1" width="5.4" height="5.4"/>
		<rect x="1146.5" y="149.9" class="st1" width="5.4" height="5.4"/>
		<rect x="1157.3" y="152.8" class="st1" width="5.4" height="5.4"/>
		
			<rect x="1167.6" y="154.1" transform="matrix(0.3135 -0.9496 0.9496 0.3135 654.5237 1218.9512)" class="st1" width="5.4" height="5.4"/>
		<rect x="1098.1" y="149.1" class="st1" width="5.4" height="5.4"/>
		<rect x="1126" y="153.6" class="st1" width="5.4" height="5.4"/>
		
			<rect x="1116.7" y="147.1" transform="matrix(0.3135 -0.9496 0.9496 0.3135 626.2284 1165.7948)" class="st1" width="5.4" height="5.4"/>
		<rect x="1136.8" y="147.2" class="st1" width="5.4" height="5.4"/>
		<rect x="1116" y="131.7" class="st1" width="5.4" height="5.4"/>
		<rect x="1090.9" y="143.3" class="st1" width="5.4" height="5.4"/>
		<rect x="1089.9" y="133.2" class="st1" width="5.4" height="5.4"/>
		<rect x="1072" y="128.2" class="st1" width="5.4" height="5.4"/>
		<rect x="1039.7" y="129.3" class="st1" width="5.4" height="5.4"/>
		<rect x="1014.9" y="127.8" class="st1" width="5.4" height="5.4"/>
		<rect x="1001.9" y="127.5" class="st1" width="5.4" height="5.4"/>
		<rect x="1106.2" y="144.5" class="st1" width="5.4" height="5.4"/>
		<rect x="1072.3" y="142.8" class="st1" width="5.4" height="5.4"/>
		<rect x="1080.3" y="135.5" class="st1" width="5.4" height="5.4"/>
		<rect x="1098.8" y="136.6" class="st1" width="5.4" height="5.4"/>
		<rect x="1116" y="140.1" class="st1" width="5.4" height="5.4"/>
		<rect x="1127.3" y="144.5" class="st27" width="5.4" height="5.4"/>
		
			<rect x="1042.5" y="147.9" transform="matrix(0.9728 -0.2318 0.2318 0.9728 -6.4403 246.3812)" class="st1" width="5.4" height="5.4"/>
		
			<rect x="998" y="157.4" transform="matrix(0.9728 -0.2318 0.2318 0.9728 -9.8572 236.3261)" class="st1" width="5.4" height="5.4"/>
		<rect x="1161.9" y="145.2" class="st1" width="5.4" height="5.4"/>
		<rect x="1146.3" y="140.1" class="st1" width="5.4" height="5.4"/>
		
			<rect x="1081.8" y="147.4" transform="matrix(0.3738 -0.9275 0.9275 0.3738 539.8472 1099.8691)" class="st1" width="5.4" height="5.4"/>
		
			<rect x="1060.9" y="142.6" transform="matrix(0.3738 -0.9275 0.9275 0.3738 531.2651 1077.5343)" class="st1" width="5.4" height="5.4"/>
		
			<rect x="1066.3" y="133.8" transform="matrix(0.9971 -7.586766e-02 7.586766e-02 0.9971 -7.2749 81.4947)" class="st27" width="5.4" height="5.4"/>
		
			<rect x="1032.8" y="154.9" transform="matrix(0.3738 -0.9275 0.9275 0.3738 502.2701 1059.1636)" class="st1" width="5.4" height="5.4"/>
		
			<rect x="1068.3" y="149.4" transform="matrix(0.3738 -0.9275 0.9275 0.3738 529.6339 1088.5842)" class="st1" width="5.4" height="5.4"/>
		
			<rect x="1049.6" y="151.6" transform="matrix(0.3738 -0.9275 0.9275 0.3738 515.806 1072.6481)" class="st1" width="5.4" height="5.4"/>
		
			<rect x="1031.3" y="145.2" transform="matrix(0.3738 -0.9275 0.9275 0.3738 510.3532 1051.6626)" class="st1" width="5.4" height="5.4"/>
		
			<rect x="1013.2" y="145.3" transform="matrix(0.3738 -0.9275 0.9275 0.3738 498.9152 1034.8856)" class="st1" width="5.4" height="5.4"/>
		
			<rect x="999.4" y="146.5" transform="matrix(5.179345e-02 -0.9987 0.9987 5.179345e-02 801.1545 1142.2688)" class="st27" width="5.4" height="5.4"/>
		
			<rect x="1005.3" y="163.1" transform="matrix(0.3738 -0.9275 0.9275 0.3738 477.4828 1038.7756)" class="st1" width="5.4" height="5.4"/>
		
			<rect x="998.5" y="136.6" transform="matrix(0.3738 -0.9275 0.9275 0.3738 497.7709 1015.8828)" class="st1" width="5.4" height="5.4"/>
		
			<rect x="1019.1" y="160.2" transform="matrix(0.3738 -0.9275 0.9275 0.3738 488.7491 1049.7144)" class="st1" width="5.4" height="5.4"/>
		
			<rect x="1018.9" y="176.2" transform="matrix(0.3738 -0.9275 0.9275 0.3738 473.775 1059.5781)" class="st1" width="5.4" height="5.4"/>
		
			<rect x="1048.8" y="162" transform="matrix(0.3738 -0.9275 0.9275 0.3738 505.7016 1078.4193)" class="st1" width="5.4" height="5.4"/>
		
			<rect x="1062.1" y="159.6" transform="matrix(0.3738 -0.9275 0.9275 0.3738 516.2725 1089.2623)" class="st1" width="5.4" height="5.4"/>
		
			<rect x="1104.5" y="152.4" transform="matrix(0.3738 -0.9275 0.9275 0.3738 549.4304 1124.0626)" class="st1" width="5.4" height="5.4"/>
		<rect x="1075.9" y="156.8" class="st1" width="5.4" height="5.4"/>
		
			<rect x="1039.4" y="167.1" transform="matrix(0.9992 -4.000795e-02 4.000795e-02 0.9992 -5.959 41.8283)" class="st1" width="5.4" height="5.4"/>
		
			<rect x="1040.6" y="158.6" transform="matrix(0.3738 -0.9275 0.9275 0.3738 503.6799 1068.701)" class="st1" width="5.4" height="5.4"/>
		
			<rect x="1029.7" y="171.1" transform="matrix(0.9854 -0.1702 0.1702 0.9854 -14.523 178.2498)" class="st1" width="5.4" height="5.4"/>
		
			<rect x="1009.2" y="135.8" transform="matrix(0.9854 -0.1702 0.1702 0.9854 -8.8116 174.2465)" class="st1" width="5.4" height="5.4"/>
		
			<rect x="1054" y="129.9" transform="matrix(0.162 -0.9868 0.9868 0.162 754.693 1153.7996)" class="st1" width="5.4" height="5.4"/>
		
			<rect x="1021.3" y="136.8" transform="matrix(0.162 -0.9868 0.9868 0.162 720.4836 1127.3489)" class="st1" width="5.4" height="5.4"/>
		
			<rect x="1032.1" y="120.1" transform="matrix(0.1623 -0.9867 0.9867 0.1623 745.7068 1123.8876)" class="st1" width="5.4" height="5.4"/>
		
			<rect x="1046.6" y="121.4" transform="matrix(0.162 -0.9868 0.9868 0.162 756.7889 1139.4535)" class="st1" width="5.4" height="5.4"/>
		
			<rect x="1063" y="123.2" transform="matrix(0.1623 -0.9867 0.9867 0.1623 768.4354 1157.0168)" class="st1" width="5.4" height="5.4"/>
		
			<rect x="1081.8" y="126.3" transform="matrix(0.9594 -0.282 0.282 0.9594 7.6512 311.0616)" class="st1" width="5.4" height="5.4"/>
		
			<rect x="1098.8" y="128.6" transform="matrix(0.9594 -0.282 0.282 0.9594 7.6699 315.9533)" class="st1" width="5.4" height="5.4"/>
		
			<rect x="1038.7" y="137.9" transform="matrix(0.9854 -0.1702 0.1702 0.9854 -8.7387 179.2997)" class="st1" width="5.4" height="5.4"/>
		
			<rect x="1130.4" y="135.5" transform="matrix(0.2294 -0.9733 0.9733 0.2294 738.5844 1209.3895)" class="st1" width="5.4" height="5.4"/>
		
			<rect x="1186.6" y="159.5" transform="matrix(0.3738 -0.9275 0.9275 0.3738 594.2528 1204.6825)" class="st1" width="5.4" height="5.4"/>
		
			<rect x="1207.1" y="161.5" transform="matrix(0.3738 -0.9275 0.9275 0.3738 605.3081 1224.8734)" class="st1" width="5.4" height="5.4"/>
		
			<rect x="1198" y="171.3" transform="matrix(0.5867 -0.8098 0.8098 0.5867 355.3464 1044.2218)" class="st1" width="5.4" height="5.4"/>
		
			<rect x="1211.5" y="173.3" transform="matrix(0.5867 -0.8098 0.8098 0.5867 359.2722 1055.9812)" class="st1" width="5.4" height="5.4"/>
		
			<rect x="1219.2" y="169.2" transform="matrix(0.2294 -0.9733 0.9733 0.2294 774.3113 1321.8165)" class="st1" width="5.4" height="5.4"/>
		
			<rect x="1177.3" y="164.7" transform="matrix(0.91 -0.4147 0.4147 0.91 36.8283 504.3813)" class="st27" width="5.4" height="5.4"/>
		
			<rect x="1197.3" y="159.6" transform="matrix(0.91 -0.4147 0.4147 0.91 40.7455 512.2169)" class="st27" width="5.4" height="5.4"/>
		
			<rect x="1223.1" y="178.8" transform="matrix(0.91 -0.4147 0.4147 0.91 35.1062 524.6783)" class="st27" width="5.4" height="5.4"/>
		<rect x="1150" y="158.2" class="st27" width="5.4" height="5.4"/>
		<rect x="1116" y="154.9" class="st27" width="5.4" height="5.4"/>
		<rect x="1059.1" y="150.1" class="st27" width="5.4" height="5.4"/>
		<rect x="1088.7" y="154.9" class="st27" width="5.4" height="5.4"/>
		
			<rect x="1023" y="150.6" transform="matrix(0.3738 -0.9275 0.9275 0.3738 500.1555 1047.3286)" class="st27" width="5.4" height="5.4"/>
		
			<rect x="1011" y="168" transform="matrix(0.3738 -0.9275 0.9275 0.3738 476.4063 1047.0765)" class="st27" width="5.4" height="5.4"/>
		
			<rect x="999.1" y="119.1" transform="matrix(0.3738 -0.9275 0.9275 0.3738 514.3977 1005.4336)" class="st27" width="5.4" height="5.4"/>
		
			<rect x="1029.5" y="129.3" transform="matrix(0.3738 -0.9275 0.9275 0.3738 523.9611 1040.0748)" class="st27" width="5.4" height="5.4"/>
		
			<rect x="1015.6" y="119.1" transform="matrix(0.9854 -0.1702 0.1702 0.9854 -5.8758 175.0934)" class="st27" width="5.4" height="5.4"/>
		
			<rect x="1008.5" y="182.8" transform="matrix(0.3738 -0.9275 0.9275 0.3738 461.1176 1054.0942)" class="st27" width="5.4" height="5.4"/>
		
			<rect x="998.5" y="193" transform="matrix(0.3738 -0.9275 0.9275 0.3738 445.4673 1051.2028)" class="st27" width="5.4" height="5.4"/>
		
			<rect x="1012" y="155" transform="matrix(0.9854 -0.1701 0.1701 0.9854 -12.0323 174.8974)" class="st27" width="5.4" height="5.4"/>
		
			<rect x="999.1" y="170.1" transform="matrix(0.9854 -0.1702 0.1702 0.9854 -14.7978 173.0284)" class="st27" width="5.4" height="5.4"/>
		<rect x="1049.6" y="142.8" class="st27" width="5.4" height="5.4"/>
		
			<rect x="1235.3" y="175.1" transform="matrix(0.5867 -0.8098 0.8098 0.5867 367.6871 1076.0526)" class="st1" width="5.4" height="5.4"/>
		
			<rect x="1246.4" y="195.2" transform="matrix(0.2294 -0.9733 0.9733 0.2294 769.9935 1368.2988)" class="st1" width="5.4" height="5.4"/>
		
			<rect x="1231.8" y="185" transform="matrix(0.2294 -0.9733 0.9733 0.2294 768.6822 1346.2324)" class="st1" width="5.4" height="5.4"/>
		
			<rect x="1248.9" y="185" transform="matrix(0.2294 -0.9733 0.9733 0.2294 781.7819 1362.7859)" class="st1" width="5.4" height="5.4"/>
		
			<rect x="1259.7" y="197.7" transform="matrix(0.2294 -0.9733 0.9733 0.2294 777.8053 1383.1649)" class="st1" width="5.4" height="5.4"/>
		<rect x="1274.5" y="204.6" class="st1" width="5.4" height="5.4"/>
		<rect x="1282.4" y="210.8" class="st1" width="5.4" height="5.4"/>
		<rect x="1264.1" y="209.2" class="st1" width="5.4" height="5.4"/>
		<rect x="1268.5" y="195.1" class="st1" width="5.4" height="5.4"/>
		
			<rect x="1404.5" y="320.7" transform="matrix(0.4196 -0.9077 0.9077 0.4196 523.2253 1465.0188)" class="st1" width="5.4" height="5.4"/>
		
			<rect x="1436.7" y="341.5" transform="matrix(0.4196 -0.9077 0.9077 0.4196 522.9446 1506.3385)" class="st1" width="5.4" height="5.4"/>
		
			<rect x="1413.7" y="342.7" transform="matrix(0.4196 -0.9077 0.9077 0.4196 508.5669 1486.1033)" class="st1" width="5.4" height="5.4"/>
		
			<rect x="1438.8" y="352.9" transform="matrix(0.4196 -0.9077 0.9077 0.4196 513.9022 1514.853)" class="st1" width="5.4" height="5.4"/>
		
			<rect x="1425.8" y="346.9" transform="matrix(0.4196 -0.9077 0.9077 0.4196 511.7943 1499.5936)" class="st1" width="5.4" height="5.4"/>
		
			<rect x="1458.5" y="359.6" transform="matrix(0.4196 -0.9077 0.9077 0.4196 519.1925 1536.6083)" class="st1" width="5.4" height="5.4"/>
		
			<rect x="1488.6" y="370.1" transform="matrix(0.1978 -0.9802 0.9802 0.1978 830.8816 1760.9547)" class="st1" width="5.4" height="5.4"/>
		
			<rect x="1379.2" y="317" transform="matrix(0.4196 -0.9077 0.9077 0.4196 511.8612 1439.8688)" class="st1" width="5.4" height="5.4"/>
		
			<rect x="1393.7" y="327.6" transform="matrix(0.4196 -0.9077 0.9077 0.4196 510.702 1459.2227)" class="st1" width="5.4" height="5.4"/>
		
			<rect x="1455.6" y="348.5" transform="matrix(0.7285 -0.685 0.685 0.7285 155.3314 1094.2764)" class="st1" width="5.4" height="5.4"/>
		
			<rect x="1446.8" y="342.3" transform="matrix(0.7285 -0.685 0.685 0.7285 157.1948 1086.5745)" class="st1" width="5.4" height="5.4"/>
		
			<rect x="1427.8" y="323.7" transform="matrix(0.7285 -0.685 0.685 0.7285 164.7376 1068.5776)" class="st1" width="5.4" height="5.4"/>
		
			<rect x="1416" y="321.3" transform="matrix(0.7285 -0.685 0.685 0.7285 163.1563 1059.7795)" class="st1" width="5.4" height="5.4"/>
		
			<rect x="1402.1" y="309.4" transform="matrix(0.9939 -0.1105 0.1105 0.9939 -25.8789 157.1412)" class="st1" width="5.4" height="5.4"/>
		<rect x="1380.6" y="289.2" class="st1" width="5.4" height="5.4"/>
		
			<rect x="1468.7" y="364.6" transform="matrix(0.7285 -0.685 0.685 0.7285 147.8636 1107.6183)" class="st1" width="5.4" height="5.4"/>
		
			<rect x="1464.9" y="355.4" transform="matrix(0.7285 -0.685 0.685 0.7285 153.0834 1102.5681)" class="st1" width="5.4" height="5.4"/>
		
			<rect x="1482.8" y="361.2" transform="matrix(0.7285 -0.685 0.685 0.7285 153.9836 1116.4014)" class="st1" width="5.4" height="5.4"/>
		
			<rect x="1406.1" y="331.3" transform="matrix(0.6166 -0.7873 0.7873 0.6166 277.2104 1237.174)" class="st1" width="5.4" height="5.4"/>
		
			<rect x="1379.2" y="330" transform="matrix(0.3058 -0.9521 0.9521 0.3058 642.5397 1546.6841)" class="st1" width="5.4" height="5.4"/>
		
			<rect x="1365.9" y="320.6" transform="matrix(0.3058 -0.9521 0.9521 0.3058 642.2492 1527.4819)" class="st1" width="5.4" height="5.4"/>
		
			<rect x="1392.1" y="314.5" transform="matrix(0.4196 -0.9077 0.9077 0.4196 521.6547 1450.1852)" class="st27" width="5.4" height="5.4"/>
		
			<rect x="1434.4" y="331.9" transform="matrix(0.4196 -0.9077 0.9077 0.4196 530.3199 1498.6425)" class="st27" width="5.4" height="5.4"/>
		
			<rect x="1420.4" y="333.4" transform="matrix(0.4196 -0.9077 0.9077 0.4196 520.8362 1486.8484)" class="st27" width="5.4" height="5.4"/>
		
			<rect x="1473.6" y="358.6" transform="matrix(0.4196 -0.9077 0.9077 0.4196 528.9293 1549.7386)" class="st27" width="5.4" height="5.4"/>
		
			<rect x="1449.2" y="358.2" transform="matrix(0.4196 -0.9077 0.9077 0.4196 515.0602 1527.3859)" class="st27" width="5.4" height="5.4"/>
		
			<rect x="1478.1" y="367.8" transform="matrix(0.4196 -0.9077 0.9077 0.4196 523.1619 1559.1965)" class="st27" width="5.4" height="5.4"/>
		
			<rect x="1526.5" y="366" transform="matrix(0.9077 -0.4196 0.4196 0.9077 -13.578 675.6766)" class="st1" width="5.4" height="5.4"/>
		
			<rect x="1532" y="372.5" transform="matrix(0.9578 -0.2874 0.2874 0.9578 -43.0982 456.905)" class="st1" width="5.4" height="5.4"/>
		
			<rect x="1518.6" y="372.9" transform="matrix(0.9982 -6.007259e-02 6.007259e-02 0.9982 -19.8158 92.0672)" class="st27" width="5.4" height="5.4"/>
		
			<rect x="1493.8" y="361.9" transform="matrix(0.5887 -0.8083 0.8083 0.5887 320.7442 1359.5823)" class="st1" width="5.4" height="5.4"/>
		
			<rect x="1498" y="370.4" transform="matrix(0.2538 -0.9673 0.9673 0.2538 758.971 1729.9493)" class="st1" width="5.4" height="5.4"/>
		
			<rect x="1511.1" y="364.3" transform="matrix(0.3876 -0.9218 0.9218 0.3876 588.7778 1620.2214)" class="st1" width="5.4" height="5.4"/>
		
			<rect x="1507.4" y="371.6" transform="matrix(0.5887 -0.8083 0.8083 0.5887 318.4952 1374.5648)" class="st27" width="5.4" height="5.4"/>
		<path class="st9" d="M1543,419.3H996.6V87.5H1543V419.3z M998.6,417.3H1541V89.5H998.6V417.3z"/>
		<polygon class="st1" points="1188,481.6 1186,481.6 1186,460.5 1147.3,418.5 1148.8,417.1 1188,459.8 		"/>
		<polygon class="st1" points="1202.3,481.6 1200.3,481.6 1200.3,460.5 1163.8,418.5 1165.3,417.2 1202.3,459.8 		"/>
		<polygon class="st1" points="1216.7,481.6 1214.7,481.6 1214.7,460.5 1179.4,418.5 1180.9,417.2 1216.7,459.8 		"/>
		<path class="st1" d="M1296.8,617.9H1109V481h187.8V617.9z M1110.9,615.9h183.8V483h-183.8V615.9z"/>
		<rect x="1122.9" y="493.5" class="st1" width="160" height="111.9"/>
		<rect x="1137.1" y="507.7" class="st2" width="32.7" height="4.1"/>
		<rect x="1137.1" y="526" class="st2" width="44.8" height="4.1"/>
		<rect x="1137.1" y="535.6" class="st2" width="33.5" height="4.1"/>
		<rect x="1137.1" y="545.3" class="st2" width="52.5" height="4.1"/>
		<rect x="1137.1" y="573.9" class="st2" width="129.1" height="9.2"/>
		<rect x="1137.1" y="573.9" class="st4" width="85.5" height="9.2"/>
		<path class="st31" d="M210.6,278.1c-0.5,0-13.2-0.9-23.4-9.7c-10.1-8.7-12.9-17.9-14.5-30.9c-1.5-12.3-2.7-20.3-9.7-27.7
			s-21.4-7.6-21.5-7.6v-2c0.6,0,15.4,0.2,23,8.2c7.4,7.9,8.7,16.1,10.2,28.8c1.5,12.5,4.2,21.3,13.8,29.6c9.7,8.4,22.1,9.2,22.2,9.3
			L210.6,278.1z"/>
		<path class="st32" d="M210.5,275.3c-0.5-0.1-11.9-1.4-19.9-9c-8-7.7-10.4-17.2-11.9-31.1c-1.4-13.6-7.5-25.8-15.9-31.6
			c-8.3-5.8-21.1-4-21.2-4l-0.3-2c0.6-0.1,13.6-2,22.6,4.3c8.9,6.2,15.3,18.8,16.7,33.1c1.4,13.8,3.6,22.6,11.2,29.9
			c7.5,7.2,18.6,8.5,18.7,8.5L210.5,275.3z"/>
		<path class="st32" d="M210.4,272.5c-4.1-0.8-8-2.2-11.6-4.3l1-1.7c3.4,2,7,3.3,10.8,4.1L210.4,272.5z M190.5,259.1
			c-1.8-3.7-3.1-7.6-3.8-11.6l2-0.4c0.7,3.9,1.9,7.6,3.6,11.1L190.5,259.1z M185,235.5c-0.1-0.9-0.2-1.7-0.2-2.6
			c-0.3-3.1-0.8-6.1-1.5-9.1l1.9-0.5c0.8,3.1,1.3,6.2,1.6,9.4c0.1,0.9,0.2,1.8,0.2,2.6L185,235.5z M179.1,212.8
			c-1.8-3.5-4.2-6.6-7-9.3l1.4-1.5c3,2.8,5.5,6.1,7.4,9.8L179.1,212.8z M162.2,197.7c-3.6-1.1-7.3-1.7-11.1-1.6h-0.4v-2h0.4
			c4,0,7.9,0.5,11.7,1.7L162.2,197.7z"/>
		<path class="st32" d="M243.5,255.1l-0.5-1.9c3.8-1.1,7.5-2.5,11-4.3l0.9,1.8C251.2,252.5,247.4,254,243.5,255.1z M265,243.9
			l-1.3-1.5c1.3-1.2,2.6-2.5,3.6-3.9c1.1-1.4,2.2-3.1,3.6-5.3l1.7,1c-1.4,2.2-2.6,4-3.7,5.4C267.8,241.2,266.5,242.6,265,243.9z
			 M278.6,223.8l-1.7-1c1.8-3.2,3.9-6.9,6.1-10.4l1.7,1.1C282.5,217,280.4,220.7,278.6,223.8L278.6,223.8z M291.6,203.9l-1.5-1.3
			c2.2-2.8,4.9-5.2,7.8-7.2c0.5-0.3,1-0.6,1.4-0.9l1,1.7c-0.5,0.3-0.9,0.6-1.4,0.9C296.2,199,293.7,201.3,291.6,203.9L291.6,203.9z
			 M310.9,191.2l-0.6-1.9c3.9-1.3,7.8-2.2,11.8-2.8l0.3,2C318.5,189.1,314.7,190,310.9,191.2L310.9,191.2z M334.3,187.4l-0.1-2
			c0.7,0,1.4-0.1,2.2-0.1l0.1,2C335.7,187.4,335,187.4,334.3,187.4L334.3,187.4z"/>
		<path class="st32" d="M240.8,255.1l-0.5-1.9c0.2,0,15.5-3.9,21.8-14.4c2.9-5.1,5.4-10.4,7.7-15.9c4.4-10,9.5-21.4,15.8-28.5
			c7.7-8.6,20.4-19.3,50.8-25.8l0.4,2c-29.8,6.4-42.3,16.8-49.8,25.2c-6.1,6.8-11,18-15.4,28c-2.3,5.5-4.9,10.9-7.8,16.1
			C257,251,241.4,255,240.8,255.1z"/>
		<path class="st31" d="M238.1,255.1l-0.4-1.9c0.1,0,14.4-3.4,19.3-14.2c2.3-5,4.4-11.7,6.6-18.9c2.9-9.3,5.9-18.9,9.8-26.7
			c9.4-18.7,30.3-32.7,61.9-41.8l0.6,1.9c-31.1,8.9-51.5,22.7-60.6,40.8c-3.8,7.6-6.8,17.1-9.7,26.4c-2.2,7.2-4.4,14.1-6.7,19.1
			C253.5,251.5,238.7,255,238.1,255.1z"/>
		<path class="st32" d="M143.4,417.7c-1.2,0-2.4,0-3.7-0.1l0.1-2c23.7,0.8,42.1-6.5,54.7-21.8c7.5-9,10.9-20.9,10.7-37.2
			c-0.1-8.8-1.3-17.1-2.5-25.1c-2.7-18.2-5-34,7.2-47.3l1.5,1.4c-11.6,12.7-9.4,28-6.7,45.7c1.2,8.1,2.4,16.4,2.5,25.4
			c0.2,16.8-3.3,29.1-11.1,38.5C183.6,410.1,165.9,417.7,143.4,417.7z"/>
		<path class="st32" d="M141.5,415.6c-0.6,0-1.2,0-1.8,0l0.1-2c3.9,0.1,7.9-0.2,11.7-0.9l0.3,2C148.5,415.3,145,415.6,141.5,415.6z
			 M163.6,411.4l-0.7-1.9c3.7-1.4,7.2-3.2,10.5-5.3l1.1,1.7C171.1,408.1,167.4,409.9,163.6,411.4z M184,398.3l-1.4-1.4
			c2.2-2.1,4.2-4.4,6-6.9c0.5-0.7,1-1.4,1.5-2.2l1.7,1.1c-0.5,0.8-1,1.5-1.6,2.3C188.4,393.7,186.3,396.1,184,398.3z M197,377.8
			l-1.9-0.6c1.2-3.8,1.9-7.6,2.3-11.6l2,0.2C199,369.9,198.1,373.9,197,377.8L197,377.8z M197.8,353.8c-0.1-4-0.4-7.9-0.9-11.9
			l2-0.2c0.5,4,0.8,8,0.9,12.1H197.8z M195.2,330.1c-0.6-4-1-8-1.1-12.1h2c0.1,4,0.5,7.9,1.1,11.8L195.2,330.1z M197,306.2l-2-0.3
			c0.6-4.1,1.9-8,3.8-11.7l1.8,0.9C198.8,298.6,197.6,302.4,197,306.2L197,306.2z M207.8,286.2l-1.3-1.5c1.1-0.9,2.3-1.8,3.6-2.6
			l1.1,1.7C210,284.5,208.9,285.3,207.8,286.2z"/>
		<path class="st31" d="M140.4,413.5c-0.2,0-0.5,0-0.7,0l0.1-2c6.2,0.2,20.1-2.9,31.1-12.1c4.6-3.8,8.6-8.2,11.9-13.2
			c5.4-8.2,7.7-18.3,7.7-32.7c-0.1-6.7-0.8-13.3-2-19.8c-1.1-7.4-2.2-14.4-1.4-20.9c1.4-11.8,6.6-27,23.2-32.7l0.7,1.9
			c-15.7,5.4-20.6,19.9-21.9,31.1c-0.8,6.3,0.3,13.1,1.4,20.4c1.2,6.6,1.9,13.4,2,20.1c0,14.8-2.4,25.2-8,33.8
			c-3.4,5.1-7.5,9.7-12.3,13.6C161.1,410.2,147.4,413.5,140.4,413.5z"/>
		<path class="st31" d="M139.9,411.4c-0.1,0-0.1,0-0.2,0l0.1-2c3.6,0.1,17.4-4,27.3-14c3.9-3.9,7.2-8.2,9.9-13
			c4.3-7.8,6.2-17.2,6.2-30.4c0-7-1.1-13.6-2.1-20c-1.4-8.3-2.7-16.2-1-23.4c1.9-8.1,8.7-27.4,30.5-30.5l0.3,2
			c-20.6,3-27,21.3-28.8,29c-1.6,6.8-0.3,14.5,1,22.6c1.1,6.4,2.2,13.1,2.2,20.3c0,13.6-2,23.2-6.5,31.4c-2.7,5-6.2,9.5-10.2,13.5
			C158.2,407.3,144.1,411.4,139.9,411.4z"/>
		<polygon class="st33" points="198.7,279 198.7,248.7 226.8,244.8 226.8,275.1 		"/>
		<polygon class="st34" points="226.8,244.8 243.9,254.1 243.9,284.4 226.8,275.1 		"/>
		<polygon class="st35" points="226.8,275.1 243.9,284.4 215.8,288.3 198.7,279 		"/>
		<path class="st32" d="M0.2,354.2L0.2,354.2c2.2,3.5,4.3,7.2,6,10.3l1.7-1c-1.8-3.2-3.9-6.9-6.1-10.4L0.2,354.2z"/>
		<path class="st32" d="M30.9,389.6l-0.9,1.8c3.6,1.9,7.5,3.3,11.4,4.5l0.5-1.9C38.1,392.8,34.4,391.4,30.9,389.6z"/>
		<path class="st32" d="M17.5,379.2c-1.1-1.4-2.2-3.1-3.6-5.3l-1.7,1c1.1,1.9,2.4,3.7,3.7,5.4c1.2,1.5,2.5,2.9,3.9,4.2l1.3-1.5
			C19.8,381.9,18.6,380.6,17.5,379.2z"/>
		<path class="st32" d="M22.7,379.4c-2.9-5.1-5.4-10.4-7.7-15.9c-4.2-9.6-9-20.3-14.8-27.4v3.3c5,6.8,9.2,16.4,13,24.9
			c2.3,5.5,4.9,10.9,7.8,16.1c6.8,11.3,22.4,15.2,23.1,15.3l0.5-1.9C44.4,393.8,29.1,390,22.7,379.4z"/>
		<path class="st31" d="M27.9,379.7c-2.3-5-4.4-11.7-6.6-18.9c-2.9-9.3-5.9-18.9-9.8-26.7c-2.9-5.7-6.7-10.8-11.3-15.3v2.9
			c3.8,4,7,8.4,9.5,13.3c3.8,7.6,6.8,17.1,9.7,26.4c2.2,7.2,4.4,14.1,6.7,19.1c5.3,11.7,20.1,15.2,20.7,15.3l0.4-1.9
			C47,393.8,32.8,390.4,27.9,379.7z"/>
		<path class="st32" d="M0.2,162.2v2.3c2.8-1.6,5.3-2.9,7.7-4L7,158.7C4.9,159.7,2.6,160.9,0.2,162.2z"/>
		<path class="st32" d="M18.3,154.2l0.6,1.9c3.7-1.2,7.6-2,11.5-2.3l-0.2-2C26.2,152.1,22.2,152.9,18.3,154.2z"/>
		<path class="st32" d="M64.7,162.2l-1.1,1.7c4.4,2.9,7.5,5.8,8.2,7.7l1.9-0.7C72.5,167.7,67.5,164.1,64.7,162.2z"/>
		<path class="st32" d="M42.1,154.3c3.8,0.9,7.6,2.3,11.1,3.9l0.8-1.8c-3.7-1.7-7.5-3.1-11.5-4.1L42.1,154.3z"/>
		<path class="st32" d="M47.2,144.4c-10-3.1-23.9-5.3-47,1.1v2.1c22.9-6.4,36.7-4.3,46.5-1.3c15.6,4.8,27,17.7,29.3,25.2l1.9-0.6
			C74.1,158.6,57.7,147.6,47.2,144.4z"/>
		<path class="st31" d="M57.2,137.2c-14.3-9-33.4-11.5-57-7.7v2c23.2-3.9,41.9-1.4,55.9,7.3c19.6,12.3,23.6,26.8,24.5,32.4l2-0.3
			C79.9,153.2,63.9,141.5,57.2,137.2z"/>
		<polygon class="st9" points="0.2,87.5 0.2,89.5 335.7,89.5 335.7,417.6 0.2,547.1 0.2,549.2 337.1,419.2 337.7,419 337.7,87.5 		
			"/>
		<polygon class="st10" points="1920.2,253.3 1842.9,241.3 1842.1,203.8 1920.2,216 1920.2,213.9 1840.1,201.5 1841,243.1 
			1920.2,255.4 		"/>
		<polygon class="st9" points="1920.2,330 1841.6,309.3 1841.5,348.6 1920.2,369.4 		"/>
		<polygon class="st9" points="1920.2,539.9 1603.2,417.6 1603.2,89.5 1920.2,110.8 1920.2,108.8 1602.3,87.5 1601.2,87.4 
			1601.2,419 1920.2,542.1 		"/>
		<polygon class="st33" points="41.6,379.5 41.8,448.2 105.5,457.2 105.3,388.4 		"/>
		<polygon class="st34" points="105.5,457.2 144.3,436 144.2,367.3 105.3,388.4 		"/>
		<polygon class="st35" points="105.3,388.4 144.2,367.3 80.5,358.4 41.6,379.5 		"/>
		<polygon class="st33" points="151.4,204.7 151.3,154.9 105.1,148.4 105.2,198.2 		"/>
		<polygon class="st34" points="105.2,198.2 77,213.6 123.3,220.1 151.4,204.7 		"/>
		<polygon class="st35" points="105.1,148.4 77,163.7 77,213.6 105.2,198.2 		"/>
	</g>
</g>
</svg>
