<?xml version="1.0" encoding="utf-8"?>
<!-- Generator: Adobe Illustrator 24.2.3, SVG Export Plug-In . SVG Version: 6.00 Build 0)  -->
<svg version="1.1" id="Ebene_1" xmlns="http://www.w3.org/2000/svg" xmlns:xlink="http://www.w3.org/1999/xlink" x="0px" y="0px"
	 viewBox="0 0 1920 1080" style="enable-background:new 0 0 1920 1080;" xml:space="preserve">
<style type="text/css">
	.st0{fill:#3A2A78;}
	.st1{opacity:0.45;fill:url(#SVGID_1_);}
	.st2{fill:#1A9469;}
	.st3{opacity:0.4;}
	.st4{clip-path:url(#SVGID_3_);}
	.st5{fill:#3A2B78;}
	.st6{clip-path:url(#SVGID_5_);}
	.st7{clip-path:url(#SVGID_7_);}
	.st8{fill:#9E80A9;}
	.st9{clip-path:url(#SVGID_9_);}
</style>
<g>
	<g id="b447cbb9-0c45-4138-9f67-5e783feada8d">
		<rect class="st0" width="1920" height="1080"/>
		
			<linearGradient id="SVGID_1_" gradientUnits="userSpaceOnUse" x1="0" y1="540" x2="1920" y2="540" gradientTransform="matrix(-1 0 0 1 1920 0)">
			<stop  offset="5.455416e-02" style="stop-color:#3A2A78"/>
			<stop  offset="1" style="stop-color:#000000"/>
		</linearGradient>
		<rect class="st1" width="1920" height="1080"/>
		<path class="st2" d="M798.7,482.2c-51.9-22.7-97.6-57.6-133.3-101.7c-28.8-35.3-50.6-75.7-64.1-119.1l12-3.7
			c13.1,41.9,34.1,81,61.9,115c34.4,42.5,78.5,76.2,128.6,98.1L798.7,482.2z M1094.9,478.8l-5.3-11.3c25.6-12,49.6-27.1,71.5-45
			c54.8-44.4,94.6-104.6,113.9-172.5l12,3.4c-20.1,70.3-61.3,132.7-118.1,178.7C1146.3,450.6,1121.4,466.3,1094.9,478.8z"/>
		<path class="st2" d="M1270.5,354.2l-1.5-0.9c15.2-24.9,27.5-51.5,36.7-79.3l1.7,0.6C1298.2,302.5,1285.8,329.2,1270.5,354.2z"/>
		<path class="st2" d="M942.5,538.2c-37.3,0-74.4-5.5-110.1-16.2l0.5-1.7c35.5,10.7,72.5,16.2,109.6,16.2c33,0,65.9-4.2,97.8-12.6
			l0.5,1.7C1008.7,533.9,975.7,538.2,942.5,538.2L942.5,538.2z"/>
		<path class="st2" d="M608.7,342.8c-14.4-25.6-25.8-52.7-34-80.9l1.7-0.5c8.1,28.1,19.5,55.1,33.8,80.5L608.7,342.8z"/>
		<g class="st3">
			<path class="st2" d="M584.4,145.5l-17.9-0.5c0.6-22.2,3.1-44.3,7.5-66.1l17.5,3.6C587.4,103.3,585,124.4,584.4,145.5z"/>
			<path class="st2" d="M1300,116.3c-2-14.3-4.3-27.1-4.4-28c-2.2-11.6-4.9-23.2-8.2-34.4l17.2-5c3.5,11.9,6.4,24,8.6,36.2l0,0.1
				c0,0.1,2.4,13.5,4.5,28.6L1300,116.3z"/>
		</g>
		<g class="st3">
			<path class="st2" d="M885.6,526.7c-44-6.7-86.4-21.2-125.3-42.8l8.7-15.6c37.1,20.6,77.5,34.4,119.4,40.8L885.6,526.7z
				 M1018,523.7l-3.5-17.5c41.5-8.4,81.3-24.1,117.3-46.5l9.4,15.2C1103.4,498.3,1061.7,514.9,1018,523.7L1018,523.7z M657.6,400.2
				c-2.2-2.6-4.5-5.3-6.6-7.9c-25.9-31.8-46.5-67.6-60.9-106.1l16.8-6.3c13.7,36.6,33.3,70.7,58,101c2.1,2.5,4.2,5.1,6.3,7.6
				L657.6,400.2z M1239.8,386.5l-14.1-11c26.1-33.4,46.1-71.1,58.9-111.5l17,5.4C1288.2,311.8,1267.3,351.4,1239.8,386.5z"/>
		</g>
		<path class="st2" d="M637.4,150.5c0-3.9,0.1-7.8,0.2-11.7l-1.8-0.1c-0.2,3.9-0.2,7.9-0.2,11.8c0,2.7,0,5.5,0.1,8.3l1.8,0
			C637.4,155.9,637.4,153.2,637.4,150.5z"/>
		<path class="st2" d="M778.9,409.7c5.6,3.5,11.5,6.9,17.3,10.1l0.8-1.6c-5.8-3.1-11.6-6.5-17.2-10L778.9,409.7z"/>
		<path class="st2" d="M718.7,357.4l-1.3,1.2c4.5,4.9,9.3,9.7,14.1,14.3l1.2-1.3C727.9,367,723.2,362.3,718.7,357.4z"/>
		<path class="st2" d="M942.2,454.8h-0.1c-3.8,0-7.7-0.1-11.5-0.2l-0.1,1.8c3.9,0.1,7.8,0.2,11.7,0.2c2.8,0,5.6,0,8.4-0.1l0-1.8
			C947.8,454.8,945,454.8,942.2,454.8z"/>
		<path class="st2" d="M851.7,443c6.4,2,12.9,3.7,19.3,5.3l0.4-1.7c-6.4-1.5-12.9-3.3-19.2-5.2L851.7,443z"/>
		<path class="st2" d="M890.7,452.3c6.6,1.1,13.2,2,19.9,2.7l0.2-1.8c-6.6-0.7-13.2-1.6-19.8-2.7L890.7,452.3z"/>
		<path class="st2" d="M814.2,428.7c6,2.8,12.3,5.4,18.5,7.7l0.6-1.7c-6.2-2.4-12.4-4.9-18.4-7.7L814.2,428.7z"/>
		<path class="st2" d="M692.1,327.5c3.9,5.4,7.9,10.8,12.2,16l1.4-1.1c-4.2-5.1-8.2-10.5-12.1-15.9L692.1,327.5z"/>
		<path class="st2" d="M746.5,386.2c5.1,4.2,10.4,8.4,15.8,12.3l1-1.4c-5.4-3.9-10.7-8-15.7-12.2L746.5,386.2z"/>
		<path class="st2" d="M643.2,218.3c1.5,6.5,3.2,13,5.1,19.4l1.7-0.5c-1.9-6.3-3.6-12.8-5.1-19.3L643.2,218.3z"/>
		<path class="st2" d="M637.3,118.7l1.8,0.2c0.7-6.6,1.6-13.2,2.7-19.8l-1.8-0.3C638.9,105.4,638,112,637.3,118.7z"/>
		<path class="st2" d="M671,293.4c3.1,5.9,6.5,11.7,10,17.4l1.5-0.9c-3.5-5.6-6.8-11.5-9.9-17.3L671,293.4z"/>
		<path class="st2" d="M636.9,178.7c0.6,6.6,1.5,13.3,2.5,19.9l1.8-0.3c-1-6.5-1.9-13.2-2.5-19.8L636.9,178.7z"/>
		<path class="st2" d="M655.8,40.9l1.7,0.6c2.4-6.2,5-12.4,7.7-18.4l-1.6-0.7C660.8,28.4,658.2,34.6,655.8,40.9z"/>
		<path class="st2" d="M644,79.2l1.7,0.4c1.5-6.4,3.3-12.9,5.2-19.2l-1.7-0.5C647.3,66.2,645.5,72.7,644,79.2z"/>
		<path class="st2" d="M654.7,256.8c2.3,6.2,4.9,12.5,7.6,18.6l1.6-0.7c-2.7-6-5.2-12.2-7.5-18.5L654.7,256.8z"/>
		<path class="st2" d="M1084.4,419.5l0.8,1.6c5.9-3.1,11.7-6.5,17.4-10l-0.9-1.5C1096,413,1090.2,416.4,1084.4,419.5z"/>
		<path class="st2" d="M1242,201.9l1.8,0.3c1.1-6.6,2-13.2,2.7-19.9l-1.8-0.2C1244.1,188.7,1243.1,195.4,1242,201.9z"/>
		<path class="st2" d="M1233.9,63.7c1.9,6.3,3.6,12.8,5,19.3l1.7-0.4c-1.5-6.5-3.2-13-5.1-19.4L1233.9,63.7z"/>
		<path class="st2" d="M1232.7,240.6l1.7,0.5c2-6.4,3.8-12.9,5.3-19.3l-1.7-0.4C1236.5,227.9,1234.7,234.3,1232.7,240.6z"/>
		<path class="st2" d="M1246.3,142.3c0.1,2.6,0.1,5.2,0.1,7.8c0,4-0.1,8.1-0.2,12.2l1.8,0.1c0.2-4.1,0.2-8.2,0.2-12.2
			c0-2.6,0-5.2-0.1-7.8L1246.3,142.3z"/>
		<path class="st2" d="M674.9,0c-0.8,1.5-1.6,2.9-2.4,4.4l1.6,0.9c1-1.8,1.9-3.5,2.9-5.3"/>
		<path class="st2" d="M1206.8,0c1.6,2.8,3.1,5.6,4.6,8.4l1.6-0.8c-1.3-2.5-2.7-5.1-4.1-7.6"/>
		<path class="st2" d="M1220.1,26.3c2.7,6.1,5.2,12.3,7.5,18.5l1.7-0.6c-2.3-6.2-4.8-12.5-7.6-18.6L1220.1,26.3z"/>
		<path class="st2" d="M1247,122.2c-0.6-6.6-1.4-13.3-2.5-19.9l-1.8,0.3c1,6.5,1.9,13.2,2.5,19.8L1247,122.2z"/>
		<path class="st2" d="M1176.1,345.1l1.4,1.1c4.3-5.1,8.4-10.4,12.3-15.8l-1.4-1.1C1184.4,334.7,1180.3,340,1176.1,345.1z"/>
		<path class="st2" d="M1118.3,398.5l1,1.5c5.4-3.9,10.8-7.9,16-12.2l-1.1-1.4C1129,390.6,1123.7,394.7,1118.3,398.5z"/>
		<path class="st2" d="M1048,435.8l0.6,1.7c6.2-2.3,12.5-4.9,18.6-7.6l-0.7-1.6C1060.4,430.9,1054.2,433.5,1048,435.8z"/>
		<path class="st2" d="M1009.8,447.2l0.4,1.7c6.5-1.5,13-3.2,19.4-5.1l-0.5-1.7C1022.7,444,1016.3,445.7,1009.8,447.2z"/>
		<path class="st2" d="M970.4,453.5l0.2,1.8c6.6-0.6,13.3-1.5,19.9-2.5l-0.3-1.8C983.7,452,977,452.9,970.4,453.5z"/>
		<path class="st2" d="M1199.5,312.9l1.5,1c3.6-5.6,7-11.4,10.1-17.3l-1.6-0.9C1206.4,301.5,1203,307.3,1199.5,312.9z"/>
		<path class="st2" d="M1218.5,277.8l1.6,0.7c2.8-6,5.4-12.3,7.8-18.5l-1.7-0.6C1223.9,265.7,1221.3,271.8,1218.5,277.8z"/>
		<path class="st2" d="M1148.6,373.9l1.2,1.3c4.9-4.5,9.7-9.3,14.3-14.1l-1.3-1.2C1158.2,364.7,1153.5,369.4,1148.6,373.9z"/>
		
			<rect x="1082.8" y="315.3" transform="matrix(0.8522 -0.5233 0.5233 0.8522 -45.2571 625.769)" class="st2" width="4.2" height="155.3"/>
		<polygon class="st2" points="1045.9,329.2 1027.9,326 1028.6,321.9 1042.5,324.4 1045,310.4 1049.1,311.2 		"/>
		<g>
			<defs>
				<line id="SVGID_2_" x1="1125.5" y1="459.2" x2="1091.1" y2="403.1"/>
			</defs>
			<clipPath id="SVGID_3_">
				<use xlink:href="#SVGID_2_"  style="overflow:visible;"/>
			</clipPath>
			<g class="st4">
				<polygon class="st5" points="1094.3,403.1 1125.5,427.8 1125.5,434.8 1112.4,451.3 1091.1,434.5 1091.1,403.1 				"/>
				<polygon class="st5" points="1125.5,459.1 1125.4,459.2 1122.3,459.2 1112.4,451.3 1125.5,434.8 				"/>
				<polygon class="st5" points="1125.4,459.2 1125.5,459.1 1125.5,459.2 				"/>
			</g>
		</g>
		
			<rect x="1103.4" y="398.2" transform="matrix(0.8522 -0.5233 0.5233 0.8522 -61.7549 643.6652)" class="st2" width="9.8" height="65.8"/>
		
			<rect x="627.6" y="286.5" transform="matrix(0.9003 -0.4353 0.4353 0.9003 -59.1301 319.1813)" class="st2" width="79" height="4.2"/>
		<polygon class="st2" points="723.8,282.1 699.9,272.6 709.7,248.5 713.6,250.1 705.4,270.3 725.3,278.2 		"/>
		<g>
			<defs>
				<line id="SVGID_4_" x1="631.5" y1="305.8" x2="684.7" y2="280.1"/>
			</defs>
			<clipPath id="SVGID_5_">
				<use xlink:href="#SVGID_4_"  style="overflow:visible;"/>
			</clipPath>
			<g class="st6">
				<polygon class="st5" points="679.4,280.1 647.8,305.8 631.5,305.8 631.5,280.1 				"/>
				<polygon class="st5" points="684.7,280.1 653.1,305.8 647.8,305.8 679.4,280.1 				"/>
				<polygon class="st5" points="653.1,305.8 684.7,280.1 684.7,280.1 684.7,305.8 				"/>
			</g>
		</g>
		
			<rect x="628.5" y="288.1" transform="matrix(0.9004 -0.4351 0.4351 0.9004 -61.9167 315.5261)" class="st2" width="59.1" height="9.8"/>
		<g>
			<defs>
				<line id="SVGID_6_" x1="631.5" y1="305.8" x2="646.2" y2="298.7"/>
			</defs>
			<clipPath id="SVGID_7_">
				<use xlink:href="#SVGID_6_"  style="overflow:visible;"/>
			</clipPath>
			<g class="st7">
				<polygon class="st5" points="644.7,298.7 636,305.8 631.5,305.8 631.5,298.7 				"/>
				<polygon class="st5" points="646.2,298.7 637.5,305.8 636,305.8 644.7,298.7 				"/>
				<polygon class="st5" points="637.5,305.8 646.2,298.7 646.2,298.7 646.2,305.8 				"/>
			</g>
		</g>
		
			<rect x="630.7" y="298.7" transform="matrix(0.9003 -0.4352 0.4352 0.9003 -67.8799 308.1248)" class="st2" width="16.3" height="7.2"/>
		<path class="st8" d="M697.7,917.7c-15,0-25-2.7-25.6-2.9l0.8-2.9c0.2,0.1,19.1,5.1,43.7,1.3c22.6-3.6,54.9-15.7,79.9-53.2
			c0.4-0.6,39.9-55.3,68.1-76.1c17.2-12.7,42.6-17.6,64.8-12.7c12.5,2.8,29.4,9.9,39.4,28.3c6.5,11.9,10.2,24.4,13.8,36.5
			c7.4,24.9,14.4,48.4,44.3,61.2c12.5,5.4,34.3,7.3,66.7-14.2c12.3-8.3,23.7-17.8,34-28.5l0.2-0.2l0.3-0.1
			c2.6-1.3,63.9-31.1,76.3-29.8l-0.3,3c-0.2,0-0.4,0-0.7,0c-10.9,0-56.4,21-73.7,29.5c-10.4,10.8-21.9,20.5-34.4,28.8
			c-26.6,17.5-50.6,22.5-69.5,14.4c-31.2-13.4-38.4-37.5-46-63.1c-3.6-11.9-7.2-24.3-13.5-35.9c-9.4-17.4-25.5-24.1-37.4-26.8
			c-21.4-4.8-45.9,0-62.4,12.2c-27.8,20.5-67,74.8-67.4,75.4c-25.6,38.4-58.7,50.8-82,54.5C710.6,917.3,704.1,917.7,697.7,917.7z"/>
		<path class="st8" d="M714,908.4c-14.3-0.1-28.5-2.5-42.1-7.1l1.1-2.8c0.5,0.2,51.6,19.5,89.5-7.1c17-11.9,26.9-23.5,38.1-44.6
			c2.9-5.4,38.7-55.3,67.7-73.1c16.2-9.9,38.9-12.8,59.1-7.4c17.7,4.7,31.7,15,39.5,29.1c5.8,10.4,10,21.5,14.1,32.2
			c5.2,13.5,10,26.3,17.8,37.8c7.4,11,17.4,19.2,30.5,24.9c8.4,3.7,39.1,13.1,81.3-21.6c11.1-9.1,17.8-16.7,18.9-18.3
			c0.5-0.8,2.3-1.8,11.2-6.7c2.7-1.5,5.7-3.1,8.9-5c18.8-10.6,47.3-22.8,54.4-22l-0.3,3c-5.8-0.6-32.8,10.6-52.6,21.7
			c-3.3,1.8-6.3,3.5-8.9,5c-4.9,2.7-9.5,5.2-10.3,5.9c-1.4,1.9-8.1,9.6-19.4,18.8c-11,9-49.6,37.4-84.4,22c-13.6-6-24-14.5-31.8-26
			c-8-11.8-13.1-25.3-18.1-38.4c-4.1-10.6-8.2-21.6-13.9-31.8c-7.4-13.4-20.8-23.2-37.6-27.7c-19.5-5.1-41.3-2.4-56.8,7.1
			c-28.6,17.5-63.8,66.6-66.6,71.9c-11.5,21.5-21.7,33.4-39.1,45.6C748.3,905,730,908.4,714,908.4z"/>
		<path class="st8" d="M726.6,899.6c-6.6,0-13.2-0.6-19.7-1.7c-12-2.1-23.8-5.5-35.1-10.3l1.2-2.7c0.6,0.3,59.9,26.8,95.1-0.9
			c18.2-14.3,23.9-25.4,35.2-47.5l1.6-3.1c4.3-8.3,36.6-54.7,67.3-70c14.7-7.3,33.5-8.5,51.5-3.2c18.2,5.3,33.4,16.6,41.6,31
			c4.8,8.5,9.1,17.6,13.2,26.3c6.6,13.9,13.3,28.3,22.7,41.1c8,10.8,18.6,19.3,30.9,24.6c28.5,12.9,61.7-1.9,81.5-18.5
			c9.6-8,15.8-15,18.3-18.8c0.8-1.2,3.7-3.1,10-7.2c2.6-1.7,5.6-3.6,8.8-5.8c19.6-13.2,47.6-24.6,53.4-24l-0.3,3
			c-4.1-0.4-30.3,9.4-51.4,23.5c-3.3,2.2-6.2,4.1-8.9,5.9c-4.4,2.9-8.6,5.6-9.2,6.4c-1.3,1.9-6.5,9-18.9,19.4
			c-12.2,10.2-26.5,17.8-40.5,21.5c-15.9,4.2-31.2,3.3-44.2-2.6c-12.7-5.6-23.8-14.4-32.1-25.6c-9.5-13-16.3-27.6-23-41.6
			c-4.1-8.7-8.3-17.7-13.1-26.1c-16.1-28.4-59.5-41.3-89.1-26.6c-30.1,14.9-61.8,60.5-66,68.6l-1.6,3c-11.5,22.5-17.3,33.8-36,48.5
			C758.9,895.1,744.1,899.6,726.6,899.6z"/>
		<path class="st8" d="M737.7,891c-9.1-0.1-18.2-1.2-27.1-3.4c-13.4-3.2-26.4-7.8-38.8-13.7l1.4-2.7c0.7,0.3,67.9,33.7,100.8,5.3
			c16.2-14,20.3-23.4,27.2-39c2.2-5.1,4.8-10.8,8.1-17.6c6.7-13.6,35.1-54.6,66.9-66.8c14.8-5.7,32.4-4.9,49.6,2.3
			c16.2,6.7,30.1,18.3,37.9,31.7c3.1,5.4,6.2,10.8,9.3,16.5c9,16.2,18.3,33,30.5,48.4c8.4,10.4,19.1,18.8,31.3,24.3
			c25,11.6,57.1,5.6,81.7-15.4c9.9-8.4,14.5-14.5,17.8-19.3c1.2-1.8,4.7-4.5,10.1-8.6c2.2-1.7,4.8-3.7,7.5-5.8
			c19.5-15.5,47.5-26.5,52.3-26l-0.3,3c-0.1,0-0.1,0-0.2,0c-3.8,0-29.9,9.4-50,25.4c-2.7,2.2-5.3,4.1-7.5,5.8
			c-4.7,3.7-8.5,6.5-9.4,7.9c-3.2,4.7-8.1,11.1-18.3,19.9c-25.5,21.7-58.9,27.9-85,15.8c-12.6-5.8-23.7-14.4-32.4-25.2
			c-12.3-15.6-21.7-32.5-30.7-48.8c-3.2-5.7-6.2-11.1-9.3-16.5c-7.5-12.8-20.8-23.9-36.5-30.4c-16.5-6.8-33.4-7.6-47.4-2.2
			c-30.7,11.8-59,52.6-65.3,65.4c-3.3,6.7-5.8,12.4-8.1,17.4c-6.8,15.4-11.3,25.6-28,40C766.5,886.9,753.6,891,737.7,891z"/>
		<path class="st8" d="M747.8,882.6c-9.9,0-21.1-1.8-33.6-5.3c-14.7-4.3-28.9-10-42.4-17l1.4-2.6c13.4,6.9,27.4,12.5,41.9,16.8
			c37.4,10.6,55.8,3,64.6-5.3c15.9-15,19.3-24.7,24-38.1c2.8-8.3,6.1-16.5,9.9-24.4c8.7-18,33.8-54.6,66.5-63.7
			c33.7-9.4,68.8,18.3,81.9,40c9.7,16.1,24.8,40.1,43.8,62.4c8.8,10.1,19.6,18.3,31.7,24c27,12.9,58.4,8.2,82-12.2
			c6.7-5.7,12.5-12.3,17.2-19.7c1.7-2.4,5.5-5.9,10.7-10.7c1.7-1.5,3.5-3.2,5.5-5.1c20.7-19.2,48.3-28.4,51.3-28.1l-0.3,3h0
			c-2.3,0-28.8,8.6-48.9,27.3c-2,1.8-3.8,3.5-5.5,5.1c-4.9,4.5-8.8,8.1-10.3,10.2c-4.8,7.6-10.8,14.5-17.7,20.3
			c-24.5,21.2-57.2,26.1-85.2,12.7c-12.5-5.9-23.6-14.4-32.7-24.8c-19.1-22.5-34.3-46.6-44.1-62.8c-12.6-20.9-46.3-47.6-78.6-38.7
			c-31.7,8.8-56.2,44.5-64.6,62.1c-3.7,7.8-7,15.9-9.7,24.1c-4.9,13.8-8.4,23.8-24.8,39.3C773.7,878.8,762.2,882.6,747.8,882.6z"/>
		<path class="st8" d="M757.1,874.4c-36,0-82.7-26.3-85.3-27.8l1.5-2.6c14.6,8,29.8,14.7,45.5,20c40.1,13.2,58.4,6,66.6-2.4
			c16.2-16.5,18.8-26.2,22.3-39.5c2.4-10,5.8-19.7,10.2-29c7.5-16,29-53.9,66.2-60.5c14.6-2.6,30.4,2,45.9,13.3
			c12,9,22.4,20.1,30.4,32.8c10.2,16.2,26.2,36.4,47.7,59.9c9.1,9.8,20,17.8,32.1,23.7c28.9,14.2,59.6,10.8,82.2-9.1
			c7.6-6.7,10.6-11.1,15-17.8c0.5-0.8,1.1-1.6,1.6-2.4c2.5-3.7,7.2-8.8,13.8-15.9l1.2-1.3c20.9-22.5,48.4-30.1,50.2-30.1h0l-0.3,3
			c0.1,0,0.1,0,0.2,0c-2.2,0.2-28.7,8.4-47.9,29.1l-1.2,1.3c-6.4,7-11.1,12-13.5,15.5c-0.6,0.8-1.1,1.6-1.6,2.4
			c-4.4,6.6-7.6,11.4-15.5,18.4c-23.5,20.8-55.5,24.3-85.5,9.5c-12.4-6.1-23.5-14.3-32.9-24.4c-21.6-23.7-37.8-44-48.1-60.4
			c-11.3-18-41.1-50.4-73.3-44.7c-35.7,6.3-56.6,43.3-64,58.9c-4.3,9.1-7.6,18.7-10,28.5c-3.5,13.2-6.3,23.7-23.1,40.8
			C779.9,871.5,769.1,874.4,757.1,874.4z"/>
		<path class="st8" d="M1082.9,869c-8.1-0.1-16.1-1.3-23.8-3.8c-21.2-6.5-40.1-20.4-50.7-31.2c-2-2-3.9-4-5.9-6
			c-18.5-18.8-36-36.5-46.1-51.9c-9.6-14.6-35.2-53.5-68-50.8c-34.7,2.8-52.1,31.2-63.3,55.6c-6.3,13.7-8.1,23.4-9.7,32
			c-2.5,13.5-4.5,24.2-21.8,43.2c-28.6,31.5-117.8-21-121.6-23.3l1.5-2.6c0.9,0.5,90.8,53.5,117.9,23.8
			c16.7-18.4,18.7-28.7,21.1-41.8c1.6-8.7,3.5-18.6,10-32.7c11.6-25.1,29.5-54.4,65.8-57.4c34.6-2.8,60.9,37.1,70.8,52.1
			c9.9,15.1,27.3,32.8,45.8,51.4c2,2,3.9,4,5.9,6c10.3,10.5,28.8,24,49.5,30.4c25.2,7.8,47.2,3.4,65.3-12.9
			c6.2-5.6,8.6-9.2,12.5-15.3c5.3-8.3,11.1-16.3,17.3-24c20-25,47.5-31.8,48.7-32.1l0.7,2.9c-0.3,0.1-27.7,6.8-47,31
			c-6.1,7.6-11.9,15.5-17.1,23.7c-3.9,6-6.5,10-13,15.9C1114.5,863.2,1099.4,869,1082.9,869z"/>
		<circle class="st2" cx="1130.9" cy="853.4" r="9.3"/>
		<circle class="st2" cx="961.9" cy="785.2" r="9.3"/>
		<circle class="st2" cx="795.2" cy="857.4" r="9.3"/>
		<polygon class="st8" points="1227.1,715.6 1225.1,715.6 1225.1,672 651.5,672 651.5,715.6 649.5,715.6 649.5,670 1227.1,670 		"/>
		<polygon class="st8" points="1227.1,1003.5 649.5,1003.5 649.5,958.1 651.5,958.1 651.5,1001.5 1225.1,1001.5 1225.1,958.1 
			1227.1,958.1 		"/>
		<path class="st8" d="M1538.4,769.7h-8.3v-8.3h8.3V769.7z M1531,768.7h6.3v-6.3h-6.3V768.7z"/>
		<path class="st8" d="M1548.6,769.7h-8.3v-8.3h8.3V769.7z M1541.3,768.7h6.3v-6.3h-6.3V768.7z"/>
		<path class="st8" d="M1558.9,769.7h-8.3v-8.3h8.3V769.7z M1551.5,768.7h6.3v-6.3h-6.3V768.7z"/>
		<path class="st8" d="M1569.1,769.7h-8.3v-8.3h8.3V769.7z M1561.8,768.7h6.3v-6.3h-6.3V768.7z"/>
		<path class="st8" d="M1579.3,769.7h-8.3v-8.3h8.3V769.7z M1572,768.7h6.3v-6.3h-6.3V768.7z"/>
		<path class="st8" d="M1528.1,780.1h-8.3v-8.3h8.3V780.1z M1520.8,779.1h6.3v-6.3h-6.3V779.1z"/>
		<path class="st8" d="M1538.4,780.1h-8.3v-8.3h8.3V780.1z M1531,779.1h6.3v-6.3h-6.3V779.1z"/>
		<path class="st8" d="M1548.6,780.1h-8.3v-8.3h8.3V780.1z M1541.3,779.1h6.3v-6.3h-6.3V779.1z"/>
		<path class="st8" d="M1558.9,780.1h-8.3v-8.3h8.3V780.1z M1551.5,779.1h6.3v-6.3h-6.3V779.1z"/>
		<path class="st8" d="M1569.1,780.1h-8.3v-8.3h8.3V780.1z M1561.8,779.1h6.3v-6.3h-6.3V779.1z"/>
		<path class="st8" d="M1579.3,780.1h-8.3v-8.3h8.3V780.1z M1572,779.1h6.3v-6.3h-6.3V779.1z"/>
		<path class="st8" d="M1589.6,780.1h-8.3v-8.3h8.3V780.1z M1582.3,779.1h6.3v-6.3h-6.3V779.1z"/>
		<path class="st8" d="M1517.9,790.5h-8.3v-8.3h8.3V790.5z M1510.5,789.5h6.3v-6.3h-6.3V789.5z"/>
		<path class="st8" d="M1528.1,790.5h-8.3v-8.3h8.3V790.5z M1520.8,789.5h6.3v-6.3h-6.3V789.5z"/>
		<path class="st8" d="M1538.4,790.5h-8.3v-8.3h8.3V790.5z M1531,789.5h6.3v-6.3h-6.3V789.5z"/>
		<path class="st8" d="M1548.6,790.5h-8.3v-8.3h8.3V790.5z M1541.3,789.5h6.3v-6.3h-6.3V789.5z"/>
		<path class="st8" d="M1558.9,790.5h-8.3v-8.3h8.3V790.5z M1551.5,789.5h6.3v-6.3h-6.3V789.5z"/>
		<path class="st8" d="M1569.1,790.5h-8.3v-8.3h8.3V790.5z M1561.8,789.5h6.3v-6.3h-6.3V789.5z"/>
		<path class="st8" d="M1579.3,790.5h-8.3v-8.3h8.3V790.5z M1572,789.5h6.3v-6.3h-6.3V789.5z"/>
		<path class="st8" d="M1589.6,790.5h-8.3v-8.3h8.3V790.5z M1582.3,789.5h6.3v-6.3h-6.3V789.5z"/>
		<path class="st8" d="M1599.8,790.5h-8.3v-8.3h8.3V790.5z M1592.5,789.5h6.3v-6.3h-6.3V789.5z"/>
		<path class="st8" d="M1220.7,790.5h-8.3v-8.3h8.3L1220.7,790.5z M1213.4,789.5h6.3v-6.3h-6.3L1213.4,789.5z"/>
		<path class="st8" d="M1231,790.5h-8.3v-8.3h8.3V790.5z M1223.6,789.5h6.3v-6.3h-6.3V789.5z"/>
		<path class="st8" d="M1241.2,790.5h-8.3v-8.3h8.3V790.5z M1233.9,789.5h6.3v-6.3h-6.3V789.5z"/>
		<path class="st8" d="M1251.5,790.5h-8.3v-8.3h8.3V790.5z M1244.1,789.5h6.3v-6.3h-6.3V789.5z"/>
		<path class="st8" d="M1261.7,800.9h-8.3v-8.3h8.3V800.9z M1254.4,799.9h6.3v-6.3h-6.3V799.9z"/>
		<path class="st8" d="M1272,800.9h-8.3v-8.3h8.3V800.9z M1264.6,799.9h6.3v-6.3h-6.3V799.9z"/>
		<path class="st8" d="M1507.6,800.9h-8.3v-8.3h8.3L1507.6,800.9z M1500.3,799.9h6.3v-6.3h-6.3L1500.3,799.9z"/>
		<path class="st8" d="M1517.9,800.9h-8.3v-8.3h8.3V800.9z M1510.5,799.9h6.3v-6.3h-6.3V799.9z"/>
		<path class="st8" d="M1528.1,800.9h-8.3v-8.3h8.3V800.9z M1520.8,799.9h6.3v-6.3h-6.3V799.9z"/>
		<path class="st8" d="M1538.4,800.9h-8.3v-8.3h8.3V800.9z M1531,799.9h6.3v-6.3h-6.3V799.9z"/>
		<path class="st8" d="M1548.6,800.9h-8.3v-8.3h8.3V800.9z M1541.3,799.9h6.3v-6.3h-6.3V799.9z"/>
		<path class="st8" d="M1558.9,800.9h-8.3v-8.3h8.3V800.9z M1551.5,799.9h6.3v-6.3h-6.3V799.9z"/>
		<path class="st8" d="M1569.1,800.9h-8.3v-8.3h8.3V800.9z M1561.8,799.9h6.3v-6.3h-6.3V799.9z"/>
		<path class="st8" d="M1579.3,800.9h-8.3v-8.3h8.3V800.9z M1572,799.9h6.3v-6.3h-6.3V799.9z"/>
		<path class="st8" d="M1589.6,800.9h-8.3v-8.3h8.3V800.9z M1582.3,799.9h6.3v-6.3h-6.3V799.9z"/>
		<path class="st8" d="M1599.8,800.9h-8.3v-8.3h8.3V800.9z M1592.5,799.9h6.3v-6.3h-6.3V799.9z"/>
		<path class="st8" d="M1610.1,800.9h-8.3v-8.3h8.3V800.9z M1602.8,799.9h6.3v-6.3h-6.3V799.9z"/>
		<path class="st8" d="M1210.5,790.5h-8.3v-8.3h8.3L1210.5,790.5z M1203.2,789.5h6.3v-6.3h-6.3L1203.2,789.5z"/>
		<path class="st8" d="M1220.7,800.9h-8.3v-8.3h8.3L1220.7,800.9z M1213.4,799.9h6.3v-6.3h-6.3L1213.4,799.9z"/>
		<path class="st8" d="M1231,800.9h-8.3v-8.3h8.3V800.9z M1223.6,799.9h6.3v-6.3h-6.3V799.9z"/>
		<path class="st8" d="M1241.2,800.9h-8.3v-8.3h8.3V800.9z M1233.9,799.9h6.3v-6.3h-6.3V799.9z"/>
		<path class="st8" d="M1251.5,800.9h-8.3v-8.3h8.3V800.9z M1244.1,799.9h6.3v-6.3h-6.3V799.9z"/>
		<path class="st8" d="M1261.7,811.3h-8.3V803h8.3V811.3z M1254.4,810.3h6.3V804h-6.3V810.3z"/>
		<path class="st8" d="M1272,811.3h-8.3V803h8.3V811.3z M1264.6,810.3h6.3V804h-6.3V810.3z"/>
		<path class="st8" d="M1507.6,811.3h-8.3V803h8.3L1507.6,811.3z M1500.3,810.3h6.3V804h-6.3L1500.3,810.3z"/>
		<path class="st8" d="M1517.9,811.3h-8.3V803h8.3V811.3z M1510.5,810.3h6.3V804h-6.3V810.3z"/>
		<path class="st8" d="M1528.1,811.3h-8.3V803h8.3V811.3z M1520.8,810.3h6.3V804h-6.3V810.3z"/>
		<path class="st8" d="M1538.4,811.3h-8.3V803h8.3V811.3z M1531,810.3h6.3V804h-6.3V810.3z"/>
		<path class="st8" d="M1548.6,811.3h-8.3V803h8.3V811.3z M1541.3,810.3h6.3V804h-6.3V810.3z"/>
		<path class="st8" d="M1610.1,811.3h-8.3V803h8.3V811.3z M1602.8,810.3h6.3V804h-6.3V810.3z"/>
		<path class="st8" d="M1620.3,811.3h-8.3V803h8.3V811.3z M1613,810.3h6.3V804h-6.3V810.3z"/>
		<path class="st8" d="M1210.5,800.9h-8.3v-8.3h8.3L1210.5,800.9z M1203.2,799.9h6.3v-6.3h-6.3L1203.2,799.9z"/>
		<path class="st8" d="M1220.7,811.3h-8.3V803h8.3L1220.7,811.3z M1213.4,810.3h6.3V804h-6.3L1213.4,810.3z"/>
		<path class="st8" d="M1231,811.3h-8.3V803h8.3V811.3z M1223.6,810.3h6.3V804h-6.3V810.3z"/>
		<path class="st8" d="M1241.2,811.3h-8.3V803h8.3V811.3z M1233.9,810.3h6.3V804h-6.3V810.3z"/>
		<path class="st8" d="M1251.5,811.3h-8.3V803h8.3V811.3z M1244.1,810.3h6.3V804h-6.3V810.3z"/>
		<path class="st8" d="M1292.5,821.7h-8.3v-8.3h8.3V821.7z M1285.1,820.7h6.3v-6.3h-6.3V820.7z"/>
		<path class="st8" d="M1302.7,821.7h-8.3v-8.3h8.3V821.7z M1295.4,820.7h6.3v-6.3h-6.3V820.7z"/>
		<path class="st8" d="M1312.9,821.7h-8.3v-8.3h8.3V821.7z M1305.6,820.7h6.3v-6.3h-6.3V820.7z"/>
		<path class="st8" d="M1497.4,821.7h-8.3v-8.3h8.3V821.7z M1490.1,820.7h6.3v-6.3h-6.3V820.7z"/>
		<path class="st8" d="M1507.6,821.7h-8.3v-8.3h8.3L1507.6,821.7z M1500.3,820.7h6.3v-6.3h-6.3L1500.3,820.7z"/>
		<path class="st8" d="M1517.9,821.7h-8.3v-8.3h8.3V821.7z M1510.5,820.7h6.3v-6.3h-6.3V820.7z"/>
		<path class="st8" d="M1528.1,821.7h-8.3v-8.3h8.3V821.7z M1520.8,820.7h6.3v-6.3h-6.3V820.7z"/>
		<path class="st8" d="M1538.4,821.7h-8.3v-8.3h8.3V821.7z M1531,820.7h6.3v-6.3h-6.3V820.7z"/>
		<path class="st8" d="M1620.3,821.7h-8.3v-8.3h8.3V821.7z M1613,820.7h6.3v-6.3h-6.3V820.7z"/>
		<path class="st8" d="M1630.6,821.7h-8.3v-8.3h8.3V821.7z M1623.3,820.7h6.3v-6.3h-6.3V820.7z"/>
		<path class="st8" d="M1210.5,811.3h-8.3V803h8.3L1210.5,811.3z M1203.2,810.3h6.3V804h-6.3L1203.2,810.3z"/>
		<path class="st8" d="M1220.7,821.7h-8.3v-8.3h8.3L1220.7,821.7z M1213.4,820.7h6.3v-6.3h-6.3L1213.4,820.7z"/>
		<path class="st8" d="M1231,821.7h-8.3v-8.3h8.3V821.7z M1223.6,820.7h6.3v-6.3h-6.3V820.7z"/>
		<path class="st8" d="M1302.7,832.1h-8.3v-8.3h8.3V832.1z M1295.4,831.1h6.3v-6.3h-6.3V831.1z"/>
		<path class="st8" d="M1312.9,832.1h-8.3v-8.3h8.3V832.1z M1305.6,831.1h6.3v-6.3h-6.3V831.1z"/>
		<path class="st8" d="M1323.2,832.1h-8.3v-8.3h8.3V832.1z M1315.9,831.1h6.3v-6.3h-6.3V831.1z"/>
		<path class="st8" d="M1333.4,832.1h-8.3v-8.3h8.3V832.1z M1326.1,831.1h6.3v-6.3h-6.3V831.1z"/>
		<path class="st8" d="M1497.4,832.1h-8.3v-8.3h8.3V832.1z M1490.1,831.1h6.3v-6.3h-6.3V831.1z"/>
		<path class="st8" d="M1507.6,832.1h-8.3v-8.3h8.3L1507.6,832.1z M1500.3,831.1h6.3v-6.3h-6.3L1500.3,831.1z"/>
		<path class="st8" d="M1517.9,832.1h-8.3v-8.3h8.3V832.1z M1510.5,831.1h6.3v-6.3h-6.3V831.1z"/>
		<path class="st8" d="M1528.1,832.1h-8.3v-8.3h8.3V832.1z M1520.8,831.1h6.3v-6.3h-6.3V831.1z"/>
		<path class="st8" d="M1620.3,832.1h-8.3v-8.3h8.3V832.1z M1613,831.1h6.3v-6.3h-6.3V831.1z"/>
		<path class="st8" d="M1630.6,832.1h-8.3v-8.3h8.3V832.1z M1623.3,831.1h6.3v-6.3h-6.3V831.1z"/>
		<path class="st8" d="M1640.8,832.1h-8.3v-8.3h8.3L1640.8,832.1z M1633.5,831.1h6.3v-6.3h-6.3L1633.5,831.1z"/>
		<path class="st8" d="M1210.5,821.7h-8.3v-8.3h8.3L1210.5,821.7z M1203.2,820.7h6.3v-6.3h-6.3L1203.2,820.7z"/>
		<path class="st8" d="M1302.7,842.5h-8.3v-8.3h8.3V842.5z M1295.4,841.5h6.3v-6.3h-6.3V841.5z"/>
		<path class="st8" d="M1312.9,842.5h-8.3v-8.3h8.3V842.5z M1305.6,841.5h6.3v-6.3h-6.3V841.5z"/>
		<path class="st8" d="M1323.2,842.5h-8.3v-8.3h8.3V842.5z M1315.9,841.5h6.3v-6.3h-6.3V841.5z"/>
		<path class="st8" d="M1333.4,842.5h-8.3v-8.3h8.3V842.5z M1326.1,841.5h6.3v-6.3h-6.3V841.5z"/>
		<path class="st8" d="M1343.7,842.5h-8.3v-8.3h8.3V842.5z M1336.4,841.5h6.3v-6.3h-6.3V841.5z"/>
		<path class="st8" d="M1353.9,842.5h-8.3v-8.3h8.3L1353.9,842.5z M1346.6,841.5h6.3v-6.3h-6.3L1346.6,841.5z"/>
		<path class="st8" d="M1487.1,842.5h-8.3v-8.3h8.3V842.5z M1479.8,841.5h6.3v-6.3h-6.3V841.5z"/>
		<path class="st8" d="M1497.4,842.5h-8.3v-8.3h8.3V842.5z M1490.1,841.5h6.3v-6.3h-6.3V841.5z"/>
		<path class="st8" d="M1507.6,842.5h-8.3v-8.3h8.3L1507.6,842.5z M1500.3,841.5h6.3v-6.3h-6.3L1500.3,841.5z"/>
		<path class="st8" d="M1517.9,842.5h-8.3v-8.3h8.3V842.5z M1510.5,841.5h6.3v-6.3h-6.3V841.5z"/>
		<path class="st8" d="M1630.6,842.5h-8.3v-8.3h8.3V842.5z M1623.3,841.5h6.3v-6.3h-6.3V841.5z"/>
		<path class="st8" d="M1640.8,842.5h-8.3v-8.3h8.3L1640.8,842.5z M1633.5,841.5h6.3v-6.3h-6.3L1633.5,841.5z"/>
		<path class="st8" d="M1651.1,842.5h-8.3v-8.3h8.3V842.5z M1643.7,841.5h6.3v-6.3h-6.3V841.5z"/>
		<path class="st8" d="M1661.3,842.5h-8.3v-8.3h8.3L1661.3,842.5z M1654,841.5h6.3v-6.3h-6.3L1654,841.5z"/>
		<path class="st8" d="M1671.6,842.5h-8.3v-8.3h8.3V842.5z M1664.2,841.5h6.3v-6.3h-6.3V841.5z"/>
		<path class="st8" d="M1681.8,842.5h-8.3v-8.3h8.3V842.5z M1674.5,841.5h6.3v-6.3h-6.3V841.5z"/>
		<path class="st8" d="M1312.9,852.9h-8.3v-8.3h8.3V852.9z M1305.6,851.9h6.3v-6.3h-6.3V851.9z"/>
		<path class="st8" d="M1323.2,852.9h-8.3v-8.3h8.3V852.9z M1315.9,851.9h6.3v-6.3h-6.3V851.9z"/>
		<path class="st8" d="M1333.4,852.9h-8.3v-8.3h8.3V852.9z M1326.1,851.9h6.3v-6.3h-6.3V851.9z"/>
		<path class="st8" d="M1343.7,852.9h-8.3v-8.3h8.3V852.9z M1336.4,851.9h6.3v-6.3h-6.3V851.9z"/>
		<path class="st8" d="M1353.9,852.9h-8.3v-8.3h8.3L1353.9,852.9z M1346.6,851.9h6.3v-6.3h-6.3L1346.6,851.9z"/>
		<path class="st8" d="M1487.1,852.9h-8.3v-8.3h8.3V852.9z M1479.8,851.9h6.3v-6.3h-6.3V851.9z"/>
		<path class="st8" d="M1497.4,852.9h-8.3v-8.3h8.3V852.9z M1490.1,851.9h6.3v-6.3h-6.3V851.9z"/>
		<path class="st8" d="M1507.6,852.9h-8.3v-8.3h8.3L1507.6,852.9z M1500.3,851.9h6.3v-6.3h-6.3L1500.3,851.9z"/>
		<path class="st8" d="M1640.8,852.9h-8.3v-8.3h8.3L1640.8,852.9z M1633.5,851.9h6.3v-6.3h-6.3L1633.5,851.9z"/>
		<path class="st8" d="M1651.1,852.9h-8.3v-8.3h8.3V852.9z M1643.7,851.9h6.3v-6.3h-6.3V851.9z"/>
		<path class="st8" d="M1661.3,852.9h-8.3v-8.3h8.3L1661.3,852.9z M1654,851.9h6.3v-6.3h-6.3L1654,851.9z"/>
		<path class="st8" d="M1671.6,852.9h-8.3v-8.3h8.3V852.9z M1664.2,851.9h6.3v-6.3h-6.3V851.9z"/>
		<path class="st8" d="M1681.8,852.9h-8.3v-8.3h8.3V852.9z M1674.5,851.9h6.3v-6.3h-6.3V851.9z"/>
		<path class="st8" d="M1312.9,863.3h-8.3V855h8.3V863.3z M1305.6,862.3h6.3V856h-6.3V862.3z"/>
		<path class="st8" d="M1323.2,863.3h-8.3V855h8.3V863.3z M1315.9,862.3h6.3V856h-6.3V862.3z"/>
		<path class="st8" d="M1333.4,863.3h-8.3V855h8.3V863.3z M1326.1,862.3h6.3V856h-6.3V862.3z"/>
		<path class="st8" d="M1343.7,863.3h-8.3V855h8.3V863.3z M1336.4,862.3h6.3V856h-6.3V862.3z"/>
		<path class="st8" d="M1353.9,863.3h-8.3V855h8.3L1353.9,863.3z M1346.6,862.3h6.3V856h-6.3L1346.6,862.3z"/>
		<path class="st8" d="M1364.2,863.3h-8.3V855h8.3V863.3z M1356.8,862.3h6.3V856h-6.3V862.3z"/>
		<path class="st8" d="M1374.4,863.3h-8.3V855h8.3L1374.4,863.3z M1367.1,862.3h6.3V856h-6.3L1367.1,862.3z"/>
		<path class="st8" d="M1466.6,863.3h-8.3V855h8.3V863.3z M1459.3,862.3h6.3V856h-6.3V862.3z"/>
		<path class="st8" d="M1476.9,863.3h-8.3V855h8.3V863.3z M1469.6,862.3h6.3V856h-6.3V862.3z"/>
		<path class="st8" d="M1487.1,863.3h-8.3V855h8.3V863.3z M1479.8,862.3h6.3V856h-6.3V862.3z"/>
		<path class="st8" d="M1497.4,863.3h-8.3V855h8.3V863.3z M1490.1,862.3h6.3V856h-6.3V862.3z"/>
		<path class="st8" d="M1640.8,863.3h-8.3V855h8.3L1640.8,863.3z M1633.5,862.3h6.3V856h-6.3L1633.5,862.3z"/>
		<path class="st8" d="M1651.1,863.3h-8.3V855h8.3V863.3z M1643.7,862.3h6.3V856h-6.3V862.3z"/>
		<path class="st8" d="M1661.3,863.3h-8.3V855h8.3L1661.3,863.3z M1654,862.3h6.3V856h-6.3L1654,862.3z"/>
		<path class="st8" d="M1671.6,863.3h-8.3V855h8.3V863.3z M1664.2,862.3h6.3V856h-6.3V862.3z"/>
		<path class="st8" d="M1681.8,863.3h-8.3V855h8.3V863.3z M1674.5,862.3h6.3V856h-6.3V862.3z"/>
		<path class="st8" d="M1323.2,873.7h-8.3v-8.3h8.3V873.7z M1315.9,872.7h6.3v-6.3h-6.3V872.7z"/>
		<path class="st8" d="M1333.4,873.7h-8.3v-8.3h8.3V873.7z M1326.1,872.7h6.3v-6.3h-6.3V872.7z"/>
		<path class="st8" d="M1343.7,873.7h-8.3v-8.3h8.3V873.7z M1336.4,872.7h6.3v-6.3h-6.3V872.7z"/>
		<path class="st8" d="M1353.9,873.7h-8.3v-8.3h8.3L1353.9,873.7z M1346.6,872.7h6.3v-6.3h-6.3L1346.6,872.7z"/>
		<path class="st8" d="M1364.2,873.7h-8.3v-8.3h8.3V873.7z M1356.8,872.7h6.3v-6.3h-6.3V872.7z"/>
		<path class="st8" d="M1374.4,873.7h-8.3v-8.3h8.3L1374.4,873.7z M1367.1,872.7h6.3v-6.3h-6.3L1367.1,872.7z"/>
		<path class="st8" d="M1384.7,873.7h-8.3v-8.3h8.3V873.7z M1377.3,872.7h6.3v-6.3h-6.3V872.7z"/>
		<path class="st8" d="M1394.9,873.7h-8.3v-8.3h8.3V873.7z M1387.6,872.7h6.3v-6.3h-6.3V872.7z"/>
		<path class="st8" d="M1405.2,873.7h-8.3v-8.3h8.3V873.7z M1397.8,872.7h6.3v-6.3h-6.3V872.7z"/>
		<path class="st8" d="M1466.6,873.7h-8.3v-8.3h8.3V873.7z M1459.3,872.7h6.3v-6.3h-6.3V872.7z"/>
		<path class="st8" d="M1476.9,873.7h-8.3v-8.3h8.3V873.7z M1469.6,872.7h6.3v-6.3h-6.3V872.7z"/>
		<path class="st8" d="M1651.1,873.7h-8.3v-8.3h8.3V873.7z M1643.7,872.7h6.3v-6.3h-6.3V872.7z"/>
		<path class="st8" d="M1661.3,873.7h-8.3v-8.3h8.3L1661.3,873.7z M1654,872.7h6.3v-6.3h-6.3L1654,872.7z"/>
		<path class="st8" d="M1671.6,873.7h-8.3v-8.3h8.3V873.7z M1664.2,872.7h6.3v-6.3h-6.3V872.7z"/>
		<path class="st8" d="M1681.8,873.7h-8.3v-8.3h8.3V873.7z M1674.5,872.7h6.3v-6.3h-6.3V872.7z"/>
		<path class="st8" d="M1333.4,884.1h-8.3v-8.3h8.3V884.1z M1326.1,883.1h6.3v-6.3h-6.3V883.1z"/>
		<path class="st8" d="M1343.7,884.1h-8.3v-8.3h8.3V884.1z M1336.4,883.1h6.3v-6.3h-6.3V883.1z"/>
		<path class="st8" d="M1353.9,884.1h-8.3v-8.3h8.3L1353.9,884.1z M1346.6,883.1h6.3v-6.3h-6.3L1346.6,883.1z"/>
		<path class="st8" d="M1364.2,884.1h-8.3v-8.3h8.3V884.1z M1356.8,883.1h6.3v-6.3h-6.3V883.1z"/>
		<path class="st8" d="M1374.4,884.1h-8.3v-8.3h8.3L1374.4,884.1z M1367.1,883.1h6.3v-6.3h-6.3L1367.1,883.1z"/>
		<path class="st8" d="M1384.7,884.1h-8.3v-8.3h8.3V884.1z M1377.3,883.1h6.3v-6.3h-6.3V883.1z"/>
		<path class="st8" d="M1394.9,884.1h-8.3v-8.3h8.3V884.1z M1387.6,883.1h6.3v-6.3h-6.3V883.1z"/>
		<path class="st8" d="M1405.2,884.1h-8.3v-8.3h8.3V884.1z M1397.8,883.1h6.3v-6.3h-6.3V883.1z"/>
		<path class="st8" d="M1415.4,884.1h-8.3v-8.3h8.3V884.1z M1408.1,883.1h6.3v-6.3h-6.3V883.1z"/>
		<path class="st8" d="M1425.7,884.1h-8.3v-8.3h8.3V884.1z M1418.3,883.1h6.3v-6.3h-6.3V883.1z"/>
		<path class="st8" d="M1435.9,884.1h-8.3v-8.3h8.3V884.1z M1428.6,883.1h6.3v-6.3h-6.3V883.1z"/>
		<path class="st8" d="M1446.1,884.1h-8.3v-8.3h8.3V884.1z M1438.8,883.1h6.3v-6.3h-6.3V883.1z"/>
		<path class="st8" d="M1661.3,884.1h-8.3v-8.3h8.3L1661.3,884.1z M1654,883.1h6.3v-6.3h-6.3L1654,883.1z"/>
		<path class="st8" d="M1671.6,884.1h-8.3v-8.3h8.3V884.1z M1664.2,883.1h6.3v-6.3h-6.3V883.1z"/>
		<path class="st8" d="M1681.8,884.1h-8.3v-8.3h8.3V884.1z M1674.5,883.1h6.3v-6.3h-6.3V883.1z"/>
		<path class="st8" d="M1343.7,894.5h-8.3v-8.3h8.3V894.5z M1336.4,893.5h6.3v-6.3h-6.3V893.5z"/>
		<path class="st8" d="M1353.9,894.5h-8.3v-8.3h8.3L1353.9,894.5z M1346.6,893.5h6.3v-6.3h-6.3L1346.6,893.5z"/>
		<path class="st8" d="M1364.2,894.5h-8.3v-8.3h8.3V894.5z M1356.8,893.5h6.3v-6.3h-6.3V893.5z"/>
		<path class="st8" d="M1374.4,894.5h-8.3v-8.3h8.3L1374.4,894.5z M1367.1,893.5h6.3v-6.3h-6.3L1367.1,893.5z"/>
		<path class="st8" d="M1384.7,894.5h-8.3v-8.3h8.3V894.5z M1377.3,893.5h6.3v-6.3h-6.3V893.5z"/>
		<path class="st8" d="M1394.9,894.5h-8.3v-8.3h8.3V894.5z M1387.6,893.5h6.3v-6.3h-6.3V893.5z"/>
		<path class="st8" d="M1405.2,894.5h-8.3v-8.3h8.3V894.5z M1397.8,893.5h6.3v-6.3h-6.3V893.5z"/>
		<path class="st8" d="M1415.4,894.5h-8.3v-8.3h8.3V894.5z M1408.1,893.5h6.3v-6.3h-6.3V893.5z"/>
		<path class="st8" d="M1425.7,894.5h-8.3v-8.3h8.3V894.5z M1418.3,893.5h6.3v-6.3h-6.3V893.5z"/>
		<path class="st8" d="M1435.9,894.5h-8.3v-8.3h8.3V894.5z M1428.6,893.5h6.3v-6.3h-6.3V893.5z"/>
		<path class="st8" d="M1681.8,894.5h-8.3v-8.3h8.3V894.5z M1674.5,893.5h6.3v-6.3h-6.3V893.5z"/>
		<path class="st8" d="M1364.2,904.9h-8.3v-8.3h8.3V904.9z M1356.8,903.9h6.3v-6.3h-6.3V903.9z"/>
		<path class="st8" d="M1374.4,904.9h-8.3v-8.3h8.3L1374.4,904.9z M1367.1,903.9h6.3v-6.3h-6.3L1367.1,903.9z"/>
		<path class="st8" d="M1384.7,904.9h-8.3v-8.3h8.3V904.9z M1377.3,903.9h6.3v-6.3h-6.3V903.9z"/>
		<path class="st8" d="M1394.9,904.9h-8.3v-8.3h8.3V904.9z M1387.6,903.9h6.3v-6.3h-6.3V903.9z"/>
		<path class="st8" d="M1405.2,904.9h-8.3v-8.3h8.3V904.9z M1397.8,903.9h6.3v-6.3h-6.3V903.9z"/>
		<path class="st8" d="M1415.4,904.9h-8.3v-8.3h8.3V904.9z M1408.1,903.9h6.3v-6.3h-6.3V903.9z"/>
		<rect x="1270.8" y="802.5" class="st2" width="17" height="17"/>
		<rect x="1441.8" y="866.8" class="st2" width="17" height="17"/>
		<rect x="1606" y="799.1" class="st2" width="17" height="17"/>
		<rect x="442.3" y="871.8" class="st2" width="19.1" height="19.1"/>
		<rect x="271.3" y="801.5" class="st2" width="19.1" height="19.1"/>
		<rect x="606.5" y="798.1" class="st2" width="19.1" height="19.1"/>
		<rect x="335.1" y="345.6" class="st2" width="19.1" height="19.1"/>
		<rect x="483.4" y="208.4" class="st2" width="19.1" height="19.1"/>
		<rect x="293.9" y="540" class="st2" width="19.1" height="19.1"/>
		<polygon class="st8" points="1305.5,1080 1303.5,1080 1303.5,1001.5 1921.7,1001.5 1921.7,1003.5 1305.5,1003.5 		"/>
		<rect x="1512.1" y="996.2" class="st8" width="9.2" height="6.6"/>
		<rect x="1529.6" y="996.2" class="st8" width="9.2" height="6.6"/>
		<rect x="1547.2" y="996.2" class="st8" width="9.2" height="6.6"/>
		<rect x="1564.8" y="996.2" class="st8" width="9.2" height="6.6"/>
		<rect x="1582.3" y="996.2" class="st8" width="9.2" height="6.6"/>
		<rect x="1499.1" y="116.4" class="st8" width="9.2" height="6.6"/>
		<rect x="1516.7" y="116.4" class="st8" width="9.2" height="6.6"/>
		<rect x="1534.3" y="116.4" class="st8" width="9.2" height="6.6"/>
		<rect x="1551.8" y="116.4" class="st8" width="9.2" height="6.6"/>
		<rect x="1569.4" y="116.4" class="st8" width="9.2" height="6.6"/>
		<rect x="293.8" y="116.4" class="st8" width="9.2" height="6.6"/>
		<rect x="311.4" y="116.4" class="st8" width="9.2" height="6.6"/>
		<rect x="328.9" y="116.4" class="st8" width="9.2" height="6.6"/>
		<rect x="346.5" y="116.4" class="st8" width="9.2" height="6.6"/>
		<rect x="364.1" y="116.4" class="st8" width="9.2" height="6.6"/>
		<rect x="1682.2" y="670" class="st8" width="240.3" height="2"/>
		<rect x="1440.5" y="671.7" class="st8" width="9.2" height="6.6"/>
		<rect x="1423" y="671.7" class="st8" width="9.2" height="6.6"/>
		<rect x="1405.4" y="671.7" class="st8" width="9.2" height="6.6"/>
		<rect x="1387.8" y="671.7" class="st8" width="9.2" height="6.6"/>
		<rect x="1370.3" y="671.7" class="st8" width="9.2" height="6.6"/>
		<rect x="403.8" y="995.9" class="st8" width="9.2" height="6.6"/>
		<rect x="386.2" y="995.9" class="st8" width="9.2" height="6.6"/>
		<rect x="368.7" y="995.9" class="st8" width="9.2" height="6.6"/>
		<rect x="351.1" y="995.9" class="st8" width="9.2" height="6.6"/>
		<rect x="333.5" y="995.9" class="st8" width="9.2" height="6.6"/>
		<path class="st8" d="M350.2,671.9h-15v-1.8h15V671.9z M320.2,671.9h-15v-1.8h15V671.9z M290.2,671.9h-15v-1.8h15V671.9z
			 M260.2,671.9h-15v-1.8h15V671.9z"/>
		<path class="st8" d="M1672.9,671.9h-15v-1.8h15V671.9z M1642.9,671.9h-15v-1.8h15V671.9z M1612.9,671.9h-15v-1.8h15V671.9z
			 M1582.9,671.9h-15v-1.8h15V671.9z"/>
		<rect x="-9.7" y="670" class="st8" width="254.9" height="2"/>
		<rect x="475.4" y="671.7" class="st8" width="9.2" height="6.6"/>
		<rect x="492.9" y="671.7" class="st8" width="9.2" height="6.6"/>
		<rect x="510.5" y="671.7" class="st8" width="9.2" height="6.6"/>
		<rect x="528.1" y="671.7" class="st8" width="9.2" height="6.6"/>
		<rect x="545.6" y="671.7" class="st8" width="9.2" height="6.6"/>
		<path class="st2" d="M621.2,958.8h-14.9v-1.5h14.9V958.8z M591.3,958.8h-14.9v-1.5h14.9L591.3,958.8z M561.4,958.8h-14.9v-1.5
			h14.9L561.4,958.8z M531.5,958.8h-14.9v-1.5h15L531.5,958.8z M501.6,958.8h-14.9v-1.5h15L501.6,958.8z M471.7,958.8h-14.9v-1.5
			h14.9L471.7,958.8z M441.8,958.8h-14.9v-1.5h14.9L441.8,958.8z M411.9,958.8H397v-1.5h14.9L411.9,958.8z M382,958.8h-14.9v-1.5
			H382L382,958.8z M352.1,958.8h-14.9v-1.5h14.9L352.1,958.8z M322.2,958.8h-14.9v-1.5h14.9L322.2,958.8z M292.3,958.8h-14.9v-1.5
			h14.9L292.3,958.8z M262.4,958.8h-14.9v-1.5h14.9L262.4,958.8z M232.5,958.8h-14.9v-1.5h14.9V958.8z"/>
		<path class="st2" d="M621.2,705.3h-14.9v-1.5h14.9V705.3z M591.3,705.3h-14.9v-1.5h14.9L591.3,705.3z M561.4,705.3h-14.9v-1.5
			h14.9L561.4,705.3z M531.5,705.3h-14.9v-1.5h15L531.5,705.3z M501.6,705.3h-14.9v-1.5h15L501.6,705.3z M471.7,705.3h-14.9v-1.5
			h14.9L471.7,705.3z M441.8,705.3h-14.9v-1.5h14.9L441.8,705.3z M411.9,705.3H397v-1.5h14.9L411.9,705.3z M382,705.3h-14.9v-1.5
			H382L382,705.3z M352.1,705.3h-14.9v-1.5h14.9L352.1,705.3z M322.2,705.3h-14.9v-1.5h14.9L322.2,705.3z M292.3,705.3h-14.9v-1.5
			h14.9L292.3,705.3z M262.4,705.3h-14.9v-1.5h14.9L262.4,705.3z M232.5,705.3h-14.9v-1.5h14.9V705.3z"/>
		<rect x="402.8" y="524.4" class="st8" width="2" height="146.6"/>
		<rect x="382.9" y="524.4" class="st8" width="2" height="146.6"/>
		<rect x="362.9" y="524.4" class="st8" width="2" height="146.6"/>
		<rect x="242" y="524.4" class="st8" width="2" height="146.6"/>
		<rect x="222" y="524.4" class="st8" width="2" height="146.6"/>
		<rect x="202.1" y="524.4" class="st8" width="2" height="146.6"/>
		<rect x="1220.2" y="1001.5" class="st8" width="84.3" height="2"/>
		<rect x="1236.1" y="958.1" class="st8" width="2" height="44.4"/>
		<rect x="1236.1" y="671.7" class="st8" width="2" height="44.4"/>
		<rect x="638.2" y="958.1" class="st8" width="2" height="44.4"/>
		<rect x="638.2" y="671.7" class="st8" width="2" height="44.4"/>
		<rect x="1226.1" y="670" class="st8" width="335.2" height="2"/>
		<rect x="610.7" y="1001.5" class="st8" width="39.8" height="2"/>
		<rect x="403.8" y="670" class="st8" width="246.7" height="2"/>
		<rect x="462.4" y="1002.5" class="st8" width="2" height="77.5"/>
		<path class="st2" d="M1208.6,990.5H668V683h540.6V990.5z M677,981.5h522.6V692H677L677,981.5z"/>
		<rect x="1520.4" y="524.4" class="st8" width="2" height="146.6"/>
		<rect x="1540.3" y="524.4" class="st8" width="2" height="146.6"/>
		<rect x="1560.3" y="524.4" class="st8" width="2" height="146.6"/>
		<rect x="1681.2" y="524.4" class="st8" width="2" height="146.6"/>
		<rect x="1701.2" y="524.4" class="st8" width="2" height="146.6"/>
		<rect x="1721.1" y="524.4" class="st8" width="2" height="146.6"/>
		<polygon class="st2" points="204.1,964.3 -9.7,964.3 -9.7,962.3 202.1,962.3 202.1,705.5 -9.7,705.5 -9.7,703.5 204.1,703.5 		"/>
		<path class="st2" d="M1264.6,957.3h14.9v1.5h-14.9V957.3z M1294.5,957.3h14.9v1.5h-15L1294.5,957.3z M1324.4,957.3h14.9v1.5h-14.9
			V957.3z M1354.3,957.3h14.9v1.5h-14.9V957.3z M1384.2,957.3h14.9v1.5h-14.9V957.3z M1414.1,957.3h14.9v1.5h-14.9V957.3z
			 M1444,957.3h14.9v1.5H1444V957.3z M1473.9,957.3h14.9v1.5h-14.9V957.3z M1503.8,957.3h14.9v1.5h-14.9V957.3z M1533.7,957.3h14.9
			v1.5h-14.9V957.3z M1563.6,957.3h14.9v1.5h-14.9V957.3z M1593.5,957.3h14.9v1.5h-14.9V957.3z M1623.4,957.3h14.9v1.5h-14.9V957.3z
			 M1653.3,957.3h14.9v1.5h-14.9V957.3z"/>
		<path class="st2" d="M1264.6,703.8h14.9v1.5h-14.9V703.8z M1294.5,703.8h14.9v1.5h-15L1294.5,703.8z M1324.4,703.8h14.9v1.5h-14.9
			V703.8z M1354.3,703.8h14.9v1.5h-14.9V703.8z M1384.2,703.8h14.9v1.5h-14.9V703.8z M1414.1,703.8h14.9v1.5h-14.9V703.8z
			 M1444,703.8h14.9v1.5H1444V703.8z M1473.9,703.8h14.9v1.5h-14.9V703.8z M1503.8,703.8h14.9v1.5h-14.9V703.8z M1533.7,703.8h14.9
			v1.5h-14.9V703.8z M1563.6,703.8h14.9v1.5h-14.9V703.8z M1593.5,703.8h14.9v1.5h-14.9V703.8z M1623.4,703.8h14.9v1.5h-14.9V703.8z
			 M1653.3,703.8h14.9v1.5h-14.9V703.8z"/>
		<polygon class="st2" points="1922.5,964.3 1681.7,964.3 1681.7,703.5 1922.5,703.5 1922.5,705.5 1683.7,705.5 1683.7,962.3 
			1922.5,962.3 		"/>
		<rect x="1324.4" y="122" class="st8" width="594.8" height="2"/>
		<rect x="1731.9" class="st8" width="2" height="123"/>
		<rect x="-3.9" y="122" class="st8" width="564.2" height="2"/>
		<rect x="181.4" class="st8" width="2" height="123"/>
		<polygon class="st8" points="1623.8,671.7 1621.8,671.7 1621.8,198.2 1247.3,198.2 1247.3,196.2 1623.8,196.2 		"/>
		<rect x="1593.2" y="330.1" class="st2" width="59" height="14.8"/>
		<polygon class="st0" points="1600.7,303.6 1622,282.3 1643.3,303.6 		"/>
		<path class="st2" d="M1643.3,304.6h-42.7c-0.6,0-1-0.4-1-1c0-0.3,0.1-0.5,0.3-0.7l21.3-21.3c0.4-0.4,1-0.4,1.4,0l21.3,21.3
			c0.4,0.4,0.4,1,0,1.4C1643.8,304.5,1643.6,304.6,1643.3,304.6L1643.3,304.6z M1603.1,302.6h37.8l-18.9-18.9L1603.1,302.6z"/>
		<polygon class="st0" points="1600.7,369.7 1622,391.1 1643.3,369.7 		"/>
		<path class="st2" d="M1622,392.1L1622,392.1c-0.3,0-0.5-0.1-0.7-0.3l-21.3-21.3c-0.4-0.4-0.4-1,0-1.4c0.2-0.2,0.4-0.3,0.7-0.3
			h42.7c0.6,0,1,0.4,1,1c0,0.3-0.1,0.5-0.3,0.7l-21.3,21.3C1622.5,392,1622.2,392.1,1622,392.1z M1603.1,370.7l18.9,18.9l18.9-18.9
			H1603.1z"/>
		<g>
			<defs>
				<circle id="SVGID_8_" cx="936.2" cy="162.3" r="203.9"/>
			</defs>
			<clipPath id="SVGID_9_">
				<use xlink:href="#SVGID_8_"  style="overflow:visible;"/>
			</clipPath>
			<g class="st9">
				<rect x="1117.9" y="397" class="st8" width="11.6" height="11.6"/>
				<rect x="1080.2" y="397" class="st8" width="11.6" height="11.6"/>
				<rect x="1061.4" y="397" class="st8" width="11.6" height="11.6"/>
				<rect x="1042.6" y="397" class="st8" width="11.6" height="11.6"/>
				<rect x="1023.7" y="397" class="st8" width="11.6" height="11.6"/>
				<rect x="1004.9" y="397" class="st8" width="11.6" height="11.6"/>
				<rect x="986" y="397" class="st8" width="11.6" height="11.6"/>
				<rect x="948.3" y="397" class="st8" width="11.6" height="11.6"/>
				<rect x="929.5" y="397" class="st8" width="11.6" height="11.6"/>
				<rect x="1099.1" y="379.2" class="st8" width="11.6" height="11.6"/>
				<rect x="1080.2" y="379.2" class="st8" width="11.6" height="11.6"/>
				<rect x="1061.4" y="379.2" class="st8" width="11.6" height="11.6"/>
				<rect x="986" y="379.2" class="st8" width="11.6" height="11.6"/>
				<rect x="967.2" y="379.2" class="st8" width="11.6" height="11.6"/>
				<rect x="929.5" y="379.2" class="st8" width="11.6" height="11.6"/>
				<rect x="1117.9" y="361.4" class="st8" width="11.6" height="11.6"/>
				<rect x="1099.1" y="361.4" class="st8" width="11.6" height="11.6"/>
				<rect x="1061.4" y="361.4" class="st8" width="11.6" height="11.6"/>
				<rect x="1042.6" y="361.4" class="st8" width="11.6" height="11.6"/>
				<rect x="1023.7" y="361.4" class="st8" width="11.6" height="11.6"/>
				<rect x="1004.9" y="361.4" class="st8" width="11.6" height="11.6"/>
				<rect x="1117.9" y="343.6" class="st8" width="11.6" height="11.6"/>
				<rect x="1080.2" y="343.6" class="st8" width="11.6" height="11.6"/>
				<rect x="1061.4" y="343.6" class="st8" width="11.6" height="11.6"/>
				<rect x="1042.6" y="343.6" class="st8" width="11.6" height="11.6"/>
				<rect x="986" y="343.6" class="st8" width="11.6" height="11.6"/>
				<rect x="948.3" y="343.6" class="st2" width="11.6" height="11.6"/>
				<rect x="1117.9" y="325.7" class="st8" width="11.6" height="11.6"/>
				<rect x="1080.2" y="325.7" class="st8" width="11.6" height="11.6"/>
				<rect x="1061.4" y="325.7" class="st8" width="11.6" height="11.6"/>
				<rect x="986" y="325.7" class="st8" width="11.6" height="11.6"/>
				<rect x="967.2" y="325.7" class="st2" width="11.6" height="11.6"/>
				<rect x="948.3" y="325.7" class="st2" width="11.6" height="11.6"/>
				<rect x="929.5" y="325.7" class="st8" width="11.6" height="11.6"/>
				<rect x="1117.9" y="307.9" class="st8" width="11.6" height="11.6"/>
				<path class="st8" d="M1101,321.1L1101,321.1c-3.2,0-5.8-2.6-5.8-5.8l0,0c0-3.2,2.6-5.8,5.8-5.8l0,0c3.2,0,5.8,2.6,5.8,5.8l0,0
					C1106.8,318.5,1104.2,321.1,1101,321.1z"/>
				<rect x="967.2" y="307.9" class="st8" width="11.6" height="11.6"/>
				<path class="st8" d="M1123.7,301.7L1123.7,301.7c-3.2,0-5.8-2.6-5.8-5.8l0,0c0-3.2,2.6-5.8,5.8-5.8l0,0c3.2,0,5.8,2.6,5.8,5.8
					l0,0C1129.5,299.1,1126.9,301.7,1123.7,301.7z"/>
				<path class="st2" d="M1029.5,301.7L1029.5,301.7c-3.2,0-5.8-2.6-5.8-5.8l0,0c0-3.2,2.6-5.8,5.8-5.8l0,0c3.2,0,5.8,2.6,5.8,5.8
					l0,0C1035.3,299.1,1032.7,301.7,1029.5,301.7z"/>
				
					<rect x="953.5" y="292.5" transform="matrix(0.7071 -0.7071 0.7071 0.7071 70.0301 765.726)" class="st8" width="11.6" height="11.6"/>
				<rect x="929.5" y="290.1" class="st8" width="11.6" height="11.6"/>
				<rect x="1117.9" y="272.3" class="st8" width="11.6" height="11.6"/>
				<rect x="1042.6" y="272.3" class="st8" width="11.6" height="11.6"/>
				<rect x="1004.9" y="272.3" class="st8" width="11.6" height="11.6"/>
				<rect x="1099.1" y="254.5" class="st8" width="11.6" height="11.6"/>
				<rect x="1061.4" y="254.5" class="st8" width="11.6" height="11.6"/>
				<rect x="1023.7" y="254.5" class="st2" width="11.6" height="11.6"/>
				<rect x="986" y="254.5" class="st8" width="11.6" height="11.6"/>
				<rect x="1099.1" y="236.6" class="st8" width="11.6" height="11.6"/>
				<rect x="929.5" y="236.6" class="st2" width="11.6" height="11.6"/>
				<rect x="1080.2" y="218.8" class="st8" width="11.6" height="11.6"/>
				<rect x="1061.4" y="218.8" class="st8" width="11.6" height="11.6"/>
				<rect x="1042.6" y="218.8" class="st2" width="11.6" height="11.6"/>
				<rect x="1023.7" y="218.8" class="st2" width="11.6" height="11.6"/>
				<rect x="1004.9" y="218.8" class="st8" width="11.6" height="11.6"/>
				<rect x="986" y="218.8" class="st8" width="11.6" height="11.6"/>
				<rect x="1117.9" y="201" class="st8" width="11.6" height="11.6"/>
				<rect x="1099.1" y="201" class="st8" width="11.6" height="11.6"/>
				<rect x="948.3" y="201" class="st2" width="11.6" height="11.6"/>
				<rect x="929.5" y="201" class="st2" width="11.6" height="11.6"/>
				<rect x="1172.4" y="176.1" class="st8" width="11.6" height="11.6"/>
				<rect x="1115.9" y="176.1" class="st8" width="11.6" height="11.6"/>
				<rect x="1097" y="176.1" class="st8" width="11.6" height="11.6"/>
				<rect x="1078.2" y="176.1" class="st8" width="11.6" height="11.6"/>
				<rect x="1059.3" y="176.1" class="st8" width="11.6" height="11.6"/>
				<rect x="1040.5" y="176.1" class="st8" width="11.6" height="11.6"/>
				<rect x="1002.8" y="176.1" class="st8" width="11.6" height="11.6"/>
				<rect x="984" y="176.1" class="st8" width="11.6" height="11.6"/>
				<rect x="1153.6" y="158.3" class="st8" width="11.6" height="11.6"/>
				<rect x="1172.4" y="140.5" class="st8" width="11.6" height="11.6"/>
				<rect x="1153.6" y="140.5" class="st8" width="11.6" height="11.6"/>
				<rect x="1097" y="140.5" class="st8" width="11.6" height="11.6"/>
				<rect x="1078.2" y="140.5" class="st8" width="11.6" height="11.6"/>
				<rect x="1059.3" y="140.5" class="st8" width="11.6" height="11.6"/>
				<rect x="1021.7" y="140.5" class="st8" width="11.6" height="11.6"/>
				<rect x="1002.8" y="140.5" class="st8" width="11.6" height="11.6"/>
				<rect x="1172.4" y="122.6" class="st8" width="11.6" height="11.6"/>
				<rect x="1115.9" y="122.6" class="st8" width="11.6" height="11.6"/>
				<rect x="1059.3" y="122.6" class="st8" width="11.6" height="11.6"/>
				<rect x="1040.5" y="122.6" class="st8" width="11.6" height="11.6"/>
				<rect x="1172.4" y="104.8" class="st8" width="11.6" height="11.6"/>
				<rect x="1078.2" y="104.8" class="st8" width="11.6" height="11.6"/>
				<rect x="1021.7" y="104.8" class="st2" width="11.6" height="11.6"/>
				<rect x="1002.8" y="104.8" class="st2" width="11.6" height="11.6"/>
				<rect x="984" y="104.8" class="st8" width="11.6" height="11.6"/>
				<rect x="1172.4" y="87" class="st8" width="11.6" height="11.6"/>
				<path class="st8" d="M1155.4,100.2L1155.4,100.2c-3.2,0-5.8-2.6-5.8-5.8v0c0-3.2,2.6-5.8,5.8-5.8l0,0c3.2,0,5.8,2.6,5.8,5.8v0
					C1161.2,97.6,1158.7,100.2,1155.4,100.2z"/>
				
					<rect x="1097" y="87" transform="matrix(0.7071 -0.7071 0.7071 0.7071 257.388 807.0033)" class="st8" width="11.6" height="11.6"/>
				<rect x="1078.2" y="87" class="st8" width="11.6" height="11.6"/>
				<path class="st8" d="M1178.2,80.8L1178.2,80.8c-3.2,0-5.8-2.6-5.8-5.8v0c0-3.2,2.6-5.8,5.8-5.8l0,0c3.2,0,5.8,2.6,5.8,5.8v0
					C1184,78.2,1181.4,80.8,1178.2,80.8z"/>
				<rect x="1134.7" y="69.2" class="st8" width="11.6" height="11.6"/>
				<rect x="1097" y="69.2" class="st8" width="11.6" height="11.6"/>
				<path class="st8" d="M1084,80.8L1084,80.8c-3.2,0-5.8-2.6-5.8-5.8v0c0-3.2,2.6-5.8,5.8-5.8l0,0c3.2,0,5.8,2.6,5.8,5.8v0
					C1089.8,78.2,1087.2,80.8,1084,80.8z"/>
				<rect x="1040.5" y="69.2" class="st8" width="11.6" height="11.6"/>
				
					<rect x="1008" y="71.6" transform="matrix(0.7071 -0.7071 0.7071 0.7071 242.1927 739.5426)" class="st2" width="11.6" height="11.6"/>
				<rect x="984" y="69.2" class="st2" width="11.6" height="11.6"/>
				<rect x="1172.4" y="51.4" class="st8" width="11.6" height="11.6"/>
				<rect x="1134.7" y="51.4" class="st8" width="11.6" height="11.6"/>
				<rect x="1115.9" y="51.4" class="st8" width="11.6" height="11.6"/>
				<rect x="1078.2" y="51.4" class="st8" width="11.6" height="11.6"/>
				<rect x="1059.3" y="51.4" class="st8" width="11.6" height="11.6"/>
				<rect x="1172.4" y="33.6" class="st8" width="11.6" height="11.6"/>
				<rect x="1153.6" y="33.6" class="st8" width="11.6" height="11.6"/>
				<rect x="1115.9" y="33.6" class="st8" width="11.6" height="11.6"/>
				<rect x="1078.2" y="33.6" class="st8" width="11.6" height="11.6"/>
				<rect x="1040.5" y="33.6" class="st2" width="11.6" height="11.6"/>
				<rect x="1002.8" y="33.6" class="st8" width="11.6" height="11.6"/>
				<rect x="1153.6" y="15.7" class="st8" width="11.6" height="11.6"/>
				<rect x="1097" y="15.7" class="st8" width="11.6" height="11.6"/>
				<rect x="1021.7" y="15.7" class="st8" width="11.6" height="11.6"/>
				<rect x="984" y="15.7" class="st8" width="11.6" height="11.6"/>
				<rect x="1134.7" y="-2.1" class="st8" width="11.6" height="11.6"/>
				<rect x="1115.9" y="-2.1" class="st8" width="11.6" height="11.6"/>
				<rect x="1097" y="-2.1" class="st8" width="11.6" height="11.6"/>
				<rect x="1078.2" y="-2.1" class="st8" width="11.6" height="11.6"/>
				<rect x="964" y="176.1" class="st8" width="11.6" height="11.6"/>
				<rect x="926.3" y="176.1" class="st8" width="11.6" height="11.6"/>
				<rect x="907.5" y="176.1" class="st8" width="11.6" height="11.6"/>
				<rect x="888.6" y="176.1" class="st2" width="11.6" height="11.6"/>
				<rect x="869.8" y="176.1" class="st8" width="11.6" height="11.6"/>
				<rect x="851" y="176.1" class="st8" width="11.6" height="11.6"/>
				<rect x="832.1" y="176.1" class="st8" width="11.6" height="11.6"/>
				<rect x="794.4" y="176.1" class="st8" width="11.6" height="11.6"/>
				<rect x="775.6" y="176.1" class="st8" width="11.6" height="11.6"/>
				<rect x="945.2" y="158.3" class="st8" width="11.6" height="11.6"/>
				<rect x="926.3" y="158.3" class="st8" width="11.6" height="11.6"/>
				<rect x="907.5" y="158.3" class="st2" width="11.6" height="11.6"/>
				<rect x="832.1" y="158.3" class="st8" width="11.6" height="11.6"/>
				<rect x="813.3" y="158.3" class="st8" width="11.6" height="11.6"/>
				<rect x="775.6" y="158.3" class="st8" width="11.6" height="11.6"/>
				<rect x="964" y="140.5" class="st8" width="11.6" height="11.6"/>
				<rect x="945.2" y="140.5" class="st8" width="11.6" height="11.6"/>
				<rect x="907.5" y="140.5" class="st8" width="11.6" height="11.6"/>
				<rect x="888.6" y="140.5" class="st2" width="11.6" height="11.6"/>
				<rect x="869.8" y="140.5" class="st2" width="11.6" height="11.6"/>
				<rect x="869.8" y="122.6" class="st8" width="11.6" height="11.6"/>
				<rect x="885.8" y="110.6" class="st8" width="11.6" height="11.6"/>
				<rect x="830" y="119.1" class="st8" width="11.6" height="11.6"/>
				<rect x="856.8" y="158.3" class="st8" width="11.6" height="11.6"/>
				
					<rect x="930.4" y="129.3" transform="matrix(0.8173 -0.5761 0.5761 0.8173 93.186 564.0609)" class="st8" width="11.6" height="11.6"/>
				<rect x="851" y="140.5" class="st8" width="11.6" height="11.6"/>
				<rect x="813.3" y="140.5" class="st8" width="11.6" height="11.6"/>
				<rect x="794.4" y="140.5" class="st8" width="11.6" height="11.6"/>
				<rect x="851" y="122.6" class="st8" width="11.6" height="11.6"/>
				<rect x="964" y="104.8" class="st8" width="11.6" height="11.6"/>
				<rect x="926.3" y="104.8" class="st8" width="11.6" height="11.6"/>
				<rect x="907.5" y="104.8" class="st8" width="11.6" height="11.6"/>
				<path class="st8" d="M875.6,51L875.6,51c-3.2,0-5.8-2.6-5.8-5.8l0,0c0-3.2,2.6-5.8,5.8-5.8h0c3.2,0,5.8,2.6,5.8,5.8l0,0
					C881.4,48.4,878.8,51,875.6,51z"/>
				<path class="st8" d="M855.6,65L855.6,65c-3.2,0-5.8-2.6-5.8-5.8l0,0c0-3.2,2.6-5.8,5.8-5.8h0c3.2,0,5.8,2.6,5.8,5.8l0,0
					C861.4,62.4,858.8,65,855.6,65z"/>
				<path class="st8" d="M947.1,100.2L947.1,100.2c-3.2,0-5.8-2.6-5.8-5.8v0c0-3.2,2.6-5.8,5.8-5.8h0c3.2,0,5.8,2.6,5.8,5.8v0
					C952.9,97.6,950.3,100.2,947.1,100.2z"/>
				<rect x="907.5" y="87" class="st8" width="11.6" height="11.6"/>
				
					<rect x="888.6" y="87" transform="matrix(0.7071 -0.7071 0.7071 0.7071 196.352 659.6506)" class="st8" width="11.6" height="11.6"/>
				<rect x="869.8" y="87" class="st8" width="11.6" height="11.6"/>
				<rect x="851" y="87" class="st8" width="11.6" height="11.6"/>
				<rect x="832.1" y="87" class="st8" width="11.6" height="11.6"/>
				<path class="st8" d="M969.8,80.8L969.8,80.8c-3.2,0-5.8-2.6-5.8-5.8v0c0-3.2,2.6-5.8,5.8-5.8h0c3.2,0,5.8,2.6,5.8,5.8v0
					C975.6,78.2,973,80.8,969.8,80.8z"/>
				<rect x="926.3" y="69.2" class="st8" width="11.6" height="11.6"/>
				<rect x="888.6" y="69.2" class="st8" width="11.6" height="11.6"/>
				<path class="st8" d="M875.6,80.8L875.6,80.8c-3.2,0-5.8-2.6-5.8-5.8v0c0-3.2,2.6-5.8,5.8-5.8h0c3.2,0,5.8,2.6,5.8,5.8v0
					C881.4,78.2,878.8,80.8,875.6,80.8z"/>
				<rect x="832.1" y="69.2" class="st8" width="11.6" height="11.6"/>
				
					<rect x="799.6" y="71.6" transform="matrix(0.7071 -0.7071 0.7071 0.7071 181.1575 592.1896)" class="st8" width="11.6" height="11.6"/>
				<rect x="775.6" y="69.2" class="st8" width="11.6" height="11.6"/>
				<rect x="964" y="33.6" class="st8" width="11.6" height="11.6"/>
				<rect x="945.2" y="33.6" class="st8" width="11.6" height="11.6"/>
				<rect x="907.5" y="33.6" class="st8" width="11.6" height="11.6"/>
				<rect x="888.6" y="33.6" class="st8" width="11.6" height="11.6"/>
				<rect x="851" y="33.6" class="st8" width="11.6" height="11.6"/>
				<rect x="832.1" y="33.6" class="st2" width="11.6" height="11.6"/>
				<rect x="794.4" y="33.6" class="st8" width="11.6" height="11.6"/>
				<rect x="945.2" y="15.7" class="st8" width="11.6" height="11.6"/>
				<rect x="869.8" y="15.7" class="st8" width="11.6" height="11.6"/>
				<rect x="813.3" y="15.7" class="st8" width="11.6" height="11.6"/>
				<rect x="926.3" y="0" class="st8" width="11.6" height="9.5"/>
				<rect x="907.5" y="0" class="st8" width="11.6" height="9.5"/>
				<rect x="775.6" y="-2.1" class="st8" width="11.6" height="11.6"/>
				<rect x="751" y="172.7" class="st8" width="11.6" height="11.6"/>
				<rect x="713.4" y="172.7" class="st8" width="11.6" height="11.6"/>
				<rect x="694.5" y="172.7" class="st8" width="11.6" height="11.6"/>
				<rect x="675.7" y="172.7" class="st8" width="11.6" height="11.6"/>
				<rect x="656.8" y="172.7" class="st8" width="11.6" height="11.6"/>
				<rect x="638" y="172.7" class="st8" width="11.6" height="11.6"/>
				<rect x="619.1" y="172.7" class="st8" width="11.6" height="11.6"/>
				<rect x="581.5" y="172.7" class="st8" width="11.6" height="11.6"/>
				<rect x="562.6" y="172.7" class="st8" width="11.6" height="11.6"/>
				<rect x="732.2" y="154.9" class="st8" width="11.6" height="11.6"/>
				<rect x="713.4" y="154.9" class="st8" width="11.6" height="11.6"/>
				<rect x="694.5" y="154.9" class="st8" width="11.6" height="11.6"/>
				<rect x="619.1" y="154.9" class="st8" width="11.6" height="11.6"/>
				<rect x="600.3" y="154.9" class="st8" width="11.6" height="11.6"/>
				<rect x="562.6" y="154.9" class="st8" width="11.6" height="11.6"/>
				<rect x="751" y="137.1" class="st8" width="11.6" height="11.6"/>
				<rect x="694.5" y="137.1" class="st8" width="11.6" height="11.6"/>
				<rect x="675.7" y="137.1" class="st8" width="11.6" height="11.6"/>
				<rect x="656.8" y="137.1" class="st8" width="11.6" height="11.6"/>
				<rect x="638" y="137.1" class="st8" width="11.6" height="11.6"/>
				<rect x="600.3" y="137.1" class="st8" width="11.6" height="11.6"/>
				<rect x="581.5" y="137.1" class="st8" width="11.6" height="11.6"/>
				<rect x="713.4" y="119.3" class="st8" width="11.6" height="11.6"/>
				<rect x="694.5" y="119.3" class="st8" width="11.6" height="11.6"/>
				<rect x="675.7" y="119.3" class="st8" width="11.6" height="11.6"/>
				<rect x="656.8" y="119.3" class="st8" width="11.6" height="11.6"/>
				<rect x="638" y="119.3" class="st8" width="11.6" height="11.6"/>
				<rect x="619.1" y="119.3" class="st8" width="11.6" height="11.6"/>
				<rect x="581.5" y="119.3" class="st8" width="11.6" height="11.6"/>
				<rect x="713.4" y="101.5" class="st8" width="11.6" height="11.6"/>
				<rect x="694.5" y="101.5" class="st8" width="11.6" height="11.6"/>
				<rect x="675.7" y="101.5" class="st8" width="11.6" height="11.6"/>
				<rect x="656.8" y="101.5" class="st8" width="11.6" height="11.6"/>
				<rect x="638" y="101.5" class="st8" width="11.6" height="11.6"/>
				<rect x="619.1" y="101.5" class="st8" width="11.6" height="11.6"/>
				<rect x="600.3" y="101.5" class="st8" width="11.6" height="11.6"/>
				<rect x="581.5" y="101.5" class="st8" width="11.6" height="11.6"/>
				<rect x="562.6" y="101.5" class="st8" width="11.6" height="11.6"/>
				<path class="st8" d="M734.1,96.9L734.1,96.9c-3.2,0-5.8-2.6-5.8-5.8v0c0-3.2,2.6-5.8,5.8-5.8h0c3.2,0,5.8,2.6,5.8,5.8v0
					C739.9,94.3,737.3,96.9,734.1,96.9z"/>
				<rect x="694.5" y="83.6" class="st8" width="11.6" height="11.6"/>
				
					<rect x="675.7" y="83.6" transform="matrix(0.7071 -0.7071 0.7071 0.7071 136.3567 508.0664)" class="st8" width="11.6" height="11.6"/>
				<rect x="656.8" y="83.6" class="st8" width="11.6" height="11.6"/>
				<rect x="638" y="83.6" class="st8" width="11.6" height="11.6"/>
				<rect x="619.1" y="83.6" class="st8" width="11.6" height="11.6"/>
				<rect x="600.3" y="83.6" class="st8" width="11.6" height="11.6"/>
				<rect x="562.6" y="83.6" class="st8" width="11.6" height="11.6"/>
				<rect x="713.4" y="65.8" class="st8" width="11.6" height="11.6"/>
				<rect x="694.5" y="65.8" class="st8" width="11.6" height="11.6"/>
				<rect x="675.7" y="65.8" class="st8" width="11.6" height="11.6"/>
				<path class="st8" d="M662.6,77.4L662.6,77.4c-3.2,0-5.8-2.6-5.8-5.8v0c0-3.2,2.6-5.8,5.8-5.8h0c3.2,0,5.8,2.6,5.8,5.8v0
					C668.4,74.8,665.8,77.4,662.6,77.4z"/>
				<rect x="638" y="65.8" class="st8" width="11.6" height="11.6"/>
				<rect x="619.1" y="65.8" class="st8" width="11.6" height="11.6"/>
				
					<rect x="586.6" y="68.2" transform="matrix(0.7071 -0.7071 0.7071 0.7071 121.1618 440.606)" class="st8" width="11.6" height="11.6"/>
				<rect x="562.6" y="65.8" class="st8" width="11.6" height="11.6"/>
				<rect x="713.4" y="48" class="st8" width="11.6" height="11.6"/>
				<rect x="694.5" y="48" class="st8" width="11.6" height="11.6"/>
				<rect x="675.7" y="48" class="st8" width="11.6" height="11.6"/>
				<rect x="656.8" y="48" class="st8" width="11.6" height="11.6"/>
				<rect x="638" y="48" class="st8" width="11.6" height="11.6"/>
				<rect x="619.1" y="48" class="st8" width="11.6" height="11.6"/>
				<rect x="600.3" y="48" class="st8" width="11.6" height="11.6"/>
				<rect x="581.5" y="48" class="st8" width="11.6" height="11.6"/>
				<rect x="751" y="30.2" class="st8" width="11.6" height="11.6"/>
				<rect x="732.2" y="30.2" class="st8" width="11.6" height="11.6"/>
				<rect x="694.5" y="30.2" class="st8" width="11.6" height="11.6"/>
				<rect x="675.7" y="30.2" class="st8" width="11.6" height="11.6"/>
				<rect x="656.8" y="30.2" class="st8" width="11.6" height="11.6"/>
				<rect x="638" y="30.2" class="st8" width="11.6" height="11.6"/>
				<rect x="619.1" y="30.2" class="st8" width="11.6" height="11.6"/>
				<rect x="581.5" y="30.2" class="st8" width="11.6" height="11.6"/>
				<rect x="732.2" y="12.4" class="st8" width="11.6" height="11.6"/>
				<rect x="675.7" y="12.4" class="st8" width="11.6" height="11.6"/>
				<rect x="656.8" y="12.4" class="st8" width="11.6" height="11.6"/>
				<rect x="638" y="12.4" class="st8" width="11.6" height="11.6"/>
				<rect x="600.3" y="12.4" class="st8" width="11.6" height="11.6"/>
				<rect x="581.5" y="12.4" class="st8" width="11.6" height="11.6"/>
				<rect x="562.6" y="12.4" class="st8" width="11.6" height="11.6"/>
				<rect x="713.4" y="-5.5" class="st8" width="11.6" height="11.6"/>
				<rect x="694.5" y="-5.5" class="st8" width="11.6" height="11.6"/>
				<rect x="675.7" y="-5.5" class="st8" width="11.6" height="11.6"/>
				<rect x="656.8" y="-5.5" class="st8" width="11.6" height="11.6"/>
				<rect x="638" y="-5.5" class="st8" width="11.6" height="11.6"/>
				<rect x="619.1" y="-5.5" class="st8" width="11.6" height="11.6"/>
				<rect x="600.3" y="-5.5" class="st8" width="11.6" height="11.6"/>
				<rect x="581.5" y="-5.5" class="st8" width="11.6" height="11.6"/>
				<rect x="562.6" y="-5.5" class="st8" width="11.6" height="11.6"/>
				<rect x="909.8" y="393.3" class="st8" width="11.6" height="11.6"/>
				<rect x="872.1" y="393.3" class="st8" width="11.6" height="11.6"/>
				<rect x="853.3" y="393.3" class="st8" width="11.6" height="11.6"/>
				<rect x="834.4" y="393.3" class="st8" width="11.6" height="11.6"/>
				<rect x="815.6" y="393.3" class="st8" width="11.6" height="11.6"/>
				<rect x="796.7" y="393.3" class="st8" width="11.6" height="11.6"/>
				<rect x="777.9" y="393.3" class="st8" width="11.6" height="11.6"/>
				<rect x="740.2" y="393.3" class="st8" width="11.6" height="11.6"/>
				<rect x="721.4" y="393.3" class="st8" width="11.6" height="11.6"/>
				<rect x="890.9" y="375.5" class="st8" width="11.6" height="11.6"/>
				<rect x="872.1" y="375.5" class="st8" width="11.6" height="11.6"/>
				<rect x="853.3" y="375.5" class="st8" width="11.6" height="11.6"/>
				<rect x="777.9" y="375.5" class="st8" width="11.6" height="11.6"/>
				<rect x="759" y="375.5" class="st8" width="11.6" height="11.6"/>
				<rect x="721.4" y="375.5" class="st8" width="11.6" height="11.6"/>
				<rect x="853.3" y="357.6" class="st8" width="11.6" height="11.6"/>
				<rect x="834.4" y="357.6" class="st8" width="11.6" height="11.6"/>
				<rect x="815.6" y="357.6" class="st8" width="11.6" height="11.6"/>
				<rect x="796.7" y="357.6" class="st8" width="11.6" height="11.6"/>
				<rect x="759" y="357.6" class="st8" width="11.6" height="11.6"/>
				<rect x="740.2" y="357.6" class="st8" width="11.6" height="11.6"/>
				<rect x="909.8" y="339.8" class="st8" width="11.6" height="11.6"/>
				<rect x="872.1" y="339.8" class="st8" width="11.6" height="11.6"/>
				<rect x="815.6" y="339.8" class="st8" width="11.6" height="11.6"/>
				<rect x="796.7" y="339.8" class="st8" width="11.6" height="11.6"/>
				<rect x="777.9" y="339.8" class="st8" width="11.6" height="11.6"/>
				<rect x="740.2" y="339.8" class="st8" width="11.6" height="11.6"/>
				<rect x="909.8" y="322" class="st8" width="11.6" height="11.6"/>
				<rect x="872.1" y="322" class="st8" width="11.6" height="11.6"/>
				<rect x="853.3" y="322" class="st8" width="11.6" height="11.6"/>
				<rect x="834.4" y="322" class="st8" width="11.6" height="11.6"/>
				<rect x="796.7" y="322" class="st8" width="11.6" height="11.6"/>
				<rect x="777.9" y="322" class="st8" width="11.6" height="11.6"/>
				<rect x="759" y="322" class="st8" width="11.6" height="11.6"/>
				<rect x="740.2" y="322" class="st8" width="11.6" height="11.6"/>
				<rect x="721.4" y="322" class="st8" width="11.6" height="11.6"/>
				<path class="st2" d="M892.8,317.4L892.8,317.4c-3.2,0-5.8-2.6-5.8-5.8l0,0c0-3.2,2.6-5.8,5.8-5.8h0c3.2,0,5.8,2.6,5.8,5.8l0,0
					C898.6,314.8,896,317.4,892.8,317.4z"/>
				<rect x="853.3" y="304.2" class="st2" width="11.6" height="11.6"/>
				<rect x="777.9" y="304.2" class="st8" width="11.6" height="11.6"/>
				<rect x="759" y="304.2" class="st8" width="11.6" height="11.6"/>
				<rect x="721.4" y="304.2" class="st8" width="11.6" height="11.6"/>
				<path class="st8" d="M915.6,298L915.6,298c-3.2,0-5.8-2.6-5.8-5.8l0,0c0-3.2,2.6-5.8,5.8-5.8h0c3.2,0,5.8,2.6,5.8,5.8l0,0
					C921.4,295.4,918.8,298,915.6,298z"/>
				<rect x="872.1" y="286.4" class="st2" width="11.6" height="11.6"/>
				<rect x="853.3" y="286.4" class="st2" width="11.6" height="11.6"/>
				<rect x="796.7" y="286.4" class="st8" width="11.6" height="11.6"/>
				
					<rect x="745.4" y="288.8" transform="matrix(0.7071 -0.7071 0.7071 0.7071 11.7082 617.447)" class="st8" width="11.6" height="11.6"/>
				<rect x="721.4" y="286.4" class="st8" width="11.6" height="11.6"/>
				<rect x="740.2" y="268.5" class="st8" width="11.6" height="11.6"/>
				<rect x="909.8" y="250.7" class="st2" width="11.6" height="11.6"/>
				<rect x="890.9" y="250.7" class="st8" width="11.6" height="11.6"/>
				<rect x="853.3" y="250.7" class="st8" width="11.6" height="11.6"/>
				<rect x="834.4" y="250.7" class="st8" width="11.6" height="11.6"/>
				<rect x="815.6" y="250.7" class="st8" width="11.6" height="11.6"/>
				<rect x="796.7" y="250.7" class="st8" width="11.6" height="11.6"/>
				<rect x="777.9" y="250.7" class="st8" width="11.6" height="11.6"/>
				<rect x="740.2" y="250.7" class="st8" width="11.6" height="11.6"/>
				<rect x="890.9" y="232.9" class="st8" width="11.6" height="11.6"/>
				<rect x="721.4" y="232.9" class="st8" width="11.6" height="11.6"/>
				<rect x="872.1" y="215.1" class="st8" width="11.6" height="11.6"/>
				<rect x="853.3" y="215.1" class="st8" width="11.6" height="11.6"/>
				<rect x="834.4" y="215.1" class="st8" width="11.6" height="11.6"/>
				<rect x="815.6" y="215.1" class="st8" width="11.6" height="11.6"/>
				<rect x="796.7" y="215.1" class="st8" width="11.6" height="11.6"/>
				<rect x="777.9" y="215.1" class="st8" width="11.6" height="11.6"/>
				<rect x="759" y="215.1" class="st8" width="11.6" height="11.6"/>
				<rect x="721.4" y="215.1" class="st8" width="11.6" height="11.6"/>
				<rect x="909.8" y="197.3" class="st8" width="11.6" height="11.6"/>
				<rect x="890.9" y="197.3" class="st8" width="11.6" height="11.6"/>
				<rect x="834.4" y="197.3" class="st8" width="11.6" height="11.6"/>
				<rect x="815.6" y="197.3" class="st8" width="11.6" height="11.6"/>
				<rect x="796.7" y="197.3" class="st8" width="11.6" height="11.6"/>
				<rect x="777.9" y="197.3" class="st8" width="11.6" height="11.6"/>
				<rect x="759" y="197.3" class="st8" width="11.6" height="11.6"/>
				<rect x="740.2" y="197.3" class="st8" width="11.6" height="11.6"/>
				<rect x="721.4" y="197.3" class="st8" width="11.6" height="11.6"/>
			</g>
		</g>
		<polygon class="st8" points="619.6,1080 621.6,1080 621.6,1001.5 -9.7,1001.5 -9.7,1003.5 619.6,1003.5 		"/>
		<path class="st2" d="M591.9,0c-21,47.8-32.1,99.3-32.5,151.5l1.8,0C561.6,99.3,572.8,47.8,593.9,0H591.9z"/>
		<path class="st2" d="M620.2,0c-21.3,44.6-33.2,93.1-34.9,142.5l12.5,0.4c1.7-49.7,14.1-98.4,36.3-142.9H620.2z"/>
	</g>
</g>
</svg>
